#VRML V2.0 utf8
# Derived from JLCEDA/EasyEDA Official Library; F1 gold terminals, charcoal body, squared underlined 8; terminal dot removed.
# Dimensions in KiCad VRML units (2.54 mm).
Shape { appearance Appearance { material Material { diffuseColor 0.325490 0.349020 0.321569 specularColor 0.15 0.15 0.15 shininess 0.4 } } geometry IndexedFaceSet { solid FALSE creaseAngle 0.6 coord Coordinate { point [
0.4251969 0.3346457 0.2282677,
0.4251969 0.3346457 0.2283071,
-0.4251969 0.3346457 0.2283071,
-0.4251969 0.3346457 0.2282677,
0.4251969 0.3346457 0.2283071,
0.4251969 0.3346457 0.2283465,
-0.4251969 0.3346457 0.2283071,
-0.4251969 0.3346457 0.2283465,
-0.4251969 0.3346457 0.2283465,
-0.6299213 0.3346457 0.2283465,
-0.4251969 -0.3346457 0.2283465,
-0.6299213 -0.3346457 0.2283465,
-0.6299213 -0.1181102 0.2283465,
-0.6297900 -0.1181102 0.2283465,
-0.6296588 -0.1181099 0.2283465,
-0.6295276 -0.1181096 0.2283465,
-0.6295276 -0.3342520 0.2283465,
-0.4326772 -0.3342520 0.2283465,
-0.4326772 0.3342520 0.2283465,
-0.6295276 0.3342520 0.2283465,
-0.6295276 0.1181096 0.2283465,
-0.6296588 0.1181099 0.2283465,
-0.6297900 0.1181102 0.2283465,
-0.6299213 0.1181102 0.2283465,
0.6299213 0.1181102 0.2283465,
0.6297900 0.1181102 0.2283465,
0.6296588 0.1181099 0.2283465,
0.6295276 0.1181096 0.2283465,
0.6295276 0.3342520 0.2283465,
0.4326772 0.3342520 0.2283465,
0.4326772 -0.3342520 0.2283465,
0.6295276 -0.3342520 0.2283465,
0.6295276 -0.1181096 0.2283465,
0.6296588 -0.1181099 0.2283465,
0.6297900 -0.1181102 0.2283465,
0.6299213 -0.1181102 0.2283465,
0.6299213 -0.3346457 0.2283465,
0.4251969 -0.3346457 0.2283465,
0.4251969 0.3346457 0.2283465,
0.6299213 0.3346457 0.2283465,
-0.4251969 0.3346457 0.2283465,
-0.4251969 -0.3346457 0.2283465,
0.4251969 -0.3346457 0.2283465,
0.4251969 0.3346457 0.2283465,
0.4251969 -0.3346457 0.2283465,
0.4251969 -0.3346457 0.2283071,
-0.4251969 -0.3346457 0.2283071,
-0.4251969 -0.3346457 0.2283465,
-0.4251969 -0.3346457 0.2282677,
-0.4251969 -0.3346457 0.2283071,
0.4251969 -0.3346457 0.2283071,
0.4251969 -0.3346457 0.2282677,
] } coordIndex [
3,2,1,-1,
3,1,0,-1,
5,4,6,-1,
5,6,7,-1,
17,16,11,-1,
10,17,11,-1,
16,15,14,-1,
16,14,13,-1,
11,16,12,-1,
16,13,12,-1,
21,20,19,-1,
22,21,19,-1,
23,22,19,-1,
19,18,9,-1,
23,19,9,-1,
18,8,9,-1,
8,18,17,-1,
10,8,17,-1,
36,31,30,-1,
36,30,37,-1,
31,36,35,-1,
31,35,34,-1,
31,34,33,-1,
31,33,32,-1,
25,24,28,-1,
26,25,28,-1,
27,26,28,-1,
28,24,39,-1,
28,39,29,-1,
37,30,29,-1,
38,37,29,-1,
29,39,38,-1,
43,40,41,-1,
43,41,42,-1,
46,45,44,-1,
47,46,44,-1,
49,48,50,-1,
48,51,50,-1,
] } }
Shape { appearance Appearance { material Material { diffuseColor 0.388235 0.290196 0.262745 specularColor 0.15 0.15 0.15 shininess 0.4 } } geometry IndexedFaceSet { solid FALSE creaseAngle 0.6 coord Coordinate { point [
0.6299213 0.3346457 0.0078740,
-0.6299213 0.3346457 0.0078740,
0.6299213 0.3346457 0.2283465,
0.4251969 0.3346457 0.2283465,
0.4251969 0.3346457 0.2283071,
0.4251969 0.3346457 0.2282677,
-0.4251969 0.3346457 0.2282677,
-0.4251969 0.3346457 0.2283071,
-0.4251969 0.3346457 0.2283465,
-0.6299213 0.3346457 0.2283465,
0.6295276 0.1181096 0.0078740,
0.6296588 0.1181099 0.0078740,
0.6297900 0.1181102 0.0078740,
0.6299213 0.1181102 0.0078740,
0.6295276 0.3342520 0.0078740,
0.4326772 0.3342520 0.0078740,
0.4326772 -0.3342520 0.0078740,
0.6295276 -0.3342520 0.0078740,
0.6295276 -0.1181096 0.0078740,
0.6299213 -0.1181102 0.0078740,
0.6297900 -0.1181102 0.0078740,
0.6296588 -0.1181099 0.0078740,
0.6299213 -0.3346457 0.0078740,
-0.6299213 -0.3346457 0.0078740,
-0.6299213 -0.1181102 0.0078740,
-0.6295276 -0.1181096 0.0078740,
-0.6296588 -0.1181099 0.0078740,
-0.6297900 -0.1181102 0.0078740,
-0.6295276 -0.3342520 0.0078740,
-0.4326772 -0.3342520 0.0078740,
-0.4326772 0.3342520 0.0078740,
-0.6295276 0.3342520 0.0078740,
-0.6295276 0.1181096 0.0078740,
-0.6299213 0.1181102 0.0078740,
-0.6297900 0.1181102 0.0078740,
-0.6296588 0.1181099 0.0078740,
-0.6299213 0.3346457 0.0078740,
0.6299213 0.3346457 0.0078740,
-0.1344229 0.0517659 0.0078740,
-0.1449856 0.0517659 0.0078740,
-0.1757135 -0.0269743 0.0078740,
-0.1641905 -0.0269743 0.0078740,
-0.1562235 -0.0048886 0.0078740,
-0.1236952 -0.0048886 0.0078740,
-0.1161782 -0.0269743 0.0078740,
-0.1046553 -0.0269743 0.0078740,
-0.0988938 0.0133861 0.0078740,
-0.0986228 0.0079340 0.0078740,
-0.0980295 0.0039973 0.0078740,
-0.0971683 0.0004138 0.0078740,
-0.0961136 -0.0027314 0.0078740,
-0.0949246 -0.0054705 0.0078740,
-0.0936544 -0.0078384 0.0078740,
-0.0922047 -0.0101015 0.0078740,
-0.0905949 -0.0122534 0.0078740,
-0.0888298 -0.0142797 0.0078740,
-0.0869199 -0.0161703 0.0078740,
-0.0848830 -0.0179229 0.0078740,
-0.0827382 -0.0195426 0.0078740,
-0.0804890 -0.0210126 0.0078740,
-0.0781357 -0.0223103 0.0078740,
-0.0756971 -0.0234393 0.0078740,
-0.0731904 -0.0244080 0.0078740,
-0.0706279 -0.0252180 0.0078740,
-0.0680187 -0.0258580 0.0078740,
-0.0653753 -0.0263449 0.0078740,
-0.0627108 -0.0266967 0.0078740,
-0.0598236 -0.0269000 0.0078740,
-0.0569281 -0.0269743 0.0078740,
-0.0355176 -0.0269743 0.0078740,
-0.0355176 0.0517659 0.0078740,
-0.0577383 0.0517659 0.0078740,
-0.0630011 0.0515268 0.0078740,
-0.0668089 0.0510198 0.0078740,
-0.0706666 0.0501637 0.0078740,
-0.0744364 0.0489785 0.0078740,
-0.0773969 0.0477609 0.0078740,
-0.0800353 0.0464103 0.0078740,
-0.0825668 0.0448677 0.0078740,
-0.0849800 0.0431468 0.0078740,
-0.0872586 0.0412507 0.0078740,
-0.0893848 0.0391850 0.0078740,
-0.0913296 0.0369483 0.0078740,
-0.0930766 0.0345530 0.0078740,
-0.0944613 0.0322728 0.0078740,
-0.0955378 0.0301262 0.0078740,
-0.0964551 0.0279067 0.0078740,
-0.0972167 0.0256295 0.0078740,
-0.0978260 0.0233072 0.0078740,
-0.0982953 0.0209516 0.0078740,
-0.0986270 0.0185731 0.0078740,
-0.0988174 0.0159835 0.0078740,
0.0115345 -0.0183320 0.0078740,
-0.0201537 -0.0183320 0.0078740,
-0.0201537 -0.0269743 0.0078740,
0.0220972 -0.0269743 0.0078740,
0.0220972 0.0517659 0.0078740,
-0.0182332 0.0517659 0.0078740,
-0.0182332 0.0431237 0.0078740,
0.0115345 0.0431237 0.0078740,
0.0115345 0.0171970 0.0078740,
-0.0163127 0.0171970 0.0078740,
-0.0163127 0.0085548 0.0078740,
0.0115345 0.0085548 0.0078740,
0.0576713 -0.0192923 0.0078740,
0.0541606 -0.0191766 0.0078740,
0.0506683 -0.0187949 0.0078740,
0.0475614 -0.0182124 0.0078740,
0.0448120 -0.0174783 0.0078740,
0.0421298 -0.0165294 0.0078740,
0.0397492 -0.0154846 0.0078740,
0.0374611 -0.0142510 0.0078740,
0.0374611 -0.0228932 0.0078740,
0.0391577 -0.0238082 0.0078740,
0.0404620 -0.0244366 0.0078740,
0.0432875 -0.0255533 0.0078740,
0.0459018 -0.0263521 0.0078740,
0.0485653 -0.0269706 0.0078740,
0.0512613 -0.0274235 0.0078740,
0.0548877 -0.0277973 0.0078740,
0.0570058 -0.0278985 0.0078740,
0.0591266 -0.0279345 0.0078740,
0.0641558 -0.0276867 0.0078740,
0.0674271 -0.0272163 0.0078740,
0.0707385 -0.0264471 0.0078740,
0.0736467 -0.0254960 0.0078740,
0.0764635 -0.0243007 0.0078740,
0.0788938 -0.0230050 0.0078740,
0.0809723 -0.0216547 0.0078740,
0.0829355 -0.0201414 0.0078740,
0.0847884 -0.0184943 0.0078740,
0.0865185 -0.0167198 0.0078740,
0.0881117 -0.0148207 0.0078740,
0.0895662 -0.0128134 0.0078740,
0.0908747 -0.0107084 0.0078740,
0.0920292 -0.0085148 0.0078740,
0.0930252 -0.0062452 0.0078740,
0.0938672 -0.0039137 0.0078740,
0.0945595 -0.0015337 0.0078740,
0.0951054 0.0008837 0.0078740,
0.0956355 0.0041463 0.0078740,
0.0959397 0.0075215 0.0078740,
0.0960361 0.0109104 0.0078740,
0.0957886 0.0163242 0.0078740,
0.0952672 0.0202415 0.0078740,
0.0944958 0.0238181 0.0078740,
0.0935401 0.0269694 0.0078740,
0.0923347 0.0300341 0.0078740,
0.0908808 0.0329890 0.0078740,
0.0893554 0.0355303 0.0078740,
0.0878067 0.0377026 0.0078740,
0.0861045 0.0397565 0.0078740,
0.0842669 0.0416906 0.0078740,
0.0823077 0.0435011 0.0078740,
0.0802282 0.0451720 0.0078740,
0.0780345 0.0466899 0.0078740,
0.0757373 0.0480462 0.0078740,
0.0733488 0.0492347 0.0078740,
0.0708790 0.0502426 0.0078740,
0.0683416 0.0510665 0.0078740,
0.0657549 0.0517179 0.0078740,
0.0631318 0.0522063 0.0078740,
0.0604836 0.0525268 0.0078740,
0.0582396 0.0526620 0.0078740,
0.0559908 0.0527261 0.0078740,
0.0503222 0.0525067 0.0078740,
0.0462153 0.0520209 0.0078740,
0.0428333 0.0513574 0.0078740,
0.0401093 0.0505960 0.0078740,
0.0374611 0.0496053 0.0078740,
0.0374611 0.0390426 0.0078740,
0.0402928 0.0405867 0.0078740,
0.0432595 0.0418544 0.0078740,
0.0460193 0.0427545 0.0078740,
0.0485585 0.0433716 0.0078740,
0.0511379 0.0437894 0.0078740,
0.0535145 0.0440150 0.0078740,
0.0559008 0.0440839 0.0078740,
0.0596090 0.0439008 0.0078740,
0.0622872 0.0435016 0.0078740,
0.0647304 0.0429402 0.0078740,
0.0668778 0.0422484 0.0078740,
0.0689581 0.0413739 0.0078740,
0.0709539 0.0403220 0.0078740,
0.0728527 0.0391029 0.0078740,
0.0746475 0.0377356 0.0078740,
0.0763232 0.0362250 0.0078740,
0.0778758 0.0345872 0.0078740,
0.0792937 0.0328324 0.0078740,
0.0805578 0.0309636 0.0078740,
0.0816806 0.0290059 0.0078740,
0.0826495 0.0269687 0.0078740,
0.0834550 0.0248608 0.0078740,
0.0841109 0.0227019 0.0078740,
0.0846292 0.0205060 0.0078740,
0.0850160 0.0182831 0.0078740,
0.0852740 0.0160415 0.0078740,
0.0854106 0.0138005 0.0078740,
0.0854734 0.0115556 0.0078740,
0.0853210 0.0076585 0.0078740,
0.0848873 0.0041749 0.0078740,
0.0842288 0.0010851 0.0078740,
0.0834851 -0.0013637 0.0078740,
0.0826142 -0.0035677 0.0078740,
0.0815699 -0.0056952 0.0078740,
0.0804747 -0.0075253 0.0078740,
0.0791291 -0.0093951 0.0078740,
0.0776714 -0.0110945 0.0078740,
0.0761986 -0.0125537 0.0078740,
0.0746171 -0.0138946 0.0078740,
0.0729290 -0.0150977 0.0078740,
0.0711432 -0.0161512 0.0078740,
0.0692779 -0.0170562 0.0078740,
0.0673435 -0.0178023 0.0078740,
0.0653543 -0.0183859 0.0078740,
0.0633260 -0.0188163 0.0078740,
0.0612726 -0.0191043 0.0078740,
0.0594744 -0.0192339 0.0078740,
0.1325254 -0.0183320 0.0078740,
0.1027578 -0.0183320 0.0078740,
0.1027578 -0.0269743 0.0078740,
0.1430881 -0.0269743 0.0078740,
0.1430881 0.0517659 0.0078740,
0.1325254 0.0517659 0.0078740,
-0.6299213 0.3346457 0.2283465,
-0.6299213 0.3346457 0.0078740,
-0.6299213 0.1181102 0.2283465,
-0.6299213 0.1181102 0.0078740,
0.6299213 0.3346457 0.2283465,
0.6299213 0.3346457 0.0078740,
0.6299213 0.1181102 0.0078740,
0.6299213 0.1181102 0.2283465,
-0.1344229 0.0517659 0.0078740,
-0.1449856 0.0517659 0.0078740,
-0.1344229 0.0517659 0.0118110,
-0.1449856 0.0517659 0.0118110,
-0.1449856 0.0517659 0.0078740,
-0.1757135 -0.0269743 0.0078740,
-0.1449856 0.0517659 0.0118110,
-0.1757135 -0.0269743 0.0118110,
-0.1757135 -0.0269743 0.0078740,
-0.1641905 -0.0269743 0.0078740,
-0.1757135 -0.0269743 0.0118110,
-0.1641905 -0.0269743 0.0118110,
-0.1641905 -0.0269743 0.0078740,
-0.1562235 -0.0048886 0.0078740,
-0.1641905 -0.0269743 0.0118110,
-0.1562235 -0.0048886 0.0118110,
-0.1562235 -0.0048886 0.0078740,
-0.1236952 -0.0048886 0.0078740,
-0.1562235 -0.0048886 0.0118110,
-0.1236952 -0.0048886 0.0118110,
-0.1236952 -0.0048886 0.0078740,
-0.1161782 -0.0269743 0.0078740,
-0.1236952 -0.0048886 0.0118110,
-0.1161782 -0.0269743 0.0118110,
-0.1161782 -0.0269743 0.0078740,
-0.1046553 -0.0269743 0.0078740,
-0.1161782 -0.0269743 0.0118110,
-0.1046553 -0.0269743 0.0118110,
-0.1046553 -0.0269743 0.0078740,
-0.1344229 0.0517659 0.0078740,
-0.1046553 -0.0269743 0.0118110,
-0.1344229 0.0517659 0.0118110,
0.6299213 0.1181102 0.2283465,
0.6297900 0.1181102 0.2283465,
0.6296588 0.1181099 0.2283465,
0.6295276 0.1181096 0.2283465,
0.6299213 0.1181102 0.0078740,
0.6295276 0.1181096 0.0078740,
0.6296588 0.1181099 0.0078740,
0.6297900 0.1181102 0.0078740,
0.6299213 -0.1181102 0.0078740,
0.6297900 -0.1181102 0.0078740,
0.6296588 -0.1181099 0.0078740,
0.6295276 -0.1181096 0.0078740,
0.6299213 -0.1181102 0.2283465,
0.6295276 -0.1181096 0.2283465,
0.6296588 -0.1181099 0.2283465,
0.6297900 -0.1181102 0.2283465,
0.6299213 -0.3346457 0.2283465,
0.6299213 -0.3346457 0.0078740,
0.6299213 -0.1181102 0.2283465,
0.6299213 -0.1181102 0.0078740,
-0.6299213 -0.3346457 0.0078740,
0.6299213 -0.3346457 0.0078740,
-0.6299213 -0.3346457 0.2283465,
-0.4251969 -0.3346457 0.2283465,
-0.4251969 -0.3346457 0.2283071,
-0.4251969 -0.3346457 0.2282677,
0.4251969 -0.3346457 0.2282677,
0.4251969 -0.3346457 0.2283071,
0.4251969 -0.3346457 0.2283465,
0.6299213 -0.3346457 0.2283465,
-0.6299213 -0.3346457 0.2283465,
-0.6299213 -0.3346457 0.0078740,
-0.6299213 -0.1181102 0.0078740,
-0.6299213 -0.1181102 0.2283465,
-0.6299213 -0.1181102 0.2283465,
-0.6297900 -0.1181102 0.2283465,
-0.6296588 -0.1181099 0.2283465,
-0.6295276 -0.1181096 0.2283465,
-0.6299213 -0.1181102 0.0078740,
-0.6295276 -0.1181096 0.0078740,
-0.6296588 -0.1181099 0.0078740,
-0.6297900 -0.1181102 0.0078740,
-0.6299213 0.1181102 0.0078740,
-0.6297900 0.1181102 0.0078740,
-0.6296588 0.1181099 0.0078740,
-0.6295276 0.1181096 0.0078740,
-0.6299213 0.1181102 0.2283465,
-0.6295276 0.1181096 0.2283465,
-0.6296588 0.1181099 0.2283465,
-0.6297900 0.1181102 0.2283465,
-0.0988938 0.0133861 0.0078740,
-0.0986228 0.0079340 0.0078740,
-0.0980295 0.0039973 0.0078740,
-0.0971683 0.0004138 0.0078740,
-0.0961136 -0.0027314 0.0078740,
-0.0949246 -0.0054705 0.0078740,
-0.0936544 -0.0078384 0.0078740,
-0.0922047 -0.0101015 0.0078740,
-0.0905949 -0.0122534 0.0078740,
-0.0888298 -0.0142797 0.0078740,
-0.0869199 -0.0161703 0.0078740,
-0.0848830 -0.0179229 0.0078740,
-0.0827382 -0.0195426 0.0078740,
-0.0804890 -0.0210126 0.0078740,
-0.0781357 -0.0223103 0.0078740,
-0.0756971 -0.0234393 0.0078740,
-0.0731904 -0.0244080 0.0078740,
-0.0706279 -0.0252180 0.0078740,
-0.0680187 -0.0258580 0.0078740,
-0.0653753 -0.0263449 0.0078740,
-0.0627108 -0.0266967 0.0078740,
-0.0598236 -0.0269000 0.0078740,
-0.0569281 -0.0269743 0.0078740,
-0.0988938 0.0133861 0.0118110,
-0.0986228 0.0079340 0.0118110,
-0.0980295 0.0039973 0.0118110,
-0.0971683 0.0004138 0.0118110,
-0.0961136 -0.0027314 0.0118110,
-0.0949246 -0.0054705 0.0118110,
-0.0936544 -0.0078384 0.0118110,
-0.0922047 -0.0101015 0.0118110,
-0.0905949 -0.0122534 0.0118110,
-0.0888298 -0.0142797 0.0118110,
-0.0869199 -0.0161703 0.0118110,
-0.0848830 -0.0179229 0.0118110,
-0.0827382 -0.0195426 0.0118110,
-0.0804890 -0.0210126 0.0118110,
-0.0781357 -0.0223103 0.0118110,
-0.0756971 -0.0234393 0.0118110,
-0.0731904 -0.0244080 0.0118110,
-0.0706279 -0.0252180 0.0118110,
-0.0680187 -0.0258580 0.0118110,
-0.0653753 -0.0263449 0.0118110,
-0.0627108 -0.0266967 0.0118110,
-0.0598236 -0.0269000 0.0118110,
-0.0569281 -0.0269743 0.0118110,
-0.0569281 -0.0269743 0.0078740,
-0.0355176 -0.0269743 0.0078740,
-0.0569281 -0.0269743 0.0118110,
-0.0355176 -0.0269743 0.0118110,
-0.0355176 -0.0269743 0.0078740,
-0.0355176 0.0517659 0.0078740,
-0.0355176 -0.0269743 0.0118110,
-0.0355176 0.0517659 0.0118110,
-0.0355176 0.0517659 0.0078740,
-0.0577383 0.0517659 0.0078740,
-0.0355176 0.0517659 0.0118110,
-0.0577383 0.0517659 0.0118110,
-0.0577383 0.0517659 0.0078740,
-0.0630011 0.0515268 0.0078740,
-0.0668089 0.0510198 0.0078740,
-0.0706666 0.0501637 0.0078740,
-0.0744364 0.0489785 0.0078740,
-0.0773969 0.0477609 0.0078740,
-0.0800353 0.0464103 0.0078740,
-0.0825668 0.0448677 0.0078740,
-0.0849800 0.0431468 0.0078740,
-0.0872586 0.0412507 0.0078740,
-0.0893848 0.0391850 0.0078740,
-0.0913296 0.0369483 0.0078740,
-0.0930766 0.0345530 0.0078740,
-0.0944613 0.0322728 0.0078740,
-0.0955378 0.0301262 0.0078740,
-0.0964551 0.0279067 0.0078740,
-0.0972167 0.0256295 0.0078740,
-0.0978260 0.0233072 0.0078740,
-0.0982953 0.0209516 0.0078740,
-0.0986270 0.0185731 0.0078740,
-0.0988174 0.0159835 0.0078740,
-0.0988938 0.0133861 0.0078740,
-0.0577383 0.0517659 0.0118110,
-0.0630011 0.0515268 0.0118110,
-0.0668089 0.0510198 0.0118110,
-0.0706666 0.0501637 0.0118110,
-0.0744364 0.0489785 0.0118110,
-0.0773969 0.0477609 0.0118110,
-0.0800353 0.0464103 0.0118110,
-0.0825668 0.0448677 0.0118110,
-0.0849800 0.0431468 0.0118110,
-0.0872586 0.0412507 0.0118110,
-0.0893848 0.0391850 0.0118110,
-0.0913296 0.0369483 0.0118110,
-0.0930766 0.0345530 0.0118110,
-0.0944613 0.0322728 0.0118110,
-0.0955378 0.0301262 0.0118110,
-0.0964551 0.0279067 0.0118110,
-0.0972167 0.0256295 0.0118110,
-0.0978260 0.0233072 0.0118110,
-0.0982953 0.0209516 0.0118110,
-0.0986270 0.0185731 0.0118110,
-0.0988174 0.0159835 0.0118110,
-0.0988938 0.0133861 0.0118110,
0.0115345 -0.0183320 0.0078740,
-0.0201537 -0.0183320 0.0078740,
0.0115345 -0.0183320 0.0118110,
-0.0201537 -0.0183320 0.0118110,
-0.0201537 -0.0183320 0.0078740,
-0.0201537 -0.0269743 0.0078740,
-0.0201537 -0.0183320 0.0118110,
-0.0201537 -0.0269743 0.0118110,
-0.0201537 -0.0269743 0.0078740,
0.0220972 -0.0269743 0.0078740,
-0.0201537 -0.0269743 0.0118110,
0.0220972 -0.0269743 0.0118110,
0.0220972 -0.0269743 0.0078740,
0.0220972 0.0517659 0.0078740,
0.0220972 -0.0269743 0.0118110,
0.0220972 0.0517659 0.0118110,
0.0220972 0.0517659 0.0078740,
-0.0182332 0.0517659 0.0078740,
0.0220972 0.0517659 0.0118110,
-0.0182332 0.0517659 0.0118110,
-0.0182332 0.0517659 0.0078740,
-0.0182332 0.0431237 0.0078740,
-0.0182332 0.0517659 0.0118110,
-0.0182332 0.0431237 0.0118110,
-0.0182332 0.0431237 0.0078740,
0.0115345 0.0431237 0.0078740,
-0.0182332 0.0431237 0.0118110,
0.0115345 0.0431237 0.0118110,
0.0115345 0.0431237 0.0078740,
0.0115345 0.0171970 0.0078740,
0.0115345 0.0431237 0.0118110,
0.0115345 0.0171970 0.0118110,
0.0115345 0.0171970 0.0078740,
-0.0163127 0.0171970 0.0078740,
0.0115345 0.0171970 0.0118110,
-0.0163127 0.0171970 0.0118110,
-0.0163127 0.0171970 0.0078740,
-0.0163127 0.0085548 0.0078740,
-0.0163127 0.0171970 0.0118110,
-0.0163127 0.0085548 0.0118110,
-0.0163127 0.0085548 0.0078740,
0.0115345 0.0085548 0.0078740,
-0.0163127 0.0085548 0.0118110,
0.0115345 0.0085548 0.0118110,
0.0115345 0.0085548 0.0078740,
0.0115345 -0.0183320 0.0078740,
0.0115345 0.0085548 0.0118110,
0.0115345 -0.0183320 0.0118110,
0.0576713 -0.0192923 0.0078740,
0.0541606 -0.0191766 0.0078740,
0.0506683 -0.0187949 0.0078740,
0.0475614 -0.0182124 0.0078740,
0.0448120 -0.0174783 0.0078740,
0.0421298 -0.0165294 0.0078740,
0.0397492 -0.0154846 0.0078740,
0.0374611 -0.0142510 0.0078740,
0.0576713 -0.0192923 0.0118110,
0.0541606 -0.0191766 0.0118110,
0.0506683 -0.0187949 0.0118110,
0.0475614 -0.0182124 0.0118110,
0.0448120 -0.0174783 0.0118110,
0.0421298 -0.0165294 0.0118110,
0.0397492 -0.0154846 0.0118110,
0.0374611 -0.0142510 0.0118110,
0.0374611 -0.0142510 0.0078740,
0.0374611 -0.0228932 0.0078740,
0.0374611 -0.0142510 0.0118110,
0.0374611 -0.0228932 0.0118110,
0.0374611 -0.0228932 0.0078740,
0.0391577 -0.0238082 0.0078740,
0.0404620 -0.0244366 0.0078740,
0.0432875 -0.0255533 0.0078740,
0.0459018 -0.0263521 0.0078740,
0.0485653 -0.0269706 0.0078740,
0.0512613 -0.0274235 0.0078740,
0.0548877 -0.0277973 0.0078740,
0.0570058 -0.0278985 0.0078740,
0.0591266 -0.0279345 0.0078740,
0.0374611 -0.0228932 0.0118110,
0.0391577 -0.0238082 0.0118110,
0.0404620 -0.0244366 0.0118110,
0.0432875 -0.0255533 0.0118110,
0.0459018 -0.0263521 0.0118110,
0.0485653 -0.0269706 0.0118110,
0.0512613 -0.0274235 0.0118110,
0.0548877 -0.0277973 0.0118110,
0.0570058 -0.0278985 0.0118110,
0.0591266 -0.0279345 0.0118110,
0.0591266 -0.0279345 0.0078740,
0.0641558 -0.0276867 0.0078740,
0.0674271 -0.0272163 0.0078740,
0.0707385 -0.0264471 0.0078740,
0.0736467 -0.0254960 0.0078740,
0.0764635 -0.0243007 0.0078740,
0.0788938 -0.0230050 0.0078740,
0.0809723 -0.0216547 0.0078740,
0.0829355 -0.0201414 0.0078740,
0.0847884 -0.0184943 0.0078740,
0.0865185 -0.0167198 0.0078740,
0.0881117 -0.0148207 0.0078740,
0.0895662 -0.0128134 0.0078740,
0.0908747 -0.0107084 0.0078740,
0.0920292 -0.0085148 0.0078740,
0.0930252 -0.0062452 0.0078740,
0.0938672 -0.0039137 0.0078740,
0.0945595 -0.0015337 0.0078740,
0.0951054 0.0008837 0.0078740,
0.0956355 0.0041463 0.0078740,
0.0959397 0.0075215 0.0078740,
0.0960361 0.0109104 0.0078740,
0.0591266 -0.0279345 0.0118110,
0.0641558 -0.0276867 0.0118110,
0.0674271 -0.0272163 0.0118110,
0.0707385 -0.0264471 0.0118110,
0.0736467 -0.0254960 0.0118110,
0.0764635 -0.0243007 0.0118110,
0.0788938 -0.0230050 0.0118110,
0.0809723 -0.0216547 0.0118110,
0.0829355 -0.0201414 0.0118110,
0.0847884 -0.0184943 0.0118110,
0.0865185 -0.0167198 0.0118110,
0.0881117 -0.0148207 0.0118110,
0.0895662 -0.0128134 0.0118110,
0.0908747 -0.0107084 0.0118110,
0.0920292 -0.0085148 0.0118110,
0.0930252 -0.0062452 0.0118110,
0.0938672 -0.0039137 0.0118110,
0.0945595 -0.0015337 0.0118110,
0.0951054 0.0008837 0.0118110,
0.0956355 0.0041463 0.0118110,
0.0959397 0.0075215 0.0118110,
0.0960361 0.0109104 0.0118110,
0.0960361 0.0109104 0.0078740,
0.0957886 0.0163242 0.0078740,
0.0952672 0.0202415 0.0078740,
0.0944958 0.0238181 0.0078740,
0.0935401 0.0269694 0.0078740,
0.0923347 0.0300341 0.0078740,
0.0908808 0.0329890 0.0078740,
0.0893554 0.0355303 0.0078740,
0.0878067 0.0377026 0.0078740,
0.0861045 0.0397565 0.0078740,
0.0842669 0.0416906 0.0078740,
0.0823077 0.0435011 0.0078740,
0.0802282 0.0451720 0.0078740,
0.0780345 0.0466899 0.0078740,
0.0757373 0.0480462 0.0078740,
0.0733488 0.0492347 0.0078740,
0.0708790 0.0502426 0.0078740,
0.0683416 0.0510665 0.0078740,
0.0657549 0.0517179 0.0078740,
0.0631318 0.0522063 0.0078740,
0.0604836 0.0525268 0.0078740,
0.0582396 0.0526620 0.0078740,
0.0559908 0.0527261 0.0078740,
0.0960361 0.0109104 0.0118110,
0.0957886 0.0163242 0.0118110,
0.0952672 0.0202415 0.0118110,
0.0944958 0.0238181 0.0118110,
0.0935401 0.0269694 0.0118110,
0.0923347 0.0300341 0.0118110,
0.0908808 0.0329890 0.0118110,
0.0893554 0.0355303 0.0118110,
0.0878067 0.0377026 0.0118110,
0.0861045 0.0397565 0.0118110,
0.0842669 0.0416906 0.0118110,
0.0823077 0.0435011 0.0118110,
0.0802282 0.0451720 0.0118110,
0.0780345 0.0466899 0.0118110,
0.0757373 0.0480462 0.0118110,
0.0733488 0.0492347 0.0118110,
0.0708790 0.0502426 0.0118110,
0.0683416 0.0510665 0.0118110,
0.0657549 0.0517179 0.0118110,
0.0631318 0.0522063 0.0118110,
0.0604836 0.0525268 0.0118110,
0.0582396 0.0526620 0.0118110,
0.0559908 0.0527261 0.0118110,
0.0559908 0.0527261 0.0078740,
0.0503222 0.0525067 0.0078740,
0.0462153 0.0520209 0.0078740,
0.0428333 0.0513574 0.0078740,
0.0401093 0.0505960 0.0078740,
0.0374611 0.0496053 0.0078740,
0.0559908 0.0527261 0.0118110,
0.0503222 0.0525067 0.0118110,
0.0462153 0.0520209 0.0118110,
0.0428333 0.0513574 0.0118110,
0.0401093 0.0505960 0.0118110,
0.0374611 0.0496053 0.0118110,
0.0374611 0.0496053 0.0078740,
0.0374611 0.0390426 0.0078740,
0.0374611 0.0496053 0.0118110,
0.0374611 0.0390426 0.0118110,
0.0374611 0.0390426 0.0078740,
0.0402928 0.0405867 0.0078740,
0.0432595 0.0418544 0.0078740,
0.0460193 0.0427545 0.0078740,
0.0485585 0.0433716 0.0078740,
0.0511379 0.0437894 0.0078740,
0.0535145 0.0440150 0.0078740,
0.0559008 0.0440839 0.0078740,
0.0374611 0.0390426 0.0118110,
0.0402928 0.0405867 0.0118110,
0.0432595 0.0418544 0.0118110,
0.0460193 0.0427545 0.0118110,
0.0485585 0.0433716 0.0118110,
0.0511379 0.0437894 0.0118110,
0.0535145 0.0440150 0.0118110,
0.0559008 0.0440839 0.0118110,
0.0559008 0.0440839 0.0078740,
0.0596090 0.0439008 0.0078740,
0.0622872 0.0435016 0.0078740,
0.0647304 0.0429402 0.0078740,
0.0668778 0.0422484 0.0078740,
0.0689581 0.0413739 0.0078740,
0.0709539 0.0403220 0.0078740,
0.0728527 0.0391029 0.0078740,
0.0746475 0.0377356 0.0078740,
0.0763232 0.0362250 0.0078740,
0.0778758 0.0345872 0.0078740,
0.0792937 0.0328324 0.0078740,
0.0805578 0.0309636 0.0078740,
0.0816806 0.0290059 0.0078740,
0.0826495 0.0269687 0.0078740,
0.0834550 0.0248608 0.0078740,
0.0841109 0.0227019 0.0078740,
0.0846292 0.0205060 0.0078740,
0.0850160 0.0182831 0.0078740,
0.0852740 0.0160415 0.0078740,
0.0854106 0.0138005 0.0078740,
0.0854734 0.0115556 0.0078740,
0.0559008 0.0440839 0.0118110,
0.0596090 0.0439008 0.0118110,
0.0622872 0.0435016 0.0118110,
0.0647304 0.0429402 0.0118110,
0.0668778 0.0422484 0.0118110,
0.0689581 0.0413739 0.0118110,
0.0709539 0.0403220 0.0118110,
0.0728527 0.0391029 0.0118110,
0.0746475 0.0377356 0.0118110,
0.0763232 0.0362250 0.0118110,
0.0778758 0.0345872 0.0118110,
0.0792937 0.0328324 0.0118110,
0.0805578 0.0309636 0.0118110,
0.0816806 0.0290059 0.0118110,
0.0826495 0.0269687 0.0118110,
0.0834550 0.0248608 0.0118110,
0.0841109 0.0227019 0.0118110,
0.0846292 0.0205060 0.0118110,
0.0850160 0.0182831 0.0118110,
0.0852740 0.0160415 0.0118110,
0.0854106 0.0138005 0.0118110,
0.0854734 0.0115556 0.0118110,
0.0854734 0.0115556 0.0078740,
0.0853210 0.0076585 0.0078740,
0.0848873 0.0041749 0.0078740,
0.0842288 0.0010851 0.0078740,
0.0834851 -0.0013637 0.0078740,
0.0826142 -0.0035677 0.0078740,
0.0815699 -0.0056952 0.0078740,
0.0804747 -0.0075253 0.0078740,
0.0791291 -0.0093951 0.0078740,
0.0776714 -0.0110945 0.0078740,
0.0761986 -0.0125537 0.0078740,
0.0746171 -0.0138946 0.0078740,
0.0729290 -0.0150977 0.0078740,
0.0711432 -0.0161512 0.0078740,
0.0692779 -0.0170562 0.0078740,
0.0673435 -0.0178023 0.0078740,
0.0653543 -0.0183859 0.0078740,
0.0633260 -0.0188163 0.0078740,
0.0612726 -0.0191043 0.0078740,
0.0594744 -0.0192339 0.0078740,
0.0576713 -0.0192923 0.0078740,
0.0854734 0.0115556 0.0118110,
0.0853210 0.0076585 0.0118110,
0.0848873 0.0041749 0.0118110,
0.0842288 0.0010851 0.0118110,
0.0834851 -0.0013637 0.0118110,
0.0826142 -0.0035677 0.0118110,
0.0815699 -0.0056952 0.0118110,
0.0804747 -0.0075253 0.0118110,
0.0791291 -0.0093951 0.0118110,
0.0776714 -0.0110945 0.0118110,
0.0761986 -0.0125537 0.0118110,
0.0746171 -0.0138946 0.0118110,
0.0729290 -0.0150977 0.0118110,
0.0711432 -0.0161512 0.0118110,
0.0692779 -0.0170562 0.0118110,
0.0673435 -0.0178023 0.0118110,
0.0653543 -0.0183859 0.0118110,
0.0633260 -0.0188163 0.0118110,
0.0612726 -0.0191043 0.0118110,
0.0594744 -0.0192339 0.0118110,
0.0576713 -0.0192923 0.0118110,
0.1325254 -0.0183320 0.0078740,
0.1027578 -0.0183320 0.0078740,
0.1325254 -0.0183320 0.0118110,
0.1027578 -0.0183320 0.0118110,
0.1027578 -0.0183320 0.0078740,
0.1027578 -0.0269743 0.0078740,
0.1027578 -0.0183320 0.0118110,
0.1027578 -0.0269743 0.0118110,
0.1027578 -0.0269743 0.0078740,
0.1430881 -0.0269743 0.0078740,
0.1027578 -0.0269743 0.0118110,
0.1430881 -0.0269743 0.0118110,
0.1430881 -0.0269743 0.0078740,
0.1430881 0.0517659 0.0078740,
0.1430881 -0.0269743 0.0118110,
0.1430881 0.0517659 0.0118110,
0.1430881 0.0517659 0.0078740,
0.1325254 0.0517659 0.0078740,
0.1430881 0.0517659 0.0118110,
0.1325254 0.0517659 0.0118110,
0.1325254 0.0517659 0.0078740,
0.1325254 -0.0183320 0.0078740,
0.1325254 0.0517659 0.0118110,
0.1325254 -0.0183320 0.0118110,
-0.1757135 -0.0269743 0.0118110,
-0.1641905 -0.0269743 0.0118110,
-0.1562235 -0.0048886 0.0118110,
-0.1236952 -0.0048886 0.0118110,
-0.1161782 -0.0269743 0.0118110,
-0.1046553 -0.0269743 0.0118110,
-0.1344229 0.0517659 0.0118110,
-0.1449856 0.0517659 0.0118110,
-0.1526826 0.0037536 0.0118110,
-0.1408295 0.0366420 0.0118110,
-0.1404473 0.0379507 0.0118110,
-0.1401280 0.0393813 0.0118110,
-0.1396142 0.0421634 0.0118110,
-0.1393592 0.0421634 0.0118110,
-0.1388566 0.0393729 0.0118110,
-0.1385252 0.0380063 0.0118110,
-0.1380988 0.0366420 0.0118110,
-0.1263508 0.0037536 0.0118110,
-0.0569281 -0.0269743 0.0118110,
-0.0355176 -0.0269743 0.0118110,
-0.0988938 0.0133861 0.0118110,
-0.0986228 0.0079340 0.0118110,
-0.0980295 0.0039973 0.0118110,
-0.0971683 0.0004138 0.0118110,
-0.0961136 -0.0027314 0.0118110,
-0.0949246 -0.0054705 0.0118110,
-0.0936544 -0.0078384 0.0118110,
-0.0922047 -0.0101015 0.0118110,
-0.0905949 -0.0122534 0.0118110,
-0.0888298 -0.0142797 0.0118110,
-0.0869199 -0.0161703 0.0118110,
-0.0848830 -0.0179229 0.0118110,
-0.0827382 -0.0195426 0.0118110,
-0.0804890 -0.0210126 0.0118110,
-0.0781357 -0.0223103 0.0118110,
-0.0756971 -0.0234393 0.0118110,
-0.0731904 -0.0244080 0.0118110,
-0.0706279 -0.0252180 0.0118110,
-0.0680187 -0.0258580 0.0118110,
-0.0653753 -0.0263449 0.0118110,
-0.0627108 -0.0266967 0.0118110,
-0.0598236 -0.0269000 0.0118110,
-0.0577383 0.0517659 0.0118110,
-0.0630011 0.0515268 0.0118110,
-0.0668089 0.0510198 0.0118110,
-0.0706666 0.0501637 0.0118110,
-0.0744364 0.0489785 0.0118110,
-0.0773969 0.0477609 0.0118110,
-0.0800353 0.0464103 0.0118110,
-0.0825668 0.0448677 0.0118110,
-0.0849800 0.0431468 0.0118110,
-0.0872586 0.0412507 0.0118110,
-0.0893848 0.0391850 0.0118110,
-0.0913296 0.0369483 0.0118110,
-0.0930766 0.0345530 0.0118110,
-0.0944613 0.0322728 0.0118110,
-0.0955378 0.0301262 0.0118110,
-0.0964551 0.0279067 0.0118110,
-0.0972167 0.0256295 0.0118110,
-0.0978260 0.0233072 0.0118110,
-0.0982953 0.0209516 0.0118110,
-0.0986270 0.0185731 0.0118110,
-0.0988174 0.0159835 0.0118110,
-0.0355176 0.0517659 0.0118110,
-0.0883311 0.0131610 0.0118110,
-0.0881631 0.0172154 0.0118110,
-0.0877546 0.0204773 0.0118110,
-0.0871875 0.0231575 0.0118110,
-0.0864781 0.0255189 0.0118110,
-0.0855686 0.0278110 0.0118110,
-0.0846747 0.0295971 0.0118110,
-0.0836343 0.0313024 0.0118110,
-0.0824865 0.0328686 0.0118110,
-0.0812541 0.0342797 0.0118110,
-0.0797227 0.0357496 0.0118110,
-0.0778279 0.0372646 0.0118110,
-0.0758434 0.0385923 0.0118110,
-0.0739093 0.0396631 0.0118110,
-0.0720485 0.0405166 0.0118110,
-0.0694535 0.0414661 0.0118110,
-0.0672342 0.0420810 0.0118110,
-0.0641814 0.0426666 0.0118110,
-0.0614009 0.0429791 0.0118110,
-0.0595485 0.0430770 0.0118110,
-0.0576933 0.0431237 0.0118110,
-0.0572581 -0.0183320 0.0118110,
-0.0614404 -0.0181473 0.0118110,
-0.0648026 -0.0177013 0.0118110,
-0.0678690 -0.0170245 0.0118110,
-0.0702958 -0.0162618 0.0118110,
-0.0724726 -0.0153623 0.0118110,
-0.0745687 -0.0142871 0.0118110,
-0.0763685 -0.0131670 0.0118110,
-0.0780226 -0.0119377 0.0118110,
-0.0796903 -0.0104639 0.0118110,
-0.0812215 -0.0088491 0.0118110,
-0.0826117 -0.0071108 0.0118110,
-0.0838493 -0.0052614 0.0118110,
-0.0849183 -0.0033094 0.0118110,
-0.0858296 -0.0012787 0.0118110,
-0.0865840 0.0008147 0.0118110,
-0.0871866 0.0029572 0.0118110,
-0.0876534 0.0051332 0.0118110,
-0.0879888 0.0073333 0.0118110,
-0.0882378 0.0102424 0.0118110,
-0.0460803 -0.0183320 0.0118110,
-0.0460803 0.0431237 0.0118110,
-0.0201537 -0.0269743 0.0118110,
0.0220972 -0.0269743 0.0118110,
0.0220972 0.0517659 0.0118110,
-0.0182332 0.0517659 0.0118110,
-0.0182332 0.0431237 0.0118110,
0.0115345 0.0431237 0.0118110,
0.0115345 0.0171970 0.0118110,
-0.0163127 0.0171970 0.0118110,
-0.0163127 0.0085548 0.0118110,
0.0115345 0.0085548 0.0118110,
0.0115345 -0.0183320 0.0118110,
-0.0201537 -0.0183320 0.0118110,
0.0374611 -0.0142510 0.0118110,
0.0374611 -0.0228932 0.0118110,
0.0576713 -0.0192923 0.0118110,
0.0541606 -0.0191766 0.0118110,
0.0506683 -0.0187949 0.0118110,
0.0475614 -0.0182124 0.0118110,
0.0448120 -0.0174783 0.0118110,
0.0421298 -0.0165294 0.0118110,
0.0397492 -0.0154846 0.0118110,
0.0854734 0.0115556 0.0118110,
0.0853210 0.0076585 0.0118110,
0.0848873 0.0041749 0.0118110,
0.0842288 0.0010851 0.0118110,
0.0834851 -0.0013637 0.0118110,
0.0826142 -0.0035677 0.0118110,
0.0815699 -0.0056952 0.0118110,
0.0804747 -0.0075253 0.0118110,
0.0791291 -0.0093951 0.0118110,
0.0776714 -0.0110945 0.0118110,
0.0761986 -0.0125537 0.0118110,
0.0746171 -0.0138946 0.0118110,
0.0729290 -0.0150977 0.0118110,
0.0711432 -0.0161512 0.0118110,
0.0692779 -0.0170562 0.0118110,
0.0673435 -0.0178023 0.0118110,
0.0653543 -0.0183859 0.0118110,
0.0633260 -0.0188163 0.0118110,
0.0612726 -0.0191043 0.0118110,
0.0594744 -0.0192339 0.0118110,
0.0559008 0.0440839 0.0118110,
0.0596090 0.0439008 0.0118110,
0.0622872 0.0435016 0.0118110,
0.0647304 0.0429402 0.0118110,
0.0668778 0.0422484 0.0118110,
0.0689581 0.0413739 0.0118110,
0.0709539 0.0403220 0.0118110,
0.0728527 0.0391029 0.0118110,
0.0746475 0.0377356 0.0118110,
0.0763232 0.0362250 0.0118110,
0.0778758 0.0345872 0.0118110,
0.0792937 0.0328324 0.0118110,
0.0805578 0.0309636 0.0118110,
0.0816806 0.0290059 0.0118110,
0.0826495 0.0269687 0.0118110,
0.0834550 0.0248608 0.0118110,
0.0841109 0.0227019 0.0118110,
0.0846292 0.0205060 0.0118110,
0.0850160 0.0182831 0.0118110,
0.0852740 0.0160415 0.0118110,
0.0854106 0.0138005 0.0118110,
0.0374611 0.0390426 0.0118110,
0.0402928 0.0405867 0.0118110,
0.0432595 0.0418544 0.0118110,
0.0460193 0.0427545 0.0118110,
0.0485585 0.0433716 0.0118110,
0.0511379 0.0437894 0.0118110,
0.0535145 0.0440150 0.0118110,
0.0374611 0.0496053 0.0118110,
0.0559908 0.0527261 0.0118110,
0.0503222 0.0525067 0.0118110,
0.0462153 0.0520209 0.0118110,
0.0428333 0.0513574 0.0118110,
0.0401093 0.0505960 0.0118110,
0.0960361 0.0109104 0.0118110,
0.0957886 0.0163242 0.0118110,
0.0952672 0.0202415 0.0118110,
0.0944958 0.0238181 0.0118110,
0.0935401 0.0269694 0.0118110,
0.0923347 0.0300341 0.0118110,
0.0908808 0.0329890 0.0118110,
0.0893554 0.0355303 0.0118110,
0.0878067 0.0377026 0.0118110,
0.0861045 0.0397565 0.0118110,
0.0842669 0.0416906 0.0118110,
0.0823077 0.0435011 0.0118110,
0.0802282 0.0451720 0.0118110,
0.0780345 0.0466899 0.0118110,
0.0757373 0.0480462 0.0118110,
0.0733488 0.0492347 0.0118110,
0.0708790 0.0502426 0.0118110,
0.0683416 0.0510665 0.0118110,
0.0657549 0.0517179 0.0118110,
0.0631318 0.0522063 0.0118110,
0.0604836 0.0525268 0.0118110,
0.0582396 0.0526620 0.0118110,
0.0591266 -0.0279345 0.0118110,
0.0641558 -0.0276867 0.0118110,
0.0674271 -0.0272163 0.0118110,
0.0707385 -0.0264471 0.0118110,
0.0736467 -0.0254960 0.0118110,
0.0764635 -0.0243007 0.0118110,
0.0788938 -0.0230050 0.0118110,
0.0809723 -0.0216547 0.0118110,
0.0829355 -0.0201414 0.0118110,
0.0847884 -0.0184943 0.0118110,
0.0865185 -0.0167198 0.0118110,
0.0881117 -0.0148207 0.0118110,
0.0895662 -0.0128134 0.0118110,
0.0908747 -0.0107084 0.0118110,
0.0920292 -0.0085148 0.0118110,
0.0930252 -0.0062452 0.0118110,
0.0938672 -0.0039137 0.0118110,
0.0945595 -0.0015337 0.0118110,
0.0951054 0.0008837 0.0118110,
0.0956355 0.0041463 0.0118110,
0.0959397 0.0075215 0.0118110,
0.0391577 -0.0238082 0.0118110,
0.0404620 -0.0244366 0.0118110,
0.0432875 -0.0255533 0.0118110,
0.0459018 -0.0263521 0.0118110,
0.0485653 -0.0269706 0.0118110,
0.0512613 -0.0274235 0.0118110,
0.0548877 -0.0277973 0.0118110,
0.0570058 -0.0278985 0.0118110,
0.1027578 -0.0269743 0.0118110,
0.1430881 -0.0269743 0.0118110,
0.1430881 0.0517659 0.0118110,
0.1325254 0.0517659 0.0118110,
0.1325254 -0.0183320 0.0118110,
0.1027578 -0.0183320 0.0118110,
-0.1263508 0.0037536 0.0078740,
-0.1526826 0.0037536 0.0078740,
-0.1263508 0.0037536 0.0118110,
-0.1526826 0.0037536 0.0118110,
-0.1380988 0.0366420 0.0078740,
-0.1263508 0.0037536 0.0078740,
-0.1380988 0.0366420 0.0118110,
-0.1263508 0.0037536 0.0118110,
-0.1393592 0.0421634 0.0078740,
-0.1388566 0.0393729 0.0078740,
-0.1385252 0.0380063 0.0078740,
-0.1380988 0.0366420 0.0078740,
-0.1393592 0.0421634 0.0118110,
-0.1388566 0.0393729 0.0118110,
-0.1385252 0.0380063 0.0118110,
-0.1380988 0.0366420 0.0118110,
-0.1396142 0.0421634 0.0078740,
-0.1393592 0.0421634 0.0078740,
-0.1396142 0.0421634 0.0118110,
-0.1393592 0.0421634 0.0118110,
-0.1408295 0.0366420 0.0078740,
-0.1404473 0.0379507 0.0078740,
-0.1401280 0.0393813 0.0078740,
-0.1396142 0.0421634 0.0078740,
-0.1408295 0.0366420 0.0118110,
-0.1404473 0.0379507 0.0118110,
-0.1401280 0.0393813 0.0118110,
-0.1396142 0.0421634 0.0118110,
-0.1526826 0.0037536 0.0078740,
-0.1408295 0.0366420 0.0078740,
-0.1526826 0.0037536 0.0118110,
-0.1408295 0.0366420 0.0118110,
-0.0883311 0.0131610 0.0078740,
-0.0881631 0.0172154 0.0078740,
-0.0877546 0.0204773 0.0078740,
-0.0871875 0.0231575 0.0078740,
-0.0864781 0.0255189 0.0078740,
-0.0855686 0.0278110 0.0078740,
-0.0846747 0.0295971 0.0078740,
-0.0836343 0.0313024 0.0078740,
-0.0824865 0.0328686 0.0078740,
-0.0812541 0.0342797 0.0078740,
-0.0797227 0.0357496 0.0078740,
-0.0778279 0.0372646 0.0078740,
-0.0758434 0.0385923 0.0078740,
-0.0739093 0.0396631 0.0078740,
-0.0720485 0.0405166 0.0078740,
-0.0694535 0.0414661 0.0078740,
-0.0672342 0.0420810 0.0078740,
-0.0641814 0.0426666 0.0078740,
-0.0614009 0.0429791 0.0078740,
-0.0595485 0.0430770 0.0078740,
-0.0576933 0.0431237 0.0078740,
-0.0883311 0.0131610 0.0118110,
-0.0881631 0.0172154 0.0118110,
-0.0877546 0.0204773 0.0118110,
-0.0871875 0.0231575 0.0118110,
-0.0864781 0.0255189 0.0118110,
-0.0855686 0.0278110 0.0118110,
-0.0846747 0.0295971 0.0118110,
-0.0836343 0.0313024 0.0118110,
-0.0824865 0.0328686 0.0118110,
-0.0812541 0.0342797 0.0118110,
-0.0797227 0.0357496 0.0118110,
-0.0778279 0.0372646 0.0118110,
-0.0758434 0.0385923 0.0118110,
-0.0739093 0.0396631 0.0118110,
-0.0720485 0.0405166 0.0118110,
-0.0694535 0.0414661 0.0118110,
-0.0672342 0.0420810 0.0118110,
-0.0641814 0.0426666 0.0118110,
-0.0614009 0.0429791 0.0118110,
-0.0595485 0.0430770 0.0118110,
-0.0576933 0.0431237 0.0118110,
-0.0572581 -0.0183320 0.0078740,
-0.0614404 -0.0181473 0.0078740,
-0.0648026 -0.0177013 0.0078740,
-0.0678690 -0.0170245 0.0078740,
-0.0702958 -0.0162618 0.0078740,
-0.0724726 -0.0153623 0.0078740,
-0.0745687 -0.0142871 0.0078740,
-0.0763685 -0.0131670 0.0078740,
-0.0780226 -0.0119377 0.0078740,
-0.0796903 -0.0104639 0.0078740,
-0.0812215 -0.0088491 0.0078740,
-0.0826117 -0.0071108 0.0078740,
-0.0838493 -0.0052614 0.0078740,
-0.0849183 -0.0033094 0.0078740,
-0.0858296 -0.0012787 0.0078740,
-0.0865840 0.0008147 0.0078740,
-0.0871866 0.0029572 0.0078740,
-0.0876534 0.0051332 0.0078740,
-0.0879888 0.0073333 0.0078740,
-0.0882378 0.0102424 0.0078740,
-0.0883311 0.0131610 0.0078740,
-0.0572581 -0.0183320 0.0118110,
-0.0614404 -0.0181473 0.0118110,
-0.0648026 -0.0177013 0.0118110,
-0.0678690 -0.0170245 0.0118110,
-0.0702958 -0.0162618 0.0118110,
-0.0724726 -0.0153623 0.0118110,
-0.0745687 -0.0142871 0.0118110,
-0.0763685 -0.0131670 0.0118110,
-0.0780226 -0.0119377 0.0118110,
-0.0796903 -0.0104639 0.0118110,
-0.0812215 -0.0088491 0.0118110,
-0.0826117 -0.0071108 0.0118110,
-0.0838493 -0.0052614 0.0118110,
-0.0849183 -0.0033094 0.0118110,
-0.0858296 -0.0012787 0.0118110,
-0.0865840 0.0008147 0.0118110,
-0.0871866 0.0029572 0.0118110,
-0.0876534 0.0051332 0.0118110,
-0.0879888 0.0073333 0.0118110,
-0.0882378 0.0102424 0.0118110,
-0.0883311 0.0131610 0.0118110,
-0.0460803 -0.0183320 0.0078740,
-0.0572581 -0.0183320 0.0078740,
-0.0460803 -0.0183320 0.0118110,
-0.0572581 -0.0183320 0.0118110,
-0.0460803 0.0431237 0.0078740,
-0.0460803 -0.0183320 0.0078740,
-0.0460803 0.0431237 0.0118110,
-0.0460803 -0.0183320 0.0118110,
-0.0576933 0.0431237 0.0078740,
-0.0460803 0.0431237 0.0078740,
-0.0576933 0.0431237 0.0118110,
-0.0460803 0.0431237 0.0118110,
-0.1380988 0.0366420 0.0078740,
-0.1263508 0.0037536 0.0078740,
-0.1526826 0.0037536 0.0078740,
-0.1408295 0.0366420 0.0078740,
-0.1404473 0.0379507 0.0078740,
-0.1401280 0.0393813 0.0078740,
-0.1396142 0.0421634 0.0078740,
-0.1393592 0.0421634 0.0078740,
-0.1388566 0.0393729 0.0078740,
-0.1385252 0.0380063 0.0078740,
-0.0883311 0.0131610 0.0078740,
-0.0881631 0.0172154 0.0078740,
-0.0877546 0.0204773 0.0078740,
-0.0871875 0.0231575 0.0078740,
-0.0864781 0.0255189 0.0078740,
-0.0855686 0.0278110 0.0078740,
-0.0846747 0.0295971 0.0078740,
-0.0836343 0.0313024 0.0078740,
-0.0824865 0.0328686 0.0078740,
-0.0812541 0.0342797 0.0078740,
-0.0797227 0.0357496 0.0078740,
-0.0778279 0.0372646 0.0078740,
-0.0758434 0.0385923 0.0078740,
-0.0739093 0.0396631 0.0078740,
-0.0720485 0.0405166 0.0078740,
-0.0694535 0.0414661 0.0078740,
-0.0672342 0.0420810 0.0078740,
-0.0641814 0.0426666 0.0078740,
-0.0614009 0.0429791 0.0078740,
-0.0595485 0.0430770 0.0078740,
-0.0576933 0.0431237 0.0078740,
-0.0460803 0.0431237 0.0078740,
-0.0460803 -0.0183320 0.0078740,
-0.0572581 -0.0183320 0.0078740,
-0.0614404 -0.0181473 0.0078740,
-0.0648026 -0.0177013 0.0078740,
-0.0678690 -0.0170245 0.0078740,
-0.0702958 -0.0162618 0.0078740,
-0.0724726 -0.0153623 0.0078740,
-0.0745687 -0.0142871 0.0078740,
-0.0763685 -0.0131670 0.0078740,
-0.0780226 -0.0119377 0.0078740,
-0.0796903 -0.0104639 0.0078740,
-0.0812215 -0.0088491 0.0078740,
-0.0826117 -0.0071108 0.0078740,
-0.0838493 -0.0052614 0.0078740,
-0.0849183 -0.0033094 0.0078740,
-0.0858296 -0.0012787 0.0078740,
-0.0865840 0.0008147 0.0078740,
-0.0871866 0.0029572 0.0078740,
-0.0876534 0.0051332 0.0078740,
-0.0879888 0.0073333 0.0078740,
-0.0882378 0.0102424 0.0078740,
] } coordIndex [
9,8,7,-1,
9,7,6,-1,
9,6,1,-1,
4,3,2,-1,
5,4,2,-1,
6,5,0,-1,
1,6,0,-1,
5,2,0,-1,
16,17,22,-1,
19,22,17,-1,
20,19,17,-1,
21,20,17,-1,
18,21,17,-1,
14,11,10,-1,
14,12,11,-1,
14,13,12,-1,
37,13,14,-1,
220,221,16,-1,
131,219,220,-1,
131,220,130,-1,
129,130,220,-1,
132,219,131,-1,
128,129,220,-1,
133,219,132,-1,
127,128,220,-1,
134,219,133,-1,
126,127,220,-1,
135,219,134,-1,
136,219,135,-1,
125,126,220,-1,
15,37,14,-1,
137,219,136,-1,
124,125,220,-1,
138,219,137,-1,
123,124,220,-1,
139,218,219,-1,
139,219,138,-1,
122,220,16,-1,
122,123,220,-1,
140,218,139,-1,
141,218,140,-1,
211,208,209,-1,
211,209,210,-1,
121,122,16,-1,
213,211,212,-1,
213,208,211,-1,
142,218,141,-1,
120,121,16,-1,
214,208,213,-1,
214,207,208,-1,
119,120,16,-1,
215,207,214,-1,
215,203,204,-1,
215,204,205,-1,
215,205,206,-1,
215,206,207,-1,
223,15,222,-1,
216,203,215,-1,
143,223,218,-1,
143,218,142,-1,
217,203,216,-1,
217,201,202,-1,
217,202,203,-1,
104,201,217,-1,
104,200,201,-1,
144,223,143,-1,
105,200,104,-1,
105,199,200,-1,
145,223,144,-1,
106,199,105,-1,
106,198,199,-1,
146,223,145,-1,
107,198,106,-1,
107,197,198,-1,
147,223,146,-1,
108,197,107,-1,
148,223,147,-1,
149,223,148,-1,
150,223,149,-1,
95,111,112,-1,
95,112,113,-1,
95,113,114,-1,
95,114,115,-1,
95,115,116,-1,
95,116,117,-1,
95,117,118,-1,
95,118,119,-1,
95,119,16,-1,
151,223,150,-1,
187,188,189,-1,
152,223,151,-1,
153,223,152,-1,
154,223,153,-1,
155,223,154,-1,
156,223,155,-1,
181,182,183,-1,
157,223,156,-1,
180,181,183,-1,
180,183,184,-1,
158,223,157,-1,
179,180,184,-1,
179,184,185,-1,
179,185,186,-1,
179,186,187,-1,
179,189,190,-1,
179,187,189,-1,
159,223,158,-1,
178,179,190,-1,
178,190,191,-1,
178,191,192,-1,
178,192,193,-1,
160,223,159,-1,
177,178,193,-1,
177,193,194,-1,
161,223,160,-1,
176,177,194,-1,
176,194,195,-1,
162,15,223,-1,
162,223,161,-1,
175,176,195,-1,
175,195,196,-1,
94,95,16,-1,
163,15,162,-1,
174,175,196,-1,
173,174,196,-1,
173,196,197,-1,
164,15,163,-1,
172,173,197,-1,
172,197,108,-1,
171,172,108,-1,
171,108,109,-1,
170,110,111,-1,
170,171,109,-1,
170,109,110,-1,
165,15,164,-1,
69,93,94,-1,
102,92,93,-1,
102,103,92,-1,
102,93,69,-1,
96,165,166,-1,
96,166,167,-1,
96,167,168,-1,
96,168,169,-1,
96,169,170,-1,
96,15,165,-1,
101,99,100,-1,
98,99,101,-1,
97,15,96,-1,
45,55,56,-1,
45,56,57,-1,
45,57,58,-1,
45,58,59,-1,
45,59,60,-1,
45,60,61,-1,
45,61,62,-1,
45,62,63,-1,
45,63,64,-1,
45,64,65,-1,
45,65,66,-1,
45,66,67,-1,
54,55,45,-1,
53,54,45,-1,
52,53,45,-1,
70,98,101,-1,
70,97,98,-1,
51,52,45,-1,
29,45,67,-1,
29,94,16,-1,
29,44,45,-1,
29,67,68,-1,
29,68,69,-1,
29,69,94,-1,
41,44,29,-1,
40,41,29,-1,
42,44,41,-1,
42,43,44,-1,
38,72,73,-1,
38,73,74,-1,
38,74,75,-1,
38,75,76,-1,
38,76,77,-1,
38,77,78,-1,
38,78,79,-1,
38,79,80,-1,
38,80,81,-1,
38,81,82,-1,
38,82,83,-1,
38,83,84,-1,
38,84,85,-1,
38,85,86,-1,
38,86,87,-1,
38,87,88,-1,
38,88,89,-1,
23,28,29,-1,
26,25,28,-1,
27,26,28,-1,
24,28,23,-1,
24,27,28,-1,
30,38,39,-1,
30,39,40,-1,
30,15,97,-1,
30,97,70,-1,
30,70,71,-1,
30,71,72,-1,
30,72,38,-1,
31,34,33,-1,
31,35,34,-1,
31,32,35,-1,
36,30,31,-1,
36,31,33,-1,
15,16,221,-1,
15,221,222,-1,
22,23,29,-1,
22,29,16,-1,
29,30,40,-1,
36,37,15,-1,
36,15,30,-1,
45,38,50,-1,
50,38,49,-1,
49,38,48,-1,
48,38,47,-1,
47,38,46,-1,
46,38,91,-1,
91,38,90,-1,
90,38,89,-1,
45,50,51,-1,
69,70,101,-1,
69,101,102,-1,
95,96,170,-1,
95,170,111,-1,
226,224,225,-1,
227,226,225,-1,
230,229,228,-1,
231,230,228,-1,
232,234,235,-1,
232,235,233,-1,
238,237,236,-1,
238,239,237,-1,
243,241,240,-1,
243,240,242,-1,
246,245,244,-1,
246,247,245,-1,
251,249,248,-1,
251,248,250,-1,
254,253,252,-1,
254,255,253,-1,
259,257,256,-1,
259,256,258,-1,
262,261,260,-1,
262,263,261,-1,
268,264,265,-1,
271,268,265,-1,
270,271,266,-1,
271,265,266,-1,
269,270,267,-1,
270,266,267,-1,
274,275,278,-1,
275,277,278,-1,
273,274,279,-1,
274,278,279,-1,
272,273,276,-1,
273,279,276,-1,
280,281,282,-1,
281,283,282,-1,
286,284,289,-1,
286,289,288,-1,
286,288,287,-1,
284,285,290,-1,
289,284,290,-1,
291,290,293,-1,
292,291,293,-1,
290,285,293,-1,
295,294,296,-1,
294,297,296,-1,
302,298,299,-1,
305,302,299,-1,
304,305,300,-1,
305,299,300,-1,
303,304,301,-1,
304,300,301,-1,
308,309,312,-1,
309,311,312,-1,
307,308,313,-1,
308,312,313,-1,
306,307,310,-1,
307,313,310,-1,
315,314,337,-1,
315,337,338,-1,
316,338,339,-1,
316,315,338,-1,
317,339,340,-1,
317,316,339,-1,
318,340,341,-1,
318,317,340,-1,
319,341,342,-1,
319,318,341,-1,
320,342,343,-1,
320,319,342,-1,
321,343,344,-1,
321,320,343,-1,
322,344,345,-1,
322,321,344,-1,
323,345,346,-1,
323,322,345,-1,
324,346,347,-1,
324,323,346,-1,
325,347,348,-1,
325,324,347,-1,
326,348,349,-1,
326,325,348,-1,
327,326,349,-1,
327,349,350,-1,
328,327,350,-1,
328,350,351,-1,
329,328,351,-1,
329,351,352,-1,
330,329,352,-1,
330,352,353,-1,
331,330,353,-1,
331,353,354,-1,
332,331,354,-1,
332,354,355,-1,
333,332,355,-1,
333,355,356,-1,
334,333,356,-1,
334,356,357,-1,
335,334,357,-1,
335,357,358,-1,
336,335,358,-1,
336,358,359,-1,
363,361,360,-1,
363,360,362,-1,
367,365,364,-1,
367,364,366,-1,
368,370,371,-1,
368,371,369,-1,
373,372,394,-1,
373,394,395,-1,
374,395,396,-1,
374,373,395,-1,
375,396,397,-1,
375,374,396,-1,
376,397,398,-1,
376,375,397,-1,
377,398,399,-1,
377,376,398,-1,
378,399,400,-1,
378,377,399,-1,
379,400,401,-1,
379,378,400,-1,
380,401,402,-1,
380,379,401,-1,
381,402,403,-1,
381,380,402,-1,
382,403,404,-1,
382,381,403,-1,
383,404,405,-1,
383,382,404,-1,
384,405,406,-1,
384,383,405,-1,
385,406,407,-1,
385,384,406,-1,
386,385,407,-1,
386,407,408,-1,
387,386,408,-1,
387,408,409,-1,
388,387,409,-1,
388,409,410,-1,
389,388,410,-1,
389,410,411,-1,
390,389,411,-1,
390,411,412,-1,
391,390,412,-1,
391,412,413,-1,
392,391,413,-1,
392,413,414,-1,
393,392,414,-1,
393,414,415,-1,
416,418,419,-1,
416,419,417,-1,
420,422,423,-1,
420,423,421,-1,
427,425,424,-1,
427,424,426,-1,
431,429,428,-1,
431,428,430,-1,
432,434,435,-1,
432,435,433,-1,
436,438,439,-1,
436,439,437,-1,
443,441,440,-1,
443,440,442,-1,
444,446,447,-1,
444,447,445,-1,
448,450,451,-1,
448,451,449,-1,
452,454,455,-1,
452,455,453,-1,
459,457,456,-1,
459,456,458,-1,
460,462,463,-1,
460,463,461,-1,
465,464,472,-1,
465,472,473,-1,
466,473,474,-1,
466,465,473,-1,
467,474,475,-1,
467,466,474,-1,
468,475,476,-1,
468,467,475,-1,
469,476,477,-1,
469,468,476,-1,
470,477,478,-1,
470,469,477,-1,
471,478,479,-1,
471,470,478,-1,
480,482,483,-1,
480,483,481,-1,
485,484,494,-1,
485,494,495,-1,
486,495,496,-1,
486,485,495,-1,
487,496,497,-1,
487,486,496,-1,
488,497,498,-1,
488,487,497,-1,
489,498,499,-1,
489,488,498,-1,
490,499,500,-1,
490,489,499,-1,
491,500,501,-1,
491,490,500,-1,
492,501,502,-1,
492,491,501,-1,
493,502,503,-1,
493,492,502,-1,
505,504,526,-1,
505,526,527,-1,
506,527,528,-1,
506,505,527,-1,
507,528,529,-1,
507,506,528,-1,
508,529,530,-1,
508,507,529,-1,
509,530,531,-1,
509,508,530,-1,
510,531,532,-1,
510,509,531,-1,
511,532,533,-1,
511,510,532,-1,
512,533,534,-1,
512,511,533,-1,
513,534,535,-1,
513,512,534,-1,
514,535,536,-1,
514,513,535,-1,
515,536,537,-1,
515,514,536,-1,
516,537,538,-1,
516,515,537,-1,
517,538,539,-1,
517,516,538,-1,
518,517,539,-1,
518,539,540,-1,
519,518,540,-1,
519,540,541,-1,
520,519,541,-1,
520,541,542,-1,
521,520,542,-1,
521,542,543,-1,
522,521,543,-1,
522,543,544,-1,
523,522,544,-1,
523,544,545,-1,
524,523,545,-1,
524,545,546,-1,
525,524,546,-1,
525,546,547,-1,
549,548,571,-1,
549,571,572,-1,
550,572,573,-1,
550,549,572,-1,
551,573,574,-1,
551,550,573,-1,
552,574,575,-1,
552,551,574,-1,
553,575,576,-1,
553,552,575,-1,
554,576,577,-1,
554,553,576,-1,
555,577,578,-1,
555,554,577,-1,
556,578,579,-1,
556,555,578,-1,
557,579,580,-1,
557,556,579,-1,
558,580,581,-1,
558,557,580,-1,
559,581,582,-1,
559,558,581,-1,
560,582,583,-1,
560,559,582,-1,
561,560,583,-1,
561,583,584,-1,
562,561,584,-1,
562,584,585,-1,
563,562,585,-1,
563,585,586,-1,
564,563,586,-1,
564,586,587,-1,
565,564,587,-1,
565,587,588,-1,
566,565,588,-1,
566,588,589,-1,
567,566,589,-1,
567,589,590,-1,
568,567,590,-1,
568,590,591,-1,
569,568,591,-1,
569,591,592,-1,
570,569,592,-1,
570,592,593,-1,
595,594,600,-1,
595,600,601,-1,
596,601,602,-1,
596,595,601,-1,
597,602,603,-1,
597,596,602,-1,
598,603,604,-1,
598,597,603,-1,
599,604,605,-1,
599,598,604,-1,
606,608,609,-1,
606,609,607,-1,
611,610,618,-1,
611,618,619,-1,
612,619,620,-1,
612,611,619,-1,
613,620,621,-1,
613,612,620,-1,
614,621,622,-1,
614,613,621,-1,
615,622,623,-1,
615,614,622,-1,
616,623,624,-1,
616,615,623,-1,
617,624,625,-1,
617,616,624,-1,
627,626,648,-1,
627,648,649,-1,
628,649,650,-1,
628,627,649,-1,
629,650,651,-1,
629,628,650,-1,
630,651,652,-1,
630,629,651,-1,
631,652,653,-1,
631,630,652,-1,
632,653,654,-1,
632,631,653,-1,
633,654,655,-1,
633,632,654,-1,
634,655,656,-1,
634,633,655,-1,
635,656,657,-1,
635,634,656,-1,
636,657,658,-1,
636,635,657,-1,
637,658,659,-1,
637,636,658,-1,
638,659,660,-1,
638,637,659,-1,
639,660,661,-1,
639,638,660,-1,
640,639,661,-1,
640,661,662,-1,
641,640,662,-1,
641,662,663,-1,
642,641,663,-1,
642,663,664,-1,
643,642,664,-1,
643,664,665,-1,
644,643,665,-1,
644,665,666,-1,
645,644,666,-1,
645,666,667,-1,
646,645,667,-1,
646,667,668,-1,
647,646,668,-1,
647,668,669,-1,
671,670,691,-1,
671,691,692,-1,
672,692,693,-1,
672,671,692,-1,
673,693,694,-1,
673,672,693,-1,
674,694,695,-1,
674,673,694,-1,
675,695,696,-1,
675,674,695,-1,
676,696,697,-1,
676,675,696,-1,
677,697,698,-1,
677,676,697,-1,
678,698,699,-1,
678,677,698,-1,
679,699,700,-1,
679,678,699,-1,
680,700,701,-1,
680,679,700,-1,
681,701,702,-1,
681,680,701,-1,
682,702,703,-1,
682,681,702,-1,
683,703,704,-1,
683,682,703,-1,
684,683,704,-1,
684,704,705,-1,
685,684,705,-1,
685,705,706,-1,
686,685,706,-1,
686,706,707,-1,
687,686,707,-1,
687,707,708,-1,
688,687,708,-1,
688,708,709,-1,
689,688,709,-1,
689,709,710,-1,
690,689,710,-1,
690,710,711,-1,
712,714,715,-1,
712,715,713,-1,
716,718,719,-1,
716,719,717,-1,
723,721,720,-1,
723,720,722,-1,
727,725,724,-1,
727,724,726,-1,
728,730,731,-1,
728,731,729,-1,
732,734,735,-1,
732,735,733,-1,
737,736,738,-1,
738,736,744,-1,
741,740,739,-1,
738,744,739,-1,
741,739,753,-1,
739,744,753,-1,
745,744,743,-1,
746,745,743,-1,
747,746,743,-1,
748,747,743,-1,
744,736,743,-1,
749,748,742,-1,
750,749,742,-1,
751,750,742,-1,
752,751,742,-1,
753,752,742,-1,
741,753,742,-1,
748,743,742,-1,
754,841,755,-1,
821,754,777,-1,
821,841,754,-1,
822,821,777,-1,
822,776,775,-1,
822,777,776,-1,
823,822,775,-1,
823,775,774,-1,
824,823,774,-1,
824,774,773,-1,
825,772,771,-1,
825,773,772,-1,
825,824,773,-1,
826,825,771,-1,
826,771,770,-1,
827,826,770,-1,
827,770,769,-1,
828,827,769,-1,
828,769,768,-1,
829,828,768,-1,
767,829,768,-1,
830,829,767,-1,
766,830,767,-1,
831,830,766,-1,
765,831,766,-1,
832,831,765,-1,
764,832,765,-1,
833,832,764,-1,
763,833,764,-1,
763,834,833,-1,
762,834,763,-1,
762,835,834,-1,
842,799,755,-1,
842,755,841,-1,
761,835,762,-1,
760,835,761,-1,
760,836,835,-1,
759,836,760,-1,
759,837,836,-1,
759,838,837,-1,
758,838,759,-1,
758,839,838,-1,
757,839,758,-1,
757,840,839,-1,
778,799,842,-1,
778,820,819,-1,
778,842,820,-1,
756,800,840,-1,
756,840,757,-1,
779,778,819,-1,
779,818,817,-1,
779,819,818,-1,
798,801,800,-1,
798,800,756,-1,
797,801,798,-1,
780,779,817,-1,
780,817,816,-1,
796,801,797,-1,
796,802,801,-1,
781,780,816,-1,
781,816,815,-1,
795,802,796,-1,
795,803,802,-1,
794,803,795,-1,
782,781,815,-1,
782,815,814,-1,
793,803,794,-1,
793,804,803,-1,
783,782,814,-1,
783,814,813,-1,
792,804,793,-1,
792,805,804,-1,
784,783,813,-1,
784,813,812,-1,
791,805,792,-1,
785,784,812,-1,
785,812,811,-1,
790,805,791,-1,
790,806,805,-1,
786,811,810,-1,
786,785,811,-1,
789,806,790,-1,
789,807,806,-1,
789,808,807,-1,
787,810,809,-1,
787,786,810,-1,
788,809,808,-1,
788,787,809,-1,
788,808,789,-1,
843,854,853,-1,
843,853,844,-1,
844,853,852,-1,
851,850,849,-1,
852,851,849,-1,
847,846,848,-1,
849,848,845,-1,
848,846,845,-1,
844,852,845,-1,
852,849,845,-1,
863,856,855,-1,
862,961,856,-1,
862,962,961,-1,
862,856,863,-1,
861,963,962,-1,
861,962,862,-1,
860,964,963,-1,
860,965,964,-1,
860,963,861,-1,
859,966,965,-1,
859,965,860,-1,
858,967,966,-1,
858,966,859,-1,
857,968,967,-1,
857,940,968,-1,
857,967,858,-1,
883,940,857,-1,
882,940,883,-1,
882,941,940,-1,
881,941,882,-1,
881,942,941,-1,
880,942,881,-1,
879,942,880,-1,
879,943,942,-1,
878,943,879,-1,
878,944,943,-1,
877,944,878,-1,
877,945,944,-1,
876,945,877,-1,
876,946,945,-1,
875,946,876,-1,
875,947,946,-1,
874,947,875,-1,
874,948,947,-1,
949,948,874,-1,
873,949,874,-1,
950,873,872,-1,
950,949,873,-1,
951,872,871,-1,
951,950,872,-1,
952,871,870,-1,
952,951,871,-1,
953,952,870,-1,
954,953,870,-1,
954,870,869,-1,
955,869,868,-1,
955,954,869,-1,
912,906,905,-1,
912,907,906,-1,
956,868,867,-1,
956,955,868,-1,
917,907,912,-1,
957,956,867,-1,
916,907,917,-1,
916,908,907,-1,
958,867,866,-1,
958,957,867,-1,
915,908,916,-1,
915,909,908,-1,
959,866,865,-1,
959,958,866,-1,
914,909,915,-1,
914,910,909,-1,
914,911,910,-1,
960,959,865,-1,
918,865,864,-1,
918,864,904,-1,
918,960,865,-1,
913,884,911,-1,
913,911,914,-1,
939,885,884,-1,
939,884,913,-1,
919,904,903,-1,
919,918,904,-1,
938,885,939,-1,
937,886,885,-1,
937,885,938,-1,
920,902,901,-1,
920,903,902,-1,
920,919,903,-1,
936,887,886,-1,
936,886,937,-1,
921,920,901,-1,
921,901,900,-1,
935,887,936,-1,
935,888,887,-1,
922,921,900,-1,
922,900,899,-1,
934,889,888,-1,
934,888,935,-1,
923,922,899,-1,
923,899,898,-1,
933,889,934,-1,
933,890,889,-1,
932,890,933,-1,
932,891,890,-1,
924,923,898,-1,
924,898,897,-1,
931,891,932,-1,
925,924,897,-1,
925,897,896,-1,
930,892,891,-1,
930,891,931,-1,
926,925,896,-1,
926,896,895,-1,
929,893,892,-1,
929,892,930,-1,
927,926,895,-1,
927,895,894,-1,
928,927,894,-1,
928,893,929,-1,
928,894,893,-1,
969,974,973,-1,
969,973,970,-1,
973,972,971,-1,
970,973,971,-1,
975,977,978,-1,
975,978,976,-1,
981,980,979,-1,
981,982,980,-1,
984,983,987,-1,
984,987,988,-1,
985,988,989,-1,
985,984,988,-1,
986,989,990,-1,
986,985,989,-1,
994,992,991,-1,
994,991,993,-1,
996,995,999,-1,
996,999,1000,-1,
997,1000,1001,-1,
997,996,1000,-1,
998,1001,1002,-1,
998,997,1001,-1,
1005,1004,1003,-1,
1005,1006,1004,-1,
1008,1007,1028,-1,
1008,1028,1029,-1,
1009,1029,1030,-1,
1009,1008,1029,-1,
1010,1030,1031,-1,
1010,1009,1030,-1,
1011,1031,1032,-1,
1011,1010,1031,-1,
1012,1032,1033,-1,
1012,1011,1032,-1,
1013,1033,1034,-1,
1013,1012,1033,-1,
1014,1034,1035,-1,
1014,1013,1034,-1,
1015,1035,1036,-1,
1015,1014,1035,-1,
1016,1036,1037,-1,
1016,1015,1036,-1,
1017,1037,1038,-1,
1017,1016,1037,-1,
1018,1038,1039,-1,
1018,1017,1038,-1,
1019,1039,1040,-1,
1019,1018,1039,-1,
1020,1040,1041,-1,
1020,1019,1040,-1,
1021,1020,1041,-1,
1021,1041,1042,-1,
1022,1021,1042,-1,
1022,1042,1043,-1,
1023,1022,1043,-1,
1023,1043,1044,-1,
1024,1023,1044,-1,
1024,1044,1045,-1,
1025,1024,1045,-1,
1025,1045,1046,-1,
1026,1025,1046,-1,
1026,1046,1047,-1,
1027,1026,1047,-1,
1027,1047,1048,-1,
1050,1049,1070,-1,
1050,1070,1071,-1,
1051,1071,1072,-1,
1051,1050,1071,-1,
1052,1072,1073,-1,
1052,1051,1072,-1,
1053,1073,1074,-1,
1053,1052,1073,-1,
1054,1074,1075,-1,
1054,1053,1074,-1,
1055,1075,1076,-1,
1055,1054,1075,-1,
1056,1076,1077,-1,
1056,1055,1076,-1,
1057,1077,1078,-1,
1057,1056,1077,-1,
1058,1078,1079,-1,
1058,1057,1078,-1,
1059,1079,1080,-1,
1059,1058,1079,-1,
1060,1080,1081,-1,
1060,1059,1080,-1,
1061,1081,1082,-1,
1061,1060,1081,-1,
1062,1082,1083,-1,
1062,1061,1082,-1,
1063,1062,1083,-1,
1063,1083,1084,-1,
1064,1063,1084,-1,
1064,1084,1085,-1,
1065,1064,1085,-1,
1065,1085,1086,-1,
1066,1065,1086,-1,
1066,1086,1087,-1,
1067,1066,1087,-1,
1067,1087,1088,-1,
1068,1067,1088,-1,
1068,1088,1089,-1,
1069,1068,1089,-1,
1069,1089,1090,-1,
1091,1093,1094,-1,
1091,1094,1092,-1,
1095,1097,1098,-1,
1095,1098,1096,-1,
1102,1100,1099,-1,
1102,1099,1101,-1,
1106,1103,1104,-1,
1106,1104,1105,-1,
1107,1112,1103,-1,
1107,1103,1106,-1,
1108,1111,1112,-1,
1108,1112,1107,-1,
1110,1111,1108,-1,
1109,1110,1108,-1,
1146,1142,1143,-1,
1146,1143,1144,-1,
1146,1144,1145,-1,
1147,1142,1146,-1,
1149,1141,1142,-1,
1149,1147,1148,-1,
1149,1142,1147,-1,
1150,1140,1141,-1,
1150,1141,1149,-1,
1151,1139,1140,-1,
1151,1140,1150,-1,
1134,1135,1136,-1,
1152,1138,1139,-1,
1152,1139,1151,-1,
1153,1138,1152,-1,
1154,1137,1138,-1,
1154,1138,1153,-1,
1155,1136,1137,-1,
1155,1137,1154,-1,
1133,1134,1136,-1,
1133,1136,1155,-1,
1132,1155,1113,-1,
1132,1133,1155,-1,
1131,1132,1113,-1,
1114,1131,1113,-1,
1130,1131,1114,-1,
1129,1130,1114,-1,
1129,1114,1115,-1,
1128,1129,1115,-1,
1127,1115,1116,-1,
1127,1128,1115,-1,
1126,1127,1116,-1,
1125,1116,1117,-1,
1125,1126,1116,-1,
1124,1117,1118,-1,
1124,1125,1117,-1,
1123,1118,1119,-1,
1123,1119,1120,-1,
1123,1124,1118,-1,
1122,1120,1121,-1,
1122,1123,1120,-1,
] } }
Shape { appearance Appearance { material Material { diffuseColor 0.643137 0.509804 0.301961 specularColor 0.15 0.15 0.15 shininess 0.4 } } geometry IndexedFaceSet { solid FALSE creaseAngle 0.6 coord Coordinate { point [
0.6295276 0.1181096 0.0078740,
0.6295276 0.3342520 0.0078740,
0.6295276 0.3342520 0.0000000,
0.6295276 0.0984252 0.0000000,
0.6295276 0.0984252 0.2362205,
0.6295276 0.3342520 0.2362205,
0.6295276 0.3342520 0.2283465,
0.6295276 0.1181096 0.2283465,
0.4326772 0.3342520 0.0078740,
0.4326772 0.3342520 0.0000000,
0.6295276 0.3342520 0.0000000,
0.6295276 0.3342520 0.0078740,
0.4326772 -0.3342520 0.0078740,
0.4326772 -0.3342520 0.0000000,
0.4326772 0.3342520 0.0000000,
0.4326772 0.3342520 0.0078740,
0.6295276 -0.3342520 0.0078740,
0.6295276 -0.3342520 0.0000000,
0.4326772 -0.3342520 0.0000000,
0.4326772 -0.3342520 0.0078740,
0.6295276 -0.3342520 0.2362205,
0.6295276 -0.0984252 0.2362205,
0.6295276 -0.0984252 0.0000000,
0.6295276 -0.3342520 0.0000000,
0.6295276 -0.3342520 0.0078740,
0.6295276 -0.1181096 0.0078740,
0.6295276 -0.1181096 0.2283465,
0.6295276 -0.3342520 0.2283465,
-0.6295276 -0.1181096 0.0078740,
-0.6295276 -0.3342520 0.0078740,
-0.6295276 -0.3342520 0.0000000,
-0.6295276 -0.0984252 0.0000000,
-0.6295276 -0.0984252 0.2362205,
-0.6295276 -0.3342520 0.2362205,
-0.6295276 -0.3342520 0.2283465,
-0.6295276 -0.1181096 0.2283465,
-0.4326772 -0.3342520 0.0078740,
-0.4326772 -0.3342520 0.0000000,
-0.6295276 -0.3342520 0.0000000,
-0.6295276 -0.3342520 0.0078740,
-0.4326772 0.3342520 0.0078740,
-0.4326772 0.3342520 0.0000000,
-0.4326772 -0.3342520 0.0000000,
-0.4326772 -0.3342520 0.0078740,
-0.6295276 0.3342520 0.0078740,
-0.6295276 0.3342520 0.0000000,
-0.4326772 0.3342520 0.0000000,
-0.4326772 0.3342520 0.0078740,
-0.6295276 0.3342520 0.2362205,
-0.6295276 0.0984252 0.2362205,
-0.6295276 0.0984252 0.0000000,
-0.6295276 0.3342520 0.0000000,
-0.6295276 0.3342520 0.0078740,
-0.6295276 0.1181096 0.0078740,
-0.6295276 0.1181096 0.2283465,
-0.6295276 0.3342520 0.2283465,
-0.4326772 0.3342520 0.2362205,
-0.6295276 0.3342520 0.2362205,
-0.6295276 0.3342520 0.2283465,
-0.4326772 0.3342520 0.2283465,
-0.4326772 -0.3342520 0.2362205,
-0.4326772 0.3342520 0.2362205,
-0.4326772 0.3342520 0.2283465,
-0.4326772 -0.3342520 0.2283465,
-0.6295276 -0.3342520 0.2362205,
-0.4326772 -0.3342520 0.2362205,
-0.4326772 -0.3342520 0.2283465,
-0.6295276 -0.3342520 0.2283465,
0.4326772 -0.3342520 0.2362205,
0.6295276 -0.3342520 0.2362205,
0.6295276 -0.3342520 0.2283465,
0.4326772 -0.3342520 0.2283465,
0.4326772 0.3342520 0.2362205,
0.4326772 -0.3342520 0.2362205,
0.4326772 -0.3342520 0.2283465,
0.4326772 0.3342520 0.2283465,
0.6295276 0.3342520 0.2362205,
0.4326772 0.3342520 0.2362205,
0.4326772 0.3342520 0.2283465,
0.6295276 0.3342520 0.2283465,
0.6295276 0.0984252 0.2362205,
0.6295276 0.3342520 0.2362205,
0.4326772 0.3342520 0.2362205,
0.4326772 -0.3342520 0.2362205,
0.6295276 -0.3342520 0.2362205,
0.6295276 -0.0984252 0.2362205,
0.6209492 -0.0980507 0.2362205,
0.6124362 -0.0969299 0.2362205,
0.6040532 -0.0950714 0.2362205,
0.5958642 -0.0924894 0.2362205,
0.5879313 -0.0892035 0.2362205,
0.5803150 -0.0852387 0.2362205,
0.5730732 -0.0806252 0.2362205,
0.5662611 -0.0753981 0.2362205,
0.5599304 -0.0695971 0.2362205,
0.5541295 -0.0632665 0.2362205,
0.5489024 -0.0564544 0.2362205,
0.5442888 -0.0492126 0.2362205,
0.5403240 -0.0415963 0.2362205,
0.5370381 -0.0336634 0.2362205,
0.5344561 -0.0254743 0.2362205,
0.5325977 -0.0170914 0.2362205,
0.5314769 -0.0085783 0.2362205,
0.5311024 0.0000000 0.2362205,
0.5314769 0.0085783 0.2362205,
0.5325977 0.0170914 0.2362205,
0.5344561 0.0254743 0.2362205,
0.5370381 0.0336634 0.2362205,
0.5403240 0.0415963 0.2362205,
0.5442888 0.0492126 0.2362205,
0.5489024 0.0564544 0.2362205,
0.5541295 0.0632665 0.2362205,
0.5599304 0.0695971 0.2362205,
0.5662611 0.0753981 0.2362205,
0.5730732 0.0806252 0.2362205,
0.5803150 0.0852387 0.2362205,
0.5879313 0.0892035 0.2362205,
0.5958642 0.0924894 0.2362205,
0.6040532 0.0950714 0.2362205,
0.6124362 0.0969299 0.2362205,
0.6209492 0.0980507 0.2362205,
0.6295276 0.0984252 0.2362205,
0.6295276 0.0984252 0.0000000,
0.5311024 0.0000000 0.0000000,
0.5314769 0.0085783 0.0000000,
0.5325977 0.0170914 0.0000000,
0.5344561 0.0254743 0.0000000,
0.5370381 0.0336634 0.0000000,
0.5403240 0.0415963 0.0000000,
0.5442888 0.0492126 0.0000000,
0.5489024 0.0564544 0.0000000,
0.5541295 0.0632665 0.0000000,
0.5599304 0.0695971 0.0000000,
0.5662611 0.0753981 0.0000000,
0.5730732 0.0806252 0.0000000,
0.5803150 0.0852387 0.0000000,
0.5879313 0.0892035 0.0000000,
0.5958642 0.0924894 0.0000000,
0.6040532 0.0950714 0.0000000,
0.6124362 0.0969299 0.0000000,
0.6209492 0.0980507 0.0000000,
0.5311024 0.0000000 0.2362205,
0.5314769 0.0085783 0.2362205,
0.5325977 0.0170914 0.2362205,
0.5344561 0.0254743 0.2362205,
0.5370381 0.0336634 0.2362205,
0.5403240 0.0415963 0.2362205,
0.5442888 0.0492126 0.2362205,
0.5489024 0.0564544 0.2362205,
0.5541295 0.0632665 0.2362205,
0.5599304 0.0695971 0.2362205,
0.5662611 0.0753981 0.2362205,
0.5730732 0.0806252 0.2362205,
0.5803150 0.0852387 0.2362205,
0.5879313 0.0892035 0.2362205,
0.5958642 0.0924894 0.2362205,
0.6040532 0.0950714 0.2362205,
0.6124362 0.0969299 0.2362205,
0.6209492 0.0980507 0.2362205,
0.6295276 0.3342520 0.0000000,
0.4326772 0.3342520 0.0000000,
0.4326772 -0.3342520 0.0000000,
0.6295276 -0.3342520 0.0000000,
0.6295276 -0.0984252 0.0000000,
0.6209492 -0.0980507 0.0000000,
0.6124362 -0.0969299 0.0000000,
0.6040532 -0.0950714 0.0000000,
0.5958642 -0.0924894 0.0000000,
0.5879313 -0.0892035 0.0000000,
0.5803150 -0.0852387 0.0000000,
0.5730732 -0.0806252 0.0000000,
0.5662611 -0.0753981 0.0000000,
0.5599304 -0.0695971 0.0000000,
0.5541295 -0.0632665 0.0000000,
0.5489024 -0.0564544 0.0000000,
0.5442888 -0.0492126 0.0000000,
0.5403240 -0.0415963 0.0000000,
0.5370381 -0.0336634 0.0000000,
0.5344561 -0.0254743 0.0000000,
0.5325977 -0.0170914 0.0000000,
0.5314769 -0.0085783 0.0000000,
0.5311024 0.0000000 0.0000000,
0.5314769 0.0085783 0.0000000,
0.5325977 0.0170914 0.0000000,
0.5344561 0.0254743 0.0000000,
0.5370381 0.0336634 0.0000000,
0.5403240 0.0415963 0.0000000,
0.5442888 0.0492126 0.0000000,
0.5489024 0.0564544 0.0000000,
0.5541295 0.0632665 0.0000000,
0.5599304 0.0695971 0.0000000,
0.5662611 0.0753981 0.0000000,
0.5730732 0.0806252 0.0000000,
0.5803150 0.0852387 0.0000000,
0.5879313 0.0892035 0.0000000,
0.5958642 0.0924894 0.0000000,
0.6040532 0.0950714 0.0000000,
0.6124362 0.0969299 0.0000000,
0.6209492 0.0980507 0.0000000,
0.6295276 0.0984252 0.0000000,
0.6295276 -0.0984252 0.0000000,
0.6209492 -0.0980507 0.0000000,
0.6124362 -0.0969299 0.0000000,
0.6040532 -0.0950714 0.0000000,
0.5958642 -0.0924894 0.0000000,
0.5879313 -0.0892035 0.0000000,
0.5803150 -0.0852387 0.0000000,
0.5730732 -0.0806252 0.0000000,
0.5662611 -0.0753981 0.0000000,
0.5599304 -0.0695971 0.0000000,
0.5541295 -0.0632665 0.0000000,
0.5489024 -0.0564544 0.0000000,
0.5442888 -0.0492126 0.0000000,
0.5403240 -0.0415963 0.0000000,
0.5370381 -0.0336634 0.0000000,
0.5344561 -0.0254743 0.0000000,
0.5325977 -0.0170914 0.0000000,
0.5314769 -0.0085783 0.0000000,
0.5311024 0.0000000 0.0000000,
0.6295276 -0.0984252 0.2362205,
0.6209492 -0.0980507 0.2362205,
0.6124362 -0.0969299 0.2362205,
0.6040532 -0.0950714 0.2362205,
0.5958642 -0.0924894 0.2362205,
0.5879313 -0.0892035 0.2362205,
0.5803150 -0.0852387 0.2362205,
0.5730732 -0.0806252 0.2362205,
0.5662611 -0.0753981 0.2362205,
0.5599304 -0.0695971 0.2362205,
0.5541295 -0.0632665 0.2362205,
0.5489024 -0.0564544 0.2362205,
0.5442888 -0.0492126 0.2362205,
0.5403240 -0.0415963 0.2362205,
0.5370381 -0.0336634 0.2362205,
0.5344561 -0.0254743 0.2362205,
0.5325977 -0.0170914 0.2362205,
0.5314769 -0.0085783 0.2362205,
0.5311024 0.0000000 0.2362205,
-0.6295276 0.3342520 0.2362205,
-0.6295276 0.0984252 0.2362205,
-0.6207048 0.0980290 0.2362205,
-0.6119531 0.0968435 0.2362205,
-0.6033428 0.0948782 0.2362205,
-0.5949434 0.0921491 0.2362205,
-0.5868225 0.0886780 0.2362205,
-0.5790453 0.0844930 0.2362205,
-0.5716747 0.0796277 0.2362205,
-0.5647698 0.0741212 0.2362205,
-0.5583863 0.0680180 0.2362205,
-0.5525756 0.0613671 0.2362205,
-0.5473845 0.0542221 0.2362205,
-0.5428548 0.0466406 0.2362205,
-0.5390229 0.0386836 0.2362205,
-0.5359196 0.0304151 0.2362205,
-0.5335701 0.0219017 0.2362205,
-0.5319931 0.0132119 0.2362205,
-0.5312015 0.0044158 0.2362205,
-0.5312015 -0.0044158 0.2362205,
-0.5319931 -0.0132119 0.2362205,
-0.5335701 -0.0219017 0.2362205,
-0.5359196 -0.0304151 0.2362205,
-0.5390229 -0.0386836 0.2362205,
-0.5428548 -0.0466406 0.2362205,
-0.5473845 -0.0542221 0.2362205,
-0.5525756 -0.0613671 0.2362205,
-0.5583863 -0.0680180 0.2362205,
-0.5647698 -0.0741212 0.2362205,
-0.5716747 -0.0796277 0.2362205,
-0.5790453 -0.0844930 0.2362205,
-0.5868225 -0.0886780 0.2362205,
-0.5949434 -0.0921491 0.2362205,
-0.6033428 -0.0948782 0.2362205,
-0.6119531 -0.0968435 0.2362205,
-0.6207048 -0.0980290 0.2362205,
-0.6295276 -0.0984252 0.2362205,
-0.6295276 -0.3342520 0.2362205,
-0.4326772 -0.3342520 0.2362205,
-0.4326772 0.3342520 0.2362205,
-0.6295276 0.0984252 0.2362205,
-0.6295276 0.0984252 0.0000000,
-0.6207048 0.0980290 0.2362205,
-0.6119531 0.0968435 0.2362205,
-0.6033428 0.0948782 0.2362205,
-0.5949434 0.0921491 0.2362205,
-0.5868225 0.0886780 0.2362205,
-0.5790453 0.0844930 0.2362205,
-0.5716747 0.0796277 0.2362205,
-0.5647698 0.0741212 0.2362205,
-0.5583863 0.0680180 0.2362205,
-0.5525756 0.0613671 0.2362205,
-0.5473845 0.0542221 0.2362205,
-0.5428548 0.0466406 0.2362205,
-0.5390229 0.0386836 0.2362205,
-0.5359196 0.0304151 0.2362205,
-0.5335701 0.0219017 0.2362205,
-0.5319931 0.0132119 0.2362205,
-0.5312015 0.0044158 0.2362205,
-0.5312015 -0.0044158 0.2362205,
-0.5319931 -0.0132119 0.2362205,
-0.5335701 -0.0219017 0.2362205,
-0.5359196 -0.0304151 0.2362205,
-0.5390229 -0.0386836 0.2362205,
-0.5428548 -0.0466406 0.2362205,
-0.5473845 -0.0542221 0.2362205,
-0.5525756 -0.0613671 0.2362205,
-0.5583863 -0.0680180 0.2362205,
-0.5647698 -0.0741212 0.2362205,
-0.5716747 -0.0796277 0.2362205,
-0.5790453 -0.0844930 0.2362205,
-0.5868225 -0.0886780 0.2362205,
-0.5949434 -0.0921491 0.2362205,
-0.6033428 -0.0948782 0.2362205,
-0.6119531 -0.0968435 0.2362205,
-0.6207048 -0.0980290 0.2362205,
-0.6295276 -0.0984252 0.2362205,
-0.6295276 -0.0984252 0.0000000,
-0.6207048 0.0980290 0.0000000,
-0.6119531 0.0968435 0.0000000,
-0.6033428 0.0948782 0.0000000,
-0.5949434 0.0921491 0.0000000,
-0.5868225 0.0886780 0.0000000,
-0.5790453 0.0844930 0.0000000,
-0.5716747 0.0796277 0.0000000,
-0.5647698 0.0741212 0.0000000,
-0.5583863 0.0680180 0.0000000,
-0.5525756 0.0613671 0.0000000,
-0.5473845 0.0542221 0.0000000,
-0.5428548 0.0466406 0.0000000,
-0.5390229 0.0386836 0.0000000,
-0.5359196 0.0304151 0.0000000,
-0.5335701 0.0219017 0.0000000,
-0.5319931 0.0132119 0.0000000,
-0.5312015 0.0044158 0.0000000,
-0.5312015 -0.0044158 0.0000000,
-0.5319931 -0.0132119 0.0000000,
-0.5335701 -0.0219017 0.0000000,
-0.5359196 -0.0304151 0.0000000,
-0.5390229 -0.0386836 0.0000000,
-0.5428548 -0.0466406 0.0000000,
-0.5473845 -0.0542221 0.0000000,
-0.5525756 -0.0613671 0.0000000,
-0.5583863 -0.0680180 0.0000000,
-0.5647698 -0.0741212 0.0000000,
-0.5716747 -0.0796277 0.0000000,
-0.5790453 -0.0844930 0.0000000,
-0.5868225 -0.0886780 0.0000000,
-0.5949434 -0.0921491 0.0000000,
-0.6033428 -0.0948782 0.0000000,
-0.6119531 -0.0968435 0.0000000,
-0.6207048 -0.0980290 0.0000000,
-0.6295276 0.0984252 0.0000000,
-0.6207048 0.0980290 0.0000000,
-0.6119531 0.0968435 0.0000000,
-0.6033428 0.0948782 0.0000000,
-0.5949434 0.0921491 0.0000000,
-0.5868225 0.0886780 0.0000000,
-0.5790453 0.0844930 0.0000000,
-0.5716747 0.0796277 0.0000000,
-0.5647698 0.0741212 0.0000000,
-0.5583863 0.0680180 0.0000000,
-0.5525756 0.0613671 0.0000000,
-0.5473845 0.0542221 0.0000000,
-0.5428548 0.0466406 0.0000000,
-0.5390229 0.0386836 0.0000000,
-0.5359196 0.0304151 0.0000000,
-0.5335701 0.0219017 0.0000000,
-0.5319931 0.0132119 0.0000000,
-0.5312015 0.0044158 0.0000000,
-0.5312015 -0.0044158 0.0000000,
-0.5319931 -0.0132119 0.0000000,
-0.5335701 -0.0219017 0.0000000,
-0.5359196 -0.0304151 0.0000000,
-0.5390229 -0.0386836 0.0000000,
-0.5428548 -0.0466406 0.0000000,
-0.5473845 -0.0542221 0.0000000,
-0.5525756 -0.0613671 0.0000000,
-0.5583863 -0.0680180 0.0000000,
-0.5647698 -0.0741212 0.0000000,
-0.5716747 -0.0796277 0.0000000,
-0.5790453 -0.0844930 0.0000000,
-0.5868225 -0.0886780 0.0000000,
-0.5949434 -0.0921491 0.0000000,
-0.6033428 -0.0948782 0.0000000,
-0.6119531 -0.0968435 0.0000000,
-0.6207048 -0.0980290 0.0000000,
-0.6295276 -0.0984252 0.0000000,
-0.6295276 -0.3342520 0.0000000,
-0.4326772 -0.3342520 0.0000000,
-0.4326772 0.3342520 0.0000000,
-0.6295276 0.3342520 0.0000000,
-0.4326772 -0.3342520 0.2283071,
-0.4326772 -0.3342520 0.2362205,
-0.4326772 0.3342520 0.2283071,
-0.4326772 0.3342520 0.2362205,
-0.3267717 -0.3342520 0.2283071,
-0.3267717 -0.3342520 0.2362205,
-0.3267717 0.3342520 0.2283071,
-0.3267717 0.3342520 0.2362205,
-0.4326772 -0.3342520 0.2283071,
-0.3267717 -0.3342520 0.2283071,
-0.4326772 -0.3342520 0.2362205,
-0.3267717 -0.3342520 0.2362205,
-0.4326772 0.3342520 0.2283071,
-0.3267717 0.3342520 0.2283071,
-0.4326772 0.3342520 0.2362205,
-0.3267717 0.3342520 0.2362205,
-0.4326772 -0.3342520 0.2283071,
-0.4326772 0.3342520 0.2283071,
-0.3267717 -0.3342520 0.2283071,
-0.3267717 0.3342520 0.2283071,
-0.4326772 -0.3342520 0.2362205,
-0.4326772 0.3342520 0.2362205,
-0.3267717 -0.3342520 0.2362205,
-0.3267717 0.3342520 0.2362205,
0.3267717 -0.3342520 0.2283071,
0.3267717 -0.3342520 0.2362205,
0.3267717 0.3342520 0.2283071,
0.3267717 0.3342520 0.2362205,
0.4326772 -0.3342520 0.2283071,
0.4326772 -0.3342520 0.2362205,
0.4326772 0.3342520 0.2283071,
0.4326772 0.3342520 0.2362205,
0.3267717 -0.3342520 0.2283071,
0.4326772 -0.3342520 0.2283071,
0.3267717 -0.3342520 0.2362205,
0.4326772 -0.3342520 0.2362205,
0.3267717 0.3342520 0.2283071,
0.4326772 0.3342520 0.2283071,
0.3267717 0.3342520 0.2362205,
0.4326772 0.3342520 0.2362205,
0.3267717 -0.3342520 0.2283071,
0.3267717 0.3342520 0.2283071,
0.4326772 -0.3342520 0.2283071,
0.4326772 0.3342520 0.2283071,
0.3267717 -0.3342520 0.2362205,
0.3267717 0.3342520 0.2362205,
0.4326772 -0.3342520 0.2362205,
0.4326772 0.3342520 0.2362205,
-0.1240157 -0.1653543 0.2283465,
-0.1240157 -0.1653543 0.2338583,
0.0767717 -0.1653543 0.2338583,
0.0767717 -0.1653543 0.2283465,
-0.1496063 -0.1397638 0.2283465,
-0.1496063 -0.1397638 0.2338583,
-0.1240157 -0.1653543 0.2338583,
-0.1240157 -0.1653543 0.2283465,
0.0767717 -0.1653543 0.2283465,
0.0767717 -0.1653543 0.2338583,
0.1023622 -0.1397638 0.2338583,
0.1023622 -0.1397638 0.2283465,
-0.1240157 -0.1653543 0.2283465,
0.0767717 -0.1653543 0.2283465,
0.1023622 -0.1397638 0.2283465,
0.1023622 0.1633858 0.2283465,
0.0767717 0.1889764 0.2283465,
-0.1240157 0.1889764 0.2283465,
-0.1496063 0.1633858 0.2283465,
-0.1496063 -0.1397638 0.2283465,
0.0610236 -0.1131890 0.2283465,
0.0472441 -0.1269685 0.2283465,
-0.0944882 -0.1269685 0.2283465,
-0.1082677 -0.1131890 0.2283465,
-0.1082677 -0.0246063 0.2283465,
-0.0944882 -0.0108268 0.2283465,
0.0472441 -0.0108268 0.2283465,
0.0610236 -0.0246063 0.2283465,
0.0610236 0.0482283 0.2283465,
0.0472441 0.0344488 0.2283465,
-0.0944882 0.0344488 0.2283465,
-0.1082677 0.0482283 0.2283465,
-0.1082677 0.1368110 0.2283465,
-0.0944882 0.1505906 0.2283465,
0.0472441 0.1505906 0.2283465,
0.0610236 0.1368110 0.2283465,
-0.1240157 -0.1653543 0.2338583,
0.0767717 -0.1653543 0.2338583,
0.1023622 -0.1397638 0.2338583,
0.1023622 0.1633858 0.2338583,
0.0767717 0.1889764 0.2338583,
-0.1240157 0.1889764 0.2338583,
-0.1496063 0.1633858 0.2338583,
-0.1496063 -0.1397638 0.2338583,
0.0610236 -0.1131890 0.2338583,
0.0472441 -0.1269685 0.2338583,
-0.0944882 -0.1269685 0.2338583,
-0.1082677 -0.1131890 0.2338583,
-0.1082677 -0.0246063 0.2338583,
-0.0944882 -0.0108268 0.2338583,
0.0472441 -0.0108268 0.2338583,
0.0610236 -0.0246063 0.2338583,
0.0610236 0.0482283 0.2338583,
0.0472441 0.0344488 0.2338583,
-0.0944882 0.0344488 0.2338583,
-0.1082677 0.0482283 0.2338583,
-0.1082677 0.1368110 0.2338583,
-0.0944882 0.1505906 0.2338583,
0.0472441 0.1505906 0.2338583,
0.0610236 0.1368110 0.2338583,
-0.1496063 0.1633858 0.2283465,
-0.1496063 0.1633858 0.2338583,
-0.1496063 -0.1397638 0.2338583,
-0.1496063 -0.1397638 0.2283465,
0.1023622 -0.1397638 0.2283465,
0.1023622 -0.1397638 0.2338583,
0.1023622 0.1633858 0.2338583,
0.1023622 0.1633858 0.2283465,
-0.1240157 0.1889764 0.2283465,
-0.1240157 0.1889764 0.2338583,
-0.1496063 0.1633858 0.2338583,
-0.1496063 0.1633858 0.2283465,
0.1023622 0.1633858 0.2283465,
0.1023622 0.1633858 0.2338583,
0.0767717 0.1889764 0.2338583,
0.0767717 0.1889764 0.2283465,
0.0767717 0.1889764 0.2283465,
0.0767717 0.1889764 0.2338583,
-0.1240157 0.1889764 0.2338583,
-0.1240157 0.1889764 0.2283465,
0.0610236 -0.1131890 0.2283465,
0.0472441 -0.1269685 0.2283465,
0.0472441 -0.1269685 0.2338583,
0.0610236 -0.1131890 0.2338583,
0.0610236 -0.0246063 0.2283465,
0.0610236 -0.1131890 0.2283465,
0.0610236 -0.1131890 0.2338583,
0.0610236 -0.0246063 0.2338583,
0.0472441 -0.0108268 0.2283465,
0.0610236 -0.0246063 0.2283465,
0.0610236 -0.0246063 0.2338583,
0.0472441 -0.0108268 0.2338583,
-0.0944882 -0.0108268 0.2283465,
0.0472441 -0.0108268 0.2283465,
0.0472441 -0.0108268 0.2338583,
-0.0944882 -0.0108268 0.2338583,
-0.1082677 -0.0246063 0.2283465,
-0.0944882 -0.0108268 0.2283465,
-0.0944882 -0.0108268 0.2338583,
-0.1082677 -0.0246063 0.2338583,
-0.1082677 -0.1131890 0.2283465,
-0.1082677 -0.0246063 0.2283465,
-0.1082677 -0.0246063 0.2338583,
-0.1082677 -0.1131890 0.2338583,
-0.0944882 -0.1269685 0.2283465,
-0.1082677 -0.1131890 0.2283465,
-0.1082677 -0.1131890 0.2338583,
-0.0944882 -0.1269685 0.2338583,
0.0472441 -0.1269685 0.2283465,
-0.0944882 -0.1269685 0.2283465,
-0.0944882 -0.1269685 0.2338583,
0.0472441 -0.1269685 0.2338583,
0.0610236 0.0482283 0.2283465,
0.0472441 0.0344488 0.2283465,
0.0472441 0.0344488 0.2338583,
0.0610236 0.0482283 0.2338583,
0.0610236 0.1368110 0.2283465,
0.0610236 0.0482283 0.2283465,
0.0610236 0.0482283 0.2338583,
0.0610236 0.1368110 0.2338583,
0.0472441 0.0344488 0.2283465,
-0.0944882 0.0344488 0.2283465,
-0.0944882 0.0344488 0.2338583,
0.0472441 0.0344488 0.2338583,
0.0472441 0.1505906 0.2283465,
0.0610236 0.1368110 0.2283465,
0.0610236 0.1368110 0.2338583,
0.0472441 0.1505906 0.2338583,
-0.0944882 0.0344488 0.2283465,
-0.1082677 0.0482283 0.2283465,
-0.1082677 0.0482283 0.2338583,
-0.0944882 0.0344488 0.2338583,
-0.0944882 0.1505906 0.2283465,
0.0472441 0.1505906 0.2283465,
0.0472441 0.1505906 0.2338583,
-0.0944882 0.1505906 0.2338583,
-0.1082677 0.0482283 0.2283465,
-0.1082677 0.1368110 0.2283465,
-0.1082677 0.1368110 0.2338583,
-0.1082677 0.0482283 0.2338583,
-0.1082677 0.1368110 0.2283465,
-0.0944882 0.1505906 0.2283465,
-0.0944882 0.1505906 0.2338583,
-0.1082677 0.1368110 0.2338583,
-0.1338583 -0.2224409 0.2283465,
-0.1338583 -0.2224409 0.2338583,
-0.1338583 -0.1889764 0.2283465,
-0.1338583 -0.1889764 0.2338583,
0.0866142 -0.2224409 0.2283465,
0.0866142 -0.2224409 0.2338583,
0.0866142 -0.1889764 0.2283465,
0.0866142 -0.1889764 0.2338583,
-0.1338583 -0.2224409 0.2283465,
0.0866142 -0.2224409 0.2283465,
-0.1338583 -0.2224409 0.2338583,
0.0866142 -0.2224409 0.2338583,
-0.1338583 -0.1889764 0.2283465,
0.0866142 -0.1889764 0.2283465,
-0.1338583 -0.1889764 0.2338583,
0.0866142 -0.1889764 0.2338583,
-0.1338583 -0.2224409 0.2283465,
-0.1338583 -0.1889764 0.2283465,
0.0866142 -0.2224409 0.2283465,
0.0866142 -0.1889764 0.2283465,
-0.1338583 -0.2224409 0.2338583,
-0.1338583 -0.1889764 0.2338583,
0.0866142 -0.2224409 0.2338583,
0.0866142 -0.1889764 0.2338583,
] } coordIndex [
0,3,2,-1,
0,2,1,-1,
4,3,7,-1,
3,0,7,-1,
7,6,5,-1,
4,7,5,-1,
9,8,11,-1,
10,9,11,-1,
13,12,14,-1,
12,15,14,-1,
17,16,19,-1,
18,17,19,-1,
24,23,25,-1,
25,23,22,-1,
20,27,26,-1,
26,25,21,-1,
25,22,21,-1,
20,26,21,-1,
30,29,28,-1,
30,28,31,-1,
34,33,35,-1,
28,35,32,-1,
31,28,32,-1,
35,33,32,-1,
38,37,36,-1,
39,38,36,-1,
41,40,43,-1,
42,41,43,-1,
45,44,46,-1,
44,47,46,-1,
54,49,48,-1,
54,48,55,-1,
50,49,53,-1,
49,54,53,-1,
53,52,51,-1,
50,53,51,-1,
57,56,59,-1,
58,57,59,-1,
62,61,60,-1,
63,62,60,-1,
67,66,65,-1,
64,67,65,-1,
70,69,68,-1,
71,70,68,-1,
73,72,75,-1,
74,73,75,-1,
78,77,76,-1,
79,78,76,-1,
93,94,83,-1,
95,83,94,-1,
96,83,95,-1,
92,93,83,-1,
91,92,83,-1,
97,83,96,-1,
90,83,84,-1,
90,91,83,-1,
98,83,97,-1,
89,90,84,-1,
99,83,98,-1,
88,89,84,-1,
100,83,99,-1,
87,88,84,-1,
101,83,100,-1,
86,87,84,-1,
102,83,101,-1,
85,86,84,-1,
103,83,102,-1,
82,103,104,-1,
82,104,105,-1,
82,105,106,-1,
82,106,107,-1,
82,107,108,-1,
82,108,109,-1,
82,109,110,-1,
82,110,111,-1,
82,111,112,-1,
82,112,113,-1,
82,113,114,-1,
82,114,115,-1,
82,115,116,-1,
82,83,103,-1,
81,116,117,-1,
81,117,118,-1,
81,118,119,-1,
81,119,120,-1,
81,120,80,-1,
81,82,116,-1,
141,123,124,-1,
142,141,124,-1,
143,142,125,-1,
142,124,125,-1,
144,143,126,-1,
143,125,126,-1,
145,144,127,-1,
144,126,127,-1,
146,145,128,-1,
145,127,128,-1,
147,146,129,-1,
146,128,129,-1,
148,147,130,-1,
147,129,130,-1,
149,148,131,-1,
148,130,131,-1,
150,149,132,-1,
149,131,132,-1,
151,150,133,-1,
150,132,133,-1,
152,151,134,-1,
151,133,134,-1,
153,152,135,-1,
154,153,135,-1,
152,134,135,-1,
155,154,136,-1,
154,135,136,-1,
155,136,137,-1,
155,137,138,-1,
156,155,138,-1,
157,156,138,-1,
157,138,139,-1,
158,157,139,-1,
158,139,140,-1,
158,140,122,-1,
121,158,122,-1,
161,172,171,-1,
172,161,173,-1,
161,171,170,-1,
173,161,174,-1,
161,170,169,-1,
174,161,175,-1,
162,161,168,-1,
161,169,168,-1,
175,161,176,-1,
162,168,167,-1,
176,161,177,-1,
162,167,166,-1,
177,161,178,-1,
162,166,165,-1,
178,161,179,-1,
162,165,164,-1,
179,161,180,-1,
162,164,163,-1,
180,161,181,-1,
182,181,160,-1,
183,182,160,-1,
184,183,160,-1,
185,184,160,-1,
186,185,160,-1,
187,186,160,-1,
188,187,160,-1,
189,188,160,-1,
190,189,160,-1,
191,190,160,-1,
192,191,160,-1,
193,192,160,-1,
194,193,160,-1,
181,161,160,-1,
195,194,159,-1,
196,195,159,-1,
197,196,159,-1,
198,197,159,-1,
199,198,159,-1,
194,160,159,-1,
219,200,201,-1,
220,219,201,-1,
221,220,202,-1,
220,201,202,-1,
222,221,203,-1,
221,202,203,-1,
223,222,204,-1,
222,203,204,-1,
224,223,205,-1,
223,204,205,-1,
225,224,206,-1,
224,205,206,-1,
226,225,207,-1,
225,206,207,-1,
227,226,208,-1,
226,207,208,-1,
228,227,209,-1,
227,208,209,-1,
229,228,210,-1,
228,209,210,-1,
230,229,211,-1,
229,210,211,-1,
231,230,212,-1,
232,231,212,-1,
230,211,212,-1,
233,232,213,-1,
232,212,213,-1,
233,213,214,-1,
233,214,215,-1,
234,233,215,-1,
235,234,215,-1,
235,215,216,-1,
236,235,216,-1,
236,216,217,-1,
236,217,218,-1,
237,236,218,-1,
273,274,275,-1,
272,273,275,-1,
271,272,275,-1,
270,271,275,-1,
269,275,276,-1,
269,270,275,-1,
268,269,276,-1,
267,268,276,-1,
266,267,276,-1,
265,266,276,-1,
264,265,276,-1,
263,264,276,-1,
262,263,276,-1,
261,262,276,-1,
260,261,276,-1,
259,260,276,-1,
258,259,276,-1,
257,258,276,-1,
238,239,240,-1,
238,240,241,-1,
238,241,242,-1,
238,242,243,-1,
238,243,244,-1,
277,238,244,-1,
277,244,245,-1,
277,245,246,-1,
277,246,247,-1,
277,247,248,-1,
277,248,249,-1,
277,249,250,-1,
277,250,251,-1,
277,251,252,-1,
277,252,253,-1,
277,253,254,-1,
277,254,255,-1,
277,255,256,-1,
277,256,257,-1,
277,257,276,-1,
278,279,316,-1,
280,278,316,-1,
281,280,317,-1,
280,316,317,-1,
282,281,318,-1,
281,317,318,-1,
283,282,319,-1,
282,318,319,-1,
284,283,320,-1,
283,319,320,-1,
284,320,321,-1,
285,284,321,-1,
285,321,322,-1,
286,285,322,-1,
287,286,323,-1,
286,322,323,-1,
288,287,324,-1,
287,323,324,-1,
289,288,325,-1,
288,324,325,-1,
290,289,326,-1,
291,290,326,-1,
289,325,326,-1,
291,326,327,-1,
292,291,328,-1,
293,292,328,-1,
291,327,328,-1,
293,328,329,-1,
294,293,330,-1,
295,294,330,-1,
293,329,330,-1,
295,330,331,-1,
296,295,332,-1,
297,296,332,-1,
295,331,332,-1,
297,332,333,-1,
298,297,334,-1,
297,333,334,-1,
299,298,335,-1,
300,299,335,-1,
298,334,335,-1,
301,300,336,-1,
300,335,336,-1,
302,301,337,-1,
301,336,337,-1,
302,337,338,-1,
303,302,339,-1,
302,338,339,-1,
304,303,340,-1,
303,339,340,-1,
304,340,341,-1,
305,304,341,-1,
306,305,342,-1,
307,306,342,-1,
305,341,342,-1,
307,342,343,-1,
308,307,344,-1,
307,343,344,-1,
309,308,345,-1,
308,344,345,-1,
310,309,346,-1,
309,345,346,-1,
310,346,347,-1,
311,310,347,-1,
311,347,348,-1,
312,311,348,-1,
312,348,349,-1,
313,312,349,-1,
313,349,315,-1,
314,313,315,-1,
386,385,384,-1,
386,384,383,-1,
386,383,382,-1,
386,382,381,-1,
387,386,380,-1,
386,381,380,-1,
387,380,379,-1,
387,379,378,-1,
387,378,377,-1,
387,377,376,-1,
387,376,375,-1,
387,375,374,-1,
387,374,373,-1,
387,373,372,-1,
387,372,371,-1,
387,371,370,-1,
387,370,369,-1,
387,369,368,-1,
351,350,389,-1,
352,351,389,-1,
353,352,389,-1,
354,353,389,-1,
355,354,389,-1,
355,389,388,-1,
356,355,388,-1,
357,356,388,-1,
358,357,388,-1,
359,358,388,-1,
360,359,388,-1,
361,360,388,-1,
362,361,388,-1,
363,362,388,-1,
364,363,388,-1,
365,364,388,-1,
366,365,388,-1,
367,366,388,-1,
368,367,388,-1,
387,368,388,-1,
392,390,391,-1,
393,392,391,-1,
395,394,396,-1,
395,396,397,-1,
398,399,401,-1,
400,398,401,-1,
405,403,402,-1,
405,402,404,-1,
406,407,409,-1,
408,406,409,-1,
413,411,410,-1,
413,410,412,-1,
416,414,415,-1,
417,416,415,-1,
419,418,420,-1,
419,420,421,-1,
422,423,425,-1,
424,422,425,-1,
429,427,426,-1,
429,426,428,-1,
430,431,433,-1,
432,430,433,-1,
437,435,434,-1,
437,434,436,-1,
439,438,441,-1,
440,439,441,-1,
443,442,445,-1,
444,443,445,-1,
447,446,449,-1,
448,447,449,-1,
450,457,461,-1,
460,450,461,-1,
461,457,462,-1,
451,450,459,-1,
450,460,459,-1,
463,462,468,-1,
462,469,468,-1,
451,459,458,-1,
451,458,452,-1,
469,462,456,-1,
462,457,456,-1,
469,456,470,-1,
452,458,465,-1,
471,470,455,-1,
470,456,455,-1,
464,463,467,-1,
465,464,467,-1,
463,468,467,-1,
465,467,466,-1,
472,471,454,-1,
473,472,454,-1,
471,455,454,-1,
466,473,453,-1,
452,465,453,-1,
465,466,453,-1,
473,454,453,-1,
485,481,474,-1,
485,474,484,-1,
486,481,485,-1,
483,474,475,-1,
483,484,474,-1,
492,486,487,-1,
492,493,486,-1,
482,483,475,-1,
476,482,475,-1,
480,486,493,-1,
480,481,486,-1,
494,480,493,-1,
489,482,476,-1,
479,494,495,-1,
479,480,494,-1,
491,487,488,-1,
491,488,489,-1,
491,492,487,-1,
490,491,489,-1,
478,495,496,-1,
478,496,497,-1,
478,479,495,-1,
477,497,490,-1,
477,489,476,-1,
477,490,489,-1,
477,478,497,-1,
499,498,501,-1,
500,499,501,-1,
503,502,505,-1,
504,503,505,-1,
507,506,509,-1,
508,507,509,-1,
511,510,513,-1,
512,511,513,-1,
515,514,517,-1,
516,515,517,-1,
518,519,520,-1,
518,520,521,-1,
522,523,524,-1,
522,524,525,-1,
526,527,528,-1,
526,528,529,-1,
530,531,532,-1,
530,532,533,-1,
534,535,536,-1,
534,536,537,-1,
538,539,540,-1,
538,540,541,-1,
542,543,544,-1,
542,544,545,-1,
546,547,548,-1,
546,548,549,-1,
550,551,552,-1,
550,552,553,-1,
554,555,556,-1,
554,556,557,-1,
558,559,560,-1,
558,560,561,-1,
562,563,564,-1,
562,564,565,-1,
566,567,568,-1,
566,568,569,-1,
570,571,572,-1,
570,572,573,-1,
574,575,576,-1,
574,576,577,-1,
578,579,580,-1,
578,580,581,-1,
584,582,583,-1,
585,584,583,-1,
587,586,588,-1,
587,588,589,-1,
590,591,593,-1,
592,590,593,-1,
597,595,594,-1,
597,594,596,-1,
598,599,601,-1,
600,598,601,-1,
605,603,602,-1,
605,602,604,-1,
] } }
Shape { appearance Appearance { material Material { diffuseColor 0.654902 0.450980 0.345098 specularColor 0.15 0.15 0.15 shininess 0.4 } } geometry IndexedFaceSet { solid FALSE creaseAngle 0.6 coord Coordinate { point [
-0.6291339 -0.3370079 0.0708661,
-0.6291339 -0.3370079 0.0807087,
-0.6291339 -0.3346457 0.0708661,
-0.6291339 -0.3346457 0.0807087,
0.6291339 -0.3370079 0.0708661,
0.6291339 -0.3370079 0.0807087,
0.6291339 -0.3346457 0.0708661,
0.6291339 -0.3346457 0.0807087,
-0.6291339 -0.3370079 0.0708661,
0.6291339 -0.3370079 0.0708661,
-0.6291339 -0.3370079 0.0807087,
0.6291339 -0.3370079 0.0807087,
-0.6291339 -0.3346457 0.0708661,
0.6291339 -0.3346457 0.0708661,
-0.6291339 -0.3346457 0.0807087,
0.6291339 -0.3346457 0.0807087,
-0.6291339 -0.3370079 0.0708661,
-0.6291339 -0.3346457 0.0708661,
0.6291339 -0.3370079 0.0708661,
0.6291339 -0.3346457 0.0708661,
-0.6291339 -0.3370079 0.0807087,
-0.6291339 -0.3346457 0.0807087,
0.6291339 -0.3370079 0.0807087,
0.6291339 -0.3346457 0.0807087,
-0.6291339 0.3346457 0.0708661,
-0.6291339 0.3346457 0.0807087,
-0.6291339 0.3370079 0.0708661,
-0.6291339 0.3370079 0.0807087,
0.6291339 0.3346457 0.0708661,
0.6291339 0.3346457 0.0807087,
0.6291339 0.3370079 0.0708661,
0.6291339 0.3370079 0.0807087,
-0.6291339 0.3346457 0.0708661,
0.6291339 0.3346457 0.0708661,
-0.6291339 0.3346457 0.0807087,
0.6291339 0.3346457 0.0807087,
-0.6291339 0.3370079 0.0708661,
0.6291339 0.3370079 0.0708661,
-0.6291339 0.3370079 0.0807087,
0.6291339 0.3370079 0.0807087,
-0.6291339 0.3346457 0.0708661,
-0.6291339 0.3370079 0.0708661,
0.6291339 0.3346457 0.0708661,
0.6291339 0.3370079 0.0708661,
-0.6291339 0.3346457 0.0807087,
-0.6291339 0.3370079 0.0807087,
0.6291339 0.3346457 0.0807087,
0.6291339 0.3370079 0.0807087,
-0.6291339 -0.3370079 0.1535433,
-0.6291339 -0.3370079 0.1633858,
-0.6291339 -0.3346457 0.1535433,
-0.6291339 -0.3346457 0.1633858,
0.6291339 -0.3370079 0.1535433,
0.6291339 -0.3370079 0.1633858,
0.6291339 -0.3346457 0.1535433,
0.6291339 -0.3346457 0.1633858,
-0.6291339 -0.3370079 0.1535433,
0.6291339 -0.3370079 0.1535433,
-0.6291339 -0.3370079 0.1633858,
0.6291339 -0.3370079 0.1633858,
-0.6291339 -0.3346457 0.1535433,
0.6291339 -0.3346457 0.1535433,
-0.6291339 -0.3346457 0.1633858,
0.6291339 -0.3346457 0.1633858,
-0.6291339 -0.3370079 0.1535433,
-0.6291339 -0.3346457 0.1535433,
0.6291339 -0.3370079 0.1535433,
0.6291339 -0.3346457 0.1535433,
-0.6291339 -0.3370079 0.1633858,
-0.6291339 -0.3346457 0.1633858,
0.6291339 -0.3370079 0.1633858,
0.6291339 -0.3346457 0.1633858,
-0.6291339 0.3346457 0.1535433,
-0.6291339 0.3346457 0.1633858,
-0.6291339 0.3370079 0.1535433,
-0.6291339 0.3370079 0.1633858,
0.6291339 0.3346457 0.1535433,
0.6291339 0.3346457 0.1633858,
0.6291339 0.3370079 0.1535433,
0.6291339 0.3370079 0.1633858,
-0.6291339 0.3346457 0.1535433,
0.6291339 0.3346457 0.1535433,
-0.6291339 0.3346457 0.1633858,
0.6291339 0.3346457 0.1633858,
-0.6291339 0.3370079 0.1535433,
0.6291339 0.3370079 0.1535433,
-0.6291339 0.3370079 0.1633858,
0.6291339 0.3370079 0.1633858,
-0.6291339 0.3346457 0.1535433,
-0.6291339 0.3370079 0.1535433,
0.6291339 0.3346457 0.1535433,
0.6291339 0.3370079 0.1535433,
-0.6291339 0.3346457 0.1633858,
-0.6291339 0.3370079 0.1633858,
0.6291339 0.3346457 0.1633858,
0.6291339 0.3370079 0.1633858,
] } coordIndex [
2,0,1,-1,
3,2,1,-1,
5,4,6,-1,
5,6,7,-1,
8,9,11,-1,
10,8,11,-1,
15,13,12,-1,
15,12,14,-1,
16,17,19,-1,
18,16,19,-1,
23,21,20,-1,
23,20,22,-1,
26,24,25,-1,
27,26,25,-1,
29,28,30,-1,
29,30,31,-1,
32,33,35,-1,
34,32,35,-1,
39,37,36,-1,
39,36,38,-1,
40,41,43,-1,
42,40,43,-1,
47,45,44,-1,
47,44,46,-1,
50,48,49,-1,
51,50,49,-1,
53,52,54,-1,
53,54,55,-1,
56,57,59,-1,
58,56,59,-1,
63,61,60,-1,
63,60,62,-1,
64,65,67,-1,
66,64,67,-1,
71,69,68,-1,
71,68,70,-1,
74,72,73,-1,
75,74,73,-1,
77,76,78,-1,
77,78,79,-1,
80,81,83,-1,
82,80,83,-1,
87,85,84,-1,
87,84,86,-1,
88,89,91,-1,
90,88,91,-1,
95,93,92,-1,
95,92,94,-1,
] } }
