#VRML V2.0 utf8
# 3D model generated by easyeda2kicad.py (https://github.com/uPesy/easyeda2kicad.py)

Shape{
    appearance Appearance {
        material  Material 	{
            diffuseColor 1.0 1.0 1.0
            specularColor 0.30196078431372547 0.30196078431372547 0.30196078431372547
            ambientIntensity 1.0
            transparency 0.0
            shininess 0.5
        }
    }
    geometry IndexedFaceSet {
        ccw TRUE
        solid FALSE
        coord DEF co Coordinate {
            point [
                -1.1024 -1.2118 2.2866, -1.1024 -1.0149 2.2866, -1.1126 -1.0149 2.2852, -1.1126 -1.2118 2.2852, -1.122 -1.0149 2.2813, -1.122 -1.2118 2.2813, -1.1302 -1.0149 2.275, -1.1302 -1.2118 2.275, -1.1365 -1.0149 2.2669, -1.1365 -1.2118 2.2669, -1.1404 -1.0149 2.2574, -1.1404 -1.2118 2.2574, -1.1417 -1.0149 2.2472, -1.1417 -1.2118 2.2472, -1.1417 -1.2118 0.0425, -1.1417 -1.0149 0.0425, -1.1404 -1.0149 0.0323, -1.1404 -1.2118 0.0323, -1.1365 -1.0149 0.0228, -1.1365 -1.2118 0.0228, -1.1302 -1.0149 0.0146, -1.1302 -1.2118 0.0146, -1.122 -1.0149 0.0084, -1.122 -1.2118 0.0084, -1.1126 -1.0149 0.0044, -1.1126 -1.2118 0.0044, -1.1024 -1.0149 0.0031, -1.1024 -1.2118 0.0031, 1.1024 -1.2118 0.0031, 1.1024 -1.0149 0.0031, 1.1126 -1.0149 0.0044, 1.1126 -1.2118 0.0044, 1.122 -1.0149 0.0084, 1.122 -1.2118 0.0084, 1.1302 -1.0149 0.0146, 1.1302 -1.2118 0.0146, 1.1365 -1.0149 0.0228, 1.1365 -1.2118 0.0228, 1.1404 -1.0149 0.0323, 1.1404 -1.2118 0.0323, 1.1417 -1.0149 0.0425, 1.1417 -1.2118 0.0425, 1.1417 -1.2118 2.2472, 1.1417 -1.0149 2.2472, 1.1404 -1.0149 2.2574, 1.1404 -1.2118 2.2574, 1.1365 -1.0149 2.2669, 1.1365 -1.2118 2.2669, 1.1302 -1.0149 2.275, 1.1302 -1.2118 2.275, 1.122 -1.0149 2.2813, 1.122 -1.2118 2.2813, 1.1126 -1.0149 2.2852, 1.1126 -1.2118 2.2852, 1.1024 -1.0149 2.2866, 1.1024 -1.2118 2.2866, -0.9055 -1.448 2.0503, -0.9055 -1.448 0.2393, 0.9055 -1.448 2.0503, 0.9055 -1.448 0.2393, -1.0276 -1.3954 0.0928, 1.0276 -1.3954 0.0928, 1.0044 -1.416 0.1206, 0.9198 -1.4474 0.2221, -0.9198 -1.4474 0.2221, 0.9491 -1.4407 0.187, -0.9491 -1.4407 0.187, 0.9638 -1.4374 0.1693, -0.9638 -1.4374 0.1693, 0.9905 -1.4234 0.1374, -0.9905 -1.4234 0.1374, -1.0044 -1.416 0.1206, 1.0396 -1.3847 0.0784, -1.0396 -1.3847 0.0784, 1.0586 -1.3583 0.0556, -1.0821 -1.3138 0.0275, 1.0677 -1.3457 0.0447, -1.0677 -1.3457 0.0447, -1.0586 -1.3583 0.0556, -1.0989 -1.2558 0.0072, 1.0989 -1.2558 0.0072, -1.0969 -1.2642 0.0097, 1.0969 -1.2642 0.0097, -1.0878 -1.3011 0.0206, 1.0878 -1.3011 0.0206, 1.0821 -1.3138 0.0275, 1.1351 -1.2642 0.048, 1.1242 -1.3011 0.0571, 1.1219 -1.3037 0.0484, 1.1087 -1.2573 0.0088, 1.1174 -1.3138 0.0628, 1.1001 -1.3457 0.0771, 1.0972 -1.3485 0.0701, 1.0893 -1.3583 0.0862, 1.0664 -1.3847 0.1052, 1.0632 -1.387 0.0999, 1.052 -1.3954 0.1172, 1.0242 -1.416 0.1404, 1.0214 -1.4173 0.1368, 1.0075 -1.4234 0.1544, 0.9755 -1.4374 0.181, 0.9736 -1.4379 0.179, 1.008 -1.4173 0.1234, 0.9658 -1.4379 0.1712, 0.9218 -1.4474 0.224, 0.9222 -1.4474 0.2245, 0.9213 -1.4474 0.2236, 0.9578 -1.4407 0.1957, 0.9227 -1.4474 0.225, 0.9208 -1.4474 0.2231, 0.9203 -1.4474 0.2226, 0.9717 -1.4382 0.177, 0.9698 -1.4383 0.175, 0.9678 -1.4382 0.1731, 1.0183 -1.4181 0.1332, 1.015 -1.4184 0.1298, 1.0116 -1.4181 0.1265, 1.0593 -1.3883 0.0948, 1.0549 -1.3888 0.0899, 1.05 -1.3883 0.0855, 1.0449 -1.387 0.0816, 1.0747 -1.3485 0.0477, 1.0929 -1.3502 0.0633, 1.0876 -1.3508 0.0572, 1.0815 -1.3502 0.0519, 1.0964 -1.3037 0.0229, 1.1178 -1.3053 0.0402, 1.1119 -1.3059 0.033, 1.1046 -1.3053 0.0271, 1.1376 -1.2558 0.0459, 1.136 -1.2573 0.0361, 1.132 -1.2583 0.0269, 1.1258 -1.2586 0.019, 1.1179 -1.2583 0.0128, -1.0964 -1.3037 0.0229, -1.1351 -1.2642 0.048, -1.1376 -1.2558 0.0459, -1.136 -1.2573 0.0361, -1.0747 -1.3485 0.0477, -1.0449 -1.387 0.0816, -1.008 -1.4173 0.1234, -0.9658 -1.4379 0.1712, -1.0075 -1.4234 0.1544, -1.0242 -1.416 0.1404, -1.0214 -1.4173 0.1368, -0.9578 -1.4407 0.1957, -0.9755 -1.4374 0.181, -0.9736 -1.4379 0.179, -0.9208 -1.4474 0.2231, -0.9203 -1.4474 0.2226, -0.9213 -1.4474 0.2236, -0.9218 -1.4474 0.224, -0.9222 -1.4474 0.2245, -0.9227 -1.4474 0.225, -0.9678 -1.4382 0.1731, -0.9698 -1.4383 0.175, -0.9717 -1.4382 0.177, -1.0116 -1.4181 0.1265, -1.015 -1.4184 0.1298, -1.0183 -1.4181 0.1332, -1.05 -1.3883 0.0855, -1.0549 -1.3888 0.0899, -1.0593 -1.3883 0.0948, -1.0632 -1.387 0.0999, -1.052 -1.3954 0.1172, -1.0664 -1.3847 0.1052, -1.0893 -1.3583 0.0862, -1.0972 -1.3485 0.0701, -1.0815 -1.3502 0.0519, -1.0876 -1.3508 0.0572, -1.0929 -1.3502 0.0633, -1.1001 -1.3457 0.0771, -1.1174 -1.3138 0.0628, -1.1219 -1.3037 0.0484, -1.1046 -1.3053 0.0271, -1.1119 -1.3059 0.033, -1.1178 -1.3053 0.0402, -1.1242 -1.3011 0.0571, -1.1087 -1.2573 0.0088, -1.1179 -1.2583 0.0128, -1.1258 -1.2586 0.019, -1.132 -1.2583 0.0269, 1.052 -1.3954 2.1724, 1.0242 -1.416 2.1493, 0.9227 -1.4474 2.0647, 0.9578 -1.4407 2.0939, 0.9755 -1.4374 2.1087, 1.0075 -1.4234 2.1353, 1.0664 -1.3847 2.1844, 1.0893 -1.3583 2.2035, 1.1001 -1.3457 2.2125, 1.1174 -1.3138 2.2269, 1.1242 -1.3011 2.2326, 1.1351 -1.2642 2.2417, 1.1376 -1.2558 2.2438, -1.1376 -1.2558 2.2438, -1.1351 -1.2642 2.2417, -1.1242 -1.3011 2.2326, -1.1174 -1.3138 2.2269, -1.1001 -1.3457 2.2125, -1.0893 -1.3583 2.2035, -1.0664 -1.3847 2.1844, -1.052 -1.3954 2.1724, -0.9227 -1.4474 2.0647, -0.9578 -1.4407 2.0939, -0.9755 -1.4374 2.1087, -1.0075 -1.4234 2.1353, -1.0242 -1.416 2.1493, 1.0969 -1.2642 2.28, 1.0878 -1.3011 2.269, 1.0964 -1.3037 2.2668, 1.136 -1.2573 2.2536, 1.0821 -1.3138 2.2622, 1.0677 -1.3457 2.245, 1.0747 -1.3485 2.242, 1.0586 -1.3583 2.2341, 1.0396 -1.3847 2.2112, 1.0449 -1.387 2.208, 1.0276 -1.3954 2.1968, 1.0044 -1.416 2.1691, 1.008 -1.4173 2.1662, 0.9905 -1.4234 2.1523, 0.9638 -1.4374 2.1203, 0.9658 -1.4379 2.1185, 1.0214 -1.4173 2.1529, 0.9736 -1.4379 2.1107, 0.9208 -1.4474 2.0666, 0.9203 -1.4474 2.0671, 0.9213 -1.4474 2.0661, 0.9491 -1.4407 2.1026, 0.9198 -1.4474 2.0675, 0.9218 -1.4474 2.0656, 0.9222 -1.4474 2.0652, 0.9678 -1.4382 2.1166, 0.9698 -1.4383 2.1146, 0.9717 -1.4382 2.1127, 1.0116 -1.4181 2.1632, 1.015 -1.4184 2.1599, 1.0183 -1.4181 2.1564, 1.05 -1.3883 2.2042, 1.0549 -1.3888 2.1997, 1.0593 -1.3883 2.1949, 1.0632 -1.387 2.1897, 1.0972 -1.3485 2.2196, 1.0815 -1.3502 2.2378, 1.0876 -1.3508 2.2325, 1.0929 -1.3502 2.2263, 1.1219 -1.3037 2.2413, 1.1046 -1.3053 2.2626, 1.1119 -1.3059 2.2567, 1.1178 -1.3053 2.2495, 1.0989 -1.2558 2.2824, 1.1087 -1.2573 2.2808, 1.1179 -1.2583 2.2768, 1.1258 -1.2586 2.2706, 1.132 -1.2583 2.2627, -1.1219 -1.3037 2.2413, -1.0969 -1.2642 2.28, -1.0989 -1.2558 2.2824, -1.1087 -1.2573 2.2808, -1.0972 -1.3485 2.2196, -1.0632 -1.387 2.1897, -1.0214 -1.4173 2.1529, -0.9736 -1.4379 2.1107, -0.9905 -1.4234 2.1523, -1.0044 -1.416 2.1691, -1.008 -1.4173 2.1662, -0.9491 -1.4407 2.1026, -0.9638 -1.4374 2.1203, -0.9658 -1.4379 2.1185, -0.9218 -1.4474 2.0656, -0.9222 -1.4474 2.0652, -0.9213 -1.4474 2.0661, -0.9208 -1.4474 2.0666, -0.9203 -1.4474 2.0671, -0.9198 -1.4474 2.0675, -0.9717 -1.4382 2.1127, -0.9698 -1.4383 2.1146, -0.9678 -1.4382 2.1166, -1.0183 -1.4181 2.1564, -1.015 -1.4184 2.1599, -1.0116 -1.4181 2.1632, -1.0593 -1.3883 2.1949, -1.0549 -1.3888 2.1997, -1.05 -1.3883 2.2042, -1.0449 -1.387 2.208, -1.0276 -1.3954 2.1968, -1.0396 -1.3847 2.2112, -1.0586 -1.3583 2.2341, -1.0747 -1.3485 2.242, -1.0929 -1.3502 2.2263, -1.0876 -1.3508 2.2325, -1.0815 -1.3502 2.2378, -1.0677 -1.3457 2.245, -1.0821 -1.3138 2.2622, -1.0964 -1.3037 2.2668, -1.1178 -1.3053 2.2495, -1.1119 -1.3059 2.2567, -1.1046 -1.3053 2.2626, -1.0878 -1.3011 2.269, -1.136 -1.2573 2.2536, -1.132 -1.2583 2.2627, -1.1258 -1.2586 2.2706, -1.1179 -1.2583 2.2768
            ]
        }
        coordIndex [
            0,1,2,-1,0,2,3,-1,3,2,4,-1,3,4,5,-1,5,4,6,-1,5,6,7,-1,7,6,8,-1,7,8,9,-1,9,8,10,-1,9,10,11,-1,11,10,12,-1,11,12,13,-1,13,12,14,-1,14,12,15,-1,14,15,16,-1,14,16,17,-1,17,16,18,-1,17,18,19,-1,19,18,20,-1,19,20,21,-1,21,20,22,-1,21,22,23,-1,23,22,24,-1,23,24,25,-1,25,24,26,-1,25,26,27,-1,27,26,28,-1,28,26,29,-1,28,29,30,-1,28,30,31,-1,31,30,32,-1,31,32,33,-1,33,32,34,-1,33,34,35,-1,35,34,36,-1,35,36,37,-1,37,36,38,-1,37,38,39,-1,39,38,40,-1,39,40,41,-1,41,40,42,-1,42,40,43,-1,42,43,44,-1,42,44,45,-1,45,44,46,-1,45,46,47,-1,47,46,48,-1,47,48,49,-1,49,48,50,-1,49,50,51,-1,51,50,52,-1,51,52,53,-1,53,52,54,-1,53,54,55,-1,55,54,0,-1,0,54,1,-1,56,57,58,-1,58,57,59,-1,43,40,54,-1,40,15,54,-1,54,15,12,-1,54,12,1,-1,1,12,2,-1,36,29,38,-1,38,29,40,-1,8,6,4,-1,50,48,46,-1,34,32,36,-1,36,32,30,-1,36,30,29,-1,40,29,15,-1,15,29,26,-1,15,26,24,-1,54,52,43,-1,43,52,50,-1,43,50,44,-1,44,50,46,-1,18,16,20,-1,20,16,15,-1,20,15,22,-1,22,15,24,-1,2,12,4,-1,4,12,10,-1,4,10,8,-1,60,61,62,-1,59,57,63,-1,63,57,64,-1,63,64,65,-1,65,64,66,-1,65,66,67,-1,67,66,68,-1,67,68,69,-1,69,68,70,-1,69,70,62,-1,62,70,71,-1,62,71,60,-1,61,60,72,-1,72,60,73,-1,72,73,74,-1,75,76,77,-1,77,76,74,-1,77,74,78,-1,78,74,73,-1,27,28,79,-1,79,28,80,-1,79,80,81,-1,81,80,82,-1,81,82,83,-1,83,82,84,-1,83,84,75,-1,75,84,85,-1,75,85,76,-1,86,87,88,-1,82,80,89,-1,90,91,92,-1,93,94,95,-1,96,97,98,-1,99,100,101,-1,69,62,102,-1,65,67,103,-1,104,105,59,-1,104,59,106,-1,107,108,105,-1,105,108,59,-1,109,106,59,-1,110,109,59,-1,63,110,59,-1,100,107,101,-1,101,107,105,-1,101,105,111,-1,111,105,104,-1,111,104,112,-1,112,104,106,-1,112,106,113,-1,113,106,109,-1,113,109,103,-1,103,109,110,-1,103,110,65,-1,65,110,63,-1,97,99,98,-1,98,99,101,-1,98,101,114,-1,114,101,111,-1,114,111,115,-1,115,111,112,-1,115,112,116,-1,116,112,113,-1,116,113,102,-1,102,113,103,-1,102,103,69,-1,69,103,67,-1,94,96,95,-1,95,96,98,-1,95,98,117,-1,117,98,114,-1,117,114,118,-1,118,114,115,-1,118,115,119,-1,119,115,116,-1,119,116,120,-1,120,116,102,-1,120,102,61,-1,61,102,62,-1,72,74,121,-1,91,93,92,-1,92,93,95,-1,92,95,122,-1,122,95,117,-1,122,117,123,-1,123,117,118,-1,123,118,124,-1,124,118,119,-1,124,119,121,-1,121,119,120,-1,121,120,72,-1,72,120,61,-1,76,85,125,-1,87,90,88,-1,88,90,92,-1,88,92,126,-1,126,92,122,-1,126,122,127,-1,127,122,123,-1,127,123,128,-1,128,123,124,-1,128,124,125,-1,125,124,121,-1,125,121,76,-1,76,121,74,-1,82,89,84,-1,129,86,130,-1,130,86,88,-1,130,88,131,-1,131,88,126,-1,131,126,132,-1,132,126,127,-1,132,127,133,-1,133,127,128,-1,133,128,89,-1,89,128,125,-1,89,125,84,-1,84,125,85,-1,41,129,39,-1,39,129,130,-1,39,130,37,-1,37,130,131,-1,37,131,35,-1,35,131,132,-1,35,132,33,-1,33,132,133,-1,33,133,31,-1,31,133,89,-1,31,89,28,-1,28,89,80,-1,81,83,134,-1,135,136,137,-1,75,77,138,-1,78,73,139,-1,60,71,140,-1,70,68,141,-1,142,143,144,-1,145,146,147,-1,148,149,57,-1,148,57,150,-1,66,64,149,-1,149,64,57,-1,151,150,57,-1,152,151,57,-1,153,152,57,-1,68,66,141,-1,141,66,149,-1,141,149,154,-1,154,149,148,-1,154,148,155,-1,155,148,150,-1,155,150,156,-1,156,150,151,-1,156,151,147,-1,147,151,152,-1,147,152,145,-1,145,152,153,-1,71,70,140,-1,140,70,141,-1,140,141,157,-1,157,141,154,-1,157,154,158,-1,158,154,155,-1,158,155,159,-1,159,155,156,-1,159,156,144,-1,144,156,147,-1,144,147,142,-1,142,147,146,-1,73,60,139,-1,139,60,140,-1,139,140,160,-1,160,140,157,-1,160,157,161,-1,161,157,158,-1,161,158,162,-1,162,158,159,-1,162,159,163,-1,163,159,144,-1,163,144,164,-1,164,144,143,-1,165,166,167,-1,77,78,138,-1,138,78,139,-1,138,139,168,-1,168,139,160,-1,168,160,169,-1,169,160,161,-1,169,161,170,-1,170,161,162,-1,170,162,167,-1,167,162,163,-1,167,163,165,-1,165,163,164,-1,171,172,173,-1,83,75,134,-1,134,75,138,-1,134,138,174,-1,174,138,168,-1,174,168,175,-1,175,168,169,-1,175,169,176,-1,176,169,170,-1,176,170,173,-1,173,170,167,-1,173,167,171,-1,171,167,166,-1,135,137,177,-1,79,81,178,-1,178,81,134,-1,178,134,179,-1,179,134,174,-1,179,174,180,-1,180,174,175,-1,180,175,181,-1,181,175,176,-1,181,176,137,-1,137,176,173,-1,137,173,177,-1,177,173,172,-1,27,79,25,-1,25,79,178,-1,25,178,23,-1,23,178,179,-1,23,179,21,-1,21,179,180,-1,21,180,19,-1,19,180,181,-1,19,181,17,-1,17,181,137,-1,17,137,14,-1,14,137,136,-1,96,182,183,-1,58,59,184,-1,184,59,108,-1,184,108,185,-1,185,108,107,-1,185,107,186,-1,186,107,100,-1,186,100,187,-1,187,100,99,-1,187,99,183,-1,183,99,97,-1,183,97,96,-1,182,96,188,-1,188,96,94,-1,188,94,189,-1,94,93,189,-1,189,93,91,-1,189,91,190,-1,190,91,90,-1,190,90,191,-1,191,90,192,-1,192,90,87,-1,192,87,193,-1,87,86,193,-1,193,86,129,-1,193,129,194,-1,194,129,41,-1,194,41,42,-1,13,14,136,-1,13,136,195,-1,195,136,135,-1,195,135,196,-1,196,135,197,-1,197,135,177,-1,197,177,198,-1,198,177,172,-1,198,172,199,-1,199,172,171,-1,199,171,200,-1,200,171,166,-1,200,166,201,-1,201,166,165,-1,201,165,202,-1,202,165,164,-1,202,164,143,-1,57,56,153,-1,153,56,203,-1,153,203,145,-1,145,203,204,-1,145,204,146,-1,146,204,205,-1,146,205,142,-1,142,205,206,-1,142,206,143,-1,143,206,207,-1,143,207,202,-1,208,209,210,-1,193,194,211,-1,212,213,214,-1,215,216,217,-1,218,219,220,-1,221,222,223,-1,187,183,224,-1,185,186,225,-1,226,227,58,-1,226,58,228,-1,229,230,227,-1,227,230,58,-1,231,228,58,-1,232,231,58,-1,184,232,58,-1,222,229,223,-1,223,229,227,-1,223,227,233,-1,233,227,226,-1,233,226,234,-1,234,226,228,-1,234,228,235,-1,235,228,231,-1,235,231,225,-1,225,231,232,-1,225,232,185,-1,185,232,184,-1,219,221,220,-1,220,221,223,-1,220,223,236,-1,236,223,233,-1,236,233,237,-1,237,233,234,-1,237,234,238,-1,238,234,235,-1,238,235,224,-1,224,235,225,-1,224,225,187,-1,187,225,186,-1,216,218,217,-1,217,218,220,-1,217,220,239,-1,239,220,236,-1,239,236,240,-1,240,236,237,-1,240,237,241,-1,241,237,238,-1,241,238,242,-1,242,238,224,-1,242,224,182,-1,182,224,183,-1,188,189,243,-1,213,215,214,-1,214,215,217,-1,214,217,244,-1,244,217,239,-1,244,239,245,-1,245,239,240,-1,245,240,246,-1,246,240,241,-1,246,241,243,-1,243,241,242,-1,243,242,188,-1,188,242,182,-1,190,191,247,-1,209,212,210,-1,210,212,214,-1,210,214,248,-1,248,214,244,-1,248,244,249,-1,249,244,245,-1,249,245,250,-1,250,245,246,-1,250,246,247,-1,247,246,243,-1,247,243,190,-1,190,243,189,-1,193,211,192,-1,251,208,252,-1,252,208,210,-1,252,210,253,-1,253,210,248,-1,253,248,254,-1,254,248,249,-1,254,249,255,-1,255,249,250,-1,255,250,211,-1,211,250,247,-1,211,247,192,-1,192,247,191,-1,55,251,53,-1,53,251,252,-1,53,252,51,-1,51,252,253,-1,51,253,49,-1,49,253,254,-1,49,254,47,-1,47,254,255,-1,47,255,45,-1,45,255,211,-1,45,211,42,-1,42,211,194,-1,196,197,256,-1,257,258,259,-1,198,199,260,-1,200,201,261,-1,202,207,262,-1,206,205,263,-1,264,265,266,-1,267,268,269,-1,270,271,56,-1,270,56,272,-1,204,203,271,-1,271,203,56,-1,273,272,56,-1,274,273,56,-1,275,274,56,-1,205,204,263,-1,263,204,271,-1,263,271,276,-1,276,271,270,-1,276,270,277,-1,277,270,272,-1,277,272,278,-1,278,272,273,-1,278,273,269,-1,269,273,274,-1,269,274,267,-1,267,274,275,-1,207,206,262,-1,262,206,263,-1,262,263,279,-1,279,263,276,-1,279,276,280,-1,280,276,277,-1,280,277,281,-1,281,277,278,-1,281,278,266,-1,266,278,269,-1,266,269,264,-1,264,269,268,-1,201,202,261,-1,261,202,262,-1,261,262,282,-1,282,262,279,-1,282,279,283,-1,283,279,280,-1,283,280,284,-1,284,280,281,-1,284,281,285,-1,285,281,266,-1,285,266,286,-1,286,266,265,-1,287,288,289,-1,199,200,260,-1,260,200,261,-1,260,261,290,-1,290,261,282,-1,290,282,291,-1,291,282,283,-1,291,283,292,-1,292,283,284,-1,292,284,289,-1,289,284,285,-1,289,285,287,-1,287,285,286,-1,293,294,295,-1,197,198,256,-1,256,198,260,-1,256,260,296,-1,296,260,290,-1,296,290,297,-1,297,290,291,-1,297,291,298,-1,298,291,292,-1,298,292,295,-1,295,292,289,-1,295,289,293,-1,293,289,288,-1,257,259,299,-1,195,196,300,-1,300,196,256,-1,300,256,301,-1,301,256,296,-1,301,296,302,-1,302,296,297,-1,302,297,303,-1,303,297,298,-1,303,298,259,-1,259,298,295,-1,259,295,299,-1,299,295,294,-1,13,195,11,-1,11,195,300,-1,11,300,9,-1,9,300,301,-1,9,301,7,-1,7,301,302,-1,7,302,5,-1,5,302,303,-1,5,303,3,-1,3,303,259,-1,3,259,0,-1,0,259,258,-1,221,264,268,-1,56,58,275,-1,275,58,230,-1,275,230,267,-1,267,230,229,-1,267,229,268,-1,268,229,222,-1,268,222,221,-1,218,286,265,-1,264,221,265,-1,265,221,219,-1,265,219,218,-1,286,218,287,-1,287,218,216,-1,287,216,288,-1,216,215,288,-1,288,215,213,-1,288,213,293,-1,293,213,212,-1,293,212,294,-1,294,212,299,-1,299,212,209,-1,299,209,257,-1,209,208,257,-1,257,208,251,-1,257,251,258,-1,258,251,55,-1,258,55,0,-1,
        ]
    }
}
Shape{
    appearance Appearance {
        material  Material 	{
            diffuseColor 0.10980392156862745 0.10980392156862745 0.10980392156862745
            specularColor 0.0784313725490196 0.0784313725490196 0.0784313725490196
            ambientIntensity 0.1098
            transparency 0.0
            shininess 0.5
        }
    }
    geometry IndexedFaceSet {
        ccw TRUE
        solid FALSE
        coord DEF co Coordinate {
            point [
                -0.0247 -0.3898 0.0031, -0.0343 -0.3911 0.0031, -0.0382 -0.39 0.0031, -0.0249 -0.3991 0.0031, -0.0159 -0.3966 0.0031, -0.0082 -1.011 0.0031, -0.0159 -0.3241 0.0031, -0.0082 -0.3195 0.0031, -0.0159 -0.3327 0.0031, -0.0159 -0.386 0.0031, -0.0256 -0.3289 0.0031, -0.0361 -0.3277 0.0031, -0.1215 -0.32 0.0031, -0.0394 -0.3195 0.0031, -0.0811 -0.32 0.0031, -0.0438 -0.3207 0.0031, -0.0586 -0.3261 0.0031, -0.0559 -0.3817 0.0031, -0.0586 -0.3785 0.0031, -0.0449 -0.3298 0.0031, -0.0608 -0.3743 0.0031, -0.0625 -0.3682 0.0031, -0.0639 -0.3586 0.0031, -0.062 -0.349 0.0031, -0.0504 -0.3318 0.0031, -0.0511 -0.385 0.0031, -0.0592 -0.3407 0.0031, -0.0566 -0.3365 0.0031, -0.0541 -0.3341 0.0031, -0.0643 -0.33 0.0031, -0.0677 -0.3338 0.0031, -0.0811 -0.3287 0.0031, -0.0704 -0.3389 0.0031, -0.0726 -0.3462 0.0031, -0.0744 -0.3579 0.0031, -0.0735 -0.3624 0.0031, -0.068 -0.3804 0.0031, -0.064 -0.3871 0.0031, -0.06 -0.3911 0.0031, -0.0547 -0.3942 0.0031, -0.0469 -0.397 0.0031, -0.0344 -0.3997 0.0031, -0.0264 -0.3202 0.0031, -0.0327 -0.3195 0.0031, -0.0082 0.5599 0.0031, -0.0375 -0.3191 0.0031, -0.1109 -0.3287 0.0031, -0.1109 -0.3988 0.0031, -0.1215 -0.3988 0.0031, -1.1024 -1.011 0.0031, -1.1024 -0.3195 0.0031, -1.1024 0.5599 0.0031, 1.1024 -0.3195 0.0031, 0.1973 -0.32 0.0031, 0.1858 -0.32 0.0031, 0.1263 -0.32 0.0031, 0.1131 -0.338 0.0031, 0.1089 -0.3315 0.0031, 0.0418 -0.32 0.0031, -0.0005 -0.32 0.0031, -0.0005 -0.3988 0.0031, 0.0398 -0.3988 0.0031, 1.1024 -1.011 0.0031, 0.0785 -0.32 0.0031, 0.0571 -0.32 0.0031, 0.1047 -0.3277 0.0031, 0.0992 -0.3247 0.0031, 0.0913 -0.3222 0.0031, 0.0101 -0.3901 0.0031, 0.0101 -0.3642 0.0031, 0.0398 -0.3901 0.0031, 0.0379 -0.3642 0.0031, 0.1666 -0.3988 0.0031, 0.156 -0.3988 0.0031, 0.1778 -0.3421 0.0031, 0.1453 -0.3421 0.0031, 0.1378 -0.32 0.0031, 0.0379 -0.3556 0.0031, 0.0571 -0.3988 0.0031, 0.1017 -0.3927 0.0031, 0.108 -0.3889 0.0031, 0.1119 -0.3851 0.0031, 0.115 -0.38 0.0031, 0.0793 -0.3988 0.0031, 0.0848 -0.3977 0.0031, 0.1178 -0.3724 0.0031, 0.1205 -0.3604 0.0031, 0.1193 -0.3557 0.0031, 1.1024 0.5599 0.0031, 0.0418 -0.3287 0.0031, 0.0101 -0.3287 0.0031, 0.0101 -0.3556 0.0031, -1.1417 -0.5228 0.1803, -1.1417 0.5599 0.0425, -1.1417 -1.011 0.0425, -1.1417 -0.5228 0.2984, -1.1417 -0.759 0.2984, -1.1417 -1.011 0.4559, -1.1417 -0.759 0.1803, -1.1417 0.5599 0.5543, -1.1417 0.0284 0.2984, -1.1417 0.0284 0.1803, -1.1417 0.2646 0.1803, -1.1417 0.2646 0.2984, 1.1417 0.0284 0.2984, 1.1417 -0.5228 0.2984, 1.1417 0.0284 0.1803, 1.1417 -0.5228 0.1803, 1.1417 0.2646 0.1803, 1.1417 0.5599 0.0425, 1.1417 0.2646 0.2984, 1.1417 0.5599 0.5543, 1.1417 -1.011 0.4559, 1.1417 -1.011 0.0425, 1.1417 -0.759 0.1803, 1.1417 -0.759 0.2984, 1.1417 0.5599 1.7354, 1.1417 0.5599 2.2472, 1.1417 -1.011 1.8338, 1.1417 -1.011 2.2472, -1.1024 -1.011 2.2866, 1.1024 -1.011 2.2866, -1.1024 0.5599 2.2866, 1.1024 0.5599 2.2866, -1.1417 -1.011 1.8338, -1.1417 -1.011 2.2472, -1.1417 0.5599 1.7354, -1.1417 0.5599 2.2472, 1.0433 -1.011 0.4559, 1.1126 -1.011 0.0044, 1.122 -1.011 0.0084, 1.1302 -1.011 0.0146, -1.0433 -1.011 1.8338, 1.0433 -1.011 1.8338, -1.0433 -1.011 0.4559, 1.1365 -1.011 0.0228, 1.1404 -1.011 0.0323, 1.1404 -1.011 2.2574, 1.1126 -1.011 2.2852, 1.1365 -1.011 2.2669, 1.1302 -1.011 2.275, 1.122 -1.011 2.2813, -1.1365 -1.011 2.2669, -1.1126 -1.011 2.2852, -1.1302 -1.011 2.275, -1.122 -1.011 2.2813, -1.1404 -1.011 2.2574, -1.1126 -1.011 0.0044, -1.122 -1.011 0.0084, -1.1302 -1.011 0.0146, -1.1404 -1.011 0.0323, -1.1365 -1.011 0.0228, -1.0433 0.5599 1.7354, 1.0433 0.5599 1.7354, 0.2756 0.5599 0.2984, 0.2756 0.5599 0.1803, 0.5118 0.5599 0.1803, 1.0433 0.5599 0.5543, -0.2756 0.5599 0.2984, -0.5118 0.5599 0.2984, -1.0433 0.5599 0.5543, -0.5118 0.5599 0.1803, -1.1126 0.5599 0.0044, -1.122 0.5599 0.0084, -1.1302 0.5599 0.0146, -1.1365 0.5599 0.0228, -1.1404 0.5599 0.0323, 0.5118 0.5599 0.2984, -1.1404 0.5599 2.2574, -1.1126 0.5599 2.2852, -1.1365 0.5599 2.2669, -1.1302 0.5599 2.275, -1.122 0.5599 2.2813, 1.1365 0.5599 0.0228, 1.1302 0.5599 0.0146, 1.122 0.5599 0.0084, 1.1365 0.5599 2.2669, 1.1126 0.5599 2.2852, 1.1302 0.5599 2.275, 1.122 0.5599 2.2813, 1.1404 0.5599 2.2574, -0.2756 0.5599 0.1803, 1.1404 0.5599 0.0323, 1.1126 0.5599 0.0044
            ]
        }
        coordIndex [
            0,1,2,-1,3,4,5,-1,6,7,8,-1,8,7,9,-1,9,0,8,-1,8,0,2,-1,8,2,10,-1,10,2,11,-1,12,13,14,-1,14,13,15,-1,14,15,16,-1,17,18,19,-1,19,18,20,-1,19,20,21,-1,21,22,19,-1,19,22,23,-1,19,23,24,-1,11,2,19,-1,19,2,25,-1,19,25,17,-1,26,27,23,-1,23,27,28,-1,23,28,24,-1,16,29,14,-1,14,29,30,-1,14,30,31,-1,31,30,32,-1,32,33,31,-1,31,33,34,-1,31,34,5,-1,5,34,35,-1,5,35,36,-1,36,37,5,-1,5,37,38,-1,5,38,39,-1,39,40,5,-1,5,40,41,-1,5,41,3,-1,6,42,7,-1,7,42,43,-1,7,43,44,-1,44,43,45,-1,44,45,13,-1,46,31,47,-1,47,31,5,-1,47,5,48,-1,48,5,49,-1,48,49,12,-1,12,49,50,-1,12,50,13,-1,13,50,51,-1,13,51,44,-1,52,53,54,-1,55,56,57,-1,58,59,7,-1,7,59,60,-1,61,62,60,-1,60,62,5,-1,60,5,7,-1,7,5,4,-1,7,4,9,-1,52,63,64,-1,57,65,55,-1,55,65,66,-1,55,66,67,-1,68,69,70,-1,70,69,71,-1,53,52,72,-1,72,52,62,-1,72,62,73,-1,74,75,54,-1,54,75,76,-1,54,76,52,-1,52,76,55,-1,52,55,63,-1,63,55,67,-1,77,64,71,-1,71,64,78,-1,71,78,70,-1,70,78,61,-1,79,80,73,-1,73,80,81,-1,73,81,82,-1,61,78,62,-1,62,78,83,-1,62,83,73,-1,73,83,84,-1,73,84,79,-1,82,85,73,-1,73,85,86,-1,73,86,55,-1,55,86,87,-1,55,87,56,-1,44,88,7,-1,7,88,52,-1,7,52,58,-1,58,52,64,-1,58,64,89,-1,89,64,77,-1,89,77,90,-1,90,77,91,-1,92,93,94,-1,95,96,97,-1,97,96,94,-1,94,96,98,-1,94,98,92,-1,97,99,95,-1,95,99,100,-1,95,100,92,-1,92,100,101,-1,92,101,93,-1,93,101,102,-1,93,102,99,-1,99,102,103,-1,99,103,100,-1,104,105,106,-1,106,105,107,-1,108,109,110,-1,110,109,111,-1,110,111,104,-1,104,111,112,-1,104,112,105,-1,108,106,109,-1,109,106,107,-1,109,107,113,-1,113,107,114,-1,113,114,112,-1,112,114,115,-1,112,115,105,-1,116,117,118,-1,118,117,119,-1,120,121,122,-1,122,121,123,-1,124,125,126,-1,126,125,127,-1,113,112,128,-1,129,130,131,-1,125,124,132,-1,118,119,133,-1,133,119,120,-1,132,134,5,-1,129,131,62,-1,62,131,135,-1,62,135,136,-1,5,134,49,-1,49,134,97,-1,49,97,94,-1,137,138,119,-1,119,138,121,-1,119,121,120,-1,137,139,138,-1,138,139,140,-1,138,140,141,-1,142,143,144,-1,144,143,145,-1,136,113,62,-1,62,113,128,-1,62,128,5,-1,5,128,133,-1,5,133,132,-1,132,133,120,-1,132,120,125,-1,125,120,143,-1,125,143,146,-1,146,143,142,-1,147,49,148,-1,148,49,149,-1,94,150,49,-1,49,150,151,-1,49,151,149,-1,152,126,127,-1,117,116,153,-1,154,155,44,-1,44,155,156,-1,157,111,109,-1,158,159,123,-1,127,123,152,-1,152,123,159,-1,152,159,160,-1,160,159,161,-1,162,163,161,-1,161,163,164,-1,161,164,165,-1,99,160,93,-1,93,160,161,-1,93,161,166,-1,166,161,165,-1,154,153,167,-1,167,153,157,-1,167,157,156,-1,168,169,127,-1,127,169,122,-1,127,122,123,-1,168,170,169,-1,169,170,171,-1,169,171,172,-1,173,174,156,-1,156,174,175,-1,176,177,178,-1,178,177,179,-1,176,180,177,-1,177,180,117,-1,177,117,123,-1,123,117,153,-1,123,153,158,-1,158,153,154,-1,158,154,181,-1,181,154,44,-1,181,44,161,-1,161,44,51,-1,161,51,162,-1,157,109,156,-1,156,109,182,-1,156,182,173,-1,175,183,156,-1,156,183,88,-1,156,88,44,-1,50,49,147,-1,162,148,163,-1,163,148,149,-1,163,149,164,-1,164,149,151,-1,164,151,165,-1,165,151,150,-1,165,150,166,-1,166,150,94,-1,166,94,93,-1,51,50,162,-1,162,50,147,-1,162,147,148,-1,52,88,183,-1,129,62,52,-1,52,183,129,-1,129,183,175,-1,129,175,130,-1,130,175,174,-1,130,174,131,-1,131,174,173,-1,131,173,135,-1,135,173,182,-1,135,182,136,-1,136,182,109,-1,136,109,113,-1,120,122,169,-1,120,169,143,-1,143,169,172,-1,143,172,145,-1,145,172,171,-1,145,171,144,-1,144,171,170,-1,144,170,142,-1,142,170,168,-1,142,168,146,-1,146,168,127,-1,146,127,125,-1,119,117,180,-1,119,180,137,-1,137,180,176,-1,137,176,139,-1,139,176,178,-1,139,178,140,-1,140,178,179,-1,140,179,141,-1,141,179,177,-1,141,177,138,-1,138,177,123,-1,138,123,121,-1,157,128,111,-1,111,128,112,-1,133,153,118,-1,118,153,116,-1,153,133,157,-1,157,133,128,-1,134,160,97,-1,97,160,99,-1,152,132,126,-1,126,132,124,-1,152,160,132,-1,132,160,134,-1,
        ]
    }
}
Shape{
    appearance Appearance {
        material  Material 	{
            diffuseColor 0.7764705882352941 0.7568627450980392 0.7372549019607844
            specularColor 0.38823529411764707 0.3764705882352941 0.3686274509803922
            ambientIntensity 0.7605
            transparency 0.0
            shininess 0.5
        }
    }
    geometry IndexedFaceSet {
        ccw TRUE
        solid FALSE
        coord DEF co Coordinate {
            point [
                -1.3779 0.0874 -0.7812, -1.3779 0.2055 -0.7812, -1.2599 0.0874 -0.7874, -1.2599 0.2055 -0.7874, -1.1904 0.2646 0.2984, -1.1417 0.2646 0.2984, -1.1904 0.2646 0.1803, -1.1417 0.2646 0.1803, -1.1904 0.0284 0.1803, -1.1417 0.0284 0.1803, -1.1904 0.0284 0.2984, -1.1417 0.0284 0.2984, -1.2101 0.2646 0.1616, -1.328 0.2646 0.1678, -1.2092 0.2646 0.1665, -1.3218 0.2646 0.202, -1.2071 0.2646 0.171, -1.3073 0.2646 0.2336, -1.204 0.2646 0.1749, -1.2853 0.2646 0.2605, -1.2 0.2646 0.1778, -1.2572 0.2646 0.2811, -1.1953 0.2646 0.1796, -1.2249 0.2646 0.294, -1.1953 0.0284 0.1796, -1.2 0.0284 0.1778, -1.204 0.0284 0.1749, -1.2071 0.0284 0.171, -1.2092 0.0284 0.1665, -1.2101 0.0284 0.1616, -1.2249 0.0284 0.294, -1.2572 0.0284 0.2811, -1.2853 0.0284 0.2605, -1.3073 0.0284 0.2336, -1.3218 0.0284 0.202, -1.328 0.0284 0.1678, -1.3675 0.2646 -0.5846, -1.2496 0.2646 -0.5908, -1.2496 0.0284 -0.5908, -1.3675 0.0284 -0.5846, -1.3779 -0.7 -0.7812, -1.3779 -0.5819 -0.7812, -1.2599 -0.7 -0.7874, -1.2599 -0.5819 -0.7874, -1.1904 -0.5228 0.2984, -1.1417 -0.5228 0.2984, -1.1904 -0.5228 0.1803, -1.1417 -0.5228 0.1803, -1.1904 -0.759 0.1803, -1.1417 -0.759 0.1803, -1.1904 -0.759 0.2984, -1.1417 -0.759 0.2984, -1.2101 -0.5228 0.1616, -1.328 -0.5228 0.1678, -1.2092 -0.5228 0.1665, -1.3218 -0.5228 0.202, -1.2071 -0.5228 0.171, -1.3073 -0.5228 0.2336, -1.204 -0.5228 0.1749, -1.2853 -0.5228 0.2605, -1.2 -0.5228 0.1778, -1.2572 -0.5228 0.2811, -1.1953 -0.5228 0.1796, -1.2249 -0.5228 0.294, -1.1953 -0.759 0.1796, -1.2 -0.759 0.1778, -1.204 -0.759 0.1749, -1.2071 -0.759 0.171, -1.2092 -0.759 0.1665, -1.2101 -0.759 0.1616, -1.2249 -0.759 0.294, -1.2572 -0.759 0.2811, -1.2853 -0.759 0.2605, -1.3073 -0.759 0.2336, -1.3218 -0.759 0.202, -1.328 -0.759 0.1678, -1.3675 -0.5228 -0.5846, -1.2496 -0.5228 -0.5908, -1.2496 -0.759 -0.5908, -1.3675 -0.759 -0.5846, 1.2599 0.0874 -0.7874, 1.2599 0.2055 -0.7874, 1.3779 0.0874 -0.7812, 1.3779 0.2055 -0.7812, 1.1904 0.0284 0.2984, 1.1417 0.0284 0.2984, 1.1904 0.0284 0.1803, 1.1417 0.0284 0.1803, 1.1904 0.2646 0.1803, 1.1417 0.2646 0.1803, 1.1904 0.2646 0.2984, 1.1417 0.2646 0.2984, 1.2101 0.0284 0.1616, 1.328 0.0284 0.1678, 1.2092 0.0284 0.1665, 1.3218 0.0284 0.202, 1.2071 0.0284 0.171, 1.3073 0.0284 0.2336, 1.204 0.0284 0.1749, 1.2853 0.0284 0.2605, 1.2 0.0284 0.1778, 1.2572 0.0284 0.2811, 1.1953 0.0284 0.1796, 1.2249 0.0284 0.294, 1.1953 0.2646 0.1796, 1.2 0.2646 0.1778, 1.204 0.2646 0.1749, 1.2071 0.2646 0.171, 1.2092 0.2646 0.1665, 1.2101 0.2646 0.1616, 1.2249 0.2646 0.294, 1.2572 0.2646 0.2811, 1.2853 0.2646 0.2605, 1.3073 0.2646 0.2336, 1.3218 0.2646 0.202, 1.328 0.2646 0.1678, 1.3675 0.0284 -0.5846, 1.2496 0.0284 -0.5908, 1.2496 0.2646 -0.5908, 1.3675 0.2646 -0.5846, 1.2599 -0.7 -0.7874, 1.2599 -0.5819 -0.7874, 1.3779 -0.7 -0.7812, 1.3779 -0.5819 -0.7812, 1.1904 -0.759 0.2984, 1.1417 -0.759 0.2984, 1.1904 -0.759 0.1803, 1.1417 -0.759 0.1803, 1.1904 -0.5228 0.1803, 1.1417 -0.5228 0.1803, 1.1904 -0.5228 0.2984, 1.1417 -0.5228 0.2984, 1.2101 -0.759 0.1616, 1.328 -0.759 0.1678, 1.2092 -0.759 0.1665, 1.3218 -0.759 0.202, 1.2071 -0.759 0.171, 1.3073 -0.759 0.2336, 1.204 -0.759 0.1749, 1.2853 -0.759 0.2605, 1.2 -0.759 0.1778, 1.2572 -0.759 0.2811, 1.1953 -0.759 0.1796, 1.2249 -0.759 0.294, 1.1953 -0.5228 0.1796, 1.2 -0.5228 0.1778, 1.204 -0.5228 0.1749, 1.2071 -0.5228 0.171, 1.2092 -0.5228 0.1665, 1.2101 -0.5228 0.1616, 1.2249 -0.5228 0.294, 1.2572 -0.5228 0.2811, 1.2853 -0.5228 0.2605, 1.3073 -0.5228 0.2336, 1.3218 -0.5228 0.202, 1.328 -0.5228 0.1678, 1.3675 -0.759 -0.5846, 1.2496 -0.759 -0.5908, 1.2496 -0.5228 -0.5908, 1.3675 -0.5228 -0.5846, 0.3346 0.737 -0.7824, 0.4528 0.737 -0.7824, 0.3346 0.6189 -0.7862, 0.4528 0.6189 -0.7862, 0.5118 0.5873 0.2984, 0.5118 0.5599 0.2984, 0.5118 0.5873 0.1803, 0.5118 0.5599 0.1803, 0.2756 0.5873 0.1803, 0.2756 0.5599 0.1803, 0.2756 0.5873 0.2984, 0.2756 0.5599 0.2984, 0.5118 0.7053 0.1841, 0.5118 0.7005 0.2139, 0.5118 0.6883 0.2415, 0.5118 0.6694 0.2651, 0.5118 0.6452 0.2832, 0.5118 0.6172 0.2945, 0.2756 0.6172 0.2945, 0.2756 0.6452 0.2832, 0.2756 0.6694 0.2651, 0.2756 0.6883 0.2415, 0.2756 0.7005 0.2139, 0.2756 0.7053 0.1841, 0.5118 0.7305 -0.5856, 0.5118 0.6125 -0.5895, 0.2756 0.6125 -0.5895, 0.2756 0.7305 -0.5856, -0.4528 0.737 -0.7824, -0.3346 0.737 -0.7824, -0.4528 0.6189 -0.7862, -0.3346 0.6189 -0.7862, -0.2756 0.5873 0.2984, -0.2756 0.5599 0.2984, -0.2756 0.5873 0.1803, -0.2756 0.5599 0.1803, -0.5118 0.5873 0.1803, -0.5118 0.5599 0.1803, -0.5118 0.5873 0.2984, -0.5118 0.5599 0.2984, -0.2756 0.7053 0.1841, -0.2756 0.7005 0.2139, -0.2756 0.6883 0.2415, -0.2756 0.6694 0.2651, -0.2756 0.6452 0.2832, -0.2756 0.6172 0.2945, -0.5118 0.6172 0.2945, -0.5118 0.6452 0.2832, -0.5118 0.6694 0.2651, -0.5118 0.6883 0.2415, -0.5118 0.7005 0.2139, -0.5118 0.7053 0.1841, -0.2756 0.7305 -0.5856, -0.2756 0.6125 -0.5895, -0.5118 0.6125 -0.5895, -0.5118 0.7305 -0.5856
            ]
        }
        coordIndex [
            0,1,2,-1,2,1,3,-1,4,5,6,-1,6,5,7,-1,6,7,8,-1,8,7,9,-1,8,9,10,-1,10,9,11,-1,11,5,10,-1,10,5,4,-1,12,13,14,-1,14,13,15,-1,14,15,16,-1,16,15,17,-1,16,17,18,-1,18,17,19,-1,18,19,20,-1,20,19,21,-1,20,21,22,-1,22,21,23,-1,22,23,6,-1,6,23,4,-1,6,8,22,-1,22,8,24,-1,22,24,20,-1,20,24,25,-1,20,25,18,-1,18,25,26,-1,18,26,16,-1,16,26,27,-1,16,27,14,-1,14,27,28,-1,14,28,12,-1,12,28,29,-1,8,10,24,-1,24,10,30,-1,24,30,25,-1,25,30,31,-1,25,31,26,-1,26,31,32,-1,26,32,27,-1,27,32,33,-1,27,33,28,-1,28,33,34,-1,28,34,29,-1,29,34,35,-1,13,35,34,-1,13,34,15,-1,15,34,33,-1,15,33,17,-1,17,33,32,-1,17,32,19,-1,19,32,31,-1,19,31,21,-1,21,31,30,-1,21,30,23,-1,23,30,10,-1,23,10,4,-1,36,13,37,-1,37,13,12,-1,12,29,37,-1,37,29,38,-1,37,38,3,-1,3,38,2,-1,38,29,39,-1,39,29,35,-1,1,0,36,-1,36,0,39,-1,36,39,13,-1,13,39,35,-1,40,41,42,-1,42,41,43,-1,44,45,46,-1,46,45,47,-1,46,47,48,-1,48,47,49,-1,48,49,50,-1,50,49,51,-1,51,45,50,-1,50,45,44,-1,52,53,54,-1,54,53,55,-1,54,55,56,-1,56,55,57,-1,56,57,58,-1,58,57,59,-1,58,59,60,-1,60,59,61,-1,60,61,62,-1,62,61,63,-1,62,63,46,-1,46,63,44,-1,46,48,62,-1,62,48,64,-1,62,64,60,-1,60,64,65,-1,60,65,58,-1,58,65,66,-1,58,66,56,-1,56,66,67,-1,56,67,54,-1,54,67,68,-1,54,68,52,-1,52,68,69,-1,48,50,64,-1,64,50,70,-1,64,70,65,-1,65,70,71,-1,65,71,66,-1,66,71,72,-1,66,72,67,-1,67,72,73,-1,67,73,68,-1,68,73,74,-1,68,74,69,-1,69,74,75,-1,53,75,74,-1,53,74,55,-1,55,74,73,-1,55,73,57,-1,57,73,72,-1,57,72,59,-1,59,72,71,-1,59,71,61,-1,61,71,70,-1,61,70,63,-1,63,70,50,-1,63,50,44,-1,76,53,77,-1,77,53,52,-1,52,69,77,-1,77,69,78,-1,77,78,43,-1,43,78,42,-1,78,69,79,-1,79,69,75,-1,41,40,76,-1,76,40,79,-1,76,79,53,-1,53,79,75,-1,79,40,78,-1,78,40,42,-1,77,43,76,-1,76,43,41,-1,39,0,38,-1,38,0,2,-1,37,3,36,-1,36,3,1,-1,80,81,82,-1,82,81,83,-1,84,85,86,-1,86,85,87,-1,86,87,88,-1,88,87,89,-1,88,89,90,-1,90,89,91,-1,91,85,90,-1,90,85,84,-1,92,93,94,-1,94,93,95,-1,94,95,96,-1,96,95,97,-1,96,97,98,-1,98,97,99,-1,98,99,100,-1,100,99,101,-1,100,101,102,-1,102,101,103,-1,102,103,86,-1,86,103,84,-1,86,88,102,-1,102,88,104,-1,102,104,100,-1,100,104,105,-1,100,105,98,-1,98,105,106,-1,98,106,96,-1,96,106,107,-1,96,107,94,-1,94,107,108,-1,94,108,92,-1,92,108,109,-1,88,90,104,-1,104,90,110,-1,104,110,105,-1,105,110,111,-1,105,111,106,-1,106,111,112,-1,106,112,107,-1,107,112,113,-1,107,113,108,-1,108,113,114,-1,108,114,109,-1,109,114,115,-1,93,115,114,-1,93,114,95,-1,95,114,113,-1,95,113,97,-1,97,113,112,-1,97,112,99,-1,99,112,111,-1,99,111,101,-1,101,111,110,-1,101,110,103,-1,103,110,90,-1,103,90,84,-1,116,93,117,-1,117,93,92,-1,92,109,117,-1,117,109,118,-1,117,118,80,-1,80,118,81,-1,118,109,119,-1,119,109,115,-1,82,83,116,-1,116,83,119,-1,116,119,93,-1,93,119,115,-1,120,121,122,-1,122,121,123,-1,124,125,126,-1,126,125,127,-1,126,127,128,-1,128,127,129,-1,128,129,130,-1,130,129,131,-1,131,125,130,-1,130,125,124,-1,132,133,134,-1,134,133,135,-1,134,135,136,-1,136,135,137,-1,136,137,138,-1,138,137,139,-1,138,139,140,-1,140,139,141,-1,140,141,142,-1,142,141,143,-1,142,143,126,-1,126,143,124,-1,126,128,142,-1,142,128,144,-1,142,144,140,-1,140,144,145,-1,140,145,138,-1,138,145,146,-1,138,146,136,-1,136,146,147,-1,136,147,134,-1,134,147,148,-1,134,148,132,-1,132,148,149,-1,128,130,144,-1,144,130,150,-1,144,150,145,-1,145,150,151,-1,145,151,146,-1,146,151,152,-1,146,152,147,-1,147,152,153,-1,147,153,148,-1,148,153,154,-1,148,154,149,-1,149,154,155,-1,133,155,154,-1,133,154,135,-1,135,154,153,-1,135,153,137,-1,137,153,152,-1,137,152,139,-1,139,152,151,-1,139,151,141,-1,141,151,150,-1,141,150,143,-1,143,150,130,-1,143,130,124,-1,156,133,157,-1,157,133,132,-1,121,120,158,-1,158,120,157,-1,158,157,149,-1,149,157,132,-1,158,149,159,-1,159,149,155,-1,155,133,159,-1,159,133,156,-1,159,156,123,-1,123,156,122,-1,157,120,156,-1,156,120,122,-1,159,123,158,-1,158,123,121,-1,117,80,116,-1,116,80,82,-1,119,83,118,-1,118,83,81,-1,160,161,162,-1,162,161,163,-1,164,165,166,-1,166,165,167,-1,166,167,168,-1,168,167,169,-1,168,169,170,-1,170,169,171,-1,171,165,170,-1,170,165,164,-1,172,173,166,-1,166,173,174,-1,166,174,175,-1,175,176,166,-1,166,176,177,-1,166,177,164,-1,170,178,168,-1,168,178,179,-1,168,179,180,-1,180,181,168,-1,168,181,182,-1,168,182,183,-1,172,183,182,-1,172,182,173,-1,173,182,181,-1,173,181,174,-1,174,181,180,-1,174,180,175,-1,175,180,179,-1,175,179,176,-1,176,179,178,-1,176,178,177,-1,177,178,170,-1,177,170,164,-1,184,172,185,-1,185,172,166,-1,162,163,186,-1,186,163,185,-1,186,185,168,-1,168,185,166,-1,186,168,187,-1,187,168,183,-1,183,172,187,-1,187,172,184,-1,187,184,160,-1,160,184,161,-1,188,189,190,-1,190,189,191,-1,192,193,194,-1,194,193,195,-1,194,195,196,-1,196,195,197,-1,196,197,198,-1,198,197,199,-1,199,193,198,-1,198,193,192,-1,200,201,194,-1,194,201,202,-1,194,202,203,-1,203,204,194,-1,194,204,205,-1,194,205,192,-1,198,206,196,-1,196,206,207,-1,196,207,208,-1,208,209,196,-1,196,209,210,-1,196,210,211,-1,200,211,210,-1,200,210,201,-1,201,210,209,-1,201,209,202,-1,202,209,208,-1,202,208,203,-1,203,208,207,-1,203,207,204,-1,204,207,206,-1,204,206,205,-1,205,206,198,-1,205,198,192,-1,212,200,213,-1,213,200,194,-1,190,191,214,-1,214,191,213,-1,214,213,196,-1,196,213,194,-1,214,196,215,-1,215,196,211,-1,211,200,215,-1,215,200,212,-1,215,212,188,-1,188,212,189,-1,215,188,214,-1,214,188,190,-1,213,191,212,-1,212,191,189,-1,187,160,186,-1,186,160,162,-1,185,163,184,-1,184,163,161,-1,
        ]
    }
}
Shape{
    appearance Appearance {
        material  Material 	{
            diffuseColor 1.0 1.0 1.0
            specularColor 0.8784313725490196 0.8784313725490196 0.8784313725490196
            ambientIntensity 1.0
            transparency 0.0
            shininess 0.5
        }
    }
    geometry IndexedFaceSet {
        ccw TRUE
        solid FALSE
        coord DEF co Coordinate {
            point [
                0.1453 -0.3421 0.0031, 0.1453 -0.3421 0.007, 0.1378 -0.32 0.0031, 0.1378 -0.32 0.007, 0.1778 -0.3421 0.0031, 0.1778 -0.3421 0.007, 0.1858 -0.32 0.0031, 0.1858 -0.32 0.007, 0.1973 -0.32 0.0031, 0.1973 -0.32 0.007, 0.1666 -0.3988 0.0031, 0.1666 -0.3988 0.007, 0.156 -0.3988 0.0031, 0.156 -0.3988 0.007, 0.1263 -0.32 0.0031, 0.1263 -0.32 0.007, 0.148 -0.3507 0.007, 0.1597 -0.3836 0.007, 0.1618 -0.3864 0.007, 0.161 -0.3892 0.007, 0.1605 -0.3864 0.007, 0.1743 -0.3507 0.007, 0.1624 -0.3836 0.007, 0.148 -0.3507 0.0031, 0.1597 -0.3836 0.0031, 0.1743 -0.3507 0.0031, 0.1624 -0.3836 0.0031, 0.1618 -0.3864 0.0031, 0.161 -0.3892 0.0031, 0.1605 -0.3864 0.0031, 0.0571 -0.32 0.0031, 0.0571 -0.32 0.007, 0.0571 -0.3988 0.0031, 0.0571 -0.3988 0.007, 0.0785 -0.32 0.0031, 0.0785 -0.32 0.007, 0.1205 -0.3604 0.0031, 0.1205 -0.3604 0.007, 0.1193 -0.3557 0.007, 0.1193 -0.3557 0.0031, 0.1131 -0.338 0.007, 0.1131 -0.338 0.0031, 0.1089 -0.3315 0.007, 0.1089 -0.3315 0.0031, 0.1047 -0.3277 0.007, 0.1047 -0.3277 0.0031, 0.0992 -0.3247 0.007, 0.0992 -0.3247 0.0031, 0.0913 -0.3222 0.007, 0.0913 -0.3222 0.0031, 0.0793 -0.3988 0.0031, 0.0793 -0.3988 0.007, 0.0848 -0.3977 0.007, 0.0848 -0.3977 0.0031, 0.1017 -0.3927 0.007, 0.1017 -0.3927 0.0031, 0.108 -0.3889 0.007, 0.108 -0.3889 0.0031, 0.1119 -0.3851 0.007, 0.1119 -0.3851 0.0031, 0.115 -0.38 0.007, 0.115 -0.38 0.0031, 0.1178 -0.3724 0.007, 0.1178 -0.3724 0.0031, 0.1073 -0.3708 0.007, 0.1041 -0.3786 0.007, 0.1012 -0.3826 0.007, 0.0984 -0.385 0.007, 0.0944 -0.3871 0.007, 0.0899 -0.3313 0.007, 0.098 -0.3346 0.007, 0.1021 -0.3375 0.007, 0.1047 -0.3405 0.007, 0.1068 -0.3447 0.007, 0.1085 -0.3507 0.007, 0.1099 -0.3602 0.007, 0.0885 -0.3887 0.007, 0.0793 -0.3901 0.007, 0.0677 -0.3901 0.007, 0.0677 -0.3287 0.007, 0.0789 -0.3287 0.007, 0.1099 -0.3602 0.0031, 0.1073 -0.3708 0.0031, 0.1041 -0.3786 0.0031, 0.1012 -0.3826 0.0031, 0.0984 -0.385 0.0031, 0.0944 -0.3871 0.0031, 0.0885 -0.3887 0.0031, 0.0793 -0.3901 0.0031, 0.0677 -0.3901 0.0031, 0.0677 -0.3287 0.0031, 0.0789 -0.3287 0.0031, 0.0899 -0.3313 0.0031, 0.098 -0.3346 0.0031, 0.1021 -0.3375 0.0031, 0.1047 -0.3405 0.0031, 0.1068 -0.3447 0.0031, 0.1085 -0.3507 0.0031, 0.0379 -0.3642 0.0031, 0.0379 -0.3642 0.007, 0.0379 -0.3556 0.0031, 0.0379 -0.3556 0.007, 0.0101 -0.3642 0.0031, 0.0101 -0.3642 0.007, 0.0101 -0.3901 0.0031, 0.0101 -0.3901 0.007, 0.0398 -0.3901 0.0031, 0.0398 -0.3901 0.007, 0.0398 -0.3988 0.0031, 0.0398 -0.3988 0.007, -0.0005 -0.3988 0.0031, -0.0005 -0.3988 0.007, -0.0005 -0.32 0.0031, -0.0005 -0.32 0.007, 0.0418 -0.32 0.0031, 0.0418 -0.32 0.007, 0.0418 -0.3287 0.0031, 0.0418 -0.3287 0.007, 0.0101 -0.3287 0.0031, 0.0101 -0.3287 0.007, 0.0101 -0.3556 0.0031, 0.0101 -0.3556 0.007, -0.0159 -0.386 0.0031, -0.0159 -0.386 0.007, -0.0247 -0.3898 0.007, -0.0247 -0.3898 0.0031, -0.0343 -0.3911 0.007, -0.0343 -0.3911 0.0031, -0.0159 -0.3966 0.0031, -0.0159 -0.3966 0.007, -0.0344 -0.3997 0.0031, -0.0344 -0.3997 0.007, -0.0249 -0.3991 0.007, -0.0249 -0.3991 0.0031, -0.0744 -0.3579 0.0031, -0.0744 -0.3579 0.007, -0.0735 -0.3624 0.007, -0.0735 -0.3624 0.0031, -0.068 -0.3804 0.007, -0.068 -0.3804 0.0031, -0.064 -0.3871 0.007, -0.064 -0.3871 0.0031, -0.06 -0.3911 0.007, -0.06 -0.3911 0.0031, -0.0547 -0.3942 0.007, -0.0547 -0.3942 0.0031, -0.0469 -0.397 0.007, -0.0469 -0.397 0.0031, -0.0375 -0.3191 0.0031, -0.0375 -0.3191 0.007, -0.0394 -0.3195 0.0031, -0.0438 -0.3207 0.007, -0.0438 -0.3207 0.0031, -0.0586 -0.3261 0.007, -0.0586 -0.3261 0.0031, -0.0643 -0.33 0.007, -0.0643 -0.33 0.0031, -0.0677 -0.3338 0.007, -0.0677 -0.3338 0.0031, -0.0704 -0.3389 0.007, -0.0704 -0.3389 0.0031, -0.0726 -0.3462 0.007, -0.0726 -0.3462 0.0031, -0.0264 -0.3202 0.0031, -0.0159 -0.3241 0.0031, -0.0264 -0.3202 0.007, -0.0159 -0.3241 0.007, -0.0327 -0.3195 0.0031, -0.0159 -0.3327 0.0031, -0.0159 -0.3327 0.007, -0.0361 -0.3277 0.0031, -0.0361 -0.3277 0.007, -0.0256 -0.3289 0.007, -0.0256 -0.3289 0.0031, -0.0639 -0.3586 0.0031, -0.0639 -0.3586 0.007, -0.062 -0.349 0.007, -0.062 -0.349 0.0031, -0.0592 -0.3407 0.007, -0.0592 -0.3407 0.0031, -0.0566 -0.3365 0.007, -0.0566 -0.3365 0.0031, -0.0541 -0.3341 0.007, -0.0541 -0.3341 0.0031, -0.0504 -0.3318 0.007, -0.0504 -0.3318 0.0031, -0.0449 -0.3298 0.007, -0.0449 -0.3298 0.0031, -0.0382 -0.39 0.007, -0.0382 -0.39 0.0031, -0.0511 -0.385 0.007, -0.0511 -0.385 0.0031, -0.0559 -0.3817 0.007, -0.0559 -0.3817 0.0031, -0.0586 -0.3785 0.007, -0.0586 -0.3785 0.0031, -0.0608 -0.3743 0.007, -0.0608 -0.3743 0.0031, -0.0625 -0.3682 0.007, -0.0625 -0.3682 0.0031
            ]
        }
        coordIndex [
            0,1,2,-1,2,1,3,-1,4,5,0,-1,0,5,1,-1,6,7,4,-1,4,7,5,-1,8,9,6,-1,6,9,7,-1,10,11,8,-1,8,11,9,-1,12,13,10,-1,10,13,11,-1,14,15,12,-1,12,15,13,-1,14,2,15,-1,15,2,3,-1,16,17,13,-1,15,3,1,-1,18,11,19,-1,19,11,13,-1,19,13,20,-1,20,13,17,-1,13,15,16,-1,16,15,1,-1,16,1,21,-1,21,1,5,-1,18,22,11,-1,11,22,21,-1,11,21,9,-1,9,21,5,-1,9,5,7,-1,16,23,17,-1,17,23,24,-1,21,25,16,-1,16,25,23,-1,22,26,21,-1,21,26,25,-1,26,22,18,-1,26,18,27,-1,27,18,19,-1,27,19,28,-1,28,19,20,-1,28,20,29,-1,29,20,17,-1,29,17,24,-1,30,31,32,-1,32,31,33,-1,34,35,30,-1,30,35,31,-1,36,37,38,-1,36,38,39,-1,39,38,40,-1,39,40,41,-1,41,40,42,-1,41,42,43,-1,43,42,44,-1,43,44,45,-1,45,44,46,-1,45,46,47,-1,47,46,48,-1,47,48,49,-1,49,48,35,-1,49,35,34,-1,50,51,52,-1,50,52,53,-1,53,52,54,-1,53,54,55,-1,55,54,56,-1,55,56,57,-1,57,56,58,-1,57,58,59,-1,59,58,60,-1,59,60,61,-1,61,60,62,-1,61,62,63,-1,63,62,37,-1,63,37,36,-1,50,32,51,-1,51,32,33,-1,64,60,65,-1,65,60,58,-1,65,58,66,-1,66,58,56,-1,66,56,67,-1,67,56,54,-1,67,54,68,-1,69,46,70,-1,70,46,44,-1,70,44,71,-1,71,44,42,-1,71,42,72,-1,72,42,40,-1,72,40,73,-1,73,40,74,-1,74,40,38,-1,74,38,75,-1,75,38,37,-1,75,37,64,-1,64,37,62,-1,64,62,60,-1,68,54,76,-1,76,54,52,-1,76,52,77,-1,77,52,51,-1,77,51,78,-1,78,51,33,-1,78,33,79,-1,79,33,31,-1,79,31,80,-1,80,31,35,-1,80,35,69,-1,69,35,48,-1,69,48,46,-1,81,75,64,-1,81,64,82,-1,82,64,65,-1,82,65,83,-1,83,65,66,-1,83,66,84,-1,84,66,67,-1,84,67,85,-1,85,67,68,-1,85,68,86,-1,86,68,76,-1,86,76,87,-1,87,76,77,-1,87,77,88,-1,78,89,77,-1,77,89,88,-1,79,90,78,-1,78,90,89,-1,80,91,79,-1,79,91,90,-1,91,80,69,-1,91,69,92,-1,92,69,70,-1,92,70,93,-1,93,70,71,-1,93,71,94,-1,94,71,72,-1,94,72,95,-1,95,72,73,-1,95,73,96,-1,96,73,74,-1,96,74,97,-1,97,74,75,-1,97,75,81,-1,98,99,100,-1,100,99,101,-1,102,103,98,-1,98,103,99,-1,104,105,102,-1,102,105,103,-1,106,107,104,-1,104,107,105,-1,108,109,106,-1,106,109,107,-1,110,111,108,-1,108,111,109,-1,112,113,110,-1,110,113,111,-1,114,115,112,-1,112,115,113,-1,116,117,114,-1,114,117,115,-1,118,119,116,-1,116,119,117,-1,120,121,118,-1,118,121,119,-1,120,100,121,-1,121,100,101,-1,113,115,117,-1,117,119,113,-1,113,119,121,-1,113,121,111,-1,107,109,105,-1,105,109,111,-1,105,111,103,-1,103,111,121,-1,103,121,99,-1,99,121,101,-1,122,123,124,-1,122,124,125,-1,125,124,126,-1,125,126,127,-1,128,129,122,-1,122,129,123,-1,130,131,132,-1,130,132,133,-1,133,132,129,-1,133,129,128,-1,134,135,136,-1,134,136,137,-1,137,136,138,-1,137,138,139,-1,139,138,140,-1,139,140,141,-1,141,140,142,-1,141,142,143,-1,143,142,144,-1,143,144,145,-1,145,144,146,-1,145,146,147,-1,147,146,131,-1,147,131,130,-1,148,149,150,-1,150,149,151,-1,150,151,152,-1,152,151,153,-1,152,153,154,-1,154,153,155,-1,154,155,156,-1,156,155,157,-1,156,157,158,-1,158,157,159,-1,158,159,160,-1,160,159,161,-1,160,161,162,-1,162,161,135,-1,162,135,134,-1,163,164,165,-1,165,164,166,-1,163,165,167,-1,167,165,149,-1,167,149,148,-1,168,169,164,-1,164,169,166,-1,170,171,172,-1,170,172,173,-1,173,172,169,-1,173,169,168,-1,174,175,176,-1,174,176,177,-1,177,176,178,-1,177,178,179,-1,179,178,180,-1,179,180,181,-1,181,180,182,-1,181,182,183,-1,183,182,184,-1,183,184,185,-1,185,184,186,-1,185,186,187,-1,187,186,171,-1,187,171,170,-1,127,126,188,-1,127,188,189,-1,189,188,190,-1,189,190,191,-1,191,190,192,-1,191,192,193,-1,193,192,194,-1,193,194,195,-1,195,194,196,-1,195,196,197,-1,197,196,198,-1,197,198,199,-1,199,198,175,-1,199,175,174,-1,123,129,124,-1,124,129,132,-1,124,132,126,-1,126,132,131,-1,126,131,188,-1,188,131,146,-1,188,146,190,-1,176,159,178,-1,178,159,157,-1,178,157,180,-1,180,157,155,-1,180,155,182,-1,182,155,153,-1,146,144,190,-1,190,144,142,-1,190,142,192,-1,192,142,140,-1,192,140,194,-1,194,140,138,-1,194,138,196,-1,166,169,165,-1,165,169,172,-1,165,172,149,-1,149,172,171,-1,149,171,151,-1,151,171,186,-1,151,186,153,-1,153,186,184,-1,153,184,182,-1,196,138,198,-1,198,138,136,-1,198,136,175,-1,175,136,135,-1,175,135,176,-1,176,135,161,-1,176,161,159,-1,
        ]
    }
}
Shape{
    appearance Appearance {
        material  Material 	{
            diffuseColor 1.0 1.0 1.0
            specularColor 0.30196078431372547 0.30196078431372547 0.30196078431372547
            ambientIntensity 1.0
            transparency 0.0
            shininess 0.5
        }
    }
    geometry IndexedFaceSet {
        ccw TRUE
        solid FALSE
        coord DEF co Coordinate {
            point [
                -0.1215 -0.32 0.0031, -0.1215 -0.32 0.007, -0.1215 -0.3988 0.0031, -0.1215 -0.3988 0.007, -0.0811 -0.32 0.0031, -0.0811 -0.32 0.007, -0.0811 -0.3287 0.0031, -0.0811 -0.3287 0.007, -0.1109 -0.3287 0.0031, -0.1109 -0.3287 0.007, -0.1109 -0.3988 0.0031, -0.1109 -0.3988 0.007
            ]
        }
        coordIndex [
            0,1,2,-1,2,1,3,-1,4,5,0,-1,0,5,1,-1,6,7,4,-1,4,7,5,-1,8,9,6,-1,6,9,7,-1,10,11,8,-1,8,11,9,-1,10,2,11,-1,11,2,3,-1,11,3,9,-1,9,3,1,-1,9,1,7,-1,7,1,5,-1,
        ]
    }
}
Shape{
    appearance Appearance {
        material  Material 	{
            diffuseColor 0.10980392156862745 0.10980392156862745 0.10980392156862745
            specularColor 0.0784313725490196 0.0784313725490196 0.0784313725490196
            ambientIntensity 0.1098
            transparency 0.0
            shininess 0.5
        }
    }
    geometry IndexedFaceSet {
        ccw TRUE
        solid FALSE
        coord DEF co Coordinate {
            point [
                0.148 -0.3507 0.0031, 0.1743 -0.3507 0.0031, 0.1597 -0.3836 0.0031, 0.1624 -0.3836 0.0031, 0.1605 -0.3864 0.0031, 0.1618 -0.3864 0.0031, 0.161 -0.3892 0.0031, 0.0793 -0.3901 0.0031, 0.0677 -0.3901 0.0031, 0.1085 -0.3507 0.0031, 0.1068 -0.3447 0.0031, 0.0944 -0.3871 0.0031, 0.0885 -0.3887 0.0031, 0.1073 -0.3708 0.0031, 0.1099 -0.3602 0.0031, 0.0677 -0.3287 0.0031, 0.0789 -0.3287 0.0031, 0.0899 -0.3313 0.0031, 0.098 -0.3346 0.0031, 0.1021 -0.3375 0.0031, 0.1047 -0.3405 0.0031, 0.0984 -0.385 0.0031, 0.1041 -0.3786 0.0031, 0.1012 -0.3826 0.0031
            ]
        }
        coordIndex [
            0,1,2,-1,2,1,3,-1,2,3,4,-1,4,3,5,-1,4,5,6,-1,7,8,9,-1,9,8,10,-1,11,12,13,-1,7,9,12,-1,12,9,14,-1,12,14,13,-1,15,16,8,-1,8,16,17,-1,8,17,18,-1,18,19,8,-1,8,19,20,-1,8,20,10,-1,11,13,21,-1,21,13,22,-1,21,22,23,-1,
        ]
    }
}
Shape{
    appearance Appearance {
        material  Material 	{
            diffuseColor 1.0 1.0 1.0
            specularColor 0.30196078431372547 0.30196078431372547 0.30196078431372547
            ambientIntensity 1.0
            transparency 0.0
            shininess 0.5
        }
    }
    geometry IndexedFaceSet {
        ccw TRUE
        solid FALSE
        coord DEF co Coordinate {
            point [
                1.1417 0.4282 0.5855, 1.063 0.4282 0.5855, 1.063 0.4525 0.5901, 1.1417 0.4525 0.5901, 1.063 0.4748 0.6006, 1.1417 0.4748 0.6006, 1.063 0.4938 0.6163, 1.1417 0.4938 0.6163, 1.063 0.5083 0.6363, 1.1417 0.5083 0.6363, 1.063 0.5174 0.6592, 1.1417 0.5174 0.6592, 1.063 0.5205 0.6837, 1.1417 0.5205 0.6837, 1.1417 0.5205 1.606, 1.063 0.5205 1.606, 1.063 0.5174 1.6304, 1.1417 0.5174 1.6304, 1.063 0.5083 1.6534, 1.1417 0.5083 1.6534, 1.063 0.4938 1.6733, 1.1417 0.4938 1.6733, 1.063 0.4748 1.6891, 1.1417 0.4748 1.6891, 1.063 0.4525 1.6996, 1.1417 0.4525 1.6996, 1.063 0.4282 1.7042, 1.1417 0.4282 1.7042, 1.1417 -1.011 1.7944, 1.063 -1.011 1.7944, 1.1417 -1.011 0.4953, 1.063 -1.011 0.4953, -1.1417 0.5205 0.6837, -1.063 0.5205 0.6837, -1.063 0.5174 0.6592, -1.1417 0.5174 0.6592, -1.063 0.5083 0.6363, -1.1417 0.5083 0.6363, -1.063 0.4938 0.6163, -1.1417 0.4938 0.6163, -1.063 0.4748 0.6006, -1.1417 0.4748 0.6006, -1.063 0.4525 0.5901, -1.1417 0.4525 0.5901, -1.063 0.4282 0.5855, -1.1417 0.4282 0.5855, -1.1417 -1.011 0.4953, -1.063 -1.011 0.4953, -1.1417 -1.011 1.7944, -1.063 -1.011 1.7944, -1.1417 0.4282 1.7042, -1.063 0.4282 1.7042, -1.063 0.4525 1.6996, -1.1417 0.4525 1.6996, -1.063 0.4748 1.6891, -1.1417 0.4748 1.6891, -1.063 0.4938 1.6733, -1.1417 0.4938 1.6733, -1.063 0.5083 1.6534, -1.1417 0.5083 1.6534, -1.063 0.5174 1.6304, -1.1417 0.5174 1.6304, -1.063 0.5205 1.606, -1.1417 0.5205 1.606, 0.6693 -1.448 0.6133, 0.6693 -1.448 1.6763, 0.6693 -2.196 0.6133, 0.6693 -2.196 1.6763, -0.6299 -2.196 1.7157, 0.6299 -2.196 1.7157, -0.6299 -1.448 1.7157, 0.6299 -1.448 1.7157, -0.6693 -1.448 1.6763, -0.6693 -1.448 0.6133, -0.6693 -2.196 1.6763, -0.6693 -2.196 0.6133, 0.6299 -2.196 0.574, -0.6299 -2.196 0.574, 0.6299 -1.448 0.574, -0.6299 -1.448 0.574, 0.4921 -2.2354 1.5385, 0.6299 -2.2354 1.6763, -0.4921 -2.2354 1.5385, -0.6299 -2.2354 1.6763, -0.4921 -2.2354 0.7511, -0.6299 -2.2354 0.6133, 0.4921 -2.2354 0.7511, 0.6299 -2.2354 0.6133, -0.668 -1.448 1.6865, -0.6401 -1.448 1.7144, -0.664 -1.448 1.696, -0.6578 -1.448 1.7042, -0.6496 -1.448 1.7104, 0.6578 -1.448 0.5855, 0.6496 -1.448 0.5792, 0.6401 -1.448 0.5753, -0.664 -1.448 0.5937, -0.6578 -1.448 0.5855, -0.6401 -1.448 0.5753, -0.6496 -1.448 0.5792, 0.664 -1.448 1.696, 0.6401 -1.448 1.7144, 0.6578 -1.448 1.7042, 0.6496 -1.448 1.7104, 0.668 -1.448 1.6865, 0.664 -1.448 0.5937, -0.668 -1.448 0.6031, 0.668 -1.448 0.6031, -0.4921 -3.2984 1.5385, -0.4921 -3.2984 0.7511, 0.4921 -3.2984 0.7511, 0.4921 -3.2984 1.5385, -0.4528 -3.3378 1.4992, -0.4528 -3.3378 0.7905, 0.4528 -3.3378 1.4992, 0.4528 -3.3378 0.7905, -0.4629 -3.3364 0.7803, 0.4629 -3.3364 0.7803, -0.4724 -3.3325 0.7708, 0.4724 -3.3325 0.7708, -0.4806 -3.3262 0.7627, 0.4806 -3.3262 0.7627, 0.484 -3.3224 0.7593, -0.484 -3.3224 0.7593, 0.4869 -3.3181 0.7564, -0.4869 -3.3181 0.7564, -0.4891 -3.3135 0.7541, 0.4891 -3.3135 0.7541, -0.4908 -3.3086 0.7525, 0.4908 -3.3086 0.7525, -0.4918 -3.3035 0.7515, 0.4918 -3.3035 0.7515, 0.4615 -3.3366 1.5079, 0.4629 -3.3364 1.5094, 0.4697 -3.3336 1.5161, 0.4724 -3.3325 1.5188, 0.4771 -3.3289 1.5235, 0.4806 -3.3262 1.527, 0.4835 -3.323 1.5299, 0.4867 -3.318 1.5331, 0.4882 -3.3155 1.5346, 0.4908 -3.3086 1.5372, 0.4919 -3.3028 1.5383, 0.4911 -3.3072 1.5375, -0.4908 -3.3086 1.5372, -0.4911 -3.3072 1.5375, -0.4919 -3.3028 1.5383, -0.4882 -3.3155 1.5346, -0.4867 -3.318 1.5331, -0.4723 -3.3323 1.5187, -0.4773 -3.3292 1.5237, -0.4804 -3.3261 1.5268, -0.4835 -3.323 1.5299, -0.4615 -3.3368 1.5079, -0.4629 -3.3363 1.5093, -0.4698 -3.3339 1.5162, 0.6401 -2.196 0.5753, 0.6496 -2.196 0.5792, 0.6578 -2.196 0.5855, 0.664 -2.196 0.5937, 0.668 -2.196 0.6031, -0.6299 -2.2341 0.6031, 0.6299 -2.2341 0.6031, -0.6299 -2.2301 0.5937, 0.6299 -2.2301 0.5937, -0.6299 -2.2239 0.5855, 0.6299 -2.2239 0.5855, -0.6299 -2.2157 0.5792, 0.6299 -2.2157 0.5792, -0.6299 -2.2062 0.5753, 0.6299 -2.2062 0.5753, -0.668 -2.196 0.6031, -0.664 -2.196 0.5937, -0.6578 -2.196 0.5855, -0.6496 -2.196 0.5792, -0.6401 -2.196 0.5753, 0.668 -2.2062 0.6133, 0.6667 -2.2062 0.6035, 0.647 -2.2301 0.6035, 0.6387 -2.2341 0.6082, 0.6371 -2.2341 0.6061, 0.6326 -2.2341 0.6035, 0.6398 -2.2341 0.6107, 0.6489 -2.2301 0.6082, 0.6568 -2.2239 0.6061, 0.6401 -2.2341 0.6133, 0.6438 -2.2301 0.5994, 0.635 -2.2341 0.6045, 0.6398 -2.2301 0.5963, 0.635 -2.2301 0.5943, 0.6496 -2.2301 0.6133, 0.6578 -2.2239 0.6133, 0.664 -2.2157 0.6133, 0.654 -2.2239 0.5994, 0.6496 -2.2239 0.5937, 0.6438 -2.2239 0.5892, 0.6371 -2.2239 0.5864, 0.6629 -2.2157 0.6045, 0.6594 -2.2157 0.5963, 0.654 -2.2157 0.5892, 0.647 -2.2157 0.5838, 0.6387 -2.2157 0.5804, 0.6629 -2.2062 0.5943, 0.6568 -2.2062 0.5864, 0.6489 -2.2062 0.5804, 0.6398 -2.2062 0.5766, -0.6398 -2.2062 0.5766, -0.6398 -2.2301 0.5963, -0.635 -2.2341 0.6045, -0.6371 -2.2341 0.6061, -0.6401 -2.2341 0.6133, -0.6398 -2.2341 0.6107, -0.6326 -2.2341 0.6035, -0.635 -2.2301 0.5943, -0.6371 -2.2239 0.5864, -0.6438 -2.2301 0.5994, -0.6387 -2.2341 0.6082, -0.647 -2.2301 0.6035, -0.6489 -2.2301 0.6082, -0.6496 -2.2301 0.6133, -0.6438 -2.2239 0.5892, -0.6496 -2.2239 0.5937, -0.654 -2.2239 0.5994, -0.6568 -2.2239 0.6061, -0.6578 -2.2239 0.6133, -0.6387 -2.2157 0.5804, -0.647 -2.2157 0.5838, -0.654 -2.2157 0.5892, -0.6594 -2.2157 0.5963, -0.6629 -2.2157 0.6045, -0.664 -2.2157 0.6133, -0.6489 -2.2062 0.5804, -0.6568 -2.2062 0.5864, -0.6629 -2.2062 0.5943, -0.6667 -2.2062 0.6035, -0.668 -2.2062 0.6133, 0.668 -2.196 1.6865, 0.664 -2.196 1.696, 0.6578 -2.196 1.7042, 0.6496 -2.196 1.7104, 0.6401 -2.196 1.7144, 0.6401 -2.2341 1.6763, 0.6496 -2.2301 1.6763, 0.6578 -2.2239 1.6763, 0.664 -2.2157 1.6763, 0.668 -2.2062 1.6763, -0.6401 -2.2341 1.6763, -0.6496 -2.2301 1.6763, -0.6578 -2.2239 1.6763, -0.664 -2.2157 1.6763, -0.668 -2.2062 1.6763, -0.6401 -2.196 1.7144, -0.6496 -2.196 1.7104, -0.6578 -2.196 1.7042, -0.664 -2.196 1.696, -0.668 -2.196 1.6865, 0.6299 -2.2062 1.7144, 0.6398 -2.2062 1.7131, 0.6398 -2.2301 1.6934, 0.635 -2.2341 1.6852, 0.6371 -2.2341 1.6835, 0.6398 -2.2341 1.679, 0.6326 -2.2341 1.6862, 0.635 -2.2301 1.6953, 0.6371 -2.2239 1.7032, 0.6299 -2.2341 1.6865, 0.6438 -2.2301 1.6902, 0.6387 -2.2341 1.6814, 0.647 -2.2301 1.6862, 0.6489 -2.2301 1.6814, 0.6299 -2.2301 1.696, 0.6299 -2.2239 1.7042, 0.6299 -2.2157 1.7104, 0.6438 -2.2239 1.7004, 0.6496 -2.2239 1.696, 0.654 -2.2239 1.6902, 0.6568 -2.2239 1.6835, 0.6387 -2.2157 1.7093, 0.647 -2.2157 1.7059, 0.654 -2.2157 1.7004, 0.6594 -2.2157 1.6934, 0.6629 -2.2157 1.6852, 0.6489 -2.2062 1.7093, 0.6568 -2.2062 1.7032, 0.6629 -2.2062 1.6953, 0.6667 -2.2062 1.6862, -0.6667 -2.2062 1.6862, -0.647 -2.2301 1.6862, -0.6387 -2.2341 1.6814, -0.6371 -2.2341 1.6835, -0.6299 -2.2341 1.6865, -0.6326 -2.2341 1.6862, -0.6398 -2.2341 1.679, -0.6489 -2.2301 1.6814, -0.6568 -2.2239 1.6835, -0.6438 -2.2301 1.6902, -0.635 -2.2341 1.6852, -0.6398 -2.2301 1.6934, -0.635 -2.2301 1.6953, -0.6299 -2.2301 1.696, -0.654 -2.2239 1.6902, -0.6496 -2.2239 1.696, -0.6438 -2.2239 1.7004, -0.6371 -2.2239 1.7032, -0.6299 -2.2239 1.7042, -0.6629 -2.2157 1.6852, -0.6594 -2.2157 1.6934, -0.654 -2.2157 1.7004, -0.647 -2.2157 1.7059, -0.6387 -2.2157 1.7093, -0.6299 -2.2157 1.7104, -0.6629 -2.2062 1.6953, -0.6568 -2.2062 1.7032, -0.6489 -2.2062 1.7093, -0.6398 -2.2062 1.7131, -0.6299 -2.2062 1.7144
            ]
        }
        coordIndex [
            0,1,2,-1,0,2,3,-1,3,2,4,-1,3,4,5,-1,5,4,6,-1,5,6,7,-1,7,6,8,-1,7,8,9,-1,9,8,10,-1,9,10,11,-1,11,10,12,-1,11,12,13,-1,14,13,15,-1,15,13,12,-1,14,15,16,-1,14,16,17,-1,17,16,18,-1,17,18,19,-1,19,18,20,-1,19,20,21,-1,21,20,22,-1,21,22,23,-1,23,22,24,-1,23,24,25,-1,25,24,26,-1,25,26,27,-1,28,27,29,-1,29,27,26,-1,30,28,31,-1,31,28,29,-1,0,30,1,-1,1,30,31,-1,28,30,27,-1,27,30,0,-1,9,11,0,-1,0,11,13,-1,0,13,27,-1,27,13,14,-1,27,14,25,-1,25,14,17,-1,17,19,25,-1,25,19,21,-1,25,21,23,-1,9,0,7,-1,7,0,3,-1,7,3,5,-1,31,29,1,-1,1,29,26,-1,18,24,20,-1,20,24,22,-1,18,16,24,-1,24,16,15,-1,24,15,26,-1,26,15,1,-1,1,15,12,-1,1,12,10,-1,10,8,1,-1,1,8,6,-1,1,6,2,-1,2,6,4,-1,32,33,34,-1,32,34,35,-1,35,34,36,-1,35,36,37,-1,37,36,38,-1,37,38,39,-1,39,38,40,-1,39,40,41,-1,41,40,42,-1,41,42,43,-1,43,42,44,-1,43,44,45,-1,46,45,47,-1,47,45,44,-1,48,46,49,-1,49,46,47,-1,50,48,51,-1,51,48,49,-1,50,51,52,-1,50,52,53,-1,53,52,54,-1,53,54,55,-1,55,54,56,-1,55,56,57,-1,57,56,58,-1,57,58,59,-1,59,58,60,-1,59,60,61,-1,61,60,62,-1,61,62,63,-1,32,63,33,-1,33,63,62,-1,46,48,45,-1,45,48,50,-1,50,53,63,-1,63,53,55,-1,55,57,63,-1,63,57,59,-1,63,59,61,-1,50,63,45,-1,45,63,32,-1,45,32,35,-1,35,37,45,-1,45,37,39,-1,45,39,43,-1,43,39,41,-1,49,47,51,-1,51,47,44,-1,60,58,51,-1,51,58,56,-1,51,56,52,-1,52,56,54,-1,36,34,44,-1,44,34,33,-1,44,33,51,-1,51,33,62,-1,51,62,60,-1,36,44,38,-1,38,44,42,-1,38,42,40,-1,64,65,66,-1,66,65,67,-1,68,69,70,-1,70,69,71,-1,72,73,74,-1,74,73,75,-1,76,77,78,-1,78,77,79,-1,80,81,82,-1,82,81,83,-1,82,83,84,-1,84,83,85,-1,84,85,86,-1,86,85,87,-1,86,87,80,-1,80,87,81,-1,72,65,73,-1,73,65,64,-1,88,89,72,-1,72,89,70,-1,72,70,65,-1,88,90,89,-1,89,90,91,-1,89,91,92,-1,93,94,95,-1,96,79,97,-1,97,79,98,-1,97,98,99,-1,100,101,102,-1,102,101,103,-1,70,71,65,-1,65,71,101,-1,65,101,104,-1,104,101,100,-1,93,95,105,-1,96,106,79,-1,79,106,73,-1,79,73,78,-1,78,73,64,-1,78,64,95,-1,95,64,107,-1,95,107,105,-1,108,82,109,-1,109,82,84,-1,109,84,110,-1,110,84,86,-1,110,86,111,-1,111,86,80,-1,111,80,108,-1,108,80,82,-1,112,113,114,-1,114,113,115,-1,115,113,116,-1,115,116,117,-1,117,116,118,-1,117,118,119,-1,119,118,120,-1,119,120,121,-1,121,120,122,-1,122,120,123,-1,122,123,124,-1,123,125,124,-1,124,125,126,-1,124,126,127,-1,127,126,128,-1,127,128,129,-1,129,128,130,-1,129,130,131,-1,131,130,109,-1,131,109,110,-1,132,114,115,-1,132,115,133,-1,133,115,117,-1,133,117,134,-1,134,117,135,-1,135,117,119,-1,135,119,136,-1,136,119,121,-1,136,121,137,-1,137,121,138,-1,138,121,122,-1,138,122,139,-1,139,122,124,-1,139,124,140,-1,140,124,127,-1,140,127,141,-1,111,142,110,-1,110,142,143,-1,110,143,131,-1,131,143,141,-1,131,141,129,-1,129,141,127,-1,144,145,130,-1,130,145,109,-1,109,145,146,-1,109,146,108,-1,130,128,144,-1,144,128,126,-1,144,126,147,-1,147,126,125,-1,147,125,148,-1,148,125,123,-1,120,118,149,-1,149,150,120,-1,120,150,151,-1,120,151,123,-1,123,151,152,-1,123,152,148,-1,116,113,112,-1,112,153,116,-1,116,153,154,-1,116,154,118,-1,118,154,155,-1,118,155,149,-1,114,132,112,-1,112,132,153,-1,134,155,154,-1,153,132,154,-1,154,132,133,-1,154,133,134,-1,155,134,149,-1,149,134,135,-1,149,135,136,-1,152,151,136,-1,136,151,150,-1,136,150,149,-1,136,137,152,-1,152,137,138,-1,152,138,148,-1,148,138,147,-1,138,139,147,-1,147,139,140,-1,147,140,144,-1,144,140,141,-1,144,141,145,-1,145,141,143,-1,145,143,146,-1,146,143,142,-1,146,142,108,-1,108,142,111,-1,76,78,95,-1,76,95,156,-1,156,95,94,-1,156,94,157,-1,157,94,93,-1,157,93,158,-1,158,93,105,-1,158,105,159,-1,159,105,107,-1,159,107,160,-1,160,107,64,-1,160,64,66,-1,87,85,161,-1,87,161,162,-1,162,161,163,-1,162,163,164,-1,164,163,165,-1,164,165,166,-1,166,165,167,-1,166,167,168,-1,168,167,169,-1,168,169,170,-1,170,169,77,-1,170,77,76,-1,75,73,106,-1,75,106,171,-1,171,106,96,-1,171,96,172,-1,172,96,97,-1,172,97,173,-1,173,97,99,-1,173,99,174,-1,174,99,98,-1,174,98,175,-1,175,98,79,-1,175,79,77,-1,66,176,177,-1,178,179,180,-1,87,162,181,-1,180,179,87,-1,182,87,179,-1,182,179,183,-1,183,179,178,-1,183,178,184,-1,185,87,182,-1,186,187,188,-1,188,187,181,-1,188,181,189,-1,189,181,162,-1,189,162,164,-1,185,182,190,-1,190,182,183,-1,190,183,191,-1,191,183,184,-1,191,184,192,-1,193,186,194,-1,194,186,188,-1,194,188,195,-1,195,188,189,-1,195,189,196,-1,196,189,164,-1,196,164,166,-1,197,193,198,-1,198,193,194,-1,198,194,199,-1,199,194,195,-1,199,195,200,-1,200,195,196,-1,200,196,201,-1,201,196,166,-1,201,166,168,-1,176,197,177,-1,177,197,198,-1,177,198,202,-1,202,198,199,-1,202,199,203,-1,203,199,200,-1,203,200,204,-1,204,200,201,-1,204,201,205,-1,205,201,168,-1,205,168,170,-1,66,177,160,-1,160,177,202,-1,160,202,159,-1,159,202,203,-1,159,203,158,-1,158,203,204,-1,158,204,157,-1,157,204,205,-1,157,205,156,-1,156,205,170,-1,156,170,76,-1,187,87,181,-1,176,192,197,-1,197,192,184,-1,197,184,193,-1,193,184,178,-1,193,178,186,-1,186,178,180,-1,186,180,187,-1,187,180,87,-1,77,169,206,-1,207,208,209,-1,85,210,211,-1,209,208,85,-1,212,85,208,-1,212,208,213,-1,213,208,207,-1,213,207,214,-1,161,85,212,-1,215,216,217,-1,217,216,211,-1,217,211,218,-1,218,211,210,-1,218,210,219,-1,161,212,163,-1,163,212,213,-1,163,213,165,-1,165,213,214,-1,165,214,167,-1,220,215,221,-1,221,215,217,-1,221,217,222,-1,222,217,218,-1,222,218,223,-1,223,218,219,-1,223,219,224,-1,225,220,226,-1,226,220,221,-1,226,221,227,-1,227,221,222,-1,227,222,228,-1,228,222,223,-1,228,223,229,-1,229,223,224,-1,229,224,230,-1,169,225,206,-1,206,225,226,-1,206,226,231,-1,231,226,227,-1,231,227,232,-1,232,227,228,-1,232,228,233,-1,233,228,229,-1,233,229,234,-1,234,229,230,-1,234,230,235,-1,77,206,175,-1,175,206,231,-1,175,231,174,-1,174,231,232,-1,174,232,173,-1,173,232,233,-1,173,233,172,-1,172,233,234,-1,172,234,171,-1,171,234,235,-1,171,235,75,-1,216,85,211,-1,169,167,225,-1,225,167,214,-1,225,214,220,-1,220,214,207,-1,220,207,215,-1,215,207,209,-1,215,209,216,-1,216,209,85,-1,67,65,104,-1,67,104,236,-1,236,104,100,-1,236,100,237,-1,237,100,102,-1,237,102,238,-1,238,102,103,-1,238,103,239,-1,239,103,101,-1,239,101,240,-1,240,101,71,-1,240,71,69,-1,81,87,185,-1,81,185,241,-1,241,185,190,-1,241,190,242,-1,242,190,191,-1,242,191,243,-1,243,191,192,-1,243,192,244,-1,244,192,176,-1,244,176,245,-1,245,176,66,-1,245,66,67,-1,85,83,246,-1,85,246,210,-1,210,246,247,-1,210,247,219,-1,219,247,248,-1,219,248,224,-1,224,248,249,-1,224,249,230,-1,230,249,250,-1,230,250,235,-1,235,250,74,-1,235,74,75,-1,68,70,89,-1,68,89,251,-1,251,89,92,-1,251,92,252,-1,252,92,91,-1,252,91,253,-1,253,91,90,-1,253,90,254,-1,254,90,88,-1,254,88,255,-1,255,88,72,-1,255,72,74,-1,69,256,257,-1,258,259,260,-1,81,241,261,-1,260,259,81,-1,262,81,259,-1,262,259,263,-1,263,259,258,-1,263,258,264,-1,265,81,262,-1,266,267,268,-1,268,267,261,-1,268,261,269,-1,269,261,241,-1,269,241,242,-1,265,262,270,-1,270,262,263,-1,270,263,271,-1,271,263,264,-1,271,264,272,-1,273,266,274,-1,274,266,268,-1,274,268,275,-1,275,268,269,-1,275,269,276,-1,276,269,242,-1,276,242,243,-1,277,273,278,-1,278,273,274,-1,278,274,279,-1,279,274,275,-1,279,275,280,-1,280,275,276,-1,280,276,281,-1,281,276,243,-1,281,243,244,-1,256,277,257,-1,257,277,278,-1,257,278,282,-1,282,278,279,-1,282,279,283,-1,283,279,280,-1,283,280,284,-1,284,280,281,-1,284,281,285,-1,285,281,244,-1,285,244,245,-1,69,257,240,-1,240,257,282,-1,240,282,239,-1,239,282,283,-1,239,283,238,-1,238,283,284,-1,238,284,237,-1,237,284,285,-1,237,285,236,-1,236,285,245,-1,236,245,67,-1,267,81,261,-1,256,272,277,-1,277,272,264,-1,277,264,273,-1,273,264,258,-1,273,258,266,-1,266,258,260,-1,266,260,267,-1,267,260,81,-1,74,250,286,-1,287,288,289,-1,83,290,291,-1,289,288,83,-1,292,83,288,-1,292,288,293,-1,293,288,287,-1,293,287,294,-1,246,83,292,-1,295,296,297,-1,297,296,291,-1,297,291,298,-1,298,291,290,-1,298,290,299,-1,246,292,247,-1,247,292,293,-1,247,293,248,-1,248,293,294,-1,248,294,249,-1,300,295,301,-1,301,295,297,-1,301,297,302,-1,302,297,298,-1,302,298,303,-1,303,298,299,-1,303,299,304,-1,305,300,306,-1,306,300,301,-1,306,301,307,-1,307,301,302,-1,307,302,308,-1,308,302,303,-1,308,303,309,-1,309,303,304,-1,309,304,310,-1,250,305,286,-1,286,305,306,-1,286,306,311,-1,311,306,307,-1,311,307,312,-1,312,307,308,-1,312,308,313,-1,313,308,309,-1,313,309,314,-1,314,309,310,-1,314,310,315,-1,74,286,255,-1,255,286,311,-1,255,311,254,-1,254,311,312,-1,254,312,253,-1,253,312,313,-1,253,313,252,-1,252,313,314,-1,252,314,251,-1,251,314,315,-1,251,315,68,-1,296,83,291,-1,250,249,305,-1,305,249,294,-1,305,294,300,-1,300,294,287,-1,300,287,295,-1,295,287,289,-1,295,289,296,-1,296,289,83,-1,83,81,265,-1,83,265,290,-1,290,265,270,-1,290,270,299,-1,299,270,271,-1,299,271,304,-1,304,271,272,-1,304,272,310,-1,310,272,256,-1,310,256,315,-1,315,256,69,-1,315,69,68,-1,
        ]
    }
}