%TF.GenerationSoftware,KiCad,Pcbnew,9.0.8-4-g1ee99dff*%
%TF.CreationDate,2026-10-03T17:29:06-06:00*%
%TF.ProjectId,chocPcb-7up,63686f63-5063-4622-9d37-75702e6b6963,rev?*%
%TF.SameCoordinates,Original*%
%TF.FileFunction,Legend,Top*%
%TF.FilePolarity,Positive*%
%FSLAX46Y46*%
G04 Gerber Fmt 4.6, Leading zero omitted, Abs format (unit mm)*
G04 Created by KiCad (PCBNEW 9.0.8-4-g1ee99dff) date 2026-10-03 17:29:06*
%MOMM*%
%LPD*%
G01*
G04 APERTURE LIST*
G04 Aperture macros list*
%AMRoundRect*
0 Rectangle with rounded corners*
0 $1 Rounding radius*
0 $2 $3 $4 $5 $6 $7 $8 $9 X,Y pos of 4 corners*
0 Add a 4 corners polygon primitive as box body*
4,1,4,$2,$3,$4,$5,$6,$7,$8,$9,$2,$3,0*
0 Add four circle primitives for the rounded corners*
1,1,$1+$1,$2,$3*
1,1,$1+$1,$4,$5*
1,1,$1+$1,$6,$7*
1,1,$1+$1,$8,$9*
0 Add four rect primitives between the rounded corners*
20,1,$1+$1,$2,$3,$4,$5,0*
20,1,$1+$1,$4,$5,$6,$7,0*
20,1,$1+$1,$6,$7,$8,$9,0*
20,1,$1+$1,$8,$9,$2,$3,0*%
G04 Aperture macros list end*
%ADD10C,0.100000*%
%ADD11C,0.300000*%
%ADD12C,0.150000*%
%ADD13C,0.250000*%
%ADD14C,0.060000*%
%ADD15C,0.000000*%
%ADD16C,0.203200*%
%ADD17C,0.120000*%
%ADD18C,1.900000*%
%ADD19C,3.400000*%
%ADD20C,3.000000*%
%ADD21RoundRect,0.050800X1.275000X1.250000X-1.275000X1.250000X-1.275000X-1.250000X1.275000X-1.250000X0*%
%ADD22R,0.250000X1.500000*%
%ADD23R,2.000000X1.700000*%
%ADD24RoundRect,0.050800X-0.675000X-0.400000X0.675000X-0.400000X0.675000X0.400000X-0.675000X0.400000X0*%
%ADD25C,2.000000*%
%ADD26R,2.000000X2.000000*%
G04 APERTURE END LIST*
D10*
X21100000Y78400000D02*
X20500000Y77800000D01*
X21100000Y56900000D02*
X20500000Y56300000D01*
X21100000Y35400000D02*
X20500000Y34800000D01*
X21100000Y13900000D02*
X20500000Y13300000D01*
D11*
X27450000Y71800000D02*
G75*
G02*
X27150000Y71800000I-150000J0D01*
G01*
X27150000Y71800000D02*
G75*
G02*
X27450000Y71800000I150000J0D01*
G01*
X27450000Y50300000D02*
G75*
G02*
X27150000Y50300000I-150000J0D01*
G01*
X27150000Y50300000D02*
G75*
G02*
X27450000Y50300000I150000J0D01*
G01*
X27450000Y28800000D02*
G75*
G02*
X27150000Y28800000I-150000J0D01*
G01*
X27150000Y28800000D02*
G75*
G02*
X27450000Y28800000I150000J0D01*
G01*
X27450000Y7300000D02*
G75*
G02*
X27150000Y7300000I-150000J0D01*
G01*
X27150000Y7300000D02*
G75*
G02*
X27450000Y7300000I150000J0D01*
G01*
D10*
X42400000Y78400000D02*
X41800000Y77800000D01*
X42400000Y56900000D02*
X41800000Y56300000D01*
X42400000Y35400000D02*
X41800000Y34800000D01*
D11*
X48750000Y71800000D02*
G75*
G02*
X48450000Y71800000I-150000J0D01*
G01*
X48450000Y71800000D02*
G75*
G02*
X48750000Y71800000I150000J0D01*
G01*
X48750000Y50300000D02*
G75*
G02*
X48450000Y50300000I-150000J0D01*
G01*
X48450000Y50300000D02*
G75*
G02*
X48750000Y50300000I150000J0D01*
G01*
X48750000Y28800000D02*
G75*
G02*
X48450000Y28800000I-150000J0D01*
G01*
X48450000Y28800000D02*
G75*
G02*
X48750000Y28800000I150000J0D01*
G01*
D12*
X22416666Y72045181D02*
X22416666Y71330896D01*
X22416666Y71330896D02*
X22369047Y71188039D01*
X22369047Y71188039D02*
X22273809Y71092800D01*
X22273809Y71092800D02*
X22130952Y71045181D01*
X22130952Y71045181D02*
X22035714Y71045181D01*
X23416666Y71045181D02*
X22845238Y71045181D01*
X23130952Y71045181D02*
X23130952Y72045181D01*
X23130952Y72045181D02*
X23035714Y71902324D01*
X23035714Y71902324D02*
X22940476Y71807086D01*
X22940476Y71807086D02*
X22845238Y71759467D01*
X22416666Y50545181D02*
X22416666Y49830896D01*
X22416666Y49830896D02*
X22369047Y49688039D01*
X22369047Y49688039D02*
X22273809Y49592800D01*
X22273809Y49592800D02*
X22130952Y49545181D01*
X22130952Y49545181D02*
X22035714Y49545181D01*
X23416666Y49545181D02*
X22845238Y49545181D01*
X23130952Y49545181D02*
X23130952Y50545181D01*
X23130952Y50545181D02*
X23035714Y50402324D01*
X23035714Y50402324D02*
X22940476Y50307086D01*
X22940476Y50307086D02*
X22845238Y50259467D01*
X22416666Y29045181D02*
X22416666Y28330896D01*
X22416666Y28330896D02*
X22369047Y28188039D01*
X22369047Y28188039D02*
X22273809Y28092800D01*
X22273809Y28092800D02*
X22130952Y28045181D01*
X22130952Y28045181D02*
X22035714Y28045181D01*
X23416666Y28045181D02*
X22845238Y28045181D01*
X23130952Y28045181D02*
X23130952Y29045181D01*
X23130952Y29045181D02*
X23035714Y28902324D01*
X23035714Y28902324D02*
X22940476Y28807086D01*
X22940476Y28807086D02*
X22845238Y28759467D01*
X22416666Y7545181D02*
X22416666Y6830896D01*
X22416666Y6830896D02*
X22369047Y6688039D01*
X22369047Y6688039D02*
X22273809Y6592800D01*
X22273809Y6592800D02*
X22130952Y6545181D01*
X22130952Y6545181D02*
X22035714Y6545181D01*
X23416666Y6545181D02*
X22845238Y6545181D01*
X23130952Y6545181D02*
X23130952Y7545181D01*
X23130952Y7545181D02*
X23035714Y7402324D01*
X23035714Y7402324D02*
X22940476Y7307086D01*
X22940476Y7307086D02*
X22845238Y7259467D01*
X14976187Y91942800D02*
X14880949Y91895181D01*
X14880949Y91895181D02*
X14690473Y91895181D01*
X14690473Y91895181D02*
X14595235Y91942800D01*
X14595235Y91942800D02*
X14547616Y91990420D01*
X14547616Y91990420D02*
X14499997Y92085658D01*
X14499997Y92085658D02*
X14499997Y92371372D01*
X14499997Y92371372D02*
X14547616Y92466610D01*
X14547616Y92466610D02*
X14595235Y92514229D01*
X14595235Y92514229D02*
X14690473Y92561848D01*
X14690473Y92561848D02*
X14880949Y92561848D01*
X14880949Y92561848D02*
X14976187Y92514229D01*
X15404759Y91895181D02*
X15404759Y92895181D01*
X15833330Y91895181D02*
X15833330Y92418991D01*
X15833330Y92418991D02*
X15785711Y92514229D01*
X15785711Y92514229D02*
X15690473Y92561848D01*
X15690473Y92561848D02*
X15547616Y92561848D01*
X15547616Y92561848D02*
X15452378Y92514229D01*
X15452378Y92514229D02*
X15404759Y92466610D01*
X16452378Y91895181D02*
X16357140Y91942800D01*
X16357140Y91942800D02*
X16309521Y91990420D01*
X16309521Y91990420D02*
X16261902Y92085658D01*
X16261902Y92085658D02*
X16261902Y92371372D01*
X16261902Y92371372D02*
X16309521Y92466610D01*
X16309521Y92466610D02*
X16357140Y92514229D01*
X16357140Y92514229D02*
X16452378Y92561848D01*
X16452378Y92561848D02*
X16595235Y92561848D01*
X16595235Y92561848D02*
X16690473Y92514229D01*
X16690473Y92514229D02*
X16738092Y92466610D01*
X16738092Y92466610D02*
X16785711Y92371372D01*
X16785711Y92371372D02*
X16785711Y92085658D01*
X16785711Y92085658D02*
X16738092Y91990420D01*
X16738092Y91990420D02*
X16690473Y91942800D01*
X16690473Y91942800D02*
X16595235Y91895181D01*
X16595235Y91895181D02*
X16452378Y91895181D01*
X17642854Y91942800D02*
X17547616Y91895181D01*
X17547616Y91895181D02*
X17357140Y91895181D01*
X17357140Y91895181D02*
X17261902Y91942800D01*
X17261902Y91942800D02*
X17214283Y91990420D01*
X17214283Y91990420D02*
X17166664Y92085658D01*
X17166664Y92085658D02*
X17166664Y92371372D01*
X17166664Y92371372D02*
X17214283Y92466610D01*
X17214283Y92466610D02*
X17261902Y92514229D01*
X17261902Y92514229D02*
X17357140Y92561848D01*
X17357140Y92561848D02*
X17547616Y92561848D01*
X17547616Y92561848D02*
X17642854Y92514229D01*
X18071426Y91895181D02*
X18071426Y92895181D01*
X18071426Y92895181D02*
X18452378Y92895181D01*
X18452378Y92895181D02*
X18547616Y92847562D01*
X18547616Y92847562D02*
X18595235Y92799943D01*
X18595235Y92799943D02*
X18642854Y92704705D01*
X18642854Y92704705D02*
X18642854Y92561848D01*
X18642854Y92561848D02*
X18595235Y92466610D01*
X18595235Y92466610D02*
X18547616Y92418991D01*
X18547616Y92418991D02*
X18452378Y92371372D01*
X18452378Y92371372D02*
X18071426Y92371372D01*
X19499997Y91942800D02*
X19404759Y91895181D01*
X19404759Y91895181D02*
X19214283Y91895181D01*
X19214283Y91895181D02*
X19119045Y91942800D01*
X19119045Y91942800D02*
X19071426Y91990420D01*
X19071426Y91990420D02*
X19023807Y92085658D01*
X19023807Y92085658D02*
X19023807Y92371372D01*
X19023807Y92371372D02*
X19071426Y92466610D01*
X19071426Y92466610D02*
X19119045Y92514229D01*
X19119045Y92514229D02*
X19214283Y92561848D01*
X19214283Y92561848D02*
X19404759Y92561848D01*
X19404759Y92561848D02*
X19499997Y92514229D01*
X19928569Y91895181D02*
X19928569Y92895181D01*
X19928569Y92514229D02*
X20023807Y92561848D01*
X20023807Y92561848D02*
X20214283Y92561848D01*
X20214283Y92561848D02*
X20309521Y92514229D01*
X20309521Y92514229D02*
X20357140Y92466610D01*
X20357140Y92466610D02*
X20404759Y92371372D01*
X20404759Y92371372D02*
X20404759Y92085658D01*
X20404759Y92085658D02*
X20357140Y91990420D01*
X20357140Y91990420D02*
X20309521Y91942800D01*
X20309521Y91942800D02*
X20214283Y91895181D01*
X20214283Y91895181D02*
X20023807Y91895181D01*
X20023807Y91895181D02*
X19928569Y91942800D01*
X21499998Y92895181D02*
X22166664Y92895181D01*
X22166664Y92895181D02*
X21738093Y91895181D01*
X22547617Y92276134D02*
X23309522Y92276134D01*
X24214283Y92561848D02*
X24214283Y91895181D01*
X23785712Y92561848D02*
X23785712Y92038039D01*
X23785712Y92038039D02*
X23833331Y91942800D01*
X23833331Y91942800D02*
X23928569Y91895181D01*
X23928569Y91895181D02*
X24071426Y91895181D01*
X24071426Y91895181D02*
X24166664Y91942800D01*
X24166664Y91942800D02*
X24214283Y91990420D01*
X24690474Y92561848D02*
X24690474Y91561848D01*
X24690474Y92514229D02*
X24785712Y92561848D01*
X24785712Y92561848D02*
X24976188Y92561848D01*
X24976188Y92561848D02*
X25071426Y92514229D01*
X25071426Y92514229D02*
X25119045Y92466610D01*
X25119045Y92466610D02*
X25166664Y92371372D01*
X25166664Y92371372D02*
X25166664Y92085658D01*
X25166664Y92085658D02*
X25119045Y91990420D01*
X25119045Y91990420D02*
X25071426Y91942800D01*
X25071426Y91942800D02*
X24976188Y91895181D01*
X24976188Y91895181D02*
X24785712Y91895181D01*
X24785712Y91895181D02*
X24690474Y91942800D01*
X27071426Y92942800D02*
X26214284Y91657086D01*
X28023808Y92895181D02*
X28595236Y92895181D01*
X28309522Y91895181D02*
X28309522Y92895181D01*
X28833332Y92895181D02*
X29071427Y91895181D01*
X29071427Y91895181D02*
X29261903Y92609467D01*
X29261903Y92609467D02*
X29452379Y91895181D01*
X29452379Y91895181D02*
X29690475Y92895181D01*
X30261903Y92895181D02*
X30452379Y92895181D01*
X30452379Y92895181D02*
X30547617Y92847562D01*
X30547617Y92847562D02*
X30642855Y92752324D01*
X30642855Y92752324D02*
X30690474Y92561848D01*
X30690474Y92561848D02*
X30690474Y92228515D01*
X30690474Y92228515D02*
X30642855Y92038039D01*
X30642855Y92038039D02*
X30547617Y91942800D01*
X30547617Y91942800D02*
X30452379Y91895181D01*
X30452379Y91895181D02*
X30261903Y91895181D01*
X30261903Y91895181D02*
X30166665Y91942800D01*
X30166665Y91942800D02*
X30071427Y92038039D01*
X30071427Y92038039D02*
X30023808Y92228515D01*
X30023808Y92228515D02*
X30023808Y92561848D01*
X30023808Y92561848D02*
X30071427Y92752324D01*
X30071427Y92752324D02*
X30166665Y92847562D01*
X30166665Y92847562D02*
X30261903Y92895181D01*
X32309522Y91895181D02*
X32309522Y92418991D01*
X32309522Y92418991D02*
X32261903Y92514229D01*
X32261903Y92514229D02*
X32166665Y92561848D01*
X32166665Y92561848D02*
X31976189Y92561848D01*
X31976189Y92561848D02*
X31880951Y92514229D01*
X32309522Y91942800D02*
X32214284Y91895181D01*
X32214284Y91895181D02*
X31976189Y91895181D01*
X31976189Y91895181D02*
X31880951Y91942800D01*
X31880951Y91942800D02*
X31833332Y92038039D01*
X31833332Y92038039D02*
X31833332Y92133277D01*
X31833332Y92133277D02*
X31880951Y92228515D01*
X31880951Y92228515D02*
X31976189Y92276134D01*
X31976189Y92276134D02*
X32214284Y92276134D01*
X32214284Y92276134D02*
X32309522Y92323753D01*
X32738094Y91942800D02*
X32833332Y91895181D01*
X32833332Y91895181D02*
X33023808Y91895181D01*
X33023808Y91895181D02*
X33119046Y91942800D01*
X33119046Y91942800D02*
X33166665Y92038039D01*
X33166665Y92038039D02*
X33166665Y92085658D01*
X33166665Y92085658D02*
X33119046Y92180896D01*
X33119046Y92180896D02*
X33023808Y92228515D01*
X33023808Y92228515D02*
X32880951Y92228515D01*
X32880951Y92228515D02*
X32785713Y92276134D01*
X32785713Y92276134D02*
X32738094Y92371372D01*
X32738094Y92371372D02*
X32738094Y92418991D01*
X32738094Y92418991D02*
X32785713Y92514229D01*
X32785713Y92514229D02*
X32880951Y92561848D01*
X32880951Y92561848D02*
X33023808Y92561848D01*
X33023808Y92561848D02*
X33119046Y92514229D01*
X33547618Y91942800D02*
X33642856Y91895181D01*
X33642856Y91895181D02*
X33833332Y91895181D01*
X33833332Y91895181D02*
X33928570Y91942800D01*
X33928570Y91942800D02*
X33976189Y92038039D01*
X33976189Y92038039D02*
X33976189Y92085658D01*
X33976189Y92085658D02*
X33928570Y92180896D01*
X33928570Y92180896D02*
X33833332Y92228515D01*
X33833332Y92228515D02*
X33690475Y92228515D01*
X33690475Y92228515D02*
X33595237Y92276134D01*
X33595237Y92276134D02*
X33547618Y92371372D01*
X33547618Y92371372D02*
X33547618Y92418991D01*
X33547618Y92418991D02*
X33595237Y92514229D01*
X33595237Y92514229D02*
X33690475Y92561848D01*
X33690475Y92561848D02*
X33833332Y92561848D01*
X33833332Y92561848D02*
X33928570Y92514229D01*
X34785713Y91942800D02*
X34690475Y91895181D01*
X34690475Y91895181D02*
X34499999Y91895181D01*
X34499999Y91895181D02*
X34404761Y91942800D01*
X34404761Y91942800D02*
X34357142Y92038039D01*
X34357142Y92038039D02*
X34357142Y92418991D01*
X34357142Y92418991D02*
X34404761Y92514229D01*
X34404761Y92514229D02*
X34499999Y92561848D01*
X34499999Y92561848D02*
X34690475Y92561848D01*
X34690475Y92561848D02*
X34785713Y92514229D01*
X34785713Y92514229D02*
X34833332Y92418991D01*
X34833332Y92418991D02*
X34833332Y92323753D01*
X34833332Y92323753D02*
X34357142Y92228515D01*
X35261904Y91895181D02*
X35261904Y92561848D01*
X35261904Y92466610D02*
X35309523Y92514229D01*
X35309523Y92514229D02*
X35404761Y92561848D01*
X35404761Y92561848D02*
X35547618Y92561848D01*
X35547618Y92561848D02*
X35642856Y92514229D01*
X35642856Y92514229D02*
X35690475Y92418991D01*
X35690475Y92418991D02*
X35690475Y91895181D01*
X35690475Y92418991D02*
X35738094Y92514229D01*
X35738094Y92514229D02*
X35833332Y92561848D01*
X35833332Y92561848D02*
X35976189Y92561848D01*
X35976189Y92561848D02*
X36071428Y92514229D01*
X36071428Y92514229D02*
X36119047Y92418991D01*
X36119047Y92418991D02*
X36119047Y91895181D01*
X36595237Y91895181D02*
X36595237Y92895181D01*
X36595237Y92514229D02*
X36690475Y92561848D01*
X36690475Y92561848D02*
X36880951Y92561848D01*
X36880951Y92561848D02*
X36976189Y92514229D01*
X36976189Y92514229D02*
X37023808Y92466610D01*
X37023808Y92466610D02*
X37071427Y92371372D01*
X37071427Y92371372D02*
X37071427Y92085658D01*
X37071427Y92085658D02*
X37023808Y91990420D01*
X37023808Y91990420D02*
X36976189Y91942800D01*
X36976189Y91942800D02*
X36880951Y91895181D01*
X36880951Y91895181D02*
X36690475Y91895181D01*
X36690475Y91895181D02*
X36595237Y91942800D01*
X37642856Y91895181D02*
X37547618Y91942800D01*
X37547618Y91942800D02*
X37499999Y92038039D01*
X37499999Y92038039D02*
X37499999Y92895181D01*
X38404761Y91942800D02*
X38309523Y91895181D01*
X38309523Y91895181D02*
X38119047Y91895181D01*
X38119047Y91895181D02*
X38023809Y91942800D01*
X38023809Y91942800D02*
X37976190Y92038039D01*
X37976190Y92038039D02*
X37976190Y92418991D01*
X37976190Y92418991D02*
X38023809Y92514229D01*
X38023809Y92514229D02*
X38119047Y92561848D01*
X38119047Y92561848D02*
X38309523Y92561848D01*
X38309523Y92561848D02*
X38404761Y92514229D01*
X38404761Y92514229D02*
X38452380Y92418991D01*
X38452380Y92418991D02*
X38452380Y92323753D01*
X38452380Y92323753D02*
X37976190Y92228515D01*
X39309523Y91895181D02*
X39309523Y92895181D01*
X39309523Y91942800D02*
X39214285Y91895181D01*
X39214285Y91895181D02*
X39023809Y91895181D01*
X39023809Y91895181D02*
X38928571Y91942800D01*
X38928571Y91942800D02*
X38880952Y91990420D01*
X38880952Y91990420D02*
X38833333Y92085658D01*
X38833333Y92085658D02*
X38833333Y92371372D01*
X38833333Y92371372D02*
X38880952Y92466610D01*
X38880952Y92466610D02*
X38928571Y92514229D01*
X38928571Y92514229D02*
X39023809Y92561848D01*
X39023809Y92561848D02*
X39214285Y92561848D01*
X39214285Y92561848D02*
X39309523Y92514229D01*
X40547619Y92561848D02*
X40547619Y91561848D01*
X40547619Y92514229D02*
X40642857Y92561848D01*
X40642857Y92561848D02*
X40833333Y92561848D01*
X40833333Y92561848D02*
X40928571Y92514229D01*
X40928571Y92514229D02*
X40976190Y92466610D01*
X40976190Y92466610D02*
X41023809Y92371372D01*
X41023809Y92371372D02*
X41023809Y92085658D01*
X41023809Y92085658D02*
X40976190Y91990420D01*
X40976190Y91990420D02*
X40928571Y91942800D01*
X40928571Y91942800D02*
X40833333Y91895181D01*
X40833333Y91895181D02*
X40642857Y91895181D01*
X40642857Y91895181D02*
X40547619Y91942800D01*
X41880952Y91895181D02*
X41880952Y92418991D01*
X41880952Y92418991D02*
X41833333Y92514229D01*
X41833333Y92514229D02*
X41738095Y92561848D01*
X41738095Y92561848D02*
X41547619Y92561848D01*
X41547619Y92561848D02*
X41452381Y92514229D01*
X41880952Y91942800D02*
X41785714Y91895181D01*
X41785714Y91895181D02*
X41547619Y91895181D01*
X41547619Y91895181D02*
X41452381Y91942800D01*
X41452381Y91942800D02*
X41404762Y92038039D01*
X41404762Y92038039D02*
X41404762Y92133277D01*
X41404762Y92133277D02*
X41452381Y92228515D01*
X41452381Y92228515D02*
X41547619Y92276134D01*
X41547619Y92276134D02*
X41785714Y92276134D01*
X41785714Y92276134D02*
X41880952Y92323753D01*
X42357143Y92561848D02*
X42357143Y91895181D01*
X42357143Y92466610D02*
X42404762Y92514229D01*
X42404762Y92514229D02*
X42500000Y92561848D01*
X42500000Y92561848D02*
X42642857Y92561848D01*
X42642857Y92561848D02*
X42738095Y92514229D01*
X42738095Y92514229D02*
X42785714Y92418991D01*
X42785714Y92418991D02*
X42785714Y91895181D01*
X43642857Y91942800D02*
X43547619Y91895181D01*
X43547619Y91895181D02*
X43357143Y91895181D01*
X43357143Y91895181D02*
X43261905Y91942800D01*
X43261905Y91942800D02*
X43214286Y92038039D01*
X43214286Y92038039D02*
X43214286Y92418991D01*
X43214286Y92418991D02*
X43261905Y92514229D01*
X43261905Y92514229D02*
X43357143Y92561848D01*
X43357143Y92561848D02*
X43547619Y92561848D01*
X43547619Y92561848D02*
X43642857Y92514229D01*
X43642857Y92514229D02*
X43690476Y92418991D01*
X43690476Y92418991D02*
X43690476Y92323753D01*
X43690476Y92323753D02*
X43214286Y92228515D01*
X44261905Y91895181D02*
X44166667Y91942800D01*
X44166667Y91942800D02*
X44119048Y92038039D01*
X44119048Y92038039D02*
X44119048Y92895181D01*
X44595239Y91942800D02*
X44690477Y91895181D01*
X44690477Y91895181D02*
X44880953Y91895181D01*
X44880953Y91895181D02*
X44976191Y91942800D01*
X44976191Y91942800D02*
X45023810Y92038039D01*
X45023810Y92038039D02*
X45023810Y92085658D01*
X45023810Y92085658D02*
X44976191Y92180896D01*
X44976191Y92180896D02*
X44880953Y92228515D01*
X44880953Y92228515D02*
X44738096Y92228515D01*
X44738096Y92228515D02*
X44642858Y92276134D01*
X44642858Y92276134D02*
X44595239Y92371372D01*
X44595239Y92371372D02*
X44595239Y92418991D01*
X44595239Y92418991D02*
X44642858Y92514229D01*
X44642858Y92514229D02*
X44738096Y92561848D01*
X44738096Y92561848D02*
X44880953Y92561848D01*
X44880953Y92561848D02*
X44976191Y92514229D01*
X46214287Y92418991D02*
X46976192Y92418991D01*
X46976192Y92133277D02*
X46214287Y92133277D01*
X48738096Y91895181D02*
X48166668Y91895181D01*
X48452382Y91895181D02*
X48452382Y92895181D01*
X48452382Y92895181D02*
X48357144Y92752324D01*
X48357144Y92752324D02*
X48261906Y92657086D01*
X48261906Y92657086D02*
X48166668Y92609467D01*
X49595239Y92561848D02*
X49595239Y91895181D01*
X49357144Y92942800D02*
X49119049Y92228515D01*
X49119049Y92228515D02*
X49738096Y92228515D01*
X50880954Y91895181D02*
X50880954Y92895181D01*
X50880954Y92514229D02*
X50976192Y92561848D01*
X50976192Y92561848D02*
X51166668Y92561848D01*
X51166668Y92561848D02*
X51261906Y92514229D01*
X51261906Y92514229D02*
X51309525Y92466610D01*
X51309525Y92466610D02*
X51357144Y92371372D01*
X51357144Y92371372D02*
X51357144Y92085658D01*
X51357144Y92085658D02*
X51309525Y91990420D01*
X51309525Y91990420D02*
X51261906Y91942800D01*
X51261906Y91942800D02*
X51166668Y91895181D01*
X51166668Y91895181D02*
X50976192Y91895181D01*
X50976192Y91895181D02*
X50880954Y91942800D01*
X51928573Y91895181D02*
X51833335Y91942800D01*
X51833335Y91942800D02*
X51785716Y91990420D01*
X51785716Y91990420D02*
X51738097Y92085658D01*
X51738097Y92085658D02*
X51738097Y92371372D01*
X51738097Y92371372D02*
X51785716Y92466610D01*
X51785716Y92466610D02*
X51833335Y92514229D01*
X51833335Y92514229D02*
X51928573Y92561848D01*
X51928573Y92561848D02*
X52071430Y92561848D01*
X52071430Y92561848D02*
X52166668Y92514229D01*
X52166668Y92514229D02*
X52214287Y92466610D01*
X52214287Y92466610D02*
X52261906Y92371372D01*
X52261906Y92371372D02*
X52261906Y92085658D01*
X52261906Y92085658D02*
X52214287Y91990420D01*
X52214287Y91990420D02*
X52166668Y91942800D01*
X52166668Y91942800D02*
X52071430Y91895181D01*
X52071430Y91895181D02*
X51928573Y91895181D01*
X53119049Y91895181D02*
X53119049Y92418991D01*
X53119049Y92418991D02*
X53071430Y92514229D01*
X53071430Y92514229D02*
X52976192Y92561848D01*
X52976192Y92561848D02*
X52785716Y92561848D01*
X52785716Y92561848D02*
X52690478Y92514229D01*
X53119049Y91942800D02*
X53023811Y91895181D01*
X53023811Y91895181D02*
X52785716Y91895181D01*
X52785716Y91895181D02*
X52690478Y91942800D01*
X52690478Y91942800D02*
X52642859Y92038039D01*
X52642859Y92038039D02*
X52642859Y92133277D01*
X52642859Y92133277D02*
X52690478Y92228515D01*
X52690478Y92228515D02*
X52785716Y92276134D01*
X52785716Y92276134D02*
X53023811Y92276134D01*
X53023811Y92276134D02*
X53119049Y92323753D01*
X53595240Y91895181D02*
X53595240Y92561848D01*
X53595240Y92371372D02*
X53642859Y92466610D01*
X53642859Y92466610D02*
X53690478Y92514229D01*
X53690478Y92514229D02*
X53785716Y92561848D01*
X53785716Y92561848D02*
X53880954Y92561848D01*
X54642859Y91895181D02*
X54642859Y92895181D01*
X54642859Y91942800D02*
X54547621Y91895181D01*
X54547621Y91895181D02*
X54357145Y91895181D01*
X54357145Y91895181D02*
X54261907Y91942800D01*
X54261907Y91942800D02*
X54214288Y91990420D01*
X54214288Y91990420D02*
X54166669Y92085658D01*
X54166669Y92085658D02*
X54166669Y92371372D01*
X54166669Y92371372D02*
X54214288Y92466610D01*
X54214288Y92466610D02*
X54261907Y92514229D01*
X54261907Y92514229D02*
X54357145Y92561848D01*
X54357145Y92561848D02*
X54547621Y92561848D01*
X54547621Y92561848D02*
X54642859Y92514229D01*
X55071431Y91942800D02*
X55166669Y91895181D01*
X55166669Y91895181D02*
X55357145Y91895181D01*
X55357145Y91895181D02*
X55452383Y91942800D01*
X55452383Y91942800D02*
X55500002Y92038039D01*
X55500002Y92038039D02*
X55500002Y92085658D01*
X55500002Y92085658D02*
X55452383Y92180896D01*
X55452383Y92180896D02*
X55357145Y92228515D01*
X55357145Y92228515D02*
X55214288Y92228515D01*
X55214288Y92228515D02*
X55119050Y92276134D01*
X55119050Y92276134D02*
X55071431Y92371372D01*
X55071431Y92371372D02*
X55071431Y92418991D01*
X55071431Y92418991D02*
X55119050Y92514229D01*
X55119050Y92514229D02*
X55214288Y92561848D01*
X55214288Y92561848D02*
X55357145Y92561848D01*
X55357145Y92561848D02*
X55452383Y92514229D01*
X43716666Y72045181D02*
X43716666Y71330896D01*
X43716666Y71330896D02*
X43669047Y71188039D01*
X43669047Y71188039D02*
X43573809Y71092800D01*
X43573809Y71092800D02*
X43430952Y71045181D01*
X43430952Y71045181D02*
X43335714Y71045181D01*
X44716666Y71045181D02*
X44145238Y71045181D01*
X44430952Y71045181D02*
X44430952Y72045181D01*
X44430952Y72045181D02*
X44335714Y71902324D01*
X44335714Y71902324D02*
X44240476Y71807086D01*
X44240476Y71807086D02*
X44145238Y71759467D01*
X43716666Y50545181D02*
X43716666Y49830896D01*
X43716666Y49830896D02*
X43669047Y49688039D01*
X43669047Y49688039D02*
X43573809Y49592800D01*
X43573809Y49592800D02*
X43430952Y49545181D01*
X43430952Y49545181D02*
X43335714Y49545181D01*
X44716666Y49545181D02*
X44145238Y49545181D01*
X44430952Y49545181D02*
X44430952Y50545181D01*
X44430952Y50545181D02*
X44335714Y50402324D01*
X44335714Y50402324D02*
X44240476Y50307086D01*
X44240476Y50307086D02*
X44145238Y50259467D01*
X43716666Y29045181D02*
X43716666Y28330896D01*
X43716666Y28330896D02*
X43669047Y28188039D01*
X43669047Y28188039D02*
X43573809Y28092800D01*
X43573809Y28092800D02*
X43430952Y28045181D01*
X43430952Y28045181D02*
X43335714Y28045181D01*
X44716666Y28045181D02*
X44145238Y28045181D01*
X44430952Y28045181D02*
X44430952Y29045181D01*
X44430952Y29045181D02*
X44335714Y28902324D01*
X44335714Y28902324D02*
X44240476Y28807086D01*
X44240476Y28807086D02*
X44145238Y28759467D01*
X40523809Y15092800D02*
X40666666Y15045181D01*
X40666666Y15045181D02*
X40904761Y15045181D01*
X40904761Y15045181D02*
X40999999Y15092800D01*
X40999999Y15092800D02*
X41047618Y15140420D01*
X41047618Y15140420D02*
X41095237Y15235658D01*
X41095237Y15235658D02*
X41095237Y15330896D01*
X41095237Y15330896D02*
X41047618Y15426134D01*
X41047618Y15426134D02*
X40999999Y15473753D01*
X40999999Y15473753D02*
X40904761Y15521372D01*
X40904761Y15521372D02*
X40714285Y15568991D01*
X40714285Y15568991D02*
X40619047Y15616610D01*
X40619047Y15616610D02*
X40571428Y15664229D01*
X40571428Y15664229D02*
X40523809Y15759467D01*
X40523809Y15759467D02*
X40523809Y15854705D01*
X40523809Y15854705D02*
X40571428Y15949943D01*
X40571428Y15949943D02*
X40619047Y15997562D01*
X40619047Y15997562D02*
X40714285Y16045181D01*
X40714285Y16045181D02*
X40952380Y16045181D01*
X40952380Y16045181D02*
X41095237Y15997562D01*
X41523809Y16045181D02*
X41523809Y15235658D01*
X41523809Y15235658D02*
X41571428Y15140420D01*
X41571428Y15140420D02*
X41619047Y15092800D01*
X41619047Y15092800D02*
X41714285Y15045181D01*
X41714285Y15045181D02*
X41904761Y15045181D01*
X41904761Y15045181D02*
X41999999Y15092800D01*
X41999999Y15092800D02*
X42047618Y15140420D01*
X42047618Y15140420D02*
X42095237Y15235658D01*
X42095237Y15235658D02*
X42095237Y16045181D01*
X42571428Y15045181D02*
X42571428Y16045181D01*
X42571428Y16045181D02*
X42952380Y16045181D01*
X42952380Y16045181D02*
X43047618Y15997562D01*
X43047618Y15997562D02*
X43095237Y15949943D01*
X43095237Y15949943D02*
X43142856Y15854705D01*
X43142856Y15854705D02*
X43142856Y15711848D01*
X43142856Y15711848D02*
X43095237Y15616610D01*
X43095237Y15616610D02*
X43047618Y15568991D01*
X43047618Y15568991D02*
X42952380Y15521372D01*
X42952380Y15521372D02*
X42571428Y15521372D01*
X43571428Y15045181D02*
X43571428Y16045181D01*
X43571428Y16045181D02*
X43952380Y16045181D01*
X43952380Y16045181D02*
X44047618Y15997562D01*
X44047618Y15997562D02*
X44095237Y15949943D01*
X44095237Y15949943D02*
X44142856Y15854705D01*
X44142856Y15854705D02*
X44142856Y15711848D01*
X44142856Y15711848D02*
X44095237Y15616610D01*
X44095237Y15616610D02*
X44047618Y15568991D01*
X44047618Y15568991D02*
X43952380Y15521372D01*
X43952380Y15521372D02*
X43571428Y15521372D01*
X44761904Y16045181D02*
X44952380Y16045181D01*
X44952380Y16045181D02*
X45047618Y15997562D01*
X45047618Y15997562D02*
X45142856Y15902324D01*
X45142856Y15902324D02*
X45190475Y15711848D01*
X45190475Y15711848D02*
X45190475Y15378515D01*
X45190475Y15378515D02*
X45142856Y15188039D01*
X45142856Y15188039D02*
X45047618Y15092800D01*
X45047618Y15092800D02*
X44952380Y15045181D01*
X44952380Y15045181D02*
X44761904Y15045181D01*
X44761904Y15045181D02*
X44666666Y15092800D01*
X44666666Y15092800D02*
X44571428Y15188039D01*
X44571428Y15188039D02*
X44523809Y15378515D01*
X44523809Y15378515D02*
X44523809Y15711848D01*
X44523809Y15711848D02*
X44571428Y15902324D01*
X44571428Y15902324D02*
X44666666Y15997562D01*
X44666666Y15997562D02*
X44761904Y16045181D01*
X46190475Y15045181D02*
X45857142Y15521372D01*
X45619047Y15045181D02*
X45619047Y16045181D01*
X45619047Y16045181D02*
X45999999Y16045181D01*
X45999999Y16045181D02*
X46095237Y15997562D01*
X46095237Y15997562D02*
X46142856Y15949943D01*
X46142856Y15949943D02*
X46190475Y15854705D01*
X46190475Y15854705D02*
X46190475Y15711848D01*
X46190475Y15711848D02*
X46142856Y15616610D01*
X46142856Y15616610D02*
X46095237Y15568991D01*
X46095237Y15568991D02*
X45999999Y15521372D01*
X45999999Y15521372D02*
X45619047Y15521372D01*
X46476190Y16045181D02*
X47047618Y16045181D01*
X46761904Y15045181D02*
X46761904Y16045181D01*
X48333333Y16045181D02*
X48523809Y16045181D01*
X48523809Y16045181D02*
X48619047Y15997562D01*
X48619047Y15997562D02*
X48714285Y15902324D01*
X48714285Y15902324D02*
X48761904Y15711848D01*
X48761904Y15711848D02*
X48761904Y15378515D01*
X48761904Y15378515D02*
X48714285Y15188039D01*
X48714285Y15188039D02*
X48619047Y15092800D01*
X48619047Y15092800D02*
X48523809Y15045181D01*
X48523809Y15045181D02*
X48333333Y15045181D01*
X48333333Y15045181D02*
X48238095Y15092800D01*
X48238095Y15092800D02*
X48142857Y15188039D01*
X48142857Y15188039D02*
X48095238Y15378515D01*
X48095238Y15378515D02*
X48095238Y15711848D01*
X48095238Y15711848D02*
X48142857Y15902324D01*
X48142857Y15902324D02*
X48238095Y15997562D01*
X48238095Y15997562D02*
X48333333Y16045181D01*
X49190476Y15045181D02*
X49190476Y16045181D01*
X49190476Y16045181D02*
X49761904Y15045181D01*
X49761904Y15045181D02*
X49761904Y16045181D01*
X50714285Y15045181D02*
X50238095Y15045181D01*
X50238095Y15045181D02*
X50238095Y16045181D01*
X51238095Y15521372D02*
X51238095Y15045181D01*
X50904762Y16045181D02*
X51238095Y15521372D01*
X51238095Y15521372D02*
X51571428Y16045181D01*
X31507200Y84266668D02*
X31554819Y84409525D01*
X31554819Y84409525D02*
X31554819Y84647620D01*
X31554819Y84647620D02*
X31507200Y84742858D01*
X31507200Y84742858D02*
X31459580Y84790477D01*
X31459580Y84790477D02*
X31364342Y84838096D01*
X31364342Y84838096D02*
X31269104Y84838096D01*
X31269104Y84838096D02*
X31173866Y84790477D01*
X31173866Y84790477D02*
X31126247Y84742858D01*
X31126247Y84742858D02*
X31078628Y84647620D01*
X31078628Y84647620D02*
X31031009Y84457144D01*
X31031009Y84457144D02*
X30983390Y84361906D01*
X30983390Y84361906D02*
X30935771Y84314287D01*
X30935771Y84314287D02*
X30840533Y84266668D01*
X30840533Y84266668D02*
X30745295Y84266668D01*
X30745295Y84266668D02*
X30650057Y84314287D01*
X30650057Y84314287D02*
X30602438Y84361906D01*
X30602438Y84361906D02*
X30554819Y84457144D01*
X30554819Y84457144D02*
X30554819Y84695239D01*
X30554819Y84695239D02*
X30602438Y84838096D01*
X30554819Y85171430D02*
X31554819Y85409525D01*
X31554819Y85409525D02*
X30840533Y85600001D01*
X30840533Y85600001D02*
X31554819Y85790477D01*
X31554819Y85790477D02*
X30554819Y86028572D01*
X31554819Y86933334D02*
X31554819Y86361906D01*
X31554819Y86647620D02*
X30554819Y86647620D01*
X30554819Y86647620D02*
X30697676Y86552382D01*
X30697676Y86552382D02*
X30792914Y86457144D01*
X30792914Y86457144D02*
X30840533Y86361906D01*
X31507200Y62766668D02*
X31554819Y62909525D01*
X31554819Y62909525D02*
X31554819Y63147620D01*
X31554819Y63147620D02*
X31507200Y63242858D01*
X31507200Y63242858D02*
X31459580Y63290477D01*
X31459580Y63290477D02*
X31364342Y63338096D01*
X31364342Y63338096D02*
X31269104Y63338096D01*
X31269104Y63338096D02*
X31173866Y63290477D01*
X31173866Y63290477D02*
X31126247Y63242858D01*
X31126247Y63242858D02*
X31078628Y63147620D01*
X31078628Y63147620D02*
X31031009Y62957144D01*
X31031009Y62957144D02*
X30983390Y62861906D01*
X30983390Y62861906D02*
X30935771Y62814287D01*
X30935771Y62814287D02*
X30840533Y62766668D01*
X30840533Y62766668D02*
X30745295Y62766668D01*
X30745295Y62766668D02*
X30650057Y62814287D01*
X30650057Y62814287D02*
X30602438Y62861906D01*
X30602438Y62861906D02*
X30554819Y62957144D01*
X30554819Y62957144D02*
X30554819Y63195239D01*
X30554819Y63195239D02*
X30602438Y63338096D01*
X30554819Y63671430D02*
X31554819Y63909525D01*
X31554819Y63909525D02*
X30840533Y64100001D01*
X30840533Y64100001D02*
X31554819Y64290477D01*
X31554819Y64290477D02*
X30554819Y64528572D01*
X31554819Y65433334D02*
X31554819Y64861906D01*
X31554819Y65147620D02*
X30554819Y65147620D01*
X30554819Y65147620D02*
X30697676Y65052382D01*
X30697676Y65052382D02*
X30792914Y64957144D01*
X30792914Y64957144D02*
X30840533Y64861906D01*
X31507200Y41266668D02*
X31554819Y41409525D01*
X31554819Y41409525D02*
X31554819Y41647620D01*
X31554819Y41647620D02*
X31507200Y41742858D01*
X31507200Y41742858D02*
X31459580Y41790477D01*
X31459580Y41790477D02*
X31364342Y41838096D01*
X31364342Y41838096D02*
X31269104Y41838096D01*
X31269104Y41838096D02*
X31173866Y41790477D01*
X31173866Y41790477D02*
X31126247Y41742858D01*
X31126247Y41742858D02*
X31078628Y41647620D01*
X31078628Y41647620D02*
X31031009Y41457144D01*
X31031009Y41457144D02*
X30983390Y41361906D01*
X30983390Y41361906D02*
X30935771Y41314287D01*
X30935771Y41314287D02*
X30840533Y41266668D01*
X30840533Y41266668D02*
X30745295Y41266668D01*
X30745295Y41266668D02*
X30650057Y41314287D01*
X30650057Y41314287D02*
X30602438Y41361906D01*
X30602438Y41361906D02*
X30554819Y41457144D01*
X30554819Y41457144D02*
X30554819Y41695239D01*
X30554819Y41695239D02*
X30602438Y41838096D01*
X30554819Y42171430D02*
X31554819Y42409525D01*
X31554819Y42409525D02*
X30840533Y42600001D01*
X30840533Y42600001D02*
X31554819Y42790477D01*
X31554819Y42790477D02*
X30554819Y43028572D01*
X31554819Y43933334D02*
X31554819Y43361906D01*
X31554819Y43647620D02*
X30554819Y43647620D01*
X30554819Y43647620D02*
X30697676Y43552382D01*
X30697676Y43552382D02*
X30792914Y43457144D01*
X30792914Y43457144D02*
X30840533Y43361906D01*
X31507200Y19766668D02*
X31554819Y19909525D01*
X31554819Y19909525D02*
X31554819Y20147620D01*
X31554819Y20147620D02*
X31507200Y20242858D01*
X31507200Y20242858D02*
X31459580Y20290477D01*
X31459580Y20290477D02*
X31364342Y20338096D01*
X31364342Y20338096D02*
X31269104Y20338096D01*
X31269104Y20338096D02*
X31173866Y20290477D01*
X31173866Y20290477D02*
X31126247Y20242858D01*
X31126247Y20242858D02*
X31078628Y20147620D01*
X31078628Y20147620D02*
X31031009Y19957144D01*
X31031009Y19957144D02*
X30983390Y19861906D01*
X30983390Y19861906D02*
X30935771Y19814287D01*
X30935771Y19814287D02*
X30840533Y19766668D01*
X30840533Y19766668D02*
X30745295Y19766668D01*
X30745295Y19766668D02*
X30650057Y19814287D01*
X30650057Y19814287D02*
X30602438Y19861906D01*
X30602438Y19861906D02*
X30554819Y19957144D01*
X30554819Y19957144D02*
X30554819Y20195239D01*
X30554819Y20195239D02*
X30602438Y20338096D01*
X30554819Y20671430D02*
X31554819Y20909525D01*
X31554819Y20909525D02*
X30840533Y21100001D01*
X30840533Y21100001D02*
X31554819Y21290477D01*
X31554819Y21290477D02*
X30554819Y21528572D01*
X31554819Y22433334D02*
X31554819Y21861906D01*
X31554819Y22147620D02*
X30554819Y22147620D01*
X30554819Y22147620D02*
X30697676Y22052382D01*
X30697676Y22052382D02*
X30792914Y21957144D01*
X30792914Y21957144D02*
X30840533Y21861906D01*
X52807200Y84266668D02*
X52854819Y84409525D01*
X52854819Y84409525D02*
X52854819Y84647620D01*
X52854819Y84647620D02*
X52807200Y84742858D01*
X52807200Y84742858D02*
X52759580Y84790477D01*
X52759580Y84790477D02*
X52664342Y84838096D01*
X52664342Y84838096D02*
X52569104Y84838096D01*
X52569104Y84838096D02*
X52473866Y84790477D01*
X52473866Y84790477D02*
X52426247Y84742858D01*
X52426247Y84742858D02*
X52378628Y84647620D01*
X52378628Y84647620D02*
X52331009Y84457144D01*
X52331009Y84457144D02*
X52283390Y84361906D01*
X52283390Y84361906D02*
X52235771Y84314287D01*
X52235771Y84314287D02*
X52140533Y84266668D01*
X52140533Y84266668D02*
X52045295Y84266668D01*
X52045295Y84266668D02*
X51950057Y84314287D01*
X51950057Y84314287D02*
X51902438Y84361906D01*
X51902438Y84361906D02*
X51854819Y84457144D01*
X51854819Y84457144D02*
X51854819Y84695239D01*
X51854819Y84695239D02*
X51902438Y84838096D01*
X51854819Y85171430D02*
X52854819Y85409525D01*
X52854819Y85409525D02*
X52140533Y85600001D01*
X52140533Y85600001D02*
X52854819Y85790477D01*
X52854819Y85790477D02*
X51854819Y86028572D01*
X52854819Y86933334D02*
X52854819Y86361906D01*
X52854819Y86647620D02*
X51854819Y86647620D01*
X51854819Y86647620D02*
X51997676Y86552382D01*
X51997676Y86552382D02*
X52092914Y86457144D01*
X52092914Y86457144D02*
X52140533Y86361906D01*
X52807200Y62766668D02*
X52854819Y62909525D01*
X52854819Y62909525D02*
X52854819Y63147620D01*
X52854819Y63147620D02*
X52807200Y63242858D01*
X52807200Y63242858D02*
X52759580Y63290477D01*
X52759580Y63290477D02*
X52664342Y63338096D01*
X52664342Y63338096D02*
X52569104Y63338096D01*
X52569104Y63338096D02*
X52473866Y63290477D01*
X52473866Y63290477D02*
X52426247Y63242858D01*
X52426247Y63242858D02*
X52378628Y63147620D01*
X52378628Y63147620D02*
X52331009Y62957144D01*
X52331009Y62957144D02*
X52283390Y62861906D01*
X52283390Y62861906D02*
X52235771Y62814287D01*
X52235771Y62814287D02*
X52140533Y62766668D01*
X52140533Y62766668D02*
X52045295Y62766668D01*
X52045295Y62766668D02*
X51950057Y62814287D01*
X51950057Y62814287D02*
X51902438Y62861906D01*
X51902438Y62861906D02*
X51854819Y62957144D01*
X51854819Y62957144D02*
X51854819Y63195239D01*
X51854819Y63195239D02*
X51902438Y63338096D01*
X51854819Y63671430D02*
X52854819Y63909525D01*
X52854819Y63909525D02*
X52140533Y64100001D01*
X52140533Y64100001D02*
X52854819Y64290477D01*
X52854819Y64290477D02*
X51854819Y64528572D01*
X52854819Y65433334D02*
X52854819Y64861906D01*
X52854819Y65147620D02*
X51854819Y65147620D01*
X51854819Y65147620D02*
X51997676Y65052382D01*
X51997676Y65052382D02*
X52092914Y64957144D01*
X52092914Y64957144D02*
X52140533Y64861906D01*
X52807200Y41266668D02*
X52854819Y41409525D01*
X52854819Y41409525D02*
X52854819Y41647620D01*
X52854819Y41647620D02*
X52807200Y41742858D01*
X52807200Y41742858D02*
X52759580Y41790477D01*
X52759580Y41790477D02*
X52664342Y41838096D01*
X52664342Y41838096D02*
X52569104Y41838096D01*
X52569104Y41838096D02*
X52473866Y41790477D01*
X52473866Y41790477D02*
X52426247Y41742858D01*
X52426247Y41742858D02*
X52378628Y41647620D01*
X52378628Y41647620D02*
X52331009Y41457144D01*
X52331009Y41457144D02*
X52283390Y41361906D01*
X52283390Y41361906D02*
X52235771Y41314287D01*
X52235771Y41314287D02*
X52140533Y41266668D01*
X52140533Y41266668D02*
X52045295Y41266668D01*
X52045295Y41266668D02*
X51950057Y41314287D01*
X51950057Y41314287D02*
X51902438Y41361906D01*
X51902438Y41361906D02*
X51854819Y41457144D01*
X51854819Y41457144D02*
X51854819Y41695239D01*
X51854819Y41695239D02*
X51902438Y41838096D01*
X51854819Y42171430D02*
X52854819Y42409525D01*
X52854819Y42409525D02*
X52140533Y42600001D01*
X52140533Y42600001D02*
X52854819Y42790477D01*
X52854819Y42790477D02*
X51854819Y43028572D01*
X52854819Y43933334D02*
X52854819Y43361906D01*
X52854819Y43647620D02*
X51854819Y43647620D01*
X51854819Y43647620D02*
X51997676Y43552382D01*
X51997676Y43552382D02*
X52092914Y43457144D01*
X52092914Y43457144D02*
X52140533Y43361906D01*
X20295180Y78011905D02*
X20295180Y77440477D01*
X19295180Y77726191D02*
X20295180Y77726191D01*
X19295180Y77107143D02*
X20295180Y77107143D01*
X20295180Y77107143D02*
X20295180Y76726191D01*
X20295180Y76726191D02*
X20247561Y76630953D01*
X20247561Y76630953D02*
X20199942Y76583334D01*
X20199942Y76583334D02*
X20104704Y76535715D01*
X20104704Y76535715D02*
X19961847Y76535715D01*
X19961847Y76535715D02*
X19866609Y76583334D01*
X19866609Y76583334D02*
X19818990Y76630953D01*
X19818990Y76630953D02*
X19771371Y76726191D01*
X19771371Y76726191D02*
X19771371Y77107143D01*
X19295180Y75583334D02*
X19295180Y76154762D01*
X19295180Y75869048D02*
X20295180Y75869048D01*
X20295180Y75869048D02*
X20152323Y75964286D01*
X20152323Y75964286D02*
X20057085Y76059524D01*
X20057085Y76059524D02*
X20009466Y76154762D01*
X20295180Y56511905D02*
X20295180Y55940477D01*
X19295180Y56226191D02*
X20295180Y56226191D01*
X19295180Y55607143D02*
X20295180Y55607143D01*
X20295180Y55607143D02*
X20295180Y55226191D01*
X20295180Y55226191D02*
X20247561Y55130953D01*
X20247561Y55130953D02*
X20199942Y55083334D01*
X20199942Y55083334D02*
X20104704Y55035715D01*
X20104704Y55035715D02*
X19961847Y55035715D01*
X19961847Y55035715D02*
X19866609Y55083334D01*
X19866609Y55083334D02*
X19818990Y55130953D01*
X19818990Y55130953D02*
X19771371Y55226191D01*
X19771371Y55226191D02*
X19771371Y55607143D01*
X19295180Y54083334D02*
X19295180Y54654762D01*
X19295180Y54369048D02*
X20295180Y54369048D01*
X20295180Y54369048D02*
X20152323Y54464286D01*
X20152323Y54464286D02*
X20057085Y54559524D01*
X20057085Y54559524D02*
X20009466Y54654762D01*
X20295180Y35011905D02*
X20295180Y34440477D01*
X19295180Y34726191D02*
X20295180Y34726191D01*
X19295180Y34107143D02*
X20295180Y34107143D01*
X20295180Y34107143D02*
X20295180Y33726191D01*
X20295180Y33726191D02*
X20247561Y33630953D01*
X20247561Y33630953D02*
X20199942Y33583334D01*
X20199942Y33583334D02*
X20104704Y33535715D01*
X20104704Y33535715D02*
X19961847Y33535715D01*
X19961847Y33535715D02*
X19866609Y33583334D01*
X19866609Y33583334D02*
X19818990Y33630953D01*
X19818990Y33630953D02*
X19771371Y33726191D01*
X19771371Y33726191D02*
X19771371Y34107143D01*
X19295180Y32583334D02*
X19295180Y33154762D01*
X19295180Y32869048D02*
X20295180Y32869048D01*
X20295180Y32869048D02*
X20152323Y32964286D01*
X20152323Y32964286D02*
X20057085Y33059524D01*
X20057085Y33059524D02*
X20009466Y33154762D01*
X20295180Y13511905D02*
X20295180Y12940477D01*
X19295180Y13226191D02*
X20295180Y13226191D01*
X19295180Y12607143D02*
X20295180Y12607143D01*
X20295180Y12607143D02*
X20295180Y12226191D01*
X20295180Y12226191D02*
X20247561Y12130953D01*
X20247561Y12130953D02*
X20199942Y12083334D01*
X20199942Y12083334D02*
X20104704Y12035715D01*
X20104704Y12035715D02*
X19961847Y12035715D01*
X19961847Y12035715D02*
X19866609Y12083334D01*
X19866609Y12083334D02*
X19818990Y12130953D01*
X19818990Y12130953D02*
X19771371Y12226191D01*
X19771371Y12226191D02*
X19771371Y12607143D01*
X19295180Y11083334D02*
X19295180Y11654762D01*
X19295180Y11369048D02*
X20295180Y11369048D01*
X20295180Y11369048D02*
X20152323Y11464286D01*
X20152323Y11464286D02*
X20057085Y11559524D01*
X20057085Y11559524D02*
X20009466Y11654762D01*
X27845180Y80938095D02*
X28845180Y80938095D01*
X28845180Y80938095D02*
X28845180Y80700000D01*
X28845180Y80700000D02*
X28797561Y80557143D01*
X28797561Y80557143D02*
X28702323Y80461905D01*
X28702323Y80461905D02*
X28607085Y80414286D01*
X28607085Y80414286D02*
X28416609Y80366667D01*
X28416609Y80366667D02*
X28273752Y80366667D01*
X28273752Y80366667D02*
X28083276Y80414286D01*
X28083276Y80414286D02*
X27988038Y80461905D01*
X27988038Y80461905D02*
X27892800Y80557143D01*
X27892800Y80557143D02*
X27845180Y80700000D01*
X27845180Y80700000D02*
X27845180Y80938095D01*
X27845180Y79414286D02*
X27845180Y79985714D01*
X27845180Y79700000D02*
X28845180Y79700000D01*
X28845180Y79700000D02*
X28702323Y79795238D01*
X28702323Y79795238D02*
X28607085Y79890476D01*
X28607085Y79890476D02*
X28559466Y79985714D01*
X27845180Y59438095D02*
X28845180Y59438095D01*
X28845180Y59438095D02*
X28845180Y59200000D01*
X28845180Y59200000D02*
X28797561Y59057143D01*
X28797561Y59057143D02*
X28702323Y58961905D01*
X28702323Y58961905D02*
X28607085Y58914286D01*
X28607085Y58914286D02*
X28416609Y58866667D01*
X28416609Y58866667D02*
X28273752Y58866667D01*
X28273752Y58866667D02*
X28083276Y58914286D01*
X28083276Y58914286D02*
X27988038Y58961905D01*
X27988038Y58961905D02*
X27892800Y59057143D01*
X27892800Y59057143D02*
X27845180Y59200000D01*
X27845180Y59200000D02*
X27845180Y59438095D01*
X27845180Y57914286D02*
X27845180Y58485714D01*
X27845180Y58200000D02*
X28845180Y58200000D01*
X28845180Y58200000D02*
X28702323Y58295238D01*
X28702323Y58295238D02*
X28607085Y58390476D01*
X28607085Y58390476D02*
X28559466Y58485714D01*
X27845180Y37938095D02*
X28845180Y37938095D01*
X28845180Y37938095D02*
X28845180Y37700000D01*
X28845180Y37700000D02*
X28797561Y37557143D01*
X28797561Y37557143D02*
X28702323Y37461905D01*
X28702323Y37461905D02*
X28607085Y37414286D01*
X28607085Y37414286D02*
X28416609Y37366667D01*
X28416609Y37366667D02*
X28273752Y37366667D01*
X28273752Y37366667D02*
X28083276Y37414286D01*
X28083276Y37414286D02*
X27988038Y37461905D01*
X27988038Y37461905D02*
X27892800Y37557143D01*
X27892800Y37557143D02*
X27845180Y37700000D01*
X27845180Y37700000D02*
X27845180Y37938095D01*
X27845180Y36414286D02*
X27845180Y36985714D01*
X27845180Y36700000D02*
X28845180Y36700000D01*
X28845180Y36700000D02*
X28702323Y36795238D01*
X28702323Y36795238D02*
X28607085Y36890476D01*
X28607085Y36890476D02*
X28559466Y36985714D01*
X27845180Y16438095D02*
X28845180Y16438095D01*
X28845180Y16438095D02*
X28845180Y16200000D01*
X28845180Y16200000D02*
X28797561Y16057143D01*
X28797561Y16057143D02*
X28702323Y15961905D01*
X28702323Y15961905D02*
X28607085Y15914286D01*
X28607085Y15914286D02*
X28416609Y15866667D01*
X28416609Y15866667D02*
X28273752Y15866667D01*
X28273752Y15866667D02*
X28083276Y15914286D01*
X28083276Y15914286D02*
X27988038Y15961905D01*
X27988038Y15961905D02*
X27892800Y16057143D01*
X27892800Y16057143D02*
X27845180Y16200000D01*
X27845180Y16200000D02*
X27845180Y16438095D01*
X27845180Y14914286D02*
X27845180Y15485714D01*
X27845180Y15200000D02*
X28845180Y15200000D01*
X28845180Y15200000D02*
X28702323Y15295238D01*
X28702323Y15295238D02*
X28607085Y15390476D01*
X28607085Y15390476D02*
X28559466Y15485714D01*
X41595180Y78011905D02*
X41595180Y77440477D01*
X40595180Y77726191D02*
X41595180Y77726191D01*
X40595180Y77107143D02*
X41595180Y77107143D01*
X41595180Y77107143D02*
X41595180Y76726191D01*
X41595180Y76726191D02*
X41547561Y76630953D01*
X41547561Y76630953D02*
X41499942Y76583334D01*
X41499942Y76583334D02*
X41404704Y76535715D01*
X41404704Y76535715D02*
X41261847Y76535715D01*
X41261847Y76535715D02*
X41166609Y76583334D01*
X41166609Y76583334D02*
X41118990Y76630953D01*
X41118990Y76630953D02*
X41071371Y76726191D01*
X41071371Y76726191D02*
X41071371Y77107143D01*
X40595180Y75583334D02*
X40595180Y76154762D01*
X40595180Y75869048D02*
X41595180Y75869048D01*
X41595180Y75869048D02*
X41452323Y75964286D01*
X41452323Y75964286D02*
X41357085Y76059524D01*
X41357085Y76059524D02*
X41309466Y76154762D01*
X41595180Y56511905D02*
X41595180Y55940477D01*
X40595180Y56226191D02*
X41595180Y56226191D01*
X40595180Y55607143D02*
X41595180Y55607143D01*
X41595180Y55607143D02*
X41595180Y55226191D01*
X41595180Y55226191D02*
X41547561Y55130953D01*
X41547561Y55130953D02*
X41499942Y55083334D01*
X41499942Y55083334D02*
X41404704Y55035715D01*
X41404704Y55035715D02*
X41261847Y55035715D01*
X41261847Y55035715D02*
X41166609Y55083334D01*
X41166609Y55083334D02*
X41118990Y55130953D01*
X41118990Y55130953D02*
X41071371Y55226191D01*
X41071371Y55226191D02*
X41071371Y55607143D01*
X40595180Y54083334D02*
X40595180Y54654762D01*
X40595180Y54369048D02*
X41595180Y54369048D01*
X41595180Y54369048D02*
X41452323Y54464286D01*
X41452323Y54464286D02*
X41357085Y54559524D01*
X41357085Y54559524D02*
X41309466Y54654762D01*
X41595180Y35011905D02*
X41595180Y34440477D01*
X40595180Y34726191D02*
X41595180Y34726191D01*
X40595180Y34107143D02*
X41595180Y34107143D01*
X41595180Y34107143D02*
X41595180Y33726191D01*
X41595180Y33726191D02*
X41547561Y33630953D01*
X41547561Y33630953D02*
X41499942Y33583334D01*
X41499942Y33583334D02*
X41404704Y33535715D01*
X41404704Y33535715D02*
X41261847Y33535715D01*
X41261847Y33535715D02*
X41166609Y33583334D01*
X41166609Y33583334D02*
X41118990Y33630953D01*
X41118990Y33630953D02*
X41071371Y33726191D01*
X41071371Y33726191D02*
X41071371Y34107143D01*
X40595180Y32583334D02*
X40595180Y33154762D01*
X40595180Y32869048D02*
X41595180Y32869048D01*
X41595180Y32869048D02*
X41452323Y32964286D01*
X41452323Y32964286D02*
X41357085Y33059524D01*
X41357085Y33059524D02*
X41309466Y33154762D01*
X49145180Y80938095D02*
X50145180Y80938095D01*
X50145180Y80938095D02*
X50145180Y80700000D01*
X50145180Y80700000D02*
X50097561Y80557143D01*
X50097561Y80557143D02*
X50002323Y80461905D01*
X50002323Y80461905D02*
X49907085Y80414286D01*
X49907085Y80414286D02*
X49716609Y80366667D01*
X49716609Y80366667D02*
X49573752Y80366667D01*
X49573752Y80366667D02*
X49383276Y80414286D01*
X49383276Y80414286D02*
X49288038Y80461905D01*
X49288038Y80461905D02*
X49192800Y80557143D01*
X49192800Y80557143D02*
X49145180Y80700000D01*
X49145180Y80700000D02*
X49145180Y80938095D01*
X49145180Y79414286D02*
X49145180Y79985714D01*
X49145180Y79700000D02*
X50145180Y79700000D01*
X50145180Y79700000D02*
X50002323Y79795238D01*
X50002323Y79795238D02*
X49907085Y79890476D01*
X49907085Y79890476D02*
X49859466Y79985714D01*
X49145180Y59438095D02*
X50145180Y59438095D01*
X50145180Y59438095D02*
X50145180Y59200000D01*
X50145180Y59200000D02*
X50097561Y59057143D01*
X50097561Y59057143D02*
X50002323Y58961905D01*
X50002323Y58961905D02*
X49907085Y58914286D01*
X49907085Y58914286D02*
X49716609Y58866667D01*
X49716609Y58866667D02*
X49573752Y58866667D01*
X49573752Y58866667D02*
X49383276Y58914286D01*
X49383276Y58914286D02*
X49288038Y58961905D01*
X49288038Y58961905D02*
X49192800Y59057143D01*
X49192800Y59057143D02*
X49145180Y59200000D01*
X49145180Y59200000D02*
X49145180Y59438095D01*
X49145180Y57914286D02*
X49145180Y58485714D01*
X49145180Y58200000D02*
X50145180Y58200000D01*
X50145180Y58200000D02*
X50002323Y58295238D01*
X50002323Y58295238D02*
X49907085Y58390476D01*
X49907085Y58390476D02*
X49859466Y58485714D01*
X49145180Y37938095D02*
X50145180Y37938095D01*
X50145180Y37938095D02*
X50145180Y37700000D01*
X50145180Y37700000D02*
X50097561Y37557143D01*
X50097561Y37557143D02*
X50002323Y37461905D01*
X50002323Y37461905D02*
X49907085Y37414286D01*
X49907085Y37414286D02*
X49716609Y37366667D01*
X49716609Y37366667D02*
X49573752Y37366667D01*
X49573752Y37366667D02*
X49383276Y37414286D01*
X49383276Y37414286D02*
X49288038Y37461905D01*
X49288038Y37461905D02*
X49192800Y37557143D01*
X49192800Y37557143D02*
X49145180Y37700000D01*
X49145180Y37700000D02*
X49145180Y37938095D01*
X49145180Y36414286D02*
X49145180Y36985714D01*
X49145180Y36700000D02*
X50145180Y36700000D01*
X50145180Y36700000D02*
X50002323Y36795238D01*
X50002323Y36795238D02*
X49907085Y36890476D01*
X49907085Y36890476D02*
X49859466Y36985714D01*
D13*
%TO.C,J1_6*%
X42851100Y34560000D02*
X42851100Y32580000D01*
X42851100Y30420000D02*
X42851100Y29350000D01*
X42851100Y29350000D02*
X45141100Y29350000D01*
X48461100Y29350000D02*
X50751100Y29350000D01*
X50751100Y34560000D02*
X42851100Y34560000D01*
X50751100Y32580000D02*
X50751100Y34560000D01*
X50751100Y29350000D02*
X50751100Y30420000D01*
D14*
X50531100Y28560000D02*
G75*
G02*
X50471100Y28560000I-30000J0D01*
G01*
X50471100Y28560000D02*
G75*
G02*
X50531100Y28560000I30000J0D01*
G01*
D15*
D13*
%TO.C,J1_2*%
X42851100Y77560000D02*
X42851100Y75580000D01*
X42851100Y73420000D02*
X42851100Y72350000D01*
X42851100Y72350000D02*
X45141100Y72350000D01*
X48461100Y72350000D02*
X50751100Y72350000D01*
X50751100Y77560000D02*
X42851100Y77560000D01*
X50751100Y75580000D02*
X50751100Y77560000D01*
X50751100Y72350000D02*
X50751100Y73420000D01*
D14*
X50531100Y71560000D02*
G75*
G02*
X50471100Y71560000I-30000J0D01*
G01*
X50471100Y71560000D02*
G75*
G02*
X50531100Y71560000I30000J0D01*
G01*
D15*
D16*
%TO.C,D1_7*%
X27270000Y18200000D02*
X29270000Y18200000D01*
X28020000Y17500000D02*
X28620000Y17900000D01*
X28620000Y17900000D02*
X28620000Y17100000D01*
X28620000Y17100000D02*
X28020000Y17500000D01*
X29270000Y16800000D02*
X27270000Y16800000D01*
D15*
G36*
X28571600Y17110159D02*
G01*
X27986838Y17500000D01*
X28571600Y17889841D01*
X28571600Y17110159D01*
G37*
G36*
X28020000Y17000000D02*
G01*
X27820000Y17000000D01*
X27820000Y18000000D01*
X28020000Y18000000D01*
X28020000Y17000000D01*
G37*
D13*
%TO.C,J1_7*%
X21551100Y13060000D02*
X21551100Y11080000D01*
X21551100Y8920000D02*
X21551100Y7850000D01*
X21551100Y7850000D02*
X23841100Y7850000D01*
X27161100Y7850000D02*
X29451100Y7850000D01*
X29451100Y13060000D02*
X21551100Y13060000D01*
X29451100Y11080000D02*
X29451100Y13060000D01*
X29451100Y7850000D02*
X29451100Y8920000D01*
D14*
X29231100Y7060000D02*
G75*
G02*
X29171100Y7060000I-30000J0D01*
G01*
X29171100Y7060000D02*
G75*
G02*
X29231100Y7060000I30000J0D01*
G01*
D15*
D17*
%TO.C,TP1_5*%
X21300000Y37700000D02*
X23700000Y37700000D01*
X21300000Y35300000D02*
X21300000Y37700000D01*
X23700000Y37700000D02*
X23700000Y35300000D01*
X23700000Y35300000D02*
X21300000Y35300000D01*
D13*
%TO.C,J1_5*%
X21551100Y34560000D02*
X21551100Y32580000D01*
X21551100Y30420000D02*
X21551100Y29350000D01*
X21551100Y29350000D02*
X23841100Y29350000D01*
X27161100Y29350000D02*
X29451100Y29350000D01*
X29451100Y34560000D02*
X21551100Y34560000D01*
X29451100Y32580000D02*
X29451100Y34560000D01*
X29451100Y29350000D02*
X29451100Y30420000D01*
D14*
X29231100Y28560000D02*
G75*
G02*
X29171100Y28560000I-30000J0D01*
G01*
X29171100Y28560000D02*
G75*
G02*
X29231100Y28560000I30000J0D01*
G01*
D15*
D16*
%TO.C,D1_4*%
X48570000Y61200000D02*
X50570000Y61200000D01*
X49320000Y60500000D02*
X49920000Y60900000D01*
X49920000Y60900000D02*
X49920000Y60100000D01*
X49920000Y60100000D02*
X49320000Y60500000D01*
X50570000Y59800000D02*
X48570000Y59800000D01*
D15*
G36*
X49871600Y60110159D02*
G01*
X49286838Y60500000D01*
X49871600Y60889841D01*
X49871600Y60110159D01*
G37*
G36*
X49320000Y60000000D02*
G01*
X49120000Y60000000D01*
X49120000Y61000000D01*
X49320000Y61000000D01*
X49320000Y60000000D01*
G37*
D16*
%TO.C,D1_6*%
X48570000Y39700000D02*
X50570000Y39700000D01*
X49320000Y39000000D02*
X49920000Y39400000D01*
X49920000Y39400000D02*
X49920000Y38600000D01*
X49920000Y38600000D02*
X49320000Y39000000D01*
X50570000Y38300000D02*
X48570000Y38300000D01*
D15*
G36*
X49871600Y38610159D02*
G01*
X49286838Y39000000D01*
X49871600Y39389841D01*
X49871600Y38610159D01*
G37*
G36*
X49320000Y38500000D02*
G01*
X49120000Y38500000D01*
X49120000Y39500000D01*
X49320000Y39500000D01*
X49320000Y38500000D01*
G37*
D16*
%TO.C,D1_2*%
X48570000Y82700000D02*
X50570000Y82700000D01*
X49320000Y82000000D02*
X49920000Y82400000D01*
X49920000Y82400000D02*
X49920000Y81600000D01*
X49920000Y81600000D02*
X49320000Y82000000D01*
X50570000Y81300000D02*
X48570000Y81300000D01*
D15*
G36*
X49871600Y81610159D02*
G01*
X49286838Y82000000D01*
X49871600Y82389841D01*
X49871600Y81610159D01*
G37*
G36*
X49320000Y81500000D02*
G01*
X49120000Y81500000D01*
X49120000Y82500000D01*
X49320000Y82500000D01*
X49320000Y81500000D01*
G37*
D16*
%TO.C,D1_5*%
X27270000Y39700000D02*
X29270000Y39700000D01*
X28020000Y39000000D02*
X28620000Y39400000D01*
X28620000Y39400000D02*
X28620000Y38600000D01*
X28620000Y38600000D02*
X28020000Y39000000D01*
X29270000Y38300000D02*
X27270000Y38300000D01*
D15*
G36*
X28571600Y38610159D02*
G01*
X27986838Y39000000D01*
X28571600Y39389841D01*
X28571600Y38610159D01*
G37*
G36*
X28020000Y38500000D02*
G01*
X27820000Y38500000D01*
X27820000Y39500000D01*
X28020000Y39500000D01*
X28020000Y38500000D01*
G37*
D13*
%TO.C,J1_1*%
X21551100Y77560000D02*
X21551100Y75580000D01*
X21551100Y73420000D02*
X21551100Y72350000D01*
X21551100Y72350000D02*
X23841100Y72350000D01*
X27161100Y72350000D02*
X29451100Y72350000D01*
X29451100Y77560000D02*
X21551100Y77560000D01*
X29451100Y75580000D02*
X29451100Y77560000D01*
X29451100Y72350000D02*
X29451100Y73420000D01*
D14*
X29231100Y71560000D02*
G75*
G02*
X29171100Y71560000I-30000J0D01*
G01*
X29171100Y71560000D02*
G75*
G02*
X29231100Y71560000I30000J0D01*
G01*
D15*
D17*
%TO.C,TP1_1*%
X21300000Y80700000D02*
X23700000Y80700000D01*
X21300000Y78300000D02*
X21300000Y80700000D01*
X23700000Y80700000D02*
X23700000Y78300000D01*
X23700000Y78300000D02*
X21300000Y78300000D01*
D16*
%TO.C,D1_1*%
X27270000Y82700000D02*
X29270000Y82700000D01*
X28020000Y82000000D02*
X28620000Y82400000D01*
X28620000Y82400000D02*
X28620000Y81600000D01*
X28620000Y81600000D02*
X28020000Y82000000D01*
X29270000Y81300000D02*
X27270000Y81300000D01*
D15*
G36*
X28571600Y81610159D02*
G01*
X27986838Y82000000D01*
X28571600Y82389841D01*
X28571600Y81610159D01*
G37*
G36*
X28020000Y81500000D02*
G01*
X27820000Y81500000D01*
X27820000Y82500000D01*
X28020000Y82500000D01*
X28020000Y81500000D01*
G37*
D13*
%TO.C,J1_4*%
X42851100Y56060000D02*
X42851100Y54080000D01*
X42851100Y51920000D02*
X42851100Y50850000D01*
X42851100Y50850000D02*
X45141100Y50850000D01*
X48461100Y50850000D02*
X50751100Y50850000D01*
X50751100Y56060000D02*
X42851100Y56060000D01*
X50751100Y54080000D02*
X50751100Y56060000D01*
X50751100Y50850000D02*
X50751100Y51920000D01*
D14*
X50531100Y50060000D02*
G75*
G02*
X50471100Y50060000I-30000J0D01*
G01*
X50471100Y50060000D02*
G75*
G02*
X50531100Y50060000I30000J0D01*
G01*
D15*
D17*
%TO.C,TP1_2*%
X42600000Y80700000D02*
X45000000Y80700000D01*
X42600000Y78300000D02*
X42600000Y80700000D01*
X45000000Y80700000D02*
X45000000Y78300000D01*
X45000000Y78300000D02*
X42600000Y78300000D01*
%TO.C,TP1_4*%
X42600000Y59200000D02*
X45000000Y59200000D01*
X42600000Y56800000D02*
X42600000Y59200000D01*
X45000000Y59200000D02*
X45000000Y56800000D01*
X45000000Y56800000D02*
X42600000Y56800000D01*
%TO.C,TP1_6*%
X42600000Y37700000D02*
X45000000Y37700000D01*
X42600000Y35300000D02*
X42600000Y37700000D01*
X45000000Y37700000D02*
X45000000Y35300000D01*
X45000000Y35300000D02*
X42600000Y35300000D01*
%TO.C,TP1_3*%
X21300000Y59200000D02*
X23700000Y59200000D01*
X21300000Y56800000D02*
X21300000Y59200000D01*
X23700000Y59200000D02*
X23700000Y56800000D01*
X23700000Y56800000D02*
X21300000Y56800000D01*
%TO.C,TP1_7*%
X21300000Y16200000D02*
X23700000Y16200000D01*
X21300000Y13800000D02*
X21300000Y16200000D01*
X23700000Y16200000D02*
X23700000Y13800000D01*
X23700000Y13800000D02*
X21300000Y13800000D01*
D13*
%TO.C,J1_3*%
X21551100Y56060000D02*
X21551100Y54080000D01*
X21551100Y51920000D02*
X21551100Y50850000D01*
X21551100Y50850000D02*
X23841100Y50850000D01*
X27161100Y50850000D02*
X29451100Y50850000D01*
X29451100Y56060000D02*
X21551100Y56060000D01*
X29451100Y54080000D02*
X29451100Y56060000D01*
X29451100Y50850000D02*
X29451100Y51920000D01*
D14*
X29231100Y50060000D02*
G75*
G02*
X29171100Y50060000I-30000J0D01*
G01*
X29171100Y50060000D02*
G75*
G02*
X29231100Y50060000I30000J0D01*
G01*
D15*
D16*
%TO.C,D1_3*%
X27270000Y61200000D02*
X29270000Y61200000D01*
X28020000Y60500000D02*
X28620000Y60900000D01*
X28620000Y60900000D02*
X28620000Y60100000D01*
X28620000Y60100000D02*
X28020000Y60500000D01*
X29270000Y59800000D02*
X27270000Y59800000D01*
D15*
G36*
X28571600Y60110159D02*
G01*
X27986838Y60500000D01*
X28571600Y60889841D01*
X28571600Y60110159D01*
G37*
G36*
X28020000Y60000000D02*
G01*
X27820000Y60000000D01*
X27820000Y61000000D01*
X28020000Y61000000D01*
X28020000Y60000000D01*
G37*
%TD*%
%LPC*%
D18*
%TO.C,SW1_6*%
X52301100Y36600000D03*
D19*
X46801100Y36600000D03*
D20*
X46801100Y42500000D03*
X41801100Y40400000D03*
D18*
X41301100Y36600000D03*
D21*
X50291100Y42500000D03*
X38541100Y40400000D03*
%TD*%
D22*
%TO.C,J1_6*%
X48051100Y28900000D03*
X47551100Y28900000D03*
X47051100Y28900000D03*
X46551100Y28900000D03*
X46051100Y28900000D03*
X45551100Y28900000D03*
D23*
X43851100Y31500000D03*
X49751100Y31500000D03*
%TD*%
D22*
%TO.C,J1_2*%
X48051100Y71900000D03*
X47551100Y71900000D03*
X47051100Y71900000D03*
X46551100Y71900000D03*
X46051100Y71900000D03*
X45551100Y71900000D03*
D23*
X43851100Y74500000D03*
X49751100Y74500000D03*
%TD*%
D24*
%TO.C,D1_7*%
X29540000Y17500000D03*
X27000000Y17500000D03*
%TD*%
D25*
%TO.C,FIDF1*%
X7850000Y90150000D03*
%TD*%
D22*
%TO.C,J1_7*%
X26751100Y7400000D03*
X26251100Y7400000D03*
X25751100Y7400000D03*
X25251100Y7400000D03*
X24751100Y7400000D03*
X24251100Y7400000D03*
D23*
X22551100Y10000000D03*
X28451100Y10000000D03*
%TD*%
D26*
%TO.C,TP1_5*%
X22500000Y36500000D03*
%TD*%
D18*
%TO.C,SW1_2*%
X52301100Y79600000D03*
D19*
X46801100Y79600000D03*
D20*
X46801100Y85500000D03*
X41801100Y83400000D03*
D18*
X41301100Y79600000D03*
D21*
X50291100Y85500000D03*
X38541100Y83400000D03*
%TD*%
D18*
%TO.C,SW1_1*%
X31001100Y79600000D03*
D19*
X25501100Y79600000D03*
D20*
X25501100Y85500000D03*
X20501100Y83400000D03*
D18*
X20001100Y79600000D03*
D21*
X28991100Y85500000D03*
X17241100Y83400000D03*
%TD*%
D18*
%TO.C,SW1_7*%
X31001100Y15100000D03*
D19*
X25501100Y15100000D03*
D20*
X25501100Y21000000D03*
X20501100Y18900000D03*
D18*
X20001100Y15100000D03*
D21*
X28991100Y21000000D03*
X17241100Y18900000D03*
%TD*%
D22*
%TO.C,J1_5*%
X26751100Y28900000D03*
X26251100Y28900000D03*
X25751100Y28900000D03*
X25251100Y28900000D03*
X24751100Y28900000D03*
X24251100Y28900000D03*
D23*
X22551100Y31500000D03*
X28451100Y31500000D03*
%TD*%
D24*
%TO.C,D1_4*%
X50840000Y60500000D03*
X48300000Y60500000D03*
%TD*%
%TO.C,D1_6*%
X50840000Y39000000D03*
X48300000Y39000000D03*
%TD*%
D18*
%TO.C,SW1_5*%
X31001100Y36600000D03*
D19*
X25501100Y36600000D03*
D20*
X25501100Y42500000D03*
X20501100Y40400000D03*
D18*
X20001100Y36600000D03*
D21*
X28991100Y42500000D03*
X17241100Y40400000D03*
%TD*%
D24*
%TO.C,D1_2*%
X50840000Y82000000D03*
X48300000Y82000000D03*
%TD*%
%TO.C,D1_5*%
X29540000Y39000000D03*
X27000000Y39000000D03*
%TD*%
D22*
%TO.C,J1_1*%
X26751100Y71900000D03*
X26251100Y71900000D03*
X25751100Y71900000D03*
X25251100Y71900000D03*
X24751100Y71900000D03*
X24251100Y71900000D03*
D23*
X22551100Y74500000D03*
X28451100Y74500000D03*
%TD*%
D26*
%TO.C,TP1_1*%
X22500000Y79500000D03*
%TD*%
D24*
%TO.C,D1_1*%
X29540000Y82000000D03*
X27000000Y82000000D03*
%TD*%
D18*
%TO.C,SW1_4*%
X52301100Y58100000D03*
D19*
X46801100Y58100000D03*
D20*
X46801100Y64000000D03*
X41801100Y61900000D03*
D18*
X41301100Y58100000D03*
D21*
X50291100Y64000000D03*
X38541100Y61900000D03*
%TD*%
D22*
%TO.C,J1_4*%
X48051100Y50400000D03*
X47551100Y50400000D03*
X47051100Y50400000D03*
X46551100Y50400000D03*
X46051100Y50400000D03*
X45551100Y50400000D03*
D23*
X43851100Y53000000D03*
X49751100Y53000000D03*
%TD*%
D26*
%TO.C,TP1_2*%
X43800000Y79500000D03*
%TD*%
D25*
%TO.C,FIDF2*%
X62150000Y90150000D03*
%TD*%
D26*
%TO.C,TP1_4*%
X43800000Y58000000D03*
%TD*%
%TO.C,TP1_6*%
X43800000Y36500000D03*
%TD*%
D25*
%TO.C,FIDF3*%
X7850000Y3850000D03*
%TD*%
D26*
%TO.C,TP1_3*%
X22500000Y58000000D03*
%TD*%
%TO.C,TP1_7*%
X22500000Y15000000D03*
%TD*%
D22*
%TO.C,J1_3*%
X26751100Y50400000D03*
X26251100Y50400000D03*
X25751100Y50400000D03*
X25251100Y50400000D03*
X24751100Y50400000D03*
X24251100Y50400000D03*
D23*
X22551100Y53000000D03*
X28451100Y53000000D03*
%TD*%
D18*
%TO.C,SW1_3*%
X31001100Y58100000D03*
D19*
X25501100Y58100000D03*
D20*
X25501100Y64000000D03*
X20501100Y61900000D03*
D18*
X20001100Y58100000D03*
D21*
X28991100Y64000000D03*
X17241100Y61900000D03*
%TD*%
D24*
%TO.C,D1_3*%
X29540000Y60500000D03*
X27000000Y60500000D03*
%TD*%
%LPD*%
M02*
