M48
; DRILL file {KiCad 9.0.8-4-g1ee99dff} date 2026-10-03T17:29:06-0600
; FORMAT={-:-/ absolute / metric / decimal}
; #@! TF.CreationDate,2026-10-03T17:29:06-06:00
; #@! TF.GenerationSoftware,Kicad,Pcbnew,9.0.8-4-g1ee99dff
; #@! TF.FileFunction,NonPlated,1,2,NPTH
FMAT,2
METRIC
; #@! TA.AperFunction,NonPlated,NPTH,ComponentDrill
T1C0.600
; #@! TA.AperFunction,NonPlated,NPTH,ComponentDrill
T2C1.900
; #@! TA.AperFunction,NonPlated,NPTH,ComponentDrill
T3C2.000
; #@! TA.AperFunction,NonPlated,NPTH,ComponentDrill
T4C3.000
; #@! TA.AperFunction,NonPlated,NPTH,ComponentDrill
T5C3.400
%
G90
G05
T1
X15.7Y81.25
X15.7Y80.25
X15.7Y79.25
X15.7Y78.25
X15.7Y77.25
X15.7Y59.75
X15.7Y58.75
X15.7Y57.75
X15.7Y56.75
X15.7Y55.75
X15.7Y38.25
X15.7Y37.25
X15.7Y36.25
X15.7Y35.25
X15.7Y34.25
X15.7Y16.75
X15.7Y15.75
X15.7Y14.75
X15.7Y13.75
X15.7Y12.75
X33.0Y81.25
X33.0Y80.25
X33.0Y79.25
X33.0Y78.25
X33.0Y77.25
X33.0Y59.75
X33.0Y58.75
X33.0Y57.75
X33.0Y56.75
X33.0Y55.75
X33.0Y38.25
X33.0Y37.25
X33.0Y36.25
X33.0Y35.25
X33.0Y34.25
X33.0Y16.75
X33.0Y15.75
X33.0Y14.75
X33.0Y13.75
X33.0Y12.75
X37.0Y81.25
X37.0Y80.25
X37.0Y79.25
X37.0Y78.25
X37.0Y77.25
X37.0Y59.75
X37.0Y58.75
X37.0Y57.75
X37.0Y56.75
X37.0Y55.75
X37.0Y38.25
X37.0Y37.25
X37.0Y36.25
X37.0Y35.25
X37.0Y34.25
X54.3Y81.25
X54.3Y80.25
X54.3Y79.25
X54.3Y78.25
X54.3Y77.25
X54.3Y59.75
X54.3Y58.75
X54.3Y57.75
X54.3Y56.75
X54.3Y55.75
X54.3Y38.25
X54.3Y37.25
X54.3Y36.25
X54.3Y35.25
X54.3Y34.25
T2
X20.001Y79.6
X20.001Y58.1
X20.001Y36.6
X20.001Y15.1
X31.001Y79.6
X31.001Y58.1
X31.001Y36.6
X31.001Y15.1
X41.301Y79.6
X41.301Y58.1
X41.301Y36.6
X52.301Y79.6
X52.301Y58.1
X52.301Y36.6
T3
X3.85Y90.15
X3.85Y3.85
X66.15Y90.15
T4
X20.501Y83.4
X20.501Y61.9
X20.501Y40.4
X20.501Y18.9
X25.501Y85.5
X25.501Y64.0
X25.501Y42.5
X25.501Y21.0
X41.801Y83.4
X41.801Y61.9
X41.801Y40.4
X46.801Y85.5
X46.801Y64.0
X46.801Y42.5
T5
X25.501Y79.6
X25.501Y58.1
X25.501Y36.6
X25.501Y15.1
X46.801Y79.6
X46.801Y58.1
X46.801Y36.6
M30
