%TF.GenerationSoftware,KiCad,Pcbnew,9.0.8-4-g1ee99dff*%
%TF.CreationDate,2026-10-03T17:29:06-06:00*%
%TF.ProjectId,chocPcb-7up,63686f63-5063-4622-9d37-75702e6b6963,rev?*%
%TF.SameCoordinates,Original*%
%TF.FileFunction,Profile,NP*%
%FSLAX46Y46*%
G04 Gerber Fmt 4.6, Leading zero omitted, Abs format (unit mm)*
G04 Created by KiCad (PCBNEW 9.0.8-4-g1ee99dff) date 2026-10-03 17:29:06*
%MOMM*%
%LPD*%
G01*
G04 APERTURE LIST*
%TA.AperFunction,Profile*%
%ADD10C,0.050000*%
%TD*%
G04 APERTURE END LIST*
D10*
X0Y94000000D02*
X70000000Y94000000D01*
X0Y0D02*
X0Y94000000D01*
X13699999Y90000000D02*
X13699999Y81750000D01*
X13699999Y81750000D02*
X15699999Y81750000D01*
X13699999Y76750000D02*
X13699999Y68500000D01*
X13699999Y68500000D02*
X13699999Y60250000D01*
X13699999Y60250000D02*
X15699999Y60250000D01*
X13699999Y55250000D02*
X13699999Y47000000D01*
X13699999Y47000000D02*
X13699999Y38750000D01*
X13699999Y38750000D02*
X15699999Y38750000D01*
X13699999Y33750000D02*
X13699999Y25500000D01*
X13699999Y25500000D02*
X13699999Y17250000D01*
X13699999Y17250000D02*
X15699999Y17250000D01*
X13699999Y12250000D02*
X13699999Y4000000D01*
X13699999Y4000000D02*
X35000000Y4000000D01*
X15699999Y88000000D02*
X33000000Y88000000D01*
X15699999Y81750000D02*
X15699999Y88000000D01*
X15699999Y76750000D02*
X13699999Y76750000D01*
X15699999Y70500000D02*
X15699999Y76750000D01*
X15699999Y66500000D02*
X33000000Y66500000D01*
X15699999Y60250000D02*
X15699999Y66500000D01*
X15699999Y55250000D02*
X13699999Y55250000D01*
X15699999Y49000000D02*
X15699999Y55250000D01*
X15699999Y45000000D02*
X33000000Y45000000D01*
X15699999Y38750000D02*
X15699999Y45000000D01*
X15699999Y33750000D02*
X13699999Y33750000D01*
X15699999Y27500000D02*
X15699999Y33750000D01*
X15699999Y23500000D02*
X33000000Y23500000D01*
X15699999Y17250000D02*
X15699999Y23500000D01*
X15699999Y12250000D02*
X13699999Y12250000D01*
X15699999Y6000000D02*
X15699999Y12250000D01*
X33000000Y88000000D02*
X33000000Y81750000D01*
X33000000Y81750000D02*
X35000000Y81750000D01*
X33000000Y76750000D02*
X33000000Y70500000D01*
X33000000Y70500000D02*
X15699999Y70500000D01*
X33000000Y66500000D02*
X33000000Y60250000D01*
X33000000Y60250000D02*
X35000000Y60250000D01*
X33000000Y55250000D02*
X33000000Y49000000D01*
X33000000Y49000000D02*
X15699999Y49000000D01*
X33000000Y45000000D02*
X33000000Y38750000D01*
X33000000Y38750000D02*
X35000000Y38750000D01*
X33000000Y33750000D02*
X33000000Y27500000D01*
X33000000Y27500000D02*
X15699999Y27500000D01*
X33000000Y23500000D02*
X33000000Y17250000D01*
X33000000Y17250000D02*
X35000000Y17250000D01*
X33000000Y12250000D02*
X33000000Y6000000D01*
X33000000Y6000000D02*
X15699999Y6000000D01*
X35000000Y90000000D02*
X13699999Y90000000D01*
X35000000Y81750000D02*
X37000000Y81750000D01*
X35000000Y76750000D02*
X33000000Y76750000D01*
X35000000Y60250000D02*
X37000000Y60250000D01*
X35000000Y55250000D02*
X33000000Y55250000D01*
X35000000Y38750000D02*
X37000000Y38750000D01*
X35000000Y33750000D02*
X33000000Y33750000D01*
X35000000Y25500000D02*
X56300000Y25500000D01*
X35000000Y17250000D02*
X35000000Y25500000D01*
X35000000Y12250000D02*
X33000000Y12250000D01*
X35000000Y4000000D02*
X35000000Y12250000D01*
X37000000Y88000000D02*
X54300000Y88000000D01*
X37000000Y81750000D02*
X37000000Y88000000D01*
X37000000Y76750000D02*
X35000000Y76750000D01*
X37000000Y70500000D02*
X37000000Y76750000D01*
X37000000Y66500000D02*
X54300000Y66500000D01*
X37000000Y60250000D02*
X37000000Y66500000D01*
X37000000Y55250000D02*
X35000000Y55250000D01*
X37000000Y49000000D02*
X37000000Y55250000D01*
X37000000Y45000000D02*
X54300000Y45000000D01*
X37000000Y38750000D02*
X37000000Y45000000D01*
X37000000Y33750000D02*
X35000000Y33750000D01*
X37000000Y27500000D02*
X37000000Y33750000D01*
X54300000Y88000000D02*
X54300000Y81750000D01*
X54300000Y81750000D02*
X56300000Y81750000D01*
X54300000Y76750000D02*
X54300000Y70500000D01*
X54300000Y70500000D02*
X37000000Y70500000D01*
X54300000Y66500000D02*
X54300000Y60250000D01*
X54300000Y60250000D02*
X56300000Y60250000D01*
X54300000Y55250000D02*
X54300000Y49000000D01*
X54300000Y49000000D02*
X37000000Y49000000D01*
X54300000Y45000000D02*
X54300000Y38750000D01*
X54300000Y38750000D02*
X56300000Y38750000D01*
X54300000Y33750000D02*
X54300000Y27500000D01*
X54300000Y27500000D02*
X37000000Y27500000D01*
X56300000Y90000000D02*
X35000000Y90000000D01*
X56300000Y81750000D02*
X56300000Y90000000D01*
X56300000Y76750000D02*
X54300000Y76750000D01*
X56300000Y68500000D02*
X56300000Y76750000D01*
X56300000Y60250000D02*
X56300000Y68500000D01*
X56300000Y55250000D02*
X54300000Y55250000D01*
X56300000Y47000000D02*
X56300000Y55250000D01*
X56300000Y38750000D02*
X56300000Y47000000D01*
X56300000Y33750000D02*
X54300000Y33750000D01*
X56300000Y25500000D02*
X56300000Y33750000D01*
X70000000Y94000000D02*
X70000000Y0D01*
X70000000Y0D02*
X0Y0D01*
M02*
