%TF.GenerationSoftware,KiCad,Pcbnew,9.0.8-4-g1ee99dff*%
%TF.CreationDate,2026-10-03T17:29:06-06:00*%
%TF.ProjectId,chocPcb-7up,63686f63-5063-4622-9d37-75702e6b6963,rev?*%
%TF.SameCoordinates,Original*%
%TF.FileFunction,Paste,Top*%
%TF.FilePolarity,Positive*%
%FSLAX46Y46*%
G04 Gerber Fmt 4.6, Leading zero omitted, Abs format (unit mm)*
G04 Created by KiCad (PCBNEW 9.0.8-4-g1ee99dff) date 2026-10-03 17:29:06*
%MOMM*%
%LPD*%
G01*
G04 APERTURE LIST*
%ADD10R,2.550000X2.500000*%
%ADD11R,0.250000X1.500000*%
%ADD12R,2.000000X1.700000*%
%ADD13R,1.350000X0.800000*%
G04 APERTURE END LIST*
D10*
%TO.C,SW1_6*%
X50291100Y42500000D03*
X38541100Y40400000D03*
%TD*%
D11*
%TO.C,J1_6*%
X48051100Y28900000D03*
X47551100Y28900000D03*
X47051100Y28900000D03*
X46551100Y28900000D03*
X46051100Y28900000D03*
X45551100Y28900000D03*
D12*
X43851100Y31500000D03*
X49751100Y31500000D03*
%TD*%
D11*
%TO.C,J1_2*%
X48051100Y71900000D03*
X47551100Y71900000D03*
X47051100Y71900000D03*
X46551100Y71900000D03*
X46051100Y71900000D03*
X45551100Y71900000D03*
D12*
X43851100Y74500000D03*
X49751100Y74500000D03*
%TD*%
D13*
%TO.C,D1_7*%
X29540000Y17500000D03*
X27000000Y17500000D03*
%TD*%
D11*
%TO.C,J1_7*%
X26751100Y7400000D03*
X26251100Y7400000D03*
X25751100Y7400000D03*
X25251100Y7400000D03*
X24751100Y7400000D03*
X24251100Y7400000D03*
D12*
X22551100Y10000000D03*
X28451100Y10000000D03*
%TD*%
D10*
%TO.C,SW1_2*%
X50291100Y85500000D03*
X38541100Y83400000D03*
%TD*%
%TO.C,SW1_1*%
X28991100Y85500000D03*
X17241100Y83400000D03*
%TD*%
%TO.C,SW1_7*%
X28991100Y21000000D03*
X17241100Y18900000D03*
%TD*%
D11*
%TO.C,J1_5*%
X26751100Y28900000D03*
X26251100Y28900000D03*
X25751100Y28900000D03*
X25251100Y28900000D03*
X24751100Y28900000D03*
X24251100Y28900000D03*
D12*
X22551100Y31500000D03*
X28451100Y31500000D03*
%TD*%
D13*
%TO.C,D1_4*%
X50840000Y60500000D03*
X48300000Y60500000D03*
%TD*%
%TO.C,D1_6*%
X50840000Y39000000D03*
X48300000Y39000000D03*
%TD*%
D10*
%TO.C,SW1_5*%
X28991100Y42500000D03*
X17241100Y40400000D03*
%TD*%
D13*
%TO.C,D1_2*%
X50840000Y82000000D03*
X48300000Y82000000D03*
%TD*%
%TO.C,D1_5*%
X29540000Y39000000D03*
X27000000Y39000000D03*
%TD*%
D11*
%TO.C,J1_1*%
X26751100Y71900000D03*
X26251100Y71900000D03*
X25751100Y71900000D03*
X25251100Y71900000D03*
X24751100Y71900000D03*
X24251100Y71900000D03*
D12*
X22551100Y74500000D03*
X28451100Y74500000D03*
%TD*%
D13*
%TO.C,D1_1*%
X29540000Y82000000D03*
X27000000Y82000000D03*
%TD*%
D10*
%TO.C,SW1_4*%
X50291100Y64000000D03*
X38541100Y61900000D03*
%TD*%
D11*
%TO.C,J1_4*%
X48051100Y50400000D03*
X47551100Y50400000D03*
X47051100Y50400000D03*
X46551100Y50400000D03*
X46051100Y50400000D03*
X45551100Y50400000D03*
D12*
X43851100Y53000000D03*
X49751100Y53000000D03*
%TD*%
D11*
%TO.C,J1_3*%
X26751100Y50400000D03*
X26251100Y50400000D03*
X25751100Y50400000D03*
X25251100Y50400000D03*
X24751100Y50400000D03*
X24251100Y50400000D03*
D12*
X22551100Y53000000D03*
X28451100Y53000000D03*
%TD*%
D10*
%TO.C,SW1_3*%
X28991100Y64000000D03*
X17241100Y61900000D03*
%TD*%
D13*
%TO.C,D1_3*%
X29540000Y60500000D03*
X27000000Y60500000D03*
%TD*%
M02*
