%TF.GenerationSoftware,KiCad,Pcbnew,9.0.8-4-g1ee99dff*%
%TF.CreationDate,2026-10-03T17:29:06-06:00*%
%TF.ProjectId,chocPcb-7up,63686f63-5063-4622-9d37-75702e6b6963,rev?*%
%TF.SameCoordinates,Original*%
%TF.FileFunction,Soldermask,Bot*%
%TF.FilePolarity,Negative*%
%FSLAX46Y46*%
G04 Gerber Fmt 4.6, Leading zero omitted, Abs format (unit mm)*
G04 Created by KiCad (PCBNEW 9.0.8-4-g1ee99dff) date 2026-10-03 17:29:06*
%MOMM*%
%LPD*%
G01*
G04 APERTURE LIST*
G04 Aperture macros list*
%AMRoundRect*
0 Rectangle with rounded corners*
0 $1 Rounding radius*
0 $2 $3 $4 $5 $6 $7 $8 $9 X,Y pos of 4 corners*
0 Add a 4 corners polygon primitive as box body*
4,1,4,$2,$3,$4,$5,$6,$7,$8,$9,$2,$3,0*
0 Add four circle primitives for the rounded corners*
1,1,$1+$1,$2,$3*
1,1,$1+$1,$4,$5*
1,1,$1+$1,$6,$7*
1,1,$1+$1,$8,$9*
0 Add four rect primitives between the rounded corners*
20,1,$1+$1,$2,$3,$4,$5,0*
20,1,$1+$1,$4,$5,$6,$7,0*
20,1,$1+$1,$6,$7,$8,$9,0*
20,1,$1+$1,$8,$9,$2,$3,0*%
G04 Aperture macros list end*
%ADD10C,1.900000*%
%ADD11C,3.400000*%
%ADD12C,3.000000*%
%ADD13R,0.700000X0.700000*%
%ADD14C,2.000000*%
%ADD15RoundRect,0.140000X0.170000X-0.140000X0.170000X0.140000X-0.170000X0.140000X-0.170000X-0.140000X0*%
G04 APERTURE END LIST*
D10*
%TO.C,SW1_6*%
X52301100Y36600000D03*
D11*
X46801100Y36600000D03*
D12*
X46801100Y42500000D03*
X41801100Y40400000D03*
D10*
X41301100Y36600000D03*
%TD*%
%TO.C,SW1_2*%
X52301100Y79600000D03*
D11*
X46801100Y79600000D03*
D12*
X46801100Y85500000D03*
X41801100Y83400000D03*
D10*
X41301100Y79600000D03*
%TD*%
%TO.C,SW1_1*%
X31001100Y79600000D03*
D11*
X25501100Y79600000D03*
D12*
X25501100Y85500000D03*
X20501100Y83400000D03*
D10*
X20001100Y79600000D03*
%TD*%
%TO.C,SW1_7*%
X31001100Y15100000D03*
D11*
X25501100Y15100000D03*
D12*
X25501100Y21000000D03*
X20501100Y18900000D03*
D10*
X20001100Y15100000D03*
%TD*%
%TO.C,SW1_5*%
X31001100Y36600000D03*
D11*
X25501100Y36600000D03*
D12*
X25501100Y42500000D03*
X20501100Y40400000D03*
D10*
X20001100Y36600000D03*
%TD*%
%TO.C,SW1_4*%
X52301100Y58100000D03*
D11*
X46801100Y58100000D03*
D12*
X46801100Y64000000D03*
X41801100Y61900000D03*
D10*
X41301100Y58100000D03*
%TD*%
%TO.C,SW1_3*%
X31001100Y58100000D03*
D11*
X25501100Y58100000D03*
D12*
X25501100Y64000000D03*
X20501100Y61900000D03*
D10*
X20001100Y58100000D03*
%TD*%
D13*
%TO.C,LED1_6*%
X45800000Y31400000D03*
X45800000Y32500000D03*
X47630000Y32500000D03*
X47630000Y31400000D03*
%TD*%
%TO.C,LED1_2*%
X45800000Y74400000D03*
X45800000Y75500000D03*
X47630000Y75500000D03*
X47630000Y74400000D03*
%TD*%
D14*
%TO.C,FIDB2*%
X62150000Y90150000D03*
%TD*%
D13*
%TO.C,LED1_7*%
X24500000Y9900000D03*
X24500000Y11000000D03*
X26330000Y11000000D03*
X26330000Y9900000D03*
%TD*%
D15*
%TO.C,C1_7*%
X27500000Y10040000D03*
X27500000Y11000000D03*
%TD*%
D14*
%TO.C,FIDB1*%
X7850000Y90150000D03*
%TD*%
D15*
%TO.C,C1_1*%
X27500000Y74540000D03*
X27500000Y75500000D03*
%TD*%
D13*
%TO.C,LED1_5*%
X24500000Y31400000D03*
X24500000Y32500000D03*
X26330000Y32500000D03*
X26330000Y31400000D03*
%TD*%
D15*
%TO.C,C1_4*%
X48800000Y53040000D03*
X48800000Y54000000D03*
%TD*%
D13*
%TO.C,LED1_3*%
X24500000Y52900000D03*
X24500000Y54000000D03*
X26330000Y54000000D03*
X26330000Y52900000D03*
%TD*%
%TO.C,LED1_4*%
X45800000Y52900000D03*
X45800000Y54000000D03*
X47630000Y54000000D03*
X47630000Y52900000D03*
%TD*%
D14*
%TO.C,FIDB3*%
X7850000Y3850000D03*
%TD*%
D13*
%TO.C,LED1_1*%
X24500000Y74400000D03*
X24500000Y75500000D03*
X26330000Y75500000D03*
X26330000Y74400000D03*
%TD*%
D15*
%TO.C,C1_5*%
X27500000Y31540000D03*
X27500000Y32500000D03*
%TD*%
%TO.C,C1_6*%
X48800000Y31540000D03*
X48800000Y32500000D03*
%TD*%
%TO.C,C1_2*%
X48800000Y74540000D03*
X48800000Y75500000D03*
%TD*%
%TO.C,C1_3*%
X27500000Y53040000D03*
X27500000Y54000000D03*
%TD*%
M02*
