M48
; DRILL file {KiCad 9.0.8-4-g1ee99dff} date 2026-10-03T17:29:06-0600
; FORMAT={-:-/ absolute / metric / decimal}
; #@! TF.CreationDate,2026-10-03T17:29:06-06:00
; #@! TF.GenerationSoftware,Kicad,Pcbnew,9.0.8-4-g1ee99dff
; #@! TF.FileFunction,Plated,1,2,PTH
FMAT,2
METRIC
; #@! TA.AperFunction,Plated,PTH,ViaDrill
T1C0.350
%
G90
G05
T1
X23.795Y72.963
X23.795Y51.463
X23.795Y29.963
X23.795Y8.463
X24.5Y82.0
X24.5Y60.5
X24.5Y39.0
X24.5Y17.5
X24.625Y73.11
X24.625Y51.61
X24.625Y30.11
X24.625Y8.61
X25.373Y74.75
X25.373Y53.25
X25.373Y31.75
X25.373Y10.25
X25.503Y75.63
X25.503Y54.13
X25.503Y32.63
X25.503Y11.13
X25.875Y73.537
X25.875Y52.037
X25.875Y30.537
X25.875Y9.037
X45.095Y72.963
X45.095Y51.463
X45.095Y29.963
X45.8Y82.0
X45.8Y60.5
X45.8Y39.0
X45.925Y73.11
X45.925Y51.61
X45.925Y30.11
X46.673Y74.75
X46.673Y53.25
X46.673Y31.75
X46.803Y75.63
X46.803Y54.13
X46.803Y32.63
X47.175Y73.537
X47.175Y52.037
X47.175Y30.537
M30
