#VRML V2.0 utf8
# Photo-estimated visualization, not a manufacturer dimensional model.
# Generated for mainboard reconstruction, 2026-10-07. Coordinates use KiCad VRML units.
Transform { translation 0.0000000 0.0000000 0.8661417  children [ Shape { appearance Appearance { material Material { diffuseColor 0.055 0.06 0.065 specularColor 0.15 0.15 0.15 shininess 0.25 } } geometry Box { size 2.6377953 2.6377953 1.6141732 } } ] }
Transform { translation -1.3779528 0.0000000 0.8267717  children [ Shape { appearance Appearance { material Material { diffuseColor 0.9 0.88 0.78 specularColor 0.15 0.15 0.15 shininess 0.25 } } geometry Box { size 0.7086614 0.9448819 0.9842520 } } ] }
Transform { translation -1.7913386 0.0000000 0.8267717  children [ Shape { appearance Appearance { material Material { diffuseColor 0.9 0.88 0.78 specularColor 0.15 0.15 0.15 shininess 0.25 } } geometry Box { size 0.2755906 0.9448819 0.9842520 } } ] }
Transform { translation 0.2755906 1.2795276 0.0472441  children [ Shape { appearance Appearance { material Material { diffuseColor 0.72 0.73 0.74 specularColor 0.15 0.15 0.15 shininess 0.25 } } geometry Box { size 0.2952756 0.4527559 0.0944882 } } ] }
Transform { translation 0.2755906 -1.2795276 0.0472441  children [ Shape { appearance Appearance { material Material { diffuseColor 0.72 0.73 0.74 specularColor 0.15 0.15 0.15 shininess 0.25 } } geometry Box { size 0.2952756 0.4527559 0.0944882 } } ] }
Transform { translation -0.5118110 1.2795276 0.0472441  children [ Shape { appearance Appearance { material Material { diffuseColor 0.72 0.73 0.74 specularColor 0.15 0.15 0.15 shininess 0.25 } } geometry Box { size 0.2952756 0.4527559 0.0944882 } } ] }
Transform { translation -0.5118110 -1.2795276 0.0472441  children [ Shape { appearance Appearance { material Material { diffuseColor 0.72 0.73 0.74 specularColor 0.15 0.15 0.15 shininess 0.25 } } geometry Box { size 0.2952756 0.4527559 0.0944882 } } ] }
