%TF.GenerationSoftware,KiCad,Pcbnew,9.0.8+dfsg-1*%
%TF.CreationDate,2026-10-04T13:19:08-06:00*%
%TF.ProjectId,columnBreakout,636f6c75-6d6e-4427-9265-616b6f75742e,rev?*%
%TF.SameCoordinates,Original*%
%TF.FileFunction,Copper,L2,Bot*%
%TF.FilePolarity,Positive*%
%FSLAX46Y46*%
G04 Gerber Fmt 4.6, Leading zero omitted, Abs format (unit mm)*
G04 Created by KiCad (PCBNEW 9.0.8+dfsg-1) date 2026-10-04 13:19:08*
%MOMM*%
%LPD*%
G01*
G04 APERTURE LIST*
%TA.AperFunction,ViaPad*%
%ADD10C,0.450000*%
%TD*%
%TA.AperFunction,Conductor*%
%ADD11C,0.500000*%
%TD*%
%TA.AperFunction,Conductor*%
%ADD12C,0.200000*%
%TD*%
G04 APERTURE END LIST*
D10*
%TO.N,/GND*%
X154777796Y-97400450D03*
X153770878Y-72203666D03*
X153800000Y-79100000D03*
X153800000Y-88250000D03*
X153775147Y-54012427D03*
X153800000Y-60900000D03*
X153800000Y-45650000D03*
%TO.N,/IN0*%
X155750000Y-97400000D03*
X154700000Y-44950000D03*
%TO.N,/R0*%
X152700000Y-44968001D03*
X151650000Y-99625002D03*
%TO.N,/R1*%
X152264124Y-53985876D03*
X151766965Y-96544079D03*
%TO.N,/R2*%
X152475000Y-63209186D03*
X152250000Y-97400000D03*
%TO.N,/VDD*%
X153100000Y-45650000D03*
X153100000Y-79100000D03*
X153100000Y-88250000D03*
X154152799Y-97398250D03*
X153102479Y-72202253D03*
X153102479Y-54002253D03*
X153100000Y-60900000D03*
%TD*%
D11*
%TO.N,/GND*%
X154802799Y-97129012D02*
X154802799Y-97402799D01*
X153800000Y-45650000D02*
X153800000Y-94100000D01*
X154800000Y-97126213D02*
X154802799Y-97129012D01*
X154800000Y-95100000D02*
X154800000Y-97126213D01*
X153800000Y-94100000D02*
X154800000Y-95100000D01*
D12*
%TO.N,/IN0*%
X155750000Y-97400000D02*
X155750000Y-94650000D01*
X154700000Y-93600000D02*
X154700000Y-44950000D01*
X155750000Y-94650000D02*
X154700000Y-93600000D01*
%TO.N,/R0*%
X155200000Y-92650000D02*
X155200000Y-44650000D01*
X155200000Y-44650000D02*
X155000000Y-44450000D01*
X151650000Y-99625002D02*
X154324998Y-99625002D01*
X153218001Y-44450000D02*
X152700000Y-44968001D01*
X156250000Y-97700000D02*
X156250000Y-93700000D01*
X156250000Y-93700000D02*
X155200000Y-92650000D01*
X155000000Y-44450000D02*
X153218001Y-44450000D01*
X154324998Y-99625002D02*
X156250000Y-97700000D01*
%TO.N,/R1*%
X152000000Y-54250000D02*
X152264124Y-53985876D01*
X151766965Y-96544079D02*
X152000000Y-96311044D01*
X152000000Y-96311044D02*
X152000000Y-54250000D01*
%TO.N,/R2*%
X152250000Y-96900000D02*
X152475000Y-96675000D01*
X152250000Y-97400000D02*
X152250000Y-96900000D01*
X152475000Y-96675000D02*
X152475000Y-63209186D01*
D11*
%TO.N,/VDD*%
X154150000Y-97395451D02*
X154150000Y-95475000D01*
X154150000Y-95475000D02*
X153100000Y-94425000D01*
X153100000Y-94425000D02*
X153100000Y-45650000D01*
X154152799Y-97398250D02*
X154150000Y-97395451D01*
%TD*%
M02*
