%TF.GenerationSoftware,KiCad,Pcbnew,9.0.8-4-g1ee99dff*%
%TF.CreationDate,2026-10-05T18:28:57-06:00*%
%TF.ProjectId,columnBreakout,636f6c75-6d6e-4427-9265-616b6f75742e,rev?*%
%TF.SameCoordinates,Original*%
%TF.FileFunction,Copper,L2,Bot*%
%TF.FilePolarity,Positive*%
%FSLAX46Y46*%
G04 Gerber Fmt 4.6, Leading zero omitted, Abs format (unit mm)*
G04 Created by KiCad (PCBNEW 9.0.8-4-g1ee99dff) date 2026-10-05 18:28:57*
%MOMM*%
%LPD*%
G01*
G04 APERTURE LIST*
%TA.AperFunction,ViaPad*%
%ADD10C,0.450000*%
%TD*%
%TA.AperFunction,Conductor*%
%ADD11C,0.500000*%
%TD*%
%TA.AperFunction,Conductor*%
%ADD12C,0.200000*%
%TD*%
%TA.AperFunction,Conductor*%
%ADD13C,0.150000*%
%TD*%
G04 APERTURE END LIST*
D10*
%TO.N,/GND*%
X154750000Y-96600000D03*
X153770878Y-72203666D03*
X167550000Y-54100000D03*
X167550000Y-72500000D03*
X167550000Y-63500000D03*
X167600000Y-90500000D03*
X153800000Y-81400000D03*
X153800000Y-88250000D03*
X153775147Y-54012427D03*
X167600000Y-45100000D03*
X153800000Y-60900000D03*
X153800000Y-45650000D03*
X167550000Y-81400000D03*
%TO.N,/R0*%
X151250000Y-102700000D03*
X152334001Y-45334001D03*
X151275000Y-96000000D03*
X161460876Y-98550000D03*
%TO.N,/R1*%
X151750000Y-102100000D03*
X152264124Y-53985876D03*
X162000000Y-97350000D03*
X151750000Y-96700000D03*
%TO.N,/R2*%
X162496752Y-96096752D03*
X152250000Y-101500000D03*
X152475000Y-63209186D03*
X152250000Y-97400000D03*
%TO.N,/R3*%
X152750000Y-101000000D03*
X162985876Y-94935876D03*
%TO.N,/R4*%
X153250000Y-100500000D03*
X163450000Y-93800000D03*
%TO.N,/R5*%
X166300000Y-92725000D03*
X153750000Y-99900000D03*
%TO.N,/VDD*%
X166900000Y-90500000D03*
X166900000Y-92050000D03*
X153100000Y-45650000D03*
X153154488Y-81433446D03*
X166950000Y-81400000D03*
X153100000Y-88250000D03*
X154152799Y-97398250D03*
X166950000Y-54100000D03*
X153102479Y-72202253D03*
X166950000Y-63500000D03*
X166950000Y-72500000D03*
X153102479Y-54002253D03*
X166900000Y-45100000D03*
X153100000Y-60900000D03*
%TO.N,/IN28*%
X155750000Y-95000000D03*
X154700000Y-44950000D03*
%TO.N,/IN40*%
X160750000Y-100000000D03*
X168050000Y-91600000D03*
%TO.N,/IN34*%
X162050000Y-52300000D03*
X155734347Y-89534347D03*
X154600000Y-90668694D03*
X160985876Y-53350000D03*
%TO.N,/IN35*%
X168300000Y-45250000D03*
X168300000Y-46850000D03*
%TD*%
D11*
%TO.N,/GND*%
X153800000Y-95849125D02*
X153800000Y-45650000D01*
X167350000Y-91300000D02*
X167600000Y-91050000D01*
X154750000Y-96600000D02*
X155450000Y-96600000D01*
X160750000Y-91300000D02*
X167350000Y-91300000D01*
X155450000Y-96600000D02*
X160750000Y-91300000D01*
X154550875Y-96600000D02*
X153800000Y-95849125D01*
X154750000Y-96600000D02*
X154550875Y-96600000D01*
X167600000Y-91050000D02*
X167600000Y-45100000D01*
D12*
%TO.N,/R0*%
X161460876Y-98550000D02*
X157310876Y-102700000D01*
X157310876Y-102700000D02*
X151250000Y-102700000D01*
X151275000Y-96000000D02*
X151275000Y-46393001D01*
X151275000Y-46393001D02*
X152334001Y-45334001D01*
%TO.N,/R1*%
X151766965Y-96683035D02*
X151766965Y-54483035D01*
X151750000Y-96700000D02*
X151766965Y-96683035D01*
X160985876Y-98353248D02*
X160985876Y-98364124D01*
X162000000Y-97350000D02*
X161275000Y-98075000D01*
X161275000Y-98075000D02*
X161264124Y-98075000D01*
X157250000Y-102100000D02*
X151750000Y-102100000D01*
X151766965Y-54483035D02*
X152264124Y-53985876D01*
X161264124Y-98075000D02*
X160985876Y-98353248D01*
X160985876Y-98364124D02*
X157250000Y-102100000D01*
%TO.N,/R2*%
X152250000Y-63434186D02*
X152475000Y-63209186D01*
X157093504Y-101500000D02*
X152250000Y-101500000D01*
X152250000Y-97400000D02*
X152250000Y-63434186D01*
X162496752Y-96096752D02*
X157093504Y-101500000D01*
%TO.N,/R3*%
X162985876Y-94935876D02*
X156921752Y-101000000D01*
X156921752Y-101000000D02*
X152750000Y-101000000D01*
%TO.N,/R4*%
X156750000Y-100500000D02*
X153250000Y-100500000D01*
X163450000Y-93800000D02*
X156750000Y-100500000D01*
D13*
%TO.N,/R5*%
X163875000Y-92725000D02*
X156700000Y-99900000D01*
X156700000Y-99900000D02*
X153750000Y-99900000D01*
X166300000Y-92725000D02*
X163875000Y-92725000D01*
D11*
%TO.N,/VDD*%
X166900000Y-90500000D02*
X166900000Y-45100000D01*
X161050000Y-92100000D02*
X155751750Y-97398250D01*
X166900000Y-92100000D02*
X161050000Y-92100000D01*
X153100000Y-96345451D02*
X153100000Y-45650000D01*
X154152799Y-97398250D02*
X153100000Y-96345451D01*
X166900000Y-92050000D02*
X166900000Y-92100000D01*
X155751750Y-97398250D02*
X154152799Y-97398250D01*
D12*
%TO.N,/IN28*%
X156200000Y-89740446D02*
X156209347Y-89731099D01*
X155750000Y-95000000D02*
X155750000Y-90300000D01*
X156209347Y-89731099D02*
X156209347Y-89337595D01*
X156200000Y-89200000D02*
X155750000Y-88750000D01*
X156200000Y-89850000D02*
X156200000Y-89740446D01*
X156200000Y-89328248D02*
X156200000Y-89200000D01*
X155750000Y-90300000D02*
X156200000Y-89850000D01*
X156209347Y-89337595D02*
X156200000Y-89328248D01*
X155750000Y-88750000D02*
X155750000Y-46000000D01*
X155750000Y-46000000D02*
X154700000Y-44950000D01*
D13*
%TO.N,/IN40*%
X168050000Y-92700000D02*
X168050000Y-91600000D01*
X160750000Y-100000000D02*
X168050000Y-92700000D01*
D12*
%TO.N,/IN34*%
X162050000Y-52300000D02*
X161000000Y-53350000D01*
X161000000Y-53350000D02*
X160985876Y-53350000D01*
X155734347Y-89534347D02*
X154600000Y-90668694D01*
D13*
%TO.N,/IN35*%
X168300000Y-45250000D02*
X168300000Y-46850000D01*
%TD*%
M02*
