M48
; DRILL file {KiCad 9.0.8+dfsg-1} date 2026-10-04T13:19:08-0600
; FORMAT={-:-/ absolute / inch / decimal}
; #@! TF.CreationDate,2026-10-04T13:19:08-06:00
; #@! TF.GenerationSoftware,Kicad,Pcbnew,9.0.8+dfsg-1
; #@! TF.FileFunction,Plated,1,2,PTH
FMAT,2
INCH
; #@! TA.AperFunction,Plated,PTH,ViaDrill
T1C0.0079
%
G90
G05
T1
X5.9705Y-3.9222
X5.9751Y-3.8009
X5.9941Y-3.8346
X5.9947Y-2.1254
X6.003Y-2.4886
X6.0118Y-1.7704
X6.0276Y-1.7972
X6.0276Y-2.3976
X6.0276Y-3.1142
X6.0276Y-3.4744
X6.0277Y-2.1261
X6.0277Y-2.8426
X6.054Y-2.8427
X6.0541Y-2.1265
X6.0551Y-1.7972
X6.0551Y-2.3976
X6.0551Y-3.1142
X6.0551Y-3.4744
X6.069Y-3.8346
X6.0906Y-1.7697
X6.0936Y-3.8347
X6.1319Y-3.8346
M30
