M48
; DRILL file {KiCad 9.0.8-4-g1ee99dff} date 2026-10-05T18:28:58-0600
; FORMAT={-:-/ absolute / metric / decimal}
; #@! TF.CreationDate,2026-10-05T18:28:58-06:00
; #@! TF.GenerationSoftware,Kicad,Pcbnew,9.0.8-4-g1ee99dff
; #@! TF.FileFunction,Plated,1,2,PTH
FMAT,2
METRIC
; #@! TA.AperFunction,Plated,PTH,ViaDrill
T1C0.200
%
G90
G05
T1
X151.25Y-102.7
X151.275Y-96.0
X151.75Y-96.7
X151.75Y-102.1
X152.25Y-97.4
X152.25Y-101.5
X152.264Y-53.986
X152.334Y-45.334
X152.475Y-63.209
X152.75Y-101.0
X153.1Y-45.65
X153.1Y-60.9
X153.1Y-88.25
X153.102Y-54.002
X153.102Y-72.202
X153.154Y-81.433
X153.25Y-100.5
X153.75Y-99.9
X153.771Y-72.204
X153.775Y-54.012
X153.8Y-45.65
X153.8Y-60.9
X153.8Y-81.4
X153.8Y-88.25
X154.153Y-97.398
X154.6Y-90.669
X154.7Y-44.95
X154.75Y-96.6
X155.734Y-89.534
X155.75Y-95.0
X160.75Y-100.0
X160.986Y-53.35
X161.461Y-98.55
X162.0Y-97.35
X162.05Y-52.3
X162.497Y-96.097
X162.986Y-94.936
X163.45Y-93.8
X166.3Y-92.725
X166.9Y-45.1
X166.9Y-90.5
X166.9Y-92.05
X166.95Y-54.1
X166.95Y-63.5
X166.95Y-72.5
X166.95Y-81.4
X167.55Y-54.1
X167.55Y-63.5
X167.55Y-72.5
X167.55Y-81.4
X167.6Y-45.1
X167.6Y-90.5
X168.05Y-91.6
X168.3Y-45.25
X168.3Y-46.85
M30
