%TF.GenerationSoftware,KiCad,Pcbnew,9.0.8+dfsg-1*%
%TF.CreationDate,2026-10-06T22:49:52-06:00*%
%TF.ProjectId,columnBreakout,636f6c75-6d6e-4427-9265-616b6f75742e,rev?*%
%TF.SameCoordinates,Original*%
%TF.FileFunction,Copper,L1,Top*%
%TF.FilePolarity,Positive*%
%FSLAX46Y46*%
G04 Gerber Fmt 4.6, Leading zero omitted, Abs format (unit mm)*
G04 Created by KiCad (PCBNEW 9.0.8+dfsg-1) date 2026-10-06 22:49:52*
%MOMM*%
%LPD*%
G01*
G04 APERTURE LIST*
%TA.AperFunction,SMDPad,CuDef*%
%ADD10R,0.250000X1.500000*%
%TD*%
%TA.AperFunction,SMDPad,CuDef*%
%ADD11R,2.000000X1.700000*%
%TD*%
%TA.AperFunction,SMDPad,CuDef*%
%ADD12R,0.300000X1.500000*%
%TD*%
%TA.AperFunction,ViaPad*%
%ADD13C,0.450000*%
%TD*%
%TA.AperFunction,Conductor*%
%ADD14C,0.150000*%
%TD*%
%TA.AperFunction,Conductor*%
%ADD15C,0.500000*%
%TD*%
%TA.AperFunction,Conductor*%
%ADD16C,0.300000*%
%TD*%
%TA.AperFunction,Conductor*%
%ADD17C,0.250000*%
%TD*%
G04 APERTURE END LIST*
D10*
%TO.P,J3,1,1*%
%TO.N,/R1*%
X152700000Y-53000000D03*
%TO.P,J3,2,2*%
%TO.N,/VDD*%
X153200000Y-53000000D03*
%TO.P,J3,3,3*%
%TO.N,/GND*%
X153700000Y-53000000D03*
%TO.P,J3,4,4*%
%TO.N,/IN30*%
X154200000Y-53000000D03*
%TO.P,J3,5,5*%
%TO.N,/IN29*%
X154700000Y-53000000D03*
%TO.P,J3,6,6*%
%TO.N,/C5*%
X155200000Y-53000000D03*
D11*
%TO.P,J3,7,7*%
%TO.N,unconnected-(J3-Pad7)*%
X156900000Y-55600000D03*
%TO.P,J3,8,8*%
%TO.N,unconnected-(J3-Pad8)*%
X151000000Y-55600000D03*
%TD*%
D10*
%TO.P,J2,1,1*%
%TO.N,/R0*%
X152700000Y-43900000D03*
%TO.P,J2,2,2*%
%TO.N,/VDD*%
X153200000Y-43900000D03*
%TO.P,J2,3,3*%
%TO.N,/GND*%
X153700000Y-43900000D03*
%TO.P,J2,4,4*%
%TO.N,/IN29*%
X154200000Y-43900000D03*
%TO.P,J2,5,5*%
%TO.N,/IN28*%
X154700000Y-43900000D03*
%TO.P,J2,6,6*%
%TO.N,/C5*%
X155200000Y-43900000D03*
D11*
%TO.P,J2,7,7*%
%TO.N,unconnected-(J2-Pad7)*%
X156900000Y-46500000D03*
%TO.P,J2,8,8*%
%TO.N,unconnected-(J2-Pad8)*%
X151000000Y-46500000D03*
%TD*%
D10*
%TO.P,J12,1,1*%
%TO.N,/R4*%
X166500000Y-80300000D03*
%TO.P,J12,2,2*%
%TO.N,/VDD*%
X167000000Y-80300000D03*
%TO.P,J12,3,3*%
%TO.N,/GND*%
X167500000Y-80300000D03*
%TO.P,J12,4,4*%
%TO.N,/IN39*%
X168000000Y-80300000D03*
%TO.P,J12,5,5*%
%TO.N,/IN38*%
X168500000Y-80300000D03*
%TO.P,J12,6,6*%
%TO.N,/C6*%
X169000000Y-80300000D03*
D11*
%TO.P,J12,7,7*%
%TO.N,unconnected-(J12-Pad7)*%
X170700000Y-82900000D03*
%TO.P,J12,8,8*%
%TO.N,unconnected-(J12-Pad8)*%
X164800000Y-82900000D03*
%TD*%
D12*
%TO.P,J1,1,1*%
%TO.N,/R0*%
X158200000Y-98500000D03*
%TO.P,J1,2,2*%
%TO.N,/R1*%
X158700000Y-98500000D03*
%TO.P,J1,3,3*%
%TO.N,/R2*%
X159200000Y-98500000D03*
%TO.P,J1,4,4*%
%TO.N,/R3*%
X159700000Y-98500000D03*
%TO.P,J1,5,5*%
%TO.N,/R4*%
X160200000Y-98500000D03*
%TO.P,J1,6,6*%
%TO.N,/R5*%
X160700000Y-98500000D03*
%TO.P,J1,7,7*%
%TO.N,/VDD*%
X161200000Y-98500000D03*
%TO.P,J1,8,8*%
%TO.N,/GND*%
X161700000Y-98500000D03*
%TO.P,J1,9,9*%
%TO.N,/IN40*%
X162200000Y-98500000D03*
%TO.P,J1,10,10*%
%TO.N,/IN28*%
X162700000Y-98500000D03*
%TO.P,J1,11,11*%
%TO.N,/C6*%
X163200000Y-98500000D03*
%TO.P,J1,12,12*%
%TO.N,/C5*%
X163700000Y-98500000D03*
D11*
%TO.P,J1,13,13*%
%TO.N,unconnected-(J1-Pad13)*%
X165400000Y-101100000D03*
%TO.P,J1,14,14*%
%TO.N,unconnected-(J1-Pad14)*%
X156500000Y-101100000D03*
%TD*%
D10*
%TO.P,J5,1,1*%
%TO.N,/R3*%
X152700000Y-71200000D03*
%TO.P,J5,2,2*%
%TO.N,/VDD*%
X153200000Y-71200000D03*
%TO.P,J5,3,3*%
%TO.N,/GND*%
X153700000Y-71200000D03*
%TO.P,J5,4,4*%
%TO.N,/IN32*%
X154200000Y-71200000D03*
%TO.P,J5,5,5*%
%TO.N,/IN31*%
X154700000Y-71200000D03*
%TO.P,J5,6,6*%
%TO.N,/C5*%
X155200000Y-71200000D03*
D11*
%TO.P,J5,7,7*%
%TO.N,unconnected-(J5-Pad7)*%
X156900000Y-73800000D03*
%TO.P,J5,8,8*%
%TO.N,unconnected-(J5-Pad8)*%
X151000000Y-73800000D03*
%TD*%
D10*
%TO.P,J11,1,1*%
%TO.N,/R3*%
X166500000Y-71400000D03*
%TO.P,J11,2,2*%
%TO.N,/VDD*%
X167000000Y-71400000D03*
%TO.P,J11,3,3*%
%TO.N,/GND*%
X167500000Y-71400000D03*
%TO.P,J11,4,4*%
%TO.N,/IN38*%
X168000000Y-71400000D03*
%TO.P,J11,5,5*%
%TO.N,/IN37*%
X168500000Y-71400000D03*
%TO.P,J11,6,6*%
%TO.N,/C6*%
X169000000Y-71400000D03*
D11*
%TO.P,J11,7,7*%
%TO.N,unconnected-(J11-Pad7)*%
X170700000Y-74000000D03*
%TO.P,J11,8,8*%
%TO.N,unconnected-(J11-Pad8)*%
X164800000Y-74000000D03*
%TD*%
D10*
%TO.P,J13,1,1*%
%TO.N,/R5*%
X166500000Y-89400000D03*
%TO.P,J13,2,2*%
%TO.N,/VDD*%
X167000000Y-89400000D03*
%TO.P,J13,3,3*%
%TO.N,/GND*%
X167500000Y-89400000D03*
%TO.P,J13,4,4*%
%TO.N,/IN40*%
X168000000Y-89400000D03*
%TO.P,J13,5,5*%
%TO.N,/IN39*%
X168500000Y-89400000D03*
%TO.P,J13,6,6*%
%TO.N,/C6*%
X169000000Y-89400000D03*
D11*
%TO.P,J13,7,7*%
%TO.N,unconnected-(J13-Pad7)*%
X170700000Y-92000000D03*
%TO.P,J13,8,8*%
%TO.N,unconnected-(J13-Pad8)*%
X164800000Y-92000000D03*
%TD*%
D10*
%TO.P,J8,1,1*%
%TO.N,/R0*%
X166500000Y-43900000D03*
%TO.P,J8,2,2*%
%TO.N,/VDD*%
X167000000Y-43900000D03*
%TO.P,J8,3,3*%
%TO.N,/GND*%
X167500000Y-43900000D03*
%TO.P,J8,4,4*%
%TO.N,/IN35*%
X168000000Y-43900000D03*
%TO.P,J8,5,5*%
%TO.N,/IN34*%
X168500000Y-43900000D03*
%TO.P,J8,6,6*%
%TO.N,/C6*%
X169000000Y-43900000D03*
D11*
%TO.P,J8,7,7*%
%TO.N,unconnected-(J8-Pad7)*%
X170700000Y-46500000D03*
%TO.P,J8,8,8*%
%TO.N,unconnected-(J8-Pad8)*%
X164800000Y-46500000D03*
%TD*%
D10*
%TO.P,J10,1,1*%
%TO.N,/R2*%
X166500000Y-62400000D03*
%TO.P,J10,2,2*%
%TO.N,/VDD*%
X167000000Y-62400000D03*
%TO.P,J10,3,3*%
%TO.N,/GND*%
X167500000Y-62400000D03*
%TO.P,J10,4,4*%
%TO.N,/IN37*%
X168000000Y-62400000D03*
%TO.P,J10,5,5*%
%TO.N,/IN36*%
X168500000Y-62400000D03*
%TO.P,J10,6,6*%
%TO.N,/C6*%
X169000000Y-62400000D03*
D11*
%TO.P,J10,7,7*%
%TO.N,unconnected-(J10-Pad7)*%
X170700000Y-65000000D03*
%TO.P,J10,8,8*%
%TO.N,unconnected-(J10-Pad8)*%
X164800000Y-65000000D03*
%TD*%
D10*
%TO.P,J9,1,1*%
%TO.N,/R1*%
X166500000Y-53000000D03*
%TO.P,J9,2,2*%
%TO.N,/VDD*%
X167000000Y-53000000D03*
%TO.P,J9,3,3*%
%TO.N,/GND*%
X167500000Y-53000000D03*
%TO.P,J9,4,4*%
%TO.N,/IN36*%
X168000000Y-53000000D03*
%TO.P,J9,5,5*%
%TO.N,/IN35*%
X168500000Y-53000000D03*
%TO.P,J9,6,6*%
%TO.N,/C6*%
X169000000Y-53000000D03*
D11*
%TO.P,J9,7,7*%
%TO.N,unconnected-(J9-Pad7)*%
X170700000Y-55600000D03*
%TO.P,J9,8,8*%
%TO.N,unconnected-(J9-Pad8)*%
X164800000Y-55600000D03*
%TD*%
D10*
%TO.P,J4,1,1*%
%TO.N,/R2*%
X152700000Y-62100000D03*
%TO.P,J4,2,2*%
%TO.N,/VDD*%
X153200000Y-62100000D03*
%TO.P,J4,3,3*%
%TO.N,/GND*%
X153700000Y-62100000D03*
%TO.P,J4,4,4*%
%TO.N,/IN31*%
X154200000Y-62100000D03*
%TO.P,J4,5,5*%
%TO.N,/IN30*%
X154700000Y-62100000D03*
%TO.P,J4,6,6*%
%TO.N,/C5*%
X155200000Y-62100000D03*
D11*
%TO.P,J4,7,7*%
%TO.N,unconnected-(J4-Pad7)*%
X156900000Y-64700000D03*
%TO.P,J4,8,8*%
%TO.N,unconnected-(J4-Pad8)*%
X151000000Y-64700000D03*
%TD*%
D10*
%TO.P,J7,1,1*%
%TO.N,/R5*%
X152700000Y-89400000D03*
%TO.P,J7,2,2*%
%TO.N,/VDD*%
X153200000Y-89400000D03*
%TO.P,J7,3,3*%
%TO.N,/GND*%
X153700000Y-89400000D03*
%TO.P,J7,4,4*%
%TO.N,/IN34*%
X154200000Y-89400000D03*
%TO.P,J7,5,5*%
%TO.N,/IN33*%
X154700000Y-89400000D03*
%TO.P,J7,6,6*%
%TO.N,/C5*%
X155200000Y-89400000D03*
D11*
%TO.P,J7,7,7*%
%TO.N,unconnected-(J7-Pad7)*%
X156900000Y-92000000D03*
%TO.P,J7,8,8*%
%TO.N,unconnected-(J7-Pad8)*%
X151000000Y-92000000D03*
%TD*%
D10*
%TO.P,J6,1,1*%
%TO.N,/R4*%
X152700000Y-80300000D03*
%TO.P,J6,2,2*%
%TO.N,/VDD*%
X153200000Y-80300000D03*
%TO.P,J6,3,3*%
%TO.N,/GND*%
X153700000Y-80300000D03*
%TO.P,J6,4,4*%
%TO.N,/IN33*%
X154200000Y-80300000D03*
%TO.P,J6,5,5*%
%TO.N,/IN32*%
X154700000Y-80300000D03*
%TO.P,J6,6,6*%
%TO.N,/C5*%
X155200000Y-80300000D03*
D11*
%TO.P,J6,7,7*%
%TO.N,unconnected-(J6-Pad7)*%
X156900000Y-82900000D03*
%TO.P,J6,8,8*%
%TO.N,unconnected-(J6-Pad8)*%
X151000000Y-82900000D03*
%TD*%
D13*
%TO.N,/C5*%
X155200000Y-94300000D03*
X163700000Y-94300000D03*
%TO.N,/GND*%
X167500000Y-55700000D03*
X167500000Y-46600000D03*
X153700000Y-46600000D03*
X162100000Y-64800000D03*
X162100000Y-91900000D03*
X153700000Y-91900000D03*
X153700000Y-83100000D03*
X167500000Y-64800000D03*
X162100000Y-73900000D03*
X167500000Y-83100000D03*
X153700000Y-64800000D03*
X162100000Y-55700000D03*
X167500000Y-73900000D03*
X162100000Y-83100000D03*
X167500000Y-91900000D03*
X153700000Y-73900000D03*
X162100000Y-46600000D03*
X153700000Y-55700000D03*
%TO.N,/R0*%
X152700000Y-45000000D03*
X166500000Y-45000000D03*
X158200000Y-45000000D03*
%TO.N,/R1*%
X166500000Y-54100000D03*
X152700000Y-54100000D03*
X158700000Y-54100000D03*
%TO.N,/R2*%
X152700000Y-63200000D03*
X159200000Y-63200000D03*
X166500000Y-63200000D03*
%TO.N,/R3*%
X166500000Y-72300000D03*
X152700000Y-72300000D03*
X159700000Y-72300000D03*
%TO.N,/R4*%
X160200000Y-81400000D03*
X152700000Y-81400000D03*
X166500000Y-81400000D03*
%TO.N,/R5*%
X166500000Y-90500000D03*
X160700000Y-90500000D03*
X152700000Y-90500000D03*
%TO.N,/VDD*%
X167000000Y-64000000D03*
X167000000Y-91200000D03*
X167000000Y-82200000D03*
X161400000Y-45700000D03*
X153200000Y-45700000D03*
X153200000Y-54900000D03*
X153200000Y-64000000D03*
X167000000Y-45700000D03*
X153200000Y-82200000D03*
X161400000Y-54900000D03*
X161400000Y-82200000D03*
X153200000Y-91200000D03*
X161400000Y-91200000D03*
X161400000Y-64000000D03*
X161400000Y-73050000D03*
X167000000Y-73050000D03*
X153200000Y-73050000D03*
X167000000Y-54900000D03*
%TO.N,/IN28*%
X154700000Y-47400000D03*
X163350000Y-47400000D03*
%TO.N,/IN40*%
X162200000Y-99600000D03*
X168000000Y-91200000D03*
%TO.N,/IN34*%
X168500000Y-47950000D03*
X162750000Y-92900000D03*
X154200000Y-92900000D03*
X162750000Y-47950000D03*
%TD*%
D14*
%TO.N,/C5*%
X163700000Y-98500000D02*
X163700000Y-99300000D01*
X155200000Y-89400000D02*
X155200000Y-94300000D01*
X163700000Y-98500000D02*
X163700000Y-94300000D01*
X155200000Y-43900000D02*
X155200000Y-89400000D01*
%TO.N,/GND*%
X153700000Y-53000000D02*
X153700000Y-55700000D01*
D15*
X162100000Y-97300000D02*
X162100000Y-46600000D01*
D14*
X153700000Y-62100000D02*
X153700000Y-64800000D01*
D16*
X161700000Y-98500000D02*
X161700000Y-97700000D01*
D14*
X167500000Y-89400000D02*
X167500000Y-91900000D01*
X167500000Y-53000000D02*
X167500000Y-55700000D01*
X167500000Y-62400000D02*
X167500000Y-64800000D01*
X153700000Y-71200000D02*
X153700000Y-73900000D01*
X167500000Y-43900000D02*
X167500000Y-46600000D01*
X167500000Y-80300000D02*
X167500000Y-83100000D01*
X153700000Y-80300000D02*
X153700000Y-83100000D01*
X153700000Y-43900000D02*
X153700000Y-46600000D01*
D17*
X161700000Y-97700000D02*
X162100000Y-97300000D01*
D14*
X167500000Y-71400000D02*
X167500000Y-73900000D01*
X153700000Y-89400000D02*
X153700000Y-91900000D01*
%TO.N,/R0*%
X158200000Y-98500000D02*
X158200000Y-45000000D01*
X166500000Y-43900000D02*
X166500000Y-45000000D01*
X152700000Y-43900000D02*
X152700000Y-45000000D01*
%TO.N,/R1*%
X166500000Y-53000000D02*
X166500000Y-54100000D01*
X158700000Y-98500000D02*
X158700000Y-54100000D01*
X152700000Y-53000000D02*
X152700000Y-54100000D01*
%TO.N,/R2*%
X152700000Y-62100000D02*
X152700000Y-63200000D01*
X166500000Y-62400000D02*
X166500000Y-63200000D01*
X159200000Y-98500000D02*
X159200000Y-63200000D01*
%TO.N,/R3*%
X152700000Y-71200000D02*
X152700000Y-72300000D01*
X159700000Y-98500000D02*
X159700000Y-72300000D01*
X166500000Y-71400000D02*
X166500000Y-72300000D01*
%TO.N,/R4*%
X160200000Y-98500000D02*
X160200000Y-81400000D01*
X166500000Y-80300000D02*
X166500000Y-81400000D01*
X152700000Y-80300000D02*
X152700000Y-81400000D01*
%TO.N,/R5*%
X152700000Y-89400000D02*
X152700000Y-90500000D01*
X160700000Y-98500000D02*
X160700000Y-90500000D01*
X166500000Y-89400000D02*
X166500000Y-90500000D01*
D16*
%TO.N,/VDD*%
X161400000Y-97300000D02*
X161200000Y-97500000D01*
D14*
X153200000Y-80300000D02*
X153200000Y-82200000D01*
X167000000Y-89400000D02*
X167000000Y-91200000D01*
X167000000Y-53000000D02*
X167000000Y-54900000D01*
X167000000Y-80300000D02*
X167000000Y-82200000D01*
X167000000Y-62400000D02*
X167000000Y-64000000D01*
X153200000Y-53000000D02*
X153200000Y-54900000D01*
D16*
X161200000Y-97500000D02*
X161200000Y-98500000D01*
D14*
X167000000Y-71400000D02*
X167000000Y-73050000D01*
X153200000Y-71200000D02*
X153200000Y-73050000D01*
D16*
X161400000Y-97200000D02*
X161400000Y-97300000D01*
D14*
X153200000Y-62100000D02*
X153200000Y-64000000D01*
X167000000Y-43900000D02*
X167000000Y-45700000D01*
D15*
X161400000Y-97200000D02*
X161400000Y-45700000D01*
D14*
X153200000Y-43900000D02*
X153200000Y-45700000D01*
X153200000Y-89400000D02*
X153200000Y-91200000D01*
%TO.N,/C6*%
X169000000Y-89400000D02*
X169000000Y-92700000D01*
X169000000Y-92700000D02*
X168500000Y-93200000D01*
X163200000Y-93900000D02*
X163200000Y-98500000D01*
X168500000Y-93200000D02*
X163900000Y-93200000D01*
X169000000Y-43900000D02*
X169000000Y-89400000D01*
X163900000Y-93200000D02*
X163200000Y-93900000D01*
%TO.N,/IN28*%
X162700000Y-93800000D02*
X163350000Y-93150000D01*
X163350000Y-93150000D02*
X163350000Y-47400000D01*
X162700000Y-98500000D02*
X162700000Y-93800000D01*
X154700000Y-43900000D02*
X154700000Y-47400000D01*
%TO.N,/IN40*%
X168000000Y-89400000D02*
X168000000Y-91200000D01*
X162200000Y-98500000D02*
X162200000Y-99600000D01*
%TO.N,/IN29*%
X154200000Y-48200000D02*
X154700000Y-48700000D01*
X154700000Y-48700000D02*
X154700000Y-53000000D01*
X154200000Y-43900000D02*
X154200000Y-48200000D01*
%TO.N,/IN30*%
X154700000Y-57800000D02*
X154700000Y-62100000D01*
X154200000Y-53000000D02*
X154200000Y-57300000D01*
X154200000Y-57300000D02*
X154700000Y-57800000D01*
%TO.N,/IN31*%
X154200000Y-62100000D02*
X154200000Y-66400000D01*
X154200000Y-66400000D02*
X154700000Y-66900000D01*
X154700000Y-66900000D02*
X154700000Y-71200000D01*
%TO.N,/IN32*%
X154700000Y-76000000D02*
X154700000Y-80300000D01*
X154200000Y-75500000D02*
X154700000Y-76000000D01*
X154200000Y-71200000D02*
X154200000Y-75500000D01*
%TO.N,/IN33*%
X154700000Y-85100000D02*
X154700000Y-89400000D01*
X154200000Y-80300000D02*
X154200000Y-84600000D01*
X154200000Y-84600000D02*
X154700000Y-85100000D01*
%TO.N,/IN34*%
X168500000Y-43900000D02*
X168500000Y-47950000D01*
X162750000Y-92900000D02*
X162750000Y-47950000D01*
X154200000Y-89400000D02*
X154200000Y-92900000D01*
%TO.N,/IN39*%
X168000000Y-80300000D02*
X168000000Y-84600000D01*
X168000000Y-84600000D02*
X168500000Y-85100000D01*
X168500000Y-85100000D02*
X168500000Y-89400000D01*
%TO.N,/IN38*%
X168000000Y-75600000D02*
X168500000Y-76100000D01*
X168000000Y-71400000D02*
X168000000Y-75600000D01*
X168500000Y-76100000D02*
X168500000Y-80300000D01*
%TO.N,/IN37*%
X168000000Y-62400000D02*
X168000000Y-66650000D01*
X168000000Y-66650000D02*
X168500000Y-67150000D01*
X168500000Y-67150000D02*
X168500000Y-71400000D01*
%TO.N,/IN36*%
X168000000Y-57450000D02*
X168500000Y-57950000D01*
X168000000Y-53000000D02*
X168000000Y-57450000D01*
X168500000Y-57950000D02*
X168500000Y-62400000D01*
%TO.N,/IN35*%
X168000000Y-48200000D02*
X168500000Y-48700000D01*
X168000000Y-43900000D02*
X168000000Y-48200000D01*
X168500000Y-48700000D02*
X168500000Y-53000000D01*
%TD*%
M02*
