%TF.GenerationSoftware,KiCad,Pcbnew,9.0.8+dfsg-1*%
%TF.CreationDate,2026-10-04T14:25:51-06:00*%
%TF.ProjectId,AdafruitNeoKeyChocSocketBreakout,41646166-7275-4697-944e-656f4b657943,rev?*%
%TF.SameCoordinates,Original*%
%TF.FileFunction,Copper,L2,Bot*%
%TF.FilePolarity,Positive*%
%FSLAX46Y46*%
G04 Gerber Fmt 4.6, Leading zero omitted, Abs format (unit mm)*
G04 Created by KiCad (PCBNEW 9.0.8+dfsg-1) date 2026-10-04 14:25:51*
%MOMM*%
%LPD*%
G01*
G04 APERTURE LIST*
G04 Aperture macros list*
%AMRoundRect*
0 Rectangle with rounded corners*
0 $1 Rounding radius*
0 $2 $3 $4 $5 $6 $7 $8 $9 X,Y pos of 4 corners*
0 Add a 4 corners polygon primitive as box body*
4,1,4,$2,$3,$4,$5,$6,$7,$8,$9,$2,$3,0*
0 Add four circle primitives for the rounded corners*
1,1,$1+$1,$2,$3*
1,1,$1+$1,$4,$5*
1,1,$1+$1,$6,$7*
1,1,$1+$1,$8,$9*
0 Add four rect primitives between the rounded corners*
20,1,$1+$1,$2,$3,$4,$5,0*
20,1,$1+$1,$4,$5,$6,$7,0*
20,1,$1+$1,$6,$7,$8,$9,0*
20,1,$1+$1,$8,$9,$2,$3,0*%
G04 Aperture macros list end*
%TA.AperFunction,SMDPad,CuDef*%
%ADD10R,0.700000X0.700000*%
%TD*%
%TA.AperFunction,SMDPad,CuDef*%
%ADD11RoundRect,0.140000X0.170000X-0.140000X0.170000X0.140000X-0.170000X0.140000X-0.170000X-0.140000X0*%
%TD*%
%TA.AperFunction,ViaPad*%
%ADD12C,0.640000*%
%TD*%
%TA.AperFunction,Conductor*%
%ADD13C,0.203200*%
%TD*%
%TA.AperFunction,Conductor*%
%ADD14C,0.200000*%
%TD*%
G04 APERTURE END LIST*
D10*
%TO.P,LED1,1*%
%TO.N,NEO_OUT*%
X147500000Y-110600000D03*
%TO.P,LED1,2*%
%TO.N,GND*%
X147500000Y-109500000D03*
%TO.P,LED1,3*%
%TO.N,NEO_IN*%
X149330000Y-109500000D03*
%TO.P,LED1,4*%
%TO.N,VDD*%
X149330000Y-110600000D03*
%TD*%
D11*
%TO.P,C1,1*%
%TO.N,VDD*%
X150500000Y-110460000D03*
%TO.P,C1,2*%
%TO.N,GND*%
X150500000Y-109500000D03*
%TD*%
D12*
%TO.N,GND*%
X148373202Y-110250000D03*
%TO.N,VDD*%
X147625200Y-111889905D03*
%TO.N,SWITCHC*%
X147500000Y-103000000D03*
X146794882Y-112036746D03*
%TO.N,NEO_IN*%
X148503402Y-109369800D03*
%TO.N,NEO_OUT*%
X148874800Y-111462514D03*
%TD*%
D13*
%TO.N,GND*%
X148373202Y-110250000D02*
X148250000Y-110250000D01*
X148250000Y-110250000D02*
X148154800Y-110154800D01*
X148244601Y-108745000D02*
X148762203Y-108745000D01*
X147623202Y-109500000D02*
X147500000Y-109500000D01*
X148154800Y-110031598D02*
X147623202Y-109500000D01*
X148154800Y-110154800D02*
X148154800Y-110031598D01*
X148762203Y-108745000D02*
X148767203Y-108750000D01*
X147500000Y-109489601D02*
X148244601Y-108745000D01*
X147500000Y-109500000D02*
X147500000Y-109489601D01*
X149750000Y-108750000D02*
X150500000Y-109500000D01*
X148767203Y-108750000D02*
X149750000Y-108750000D01*
%TO.N,VDD*%
X147822609Y-112087314D02*
X149133601Y-112087314D01*
X149500000Y-111500000D02*
X149500000Y-110770000D01*
D14*
X150500000Y-110460000D02*
X150360000Y-110600000D01*
D13*
X149499600Y-111721315D02*
X149499600Y-111500400D01*
X149499600Y-111500400D02*
X149500000Y-111500000D01*
X149133601Y-112087314D02*
X149499600Y-111721315D01*
D14*
X150360000Y-110600000D02*
X149330000Y-110600000D01*
D13*
X149500000Y-110770000D02*
X149330000Y-110600000D01*
X147625200Y-111889905D02*
X147822609Y-112087314D01*
%TO.N,SWITCHC*%
X146250000Y-111491864D02*
X146794882Y-112036746D01*
X146250000Y-104250000D02*
X146250000Y-111491864D01*
X147500000Y-103000000D02*
X146250000Y-104250000D01*
%TO.N,NEO_IN*%
X148503402Y-109369800D02*
X149199800Y-109369800D01*
X149199800Y-109369800D02*
X149330000Y-109500000D01*
%TO.N,NEO_OUT*%
X148874800Y-111462514D02*
X148362514Y-111462514D01*
X147500000Y-110600000D02*
X147586100Y-110513900D01*
X148362514Y-111462514D02*
X147500000Y-110600000D01*
%TD*%
M02*
