%TF.GenerationSoftware,KiCad,Pcbnew,9.0.8-4-g1ee99dff*%
%TF.CreationDate,2026-10-05T22:56:06-06:00*%
%TF.ProjectId,columnBreakout,636f6c75-6d6e-4427-9265-616b6f75742e,rev?*%
%TF.SameCoordinates,Original*%
%TF.FileFunction,Copper,L2,Bot*%
%TF.FilePolarity,Positive*%
%FSLAX46Y46*%
G04 Gerber Fmt 4.6, Leading zero omitted, Abs format (unit mm)*
G04 Created by KiCad (PCBNEW 9.0.8-4-g1ee99dff) date 2026-10-05 22:56:06*
%MOMM*%
%LPD*%
G01*
G04 APERTURE LIST*
%TA.AperFunction,ViaPad*%
%ADD10C,0.450000*%
%TD*%
%TA.AperFunction,Conductor*%
%ADD11C,0.250000*%
%TD*%
%TA.AperFunction,Conductor*%
%ADD12C,0.150000*%
%TD*%
%TA.AperFunction,Conductor*%
%ADD13C,0.500000*%
%TD*%
G04 APERTURE END LIST*
D10*
%TO.N,/GND*%
X181399999Y-45600000D03*
X153799999Y-72900000D03*
X167600000Y-72900000D03*
X167600000Y-63800000D03*
X153799999Y-91100000D03*
X167600000Y-54699999D03*
X153799999Y-45600000D03*
X153799999Y-94600000D03*
X153799999Y-54699999D03*
X165150000Y-94200000D03*
X181399999Y-54699999D03*
X167600000Y-82000000D03*
X181399999Y-82000000D03*
X181399999Y-72900000D03*
X153799999Y-82000000D03*
X181399999Y-63800000D03*
X181399999Y-94600000D03*
X167600000Y-94600000D03*
X181399999Y-91100000D03*
X153799999Y-63800000D03*
%TO.N,/R0*%
X161050000Y-100000000D03*
X152550000Y-45250000D03*
%TO.N,/R1*%
X151450000Y-61600000D03*
X159100000Y-98750000D03*
%TO.N,/R2*%
X156450000Y-96300000D03*
X155050000Y-96300000D03*
%TO.N,/R3*%
X159500000Y-99250000D03*
X150400000Y-76650000D03*
X167000000Y-100200000D03*
X162250000Y-98700000D03*
%TO.N,/R4*%
X157400000Y-96400000D03*
X150050000Y-89450000D03*
X154300000Y-96300000D03*
X161800000Y-96300000D03*
X150350000Y-94800000D03*
X165850000Y-97350000D03*
%TO.N,/R5*%
X158800000Y-97750000D03*
X151750000Y-93500000D03*
%TO.N,/VDD*%
X166900000Y-72900000D03*
X166900000Y-54699999D03*
X180699999Y-82000000D03*
X153100000Y-91100000D03*
X180699999Y-63800000D03*
X180699999Y-72900000D03*
X166900000Y-63800000D03*
X167500000Y-101400000D03*
X153100000Y-63800000D03*
X180699999Y-45600000D03*
X180699999Y-91100000D03*
X153100000Y-82000000D03*
X153100000Y-45600000D03*
X180699999Y-54699999D03*
X153100000Y-54699999D03*
X166900000Y-82000000D03*
X153100000Y-72900000D03*
%TO.N,/C0*%
X155299999Y-91100000D03*
X155299999Y-82000000D03*
X155299999Y-63800000D03*
X155299999Y-54699999D03*
X155299999Y-72900000D03*
X154450000Y-86300000D03*
X155299999Y-45600000D03*
%TO.N,/C1*%
X152100000Y-90300000D03*
X169100000Y-63800000D03*
X168250000Y-85100000D03*
X170000000Y-102500000D03*
X169100000Y-54699999D03*
X169100000Y-82000000D03*
X169050000Y-83800000D03*
X169100000Y-72900000D03*
%TO.N,/C2*%
X182899999Y-72900000D03*
X182899999Y-54699999D03*
X182899999Y-91100000D03*
X182899999Y-45600000D03*
X169500000Y-101400000D03*
X182899999Y-82000000D03*
X182899999Y-63800000D03*
%TO.N,/IN0*%
X152450000Y-51850000D03*
X154600000Y-47350000D03*
X169000000Y-102500000D03*
X154550000Y-48700000D03*
%TO.N,/IN1*%
X155850000Y-48700000D03*
X154500000Y-46550000D03*
%TO.N,/IN2*%
X158100000Y-56800000D03*
X155850000Y-59050000D03*
%TO.N,/IN3*%
X158100000Y-65900000D03*
X155850000Y-68150000D03*
%TO.N,/IN4*%
X155850000Y-77250000D03*
X158100000Y-75000000D03*
%TO.N,/IN5*%
X158100000Y-84100000D03*
X155850000Y-86350000D03*
%TO.N,/IN6*%
X166250000Y-59800000D03*
X168250000Y-57800000D03*
X168400000Y-56449999D03*
X154500000Y-92050000D03*
%TO.N,/IN7*%
X169650000Y-57800000D03*
X168300000Y-55650000D03*
%TO.N,/IN8*%
X169650000Y-68150000D03*
X171900000Y-65900000D03*
%TO.N,/IN9*%
X169650000Y-77250000D03*
X171900000Y-75000000D03*
%TO.N,/IN10*%
X168300000Y-82949999D03*
X180050000Y-49500000D03*
X182199999Y-47350000D03*
%TO.N,/IN11*%
X182099999Y-46550000D03*
X182199999Y-56449999D03*
%TO.N,/IN12*%
X182099999Y-55650000D03*
X182199999Y-65550000D03*
%TO.N,/IN13*%
X182199999Y-74650000D03*
X182099999Y-64750000D03*
%TO.N,/IN14*%
X182099999Y-73850000D03*
X182199999Y-83750000D03*
%TO.N,/IN15*%
X182199999Y-92850000D03*
X182099999Y-82949999D03*
%TO.N,/IN16*%
X182099999Y-92050000D03*
X168500000Y-101400000D03*
%TD*%
D11*
%TO.N,/GND*%
X154100000Y-92350000D02*
X154050000Y-92300000D01*
X154250000Y-93250000D02*
X154200000Y-93200000D01*
X156050000Y-93350000D02*
X154450000Y-93350000D01*
D12*
X154050000Y-92300000D02*
X154050000Y-92250000D01*
D11*
X165150000Y-94200000D02*
X164450000Y-93500000D01*
D12*
X154150000Y-93050000D02*
X154100000Y-93000000D01*
D11*
X154000000Y-92200000D02*
X154000000Y-91300000D01*
D13*
X181399999Y-91100000D02*
X181399999Y-94600000D01*
D11*
X154200000Y-93150000D02*
X154150000Y-93100000D01*
D13*
X153799999Y-72900000D02*
X153799999Y-82000000D01*
D11*
X156100000Y-93400000D02*
X156050000Y-93350000D01*
D12*
X154050000Y-92250000D02*
X154000000Y-92200000D01*
D13*
X167600000Y-54699999D02*
X167600000Y-63800000D01*
X153799999Y-45600000D02*
X153799999Y-54699999D01*
X153799999Y-91100000D02*
X153799999Y-94600000D01*
X167600000Y-72900000D02*
X167600000Y-82000000D01*
D11*
X154000000Y-91300000D02*
X153800000Y-91100000D01*
D12*
X154150000Y-93100000D02*
X154150000Y-93050000D01*
D13*
X167600000Y-82000000D02*
X167600000Y-94600000D01*
X153799999Y-63800000D02*
X153799999Y-72900000D01*
D11*
X164200000Y-93500000D02*
X164100000Y-93400000D01*
D13*
X181399999Y-72900000D02*
X181399999Y-82000000D01*
X181399999Y-54699999D02*
X181399999Y-63800000D01*
X153799999Y-82000000D02*
X153799999Y-91100000D01*
D11*
X164100000Y-93400000D02*
X156100000Y-93400000D01*
D13*
X167600000Y-63800000D02*
X167600000Y-72900000D01*
D11*
X164450000Y-93500000D02*
X164200000Y-93500000D01*
X154200000Y-93200000D02*
X154200000Y-93150000D01*
X154300000Y-93250000D02*
X154250000Y-93250000D01*
D13*
X181399999Y-82000000D02*
X181399999Y-91100000D01*
X181399999Y-63800000D02*
X181399999Y-72900000D01*
D12*
X154400000Y-93300000D02*
X154350000Y-93300000D01*
D11*
X154350000Y-93300000D02*
X154300000Y-93250000D01*
D12*
X154450000Y-93350000D02*
X154400000Y-93300000D01*
D13*
X153799999Y-54699999D02*
X153799999Y-63800000D01*
X181399999Y-45600000D02*
X181399999Y-54699999D01*
D11*
X154100000Y-93000000D02*
X154100000Y-92350000D01*
D12*
%TO.N,/R0*%
X151350000Y-93850000D02*
X151350000Y-93800000D01*
X158500000Y-98150000D02*
X158450000Y-98150000D01*
X151250000Y-62500000D02*
X151950000Y-61800000D01*
X161050000Y-100000000D02*
X159300000Y-98250000D01*
X153500000Y-97950000D02*
X151550000Y-96000000D01*
X151550000Y-96000000D02*
X151550000Y-94050000D01*
X151950000Y-61800000D02*
X151950000Y-51600000D01*
X159300000Y-98250000D02*
X158650000Y-98250000D01*
X151300000Y-93700000D02*
X151250000Y-93650000D01*
X151300000Y-93750000D02*
X151300000Y-93700000D01*
X158600000Y-98200000D02*
X158550000Y-98200000D01*
X151950000Y-51600000D02*
X152550000Y-51000000D01*
X158450000Y-98150000D02*
X158250000Y-97950000D01*
X158250000Y-97950000D02*
X153500000Y-97950000D01*
X158550000Y-98200000D02*
X158500000Y-98150000D01*
X151550000Y-94050000D02*
X151350000Y-93850000D01*
X158650000Y-98250000D02*
X158600000Y-98200000D01*
X151350000Y-93800000D02*
X151300000Y-93750000D01*
X152550000Y-51000000D02*
X152550000Y-45250000D01*
X151250000Y-93650000D02*
X151250000Y-62500000D01*
%TO.N,/R1*%
X151400000Y-61650000D02*
X151450000Y-61600000D01*
X159100000Y-98750000D02*
X158950000Y-98600000D01*
X151200000Y-96150000D02*
X151200000Y-94200000D01*
X158450000Y-98550000D02*
X158400000Y-98550000D01*
X158300000Y-98500000D02*
X158100000Y-98300000D01*
X158100000Y-98300000D02*
X153350000Y-98300000D01*
X158950000Y-98600000D02*
X158500000Y-98600000D01*
X158400000Y-98550000D02*
X158350000Y-98500000D01*
X150950000Y-93850000D02*
X150900000Y-93800000D01*
X153350000Y-98300000D02*
X151200000Y-96150000D01*
X151200000Y-94200000D02*
X151000000Y-94000000D01*
X150950000Y-93900000D02*
X150950000Y-93850000D01*
X150900000Y-62350000D02*
X151400000Y-61850000D01*
X151400000Y-61850000D02*
X151400000Y-61650000D01*
X151000000Y-94000000D02*
X151000000Y-93950000D01*
X158500000Y-98600000D02*
X158450000Y-98550000D01*
X158350000Y-98500000D02*
X158300000Y-98500000D01*
X150900000Y-93800000D02*
X150900000Y-62350000D01*
X151000000Y-93950000D02*
X150950000Y-93900000D01*
%TO.N,/R2*%
X156450000Y-96300000D02*
X155050000Y-96300000D01*
%TO.N,/R3*%
X165400000Y-98700000D02*
X162250000Y-98700000D01*
X150650000Y-94100000D02*
X150600000Y-94050000D01*
X167000000Y-100200000D02*
X165900000Y-99100000D01*
X150850000Y-96300000D02*
X150850000Y-94350000D01*
X153200000Y-98650000D02*
X150850000Y-96300000D01*
X158250000Y-98900000D02*
X158200000Y-98850000D01*
X165900000Y-99100000D02*
X165800000Y-99100000D01*
X159500000Y-99250000D02*
X158950000Y-99250000D01*
X158200000Y-98850000D02*
X158150000Y-98850000D01*
X158950000Y-99250000D02*
X158900000Y-99200000D01*
X150850000Y-94350000D02*
X150650000Y-94150000D01*
X157950000Y-98650000D02*
X153200000Y-98650000D01*
X158900000Y-99200000D02*
X158850000Y-99200000D01*
X158800000Y-99150000D02*
X158750000Y-99150000D01*
X150600000Y-94000000D02*
X150550000Y-93950000D01*
X158300000Y-98900000D02*
X158250000Y-98900000D01*
X150550000Y-76800000D02*
X150400000Y-76650000D01*
X150650000Y-94150000D02*
X150650000Y-94100000D01*
X150600000Y-94050000D02*
X150600000Y-94000000D01*
X165800000Y-99100000D02*
X165400000Y-98700000D01*
X158350000Y-98950000D02*
X158300000Y-98900000D01*
X158150000Y-98850000D02*
X157950000Y-98650000D01*
X158850000Y-99200000D02*
X158800000Y-99150000D01*
X150550000Y-93950000D02*
X150550000Y-76800000D01*
X158750000Y-99150000D02*
X158550000Y-98950000D01*
X158550000Y-98950000D02*
X158350000Y-98950000D01*
%TO.N,/R4*%
X156600000Y-96800000D02*
X154900000Y-96800000D01*
X150300000Y-94250000D02*
X150250000Y-94200000D01*
X165850000Y-97350000D02*
X165800000Y-97350000D01*
X154750000Y-96700000D02*
X154700000Y-96700000D01*
X150350000Y-94350000D02*
X150300000Y-94300000D01*
X154800000Y-96750000D02*
X154750000Y-96700000D01*
X150250000Y-94150000D02*
X150200000Y-94100000D01*
X156800000Y-96700000D02*
X156750000Y-96700000D01*
X165800000Y-97350000D02*
X164750000Y-96300000D01*
X150200000Y-94100000D02*
X150200000Y-89600000D01*
X154900000Y-96800000D02*
X154850000Y-96750000D01*
X156650000Y-96750000D02*
X156600000Y-96800000D01*
X157100000Y-96400000D02*
X156800000Y-96700000D01*
X150250000Y-94200000D02*
X150250000Y-94150000D01*
X150200000Y-89600000D02*
X150050000Y-89450000D01*
X156700000Y-96750000D02*
X156650000Y-96750000D01*
X150350000Y-94800000D02*
X150350000Y-94350000D01*
X150300000Y-94300000D02*
X150300000Y-94250000D01*
X157400000Y-96400000D02*
X157100000Y-96400000D01*
X154700000Y-96700000D02*
X154300000Y-96300000D01*
X154850000Y-96750000D02*
X154800000Y-96750000D01*
X156750000Y-96700000D02*
X156700000Y-96750000D01*
X164750000Y-96300000D02*
X161800000Y-96300000D01*
%TO.N,/R5*%
X158650000Y-97600000D02*
X153650000Y-97600000D01*
X153650000Y-97600000D02*
X151900000Y-95850000D01*
X151900000Y-93650000D02*
X151750000Y-93500000D01*
X151900000Y-95850000D02*
X151900000Y-93650000D01*
X158800000Y-97750000D02*
X158650000Y-97600000D01*
D11*
%TO.N,/VDD*%
X157750000Y-95250000D02*
X157350000Y-95250000D01*
X165350000Y-99350000D02*
X165200000Y-99200000D01*
D12*
X153300000Y-91300000D02*
X153100000Y-91100000D01*
D13*
X180699999Y-72900000D02*
X180699999Y-82000000D01*
D11*
X157300000Y-95200000D02*
X157200000Y-95200000D01*
D13*
X180699999Y-63800000D02*
X180699999Y-72900000D01*
D11*
X157350000Y-95250000D02*
X157300000Y-95200000D01*
D13*
X166900000Y-95300000D02*
X180699999Y-95300000D01*
X153100000Y-54699999D02*
X153100000Y-63800000D01*
D11*
X165200000Y-99200000D02*
X162050000Y-99200000D01*
D13*
X166900000Y-72900000D02*
X166900000Y-82000000D01*
X180699999Y-82000000D02*
X180699999Y-91100000D01*
X153100000Y-45600000D02*
X153100000Y-54699999D01*
D12*
X167500000Y-101400000D02*
X165450000Y-99350000D01*
X157100000Y-95100000D02*
X153550000Y-95100000D01*
D13*
X153100000Y-95300000D02*
X166900000Y-95300000D01*
D12*
X153300000Y-94850000D02*
X153300000Y-91300000D01*
D11*
X158150000Y-95300000D02*
X157800000Y-95300000D01*
D13*
X166900000Y-63800000D02*
X166900000Y-72900000D01*
D11*
X153550000Y-95100000D02*
X153300000Y-94850000D01*
X157800000Y-95300000D02*
X157750000Y-95250000D01*
D13*
X166900000Y-82000000D02*
X166900000Y-95300000D01*
D12*
X162050000Y-99200000D02*
X158150000Y-95300000D01*
D11*
X165450000Y-99350000D02*
X165350000Y-99350000D01*
D13*
X153100000Y-63800000D02*
X153100000Y-72900000D01*
X166900000Y-54699999D02*
X166900000Y-63800000D01*
X153100000Y-72900000D02*
X153100000Y-82000000D01*
X180699999Y-54699999D02*
X180699999Y-63800000D01*
X180699999Y-45600000D02*
X180699999Y-54699999D01*
X180699999Y-91100000D02*
X180699999Y-95300000D01*
X153100000Y-91100000D02*
X153100000Y-95300000D01*
D11*
X157200000Y-95200000D02*
X157100000Y-95100000D01*
D13*
X153100000Y-82000000D02*
X153100000Y-91100000D01*
D11*
%TO.N,/C0*%
X155299999Y-45600000D02*
X155299999Y-54699999D01*
X155299999Y-82000000D02*
X155299999Y-91100000D01*
X155299999Y-63800000D02*
X155299999Y-72900000D01*
X155299999Y-54699999D02*
X155299999Y-63800000D01*
D12*
X154450000Y-86300000D02*
X154450000Y-90250000D01*
X154450000Y-90250000D02*
X155300000Y-91100000D01*
D11*
X155299999Y-72900000D02*
X155299999Y-82000000D01*
%TO.N,/C1*%
X169100000Y-72900000D02*
X169100000Y-82000000D01*
D12*
X169150000Y-103000000D02*
X164850000Y-103000000D01*
X169200000Y-102950000D02*
X169150000Y-103000000D01*
X169300000Y-102900000D02*
X169250000Y-102950000D01*
X152250000Y-95700000D02*
X152250000Y-90450000D01*
X152250000Y-90450000D02*
X152100000Y-90300000D01*
X164850000Y-103000000D02*
X164800000Y-102950000D01*
X168250000Y-84650000D02*
X168800000Y-84100000D01*
X168800000Y-84050000D02*
X169050000Y-83800000D01*
X164800000Y-102950000D02*
X164750000Y-102950000D01*
X164650000Y-102900000D02*
X159000000Y-97250000D01*
X164750000Y-102950000D02*
X164700000Y-102900000D01*
D11*
X169100000Y-63800000D02*
X169100000Y-72900000D01*
X169100000Y-54699999D02*
X169100000Y-63800000D01*
D12*
X153800000Y-97250000D02*
X152250000Y-95700000D01*
X169250000Y-102950000D02*
X169200000Y-102950000D01*
X168250000Y-85100000D02*
X168250000Y-84650000D01*
X169800000Y-102500000D02*
X169400000Y-102900000D01*
X169400000Y-102900000D02*
X169300000Y-102900000D01*
X170000000Y-102500000D02*
X169800000Y-102500000D01*
X164700000Y-102900000D02*
X164650000Y-102900000D01*
X168800000Y-84100000D02*
X168800000Y-84050000D01*
X159000000Y-97250000D02*
X153800000Y-97250000D01*
%TO.N,/C2*%
X183050000Y-93150000D02*
X183050000Y-91250000D01*
D11*
X182899999Y-82000000D02*
X182899999Y-91100000D01*
D12*
X169500000Y-101400000D02*
X170150000Y-100750000D01*
X170850000Y-100700000D02*
X175550000Y-100700000D01*
X182250000Y-95000000D02*
X182250000Y-94050000D01*
X182950000Y-93350000D02*
X182950000Y-93300000D01*
D11*
X182899999Y-63800000D02*
X182899999Y-72900000D01*
D12*
X183050000Y-91250000D02*
X182900000Y-91100000D01*
X183000000Y-93200000D02*
X183050000Y-93150000D01*
D11*
X182899999Y-72900000D02*
X182899999Y-82000000D01*
D12*
X182250000Y-94050000D02*
X182950000Y-93350000D01*
D11*
X182899999Y-54699999D02*
X182899999Y-63800000D01*
D12*
X170150000Y-100750000D02*
X170800000Y-100750000D01*
D11*
X182899999Y-45600000D02*
X182899999Y-54699999D01*
D12*
X182950000Y-93300000D02*
X183000000Y-93250000D01*
X182900000Y-91100000D02*
X182899999Y-91100000D01*
X170800000Y-100750000D02*
X170850000Y-100700000D01*
X181100000Y-96150000D02*
X182250000Y-95000000D01*
X175550000Y-100700000D02*
X180100000Y-96150000D01*
X183000000Y-93250000D02*
X183000000Y-93200000D01*
X180100000Y-96150000D02*
X181100000Y-96150000D01*
%TO.N,/IN0*%
X164350000Y-101900000D02*
X164300000Y-101850000D01*
X164300000Y-101850000D02*
X164250000Y-101850000D01*
X152600000Y-95550000D02*
X152600000Y-52000000D01*
X152850000Y-95800000D02*
X152600000Y-95550000D01*
X164150000Y-101800000D02*
X158150000Y-95800000D01*
X164200000Y-101800000D02*
X164150000Y-101800000D01*
X164250000Y-101850000D02*
X164200000Y-101800000D01*
X154550000Y-47400000D02*
X154600000Y-47350000D01*
X168400000Y-101900000D02*
X164350000Y-101900000D01*
X154550000Y-48700000D02*
X154550000Y-47400000D01*
X158150000Y-95800000D02*
X152850000Y-95800000D01*
X169000000Y-102500000D02*
X168400000Y-101900000D01*
X152600000Y-52000000D02*
X152450000Y-51850000D01*
%TO.N,/IN1*%
X154950000Y-45200000D02*
X155000000Y-45200000D01*
X155600000Y-45200000D02*
X155650000Y-45200000D01*
X155000000Y-45200000D02*
X155050000Y-45150000D01*
X155650000Y-45200000D02*
X155700000Y-45250000D01*
X154500000Y-46550000D02*
X154500000Y-46200000D01*
X155750000Y-45350000D02*
X155750000Y-45400000D01*
X155800000Y-48650000D02*
X155850000Y-48700000D01*
X155550000Y-45150000D02*
X155600000Y-45200000D01*
X155500000Y-45150000D02*
X155550000Y-45150000D01*
X155750000Y-45400000D02*
X155800000Y-45450000D01*
X155800000Y-45450000D02*
X155800000Y-48650000D01*
X155700000Y-45300000D02*
X155750000Y-45350000D01*
X155150000Y-45100000D02*
X155450000Y-45100000D01*
X154800000Y-45350000D02*
X154950000Y-45200000D01*
X154550000Y-46100000D02*
X154800000Y-45850000D01*
X155450000Y-45100000D02*
X155500000Y-45150000D01*
X155100000Y-45150000D02*
X155150000Y-45100000D01*
X154500000Y-46200000D02*
X154550000Y-46150000D01*
X155050000Y-45150000D02*
X155100000Y-45150000D01*
X154550000Y-46150000D02*
X154550000Y-46100000D01*
X154800000Y-45850000D02*
X154800000Y-45350000D01*
X155700000Y-45250000D02*
X155700000Y-45300000D01*
%TO.N,/IN2*%
X158100000Y-56800000D02*
X155850000Y-59050000D01*
%TO.N,/IN3*%
X158100000Y-65900000D02*
X155850000Y-68150000D01*
%TO.N,/IN4*%
X158100000Y-75000000D02*
X155850000Y-77250000D01*
%TO.N,/IN5*%
X158100000Y-84100000D02*
X155850000Y-86350000D01*
%TO.N,/IN6*%
X155500000Y-91550000D02*
X155550000Y-91550000D01*
X163650000Y-62400000D02*
X166250000Y-59800000D01*
X168250000Y-56600000D02*
X168400000Y-56450000D01*
X168250000Y-57800000D02*
X168250000Y-56600000D01*
X155650000Y-91500000D02*
X158850000Y-88300000D01*
X163650000Y-70550000D02*
X163650000Y-62400000D01*
X154650000Y-91900000D02*
X154800000Y-91900000D01*
X154500000Y-92050000D02*
X154650000Y-91900000D01*
X155600000Y-91500000D02*
X155650000Y-91500000D01*
X155550000Y-91550000D02*
X155600000Y-91500000D01*
X154800000Y-91900000D02*
X155100000Y-91600000D01*
X155450000Y-91600000D02*
X155500000Y-91550000D01*
X155100000Y-91600000D02*
X155450000Y-91600000D01*
X158850000Y-88150000D02*
X163600000Y-83400000D01*
X158850000Y-88300000D02*
X158850000Y-88150000D01*
X163600000Y-83400000D02*
X163600000Y-70600000D01*
X163600000Y-70600000D02*
X163650000Y-70550000D01*
%TO.N,/IN7*%
X169600000Y-57750000D02*
X169650000Y-57800000D01*
X168750000Y-54300000D02*
X168800000Y-54300000D01*
X168600000Y-54950000D02*
X168600000Y-54450000D01*
X169600000Y-54550000D02*
X169600000Y-57750000D01*
X169500000Y-54400000D02*
X169550000Y-54450000D01*
X168800000Y-54300000D02*
X168850000Y-54250000D01*
X168300000Y-55650000D02*
X168300000Y-55300000D01*
X169250000Y-54200000D02*
X169300000Y-54250000D01*
X169400000Y-54300000D02*
X169450000Y-54300000D01*
X168300000Y-55300000D02*
X168350000Y-55250000D01*
X169550000Y-54500000D02*
X169600000Y-54550000D01*
X169350000Y-54250000D02*
X169400000Y-54300000D01*
X168350000Y-55200000D02*
X168600000Y-54950000D01*
X168600000Y-54450000D02*
X168750000Y-54300000D01*
X169550000Y-54450000D02*
X169550000Y-54500000D01*
X169500000Y-54350000D02*
X169500000Y-54400000D01*
X169300000Y-54250000D02*
X169350000Y-54250000D01*
X168950000Y-54200000D02*
X169250000Y-54200000D01*
X168350000Y-55250000D02*
X168350000Y-55200000D01*
X168900000Y-54250000D02*
X168950000Y-54200000D01*
X168850000Y-54250000D02*
X168900000Y-54250000D01*
X169450000Y-54300000D02*
X169500000Y-54350000D01*
%TO.N,/IN8*%
X171900000Y-65900000D02*
X169650000Y-68150000D01*
%TO.N,/IN9*%
X171900000Y-75000000D02*
X169650000Y-77250000D01*
%TO.N,/IN10*%
X172650000Y-79050000D02*
X177400000Y-74300000D01*
X177450000Y-52100000D02*
X180050000Y-49500000D01*
X168450000Y-82800000D02*
X168600000Y-82800000D01*
X182200000Y-47350000D02*
X182199999Y-47350000D01*
X177450000Y-61450000D02*
X177450000Y-52100000D01*
X169300000Y-82450000D02*
X169350000Y-82450000D01*
X169350000Y-82450000D02*
X169400000Y-82400000D01*
X177400000Y-61500000D02*
X177450000Y-61450000D01*
X169250000Y-82500000D02*
X169300000Y-82450000D01*
X177400000Y-74300000D02*
X177400000Y-61500000D01*
X169450000Y-82400000D02*
X172650000Y-79200000D01*
X169400000Y-82400000D02*
X169450000Y-82400000D01*
X168900000Y-82500000D02*
X169250000Y-82500000D01*
X168600000Y-82800000D02*
X168900000Y-82500000D01*
X172650000Y-79200000D02*
X172650000Y-79050000D01*
X168300000Y-82950000D02*
X168450000Y-82800000D01*
%TO.N,/IN11*%
X182200000Y-56450000D02*
X182199999Y-56449999D01*
X182099999Y-46550000D02*
X182100000Y-46550000D01*
%TO.N,/IN12*%
X182200000Y-65550000D02*
X182199999Y-65550000D01*
X182099999Y-55650000D02*
X182100000Y-55650000D01*
%TO.N,/IN13*%
X182099999Y-64750000D02*
X182100000Y-64750000D01*
X182200000Y-74650000D02*
X182199999Y-74650000D01*
%TO.N,/IN14*%
X182099999Y-73850000D02*
X182100000Y-73850000D01*
X182200000Y-83750000D02*
X182199999Y-83750000D01*
%TO.N,/IN15*%
X182200000Y-92850000D02*
X182199999Y-92850000D01*
X182099999Y-82949999D02*
X182100000Y-82950000D01*
%TO.N,/IN16*%
X182700000Y-92700000D02*
X182700000Y-93000000D01*
X182650000Y-93100000D02*
X182600000Y-93150000D01*
X182600000Y-93200000D02*
X181900000Y-93900000D01*
X182100000Y-92050000D02*
X182400000Y-92350000D01*
X181900000Y-93900000D02*
X181900000Y-94850000D01*
X181900000Y-94850000D02*
X180950000Y-95800000D01*
X182650000Y-92600000D02*
X182650000Y-92650000D01*
X182600000Y-92500000D02*
X182600000Y-92550000D01*
X182650000Y-93050000D02*
X182650000Y-93100000D01*
X182450000Y-92350000D02*
X182600000Y-92500000D01*
X182700000Y-93000000D02*
X182650000Y-93050000D01*
X182600000Y-93150000D02*
X182600000Y-93200000D01*
X179300000Y-95800000D02*
X174800000Y-100300000D01*
X174800000Y-100300000D02*
X169600000Y-100300000D01*
X169600000Y-100300000D02*
X168500000Y-101400000D01*
X182600000Y-92550000D02*
X182650000Y-92600000D01*
X182400000Y-92350000D02*
X182450000Y-92350000D01*
X182650000Y-92650000D02*
X182700000Y-92700000D01*
X180950000Y-95800000D02*
X179300000Y-95800000D01*
X182099999Y-92050000D02*
X182100000Y-92050000D01*
%TD*%
M02*
