%TF.GenerationSoftware,KiCad,Pcbnew,9.0.8+dfsg-1*%
%TF.CreationDate,2026-10-04T23:04:42-06:00*%
%TF.ProjectId,columnBreakout,636f6c75-6d6e-4427-9265-616b6f75742e,rev?*%
%TF.SameCoordinates,Original*%
%TF.FileFunction,Copper,L1,Top*%
%TF.FilePolarity,Positive*%
%FSLAX46Y46*%
G04 Gerber Fmt 4.6, Leading zero omitted, Abs format (unit mm)*
G04 Created by KiCad (PCBNEW 9.0.8+dfsg-1) date 2026-10-04 23:04:42*
%MOMM*%
%LPD*%
G01*
G04 APERTURE LIST*
%TA.AperFunction,SMDPad,CuDef*%
%ADD10R,0.250000X1.500000*%
%TD*%
%TA.AperFunction,SMDPad,CuDef*%
%ADD11R,2.000000X1.700000*%
%TD*%
%TA.AperFunction,SMDPad,CuDef*%
%ADD12R,0.300000X1.500000*%
%TD*%
%TA.AperFunction,ViaPad*%
%ADD13C,0.450000*%
%TD*%
%TA.AperFunction,Conductor*%
%ADD14C,0.250000*%
%TD*%
%TA.AperFunction,Conductor*%
%ADD15C,0.150000*%
%TD*%
%TA.AperFunction,Conductor*%
%ADD16C,0.200000*%
%TD*%
%TA.AperFunction,Conductor*%
%ADD17C,0.500000*%
%TD*%
G04 APERTURE END LIST*
D10*
%TO.P,J3,1,1*%
%TO.N,/R1*%
X152700000Y-53000000D03*
%TO.P,J3,2,2*%
%TO.N,/VDD*%
X153200000Y-53000000D03*
%TO.P,J3,3,3*%
%TO.N,/GND*%
X153700000Y-53000000D03*
%TO.P,J3,4,4*%
%TO.N,/IN30*%
X154200000Y-53000000D03*
%TO.P,J3,5,5*%
%TO.N,/IN29*%
X154700000Y-53000000D03*
%TO.P,J3,6,6*%
%TO.N,/C5*%
X155200000Y-53000000D03*
D11*
%TO.P,J3,7,7*%
%TO.N,unconnected-(J3-Pad7)*%
X156900000Y-55600000D03*
%TO.P,J3,8,8*%
%TO.N,unconnected-(J3-Pad8)*%
X151000000Y-55600000D03*
%TD*%
D10*
%TO.P,J2,1,1*%
%TO.N,/R0*%
X152700000Y-43900000D03*
%TO.P,J2,2,2*%
%TO.N,/VDD*%
X153200000Y-43900000D03*
%TO.P,J2,3,3*%
%TO.N,/GND*%
X153700000Y-43900000D03*
%TO.P,J2,4,4*%
%TO.N,/IN29*%
X154200000Y-43900000D03*
%TO.P,J2,5,5*%
%TO.N,/IN28*%
X154700000Y-43900000D03*
%TO.P,J2,6,6*%
%TO.N,/C5*%
X155200000Y-43900000D03*
D11*
%TO.P,J2,7,7*%
%TO.N,unconnected-(J2-Pad7)*%
X156900000Y-46500000D03*
%TO.P,J2,8,8*%
%TO.N,unconnected-(J2-Pad8)*%
X151000000Y-46500000D03*
%TD*%
D10*
%TO.P,J12,1,1*%
%TO.N,/R4*%
X166500000Y-80300000D03*
%TO.P,J12,2,2*%
%TO.N,/VDD*%
X167000000Y-80300000D03*
%TO.P,J12,3,3*%
%TO.N,/GND*%
X167500000Y-80300000D03*
%TO.P,J12,4,4*%
%TO.N,/IN39*%
X168000000Y-80300000D03*
%TO.P,J12,5,5*%
%TO.N,/IN38*%
X168500000Y-80300000D03*
%TO.P,J12,6,6*%
%TO.N,/C6*%
X169000000Y-80300000D03*
D11*
%TO.P,J12,7,7*%
%TO.N,unconnected-(J12-Pad7)*%
X170700000Y-82900000D03*
%TO.P,J12,8,8*%
%TO.N,unconnected-(J12-Pad8)*%
X164800000Y-82900000D03*
%TD*%
D12*
%TO.P,J1,1,1*%
%TO.N,/R0*%
X151250000Y-98500000D03*
%TO.P,J1,2,2*%
%TO.N,/R1*%
X151750000Y-98500000D03*
%TO.P,J1,3,3*%
%TO.N,/R2*%
X152250000Y-98500000D03*
%TO.P,J1,4,4*%
%TO.N,/R3*%
X152750000Y-98500000D03*
%TO.P,J1,5,5*%
%TO.N,/R4*%
X153250000Y-98500000D03*
%TO.P,J1,6,6*%
%TO.N,/R5*%
X153750000Y-98500000D03*
%TO.P,J1,7,7*%
%TO.N,/VDD*%
X154250000Y-98500000D03*
%TO.P,J1,8,8*%
%TO.N,/GND*%
X154750000Y-98500000D03*
%TO.P,J1,9,9*%
%TO.N,/IN40*%
X155250000Y-98500000D03*
%TO.P,J1,10,10*%
%TO.N,/IN28*%
X155750000Y-98500000D03*
%TO.P,J1,11,11*%
%TO.N,/C6*%
X156250000Y-98500000D03*
%TO.P,J1,12,12*%
%TO.N,/C5*%
X156750000Y-98500000D03*
D11*
%TO.P,J1,13,13*%
%TO.N,unconnected-(J1-Pad13)*%
X158450000Y-101100000D03*
%TO.P,J1,14,14*%
%TO.N,unconnected-(J1-Pad14)*%
X149550000Y-101100000D03*
%TD*%
D10*
%TO.P,J5,1,1*%
%TO.N,/R3*%
X152700000Y-71200000D03*
%TO.P,J5,2,2*%
%TO.N,/VDD*%
X153200000Y-71200000D03*
%TO.P,J5,3,3*%
%TO.N,/GND*%
X153700000Y-71200000D03*
%TO.P,J5,4,4*%
%TO.N,/IN32*%
X154200000Y-71200000D03*
%TO.P,J5,5,5*%
%TO.N,/IN31*%
X154700000Y-71200000D03*
%TO.P,J5,6,6*%
%TO.N,/C5*%
X155200000Y-71200000D03*
D11*
%TO.P,J5,7,7*%
%TO.N,unconnected-(J5-Pad7)*%
X156900000Y-73800000D03*
%TO.P,J5,8,8*%
%TO.N,unconnected-(J5-Pad8)*%
X151000000Y-73800000D03*
%TD*%
D10*
%TO.P,J11,1,1*%
%TO.N,/R3*%
X166500000Y-71400000D03*
%TO.P,J11,2,2*%
%TO.N,/VDD*%
X167000000Y-71400000D03*
%TO.P,J11,3,3*%
%TO.N,/GND*%
X167500000Y-71400000D03*
%TO.P,J11,4,4*%
%TO.N,/IN38*%
X168000000Y-71400000D03*
%TO.P,J11,5,5*%
%TO.N,/IN37*%
X168500000Y-71400000D03*
%TO.P,J11,6,6*%
%TO.N,/C6*%
X169000000Y-71400000D03*
D11*
%TO.P,J11,7,7*%
%TO.N,unconnected-(J11-Pad7)*%
X170700000Y-74000000D03*
%TO.P,J11,8,8*%
%TO.N,unconnected-(J11-Pad8)*%
X164800000Y-74000000D03*
%TD*%
D10*
%TO.P,J13,1,1*%
%TO.N,/R5*%
X166500000Y-89400000D03*
%TO.P,J13,2,2*%
%TO.N,/VDD*%
X167000000Y-89400000D03*
%TO.P,J13,3,3*%
%TO.N,/GND*%
X167500000Y-89400000D03*
%TO.P,J13,4,4*%
%TO.N,/IN40*%
X168000000Y-89400000D03*
%TO.P,J13,5,5*%
%TO.N,/IN39*%
X168500000Y-89400000D03*
%TO.P,J13,6,6*%
%TO.N,/C6*%
X169000000Y-89400000D03*
D11*
%TO.P,J13,7,7*%
%TO.N,unconnected-(J13-Pad7)*%
X170700000Y-92000000D03*
%TO.P,J13,8,8*%
%TO.N,unconnected-(J13-Pad8)*%
X164800000Y-92000000D03*
%TD*%
D10*
%TO.P,J8,1,1*%
%TO.N,/R0*%
X166500000Y-43900000D03*
%TO.P,J8,2,2*%
%TO.N,/VDD*%
X167000000Y-43900000D03*
%TO.P,J8,3,3*%
%TO.N,/GND*%
X167500000Y-43900000D03*
%TO.P,J8,4,4*%
%TO.N,/IN35*%
X168000000Y-43900000D03*
%TO.P,J8,5,5*%
%TO.N,/IN34*%
X168500000Y-43900000D03*
%TO.P,J8,6,6*%
%TO.N,/C6*%
X169000000Y-43900000D03*
D11*
%TO.P,J8,7,7*%
%TO.N,unconnected-(J8-Pad7)*%
X170700000Y-46500000D03*
%TO.P,J8,8,8*%
%TO.N,unconnected-(J8-Pad8)*%
X164800000Y-46500000D03*
%TD*%
D10*
%TO.P,J10,1,1*%
%TO.N,/R2*%
X166500000Y-62400000D03*
%TO.P,J10,2,2*%
%TO.N,/VDD*%
X167000000Y-62400000D03*
%TO.P,J10,3,3*%
%TO.N,/GND*%
X167500000Y-62400000D03*
%TO.P,J10,4,4*%
%TO.N,/IN37*%
X168000000Y-62400000D03*
%TO.P,J10,5,5*%
%TO.N,/IN36*%
X168500000Y-62400000D03*
%TO.P,J10,6,6*%
%TO.N,/C6*%
X169000000Y-62400000D03*
D11*
%TO.P,J10,7,7*%
%TO.N,unconnected-(J10-Pad7)*%
X170700000Y-65000000D03*
%TO.P,J10,8,8*%
%TO.N,unconnected-(J10-Pad8)*%
X164800000Y-65000000D03*
%TD*%
D10*
%TO.P,J9,1,1*%
%TO.N,/R1*%
X166500000Y-53000000D03*
%TO.P,J9,2,2*%
%TO.N,/VDD*%
X167000000Y-53000000D03*
%TO.P,J9,3,3*%
%TO.N,/GND*%
X167500000Y-53000000D03*
%TO.P,J9,4,4*%
%TO.N,/IN36*%
X168000000Y-53000000D03*
%TO.P,J9,5,5*%
%TO.N,/IN35*%
X168500000Y-53000000D03*
%TO.P,J9,6,6*%
%TO.N,/C6*%
X169000000Y-53000000D03*
D11*
%TO.P,J9,7,7*%
%TO.N,unconnected-(J9-Pad7)*%
X170700000Y-55600000D03*
%TO.P,J9,8,8*%
%TO.N,unconnected-(J9-Pad8)*%
X164800000Y-55600000D03*
%TD*%
D10*
%TO.P,J4,1,1*%
%TO.N,/R2*%
X152700000Y-62100000D03*
%TO.P,J4,2,2*%
%TO.N,/VDD*%
X153200000Y-62100000D03*
%TO.P,J4,3,3*%
%TO.N,/GND*%
X153700000Y-62100000D03*
%TO.P,J4,4,4*%
%TO.N,/IN31*%
X154200000Y-62100000D03*
%TO.P,J4,5,5*%
%TO.N,/IN30*%
X154700000Y-62100000D03*
%TO.P,J4,6,6*%
%TO.N,/C5*%
X155200000Y-62100000D03*
D11*
%TO.P,J4,7,7*%
%TO.N,unconnected-(J4-Pad7)*%
X156900000Y-64700000D03*
%TO.P,J4,8,8*%
%TO.N,unconnected-(J4-Pad8)*%
X151000000Y-64700000D03*
%TD*%
D10*
%TO.P,J7,1,1*%
%TO.N,/R5*%
X152700000Y-89400000D03*
%TO.P,J7,2,2*%
%TO.N,/VDD*%
X153200000Y-89400000D03*
%TO.P,J7,3,3*%
%TO.N,/GND*%
X153700000Y-89400000D03*
%TO.P,J7,4,4*%
%TO.N,/IN34*%
X154200000Y-89400000D03*
%TO.P,J7,5,5*%
%TO.N,/IN33*%
X154700000Y-89400000D03*
%TO.P,J7,6,6*%
%TO.N,/C5*%
X155200000Y-89400000D03*
D11*
%TO.P,J7,7,7*%
%TO.N,unconnected-(J7-Pad7)*%
X156900000Y-92000000D03*
%TO.P,J7,8,8*%
%TO.N,unconnected-(J7-Pad8)*%
X151000000Y-92000000D03*
%TD*%
D10*
%TO.P,J6,1,1*%
%TO.N,/R4*%
X152700000Y-80300000D03*
%TO.P,J6,2,2*%
%TO.N,/VDD*%
X153200000Y-80300000D03*
%TO.P,J6,3,3*%
%TO.N,/GND*%
X153700000Y-80300000D03*
%TO.P,J6,4,4*%
%TO.N,/IN33*%
X154200000Y-80300000D03*
%TO.P,J6,5,5*%
%TO.N,/IN32*%
X154700000Y-80300000D03*
%TO.P,J6,6,6*%
%TO.N,/C5*%
X155200000Y-80300000D03*
D11*
%TO.P,J6,7,7*%
%TO.N,unconnected-(J6-Pad7)*%
X156900000Y-82900000D03*
%TO.P,J6,8,8*%
%TO.N,unconnected-(J6-Pad8)*%
X151000000Y-82900000D03*
%TD*%
D13*
%TO.N,/GND*%
X154750000Y-96600000D03*
X153770878Y-72203666D03*
X167550000Y-54100000D03*
X167550000Y-72500000D03*
X167550000Y-63500000D03*
X167600000Y-90500000D03*
X153800000Y-81400000D03*
X153800000Y-88250000D03*
X153775147Y-54012427D03*
X167600000Y-45100000D03*
X153800000Y-60900000D03*
X153800000Y-45650000D03*
X167550000Y-81400000D03*
%TO.N,/R0*%
X151250000Y-102700000D03*
X152334001Y-45334001D03*
X151275000Y-96000000D03*
X161460876Y-98550000D03*
%TO.N,/R1*%
X151750000Y-102100000D03*
X152264124Y-53985876D03*
X162000000Y-97350000D03*
X151750000Y-96700000D03*
%TO.N,/R2*%
X162496752Y-96096752D03*
X152250000Y-101500000D03*
X152475000Y-63209186D03*
X152250000Y-97400000D03*
%TO.N,/R3*%
X152750000Y-101000000D03*
X162985876Y-94935876D03*
%TO.N,/R4*%
X153250000Y-100500000D03*
X163450000Y-93800000D03*
%TO.N,/R5*%
X166300000Y-92725000D03*
X153750000Y-99900000D03*
%TO.N,/VDD*%
X166900000Y-90500000D03*
X166900000Y-92050000D03*
X153100000Y-45650000D03*
X153154488Y-81433446D03*
X166950000Y-81400000D03*
X153100000Y-88250000D03*
X154152799Y-97398250D03*
X166950000Y-54100000D03*
X153102479Y-72202253D03*
X166950000Y-63500000D03*
X166950000Y-72500000D03*
X153102479Y-54002253D03*
X166900000Y-45100000D03*
X153100000Y-60900000D03*
%TO.N,/IN28*%
X155750000Y-95000000D03*
X154700000Y-44950000D03*
%TO.N,/IN40*%
X160750000Y-100000000D03*
X168050000Y-91600000D03*
%TO.N,/IN34*%
X162050000Y-52300000D03*
X155734347Y-89534347D03*
X154600000Y-90668694D03*
X160985876Y-53350000D03*
%TO.N,/IN35*%
X168300000Y-45250000D03*
X168300000Y-46850000D03*
%TD*%
D14*
%TO.N,/C5*%
X156750000Y-94950000D02*
X155200000Y-93400000D01*
X155200000Y-93400000D02*
X155200000Y-89400000D01*
X155200000Y-43900000D02*
X155200000Y-89400000D01*
X156750000Y-98500000D02*
X156750000Y-94950000D01*
X156750000Y-98450000D02*
X156750000Y-98500000D01*
%TO.N,/GND*%
X153700000Y-45550000D02*
X153700000Y-43900000D01*
D15*
X167500000Y-54050000D02*
X167550000Y-54100000D01*
D14*
X153700000Y-53000000D02*
X153700000Y-53937280D01*
X167500000Y-71400000D02*
X167500000Y-72450000D01*
X167500000Y-80300000D02*
X167500000Y-81350000D01*
X167500000Y-62400000D02*
X167500000Y-63450000D01*
X153800000Y-45650000D02*
X153700000Y-45550000D01*
X154750000Y-96600000D02*
X154750000Y-98500000D01*
D15*
X167500000Y-45000000D02*
X167600000Y-45100000D01*
D14*
X167500000Y-89400000D02*
X167500000Y-90400000D01*
X153800000Y-81400000D02*
X153700000Y-81300000D01*
D15*
X167500000Y-81350000D02*
X167550000Y-81400000D01*
D14*
X153700000Y-81300000D02*
X153700000Y-80266508D01*
D15*
X167500000Y-63450000D02*
X167550000Y-63500000D01*
D14*
X167500000Y-53000000D02*
X167500000Y-54050000D01*
X153700000Y-53937280D02*
X153775147Y-54012427D01*
X153800000Y-88250000D02*
X153700000Y-88350000D01*
X153700000Y-61000000D02*
X153700000Y-62166508D01*
X153700000Y-72132788D02*
X153770878Y-72203666D01*
X153700000Y-71166508D02*
X153700000Y-72132788D01*
X153800000Y-60900000D02*
X153700000Y-61000000D01*
X167500000Y-43900000D02*
X167500000Y-45000000D01*
X153700000Y-88350000D02*
X153700000Y-89400000D01*
D15*
X167500000Y-72450000D02*
X167550000Y-72500000D01*
D16*
%TO.N,/R0*%
X151250000Y-96025000D02*
X151250000Y-98500000D01*
X152334001Y-45334001D02*
X152700000Y-44968002D01*
X166425000Y-47225000D02*
X166425000Y-43975000D01*
X161460876Y-98550000D02*
X161460876Y-52189124D01*
X166425000Y-43975000D02*
X166500000Y-43900000D01*
X151275000Y-96000000D02*
X151250000Y-96025000D01*
X161460876Y-52189124D02*
X166425000Y-47225000D01*
X151250000Y-98500000D02*
X151250000Y-102700000D01*
X152700000Y-44968002D02*
X152700000Y-43900000D01*
%TO.N,/R1*%
X166500000Y-54321752D02*
X166475000Y-54296752D01*
X151750000Y-96700000D02*
X151750000Y-98500000D01*
X166475000Y-53903248D02*
X166500000Y-53878248D01*
X152700000Y-53550000D02*
X152700000Y-53000000D01*
X166475000Y-54296752D02*
X166475000Y-53903248D01*
X166500000Y-53878248D02*
X166500000Y-53000000D01*
X152264124Y-53985876D02*
X152700000Y-53550000D01*
X151750000Y-98500000D02*
X151750000Y-102100000D01*
X162000000Y-97350000D02*
X162000000Y-60750000D01*
X166500000Y-56250000D02*
X166500000Y-54321752D01*
X162000000Y-60750000D02*
X166500000Y-56250000D01*
%TO.N,/R2*%
X162496752Y-96096752D02*
X162496752Y-95803248D01*
X162500000Y-69650000D02*
X166500000Y-65650000D01*
X162496752Y-95803248D02*
X162500000Y-95800000D01*
X166475000Y-63303248D02*
X166500000Y-63278248D01*
X152250000Y-97400000D02*
X152250000Y-98500000D01*
X152250000Y-98500000D02*
X152250000Y-101500000D01*
X166475000Y-63696752D02*
X166475000Y-63303248D01*
X152700000Y-62984186D02*
X152700000Y-62100000D01*
X166500000Y-65650000D02*
X166500000Y-63721752D01*
X162500000Y-95800000D02*
X162500000Y-69650000D01*
X166500000Y-63278248D02*
X166500000Y-62400000D01*
X152475000Y-63209186D02*
X152700000Y-62984186D01*
X166500000Y-63721752D02*
X166475000Y-63696752D01*
%TO.N,/R3*%
X162985876Y-94760876D02*
X162975000Y-94750000D01*
X152750000Y-98500000D02*
X152750000Y-101000000D01*
X166500000Y-72721752D02*
X166475000Y-72696752D01*
X162985876Y-94935876D02*
X162985876Y-94760876D01*
X152750000Y-91450000D02*
X152750000Y-98500000D01*
X152700000Y-71900000D02*
X152250000Y-72350000D01*
X152700000Y-71200000D02*
X152700000Y-71900000D01*
X166475000Y-72303248D02*
X166500000Y-72278248D01*
X166500000Y-74650000D02*
X166500000Y-72721752D01*
X162975000Y-94750000D02*
X162975000Y-78175000D01*
X166500000Y-72278248D02*
X166500000Y-71400000D01*
X152350000Y-85105026D02*
X151950000Y-85505026D01*
X151950000Y-90650000D02*
X152750000Y-91450000D01*
X152350000Y-81850000D02*
X152350000Y-85105026D01*
X152250000Y-81750000D02*
X152350000Y-81850000D01*
X152250000Y-72350000D02*
X152250000Y-81750000D01*
X151950000Y-85505026D02*
X151950000Y-90650000D01*
X166475000Y-72696752D02*
X166475000Y-72303248D01*
X162975000Y-78175000D02*
X166500000Y-74650000D01*
%TO.N,/R4*%
X166500000Y-83550000D02*
X166500000Y-81621752D01*
X152700000Y-85250000D02*
X152700000Y-81650710D01*
X152300000Y-85650000D02*
X152700000Y-85250000D01*
X153250000Y-98500000D02*
X153250000Y-91450000D01*
X152700000Y-81216182D02*
X152700000Y-80300000D01*
X166500000Y-81178248D02*
X166500000Y-80300000D01*
X153250000Y-98500000D02*
X153250000Y-100500000D01*
X152700000Y-81650710D02*
X152679488Y-81630198D01*
X166500000Y-81621752D02*
X166475000Y-81596752D01*
X166475000Y-81596752D02*
X166475000Y-81203248D01*
X152300000Y-90500000D02*
X152300000Y-85650000D01*
X166475000Y-81203248D02*
X166500000Y-81178248D01*
X152679488Y-81236694D02*
X152700000Y-81216182D01*
X153250000Y-91450000D02*
X152300000Y-90500000D01*
X163450000Y-86600000D02*
X166500000Y-83550000D01*
X152679488Y-81630198D02*
X152679488Y-81236694D01*
X163450000Y-93800000D02*
X163450000Y-86600000D01*
%TO.N,/R5*%
X152700000Y-90400000D02*
X153677799Y-91377799D01*
X153677799Y-97595002D02*
X153750000Y-97667203D01*
D15*
X166500000Y-90200000D02*
X166500000Y-89400000D01*
D16*
X153677799Y-91377799D02*
X153677799Y-97595002D01*
X153750000Y-99900000D02*
X153750000Y-98500000D01*
D15*
X166300000Y-90400000D02*
X166500000Y-90200000D01*
X166300000Y-92725000D02*
X166300000Y-90400000D01*
D16*
X152700000Y-89400000D02*
X152700000Y-90400000D01*
X153750000Y-97667203D02*
X153750000Y-98500000D01*
D14*
%TO.N,/VDD*%
X153175000Y-81229732D02*
X153175000Y-80325000D01*
X153200000Y-53000000D02*
X153200000Y-53904732D01*
X154152799Y-97398250D02*
X154152799Y-97402799D01*
D15*
X167000000Y-63450000D02*
X166950000Y-63500000D01*
D14*
X153100000Y-88250000D02*
X153200000Y-88350000D01*
X154250000Y-97500000D02*
X154250000Y-98500000D01*
X167000000Y-90400000D02*
X166900000Y-90500000D01*
X153200000Y-72104732D02*
X153102479Y-72202253D01*
D15*
X167000000Y-81350000D02*
X166950000Y-81400000D01*
X153100000Y-45650000D02*
X153147747Y-45602253D01*
D14*
X153200000Y-71200000D02*
X153200000Y-72104732D01*
X153154488Y-81250244D02*
X153175000Y-81229732D01*
X167000000Y-89400000D02*
X167000000Y-90400000D01*
X167000000Y-62400000D02*
X167000000Y-63450000D01*
X153200000Y-88350000D02*
X153200000Y-89400000D01*
X154152799Y-97402799D02*
X154250000Y-97500000D01*
X167000000Y-43900000D02*
X167000000Y-45000000D01*
X153200000Y-43900000D02*
X153200000Y-45550000D01*
X167000000Y-71400000D02*
X167000000Y-72450000D01*
X167000000Y-53000000D02*
X167000000Y-54050000D01*
X153154488Y-81433446D02*
X153154488Y-81250244D01*
X153175000Y-80325000D02*
X153200000Y-80300000D01*
D17*
X166900000Y-92050000D02*
X166900000Y-90500000D01*
D15*
X167000000Y-54050000D02*
X166950000Y-54100000D01*
X153175000Y-88325000D02*
X153100000Y-88250000D01*
X167000000Y-45000000D02*
X166900000Y-45100000D01*
D14*
X154225000Y-98475000D02*
X154250000Y-98500000D01*
X153200000Y-53904732D02*
X153102479Y-54002253D01*
X153200000Y-45550000D02*
X153100000Y-45650000D01*
X153100000Y-60900000D02*
X153200000Y-61000000D01*
X167000000Y-80300000D02*
X167000000Y-81350000D01*
D15*
X167000000Y-72450000D02*
X166950000Y-72500000D01*
D14*
X153200000Y-61000000D02*
X153200000Y-62100000D01*
%TO.N,/C6*%
X169400000Y-45050000D02*
X169000000Y-44650000D01*
X169000000Y-91850000D02*
X169000000Y-89400000D01*
X158000000Y-99600000D02*
X158300000Y-99300000D01*
X169000000Y-71400000D02*
X169000000Y-46100000D01*
X161550000Y-99300000D02*
X169000000Y-91850000D01*
X169000000Y-46100000D02*
X169400000Y-45700000D01*
X169000000Y-89400000D02*
X169000000Y-71400000D01*
X156250000Y-98500000D02*
X156250000Y-99350000D01*
X169000000Y-44650000D02*
X169000000Y-43900000D01*
X169400000Y-45700000D02*
X169400000Y-45050000D01*
X156500000Y-99600000D02*
X158000000Y-99600000D01*
X158300000Y-99300000D02*
X161550000Y-99300000D01*
X156250000Y-99350000D02*
X156500000Y-99600000D01*
D16*
%TO.N,/IN28*%
X155750000Y-95000000D02*
X155750000Y-98500000D01*
X154700000Y-44950000D02*
X154700000Y-43900000D01*
D15*
%TO.N,/IN40*%
X155900000Y-100000000D02*
X155250000Y-99350000D01*
X160750000Y-100000000D02*
X155900000Y-100000000D01*
X155250000Y-99350000D02*
X155250000Y-98500000D01*
X168050000Y-89450000D02*
X168000000Y-89400000D01*
X168050000Y-91600000D02*
X168050000Y-89450000D01*
D16*
%TO.N,/IN29*%
X154200000Y-43900000D02*
X154200000Y-45200000D01*
X154200000Y-45200000D02*
X154700000Y-45700000D01*
X154700000Y-45700000D02*
X154700000Y-53000000D01*
%TO.N,/IN30*%
X154200000Y-53000000D02*
X154200000Y-53800000D01*
X154200000Y-53800000D02*
X154700000Y-54300000D01*
X154700000Y-54300000D02*
X154700000Y-62100000D01*
%TO.N,/IN31*%
X154200000Y-62100000D02*
X154200000Y-62900000D01*
X154200000Y-62900000D02*
X154700000Y-63400000D01*
X154700000Y-63400000D02*
X154700000Y-71200000D01*
%TO.N,/IN32*%
X154700000Y-72500000D02*
X154700000Y-80300000D01*
X154200000Y-72000000D02*
X154700000Y-72500000D01*
X154200000Y-71200000D02*
X154200000Y-72000000D01*
%TO.N,/IN33*%
X154200000Y-80300000D02*
X154200000Y-81100000D01*
X154700000Y-81600000D02*
X154700000Y-89400000D01*
X154200000Y-81100000D02*
X154700000Y-81600000D01*
%TO.N,/IN34*%
X168850000Y-45500000D02*
X168850000Y-45050000D01*
X160985876Y-54735876D02*
X160985876Y-53350000D01*
X168500000Y-44700000D02*
X168500000Y-43900000D01*
X154600000Y-90668694D02*
X154200000Y-90268694D01*
X154200000Y-90268694D02*
X154200000Y-89400000D01*
X155734347Y-89534347D02*
X161000000Y-84268694D01*
X161000000Y-84268694D02*
X161000000Y-54750000D01*
X162050000Y-52300000D02*
X168850000Y-45500000D01*
X161000000Y-54750000D02*
X160985876Y-54735876D01*
X168850000Y-45050000D02*
X168500000Y-44700000D01*
D15*
%TO.N,/IN39*%
X168500000Y-88700000D02*
X168500000Y-89400000D01*
X168000000Y-88200000D02*
X168500000Y-88700000D01*
X168000000Y-80300000D02*
X168000000Y-88200000D01*
%TO.N,/IN38*%
X168000000Y-71400000D02*
X168000000Y-78975000D01*
X168500000Y-79475000D02*
X168500000Y-80300000D01*
X168000000Y-78975000D02*
X168500000Y-79475000D01*
%TO.N,/IN37*%
X168500000Y-70500000D02*
X168500000Y-71400000D01*
X168000000Y-70000000D02*
X168500000Y-70500000D01*
X168000000Y-62400000D02*
X168000000Y-70000000D01*
%TO.N,/IN36*%
X168500000Y-61575000D02*
X168500000Y-62400000D01*
X168000000Y-53000000D02*
X168000000Y-61075000D01*
X168000000Y-61075000D02*
X168500000Y-61575000D01*
%TO.N,/IN35*%
X168500000Y-47050000D02*
X168500000Y-53000000D01*
X168300000Y-46850000D02*
X168500000Y-47050000D01*
X168000000Y-43900000D02*
X168000000Y-44800000D01*
X168300000Y-45100000D02*
X168300000Y-45250000D01*
X168000000Y-44800000D02*
X168300000Y-45100000D01*
%TD*%
M02*
