%TF.GenerationSoftware,KiCad,Pcbnew,9.0.8+dfsg-1*%
%TF.CreationDate,2026-10-06T18:10:09-06:00*%
%TF.ProjectId,columnBreakout,636f6c75-6d6e-4427-9265-616b6f75742e,rev?*%
%TF.SameCoordinates,Original*%
%TF.FileFunction,Copper,L2,Bot*%
%TF.FilePolarity,Positive*%
%FSLAX46Y46*%
G04 Gerber Fmt 4.6, Leading zero omitted, Abs format (unit mm)*
G04 Created by KiCad (PCBNEW 9.0.8+dfsg-1) date 2026-10-06 18:10:09*
%MOMM*%
%LPD*%
G01*
G04 APERTURE LIST*
%TA.AperFunction,ViaPad*%
%ADD10C,0.450000*%
%TD*%
%TA.AperFunction,Conductor*%
%ADD11C,0.500000*%
%TD*%
%TA.AperFunction,Conductor*%
%ADD12C,0.150000*%
%TD*%
G04 APERTURE END LIST*
D10*
%TO.N,/GND*%
X181300000Y-64800000D03*
X176100000Y-73900000D03*
X181300000Y-91900000D03*
X167500000Y-83100000D03*
X181300000Y-73900000D03*
X176100000Y-91900000D03*
X181300000Y-83100000D03*
X167500000Y-73900000D03*
X153750000Y-46600000D03*
X153700000Y-73900000D03*
X176100000Y-46600000D03*
X176100000Y-83100000D03*
X181300000Y-55700000D03*
X176100000Y-64800000D03*
X153700000Y-83100000D03*
X176100000Y-55700000D03*
X153700000Y-91900000D03*
X167500000Y-55700000D03*
X153700000Y-55700000D03*
X153700000Y-64800000D03*
X181300000Y-46600000D03*
X167500000Y-64800000D03*
%TO.N,/R0*%
X152700000Y-45000000D03*
X172200000Y-45000000D03*
X180300000Y-45000000D03*
%TO.N,/R1*%
X166500000Y-54100000D03*
X180300000Y-54100000D03*
X152700000Y-54100000D03*
X172700000Y-54100000D03*
%TO.N,/R2*%
X173200000Y-63200000D03*
X166500000Y-63200000D03*
X152700000Y-63200000D03*
X180300000Y-63200000D03*
%TO.N,/R3*%
X173700000Y-72300000D03*
X180300000Y-72300000D03*
X152700000Y-72300000D03*
X166500000Y-72300000D03*
%TO.N,/R4*%
X152700000Y-81400000D03*
X174200000Y-81400000D03*
X180300000Y-81400000D03*
X166500000Y-81400000D03*
%TO.N,/R5*%
X152700000Y-90500000D03*
X180300000Y-90500000D03*
X174700000Y-90500000D03*
%TO.N,/VDD*%
X153200000Y-64000000D03*
X180799998Y-73049999D03*
X167000000Y-82200000D03*
X153200000Y-82200000D03*
X180800000Y-82200000D03*
X175400000Y-64000000D03*
X180800000Y-45700000D03*
X175400000Y-54900000D03*
X175400000Y-73050000D03*
X175400000Y-45700000D03*
X175400000Y-91200000D03*
X167000000Y-54900000D03*
X153200000Y-73050000D03*
X167000000Y-64000000D03*
X180800000Y-64000000D03*
X153200000Y-45700000D03*
X175400000Y-82200000D03*
X153200000Y-54900000D03*
X180799999Y-91200000D03*
X167000000Y-73050000D03*
X180800000Y-54900000D03*
X153200000Y-91200000D03*
%TO.N,/C0*%
X155200000Y-92600000D03*
X178200000Y-100200000D03*
%TO.N,/C1*%
X169000000Y-84500000D03*
X177200000Y-84500000D03*
%TO.N,/C2*%
X182799999Y-93600000D03*
X177200000Y-93600000D03*
%TO.N,/IN0*%
X176725000Y-47400000D03*
X154700000Y-47400000D03*
%TO.N,/IN6*%
X168500000Y-56900000D03*
X152250000Y-56900000D03*
%TO.N,/IN10*%
X177200000Y-83800000D03*
X177200000Y-48100000D03*
X182300000Y-48100000D03*
X168000000Y-83800000D03*
%TO.N,/IN16*%
X176200000Y-99700000D03*
X181800000Y-92600000D03*
%TD*%
D11*
%TO.N,/GND*%
X176100000Y-46600000D02*
X181300000Y-46600000D01*
X153750000Y-46600000D02*
X176100000Y-46600000D01*
X153700000Y-83100000D02*
X176100000Y-83100000D01*
X181300000Y-73900000D02*
X176100000Y-73900000D01*
X176100000Y-64800000D02*
X181300000Y-64800000D01*
X176100000Y-55700000D02*
X181300000Y-55700000D01*
X176100000Y-83100000D02*
X181300000Y-83100000D01*
X153700000Y-91900000D02*
X176100000Y-91900000D01*
X176100000Y-91900000D02*
X181300000Y-91900000D01*
X153700000Y-73900000D02*
X176100000Y-73900000D01*
X153700000Y-55700000D02*
X176100000Y-55700000D01*
X153700000Y-64800000D02*
X176100000Y-64800000D01*
D12*
%TO.N,/R0*%
X180300000Y-45000000D02*
X152700000Y-45000000D01*
%TO.N,/R1*%
X172700000Y-54100000D02*
X166500000Y-54100000D01*
X172700000Y-54100000D02*
X180300000Y-54100000D01*
X152700000Y-54100000D02*
X166500000Y-54100000D01*
%TO.N,/R2*%
X173200000Y-63200000D02*
X166500000Y-63200000D01*
X152700000Y-63200000D02*
X166500000Y-63200000D01*
X180300000Y-63200000D02*
X173200000Y-63200000D01*
%TO.N,/R3*%
X166500000Y-72300000D02*
X173700000Y-72300000D01*
X166500000Y-72300000D02*
X152700000Y-72300000D01*
X173700000Y-72300000D02*
X180300000Y-72300000D01*
%TO.N,/R4*%
X166500000Y-81400000D02*
X152700000Y-81400000D01*
X180300000Y-81400000D02*
X174200000Y-81400000D01*
X174200000Y-81400000D02*
X166500000Y-81400000D01*
%TO.N,/R5*%
X174700000Y-90500000D02*
X180300000Y-90500000D01*
X152700000Y-90500000D02*
X174700000Y-90500000D01*
D11*
%TO.N,/VDD*%
X153200000Y-91200000D02*
X175400000Y-91200000D01*
X175400000Y-64000000D02*
X180800000Y-64000000D01*
X180800000Y-45700000D02*
X153200000Y-45700000D01*
X153200000Y-54900000D02*
X175400000Y-54900000D01*
X167000000Y-82200000D02*
X175400000Y-82200000D01*
X153200000Y-64000000D02*
X175400000Y-64000000D01*
X153200000Y-82200000D02*
X167000000Y-82200000D01*
X175400000Y-91200000D02*
X180799999Y-91200000D01*
X175400000Y-54900000D02*
X180800000Y-54900000D01*
X175400000Y-82200000D02*
X180800000Y-82200000D01*
X175449999Y-73049999D02*
X180799998Y-73049999D01*
X175449998Y-73050000D02*
X175449999Y-73049999D01*
X167000000Y-73050000D02*
X175400000Y-73050000D01*
X175400000Y-73050000D02*
X175449998Y-73050000D01*
X153200000Y-73050000D02*
X167000000Y-73050000D01*
D12*
%TO.N,/C0*%
X173000000Y-93200000D02*
X172400000Y-92600000D01*
X173000000Y-97300000D02*
X173000000Y-93200000D01*
X178200000Y-100200000D02*
X175900000Y-100200000D01*
X175900000Y-100200000D02*
X173000000Y-97300000D01*
X172400000Y-92600000D02*
X155200000Y-92600000D01*
%TO.N,/C1*%
X169000000Y-84500000D02*
X177200000Y-84500000D01*
%TO.N,/C2*%
X177200000Y-93600000D02*
X182799999Y-93600000D01*
%TO.N,/IN0*%
X154700000Y-47400000D02*
X176725000Y-47400000D01*
%TO.N,/IN6*%
X152250000Y-56900000D02*
X168500000Y-56900000D01*
%TO.N,/IN10*%
X168000000Y-83800000D02*
X177200000Y-83800000D01*
X182300000Y-48100000D02*
X177200000Y-48100000D01*
%TO.N,/IN16*%
X176800000Y-92600000D02*
X176200000Y-93200000D01*
X176200000Y-93200000D02*
X176200000Y-99700000D01*
X181800000Y-92600000D02*
X176800000Y-92600000D01*
%TD*%
M02*
