M48
; DRILL file {KiCad 9.0.8+dfsg-1} date 2026-10-04T23:04:42-0600
; FORMAT={-:-/ absolute / inch / decimal}
; #@! TF.CreationDate,2026-10-04T23:04:42-06:00
; #@! TF.GenerationSoftware,Kicad,Pcbnew,9.0.8+dfsg-1
; #@! TF.FileFunction,Plated,1,2,PTH
FMAT,2
INCH
; #@! TA.AperFunction,Plated,PTH,ViaDrill
T1C0.0079
%
G90
G05
T1
X5.9547Y-4.0433
X5.9557Y-3.7795
X5.9744Y-3.8071
X5.9744Y-4.0197
X5.9941Y-3.8346
X5.9941Y-3.9961
X5.9947Y-2.1254
X5.9974Y-1.7848
X6.003Y-2.4886
X6.0138Y-3.9764
X6.0276Y-1.7972
X6.0276Y-2.3976
X6.0276Y-3.4744
X6.0277Y-2.1261
X6.0277Y-2.8426
X6.0297Y-3.206
X6.0335Y-3.9567
X6.0531Y-3.9331
X6.054Y-2.8427
X6.0541Y-2.1265
X6.0551Y-1.7972
X6.0551Y-2.3976
X6.0551Y-3.2047
X6.0551Y-3.4744
X6.069Y-3.8346
X6.0866Y-3.5696
X6.0906Y-1.7697
X6.0925Y-3.8031
X6.1313Y-3.525
X6.1319Y-3.7402
X6.3287Y-3.937
X6.338Y-2.1004
X6.3567Y-3.8799
X6.378Y-3.8327
X6.3799Y-2.0591
X6.3975Y-3.7833
X6.4168Y-3.7376
X6.435Y-3.6929
X6.5472Y-3.6506
X6.5709Y-1.7756
X6.5709Y-3.563
X6.5709Y-3.624
X6.5728Y-2.1299
X6.5728Y-2.5
X6.5728Y-2.8543
X6.5728Y-3.2047
X6.5965Y-2.1299
X6.5965Y-2.5
X6.5965Y-2.8543
X6.5965Y-3.2047
X6.5984Y-1.7756
X6.5984Y-3.563
X6.6161Y-3.6063
X6.626Y-1.7815
X6.626Y-1.8445
M30
