M48
; DRILL file {KiCad 9.0.8-4-g1ee99dff} date 2026-10-05T22:56:07-0600
; FORMAT={-:-/ absolute / metric / decimal}
; #@! TF.CreationDate,2026-10-05T22:56:07-06:00
; #@! TF.GenerationSoftware,Kicad,Pcbnew,9.0.8-4-g1ee99dff
; #@! TF.FileFunction,Plated,1,2,PTH
FMAT,2
METRIC
; #@! TA.AperFunction,Plated,PTH,ViaDrill
T1C0.200
%
G90
G05
T1
X150.05Y-89.45
X150.35Y-94.8
X150.4Y-76.65
X151.45Y-61.6
X151.75Y-93.5
X152.1Y-90.3
X152.45Y-51.85
X152.55Y-45.25
X153.1Y-45.6
X153.1Y-54.7
X153.1Y-63.8
X153.1Y-72.9
X153.1Y-82.0
X153.1Y-91.1
X153.8Y-45.6
X153.8Y-54.7
X153.8Y-63.8
X153.8Y-72.9
X153.8Y-82.0
X153.8Y-91.1
X153.8Y-94.6
X154.3Y-96.3
X154.45Y-86.3
X154.5Y-46.55
X154.5Y-92.05
X154.55Y-48.7
X154.6Y-47.35
X155.05Y-96.3
X155.3Y-45.6
X155.3Y-54.7
X155.3Y-63.8
X155.3Y-72.9
X155.3Y-82.0
X155.3Y-91.1
X155.85Y-48.7
X155.85Y-59.05
X155.85Y-68.15
X155.85Y-77.25
X155.85Y-86.35
X156.45Y-96.3
X157.4Y-96.4
X158.1Y-56.8
X158.1Y-65.9
X158.1Y-75.0
X158.1Y-84.1
X158.8Y-97.75
X159.1Y-98.75
X159.5Y-99.25
X161.05Y-100.0
X161.8Y-96.3
X162.25Y-98.7
X165.15Y-94.2
X165.85Y-97.35
X166.25Y-59.8
X166.9Y-54.7
X166.9Y-63.8
X166.9Y-72.9
X166.9Y-82.0
X167.0Y-100.2
X167.5Y-101.4
X167.6Y-54.7
X167.6Y-63.8
X167.6Y-72.9
X167.6Y-82.0
X167.6Y-94.6
X168.25Y-57.8
X168.25Y-85.1
X168.3Y-55.65
X168.3Y-82.95
X168.4Y-56.45
X168.5Y-101.4
X169.0Y-102.5
X169.05Y-83.8
X169.1Y-54.7
X169.1Y-63.8
X169.1Y-72.9
X169.1Y-82.0
X169.5Y-101.4
X169.65Y-57.8
X169.65Y-68.15
X169.65Y-77.25
X170.0Y-102.5
X171.9Y-65.9
X171.9Y-75.0
X180.05Y-49.5
X180.7Y-45.6
X180.7Y-54.7
X180.7Y-63.8
X180.7Y-72.9
X180.7Y-82.0
X180.7Y-91.1
X181.4Y-45.6
X181.4Y-54.7
X181.4Y-63.8
X181.4Y-72.9
X181.4Y-82.0
X181.4Y-91.1
X181.4Y-94.6
X182.1Y-46.55
X182.1Y-55.65
X182.1Y-64.75
X182.1Y-73.85
X182.1Y-82.95
X182.1Y-92.05
X182.2Y-47.35
X182.2Y-56.45
X182.2Y-65.55
X182.2Y-74.65
X182.2Y-83.75
X182.2Y-92.85
X182.9Y-45.6
X182.9Y-54.7
X182.9Y-63.8
X182.9Y-72.9
X182.9Y-82.0
X182.9Y-91.1
M30
