%TF.GenerationSoftware,KiCad,Pcbnew,9.0.8-4-g1ee99dff*%
%TF.CreationDate,2026-10-05T22:56:06-06:00*%
%TF.ProjectId,columnBreakout,636f6c75-6d6e-4427-9265-616b6f75742e,rev?*%
%TF.SameCoordinates,Original*%
%TF.FileFunction,Soldermask,Top*%
%TF.FilePolarity,Negative*%
%FSLAX46Y46*%
G04 Gerber Fmt 4.6, Leading zero omitted, Abs format (unit mm)*
G04 Created by KiCad (PCBNEW 9.0.8-4-g1ee99dff) date 2026-10-05 22:56:06*
%MOMM*%
%LPD*%
G01*
G04 APERTURE LIST*
%ADD10R,0.250000X1.500000*%
%ADD11R,2.000000X1.700000*%
%ADD12C,2.200000*%
%ADD13R,0.300000X1.500000*%
G04 APERTURE END LIST*
D10*
%TO.C,J3*%
X152700000Y-53000000D03*
X153200000Y-53000000D03*
X153700000Y-53000000D03*
X154200000Y-53000000D03*
X154700000Y-53000000D03*
X155200000Y-53000000D03*
D11*
X156900000Y-55600000D03*
X151000000Y-55600000D03*
%TD*%
D10*
%TO.C,J2*%
X152700000Y-43900000D03*
X153200000Y-43900000D03*
X153700000Y-43900000D03*
X154200000Y-43900000D03*
X154700000Y-43900000D03*
X155200000Y-43900000D03*
D11*
X156900000Y-46500000D03*
X151000000Y-46500000D03*
%TD*%
D10*
%TO.C,J15*%
X180299999Y-80300000D03*
X180799999Y-80300000D03*
X181299999Y-80300000D03*
X181799999Y-80300000D03*
X182299999Y-80300000D03*
X182799999Y-80300000D03*
D11*
X184499999Y-82900000D03*
X178599999Y-82900000D03*
%TD*%
D10*
%TO.C,J12*%
X180299999Y-43900000D03*
X180799999Y-43900000D03*
X181299999Y-43900000D03*
X181799999Y-43900000D03*
X182299999Y-43900000D03*
X182799999Y-43900000D03*
D11*
X184499999Y-46500000D03*
X178599999Y-46500000D03*
%TD*%
D12*
%TO.C,H3*%
X148800000Y-87900000D03*
%TD*%
D10*
%TO.C,J5*%
X152700000Y-71200000D03*
X153200000Y-71200000D03*
X153700000Y-71200000D03*
X154200000Y-71200000D03*
X154700000Y-71200000D03*
X155200000Y-71200000D03*
D11*
X156900000Y-73800000D03*
X151000000Y-73800000D03*
%TD*%
D10*
%TO.C,J17*%
X180299999Y-62100000D03*
X180799999Y-62100000D03*
X181299999Y-62100000D03*
X181799999Y-62100000D03*
X182299999Y-62100000D03*
X182799999Y-62100000D03*
D11*
X184499999Y-64700000D03*
X178599999Y-64700000D03*
%TD*%
D10*
%TO.C,J11*%
X166500000Y-80300000D03*
X167000000Y-80300000D03*
X167500000Y-80300000D03*
X168000000Y-80300000D03*
X168500000Y-80300000D03*
X169000000Y-80300000D03*
D11*
X170700000Y-82900000D03*
X164800000Y-82900000D03*
%TD*%
D10*
%TO.C,J14*%
X180299999Y-89400000D03*
X180799999Y-89400000D03*
X181299999Y-89400000D03*
X181799999Y-89400000D03*
X182299999Y-89400000D03*
X182799999Y-89400000D03*
D11*
X184499999Y-92000000D03*
X178599999Y-92000000D03*
%TD*%
D10*
%TO.C,J13*%
X180299999Y-53000000D03*
X180799999Y-53000000D03*
X181299999Y-53000000D03*
X181799999Y-53000000D03*
X182299999Y-53000000D03*
X182799999Y-53000000D03*
D11*
X184499999Y-55600000D03*
X178599999Y-55600000D03*
%TD*%
D10*
%TO.C,J8*%
X166500000Y-53000000D03*
X167000000Y-53000000D03*
X167500000Y-53000000D03*
X168000000Y-53000000D03*
X168500000Y-53000000D03*
X169000000Y-53000000D03*
D11*
X170700000Y-55600000D03*
X164800000Y-55600000D03*
%TD*%
D10*
%TO.C,J10*%
X166500000Y-71200000D03*
X167000000Y-71200000D03*
X167500000Y-71200000D03*
X168000000Y-71200000D03*
X168500000Y-71200000D03*
X169000000Y-71200000D03*
D11*
X170700000Y-73800000D03*
X164800000Y-73800000D03*
%TD*%
D13*
%TO.C,J1*%
X164500000Y-98500000D03*
X165000000Y-98500000D03*
X165500000Y-98500000D03*
X166000000Y-98500000D03*
X166500000Y-98500000D03*
X167000000Y-98500000D03*
X167500000Y-98500000D03*
X168000000Y-98500000D03*
X168500000Y-98500000D03*
X169000000Y-98500000D03*
X169500000Y-98500000D03*
X170000000Y-98500000D03*
X170500000Y-98500000D03*
X171000000Y-98500000D03*
D11*
X172700000Y-101100000D03*
X162800000Y-101100000D03*
%TD*%
D12*
%TO.C,H2*%
X186700000Y-51500000D03*
%TD*%
D10*
%TO.C,J9*%
X166500000Y-62100000D03*
X167000000Y-62100000D03*
X167500000Y-62100000D03*
X168000000Y-62100000D03*
X168500000Y-62100000D03*
X169000000Y-62100000D03*
D11*
X170700000Y-64700000D03*
X164800000Y-64700000D03*
%TD*%
D12*
%TO.C,H1*%
X148800000Y-51500000D03*
%TD*%
D10*
%TO.C,J16*%
X180299999Y-71200000D03*
X180799999Y-71200000D03*
X181299999Y-71200000D03*
X181799999Y-71200000D03*
X182299999Y-71200000D03*
X182799999Y-71200000D03*
D11*
X184499999Y-73800000D03*
X178599999Y-73800000D03*
%TD*%
D10*
%TO.C,J4*%
X152700000Y-62100000D03*
X153200000Y-62100000D03*
X153700000Y-62100000D03*
X154200000Y-62100000D03*
X154700000Y-62100000D03*
X155200000Y-62100000D03*
D11*
X156900000Y-64700000D03*
X151000000Y-64700000D03*
%TD*%
D10*
%TO.C,J7*%
X152700000Y-89400000D03*
X153200000Y-89400000D03*
X153700000Y-89400000D03*
X154200000Y-89400000D03*
X154700000Y-89400000D03*
X155200000Y-89400000D03*
D11*
X156900000Y-92000000D03*
X151000000Y-92000000D03*
%TD*%
D12*
%TO.C,H4*%
X186700000Y-87900000D03*
%TD*%
D10*
%TO.C,J6*%
X152700000Y-80300000D03*
X153200000Y-80300000D03*
X153700000Y-80300000D03*
X154200000Y-80300000D03*
X154700000Y-80300000D03*
X155200000Y-80300000D03*
D11*
X156900000Y-82900000D03*
X151000000Y-82900000D03*
%TD*%
M02*
