%TF.GenerationSoftware,KiCad,Pcbnew,9.0.8+dfsg-1*%
%TF.CreationDate,2026-10-06T18:10:09-06:00*%
%TF.ProjectId,columnBreakout,636f6c75-6d6e-4427-9265-616b6f75742e,rev?*%
%TF.SameCoordinates,Original*%
%TF.FileFunction,Legend,Top*%
%TF.FilePolarity,Positive*%
%FSLAX46Y46*%
G04 Gerber Fmt 4.6, Leading zero omitted, Abs format (unit mm)*
G04 Created by KiCad (PCBNEW 9.0.8+dfsg-1) date 2026-10-06 18:10:09*
%MOMM*%
%LPD*%
G01*
G04 APERTURE LIST*
%ADD10C,0.300000*%
%ADD11C,0.150000*%
%ADD12C,0.250000*%
%ADD13C,0.060000*%
%ADD14C,0.000000*%
%ADD15R,0.250000X1.500000*%
%ADD16R,2.000000X1.700000*%
%ADD17C,2.200000*%
%ADD18R,0.300000X1.500000*%
G04 APERTURE END LIST*
D10*
X152850000Y-42600000D02*
G75*
G02*
X152550000Y-42600000I-150000J0D01*
G01*
X152550000Y-42600000D02*
G75*
G02*
X152850000Y-42600000I150000J0D01*
G01*
X152850000Y-51700000D02*
G75*
G02*
X152550000Y-51700000I-150000J0D01*
G01*
X152550000Y-51700000D02*
G75*
G02*
X152850000Y-51700000I150000J0D01*
G01*
X152850000Y-60800000D02*
G75*
G02*
X152550000Y-60800000I-150000J0D01*
G01*
X152550000Y-60800000D02*
G75*
G02*
X152850000Y-60800000I150000J0D01*
G01*
X152850000Y-69900000D02*
G75*
G02*
X152550000Y-69900000I-150000J0D01*
G01*
X152550000Y-69900000D02*
G75*
G02*
X152850000Y-69900000I150000J0D01*
G01*
X152850000Y-79000000D02*
G75*
G02*
X152550000Y-79000000I-150000J0D01*
G01*
X152550000Y-79000000D02*
G75*
G02*
X152850000Y-79000000I150000J0D01*
G01*
X152850000Y-88100000D02*
G75*
G02*
X152550000Y-88100000I-150000J0D01*
G01*
X152550000Y-88100000D02*
G75*
G02*
X152850000Y-88100000I150000J0D01*
G01*
X166650000Y-51700000D02*
G75*
G02*
X166350000Y-51700000I-150000J0D01*
G01*
X166350000Y-51700000D02*
G75*
G02*
X166650000Y-51700000I150000J0D01*
G01*
X166650000Y-60800000D02*
G75*
G02*
X166350000Y-60800000I-150000J0D01*
G01*
X166350000Y-60800000D02*
G75*
G02*
X166650000Y-60800000I150000J0D01*
G01*
X166650000Y-69900000D02*
G75*
G02*
X166350000Y-69900000I-150000J0D01*
G01*
X166350000Y-69900000D02*
G75*
G02*
X166650000Y-69900000I150000J0D01*
G01*
X166650000Y-79000000D02*
G75*
G02*
X166350000Y-79000000I-150000J0D01*
G01*
X166350000Y-79000000D02*
G75*
G02*
X166650000Y-79000000I150000J0D01*
G01*
X172350000Y-97200000D02*
G75*
G02*
X172050000Y-97200000I-150000J0D01*
G01*
X172050000Y-97200000D02*
G75*
G02*
X172350000Y-97200000I150000J0D01*
G01*
X180450000Y-42600000D02*
G75*
G02*
X180150000Y-42600000I-150000J0D01*
G01*
X180150000Y-42600000D02*
G75*
G02*
X180450000Y-42600000I150000J0D01*
G01*
X180450000Y-51700000D02*
G75*
G02*
X180150000Y-51700000I-150000J0D01*
G01*
X180150000Y-51700000D02*
G75*
G02*
X180450000Y-51700000I150000J0D01*
G01*
X180450000Y-60800000D02*
G75*
G02*
X180150000Y-60800000I-150000J0D01*
G01*
X180150000Y-60800000D02*
G75*
G02*
X180450000Y-60800000I150000J0D01*
G01*
X180450000Y-69900000D02*
G75*
G02*
X180150000Y-69900000I-150000J0D01*
G01*
X180150000Y-69900000D02*
G75*
G02*
X180450000Y-69900000I150000J0D01*
G01*
X180450000Y-79000000D02*
G75*
G02*
X180150000Y-79000000I-150000J0D01*
G01*
X180150000Y-79000000D02*
G75*
G02*
X180450000Y-79000000I150000J0D01*
G01*
X180450000Y-88100000D02*
G75*
G02*
X180150000Y-88100000I-150000J0D01*
G01*
X180150000Y-88100000D02*
G75*
G02*
X180450000Y-88100000I150000J0D01*
G01*
D11*
X159176190Y-47354819D02*
X158842857Y-46878628D01*
X158604762Y-47354819D02*
X158604762Y-46354819D01*
X158604762Y-46354819D02*
X158985714Y-46354819D01*
X158985714Y-46354819D02*
X159080952Y-46402438D01*
X159080952Y-46402438D02*
X159128571Y-46450057D01*
X159128571Y-46450057D02*
X159176190Y-46545295D01*
X159176190Y-46545295D02*
X159176190Y-46688152D01*
X159176190Y-46688152D02*
X159128571Y-46783390D01*
X159128571Y-46783390D02*
X159080952Y-46831009D01*
X159080952Y-46831009D02*
X158985714Y-46878628D01*
X158985714Y-46878628D02*
X158604762Y-46878628D01*
X159747619Y-47354819D02*
X159652381Y-47307200D01*
X159652381Y-47307200D02*
X159604762Y-47259580D01*
X159604762Y-47259580D02*
X159557143Y-47164342D01*
X159557143Y-47164342D02*
X159557143Y-46878628D01*
X159557143Y-46878628D02*
X159604762Y-46783390D01*
X159604762Y-46783390D02*
X159652381Y-46735771D01*
X159652381Y-46735771D02*
X159747619Y-46688152D01*
X159747619Y-46688152D02*
X159890476Y-46688152D01*
X159890476Y-46688152D02*
X159985714Y-46735771D01*
X159985714Y-46735771D02*
X160033333Y-46783390D01*
X160033333Y-46783390D02*
X160080952Y-46878628D01*
X160080952Y-46878628D02*
X160080952Y-47164342D01*
X160080952Y-47164342D02*
X160033333Y-47259580D01*
X160033333Y-47259580D02*
X159985714Y-47307200D01*
X159985714Y-47307200D02*
X159890476Y-47354819D01*
X159890476Y-47354819D02*
X159747619Y-47354819D01*
X160414286Y-46688152D02*
X160604762Y-47354819D01*
X160604762Y-47354819D02*
X160795238Y-46878628D01*
X160795238Y-46878628D02*
X160985714Y-47354819D01*
X160985714Y-47354819D02*
X161176190Y-46688152D01*
X162509524Y-46354819D02*
X162604762Y-46354819D01*
X162604762Y-46354819D02*
X162700000Y-46402438D01*
X162700000Y-46402438D02*
X162747619Y-46450057D01*
X162747619Y-46450057D02*
X162795238Y-46545295D01*
X162795238Y-46545295D02*
X162842857Y-46735771D01*
X162842857Y-46735771D02*
X162842857Y-46973866D01*
X162842857Y-46973866D02*
X162795238Y-47164342D01*
X162795238Y-47164342D02*
X162747619Y-47259580D01*
X162747619Y-47259580D02*
X162700000Y-47307200D01*
X162700000Y-47307200D02*
X162604762Y-47354819D01*
X162604762Y-47354819D02*
X162509524Y-47354819D01*
X162509524Y-47354819D02*
X162414286Y-47307200D01*
X162414286Y-47307200D02*
X162366667Y-47259580D01*
X162366667Y-47259580D02*
X162319048Y-47164342D01*
X162319048Y-47164342D02*
X162271429Y-46973866D01*
X162271429Y-46973866D02*
X162271429Y-46735771D01*
X162271429Y-46735771D02*
X162319048Y-46545295D01*
X162319048Y-46545295D02*
X162366667Y-46450057D01*
X162366667Y-46450057D02*
X162414286Y-46402438D01*
X162414286Y-46402438D02*
X162509524Y-46354819D01*
X159176190Y-56554819D02*
X158842857Y-56078628D01*
X158604762Y-56554819D02*
X158604762Y-55554819D01*
X158604762Y-55554819D02*
X158985714Y-55554819D01*
X158985714Y-55554819D02*
X159080952Y-55602438D01*
X159080952Y-55602438D02*
X159128571Y-55650057D01*
X159128571Y-55650057D02*
X159176190Y-55745295D01*
X159176190Y-55745295D02*
X159176190Y-55888152D01*
X159176190Y-55888152D02*
X159128571Y-55983390D01*
X159128571Y-55983390D02*
X159080952Y-56031009D01*
X159080952Y-56031009D02*
X158985714Y-56078628D01*
X158985714Y-56078628D02*
X158604762Y-56078628D01*
X159747619Y-56554819D02*
X159652381Y-56507200D01*
X159652381Y-56507200D02*
X159604762Y-56459580D01*
X159604762Y-56459580D02*
X159557143Y-56364342D01*
X159557143Y-56364342D02*
X159557143Y-56078628D01*
X159557143Y-56078628D02*
X159604762Y-55983390D01*
X159604762Y-55983390D02*
X159652381Y-55935771D01*
X159652381Y-55935771D02*
X159747619Y-55888152D01*
X159747619Y-55888152D02*
X159890476Y-55888152D01*
X159890476Y-55888152D02*
X159985714Y-55935771D01*
X159985714Y-55935771D02*
X160033333Y-55983390D01*
X160033333Y-55983390D02*
X160080952Y-56078628D01*
X160080952Y-56078628D02*
X160080952Y-56364342D01*
X160080952Y-56364342D02*
X160033333Y-56459580D01*
X160033333Y-56459580D02*
X159985714Y-56507200D01*
X159985714Y-56507200D02*
X159890476Y-56554819D01*
X159890476Y-56554819D02*
X159747619Y-56554819D01*
X160414286Y-55888152D02*
X160604762Y-56554819D01*
X160604762Y-56554819D02*
X160795238Y-56078628D01*
X160795238Y-56078628D02*
X160985714Y-56554819D01*
X160985714Y-56554819D02*
X161176190Y-55888152D01*
X162842857Y-56554819D02*
X162271429Y-56554819D01*
X162557143Y-56554819D02*
X162557143Y-55554819D01*
X162557143Y-55554819D02*
X162461905Y-55697676D01*
X162461905Y-55697676D02*
X162366667Y-55792914D01*
X162366667Y-55792914D02*
X162271429Y-55840533D01*
X159176190Y-92754819D02*
X158842857Y-92278628D01*
X158604762Y-92754819D02*
X158604762Y-91754819D01*
X158604762Y-91754819D02*
X158985714Y-91754819D01*
X158985714Y-91754819D02*
X159080952Y-91802438D01*
X159080952Y-91802438D02*
X159128571Y-91850057D01*
X159128571Y-91850057D02*
X159176190Y-91945295D01*
X159176190Y-91945295D02*
X159176190Y-92088152D01*
X159176190Y-92088152D02*
X159128571Y-92183390D01*
X159128571Y-92183390D02*
X159080952Y-92231009D01*
X159080952Y-92231009D02*
X158985714Y-92278628D01*
X158985714Y-92278628D02*
X158604762Y-92278628D01*
X159747619Y-92754819D02*
X159652381Y-92707200D01*
X159652381Y-92707200D02*
X159604762Y-92659580D01*
X159604762Y-92659580D02*
X159557143Y-92564342D01*
X159557143Y-92564342D02*
X159557143Y-92278628D01*
X159557143Y-92278628D02*
X159604762Y-92183390D01*
X159604762Y-92183390D02*
X159652381Y-92135771D01*
X159652381Y-92135771D02*
X159747619Y-92088152D01*
X159747619Y-92088152D02*
X159890476Y-92088152D01*
X159890476Y-92088152D02*
X159985714Y-92135771D01*
X159985714Y-92135771D02*
X160033333Y-92183390D01*
X160033333Y-92183390D02*
X160080952Y-92278628D01*
X160080952Y-92278628D02*
X160080952Y-92564342D01*
X160080952Y-92564342D02*
X160033333Y-92659580D01*
X160033333Y-92659580D02*
X159985714Y-92707200D01*
X159985714Y-92707200D02*
X159890476Y-92754819D01*
X159890476Y-92754819D02*
X159747619Y-92754819D01*
X160414286Y-92088152D02*
X160604762Y-92754819D01*
X160604762Y-92754819D02*
X160795238Y-92278628D01*
X160795238Y-92278628D02*
X160985714Y-92754819D01*
X160985714Y-92754819D02*
X161176190Y-92088152D01*
X162795238Y-91754819D02*
X162319048Y-91754819D01*
X162319048Y-91754819D02*
X162271429Y-92231009D01*
X162271429Y-92231009D02*
X162319048Y-92183390D01*
X162319048Y-92183390D02*
X162414286Y-92135771D01*
X162414286Y-92135771D02*
X162652381Y-92135771D01*
X162652381Y-92135771D02*
X162747619Y-92183390D01*
X162747619Y-92183390D02*
X162795238Y-92231009D01*
X162795238Y-92231009D02*
X162842857Y-92326247D01*
X162842857Y-92326247D02*
X162842857Y-92564342D01*
X162842857Y-92564342D02*
X162795238Y-92659580D01*
X162795238Y-92659580D02*
X162747619Y-92707200D01*
X162747619Y-92707200D02*
X162652381Y-92754819D01*
X162652381Y-92754819D02*
X162414286Y-92754819D01*
X162414286Y-92754819D02*
X162319048Y-92707200D01*
X162319048Y-92707200D02*
X162271429Y-92659580D01*
X159276190Y-83754819D02*
X158942857Y-83278628D01*
X158704762Y-83754819D02*
X158704762Y-82754819D01*
X158704762Y-82754819D02*
X159085714Y-82754819D01*
X159085714Y-82754819D02*
X159180952Y-82802438D01*
X159180952Y-82802438D02*
X159228571Y-82850057D01*
X159228571Y-82850057D02*
X159276190Y-82945295D01*
X159276190Y-82945295D02*
X159276190Y-83088152D01*
X159276190Y-83088152D02*
X159228571Y-83183390D01*
X159228571Y-83183390D02*
X159180952Y-83231009D01*
X159180952Y-83231009D02*
X159085714Y-83278628D01*
X159085714Y-83278628D02*
X158704762Y-83278628D01*
X159847619Y-83754819D02*
X159752381Y-83707200D01*
X159752381Y-83707200D02*
X159704762Y-83659580D01*
X159704762Y-83659580D02*
X159657143Y-83564342D01*
X159657143Y-83564342D02*
X159657143Y-83278628D01*
X159657143Y-83278628D02*
X159704762Y-83183390D01*
X159704762Y-83183390D02*
X159752381Y-83135771D01*
X159752381Y-83135771D02*
X159847619Y-83088152D01*
X159847619Y-83088152D02*
X159990476Y-83088152D01*
X159990476Y-83088152D02*
X160085714Y-83135771D01*
X160085714Y-83135771D02*
X160133333Y-83183390D01*
X160133333Y-83183390D02*
X160180952Y-83278628D01*
X160180952Y-83278628D02*
X160180952Y-83564342D01*
X160180952Y-83564342D02*
X160133333Y-83659580D01*
X160133333Y-83659580D02*
X160085714Y-83707200D01*
X160085714Y-83707200D02*
X159990476Y-83754819D01*
X159990476Y-83754819D02*
X159847619Y-83754819D01*
X160514286Y-83088152D02*
X160704762Y-83754819D01*
X160704762Y-83754819D02*
X160895238Y-83278628D01*
X160895238Y-83278628D02*
X161085714Y-83754819D01*
X161085714Y-83754819D02*
X161276190Y-83088152D01*
X162847619Y-83088152D02*
X162847619Y-83754819D01*
X162609524Y-82707200D02*
X162371429Y-83421485D01*
X162371429Y-83421485D02*
X162990476Y-83421485D01*
X159376190Y-65554819D02*
X159042857Y-65078628D01*
X158804762Y-65554819D02*
X158804762Y-64554819D01*
X158804762Y-64554819D02*
X159185714Y-64554819D01*
X159185714Y-64554819D02*
X159280952Y-64602438D01*
X159280952Y-64602438D02*
X159328571Y-64650057D01*
X159328571Y-64650057D02*
X159376190Y-64745295D01*
X159376190Y-64745295D02*
X159376190Y-64888152D01*
X159376190Y-64888152D02*
X159328571Y-64983390D01*
X159328571Y-64983390D02*
X159280952Y-65031009D01*
X159280952Y-65031009D02*
X159185714Y-65078628D01*
X159185714Y-65078628D02*
X158804762Y-65078628D01*
X159947619Y-65554819D02*
X159852381Y-65507200D01*
X159852381Y-65507200D02*
X159804762Y-65459580D01*
X159804762Y-65459580D02*
X159757143Y-65364342D01*
X159757143Y-65364342D02*
X159757143Y-65078628D01*
X159757143Y-65078628D02*
X159804762Y-64983390D01*
X159804762Y-64983390D02*
X159852381Y-64935771D01*
X159852381Y-64935771D02*
X159947619Y-64888152D01*
X159947619Y-64888152D02*
X160090476Y-64888152D01*
X160090476Y-64888152D02*
X160185714Y-64935771D01*
X160185714Y-64935771D02*
X160233333Y-64983390D01*
X160233333Y-64983390D02*
X160280952Y-65078628D01*
X160280952Y-65078628D02*
X160280952Y-65364342D01*
X160280952Y-65364342D02*
X160233333Y-65459580D01*
X160233333Y-65459580D02*
X160185714Y-65507200D01*
X160185714Y-65507200D02*
X160090476Y-65554819D01*
X160090476Y-65554819D02*
X159947619Y-65554819D01*
X160614286Y-64888152D02*
X160804762Y-65554819D01*
X160804762Y-65554819D02*
X160995238Y-65078628D01*
X160995238Y-65078628D02*
X161185714Y-65554819D01*
X161185714Y-65554819D02*
X161376190Y-64888152D01*
X162471429Y-64650057D02*
X162519048Y-64602438D01*
X162519048Y-64602438D02*
X162614286Y-64554819D01*
X162614286Y-64554819D02*
X162852381Y-64554819D01*
X162852381Y-64554819D02*
X162947619Y-64602438D01*
X162947619Y-64602438D02*
X162995238Y-64650057D01*
X162995238Y-64650057D02*
X163042857Y-64745295D01*
X163042857Y-64745295D02*
X163042857Y-64840533D01*
X163042857Y-64840533D02*
X162995238Y-64983390D01*
X162995238Y-64983390D02*
X162423810Y-65554819D01*
X162423810Y-65554819D02*
X163042857Y-65554819D01*
X159376190Y-74754819D02*
X159042857Y-74278628D01*
X158804762Y-74754819D02*
X158804762Y-73754819D01*
X158804762Y-73754819D02*
X159185714Y-73754819D01*
X159185714Y-73754819D02*
X159280952Y-73802438D01*
X159280952Y-73802438D02*
X159328571Y-73850057D01*
X159328571Y-73850057D02*
X159376190Y-73945295D01*
X159376190Y-73945295D02*
X159376190Y-74088152D01*
X159376190Y-74088152D02*
X159328571Y-74183390D01*
X159328571Y-74183390D02*
X159280952Y-74231009D01*
X159280952Y-74231009D02*
X159185714Y-74278628D01*
X159185714Y-74278628D02*
X158804762Y-74278628D01*
X159947619Y-74754819D02*
X159852381Y-74707200D01*
X159852381Y-74707200D02*
X159804762Y-74659580D01*
X159804762Y-74659580D02*
X159757143Y-74564342D01*
X159757143Y-74564342D02*
X159757143Y-74278628D01*
X159757143Y-74278628D02*
X159804762Y-74183390D01*
X159804762Y-74183390D02*
X159852381Y-74135771D01*
X159852381Y-74135771D02*
X159947619Y-74088152D01*
X159947619Y-74088152D02*
X160090476Y-74088152D01*
X160090476Y-74088152D02*
X160185714Y-74135771D01*
X160185714Y-74135771D02*
X160233333Y-74183390D01*
X160233333Y-74183390D02*
X160280952Y-74278628D01*
X160280952Y-74278628D02*
X160280952Y-74564342D01*
X160280952Y-74564342D02*
X160233333Y-74659580D01*
X160233333Y-74659580D02*
X160185714Y-74707200D01*
X160185714Y-74707200D02*
X160090476Y-74754819D01*
X160090476Y-74754819D02*
X159947619Y-74754819D01*
X160614286Y-74088152D02*
X160804762Y-74754819D01*
X160804762Y-74754819D02*
X160995238Y-74278628D01*
X160995238Y-74278628D02*
X161185714Y-74754819D01*
X161185714Y-74754819D02*
X161376190Y-74088152D01*
X162423810Y-73754819D02*
X163042857Y-73754819D01*
X163042857Y-73754819D02*
X162709524Y-74135771D01*
X162709524Y-74135771D02*
X162852381Y-74135771D01*
X162852381Y-74135771D02*
X162947619Y-74183390D01*
X162947619Y-74183390D02*
X162995238Y-74231009D01*
X162995238Y-74231009D02*
X163042857Y-74326247D01*
X163042857Y-74326247D02*
X163042857Y-74564342D01*
X163042857Y-74564342D02*
X162995238Y-74659580D01*
X162995238Y-74659580D02*
X162947619Y-74707200D01*
X162947619Y-74707200D02*
X162852381Y-74754819D01*
X162852381Y-74754819D02*
X162566667Y-74754819D01*
X162566667Y-74754819D02*
X162471429Y-74707200D01*
X162471429Y-74707200D02*
X162423810Y-74659580D01*
X166488094Y-46059580D02*
X166440475Y-46107200D01*
X166440475Y-46107200D02*
X166297618Y-46154819D01*
X166297618Y-46154819D02*
X166202380Y-46154819D01*
X166202380Y-46154819D02*
X166059523Y-46107200D01*
X166059523Y-46107200D02*
X165964285Y-46011961D01*
X165964285Y-46011961D02*
X165916666Y-45916723D01*
X165916666Y-45916723D02*
X165869047Y-45726247D01*
X165869047Y-45726247D02*
X165869047Y-45583390D01*
X165869047Y-45583390D02*
X165916666Y-45392914D01*
X165916666Y-45392914D02*
X165964285Y-45297676D01*
X165964285Y-45297676D02*
X166059523Y-45202438D01*
X166059523Y-45202438D02*
X166202380Y-45154819D01*
X166202380Y-45154819D02*
X166297618Y-45154819D01*
X166297618Y-45154819D02*
X166440475Y-45202438D01*
X166440475Y-45202438D02*
X166488094Y-45250057D01*
X167059523Y-46154819D02*
X166964285Y-46107200D01*
X166964285Y-46107200D02*
X166916666Y-46059580D01*
X166916666Y-46059580D02*
X166869047Y-45964342D01*
X166869047Y-45964342D02*
X166869047Y-45678628D01*
X166869047Y-45678628D02*
X166916666Y-45583390D01*
X166916666Y-45583390D02*
X166964285Y-45535771D01*
X166964285Y-45535771D02*
X167059523Y-45488152D01*
X167059523Y-45488152D02*
X167202380Y-45488152D01*
X167202380Y-45488152D02*
X167297618Y-45535771D01*
X167297618Y-45535771D02*
X167345237Y-45583390D01*
X167345237Y-45583390D02*
X167392856Y-45678628D01*
X167392856Y-45678628D02*
X167392856Y-45964342D01*
X167392856Y-45964342D02*
X167345237Y-46059580D01*
X167345237Y-46059580D02*
X167297618Y-46107200D01*
X167297618Y-46107200D02*
X167202380Y-46154819D01*
X167202380Y-46154819D02*
X167059523Y-46154819D01*
X167964285Y-46154819D02*
X167869047Y-46107200D01*
X167869047Y-46107200D02*
X167821428Y-46011961D01*
X167821428Y-46011961D02*
X167821428Y-45154819D01*
X169630952Y-46154819D02*
X169059524Y-46154819D01*
X169345238Y-46154819D02*
X169345238Y-45154819D01*
X169345238Y-45154819D02*
X169250000Y-45297676D01*
X169250000Y-45297676D02*
X169154762Y-45392914D01*
X169154762Y-45392914D02*
X169059524Y-45440533D01*
X147740419Y-43438094D02*
X147692800Y-43390475D01*
X147692800Y-43390475D02*
X147645180Y-43247618D01*
X147645180Y-43247618D02*
X147645180Y-43152380D01*
X147645180Y-43152380D02*
X147692800Y-43009523D01*
X147692800Y-43009523D02*
X147788038Y-42914285D01*
X147788038Y-42914285D02*
X147883276Y-42866666D01*
X147883276Y-42866666D02*
X148073752Y-42819047D01*
X148073752Y-42819047D02*
X148216609Y-42819047D01*
X148216609Y-42819047D02*
X148407085Y-42866666D01*
X148407085Y-42866666D02*
X148502323Y-42914285D01*
X148502323Y-42914285D02*
X148597561Y-43009523D01*
X148597561Y-43009523D02*
X148645180Y-43152380D01*
X148645180Y-43152380D02*
X148645180Y-43247618D01*
X148645180Y-43247618D02*
X148597561Y-43390475D01*
X148597561Y-43390475D02*
X148549942Y-43438094D01*
X147645180Y-44009523D02*
X147692800Y-43914285D01*
X147692800Y-43914285D02*
X147740419Y-43866666D01*
X147740419Y-43866666D02*
X147835657Y-43819047D01*
X147835657Y-43819047D02*
X148121371Y-43819047D01*
X148121371Y-43819047D02*
X148216609Y-43866666D01*
X148216609Y-43866666D02*
X148264228Y-43914285D01*
X148264228Y-43914285D02*
X148311847Y-44009523D01*
X148311847Y-44009523D02*
X148311847Y-44152380D01*
X148311847Y-44152380D02*
X148264228Y-44247618D01*
X148264228Y-44247618D02*
X148216609Y-44295237D01*
X148216609Y-44295237D02*
X148121371Y-44342856D01*
X148121371Y-44342856D02*
X147835657Y-44342856D01*
X147835657Y-44342856D02*
X147740419Y-44295237D01*
X147740419Y-44295237D02*
X147692800Y-44247618D01*
X147692800Y-44247618D02*
X147645180Y-44152380D01*
X147645180Y-44152380D02*
X147645180Y-44009523D01*
X147645180Y-44914285D02*
X147692800Y-44819047D01*
X147692800Y-44819047D02*
X147788038Y-44771428D01*
X147788038Y-44771428D02*
X148645180Y-44771428D01*
X148645180Y-46247619D02*
X148645180Y-46342857D01*
X148645180Y-46342857D02*
X148597561Y-46438095D01*
X148597561Y-46438095D02*
X148549942Y-46485714D01*
X148549942Y-46485714D02*
X148454704Y-46533333D01*
X148454704Y-46533333D02*
X148264228Y-46580952D01*
X148264228Y-46580952D02*
X148026133Y-46580952D01*
X148026133Y-46580952D02*
X147835657Y-46533333D01*
X147835657Y-46533333D02*
X147740419Y-46485714D01*
X147740419Y-46485714D02*
X147692800Y-46438095D01*
X147692800Y-46438095D02*
X147645180Y-46342857D01*
X147645180Y-46342857D02*
X147645180Y-46247619D01*
X147645180Y-46247619D02*
X147692800Y-46152381D01*
X147692800Y-46152381D02*
X147740419Y-46104762D01*
X147740419Y-46104762D02*
X147835657Y-46057143D01*
X147835657Y-46057143D02*
X148026133Y-46009524D01*
X148026133Y-46009524D02*
X148264228Y-46009524D01*
X148264228Y-46009524D02*
X148454704Y-46057143D01*
X148454704Y-46057143D02*
X148549942Y-46104762D01*
X148549942Y-46104762D02*
X148597561Y-46152381D01*
X148597561Y-46152381D02*
X148645180Y-46247619D01*
X148026133Y-47771429D02*
X148026133Y-48533334D01*
X147835657Y-48342857D02*
X148026133Y-48533334D01*
X148026133Y-48533334D02*
X148216609Y-48342857D01*
X147645180Y-56695236D02*
X148311847Y-56695236D01*
X148121371Y-56695236D02*
X148216609Y-56742855D01*
X148216609Y-56742855D02*
X148264228Y-56790474D01*
X148264228Y-56790474D02*
X148311847Y-56885712D01*
X148311847Y-56885712D02*
X148311847Y-56980950D01*
X147645180Y-57314284D02*
X148311847Y-57314284D01*
X148645180Y-57314284D02*
X148597561Y-57266665D01*
X148597561Y-57266665D02*
X148549942Y-57314284D01*
X148549942Y-57314284D02*
X148597561Y-57361903D01*
X148597561Y-57361903D02*
X148645180Y-57314284D01*
X148645180Y-57314284D02*
X148549942Y-57314284D01*
X148311847Y-58219045D02*
X147502323Y-58219045D01*
X147502323Y-58219045D02*
X147407085Y-58171426D01*
X147407085Y-58171426D02*
X147359466Y-58123807D01*
X147359466Y-58123807D02*
X147311847Y-58028569D01*
X147311847Y-58028569D02*
X147311847Y-57885712D01*
X147311847Y-57885712D02*
X147359466Y-57790474D01*
X147692800Y-58219045D02*
X147645180Y-58123807D01*
X147645180Y-58123807D02*
X147645180Y-57933331D01*
X147645180Y-57933331D02*
X147692800Y-57838093D01*
X147692800Y-57838093D02*
X147740419Y-57790474D01*
X147740419Y-57790474D02*
X147835657Y-57742855D01*
X147835657Y-57742855D02*
X148121371Y-57742855D01*
X148121371Y-57742855D02*
X148216609Y-57790474D01*
X148216609Y-57790474D02*
X148264228Y-57838093D01*
X148264228Y-57838093D02*
X148311847Y-57933331D01*
X148311847Y-57933331D02*
X148311847Y-58123807D01*
X148311847Y-58123807D02*
X148264228Y-58219045D01*
X147645180Y-58695236D02*
X148645180Y-58695236D01*
X147645180Y-59123807D02*
X148168990Y-59123807D01*
X148168990Y-59123807D02*
X148264228Y-59076188D01*
X148264228Y-59076188D02*
X148311847Y-58980950D01*
X148311847Y-58980950D02*
X148311847Y-58838093D01*
X148311847Y-58838093D02*
X148264228Y-58742855D01*
X148264228Y-58742855D02*
X148216609Y-58695236D01*
X148311847Y-59457141D02*
X148311847Y-59838093D01*
X148645180Y-59599998D02*
X147788038Y-59599998D01*
X147788038Y-59599998D02*
X147692800Y-59647617D01*
X147692800Y-59647617D02*
X147645180Y-59742855D01*
X147645180Y-59742855D02*
X147645180Y-59838093D01*
X147645180Y-60171427D02*
X148645180Y-60171427D01*
X148645180Y-60171427D02*
X148645180Y-60552379D01*
X148645180Y-60552379D02*
X148597561Y-60647617D01*
X148597561Y-60647617D02*
X148549942Y-60695236D01*
X148549942Y-60695236D02*
X148454704Y-60742855D01*
X148454704Y-60742855D02*
X148311847Y-60742855D01*
X148311847Y-60742855D02*
X148216609Y-60695236D01*
X148216609Y-60695236D02*
X148168990Y-60647617D01*
X148168990Y-60647617D02*
X148121371Y-60552379D01*
X148121371Y-60552379D02*
X148121371Y-60171427D01*
X147645180Y-61314284D02*
X147692800Y-61219046D01*
X147692800Y-61219046D02*
X147740419Y-61171427D01*
X147740419Y-61171427D02*
X147835657Y-61123808D01*
X147835657Y-61123808D02*
X148121371Y-61123808D01*
X148121371Y-61123808D02*
X148216609Y-61171427D01*
X148216609Y-61171427D02*
X148264228Y-61219046D01*
X148264228Y-61219046D02*
X148311847Y-61314284D01*
X148311847Y-61314284D02*
X148311847Y-61457141D01*
X148311847Y-61457141D02*
X148264228Y-61552379D01*
X148264228Y-61552379D02*
X148216609Y-61599998D01*
X148216609Y-61599998D02*
X148121371Y-61647617D01*
X148121371Y-61647617D02*
X147835657Y-61647617D01*
X147835657Y-61647617D02*
X147740419Y-61599998D01*
X147740419Y-61599998D02*
X147692800Y-61552379D01*
X147692800Y-61552379D02*
X147645180Y-61457141D01*
X147645180Y-61457141D02*
X147645180Y-61314284D01*
X147645180Y-62076189D02*
X148311847Y-62076189D01*
X148645180Y-62076189D02*
X148597561Y-62028570D01*
X148597561Y-62028570D02*
X148549942Y-62076189D01*
X148549942Y-62076189D02*
X148597561Y-62123808D01*
X148597561Y-62123808D02*
X148645180Y-62076189D01*
X148645180Y-62076189D02*
X148549942Y-62076189D01*
X148311847Y-62552379D02*
X147645180Y-62552379D01*
X148216609Y-62552379D02*
X148264228Y-62599998D01*
X148264228Y-62599998D02*
X148311847Y-62695236D01*
X148311847Y-62695236D02*
X148311847Y-62838093D01*
X148311847Y-62838093D02*
X148264228Y-62933331D01*
X148264228Y-62933331D02*
X148168990Y-62980950D01*
X148168990Y-62980950D02*
X147645180Y-62980950D01*
X148311847Y-63314284D02*
X148311847Y-63695236D01*
X148645180Y-63457141D02*
X147788038Y-63457141D01*
X147788038Y-63457141D02*
X147692800Y-63504760D01*
X147692800Y-63504760D02*
X147645180Y-63599998D01*
X147645180Y-63599998D02*
X147645180Y-63695236D01*
X147692800Y-64409522D02*
X147645180Y-64314284D01*
X147645180Y-64314284D02*
X147645180Y-64123808D01*
X147645180Y-64123808D02*
X147692800Y-64028570D01*
X147692800Y-64028570D02*
X147788038Y-63980951D01*
X147788038Y-63980951D02*
X148168990Y-63980951D01*
X148168990Y-63980951D02*
X148264228Y-64028570D01*
X148264228Y-64028570D02*
X148311847Y-64123808D01*
X148311847Y-64123808D02*
X148311847Y-64314284D01*
X148311847Y-64314284D02*
X148264228Y-64409522D01*
X148264228Y-64409522D02*
X148168990Y-64457141D01*
X148168990Y-64457141D02*
X148073752Y-64457141D01*
X148073752Y-64457141D02*
X147978514Y-63980951D01*
X147645180Y-64885713D02*
X148311847Y-64885713D01*
X148121371Y-64885713D02*
X148216609Y-64933332D01*
X148216609Y-64933332D02*
X148264228Y-64980951D01*
X148264228Y-64980951D02*
X148311847Y-65076189D01*
X148311847Y-65076189D02*
X148311847Y-65171427D01*
X148645180Y-65361904D02*
X148645180Y-65933332D01*
X147645180Y-65647618D02*
X148645180Y-65647618D01*
X147645180Y-66266666D02*
X148645180Y-66266666D01*
X147645180Y-66695237D02*
X148168990Y-66695237D01*
X148168990Y-66695237D02*
X148264228Y-66647618D01*
X148264228Y-66647618D02*
X148311847Y-66552380D01*
X148311847Y-66552380D02*
X148311847Y-66409523D01*
X148311847Y-66409523D02*
X148264228Y-66314285D01*
X148264228Y-66314285D02*
X148216609Y-66266666D01*
X148311847Y-67599999D02*
X147645180Y-67599999D01*
X148311847Y-67171428D02*
X147788038Y-67171428D01*
X147788038Y-67171428D02*
X147692800Y-67219047D01*
X147692800Y-67219047D02*
X147645180Y-67314285D01*
X147645180Y-67314285D02*
X147645180Y-67457142D01*
X147645180Y-67457142D02*
X147692800Y-67552380D01*
X147692800Y-67552380D02*
X147740419Y-67599999D01*
X147645180Y-68076190D02*
X148311847Y-68076190D01*
X148216609Y-68076190D02*
X148264228Y-68123809D01*
X148264228Y-68123809D02*
X148311847Y-68219047D01*
X148311847Y-68219047D02*
X148311847Y-68361904D01*
X148311847Y-68361904D02*
X148264228Y-68457142D01*
X148264228Y-68457142D02*
X148168990Y-68504761D01*
X148168990Y-68504761D02*
X147645180Y-68504761D01*
X148168990Y-68504761D02*
X148264228Y-68552380D01*
X148264228Y-68552380D02*
X148311847Y-68647618D01*
X148311847Y-68647618D02*
X148311847Y-68790475D01*
X148311847Y-68790475D02*
X148264228Y-68885714D01*
X148264228Y-68885714D02*
X148168990Y-68933333D01*
X148168990Y-68933333D02*
X147645180Y-68933333D01*
X147645180Y-69409523D02*
X148645180Y-69409523D01*
X148264228Y-69409523D02*
X148311847Y-69504761D01*
X148311847Y-69504761D02*
X148311847Y-69695237D01*
X148311847Y-69695237D02*
X148264228Y-69790475D01*
X148264228Y-69790475D02*
X148216609Y-69838094D01*
X148216609Y-69838094D02*
X148121371Y-69885713D01*
X148121371Y-69885713D02*
X147835657Y-69885713D01*
X147835657Y-69885713D02*
X147740419Y-69838094D01*
X147740419Y-69838094D02*
X147692800Y-69790475D01*
X147692800Y-69790475D02*
X147645180Y-69695237D01*
X147645180Y-69695237D02*
X147645180Y-69504761D01*
X147645180Y-69504761D02*
X147692800Y-69409523D01*
X148168990Y-70647618D02*
X148121371Y-70790475D01*
X148121371Y-70790475D02*
X148073752Y-70838094D01*
X148073752Y-70838094D02*
X147978514Y-70885713D01*
X147978514Y-70885713D02*
X147835657Y-70885713D01*
X147835657Y-70885713D02*
X147740419Y-70838094D01*
X147740419Y-70838094D02*
X147692800Y-70790475D01*
X147692800Y-70790475D02*
X147645180Y-70695237D01*
X147645180Y-70695237D02*
X147645180Y-70314285D01*
X147645180Y-70314285D02*
X148645180Y-70314285D01*
X148645180Y-70314285D02*
X148645180Y-70647618D01*
X148645180Y-70647618D02*
X148597561Y-70742856D01*
X148597561Y-70742856D02*
X148549942Y-70790475D01*
X148549942Y-70790475D02*
X148454704Y-70838094D01*
X148454704Y-70838094D02*
X148359466Y-70838094D01*
X148359466Y-70838094D02*
X148264228Y-70790475D01*
X148264228Y-70790475D02*
X148216609Y-70742856D01*
X148216609Y-70742856D02*
X148168990Y-70647618D01*
X148168990Y-70647618D02*
X148168990Y-70314285D01*
X147645180Y-71314285D02*
X148311847Y-71314285D01*
X148121371Y-71314285D02*
X148216609Y-71361904D01*
X148216609Y-71361904D02*
X148264228Y-71409523D01*
X148264228Y-71409523D02*
X148311847Y-71504761D01*
X148311847Y-71504761D02*
X148311847Y-71599999D01*
X147692800Y-72314285D02*
X147645180Y-72219047D01*
X147645180Y-72219047D02*
X147645180Y-72028571D01*
X147645180Y-72028571D02*
X147692800Y-71933333D01*
X147692800Y-71933333D02*
X147788038Y-71885714D01*
X147788038Y-71885714D02*
X148168990Y-71885714D01*
X148168990Y-71885714D02*
X148264228Y-71933333D01*
X148264228Y-71933333D02*
X148311847Y-72028571D01*
X148311847Y-72028571D02*
X148311847Y-72219047D01*
X148311847Y-72219047D02*
X148264228Y-72314285D01*
X148264228Y-72314285D02*
X148168990Y-72361904D01*
X148168990Y-72361904D02*
X148073752Y-72361904D01*
X148073752Y-72361904D02*
X147978514Y-71885714D01*
X147645180Y-73219047D02*
X148168990Y-73219047D01*
X148168990Y-73219047D02*
X148264228Y-73171428D01*
X148264228Y-73171428D02*
X148311847Y-73076190D01*
X148311847Y-73076190D02*
X148311847Y-72885714D01*
X148311847Y-72885714D02*
X148264228Y-72790476D01*
X147692800Y-73219047D02*
X147645180Y-73123809D01*
X147645180Y-73123809D02*
X147645180Y-72885714D01*
X147645180Y-72885714D02*
X147692800Y-72790476D01*
X147692800Y-72790476D02*
X147788038Y-72742857D01*
X147788038Y-72742857D02*
X147883276Y-72742857D01*
X147883276Y-72742857D02*
X147978514Y-72790476D01*
X147978514Y-72790476D02*
X148026133Y-72885714D01*
X148026133Y-72885714D02*
X148026133Y-73123809D01*
X148026133Y-73123809D02*
X148073752Y-73219047D01*
X147645180Y-73695238D02*
X148645180Y-73695238D01*
X148026133Y-73790476D02*
X147645180Y-74076190D01*
X148311847Y-74076190D02*
X147930895Y-73695238D01*
X147645180Y-74647619D02*
X147692800Y-74552381D01*
X147692800Y-74552381D02*
X147740419Y-74504762D01*
X147740419Y-74504762D02*
X147835657Y-74457143D01*
X147835657Y-74457143D02*
X148121371Y-74457143D01*
X148121371Y-74457143D02*
X148216609Y-74504762D01*
X148216609Y-74504762D02*
X148264228Y-74552381D01*
X148264228Y-74552381D02*
X148311847Y-74647619D01*
X148311847Y-74647619D02*
X148311847Y-74790476D01*
X148311847Y-74790476D02*
X148264228Y-74885714D01*
X148264228Y-74885714D02*
X148216609Y-74933333D01*
X148216609Y-74933333D02*
X148121371Y-74980952D01*
X148121371Y-74980952D02*
X147835657Y-74980952D01*
X147835657Y-74980952D02*
X147740419Y-74933333D01*
X147740419Y-74933333D02*
X147692800Y-74885714D01*
X147692800Y-74885714D02*
X147645180Y-74790476D01*
X147645180Y-74790476D02*
X147645180Y-74647619D01*
X148311847Y-75838095D02*
X147645180Y-75838095D01*
X148311847Y-75409524D02*
X147788038Y-75409524D01*
X147788038Y-75409524D02*
X147692800Y-75457143D01*
X147692800Y-75457143D02*
X147645180Y-75552381D01*
X147645180Y-75552381D02*
X147645180Y-75695238D01*
X147645180Y-75695238D02*
X147692800Y-75790476D01*
X147692800Y-75790476D02*
X147740419Y-75838095D01*
X148311847Y-76171429D02*
X148311847Y-76552381D01*
X148645180Y-76314286D02*
X147788038Y-76314286D01*
X147788038Y-76314286D02*
X147692800Y-76361905D01*
X147692800Y-76361905D02*
X147645180Y-76457143D01*
X147645180Y-76457143D02*
X147645180Y-76552381D01*
X147645180Y-78219048D02*
X148121371Y-77885715D01*
X147645180Y-77647620D02*
X148645180Y-77647620D01*
X148645180Y-77647620D02*
X148645180Y-78028572D01*
X148645180Y-78028572D02*
X148597561Y-78123810D01*
X148597561Y-78123810D02*
X148549942Y-78171429D01*
X148549942Y-78171429D02*
X148454704Y-78219048D01*
X148454704Y-78219048D02*
X148311847Y-78219048D01*
X148311847Y-78219048D02*
X148216609Y-78171429D01*
X148216609Y-78171429D02*
X148168990Y-78123810D01*
X148168990Y-78123810D02*
X148121371Y-78028572D01*
X148121371Y-78028572D02*
X148121371Y-77647620D01*
X147692800Y-79028572D02*
X147645180Y-78933334D01*
X147645180Y-78933334D02*
X147645180Y-78742858D01*
X147645180Y-78742858D02*
X147692800Y-78647620D01*
X147692800Y-78647620D02*
X147788038Y-78600001D01*
X147788038Y-78600001D02*
X148168990Y-78600001D01*
X148168990Y-78600001D02*
X148264228Y-78647620D01*
X148264228Y-78647620D02*
X148311847Y-78742858D01*
X148311847Y-78742858D02*
X148311847Y-78933334D01*
X148311847Y-78933334D02*
X148264228Y-79028572D01*
X148264228Y-79028572D02*
X148168990Y-79076191D01*
X148168990Y-79076191D02*
X148073752Y-79076191D01*
X148073752Y-79076191D02*
X147978514Y-78600001D01*
X148311847Y-79409525D02*
X147645180Y-79647620D01*
X147645180Y-79647620D02*
X148311847Y-79885715D01*
X147645180Y-81552382D02*
X147645180Y-80980954D01*
X147645180Y-81266668D02*
X148645180Y-81266668D01*
X148645180Y-81266668D02*
X148502323Y-81171430D01*
X148502323Y-81171430D02*
X148407085Y-81076192D01*
X148407085Y-81076192D02*
X148359466Y-80980954D01*
X187040419Y-43438094D02*
X186992800Y-43390475D01*
X186992800Y-43390475D02*
X186945180Y-43247618D01*
X186945180Y-43247618D02*
X186945180Y-43152380D01*
X186945180Y-43152380D02*
X186992800Y-43009523D01*
X186992800Y-43009523D02*
X187088038Y-42914285D01*
X187088038Y-42914285D02*
X187183276Y-42866666D01*
X187183276Y-42866666D02*
X187373752Y-42819047D01*
X187373752Y-42819047D02*
X187516609Y-42819047D01*
X187516609Y-42819047D02*
X187707085Y-42866666D01*
X187707085Y-42866666D02*
X187802323Y-42914285D01*
X187802323Y-42914285D02*
X187897561Y-43009523D01*
X187897561Y-43009523D02*
X187945180Y-43152380D01*
X187945180Y-43152380D02*
X187945180Y-43247618D01*
X187945180Y-43247618D02*
X187897561Y-43390475D01*
X187897561Y-43390475D02*
X187849942Y-43438094D01*
X186945180Y-44009523D02*
X186992800Y-43914285D01*
X186992800Y-43914285D02*
X187040419Y-43866666D01*
X187040419Y-43866666D02*
X187135657Y-43819047D01*
X187135657Y-43819047D02*
X187421371Y-43819047D01*
X187421371Y-43819047D02*
X187516609Y-43866666D01*
X187516609Y-43866666D02*
X187564228Y-43914285D01*
X187564228Y-43914285D02*
X187611847Y-44009523D01*
X187611847Y-44009523D02*
X187611847Y-44152380D01*
X187611847Y-44152380D02*
X187564228Y-44247618D01*
X187564228Y-44247618D02*
X187516609Y-44295237D01*
X187516609Y-44295237D02*
X187421371Y-44342856D01*
X187421371Y-44342856D02*
X187135657Y-44342856D01*
X187135657Y-44342856D02*
X187040419Y-44295237D01*
X187040419Y-44295237D02*
X186992800Y-44247618D01*
X186992800Y-44247618D02*
X186945180Y-44152380D01*
X186945180Y-44152380D02*
X186945180Y-44009523D01*
X186945180Y-44914285D02*
X186992800Y-44819047D01*
X186992800Y-44819047D02*
X187088038Y-44771428D01*
X187088038Y-44771428D02*
X187945180Y-44771428D01*
X187849942Y-46009524D02*
X187897561Y-46057143D01*
X187897561Y-46057143D02*
X187945180Y-46152381D01*
X187945180Y-46152381D02*
X187945180Y-46390476D01*
X187945180Y-46390476D02*
X187897561Y-46485714D01*
X187897561Y-46485714D02*
X187849942Y-46533333D01*
X187849942Y-46533333D02*
X187754704Y-46580952D01*
X187754704Y-46580952D02*
X187659466Y-46580952D01*
X187659466Y-46580952D02*
X187516609Y-46533333D01*
X187516609Y-46533333D02*
X186945180Y-45961905D01*
X186945180Y-45961905D02*
X186945180Y-46580952D01*
X187326133Y-47771429D02*
X187326133Y-48533334D01*
X187135657Y-48342857D02*
X187326133Y-48533334D01*
X187326133Y-48533334D02*
X187516609Y-48342857D01*
X156166666Y-51954819D02*
X156166666Y-52669104D01*
X156166666Y-52669104D02*
X156119047Y-52811961D01*
X156119047Y-52811961D02*
X156023809Y-52907200D01*
X156023809Y-52907200D02*
X155880952Y-52954819D01*
X155880952Y-52954819D02*
X155785714Y-52954819D01*
X156547619Y-51954819D02*
X157166666Y-51954819D01*
X157166666Y-51954819D02*
X156833333Y-52335771D01*
X156833333Y-52335771D02*
X156976190Y-52335771D01*
X156976190Y-52335771D02*
X157071428Y-52383390D01*
X157071428Y-52383390D02*
X157119047Y-52431009D01*
X157119047Y-52431009D02*
X157166666Y-52526247D01*
X157166666Y-52526247D02*
X157166666Y-52764342D01*
X157166666Y-52764342D02*
X157119047Y-52859580D01*
X157119047Y-52859580D02*
X157071428Y-52907200D01*
X157071428Y-52907200D02*
X156976190Y-52954819D01*
X156976190Y-52954819D02*
X156690476Y-52954819D01*
X156690476Y-52954819D02*
X156595238Y-52907200D01*
X156595238Y-52907200D02*
X156547619Y-52859580D01*
X156266666Y-42754819D02*
X156266666Y-43469104D01*
X156266666Y-43469104D02*
X156219047Y-43611961D01*
X156219047Y-43611961D02*
X156123809Y-43707200D01*
X156123809Y-43707200D02*
X155980952Y-43754819D01*
X155980952Y-43754819D02*
X155885714Y-43754819D01*
X156695238Y-42850057D02*
X156742857Y-42802438D01*
X156742857Y-42802438D02*
X156838095Y-42754819D01*
X156838095Y-42754819D02*
X157076190Y-42754819D01*
X157076190Y-42754819D02*
X157171428Y-42802438D01*
X157171428Y-42802438D02*
X157219047Y-42850057D01*
X157219047Y-42850057D02*
X157266666Y-42945295D01*
X157266666Y-42945295D02*
X157266666Y-43040533D01*
X157266666Y-43040533D02*
X157219047Y-43183390D01*
X157219047Y-43183390D02*
X156647619Y-43754819D01*
X156647619Y-43754819D02*
X157266666Y-43754819D01*
X183790476Y-79154819D02*
X183790476Y-79869104D01*
X183790476Y-79869104D02*
X183742857Y-80011961D01*
X183742857Y-80011961D02*
X183647619Y-80107200D01*
X183647619Y-80107200D02*
X183504762Y-80154819D01*
X183504762Y-80154819D02*
X183409524Y-80154819D01*
X184790476Y-80154819D02*
X184219048Y-80154819D01*
X184504762Y-80154819D02*
X184504762Y-79154819D01*
X184504762Y-79154819D02*
X184409524Y-79297676D01*
X184409524Y-79297676D02*
X184314286Y-79392914D01*
X184314286Y-79392914D02*
X184219048Y-79440533D01*
X185695238Y-79154819D02*
X185219048Y-79154819D01*
X185219048Y-79154819D02*
X185171429Y-79631009D01*
X185171429Y-79631009D02*
X185219048Y-79583390D01*
X185219048Y-79583390D02*
X185314286Y-79535771D01*
X185314286Y-79535771D02*
X185552381Y-79535771D01*
X185552381Y-79535771D02*
X185647619Y-79583390D01*
X185647619Y-79583390D02*
X185695238Y-79631009D01*
X185695238Y-79631009D02*
X185742857Y-79726247D01*
X185742857Y-79726247D02*
X185742857Y-79964342D01*
X185742857Y-79964342D02*
X185695238Y-80059580D01*
X185695238Y-80059580D02*
X185647619Y-80107200D01*
X185647619Y-80107200D02*
X185552381Y-80154819D01*
X185552381Y-80154819D02*
X185314286Y-80154819D01*
X185314286Y-80154819D02*
X185219048Y-80107200D01*
X185219048Y-80107200D02*
X185171429Y-80059580D01*
X183740475Y-42754819D02*
X183740475Y-43469104D01*
X183740475Y-43469104D02*
X183692856Y-43611961D01*
X183692856Y-43611961D02*
X183597618Y-43707200D01*
X183597618Y-43707200D02*
X183454761Y-43754819D01*
X183454761Y-43754819D02*
X183359523Y-43754819D01*
X184740475Y-43754819D02*
X184169047Y-43754819D01*
X184454761Y-43754819D02*
X184454761Y-42754819D01*
X184454761Y-42754819D02*
X184359523Y-42897676D01*
X184359523Y-42897676D02*
X184264285Y-42992914D01*
X184264285Y-42992914D02*
X184169047Y-43040533D01*
X185121428Y-42850057D02*
X185169047Y-42802438D01*
X185169047Y-42802438D02*
X185264285Y-42754819D01*
X185264285Y-42754819D02*
X185502380Y-42754819D01*
X185502380Y-42754819D02*
X185597618Y-42802438D01*
X185597618Y-42802438D02*
X185645237Y-42850057D01*
X185645237Y-42850057D02*
X185692856Y-42945295D01*
X185692856Y-42945295D02*
X185692856Y-43040533D01*
X185692856Y-43040533D02*
X185645237Y-43183390D01*
X185645237Y-43183390D02*
X185073809Y-43754819D01*
X185073809Y-43754819D02*
X185692856Y-43754819D01*
X155616666Y-68954819D02*
X155616666Y-69669104D01*
X155616666Y-69669104D02*
X155569047Y-69811961D01*
X155569047Y-69811961D02*
X155473809Y-69907200D01*
X155473809Y-69907200D02*
X155330952Y-69954819D01*
X155330952Y-69954819D02*
X155235714Y-69954819D01*
X156569047Y-68954819D02*
X156092857Y-68954819D01*
X156092857Y-68954819D02*
X156045238Y-69431009D01*
X156045238Y-69431009D02*
X156092857Y-69383390D01*
X156092857Y-69383390D02*
X156188095Y-69335771D01*
X156188095Y-69335771D02*
X156426190Y-69335771D01*
X156426190Y-69335771D02*
X156521428Y-69383390D01*
X156521428Y-69383390D02*
X156569047Y-69431009D01*
X156569047Y-69431009D02*
X156616666Y-69526247D01*
X156616666Y-69526247D02*
X156616666Y-69764342D01*
X156616666Y-69764342D02*
X156569047Y-69859580D01*
X156569047Y-69859580D02*
X156521428Y-69907200D01*
X156521428Y-69907200D02*
X156426190Y-69954819D01*
X156426190Y-69954819D02*
X156188095Y-69954819D01*
X156188095Y-69954819D02*
X156092857Y-69907200D01*
X156092857Y-69907200D02*
X156045238Y-69859580D01*
X183690476Y-60954819D02*
X183690476Y-61669104D01*
X183690476Y-61669104D02*
X183642857Y-61811961D01*
X183642857Y-61811961D02*
X183547619Y-61907200D01*
X183547619Y-61907200D02*
X183404762Y-61954819D01*
X183404762Y-61954819D02*
X183309524Y-61954819D01*
X184690476Y-61954819D02*
X184119048Y-61954819D01*
X184404762Y-61954819D02*
X184404762Y-60954819D01*
X184404762Y-60954819D02*
X184309524Y-61097676D01*
X184309524Y-61097676D02*
X184214286Y-61192914D01*
X184214286Y-61192914D02*
X184119048Y-61240533D01*
X185023810Y-60954819D02*
X185690476Y-60954819D01*
X185690476Y-60954819D02*
X185261905Y-61954819D01*
X169890476Y-79254819D02*
X169890476Y-79969104D01*
X169890476Y-79969104D02*
X169842857Y-80111961D01*
X169842857Y-80111961D02*
X169747619Y-80207200D01*
X169747619Y-80207200D02*
X169604762Y-80254819D01*
X169604762Y-80254819D02*
X169509524Y-80254819D01*
X170890476Y-80254819D02*
X170319048Y-80254819D01*
X170604762Y-80254819D02*
X170604762Y-79254819D01*
X170604762Y-79254819D02*
X170509524Y-79397676D01*
X170509524Y-79397676D02*
X170414286Y-79492914D01*
X170414286Y-79492914D02*
X170319048Y-79540533D01*
X171842857Y-80254819D02*
X171271429Y-80254819D01*
X171557143Y-80254819D02*
X171557143Y-79254819D01*
X171557143Y-79254819D02*
X171461905Y-79397676D01*
X171461905Y-79397676D02*
X171366667Y-79492914D01*
X171366667Y-79492914D02*
X171271429Y-79540533D01*
X186290476Y-91554819D02*
X186290476Y-92269104D01*
X186290476Y-92269104D02*
X186242857Y-92411961D01*
X186242857Y-92411961D02*
X186147619Y-92507200D01*
X186147619Y-92507200D02*
X186004762Y-92554819D01*
X186004762Y-92554819D02*
X185909524Y-92554819D01*
X187290476Y-92554819D02*
X186719048Y-92554819D01*
X187004762Y-92554819D02*
X187004762Y-91554819D01*
X187004762Y-91554819D02*
X186909524Y-91697676D01*
X186909524Y-91697676D02*
X186814286Y-91792914D01*
X186814286Y-91792914D02*
X186719048Y-91840533D01*
X188147619Y-91888152D02*
X188147619Y-92554819D01*
X187909524Y-91507200D02*
X187671429Y-92221485D01*
X187671429Y-92221485D02*
X188290476Y-92221485D01*
X186390476Y-55154819D02*
X186390476Y-55869104D01*
X186390476Y-55869104D02*
X186342857Y-56011961D01*
X186342857Y-56011961D02*
X186247619Y-56107200D01*
X186247619Y-56107200D02*
X186104762Y-56154819D01*
X186104762Y-56154819D02*
X186009524Y-56154819D01*
X187390476Y-56154819D02*
X186819048Y-56154819D01*
X187104762Y-56154819D02*
X187104762Y-55154819D01*
X187104762Y-55154819D02*
X187009524Y-55297676D01*
X187009524Y-55297676D02*
X186914286Y-55392914D01*
X186914286Y-55392914D02*
X186819048Y-55440533D01*
X187723810Y-55154819D02*
X188342857Y-55154819D01*
X188342857Y-55154819D02*
X188009524Y-55535771D01*
X188009524Y-55535771D02*
X188152381Y-55535771D01*
X188152381Y-55535771D02*
X188247619Y-55583390D01*
X188247619Y-55583390D02*
X188295238Y-55631009D01*
X188295238Y-55631009D02*
X188342857Y-55726247D01*
X188342857Y-55726247D02*
X188342857Y-55964342D01*
X188342857Y-55964342D02*
X188295238Y-56059580D01*
X188295238Y-56059580D02*
X188247619Y-56107200D01*
X188247619Y-56107200D02*
X188152381Y-56154819D01*
X188152381Y-56154819D02*
X187866667Y-56154819D01*
X187866667Y-56154819D02*
X187771429Y-56107200D01*
X187771429Y-56107200D02*
X187723810Y-56059580D01*
X170166666Y-51854819D02*
X170166666Y-52569104D01*
X170166666Y-52569104D02*
X170119047Y-52711961D01*
X170119047Y-52711961D02*
X170023809Y-52807200D01*
X170023809Y-52807200D02*
X169880952Y-52854819D01*
X169880952Y-52854819D02*
X169785714Y-52854819D01*
X170785714Y-52283390D02*
X170690476Y-52235771D01*
X170690476Y-52235771D02*
X170642857Y-52188152D01*
X170642857Y-52188152D02*
X170595238Y-52092914D01*
X170595238Y-52092914D02*
X170595238Y-52045295D01*
X170595238Y-52045295D02*
X170642857Y-51950057D01*
X170642857Y-51950057D02*
X170690476Y-51902438D01*
X170690476Y-51902438D02*
X170785714Y-51854819D01*
X170785714Y-51854819D02*
X170976190Y-51854819D01*
X170976190Y-51854819D02*
X171071428Y-51902438D01*
X171071428Y-51902438D02*
X171119047Y-51950057D01*
X171119047Y-51950057D02*
X171166666Y-52045295D01*
X171166666Y-52045295D02*
X171166666Y-52092914D01*
X171166666Y-52092914D02*
X171119047Y-52188152D01*
X171119047Y-52188152D02*
X171071428Y-52235771D01*
X171071428Y-52235771D02*
X170976190Y-52283390D01*
X170976190Y-52283390D02*
X170785714Y-52283390D01*
X170785714Y-52283390D02*
X170690476Y-52331009D01*
X170690476Y-52331009D02*
X170642857Y-52378628D01*
X170642857Y-52378628D02*
X170595238Y-52473866D01*
X170595238Y-52473866D02*
X170595238Y-52664342D01*
X170595238Y-52664342D02*
X170642857Y-52759580D01*
X170642857Y-52759580D02*
X170690476Y-52807200D01*
X170690476Y-52807200D02*
X170785714Y-52854819D01*
X170785714Y-52854819D02*
X170976190Y-52854819D01*
X170976190Y-52854819D02*
X171071428Y-52807200D01*
X171071428Y-52807200D02*
X171119047Y-52759580D01*
X171119047Y-52759580D02*
X171166666Y-52664342D01*
X171166666Y-52664342D02*
X171166666Y-52473866D01*
X171166666Y-52473866D02*
X171119047Y-52378628D01*
X171119047Y-52378628D02*
X171071428Y-52331009D01*
X171071428Y-52331009D02*
X170976190Y-52283390D01*
X169890476Y-70054819D02*
X169890476Y-70769104D01*
X169890476Y-70769104D02*
X169842857Y-70911961D01*
X169842857Y-70911961D02*
X169747619Y-71007200D01*
X169747619Y-71007200D02*
X169604762Y-71054819D01*
X169604762Y-71054819D02*
X169509524Y-71054819D01*
X170890476Y-71054819D02*
X170319048Y-71054819D01*
X170604762Y-71054819D02*
X170604762Y-70054819D01*
X170604762Y-70054819D02*
X170509524Y-70197676D01*
X170509524Y-70197676D02*
X170414286Y-70292914D01*
X170414286Y-70292914D02*
X170319048Y-70340533D01*
X171509524Y-70054819D02*
X171604762Y-70054819D01*
X171604762Y-70054819D02*
X171700000Y-70102438D01*
X171700000Y-70102438D02*
X171747619Y-70150057D01*
X171747619Y-70150057D02*
X171795238Y-70245295D01*
X171795238Y-70245295D02*
X171842857Y-70435771D01*
X171842857Y-70435771D02*
X171842857Y-70673866D01*
X171842857Y-70673866D02*
X171795238Y-70864342D01*
X171795238Y-70864342D02*
X171747619Y-70959580D01*
X171747619Y-70959580D02*
X171700000Y-71007200D01*
X171700000Y-71007200D02*
X171604762Y-71054819D01*
X171604762Y-71054819D02*
X171509524Y-71054819D01*
X171509524Y-71054819D02*
X171414286Y-71007200D01*
X171414286Y-71007200D02*
X171366667Y-70959580D01*
X171366667Y-70959580D02*
X171319048Y-70864342D01*
X171319048Y-70864342D02*
X171271429Y-70673866D01*
X171271429Y-70673866D02*
X171271429Y-70435771D01*
X171271429Y-70435771D02*
X171319048Y-70245295D01*
X171319048Y-70245295D02*
X171366667Y-70150057D01*
X171366667Y-70150057D02*
X171414286Y-70102438D01*
X171414286Y-70102438D02*
X171509524Y-70054819D01*
X179866666Y-97254819D02*
X179866666Y-97969104D01*
X179866666Y-97969104D02*
X179819047Y-98111961D01*
X179819047Y-98111961D02*
X179723809Y-98207200D01*
X179723809Y-98207200D02*
X179580952Y-98254819D01*
X179580952Y-98254819D02*
X179485714Y-98254819D01*
X180866666Y-98254819D02*
X180295238Y-98254819D01*
X180580952Y-98254819D02*
X180580952Y-97254819D01*
X180580952Y-97254819D02*
X180485714Y-97397676D01*
X180485714Y-97397676D02*
X180390476Y-97492914D01*
X180390476Y-97492914D02*
X180295238Y-97540533D01*
X169966666Y-60954819D02*
X169966666Y-61669104D01*
X169966666Y-61669104D02*
X169919047Y-61811961D01*
X169919047Y-61811961D02*
X169823809Y-61907200D01*
X169823809Y-61907200D02*
X169680952Y-61954819D01*
X169680952Y-61954819D02*
X169585714Y-61954819D01*
X170490476Y-61954819D02*
X170680952Y-61954819D01*
X170680952Y-61954819D02*
X170776190Y-61907200D01*
X170776190Y-61907200D02*
X170823809Y-61859580D01*
X170823809Y-61859580D02*
X170919047Y-61716723D01*
X170919047Y-61716723D02*
X170966666Y-61526247D01*
X170966666Y-61526247D02*
X170966666Y-61145295D01*
X170966666Y-61145295D02*
X170919047Y-61050057D01*
X170919047Y-61050057D02*
X170871428Y-61002438D01*
X170871428Y-61002438D02*
X170776190Y-60954819D01*
X170776190Y-60954819D02*
X170585714Y-60954819D01*
X170585714Y-60954819D02*
X170490476Y-61002438D01*
X170490476Y-61002438D02*
X170442857Y-61050057D01*
X170442857Y-61050057D02*
X170395238Y-61145295D01*
X170395238Y-61145295D02*
X170395238Y-61383390D01*
X170395238Y-61383390D02*
X170442857Y-61478628D01*
X170442857Y-61478628D02*
X170490476Y-61526247D01*
X170490476Y-61526247D02*
X170585714Y-61573866D01*
X170585714Y-61573866D02*
X170776190Y-61573866D01*
X170776190Y-61573866D02*
X170871428Y-61526247D01*
X170871428Y-61526247D02*
X170919047Y-61478628D01*
X170919047Y-61478628D02*
X170966666Y-61383390D01*
X183890476Y-69854819D02*
X183890476Y-70569104D01*
X183890476Y-70569104D02*
X183842857Y-70711961D01*
X183842857Y-70711961D02*
X183747619Y-70807200D01*
X183747619Y-70807200D02*
X183604762Y-70854819D01*
X183604762Y-70854819D02*
X183509524Y-70854819D01*
X184890476Y-70854819D02*
X184319048Y-70854819D01*
X184604762Y-70854819D02*
X184604762Y-69854819D01*
X184604762Y-69854819D02*
X184509524Y-69997676D01*
X184509524Y-69997676D02*
X184414286Y-70092914D01*
X184414286Y-70092914D02*
X184319048Y-70140533D01*
X185747619Y-69854819D02*
X185557143Y-69854819D01*
X185557143Y-69854819D02*
X185461905Y-69902438D01*
X185461905Y-69902438D02*
X185414286Y-69950057D01*
X185414286Y-69950057D02*
X185319048Y-70092914D01*
X185319048Y-70092914D02*
X185271429Y-70283390D01*
X185271429Y-70283390D02*
X185271429Y-70664342D01*
X185271429Y-70664342D02*
X185319048Y-70759580D01*
X185319048Y-70759580D02*
X185366667Y-70807200D01*
X185366667Y-70807200D02*
X185461905Y-70854819D01*
X185461905Y-70854819D02*
X185652381Y-70854819D01*
X185652381Y-70854819D02*
X185747619Y-70807200D01*
X185747619Y-70807200D02*
X185795238Y-70759580D01*
X185795238Y-70759580D02*
X185842857Y-70664342D01*
X185842857Y-70664342D02*
X185842857Y-70426247D01*
X185842857Y-70426247D02*
X185795238Y-70331009D01*
X185795238Y-70331009D02*
X185747619Y-70283390D01*
X185747619Y-70283390D02*
X185652381Y-70235771D01*
X185652381Y-70235771D02*
X185461905Y-70235771D01*
X185461905Y-70235771D02*
X185366667Y-70283390D01*
X185366667Y-70283390D02*
X185319048Y-70331009D01*
X185319048Y-70331009D02*
X185271429Y-70426247D01*
X156166666Y-60954819D02*
X156166666Y-61669104D01*
X156166666Y-61669104D02*
X156119047Y-61811961D01*
X156119047Y-61811961D02*
X156023809Y-61907200D01*
X156023809Y-61907200D02*
X155880952Y-61954819D01*
X155880952Y-61954819D02*
X155785714Y-61954819D01*
X157071428Y-61288152D02*
X157071428Y-61954819D01*
X156833333Y-60907200D02*
X156595238Y-61621485D01*
X156595238Y-61621485D02*
X157214285Y-61621485D01*
X156366666Y-88254819D02*
X156366666Y-88969104D01*
X156366666Y-88969104D02*
X156319047Y-89111961D01*
X156319047Y-89111961D02*
X156223809Y-89207200D01*
X156223809Y-89207200D02*
X156080952Y-89254819D01*
X156080952Y-89254819D02*
X155985714Y-89254819D01*
X156747619Y-88254819D02*
X157414285Y-88254819D01*
X157414285Y-88254819D02*
X156985714Y-89254819D01*
X156166666Y-79154819D02*
X156166666Y-79869104D01*
X156166666Y-79869104D02*
X156119047Y-80011961D01*
X156119047Y-80011961D02*
X156023809Y-80107200D01*
X156023809Y-80107200D02*
X155880952Y-80154819D01*
X155880952Y-80154819D02*
X155785714Y-80154819D01*
X157071428Y-79154819D02*
X156880952Y-79154819D01*
X156880952Y-79154819D02*
X156785714Y-79202438D01*
X156785714Y-79202438D02*
X156738095Y-79250057D01*
X156738095Y-79250057D02*
X156642857Y-79392914D01*
X156642857Y-79392914D02*
X156595238Y-79583390D01*
X156595238Y-79583390D02*
X156595238Y-79964342D01*
X156595238Y-79964342D02*
X156642857Y-80059580D01*
X156642857Y-80059580D02*
X156690476Y-80107200D01*
X156690476Y-80107200D02*
X156785714Y-80154819D01*
X156785714Y-80154819D02*
X156976190Y-80154819D01*
X156976190Y-80154819D02*
X157071428Y-80107200D01*
X157071428Y-80107200D02*
X157119047Y-80059580D01*
X157119047Y-80059580D02*
X157166666Y-79964342D01*
X157166666Y-79964342D02*
X157166666Y-79726247D01*
X157166666Y-79726247D02*
X157119047Y-79631009D01*
X157119047Y-79631009D02*
X157071428Y-79583390D01*
X157071428Y-79583390D02*
X156976190Y-79535771D01*
X156976190Y-79535771D02*
X156785714Y-79535771D01*
X156785714Y-79535771D02*
X156690476Y-79583390D01*
X156690476Y-79583390D02*
X156642857Y-79631009D01*
X156642857Y-79631009D02*
X156595238Y-79726247D01*
D12*
%TO.C,J3*%
X150000000Y-53450000D02*
X150000000Y-54520000D01*
X150000000Y-56680000D02*
X150000000Y-58660000D01*
X150000000Y-58660000D02*
X157900000Y-58660000D01*
X152290000Y-53450000D02*
X150000000Y-53450000D01*
X157900000Y-53450000D02*
X155610000Y-53450000D01*
X157900000Y-54520000D02*
X157900000Y-53450000D01*
X157900000Y-58660000D02*
X157900000Y-56680000D01*
D13*
X150280000Y-52660000D02*
G75*
G02*
X150220000Y-52660000I-30000J0D01*
G01*
X150220000Y-52660000D02*
G75*
G02*
X150280000Y-52660000I30000J0D01*
G01*
D14*
D12*
%TO.C,J2*%
X150000000Y-44350000D02*
X150000000Y-45420000D01*
X150000000Y-47580000D02*
X150000000Y-49560000D01*
X150000000Y-49560000D02*
X157900000Y-49560000D01*
X152290000Y-44350000D02*
X150000000Y-44350000D01*
X157900000Y-44350000D02*
X155610000Y-44350000D01*
X157900000Y-45420000D02*
X157900000Y-44350000D01*
X157900000Y-49560000D02*
X157900000Y-47580000D01*
D13*
X150280000Y-43560000D02*
G75*
G02*
X150220000Y-43560000I-30000J0D01*
G01*
X150220000Y-43560000D02*
G75*
G02*
X150280000Y-43560000I30000J0D01*
G01*
D14*
D12*
%TO.C,J15*%
X177599999Y-80750000D02*
X177599999Y-81820000D01*
X177599999Y-83980000D02*
X177599999Y-85960000D01*
X177599999Y-85960000D02*
X185499999Y-85960000D01*
X179889999Y-80750000D02*
X177599999Y-80750000D01*
X185499999Y-80750000D02*
X183209999Y-80750000D01*
X185499999Y-81820000D02*
X185499999Y-80750000D01*
X185499999Y-85960000D02*
X185499999Y-83980000D01*
D13*
X177879999Y-79960000D02*
G75*
G02*
X177819999Y-79960000I-30000J0D01*
G01*
X177819999Y-79960000D02*
G75*
G02*
X177879999Y-79960000I30000J0D01*
G01*
D14*
D12*
%TO.C,J12*%
X177599999Y-44350000D02*
X177599999Y-45420000D01*
X177599999Y-47580000D02*
X177599999Y-49560000D01*
X177599999Y-49560000D02*
X185499999Y-49560000D01*
X179889999Y-44350000D02*
X177599999Y-44350000D01*
X185499999Y-44350000D02*
X183209999Y-44350000D01*
X185499999Y-45420000D02*
X185499999Y-44350000D01*
X185499999Y-49560000D02*
X185499999Y-47580000D01*
D13*
X177879999Y-43560000D02*
G75*
G02*
X177819999Y-43560000I-30000J0D01*
G01*
X177819999Y-43560000D02*
G75*
G02*
X177879999Y-43560000I30000J0D01*
G01*
D14*
D12*
%TO.C,J5*%
X150000000Y-71650000D02*
X150000000Y-72720000D01*
X150000000Y-74880000D02*
X150000000Y-76860000D01*
X150000000Y-76860000D02*
X157900000Y-76860000D01*
X152290000Y-71650000D02*
X150000000Y-71650000D01*
X157900000Y-71650000D02*
X155610000Y-71650000D01*
X157900000Y-72720000D02*
X157900000Y-71650000D01*
X157900000Y-76860000D02*
X157900000Y-74880000D01*
D13*
X150280000Y-70860000D02*
G75*
G02*
X150220000Y-70860000I-30000J0D01*
G01*
X150220000Y-70860000D02*
G75*
G02*
X150280000Y-70860000I30000J0D01*
G01*
D14*
D12*
%TO.C,J17*%
X177599999Y-62550000D02*
X177599999Y-63620000D01*
X177599999Y-65780000D02*
X177599999Y-67760000D01*
X177599999Y-67760000D02*
X185499999Y-67760000D01*
X179889999Y-62550000D02*
X177599999Y-62550000D01*
X185499999Y-62550000D02*
X183209999Y-62550000D01*
X185499999Y-63620000D02*
X185499999Y-62550000D01*
X185499999Y-67760000D02*
X185499999Y-65780000D01*
D13*
X177879999Y-61760000D02*
G75*
G02*
X177819999Y-61760000I-30000J0D01*
G01*
X177819999Y-61760000D02*
G75*
G02*
X177879999Y-61760000I30000J0D01*
G01*
D14*
D12*
%TO.C,J11*%
X163800000Y-80750000D02*
X163800000Y-81820000D01*
X163800000Y-83980000D02*
X163800000Y-85960000D01*
X163800000Y-85960000D02*
X171700000Y-85960000D01*
X166090000Y-80750000D02*
X163800000Y-80750000D01*
X171700000Y-80750000D02*
X169410000Y-80750000D01*
X171700000Y-81820000D02*
X171700000Y-80750000D01*
X171700000Y-85960000D02*
X171700000Y-83980000D01*
D13*
X164080000Y-79960000D02*
G75*
G02*
X164020000Y-79960000I-30000J0D01*
G01*
X164020000Y-79960000D02*
G75*
G02*
X164080000Y-79960000I30000J0D01*
G01*
D14*
D12*
%TO.C,J14*%
X177599999Y-89850000D02*
X177599999Y-90920000D01*
X177599999Y-93080000D02*
X177599999Y-95060000D01*
X177599999Y-95060000D02*
X185499999Y-95060000D01*
X179889999Y-89850000D02*
X177599999Y-89850000D01*
X185499999Y-89850000D02*
X183209999Y-89850000D01*
X185499999Y-90920000D02*
X185499999Y-89850000D01*
X185499999Y-95060000D02*
X185499999Y-93080000D01*
D13*
X177879999Y-89060000D02*
G75*
G02*
X177819999Y-89060000I-30000J0D01*
G01*
X177819999Y-89060000D02*
G75*
G02*
X177879999Y-89060000I30000J0D01*
G01*
D14*
D12*
%TO.C,J13*%
X177599999Y-53450000D02*
X177599999Y-54520000D01*
X177599999Y-56680000D02*
X177599999Y-58660000D01*
X177599999Y-58660000D02*
X185499999Y-58660000D01*
X179889999Y-53450000D02*
X177599999Y-53450000D01*
X185499999Y-53450000D02*
X183209999Y-53450000D01*
X185499999Y-54520000D02*
X185499999Y-53450000D01*
X185499999Y-58660000D02*
X185499999Y-56680000D01*
D13*
X177879999Y-52660000D02*
G75*
G02*
X177819999Y-52660000I-30000J0D01*
G01*
X177819999Y-52660000D02*
G75*
G02*
X177879999Y-52660000I30000J0D01*
G01*
D14*
D12*
%TO.C,J8*%
X163800000Y-53450000D02*
X163800000Y-54520000D01*
X163800000Y-56680000D02*
X163800000Y-58660000D01*
X163800000Y-58660000D02*
X171700000Y-58660000D01*
X166090000Y-53450000D02*
X163800000Y-53450000D01*
X171700000Y-53450000D02*
X169410000Y-53450000D01*
X171700000Y-54520000D02*
X171700000Y-53450000D01*
X171700000Y-58660000D02*
X171700000Y-56680000D01*
D13*
X164080000Y-52660000D02*
G75*
G02*
X164020000Y-52660000I-30000J0D01*
G01*
X164020000Y-52660000D02*
G75*
G02*
X164080000Y-52660000I30000J0D01*
G01*
D14*
D12*
%TO.C,J10*%
X163800000Y-71650000D02*
X163800000Y-72720000D01*
X163800000Y-74880000D02*
X163800000Y-76860000D01*
X163800000Y-76860000D02*
X171700000Y-76860000D01*
X166090000Y-71650000D02*
X163800000Y-71650000D01*
X171700000Y-71650000D02*
X169410000Y-71650000D01*
X171700000Y-72720000D02*
X171700000Y-71650000D01*
X171700000Y-76860000D02*
X171700000Y-74880000D01*
D13*
X164080000Y-70860000D02*
G75*
G02*
X164020000Y-70860000I-30000J0D01*
G01*
X164020000Y-70860000D02*
G75*
G02*
X164080000Y-70860000I30000J0D01*
G01*
D14*
D12*
%TO.C,J1*%
X169500000Y-98950000D02*
X169500000Y-100020000D01*
X169500000Y-102180000D02*
X169500000Y-104160000D01*
X169500000Y-104160000D02*
X181400000Y-104160000D01*
X171790000Y-98950000D02*
X169500000Y-98950000D01*
X181400000Y-98950000D02*
X179110000Y-98950000D01*
X181400000Y-100020000D02*
X181400000Y-98950000D01*
X181400000Y-104160000D02*
X181400000Y-102180000D01*
D13*
X169780000Y-98200000D02*
G75*
G02*
X169720000Y-98200000I-30000J0D01*
G01*
X169720000Y-98200000D02*
G75*
G02*
X169780000Y-98200000I30000J0D01*
G01*
D14*
D12*
%TO.C,J9*%
X163800000Y-62550000D02*
X163800000Y-63620000D01*
X163800000Y-65780000D02*
X163800000Y-67760000D01*
X163800000Y-67760000D02*
X171700000Y-67760000D01*
X166090000Y-62550000D02*
X163800000Y-62550000D01*
X171700000Y-62550000D02*
X169410000Y-62550000D01*
X171700000Y-63620000D02*
X171700000Y-62550000D01*
X171700000Y-67760000D02*
X171700000Y-65780000D01*
D13*
X164080000Y-61760000D02*
G75*
G02*
X164020000Y-61760000I-30000J0D01*
G01*
X164020000Y-61760000D02*
G75*
G02*
X164080000Y-61760000I30000J0D01*
G01*
D14*
D12*
%TO.C,J16*%
X177599999Y-71650000D02*
X177599999Y-72720000D01*
X177599999Y-74880000D02*
X177599999Y-76860000D01*
X177599999Y-76860000D02*
X185499999Y-76860000D01*
X179889999Y-71650000D02*
X177599999Y-71650000D01*
X185499999Y-71650000D02*
X183209999Y-71650000D01*
X185499999Y-72720000D02*
X185499999Y-71650000D01*
X185499999Y-76860000D02*
X185499999Y-74880000D01*
D13*
X177879999Y-70860000D02*
G75*
G02*
X177819999Y-70860000I-30000J0D01*
G01*
X177819999Y-70860000D02*
G75*
G02*
X177879999Y-70860000I30000J0D01*
G01*
D14*
D12*
%TO.C,J4*%
X150000000Y-62550000D02*
X150000000Y-63620000D01*
X150000000Y-65780000D02*
X150000000Y-67760000D01*
X150000000Y-67760000D02*
X157900000Y-67760000D01*
X152290000Y-62550000D02*
X150000000Y-62550000D01*
X157900000Y-62550000D02*
X155610000Y-62550000D01*
X157900000Y-63620000D02*
X157900000Y-62550000D01*
X157900000Y-67760000D02*
X157900000Y-65780000D01*
D13*
X150280000Y-61760000D02*
G75*
G02*
X150220000Y-61760000I-30000J0D01*
G01*
X150220000Y-61760000D02*
G75*
G02*
X150280000Y-61760000I30000J0D01*
G01*
D14*
D12*
%TO.C,J7*%
X150000000Y-89850000D02*
X150000000Y-90920000D01*
X150000000Y-93080000D02*
X150000000Y-95060000D01*
X150000000Y-95060000D02*
X157900000Y-95060000D01*
X152290000Y-89850000D02*
X150000000Y-89850000D01*
X157900000Y-89850000D02*
X155610000Y-89850000D01*
X157900000Y-90920000D02*
X157900000Y-89850000D01*
X157900000Y-95060000D02*
X157900000Y-93080000D01*
D13*
X150280000Y-89060000D02*
G75*
G02*
X150220000Y-89060000I-30000J0D01*
G01*
X150220000Y-89060000D02*
G75*
G02*
X150280000Y-89060000I30000J0D01*
G01*
D14*
D12*
%TO.C,J6*%
X150000000Y-80750000D02*
X150000000Y-81820000D01*
X150000000Y-83980000D02*
X150000000Y-85960000D01*
X150000000Y-85960000D02*
X157900000Y-85960000D01*
X152290000Y-80750000D02*
X150000000Y-80750000D01*
X157900000Y-80750000D02*
X155610000Y-80750000D01*
X157900000Y-81820000D02*
X157900000Y-80750000D01*
X157900000Y-85960000D02*
X157900000Y-83980000D01*
D13*
X150280000Y-79960000D02*
G75*
G02*
X150220000Y-79960000I-30000J0D01*
G01*
X150220000Y-79960000D02*
G75*
G02*
X150280000Y-79960000I30000J0D01*
G01*
D14*
%TD*%
%LPC*%
D15*
%TO.C,J3*%
X152700000Y-53000000D03*
X153200000Y-53000000D03*
X153700000Y-53000000D03*
X154200000Y-53000000D03*
X154700000Y-53000000D03*
X155200000Y-53000000D03*
D16*
X156900000Y-55600000D03*
X151000000Y-55600000D03*
%TD*%
D15*
%TO.C,J2*%
X152700000Y-43900000D03*
X153200000Y-43900000D03*
X153700000Y-43900000D03*
X154200000Y-43900000D03*
X154700000Y-43900000D03*
X155200000Y-43900000D03*
D16*
X156900000Y-46500000D03*
X151000000Y-46500000D03*
%TD*%
D15*
%TO.C,J15*%
X180299999Y-80300000D03*
X180799999Y-80300000D03*
X181299999Y-80300000D03*
X181799999Y-80300000D03*
X182299999Y-80300000D03*
X182799999Y-80300000D03*
D16*
X184499999Y-82900000D03*
X178599999Y-82900000D03*
%TD*%
D15*
%TO.C,J12*%
X180299999Y-43900000D03*
X180799999Y-43900000D03*
X181299999Y-43900000D03*
X181799999Y-43900000D03*
X182299999Y-43900000D03*
X182799999Y-43900000D03*
D16*
X184499999Y-46500000D03*
X178599999Y-46500000D03*
%TD*%
D17*
%TO.C,H3*%
X148800000Y-87900000D03*
%TD*%
D15*
%TO.C,J5*%
X152700000Y-71200000D03*
X153200000Y-71200000D03*
X153700000Y-71200000D03*
X154200000Y-71200000D03*
X154700000Y-71200000D03*
X155200000Y-71200000D03*
D16*
X156900000Y-73800000D03*
X151000000Y-73800000D03*
%TD*%
D15*
%TO.C,J17*%
X180299999Y-62100000D03*
X180799999Y-62100000D03*
X181299999Y-62100000D03*
X181799999Y-62100000D03*
X182299999Y-62100000D03*
X182799999Y-62100000D03*
D16*
X184499999Y-64700000D03*
X178599999Y-64700000D03*
%TD*%
D15*
%TO.C,J11*%
X166500000Y-80300000D03*
X167000000Y-80300000D03*
X167500000Y-80300000D03*
X168000000Y-80300000D03*
X168500000Y-80300000D03*
X169000000Y-80300000D03*
D16*
X170700000Y-82900000D03*
X164800000Y-82900000D03*
%TD*%
D15*
%TO.C,J14*%
X180299999Y-89400000D03*
X180799999Y-89400000D03*
X181299999Y-89400000D03*
X181799999Y-89400000D03*
X182299999Y-89400000D03*
X182799999Y-89400000D03*
D16*
X184499999Y-92000000D03*
X178599999Y-92000000D03*
%TD*%
D15*
%TO.C,J13*%
X180299999Y-53000000D03*
X180799999Y-53000000D03*
X181299999Y-53000000D03*
X181799999Y-53000000D03*
X182299999Y-53000000D03*
X182799999Y-53000000D03*
D16*
X184499999Y-55600000D03*
X178599999Y-55600000D03*
%TD*%
D15*
%TO.C,J8*%
X166500000Y-53000000D03*
X167000000Y-53000000D03*
X167500000Y-53000000D03*
X168000000Y-53000000D03*
X168500000Y-53000000D03*
X169000000Y-53000000D03*
D16*
X170700000Y-55600000D03*
X164800000Y-55600000D03*
%TD*%
D15*
%TO.C,J10*%
X166500000Y-71200000D03*
X167000000Y-71200000D03*
X167500000Y-71200000D03*
X168000000Y-71200000D03*
X168500000Y-71200000D03*
X169000000Y-71200000D03*
D16*
X170700000Y-73800000D03*
X164800000Y-73800000D03*
%TD*%
D18*
%TO.C,J1*%
X172200000Y-98500000D03*
X172700000Y-98500000D03*
X173200000Y-98500000D03*
X173700000Y-98500000D03*
X174200000Y-98500000D03*
X174700000Y-98500000D03*
X175200000Y-98500000D03*
X175700000Y-98500000D03*
X176200000Y-98500000D03*
X176700000Y-98500000D03*
X177200000Y-98500000D03*
X177700000Y-98500000D03*
X178200000Y-98500000D03*
X178700000Y-98500000D03*
D16*
X180400000Y-101100000D03*
X170500000Y-101100000D03*
%TD*%
D17*
%TO.C,H2*%
X186700000Y-51500000D03*
%TD*%
D15*
%TO.C,J9*%
X166500000Y-62100000D03*
X167000000Y-62100000D03*
X167500000Y-62100000D03*
X168000000Y-62100000D03*
X168500000Y-62100000D03*
X169000000Y-62100000D03*
D16*
X170700000Y-64700000D03*
X164800000Y-64700000D03*
%TD*%
D17*
%TO.C,H1*%
X148800000Y-51500000D03*
%TD*%
D15*
%TO.C,J16*%
X180299999Y-71200000D03*
X180799999Y-71200000D03*
X181299999Y-71200000D03*
X181799999Y-71200000D03*
X182299999Y-71200000D03*
X182799999Y-71200000D03*
D16*
X184499999Y-73800000D03*
X178599999Y-73800000D03*
%TD*%
D15*
%TO.C,J4*%
X152700000Y-62100000D03*
X153200000Y-62100000D03*
X153700000Y-62100000D03*
X154200000Y-62100000D03*
X154700000Y-62100000D03*
X155200000Y-62100000D03*
D16*
X156900000Y-64700000D03*
X151000000Y-64700000D03*
%TD*%
D15*
%TO.C,J7*%
X152700000Y-89400000D03*
X153200000Y-89400000D03*
X153700000Y-89400000D03*
X154200000Y-89400000D03*
X154700000Y-89400000D03*
X155200000Y-89400000D03*
D16*
X156900000Y-92000000D03*
X151000000Y-92000000D03*
%TD*%
D17*
%TO.C,H4*%
X186700000Y-87900000D03*
%TD*%
D15*
%TO.C,J6*%
X152700000Y-80300000D03*
X153200000Y-80300000D03*
X153700000Y-80300000D03*
X154200000Y-80300000D03*
X154700000Y-80300000D03*
X155200000Y-80300000D03*
D16*
X156900000Y-82900000D03*
X151000000Y-82900000D03*
%TD*%
%LPD*%
M02*
