M48
; DRILL file {KiCad 9.0.8+dfsg-1} date 2026-10-06T18:10:09-0600
; FORMAT={-:-/ absolute / inch / decimal}
; #@! TF.CreationDate,2026-10-06T18:10:09-06:00
; #@! TF.GenerationSoftware,Kicad,Pcbnew,9.0.8+dfsg-1
; #@! TF.FileFunction,Plated,1,2,PTH
FMAT,2
INCH
; #@! TA.AperFunction,Plated,PTH,ViaDrill
T1C0.0079
%
G90
G05
T1
X5.9941Y-2.2402
X6.0118Y-1.7717
X6.0118Y-2.1299
X6.0118Y-2.4882
X6.0118Y-2.8465
X6.0118Y-3.2047
X6.0118Y-3.563
X6.0315Y-1.7992
X6.0315Y-2.1614
X6.0315Y-2.5197
X6.0315Y-2.876
X6.0315Y-3.2362
X6.0315Y-3.5906
X6.0512Y-2.1929
X6.0512Y-2.5512
X6.0512Y-2.9094
X6.0512Y-3.2717
X6.0512Y-3.6181
X6.0531Y-1.8346
X6.0906Y-1.8661
X6.1102Y-3.6457
X6.5551Y-2.1299
X6.5551Y-2.4882
X6.5551Y-2.8465
X6.5551Y-3.2047
X6.5748Y-2.1614
X6.5748Y-2.5197
X6.5748Y-2.876
X6.5748Y-3.2362
X6.5945Y-2.1929
X6.5945Y-2.5512
X6.5945Y-2.9094
X6.5945Y-3.2717
X6.6142Y-3.2992
X6.6339Y-2.2402
X6.6535Y-3.3268
X6.7795Y-1.7717
X6.7992Y-2.1299
X6.8189Y-2.4882
X6.8386Y-2.8465
X6.8583Y-3.2047
X6.878Y-3.563
X6.9055Y-1.7992
X6.9055Y-2.1614
X6.9055Y-2.5197
X6.9055Y-2.876
X6.9055Y-3.2362
X6.9055Y-3.5906
X6.9331Y-1.8346
X6.9331Y-2.1929
X6.9331Y-2.5512
X6.9331Y-2.9094
X6.9331Y-3.2717
X6.9331Y-3.6181
X6.937Y-3.9252
X6.9577Y-1.8661
X6.9764Y-1.8937
X6.9764Y-3.2992
X6.9764Y-3.3268
X6.9764Y-3.685
X7.0157Y-3.9449
X7.0984Y-1.7717
X7.0984Y-2.1299
X7.0984Y-2.4882
X7.0984Y-2.8465
X7.0984Y-3.2047
X7.0984Y-3.563
X7.1181Y-2.876
X7.1181Y-3.5906
X7.1181Y-1.7992
X7.1181Y-2.1614
X7.1181Y-2.5197
X7.1181Y-3.2362
X7.1378Y-1.8346
X7.1378Y-2.1929
X7.1378Y-2.5512
X7.1378Y-2.9094
X7.1378Y-3.2717
X7.1378Y-3.6181
X7.1575Y-3.6457
X7.1772Y-1.8937
X7.1969Y-3.685
M30
