#VRML V2.0 utf8
# Photo-estimated visualization, not a manufacturer dimensional model.
# Generated for mainboard reconstruction, 2026-10-07. Coordinates use KiCad VRML units.
Transform { translation 0.0000000 0.0000000 0.0984252  children [ Shape { appearance Appearance { material Material { diffuseColor 0.48 0.48 0.49 specularColor 0.15 0.15 0.15 shininess 0.25 } } geometry Box { size 2.3622047 2.3622047 0.1968504 } } ] }
Transform { translation 0.0000000 0.0000000 0.8070866  children [ Shape { appearance Appearance { material Material { diffuseColor 0.2 0.21 0.22 specularColor 0.15 0.15 0.15 shininess 0.25 } } geometry IndexedFaceSet { solid TRUE creaseAngle 0.8 coord Coordinate { point [ 1.0826772 0.0000000 -0.6889764, 1.0734147 0.1413177 -0.6889764, 1.0457858 0.2802175 -0.6889764, 1.0002633 0.4143226 -0.6889764, 0.9376259 0.5413386 -0.6889764, 0.8589455 0.6590921 -0.6889764, 0.7655684 0.7655684 -0.6889764, 0.6590921 0.8589455 -0.6889764, 0.5413386 0.9376259 -0.6889764, 0.4143226 1.0002633 -0.6889764, 0.2802175 1.0457858 -0.6889764, 0.1413177 1.0734147 -0.6889764, 0.0000000 1.0826772 -0.6889764, -0.1413177 1.0734147 -0.6889764, -0.2802175 1.0457858 -0.6889764, -0.4143226 1.0002633 -0.6889764, -0.5413386 0.9376259 -0.6889764, -0.6590921 0.8589455 -0.6889764, -0.7655684 0.7655684 -0.6889764, -0.8589455 0.6590921 -0.6889764, -0.9376259 0.5413386 -0.6889764, -1.0002633 0.4143226 -0.6889764, -1.0457858 0.2802175 -0.6889764, -1.0734147 0.1413177 -0.6889764, -1.0826772 0.0000000 -0.6889764, -1.0734147 -0.1413177 -0.6889764, -1.0457858 -0.2802175 -0.6889764, -1.0002633 -0.4143226 -0.6889764, -0.9376259 -0.5413386 -0.6889764, -0.8589455 -0.6590921 -0.6889764, -0.7655684 -0.7655684 -0.6889764, -0.6590921 -0.8589455 -0.6889764, -0.5413386 -0.9376259 -0.6889764, -0.4143226 -1.0002633 -0.6889764, -0.2802175 -1.0457858 -0.6889764, -0.1413177 -1.0734147 -0.6889764, -0.0000000 -1.0826772 -0.6889764, 0.1413177 -1.0734147 -0.6889764, 0.2802175 -1.0457858 -0.6889764, 0.4143226 -1.0002633 -0.6889764, 0.5413386 -0.9376259 -0.6889764, 0.6590921 -0.8589455 -0.6889764, 0.7655684 -0.7655684 -0.6889764, 0.8589455 -0.6590921 -0.6889764, 0.9376259 -0.5413386 -0.6889764, 1.0002633 -0.4143226 -0.6889764, 1.0457858 -0.2802175 -0.6889764, 1.0734147 -0.1413177 -0.6889764, 1.0826772 0.0000000 0.6889764, 1.0734147 0.1413177 0.6889764, 1.0457858 0.2802175 0.6889764, 1.0002633 0.4143226 0.6889764, 0.9376259 0.5413386 0.6889764, 0.8589455 0.6590921 0.6889764, 0.7655684 0.7655684 0.6889764, 0.6590921 0.8589455 0.6889764, 0.5413386 0.9376259 0.6889764, 0.4143226 1.0002633 0.6889764, 0.2802175 1.0457858 0.6889764, 0.1413177 1.0734147 0.6889764, 0.0000000 1.0826772 0.6889764, -0.1413177 1.0734147 0.6889764, -0.2802175 1.0457858 0.6889764, -0.4143226 1.0002633 0.6889764, -0.5413386 0.9376259 0.6889764, -0.6590921 0.8589455 0.6889764, -0.7655684 0.7655684 0.6889764, -0.8589455 0.6590921 0.6889764, -0.9376259 0.5413386 0.6889764, -1.0002633 0.4143226 0.6889764, -1.0457858 0.2802175 0.6889764, -1.0734147 0.1413177 0.6889764, -1.0826772 0.0000000 0.6889764, -1.0734147 -0.1413177 0.6889764, -1.0457858 -0.2802175 0.6889764, -1.0002633 -0.4143226 0.6889764, -0.9376259 -0.5413386 0.6889764, -0.8589455 -0.6590921 0.6889764, -0.7655684 -0.7655684 0.6889764, -0.6590921 -0.8589455 0.6889764, -0.5413386 -0.9376259 0.6889764, -0.4143226 -1.0002633 0.6889764, -0.2802175 -1.0457858 0.6889764, -0.1413177 -1.0734147 0.6889764, -0.0000000 -1.0826772 0.6889764, 0.1413177 -1.0734147 0.6889764, 0.2802175 -1.0457858 0.6889764, 0.4143226 -1.0002633 0.6889764, 0.5413386 -0.9376259 0.6889764, 0.6590921 -0.8589455 0.6889764, 0.7655684 -0.7655684 0.6889764, 0.8589455 -0.6590921 0.6889764, 0.9376259 -0.5413386 0.6889764, 1.0002633 -0.4143226 0.6889764, 1.0457858 -0.2802175 0.6889764, 1.0734147 -0.1413177 0.6889764 ] } coordIndex [ 0, 1, 49, 48, -1, 1, 2, 50, 49, -1, 2, 3, 51, 50, -1, 3, 4, 52, 51, -1, 4, 5, 53, 52, -1, 5, 6, 54, 53, -1, 6, 7, 55, 54, -1, 7, 8, 56, 55, -1, 8, 9, 57, 56, -1, 9, 10, 58, 57, -1, 10, 11, 59, 58, -1, 11, 12, 60, 59, -1, 12, 13, 61, 60, -1, 13, 14, 62, 61, -1, 14, 15, 63, 62, -1, 15, 16, 64, 63, -1, 16, 17, 65, 64, -1, 17, 18, 66, 65, -1, 18, 19, 67, 66, -1, 19, 20, 68, 67, -1, 20, 21, 69, 68, -1, 21, 22, 70, 69, -1, 22, 23, 71, 70, -1, 23, 24, 72, 71, -1, 24, 25, 73, 72, -1, 25, 26, 74, 73, -1, 26, 27, 75, 74, -1, 27, 28, 76, 75, -1, 28, 29, 77, 76, -1, 29, 30, 78, 77, -1, 30, 31, 79, 78, -1, 31, 32, 80, 79, -1, 32, 33, 81, 80, -1, 33, 34, 82, 81, -1, 34, 35, 83, 82, -1, 35, 36, 84, 83, -1, 36, 37, 85, 84, -1, 37, 38, 86, 85, -1, 38, 39, 87, 86, -1, 39, 40, 88, 87, -1, 40, 41, 89, 88, -1, 41, 42, 90, 89, -1, 42, 43, 91, 90, -1, 43, 44, 92, 91, -1, 44, 45, 93, 92, -1, 45, 46, 94, 93, -1, 46, 47, 95, 94, -1, 47, 0, 48, 95, -1, 47, 46, 45, 44, 43, 42, 41, 40, 39, 38, 37, 36, 35, 34, 33, 32, 31, 30, 29, 28, 27, 26, 25, 24, 23, 22, 21, 20, 19, 18, 17, 16, 15, 14, 13, 12, 11, 10, 9, 8, 7, 6, 5, 4, 3, 2, 1, 0, -1, 48, 49, 50, 51, 52, 53, 54, 55, 56, 57, 58, 59, 60, 61, 62, 63, 64, 65, 66, 67, 68, 69, 70, 71, 72, 73, 74, 75, 76, 77, 78, 79, 80, 81, 82, 83, 84, 85, 86, 87, 88, 89, 90, 91, 92, 93, 94, 95, -1 ] } } ] }
Transform { translation 0.0000000 0.0000000 0.2677165  children [ Shape { appearance Appearance { material Material { diffuseColor 0.48 0.22 0.08 specularColor 0.15 0.15 0.15 shininess 0.25 } } geometry IndexedFaceSet { solid TRUE creaseAngle 0.8 coord Coordinate { point [ 1.0393701 0.0000000 -0.0236220, 1.0304781 0.1356650 -0.0236220, 1.0039544 0.2690088 -0.0236220, 0.9602527 0.3977497 -0.0236220, 0.9001209 0.5196850 -0.0236220, 0.8245877 0.6327284 -0.0236220, 0.7349456 0.7349456 -0.0236220, 0.6327284 0.8245877 -0.0236220, 0.5196850 0.9001209 -0.0236220, 0.3977497 0.9602527 -0.0236220, 0.2690088 1.0039544 -0.0236220, 0.1356650 1.0304781 -0.0236220, 0.0000000 1.0393701 -0.0236220, -0.1356650 1.0304781 -0.0236220, -0.2690088 1.0039544 -0.0236220, -0.3977497 0.9602527 -0.0236220, -0.5196850 0.9001209 -0.0236220, -0.6327284 0.8245877 -0.0236220, -0.7349456 0.7349456 -0.0236220, -0.8245877 0.6327284 -0.0236220, -0.9001209 0.5196850 -0.0236220, -0.9602527 0.3977497 -0.0236220, -1.0039544 0.2690088 -0.0236220, -1.0304781 0.1356650 -0.0236220, -1.0393701 0.0000000 -0.0236220, -1.0304781 -0.1356650 -0.0236220, -1.0039544 -0.2690088 -0.0236220, -0.9602527 -0.3977497 -0.0236220, -0.9001209 -0.5196850 -0.0236220, -0.8245877 -0.6327284 -0.0236220, -0.7349456 -0.7349456 -0.0236220, -0.6327284 -0.8245877 -0.0236220, -0.5196850 -0.9001209 -0.0236220, -0.3977497 -0.9602527 -0.0236220, -0.2690088 -1.0039544 -0.0236220, -0.1356650 -1.0304781 -0.0236220, -0.0000000 -1.0393701 -0.0236220, 0.1356650 -1.0304781 -0.0236220, 0.2690088 -1.0039544 -0.0236220, 0.3977497 -0.9602527 -0.0236220, 0.5196850 -0.9001209 -0.0236220, 0.6327284 -0.8245877 -0.0236220, 0.7349456 -0.7349456 -0.0236220, 0.8245877 -0.6327284 -0.0236220, 0.9001209 -0.5196850 -0.0236220, 0.9602527 -0.3977497 -0.0236220, 1.0039544 -0.2690088 -0.0236220, 1.0304781 -0.1356650 -0.0236220, 1.0393701 0.0000000 0.0236220, 1.0304781 0.1356650 0.0236220, 1.0039544 0.2690088 0.0236220, 0.9602527 0.3977497 0.0236220, 0.9001209 0.5196850 0.0236220, 0.8245877 0.6327284 0.0236220, 0.7349456 0.7349456 0.0236220, 0.6327284 0.8245877 0.0236220, 0.5196850 0.9001209 0.0236220, 0.3977497 0.9602527 0.0236220, 0.2690088 1.0039544 0.0236220, 0.1356650 1.0304781 0.0236220, 0.0000000 1.0393701 0.0236220, -0.1356650 1.0304781 0.0236220, -0.2690088 1.0039544 0.0236220, -0.3977497 0.9602527 0.0236220, -0.5196850 0.9001209 0.0236220, -0.6327284 0.8245877 0.0236220, -0.7349456 0.7349456 0.0236220, -0.8245877 0.6327284 0.0236220, -0.9001209 0.5196850 0.0236220, -0.9602527 0.3977497 0.0236220, -1.0039544 0.2690088 0.0236220, -1.0304781 0.1356650 0.0236220, -1.0393701 0.0000000 0.0236220, -1.0304781 -0.1356650 0.0236220, -1.0039544 -0.2690088 0.0236220, -0.9602527 -0.3977497 0.0236220, -0.9001209 -0.5196850 0.0236220, -0.8245877 -0.6327284 0.0236220, -0.7349456 -0.7349456 0.0236220, -0.6327284 -0.8245877 0.0236220, -0.5196850 -0.9001209 0.0236220, -0.3977497 -0.9602527 0.0236220, -0.2690088 -1.0039544 0.0236220, -0.1356650 -1.0304781 0.0236220, -0.0000000 -1.0393701 0.0236220, 0.1356650 -1.0304781 0.0236220, 0.2690088 -1.0039544 0.0236220, 0.3977497 -0.9602527 0.0236220, 0.5196850 -0.9001209 0.0236220, 0.6327284 -0.8245877 0.0236220, 0.7349456 -0.7349456 0.0236220, 0.8245877 -0.6327284 0.0236220, 0.9001209 -0.5196850 0.0236220, 0.9602527 -0.3977497 0.0236220, 1.0039544 -0.2690088 0.0236220, 1.0304781 -0.1356650 0.0236220 ] } coordIndex [ 0, 1, 49, 48, -1, 1, 2, 50, 49, -1, 2, 3, 51, 50, -1, 3, 4, 52, 51, -1, 4, 5, 53, 52, -1, 5, 6, 54, 53, -1, 6, 7, 55, 54, -1, 7, 8, 56, 55, -1, 8, 9, 57, 56, -1, 9, 10, 58, 57, -1, 10, 11, 59, 58, -1, 11, 12, 60, 59, -1, 12, 13, 61, 60, -1, 13, 14, 62, 61, -1, 14, 15, 63, 62, -1, 15, 16, 64, 63, -1, 16, 17, 65, 64, -1, 17, 18, 66, 65, -1, 18, 19, 67, 66, -1, 19, 20, 68, 67, -1, 20, 21, 69, 68, -1, 21, 22, 70, 69, -1, 22, 23, 71, 70, -1, 23, 24, 72, 71, -1, 24, 25, 73, 72, -1, 25, 26, 74, 73, -1, 26, 27, 75, 74, -1, 27, 28, 76, 75, -1, 28, 29, 77, 76, -1, 29, 30, 78, 77, -1, 30, 31, 79, 78, -1, 31, 32, 80, 79, -1, 32, 33, 81, 80, -1, 33, 34, 82, 81, -1, 34, 35, 83, 82, -1, 35, 36, 84, 83, -1, 36, 37, 85, 84, -1, 37, 38, 86, 85, -1, 38, 39, 87, 86, -1, 39, 40, 88, 87, -1, 40, 41, 89, 88, -1, 41, 42, 90, 89, -1, 42, 43, 91, 90, -1, 43, 44, 92, 91, -1, 44, 45, 93, 92, -1, 45, 46, 94, 93, -1, 46, 47, 95, 94, -1, 47, 0, 48, 95, -1, 47, 46, 45, 44, 43, 42, 41, 40, 39, 38, 37, 36, 35, 34, 33, 32, 31, 30, 29, 28, 27, 26, 25, 24, 23, 22, 21, 20, 19, 18, 17, 16, 15, 14, 13, 12, 11, 10, 9, 8, 7, 6, 5, 4, 3, 2, 1, 0, -1, 48, 49, 50, 51, 52, 53, 54, 55, 56, 57, 58, 59, 60, 61, 62, 63, 64, 65, 66, 67, 68, 69, 70, 71, 72, 73, 74, 75, 76, 77, 78, 79, 80, 81, 82, 83, 84, 85, 86, 87, 88, 89, 90, 91, 92, 93, 94, 95, -1 ] } } ] }
Transform { translation -1.1417323 -0.2362205 0.0629921  children [ Shape { appearance Appearance { material Material { diffuseColor 0.72 0.73 0.74 specularColor 0.15 0.15 0.15 shininess 0.25 } } geometry Box { size 0.6299213 1.5748031 0.1181102 } } ] }
Transform { translation 1.1417323 -0.2362205 0.0629921  children [ Shape { appearance Appearance { material Material { diffuseColor 0.72 0.73 0.74 specularColor 0.15 0.15 0.15 shininess 0.25 } } geometry Box { size 0.6299213 1.5748031 0.1181102 } } ] }
