%TF.GenerationSoftware,KiCad,Pcbnew,9.0.8+dfsg-1*%
%TF.CreationDate,2026-10-06T21:35:35-06:00*%
%TF.ProjectId,leftPointerThumbBreakout,6c656674-506f-4696-9e74-65725468756d,rev?*%
%TF.SameCoordinates,Original*%
%TF.FileFunction,Paste,Top*%
%TF.FilePolarity,Positive*%
%FSLAX46Y46*%
G04 Gerber Fmt 4.6, Leading zero omitted, Abs format (unit mm)*
G04 Created by KiCad (PCBNEW 9.0.8+dfsg-1) date 2026-10-06 21:35:35*
%MOMM*%
%LPD*%
G01*
G04 APERTURE LIST*
%ADD10R,0.250000X1.500000*%
%ADD11R,2.000000X1.700000*%
%ADD12R,0.300000X1.500000*%
G04 APERTURE END LIST*
D10*
%TO.C,J3*%
X180300000Y-53000000D03*
X180800000Y-53000000D03*
X181300000Y-53000000D03*
X181800000Y-53000000D03*
X182300000Y-53000000D03*
X182800000Y-53000000D03*
D11*
X184500000Y-55600000D03*
X178600000Y-55600000D03*
%TD*%
D10*
%TO.C,J2*%
X180300000Y-43900000D03*
X180800000Y-43900000D03*
X181300000Y-43900000D03*
X181800000Y-43900000D03*
X182300000Y-43900000D03*
X182800000Y-43900000D03*
D11*
X184500000Y-46500000D03*
X178600000Y-46500000D03*
%TD*%
D10*
%TO.C,J15*%
X152700001Y-80300000D03*
X153200001Y-80300000D03*
X153700001Y-80300000D03*
X154200001Y-80300000D03*
X154700001Y-80300000D03*
X155200001Y-80300000D03*
D11*
X156900001Y-82900000D03*
X151000001Y-82900000D03*
%TD*%
D10*
%TO.C,J12*%
X152700001Y-43900000D03*
X153200001Y-43900000D03*
X153700001Y-43900000D03*
X154200001Y-43900000D03*
X154700001Y-43900000D03*
X155200001Y-43900000D03*
D11*
X156900001Y-46500000D03*
X151000001Y-46500000D03*
%TD*%
D10*
%TO.C,J5*%
X180300000Y-71200000D03*
X180800000Y-71200000D03*
X181300000Y-71200000D03*
X181800000Y-71200000D03*
X182300000Y-71200000D03*
X182800000Y-71200000D03*
D11*
X184500000Y-73800000D03*
X178600000Y-73800000D03*
%TD*%
D10*
%TO.C,J17*%
X152700001Y-62100000D03*
X153200001Y-62100000D03*
X153700001Y-62100000D03*
X154200001Y-62100000D03*
X154700001Y-62100000D03*
X155200001Y-62100000D03*
D11*
X156900001Y-64700000D03*
X151000001Y-64700000D03*
%TD*%
D10*
%TO.C,J11*%
X166500000Y-80300000D03*
X167000000Y-80300000D03*
X167500000Y-80300000D03*
X168000000Y-80300000D03*
X168500000Y-80300000D03*
X169000000Y-80300000D03*
D11*
X170700000Y-82900000D03*
X164800000Y-82900000D03*
%TD*%
D10*
%TO.C,J14*%
X152700001Y-89400000D03*
X153200001Y-89400000D03*
X153700001Y-89400000D03*
X154200001Y-89400000D03*
X154700001Y-89400000D03*
X155200001Y-89400000D03*
D11*
X156900001Y-92000000D03*
X151000001Y-92000000D03*
%TD*%
D10*
%TO.C,J13*%
X152700001Y-53000000D03*
X153200001Y-53000000D03*
X153700001Y-53000000D03*
X154200001Y-53000000D03*
X154700001Y-53000000D03*
X155200001Y-53000000D03*
D11*
X156900001Y-55600000D03*
X151000001Y-55600000D03*
%TD*%
D10*
%TO.C,J8*%
X166500000Y-53000000D03*
X167000000Y-53000000D03*
X167500000Y-53000000D03*
X168000000Y-53000000D03*
X168500000Y-53000000D03*
X169000000Y-53000000D03*
D11*
X170700000Y-55600000D03*
X164800000Y-55600000D03*
%TD*%
D10*
%TO.C,J10*%
X166500000Y-71200000D03*
X167000000Y-71200000D03*
X167500000Y-71200000D03*
X168000000Y-71200000D03*
X168500000Y-71200000D03*
X169000000Y-71200000D03*
D11*
X170700000Y-73800000D03*
X164800000Y-73800000D03*
%TD*%
D10*
%TO.C,J9*%
X166500000Y-62100000D03*
X167000000Y-62100000D03*
X167500000Y-62100000D03*
X168000000Y-62100000D03*
X168500000Y-62100000D03*
X169000000Y-62100000D03*
D11*
X170700000Y-64700000D03*
X164800000Y-64700000D03*
%TD*%
D10*
%TO.C,J16*%
X152700001Y-71200000D03*
X153200001Y-71200000D03*
X153700001Y-71200000D03*
X154200001Y-71200000D03*
X154700001Y-71200000D03*
X155200001Y-71200000D03*
D11*
X156900001Y-73800000D03*
X151000001Y-73800000D03*
%TD*%
D12*
%TO.C,J1*%
X158200000Y-98500000D03*
X158700000Y-98500000D03*
X159200000Y-98500000D03*
X159700000Y-98500000D03*
X160200000Y-98500000D03*
X160700000Y-98500000D03*
X161200000Y-98500000D03*
X161700000Y-98500000D03*
X162200000Y-98500000D03*
X162700000Y-98500000D03*
X163200000Y-98500000D03*
X163700000Y-98500000D03*
X164200000Y-98500000D03*
X164700000Y-98500000D03*
D11*
X166400000Y-101100000D03*
X156500000Y-101100000D03*
%TD*%
D10*
%TO.C,J4*%
X180300000Y-62100000D03*
X180800000Y-62100000D03*
X181300000Y-62100000D03*
X181800000Y-62100000D03*
X182300000Y-62100000D03*
X182800000Y-62100000D03*
D11*
X184500000Y-64700000D03*
X178600000Y-64700000D03*
%TD*%
D10*
%TO.C,J7*%
X180300000Y-89400000D03*
X180800000Y-89400000D03*
X181300000Y-89400000D03*
X181800000Y-89400000D03*
X182300000Y-89400000D03*
X182800000Y-89400000D03*
D11*
X184500000Y-92000000D03*
X178600000Y-92000000D03*
%TD*%
D10*
%TO.C,J6*%
X180300000Y-80300000D03*
X180800000Y-80300000D03*
X181300000Y-80300000D03*
X181800000Y-80300000D03*
X182300000Y-80300000D03*
X182800000Y-80300000D03*
D11*
X184500000Y-82900000D03*
X178600000Y-82900000D03*
%TD*%
M02*
