%TF.GenerationSoftware,KiCad,Pcbnew,9.0.8+dfsg-1*%
%TF.CreationDate,2026-10-06T21:35:35-06:00*%
%TF.ProjectId,leftPointerThumbBreakout,6c656674-506f-4696-9e74-65725468756d,rev?*%
%TF.SameCoordinates,Original*%
%TF.FileFunction,Legend,Top*%
%TF.FilePolarity,Positive*%
%FSLAX46Y46*%
G04 Gerber Fmt 4.6, Leading zero omitted, Abs format (unit mm)*
G04 Created by KiCad (PCBNEW 9.0.8+dfsg-1) date 2026-10-06 21:35:35*
%MOMM*%
%LPD*%
G01*
G04 APERTURE LIST*
%ADD10C,0.300000*%
%ADD11C,0.150000*%
%ADD12C,0.250000*%
%ADD13C,0.060000*%
%ADD14C,0.000000*%
%ADD15R,0.250000X1.500000*%
%ADD16R,2.000000X1.700000*%
%ADD17C,2.200000*%
%ADD18R,0.300000X1.500000*%
G04 APERTURE END LIST*
D10*
X152850002Y-42600000D02*
G75*
G02*
X152550002Y-42600000I-150000J0D01*
G01*
X152550002Y-42600000D02*
G75*
G02*
X152850002Y-42600000I150000J0D01*
G01*
X152850002Y-51700000D02*
G75*
G02*
X152550002Y-51700000I-150000J0D01*
G01*
X152550002Y-51700000D02*
G75*
G02*
X152850002Y-51700000I150000J0D01*
G01*
X152850002Y-60800000D02*
G75*
G02*
X152550002Y-60800000I-150000J0D01*
G01*
X152550002Y-60800000D02*
G75*
G02*
X152850002Y-60800000I150000J0D01*
G01*
X152850002Y-69900000D02*
G75*
G02*
X152550002Y-69900000I-150000J0D01*
G01*
X152550002Y-69900000D02*
G75*
G02*
X152850002Y-69900000I150000J0D01*
G01*
X152850002Y-79000000D02*
G75*
G02*
X152550002Y-79000000I-150000J0D01*
G01*
X152550002Y-79000000D02*
G75*
G02*
X152850002Y-79000000I150000J0D01*
G01*
X152850002Y-88100000D02*
G75*
G02*
X152550002Y-88100000I-150000J0D01*
G01*
X152550002Y-88100000D02*
G75*
G02*
X152850002Y-88100000I150000J0D01*
G01*
X156950000Y-97200000D02*
G75*
G02*
X156650000Y-97200000I-150000J0D01*
G01*
X156650000Y-97200000D02*
G75*
G02*
X156950000Y-97200000I150000J0D01*
G01*
X166650000Y-51700000D02*
G75*
G02*
X166350000Y-51700000I-150000J0D01*
G01*
X166350000Y-51700000D02*
G75*
G02*
X166650000Y-51700000I150000J0D01*
G01*
X166650000Y-60800000D02*
G75*
G02*
X166350000Y-60800000I-150000J0D01*
G01*
X166350000Y-60800000D02*
G75*
G02*
X166650000Y-60800000I150000J0D01*
G01*
X166650000Y-69900000D02*
G75*
G02*
X166350000Y-69900000I-150000J0D01*
G01*
X166350000Y-69900000D02*
G75*
G02*
X166650000Y-69900000I150000J0D01*
G01*
X166650000Y-79000000D02*
G75*
G02*
X166350000Y-79000000I-150000J0D01*
G01*
X166350000Y-79000000D02*
G75*
G02*
X166650000Y-79000000I150000J0D01*
G01*
X180450000Y-42600000D02*
G75*
G02*
X180150000Y-42600000I-150000J0D01*
G01*
X180150000Y-42600000D02*
G75*
G02*
X180450000Y-42600000I150000J0D01*
G01*
X180450000Y-51700000D02*
G75*
G02*
X180150000Y-51700000I-150000J0D01*
G01*
X180150000Y-51700000D02*
G75*
G02*
X180450000Y-51700000I150000J0D01*
G01*
X180450000Y-60800000D02*
G75*
G02*
X180150000Y-60800000I-150000J0D01*
G01*
X180150000Y-60800000D02*
G75*
G02*
X180450000Y-60800000I150000J0D01*
G01*
X180450000Y-69900000D02*
G75*
G02*
X180150000Y-69900000I-150000J0D01*
G01*
X180150000Y-69900000D02*
G75*
G02*
X180450000Y-69900000I150000J0D01*
G01*
X180450000Y-79000000D02*
G75*
G02*
X180150000Y-79000000I-150000J0D01*
G01*
X180150000Y-79000000D02*
G75*
G02*
X180450000Y-79000000I150000J0D01*
G01*
X180450000Y-88100000D02*
G75*
G02*
X180150000Y-88100000I-150000J0D01*
G01*
X180150000Y-88100000D02*
G75*
G02*
X180450000Y-88100000I150000J0D01*
G01*
D11*
X166488094Y-46059580D02*
X166440475Y-46107200D01*
X166440475Y-46107200D02*
X166297618Y-46154819D01*
X166297618Y-46154819D02*
X166202380Y-46154819D01*
X166202380Y-46154819D02*
X166059523Y-46107200D01*
X166059523Y-46107200D02*
X165964285Y-46011961D01*
X165964285Y-46011961D02*
X165916666Y-45916723D01*
X165916666Y-45916723D02*
X165869047Y-45726247D01*
X165869047Y-45726247D02*
X165869047Y-45583390D01*
X165869047Y-45583390D02*
X165916666Y-45392914D01*
X165916666Y-45392914D02*
X165964285Y-45297676D01*
X165964285Y-45297676D02*
X166059523Y-45202438D01*
X166059523Y-45202438D02*
X166202380Y-45154819D01*
X166202380Y-45154819D02*
X166297618Y-45154819D01*
X166297618Y-45154819D02*
X166440475Y-45202438D01*
X166440475Y-45202438D02*
X166488094Y-45250057D01*
X167059523Y-46154819D02*
X166964285Y-46107200D01*
X166964285Y-46107200D02*
X166916666Y-46059580D01*
X166916666Y-46059580D02*
X166869047Y-45964342D01*
X166869047Y-45964342D02*
X166869047Y-45678628D01*
X166869047Y-45678628D02*
X166916666Y-45583390D01*
X166916666Y-45583390D02*
X166964285Y-45535771D01*
X166964285Y-45535771D02*
X167059523Y-45488152D01*
X167059523Y-45488152D02*
X167202380Y-45488152D01*
X167202380Y-45488152D02*
X167297618Y-45535771D01*
X167297618Y-45535771D02*
X167345237Y-45583390D01*
X167345237Y-45583390D02*
X167392856Y-45678628D01*
X167392856Y-45678628D02*
X167392856Y-45964342D01*
X167392856Y-45964342D02*
X167345237Y-46059580D01*
X167345237Y-46059580D02*
X167297618Y-46107200D01*
X167297618Y-46107200D02*
X167202380Y-46154819D01*
X167202380Y-46154819D02*
X167059523Y-46154819D01*
X167964285Y-46154819D02*
X167869047Y-46107200D01*
X167869047Y-46107200D02*
X167821428Y-46011961D01*
X167821428Y-46011961D02*
X167821428Y-45154819D01*
X169630952Y-46154819D02*
X169059524Y-46154819D01*
X169345238Y-46154819D02*
X169345238Y-45154819D01*
X169345238Y-45154819D02*
X169250000Y-45297676D01*
X169250000Y-45297676D02*
X169154762Y-45392914D01*
X169154762Y-45392914D02*
X169059524Y-45440533D01*
X173076190Y-65554819D02*
X172742857Y-65078628D01*
X172504762Y-65554819D02*
X172504762Y-64554819D01*
X172504762Y-64554819D02*
X172885714Y-64554819D01*
X172885714Y-64554819D02*
X172980952Y-64602438D01*
X172980952Y-64602438D02*
X173028571Y-64650057D01*
X173028571Y-64650057D02*
X173076190Y-64745295D01*
X173076190Y-64745295D02*
X173076190Y-64888152D01*
X173076190Y-64888152D02*
X173028571Y-64983390D01*
X173028571Y-64983390D02*
X172980952Y-65031009D01*
X172980952Y-65031009D02*
X172885714Y-65078628D01*
X172885714Y-65078628D02*
X172504762Y-65078628D01*
X173647619Y-65554819D02*
X173552381Y-65507200D01*
X173552381Y-65507200D02*
X173504762Y-65459580D01*
X173504762Y-65459580D02*
X173457143Y-65364342D01*
X173457143Y-65364342D02*
X173457143Y-65078628D01*
X173457143Y-65078628D02*
X173504762Y-64983390D01*
X173504762Y-64983390D02*
X173552381Y-64935771D01*
X173552381Y-64935771D02*
X173647619Y-64888152D01*
X173647619Y-64888152D02*
X173790476Y-64888152D01*
X173790476Y-64888152D02*
X173885714Y-64935771D01*
X173885714Y-64935771D02*
X173933333Y-64983390D01*
X173933333Y-64983390D02*
X173980952Y-65078628D01*
X173980952Y-65078628D02*
X173980952Y-65364342D01*
X173980952Y-65364342D02*
X173933333Y-65459580D01*
X173933333Y-65459580D02*
X173885714Y-65507200D01*
X173885714Y-65507200D02*
X173790476Y-65554819D01*
X173790476Y-65554819D02*
X173647619Y-65554819D01*
X174314286Y-64888152D02*
X174504762Y-65554819D01*
X174504762Y-65554819D02*
X174695238Y-65078628D01*
X174695238Y-65078628D02*
X174885714Y-65554819D01*
X174885714Y-65554819D02*
X175076190Y-64888152D01*
X176171429Y-64650057D02*
X176219048Y-64602438D01*
X176219048Y-64602438D02*
X176314286Y-64554819D01*
X176314286Y-64554819D02*
X176552381Y-64554819D01*
X176552381Y-64554819D02*
X176647619Y-64602438D01*
X176647619Y-64602438D02*
X176695238Y-64650057D01*
X176695238Y-64650057D02*
X176742857Y-64745295D01*
X176742857Y-64745295D02*
X176742857Y-64840533D01*
X176742857Y-64840533D02*
X176695238Y-64983390D01*
X176695238Y-64983390D02*
X176123810Y-65554819D01*
X176123810Y-65554819D02*
X176742857Y-65554819D01*
X173076190Y-74754819D02*
X172742857Y-74278628D01*
X172504762Y-74754819D02*
X172504762Y-73754819D01*
X172504762Y-73754819D02*
X172885714Y-73754819D01*
X172885714Y-73754819D02*
X172980952Y-73802438D01*
X172980952Y-73802438D02*
X173028571Y-73850057D01*
X173028571Y-73850057D02*
X173076190Y-73945295D01*
X173076190Y-73945295D02*
X173076190Y-74088152D01*
X173076190Y-74088152D02*
X173028571Y-74183390D01*
X173028571Y-74183390D02*
X172980952Y-74231009D01*
X172980952Y-74231009D02*
X172885714Y-74278628D01*
X172885714Y-74278628D02*
X172504762Y-74278628D01*
X173647619Y-74754819D02*
X173552381Y-74707200D01*
X173552381Y-74707200D02*
X173504762Y-74659580D01*
X173504762Y-74659580D02*
X173457143Y-74564342D01*
X173457143Y-74564342D02*
X173457143Y-74278628D01*
X173457143Y-74278628D02*
X173504762Y-74183390D01*
X173504762Y-74183390D02*
X173552381Y-74135771D01*
X173552381Y-74135771D02*
X173647619Y-74088152D01*
X173647619Y-74088152D02*
X173790476Y-74088152D01*
X173790476Y-74088152D02*
X173885714Y-74135771D01*
X173885714Y-74135771D02*
X173933333Y-74183390D01*
X173933333Y-74183390D02*
X173980952Y-74278628D01*
X173980952Y-74278628D02*
X173980952Y-74564342D01*
X173980952Y-74564342D02*
X173933333Y-74659580D01*
X173933333Y-74659580D02*
X173885714Y-74707200D01*
X173885714Y-74707200D02*
X173790476Y-74754819D01*
X173790476Y-74754819D02*
X173647619Y-74754819D01*
X174314286Y-74088152D02*
X174504762Y-74754819D01*
X174504762Y-74754819D02*
X174695238Y-74278628D01*
X174695238Y-74278628D02*
X174885714Y-74754819D01*
X174885714Y-74754819D02*
X175076190Y-74088152D01*
X176123810Y-73754819D02*
X176742857Y-73754819D01*
X176742857Y-73754819D02*
X176409524Y-74135771D01*
X176409524Y-74135771D02*
X176552381Y-74135771D01*
X176552381Y-74135771D02*
X176647619Y-74183390D01*
X176647619Y-74183390D02*
X176695238Y-74231009D01*
X176695238Y-74231009D02*
X176742857Y-74326247D01*
X176742857Y-74326247D02*
X176742857Y-74564342D01*
X176742857Y-74564342D02*
X176695238Y-74659580D01*
X176695238Y-74659580D02*
X176647619Y-74707200D01*
X176647619Y-74707200D02*
X176552381Y-74754819D01*
X176552381Y-74754819D02*
X176266667Y-74754819D01*
X176266667Y-74754819D02*
X176171429Y-74707200D01*
X176171429Y-74707200D02*
X176123810Y-74659580D01*
X173176190Y-83754819D02*
X172842857Y-83278628D01*
X172604762Y-83754819D02*
X172604762Y-82754819D01*
X172604762Y-82754819D02*
X172985714Y-82754819D01*
X172985714Y-82754819D02*
X173080952Y-82802438D01*
X173080952Y-82802438D02*
X173128571Y-82850057D01*
X173128571Y-82850057D02*
X173176190Y-82945295D01*
X173176190Y-82945295D02*
X173176190Y-83088152D01*
X173176190Y-83088152D02*
X173128571Y-83183390D01*
X173128571Y-83183390D02*
X173080952Y-83231009D01*
X173080952Y-83231009D02*
X172985714Y-83278628D01*
X172985714Y-83278628D02*
X172604762Y-83278628D01*
X173747619Y-83754819D02*
X173652381Y-83707200D01*
X173652381Y-83707200D02*
X173604762Y-83659580D01*
X173604762Y-83659580D02*
X173557143Y-83564342D01*
X173557143Y-83564342D02*
X173557143Y-83278628D01*
X173557143Y-83278628D02*
X173604762Y-83183390D01*
X173604762Y-83183390D02*
X173652381Y-83135771D01*
X173652381Y-83135771D02*
X173747619Y-83088152D01*
X173747619Y-83088152D02*
X173890476Y-83088152D01*
X173890476Y-83088152D02*
X173985714Y-83135771D01*
X173985714Y-83135771D02*
X174033333Y-83183390D01*
X174033333Y-83183390D02*
X174080952Y-83278628D01*
X174080952Y-83278628D02*
X174080952Y-83564342D01*
X174080952Y-83564342D02*
X174033333Y-83659580D01*
X174033333Y-83659580D02*
X173985714Y-83707200D01*
X173985714Y-83707200D02*
X173890476Y-83754819D01*
X173890476Y-83754819D02*
X173747619Y-83754819D01*
X174414286Y-83088152D02*
X174604762Y-83754819D01*
X174604762Y-83754819D02*
X174795238Y-83278628D01*
X174795238Y-83278628D02*
X174985714Y-83754819D01*
X174985714Y-83754819D02*
X175176190Y-83088152D01*
X176747619Y-83088152D02*
X176747619Y-83754819D01*
X176509524Y-82707200D02*
X176271429Y-83421485D01*
X176271429Y-83421485D02*
X176890476Y-83421485D01*
X173276190Y-47354819D02*
X172942857Y-46878628D01*
X172704762Y-47354819D02*
X172704762Y-46354819D01*
X172704762Y-46354819D02*
X173085714Y-46354819D01*
X173085714Y-46354819D02*
X173180952Y-46402438D01*
X173180952Y-46402438D02*
X173228571Y-46450057D01*
X173228571Y-46450057D02*
X173276190Y-46545295D01*
X173276190Y-46545295D02*
X173276190Y-46688152D01*
X173276190Y-46688152D02*
X173228571Y-46783390D01*
X173228571Y-46783390D02*
X173180952Y-46831009D01*
X173180952Y-46831009D02*
X173085714Y-46878628D01*
X173085714Y-46878628D02*
X172704762Y-46878628D01*
X173847619Y-47354819D02*
X173752381Y-47307200D01*
X173752381Y-47307200D02*
X173704762Y-47259580D01*
X173704762Y-47259580D02*
X173657143Y-47164342D01*
X173657143Y-47164342D02*
X173657143Y-46878628D01*
X173657143Y-46878628D02*
X173704762Y-46783390D01*
X173704762Y-46783390D02*
X173752381Y-46735771D01*
X173752381Y-46735771D02*
X173847619Y-46688152D01*
X173847619Y-46688152D02*
X173990476Y-46688152D01*
X173990476Y-46688152D02*
X174085714Y-46735771D01*
X174085714Y-46735771D02*
X174133333Y-46783390D01*
X174133333Y-46783390D02*
X174180952Y-46878628D01*
X174180952Y-46878628D02*
X174180952Y-47164342D01*
X174180952Y-47164342D02*
X174133333Y-47259580D01*
X174133333Y-47259580D02*
X174085714Y-47307200D01*
X174085714Y-47307200D02*
X173990476Y-47354819D01*
X173990476Y-47354819D02*
X173847619Y-47354819D01*
X174514286Y-46688152D02*
X174704762Y-47354819D01*
X174704762Y-47354819D02*
X174895238Y-46878628D01*
X174895238Y-46878628D02*
X175085714Y-47354819D01*
X175085714Y-47354819D02*
X175276190Y-46688152D01*
X176609524Y-46354819D02*
X176704762Y-46354819D01*
X176704762Y-46354819D02*
X176800000Y-46402438D01*
X176800000Y-46402438D02*
X176847619Y-46450057D01*
X176847619Y-46450057D02*
X176895238Y-46545295D01*
X176895238Y-46545295D02*
X176942857Y-46735771D01*
X176942857Y-46735771D02*
X176942857Y-46973866D01*
X176942857Y-46973866D02*
X176895238Y-47164342D01*
X176895238Y-47164342D02*
X176847619Y-47259580D01*
X176847619Y-47259580D02*
X176800000Y-47307200D01*
X176800000Y-47307200D02*
X176704762Y-47354819D01*
X176704762Y-47354819D02*
X176609524Y-47354819D01*
X176609524Y-47354819D02*
X176514286Y-47307200D01*
X176514286Y-47307200D02*
X176466667Y-47259580D01*
X176466667Y-47259580D02*
X176419048Y-47164342D01*
X176419048Y-47164342D02*
X176371429Y-46973866D01*
X176371429Y-46973866D02*
X176371429Y-46735771D01*
X176371429Y-46735771D02*
X176419048Y-46545295D01*
X176419048Y-46545295D02*
X176466667Y-46450057D01*
X176466667Y-46450057D02*
X176514286Y-46402438D01*
X176514286Y-46402438D02*
X176609524Y-46354819D01*
X173276190Y-56554819D02*
X172942857Y-56078628D01*
X172704762Y-56554819D02*
X172704762Y-55554819D01*
X172704762Y-55554819D02*
X173085714Y-55554819D01*
X173085714Y-55554819D02*
X173180952Y-55602438D01*
X173180952Y-55602438D02*
X173228571Y-55650057D01*
X173228571Y-55650057D02*
X173276190Y-55745295D01*
X173276190Y-55745295D02*
X173276190Y-55888152D01*
X173276190Y-55888152D02*
X173228571Y-55983390D01*
X173228571Y-55983390D02*
X173180952Y-56031009D01*
X173180952Y-56031009D02*
X173085714Y-56078628D01*
X173085714Y-56078628D02*
X172704762Y-56078628D01*
X173847619Y-56554819D02*
X173752381Y-56507200D01*
X173752381Y-56507200D02*
X173704762Y-56459580D01*
X173704762Y-56459580D02*
X173657143Y-56364342D01*
X173657143Y-56364342D02*
X173657143Y-56078628D01*
X173657143Y-56078628D02*
X173704762Y-55983390D01*
X173704762Y-55983390D02*
X173752381Y-55935771D01*
X173752381Y-55935771D02*
X173847619Y-55888152D01*
X173847619Y-55888152D02*
X173990476Y-55888152D01*
X173990476Y-55888152D02*
X174085714Y-55935771D01*
X174085714Y-55935771D02*
X174133333Y-55983390D01*
X174133333Y-55983390D02*
X174180952Y-56078628D01*
X174180952Y-56078628D02*
X174180952Y-56364342D01*
X174180952Y-56364342D02*
X174133333Y-56459580D01*
X174133333Y-56459580D02*
X174085714Y-56507200D01*
X174085714Y-56507200D02*
X173990476Y-56554819D01*
X173990476Y-56554819D02*
X173847619Y-56554819D01*
X174514286Y-55888152D02*
X174704762Y-56554819D01*
X174704762Y-56554819D02*
X174895238Y-56078628D01*
X174895238Y-56078628D02*
X175085714Y-56554819D01*
X175085714Y-56554819D02*
X175276190Y-55888152D01*
X176942857Y-56554819D02*
X176371429Y-56554819D01*
X176657143Y-56554819D02*
X176657143Y-55554819D01*
X176657143Y-55554819D02*
X176561905Y-55697676D01*
X176561905Y-55697676D02*
X176466667Y-55792914D01*
X176466667Y-55792914D02*
X176371429Y-55840533D01*
X173276190Y-92754819D02*
X172942857Y-92278628D01*
X172704762Y-92754819D02*
X172704762Y-91754819D01*
X172704762Y-91754819D02*
X173085714Y-91754819D01*
X173085714Y-91754819D02*
X173180952Y-91802438D01*
X173180952Y-91802438D02*
X173228571Y-91850057D01*
X173228571Y-91850057D02*
X173276190Y-91945295D01*
X173276190Y-91945295D02*
X173276190Y-92088152D01*
X173276190Y-92088152D02*
X173228571Y-92183390D01*
X173228571Y-92183390D02*
X173180952Y-92231009D01*
X173180952Y-92231009D02*
X173085714Y-92278628D01*
X173085714Y-92278628D02*
X172704762Y-92278628D01*
X173847619Y-92754819D02*
X173752381Y-92707200D01*
X173752381Y-92707200D02*
X173704762Y-92659580D01*
X173704762Y-92659580D02*
X173657143Y-92564342D01*
X173657143Y-92564342D02*
X173657143Y-92278628D01*
X173657143Y-92278628D02*
X173704762Y-92183390D01*
X173704762Y-92183390D02*
X173752381Y-92135771D01*
X173752381Y-92135771D02*
X173847619Y-92088152D01*
X173847619Y-92088152D02*
X173990476Y-92088152D01*
X173990476Y-92088152D02*
X174085714Y-92135771D01*
X174085714Y-92135771D02*
X174133333Y-92183390D01*
X174133333Y-92183390D02*
X174180952Y-92278628D01*
X174180952Y-92278628D02*
X174180952Y-92564342D01*
X174180952Y-92564342D02*
X174133333Y-92659580D01*
X174133333Y-92659580D02*
X174085714Y-92707200D01*
X174085714Y-92707200D02*
X173990476Y-92754819D01*
X173990476Y-92754819D02*
X173847619Y-92754819D01*
X174514286Y-92088152D02*
X174704762Y-92754819D01*
X174704762Y-92754819D02*
X174895238Y-92278628D01*
X174895238Y-92278628D02*
X175085714Y-92754819D01*
X175085714Y-92754819D02*
X175276190Y-92088152D01*
X176895238Y-91754819D02*
X176419048Y-91754819D01*
X176419048Y-91754819D02*
X176371429Y-92231009D01*
X176371429Y-92231009D02*
X176419048Y-92183390D01*
X176419048Y-92183390D02*
X176514286Y-92135771D01*
X176514286Y-92135771D02*
X176752381Y-92135771D01*
X176752381Y-92135771D02*
X176847619Y-92183390D01*
X176847619Y-92183390D02*
X176895238Y-92231009D01*
X176895238Y-92231009D02*
X176942857Y-92326247D01*
X176942857Y-92326247D02*
X176942857Y-92564342D01*
X176942857Y-92564342D02*
X176895238Y-92659580D01*
X176895238Y-92659580D02*
X176847619Y-92707200D01*
X176847619Y-92707200D02*
X176752381Y-92754819D01*
X176752381Y-92754819D02*
X176514286Y-92754819D01*
X176514286Y-92754819D02*
X176419048Y-92707200D01*
X176419048Y-92707200D02*
X176371429Y-92659580D01*
X147740419Y-43438094D02*
X147692800Y-43390475D01*
X147692800Y-43390475D02*
X147645180Y-43247618D01*
X147645180Y-43247618D02*
X147645180Y-43152380D01*
X147645180Y-43152380D02*
X147692800Y-43009523D01*
X147692800Y-43009523D02*
X147788038Y-42914285D01*
X147788038Y-42914285D02*
X147883276Y-42866666D01*
X147883276Y-42866666D02*
X148073752Y-42819047D01*
X148073752Y-42819047D02*
X148216609Y-42819047D01*
X148216609Y-42819047D02*
X148407085Y-42866666D01*
X148407085Y-42866666D02*
X148502323Y-42914285D01*
X148502323Y-42914285D02*
X148597561Y-43009523D01*
X148597561Y-43009523D02*
X148645180Y-43152380D01*
X148645180Y-43152380D02*
X148645180Y-43247618D01*
X148645180Y-43247618D02*
X148597561Y-43390475D01*
X148597561Y-43390475D02*
X148549942Y-43438094D01*
X147645180Y-44009523D02*
X147692800Y-43914285D01*
X147692800Y-43914285D02*
X147740419Y-43866666D01*
X147740419Y-43866666D02*
X147835657Y-43819047D01*
X147835657Y-43819047D02*
X148121371Y-43819047D01*
X148121371Y-43819047D02*
X148216609Y-43866666D01*
X148216609Y-43866666D02*
X148264228Y-43914285D01*
X148264228Y-43914285D02*
X148311847Y-44009523D01*
X148311847Y-44009523D02*
X148311847Y-44152380D01*
X148311847Y-44152380D02*
X148264228Y-44247618D01*
X148264228Y-44247618D02*
X148216609Y-44295237D01*
X148216609Y-44295237D02*
X148121371Y-44342856D01*
X148121371Y-44342856D02*
X147835657Y-44342856D01*
X147835657Y-44342856D02*
X147740419Y-44295237D01*
X147740419Y-44295237D02*
X147692800Y-44247618D01*
X147692800Y-44247618D02*
X147645180Y-44152380D01*
X147645180Y-44152380D02*
X147645180Y-44009523D01*
X147645180Y-44914285D02*
X147692800Y-44819047D01*
X147692800Y-44819047D02*
X147788038Y-44771428D01*
X147788038Y-44771428D02*
X148645180Y-44771428D01*
X148549942Y-46009524D02*
X148597561Y-46057143D01*
X148597561Y-46057143D02*
X148645180Y-46152381D01*
X148645180Y-46152381D02*
X148645180Y-46390476D01*
X148645180Y-46390476D02*
X148597561Y-46485714D01*
X148597561Y-46485714D02*
X148549942Y-46533333D01*
X148549942Y-46533333D02*
X148454704Y-46580952D01*
X148454704Y-46580952D02*
X148359466Y-46580952D01*
X148359466Y-46580952D02*
X148216609Y-46533333D01*
X148216609Y-46533333D02*
X147645180Y-45961905D01*
X147645180Y-45961905D02*
X147645180Y-46580952D01*
X148026133Y-47771429D02*
X148026133Y-48533334D01*
X147835657Y-48342857D02*
X148026133Y-48533334D01*
X148026133Y-48533334D02*
X148216609Y-48342857D01*
X187040419Y-43438094D02*
X186992800Y-43390475D01*
X186992800Y-43390475D02*
X186945180Y-43247618D01*
X186945180Y-43247618D02*
X186945180Y-43152380D01*
X186945180Y-43152380D02*
X186992800Y-43009523D01*
X186992800Y-43009523D02*
X187088038Y-42914285D01*
X187088038Y-42914285D02*
X187183276Y-42866666D01*
X187183276Y-42866666D02*
X187373752Y-42819047D01*
X187373752Y-42819047D02*
X187516609Y-42819047D01*
X187516609Y-42819047D02*
X187707085Y-42866666D01*
X187707085Y-42866666D02*
X187802323Y-42914285D01*
X187802323Y-42914285D02*
X187897561Y-43009523D01*
X187897561Y-43009523D02*
X187945180Y-43152380D01*
X187945180Y-43152380D02*
X187945180Y-43247618D01*
X187945180Y-43247618D02*
X187897561Y-43390475D01*
X187897561Y-43390475D02*
X187849942Y-43438094D01*
X186945180Y-44009523D02*
X186992800Y-43914285D01*
X186992800Y-43914285D02*
X187040419Y-43866666D01*
X187040419Y-43866666D02*
X187135657Y-43819047D01*
X187135657Y-43819047D02*
X187421371Y-43819047D01*
X187421371Y-43819047D02*
X187516609Y-43866666D01*
X187516609Y-43866666D02*
X187564228Y-43914285D01*
X187564228Y-43914285D02*
X187611847Y-44009523D01*
X187611847Y-44009523D02*
X187611847Y-44152380D01*
X187611847Y-44152380D02*
X187564228Y-44247618D01*
X187564228Y-44247618D02*
X187516609Y-44295237D01*
X187516609Y-44295237D02*
X187421371Y-44342856D01*
X187421371Y-44342856D02*
X187135657Y-44342856D01*
X187135657Y-44342856D02*
X187040419Y-44295237D01*
X187040419Y-44295237D02*
X186992800Y-44247618D01*
X186992800Y-44247618D02*
X186945180Y-44152380D01*
X186945180Y-44152380D02*
X186945180Y-44009523D01*
X186945180Y-44914285D02*
X186992800Y-44819047D01*
X186992800Y-44819047D02*
X187088038Y-44771428D01*
X187088038Y-44771428D02*
X187945180Y-44771428D01*
X187945180Y-46247619D02*
X187945180Y-46342857D01*
X187945180Y-46342857D02*
X187897561Y-46438095D01*
X187897561Y-46438095D02*
X187849942Y-46485714D01*
X187849942Y-46485714D02*
X187754704Y-46533333D01*
X187754704Y-46533333D02*
X187564228Y-46580952D01*
X187564228Y-46580952D02*
X187326133Y-46580952D01*
X187326133Y-46580952D02*
X187135657Y-46533333D01*
X187135657Y-46533333D02*
X187040419Y-46485714D01*
X187040419Y-46485714D02*
X186992800Y-46438095D01*
X186992800Y-46438095D02*
X186945180Y-46342857D01*
X186945180Y-46342857D02*
X186945180Y-46247619D01*
X186945180Y-46247619D02*
X186992800Y-46152381D01*
X186992800Y-46152381D02*
X187040419Y-46104762D01*
X187040419Y-46104762D02*
X187135657Y-46057143D01*
X187135657Y-46057143D02*
X187326133Y-46009524D01*
X187326133Y-46009524D02*
X187564228Y-46009524D01*
X187564228Y-46009524D02*
X187754704Y-46057143D01*
X187754704Y-46057143D02*
X187849942Y-46104762D01*
X187849942Y-46104762D02*
X187897561Y-46152381D01*
X187897561Y-46152381D02*
X187945180Y-46247619D01*
X187326133Y-47771429D02*
X187326133Y-48533334D01*
X187135657Y-48342857D02*
X187326133Y-48533334D01*
X187326133Y-48533334D02*
X187516609Y-48342857D01*
X186945180Y-57314283D02*
X186992800Y-57219045D01*
X186992800Y-57219045D02*
X187088038Y-57171426D01*
X187088038Y-57171426D02*
X187945180Y-57171426D01*
X186992800Y-58076188D02*
X186945180Y-57980950D01*
X186945180Y-57980950D02*
X186945180Y-57790474D01*
X186945180Y-57790474D02*
X186992800Y-57695236D01*
X186992800Y-57695236D02*
X187088038Y-57647617D01*
X187088038Y-57647617D02*
X187468990Y-57647617D01*
X187468990Y-57647617D02*
X187564228Y-57695236D01*
X187564228Y-57695236D02*
X187611847Y-57790474D01*
X187611847Y-57790474D02*
X187611847Y-57980950D01*
X187611847Y-57980950D02*
X187564228Y-58076188D01*
X187564228Y-58076188D02*
X187468990Y-58123807D01*
X187468990Y-58123807D02*
X187373752Y-58123807D01*
X187373752Y-58123807D02*
X187278514Y-57647617D01*
X187611847Y-58409522D02*
X187611847Y-58790474D01*
X186945180Y-58552379D02*
X187802323Y-58552379D01*
X187802323Y-58552379D02*
X187897561Y-58599998D01*
X187897561Y-58599998D02*
X187945180Y-58695236D01*
X187945180Y-58695236D02*
X187945180Y-58790474D01*
X187611847Y-58980951D02*
X187611847Y-59361903D01*
X187945180Y-59123808D02*
X187088038Y-59123808D01*
X187088038Y-59123808D02*
X186992800Y-59171427D01*
X186992800Y-59171427D02*
X186945180Y-59266665D01*
X186945180Y-59266665D02*
X186945180Y-59361903D01*
X186945180Y-59695237D02*
X187945180Y-59695237D01*
X187945180Y-59695237D02*
X187945180Y-60076189D01*
X187945180Y-60076189D02*
X187897561Y-60171427D01*
X187897561Y-60171427D02*
X187849942Y-60219046D01*
X187849942Y-60219046D02*
X187754704Y-60266665D01*
X187754704Y-60266665D02*
X187611847Y-60266665D01*
X187611847Y-60266665D02*
X187516609Y-60219046D01*
X187516609Y-60219046D02*
X187468990Y-60171427D01*
X187468990Y-60171427D02*
X187421371Y-60076189D01*
X187421371Y-60076189D02*
X187421371Y-59695237D01*
X186945180Y-60838094D02*
X186992800Y-60742856D01*
X186992800Y-60742856D02*
X187040419Y-60695237D01*
X187040419Y-60695237D02*
X187135657Y-60647618D01*
X187135657Y-60647618D02*
X187421371Y-60647618D01*
X187421371Y-60647618D02*
X187516609Y-60695237D01*
X187516609Y-60695237D02*
X187564228Y-60742856D01*
X187564228Y-60742856D02*
X187611847Y-60838094D01*
X187611847Y-60838094D02*
X187611847Y-60980951D01*
X187611847Y-60980951D02*
X187564228Y-61076189D01*
X187564228Y-61076189D02*
X187516609Y-61123808D01*
X187516609Y-61123808D02*
X187421371Y-61171427D01*
X187421371Y-61171427D02*
X187135657Y-61171427D01*
X187135657Y-61171427D02*
X187040419Y-61123808D01*
X187040419Y-61123808D02*
X186992800Y-61076189D01*
X186992800Y-61076189D02*
X186945180Y-60980951D01*
X186945180Y-60980951D02*
X186945180Y-60838094D01*
X186945180Y-61599999D02*
X187611847Y-61599999D01*
X187945180Y-61599999D02*
X187897561Y-61552380D01*
X187897561Y-61552380D02*
X187849942Y-61599999D01*
X187849942Y-61599999D02*
X187897561Y-61647618D01*
X187897561Y-61647618D02*
X187945180Y-61599999D01*
X187945180Y-61599999D02*
X187849942Y-61599999D01*
X187611847Y-62076189D02*
X186945180Y-62076189D01*
X187516609Y-62076189D02*
X187564228Y-62123808D01*
X187564228Y-62123808D02*
X187611847Y-62219046D01*
X187611847Y-62219046D02*
X187611847Y-62361903D01*
X187611847Y-62361903D02*
X187564228Y-62457141D01*
X187564228Y-62457141D02*
X187468990Y-62504760D01*
X187468990Y-62504760D02*
X186945180Y-62504760D01*
X187611847Y-62838094D02*
X187611847Y-63219046D01*
X187945180Y-62980951D02*
X187088038Y-62980951D01*
X187088038Y-62980951D02*
X186992800Y-63028570D01*
X186992800Y-63028570D02*
X186945180Y-63123808D01*
X186945180Y-63123808D02*
X186945180Y-63219046D01*
X186992800Y-63933332D02*
X186945180Y-63838094D01*
X186945180Y-63838094D02*
X186945180Y-63647618D01*
X186945180Y-63647618D02*
X186992800Y-63552380D01*
X186992800Y-63552380D02*
X187088038Y-63504761D01*
X187088038Y-63504761D02*
X187468990Y-63504761D01*
X187468990Y-63504761D02*
X187564228Y-63552380D01*
X187564228Y-63552380D02*
X187611847Y-63647618D01*
X187611847Y-63647618D02*
X187611847Y-63838094D01*
X187611847Y-63838094D02*
X187564228Y-63933332D01*
X187564228Y-63933332D02*
X187468990Y-63980951D01*
X187468990Y-63980951D02*
X187373752Y-63980951D01*
X187373752Y-63980951D02*
X187278514Y-63504761D01*
X186945180Y-64409523D02*
X187611847Y-64409523D01*
X187421371Y-64409523D02*
X187516609Y-64457142D01*
X187516609Y-64457142D02*
X187564228Y-64504761D01*
X187564228Y-64504761D02*
X187611847Y-64599999D01*
X187611847Y-64599999D02*
X187611847Y-64695237D01*
X187945180Y-64885714D02*
X187945180Y-65457142D01*
X186945180Y-65171428D02*
X187945180Y-65171428D01*
X186945180Y-65790476D02*
X187945180Y-65790476D01*
X186945180Y-66219047D02*
X187468990Y-66219047D01*
X187468990Y-66219047D02*
X187564228Y-66171428D01*
X187564228Y-66171428D02*
X187611847Y-66076190D01*
X187611847Y-66076190D02*
X187611847Y-65933333D01*
X187611847Y-65933333D02*
X187564228Y-65838095D01*
X187564228Y-65838095D02*
X187516609Y-65790476D01*
X187611847Y-67123809D02*
X186945180Y-67123809D01*
X187611847Y-66695238D02*
X187088038Y-66695238D01*
X187088038Y-66695238D02*
X186992800Y-66742857D01*
X186992800Y-66742857D02*
X186945180Y-66838095D01*
X186945180Y-66838095D02*
X186945180Y-66980952D01*
X186945180Y-66980952D02*
X186992800Y-67076190D01*
X186992800Y-67076190D02*
X187040419Y-67123809D01*
X186945180Y-67600000D02*
X187611847Y-67600000D01*
X187516609Y-67600000D02*
X187564228Y-67647619D01*
X187564228Y-67647619D02*
X187611847Y-67742857D01*
X187611847Y-67742857D02*
X187611847Y-67885714D01*
X187611847Y-67885714D02*
X187564228Y-67980952D01*
X187564228Y-67980952D02*
X187468990Y-68028571D01*
X187468990Y-68028571D02*
X186945180Y-68028571D01*
X187468990Y-68028571D02*
X187564228Y-68076190D01*
X187564228Y-68076190D02*
X187611847Y-68171428D01*
X187611847Y-68171428D02*
X187611847Y-68314285D01*
X187611847Y-68314285D02*
X187564228Y-68409524D01*
X187564228Y-68409524D02*
X187468990Y-68457143D01*
X187468990Y-68457143D02*
X186945180Y-68457143D01*
X186945180Y-68933333D02*
X187945180Y-68933333D01*
X187564228Y-68933333D02*
X187611847Y-69028571D01*
X187611847Y-69028571D02*
X187611847Y-69219047D01*
X187611847Y-69219047D02*
X187564228Y-69314285D01*
X187564228Y-69314285D02*
X187516609Y-69361904D01*
X187516609Y-69361904D02*
X187421371Y-69409523D01*
X187421371Y-69409523D02*
X187135657Y-69409523D01*
X187135657Y-69409523D02*
X187040419Y-69361904D01*
X187040419Y-69361904D02*
X186992800Y-69314285D01*
X186992800Y-69314285D02*
X186945180Y-69219047D01*
X186945180Y-69219047D02*
X186945180Y-69028571D01*
X186945180Y-69028571D02*
X186992800Y-68933333D01*
X187468990Y-70171428D02*
X187421371Y-70314285D01*
X187421371Y-70314285D02*
X187373752Y-70361904D01*
X187373752Y-70361904D02*
X187278514Y-70409523D01*
X187278514Y-70409523D02*
X187135657Y-70409523D01*
X187135657Y-70409523D02*
X187040419Y-70361904D01*
X187040419Y-70361904D02*
X186992800Y-70314285D01*
X186992800Y-70314285D02*
X186945180Y-70219047D01*
X186945180Y-70219047D02*
X186945180Y-69838095D01*
X186945180Y-69838095D02*
X187945180Y-69838095D01*
X187945180Y-69838095D02*
X187945180Y-70171428D01*
X187945180Y-70171428D02*
X187897561Y-70266666D01*
X187897561Y-70266666D02*
X187849942Y-70314285D01*
X187849942Y-70314285D02*
X187754704Y-70361904D01*
X187754704Y-70361904D02*
X187659466Y-70361904D01*
X187659466Y-70361904D02*
X187564228Y-70314285D01*
X187564228Y-70314285D02*
X187516609Y-70266666D01*
X187516609Y-70266666D02*
X187468990Y-70171428D01*
X187468990Y-70171428D02*
X187468990Y-69838095D01*
X186945180Y-70838095D02*
X187611847Y-70838095D01*
X187421371Y-70838095D02*
X187516609Y-70885714D01*
X187516609Y-70885714D02*
X187564228Y-70933333D01*
X187564228Y-70933333D02*
X187611847Y-71028571D01*
X187611847Y-71028571D02*
X187611847Y-71123809D01*
X186992800Y-71838095D02*
X186945180Y-71742857D01*
X186945180Y-71742857D02*
X186945180Y-71552381D01*
X186945180Y-71552381D02*
X186992800Y-71457143D01*
X186992800Y-71457143D02*
X187088038Y-71409524D01*
X187088038Y-71409524D02*
X187468990Y-71409524D01*
X187468990Y-71409524D02*
X187564228Y-71457143D01*
X187564228Y-71457143D02*
X187611847Y-71552381D01*
X187611847Y-71552381D02*
X187611847Y-71742857D01*
X187611847Y-71742857D02*
X187564228Y-71838095D01*
X187564228Y-71838095D02*
X187468990Y-71885714D01*
X187468990Y-71885714D02*
X187373752Y-71885714D01*
X187373752Y-71885714D02*
X187278514Y-71409524D01*
X186945180Y-72742857D02*
X187468990Y-72742857D01*
X187468990Y-72742857D02*
X187564228Y-72695238D01*
X187564228Y-72695238D02*
X187611847Y-72600000D01*
X187611847Y-72600000D02*
X187611847Y-72409524D01*
X187611847Y-72409524D02*
X187564228Y-72314286D01*
X186992800Y-72742857D02*
X186945180Y-72647619D01*
X186945180Y-72647619D02*
X186945180Y-72409524D01*
X186945180Y-72409524D02*
X186992800Y-72314286D01*
X186992800Y-72314286D02*
X187088038Y-72266667D01*
X187088038Y-72266667D02*
X187183276Y-72266667D01*
X187183276Y-72266667D02*
X187278514Y-72314286D01*
X187278514Y-72314286D02*
X187326133Y-72409524D01*
X187326133Y-72409524D02*
X187326133Y-72647619D01*
X187326133Y-72647619D02*
X187373752Y-72742857D01*
X186945180Y-73219048D02*
X187945180Y-73219048D01*
X187326133Y-73314286D02*
X186945180Y-73600000D01*
X187611847Y-73600000D02*
X187230895Y-73219048D01*
X186945180Y-74171429D02*
X186992800Y-74076191D01*
X186992800Y-74076191D02*
X187040419Y-74028572D01*
X187040419Y-74028572D02*
X187135657Y-73980953D01*
X187135657Y-73980953D02*
X187421371Y-73980953D01*
X187421371Y-73980953D02*
X187516609Y-74028572D01*
X187516609Y-74028572D02*
X187564228Y-74076191D01*
X187564228Y-74076191D02*
X187611847Y-74171429D01*
X187611847Y-74171429D02*
X187611847Y-74314286D01*
X187611847Y-74314286D02*
X187564228Y-74409524D01*
X187564228Y-74409524D02*
X187516609Y-74457143D01*
X187516609Y-74457143D02*
X187421371Y-74504762D01*
X187421371Y-74504762D02*
X187135657Y-74504762D01*
X187135657Y-74504762D02*
X187040419Y-74457143D01*
X187040419Y-74457143D02*
X186992800Y-74409524D01*
X186992800Y-74409524D02*
X186945180Y-74314286D01*
X186945180Y-74314286D02*
X186945180Y-74171429D01*
X187611847Y-75361905D02*
X186945180Y-75361905D01*
X187611847Y-74933334D02*
X187088038Y-74933334D01*
X187088038Y-74933334D02*
X186992800Y-74980953D01*
X186992800Y-74980953D02*
X186945180Y-75076191D01*
X186945180Y-75076191D02*
X186945180Y-75219048D01*
X186945180Y-75219048D02*
X186992800Y-75314286D01*
X186992800Y-75314286D02*
X187040419Y-75361905D01*
X187611847Y-75695239D02*
X187611847Y-76076191D01*
X187945180Y-75838096D02*
X187088038Y-75838096D01*
X187088038Y-75838096D02*
X186992800Y-75885715D01*
X186992800Y-75885715D02*
X186945180Y-75980953D01*
X186945180Y-75980953D02*
X186945180Y-76076191D01*
X186945180Y-77742858D02*
X187421371Y-77409525D01*
X186945180Y-77171430D02*
X187945180Y-77171430D01*
X187945180Y-77171430D02*
X187945180Y-77552382D01*
X187945180Y-77552382D02*
X187897561Y-77647620D01*
X187897561Y-77647620D02*
X187849942Y-77695239D01*
X187849942Y-77695239D02*
X187754704Y-77742858D01*
X187754704Y-77742858D02*
X187611847Y-77742858D01*
X187611847Y-77742858D02*
X187516609Y-77695239D01*
X187516609Y-77695239D02*
X187468990Y-77647620D01*
X187468990Y-77647620D02*
X187421371Y-77552382D01*
X187421371Y-77552382D02*
X187421371Y-77171430D01*
X186992800Y-78552382D02*
X186945180Y-78457144D01*
X186945180Y-78457144D02*
X186945180Y-78266668D01*
X186945180Y-78266668D02*
X186992800Y-78171430D01*
X186992800Y-78171430D02*
X187088038Y-78123811D01*
X187088038Y-78123811D02*
X187468990Y-78123811D01*
X187468990Y-78123811D02*
X187564228Y-78171430D01*
X187564228Y-78171430D02*
X187611847Y-78266668D01*
X187611847Y-78266668D02*
X187611847Y-78457144D01*
X187611847Y-78457144D02*
X187564228Y-78552382D01*
X187564228Y-78552382D02*
X187468990Y-78600001D01*
X187468990Y-78600001D02*
X187373752Y-78600001D01*
X187373752Y-78600001D02*
X187278514Y-78123811D01*
X187611847Y-78933335D02*
X186945180Y-79171430D01*
X186945180Y-79171430D02*
X187611847Y-79409525D01*
X186945180Y-81076192D02*
X186945180Y-80504764D01*
X186945180Y-80790478D02*
X187945180Y-80790478D01*
X187945180Y-80790478D02*
X187802323Y-80695240D01*
X187802323Y-80695240D02*
X187707085Y-80600002D01*
X187707085Y-80600002D02*
X187659466Y-80504764D01*
X183216666Y-50754819D02*
X183216666Y-51469104D01*
X183216666Y-51469104D02*
X183169047Y-51611961D01*
X183169047Y-51611961D02*
X183073809Y-51707200D01*
X183073809Y-51707200D02*
X182930952Y-51754819D01*
X182930952Y-51754819D02*
X182835714Y-51754819D01*
X183597619Y-50754819D02*
X184216666Y-50754819D01*
X184216666Y-50754819D02*
X183883333Y-51135771D01*
X183883333Y-51135771D02*
X184026190Y-51135771D01*
X184026190Y-51135771D02*
X184121428Y-51183390D01*
X184121428Y-51183390D02*
X184169047Y-51231009D01*
X184169047Y-51231009D02*
X184216666Y-51326247D01*
X184216666Y-51326247D02*
X184216666Y-51564342D01*
X184216666Y-51564342D02*
X184169047Y-51659580D01*
X184169047Y-51659580D02*
X184121428Y-51707200D01*
X184121428Y-51707200D02*
X184026190Y-51754819D01*
X184026190Y-51754819D02*
X183740476Y-51754819D01*
X183740476Y-51754819D02*
X183645238Y-51707200D01*
X183645238Y-51707200D02*
X183597619Y-51659580D01*
X184216666Y-42754819D02*
X184216666Y-43469104D01*
X184216666Y-43469104D02*
X184169047Y-43611961D01*
X184169047Y-43611961D02*
X184073809Y-43707200D01*
X184073809Y-43707200D02*
X183930952Y-43754819D01*
X183930952Y-43754819D02*
X183835714Y-43754819D01*
X184645238Y-42850057D02*
X184692857Y-42802438D01*
X184692857Y-42802438D02*
X184788095Y-42754819D01*
X184788095Y-42754819D02*
X185026190Y-42754819D01*
X185026190Y-42754819D02*
X185121428Y-42802438D01*
X185121428Y-42802438D02*
X185169047Y-42850057D01*
X185169047Y-42850057D02*
X185216666Y-42945295D01*
X185216666Y-42945295D02*
X185216666Y-43040533D01*
X185216666Y-43040533D02*
X185169047Y-43183390D01*
X185169047Y-43183390D02*
X184597619Y-43754819D01*
X184597619Y-43754819D02*
X185216666Y-43754819D01*
X155140477Y-78054819D02*
X155140477Y-78769104D01*
X155140477Y-78769104D02*
X155092858Y-78911961D01*
X155092858Y-78911961D02*
X154997620Y-79007200D01*
X154997620Y-79007200D02*
X154854763Y-79054819D01*
X154854763Y-79054819D02*
X154759525Y-79054819D01*
X156140477Y-79054819D02*
X155569049Y-79054819D01*
X155854763Y-79054819D02*
X155854763Y-78054819D01*
X155854763Y-78054819D02*
X155759525Y-78197676D01*
X155759525Y-78197676D02*
X155664287Y-78292914D01*
X155664287Y-78292914D02*
X155569049Y-78340533D01*
X157045239Y-78054819D02*
X156569049Y-78054819D01*
X156569049Y-78054819D02*
X156521430Y-78531009D01*
X156521430Y-78531009D02*
X156569049Y-78483390D01*
X156569049Y-78483390D02*
X156664287Y-78435771D01*
X156664287Y-78435771D02*
X156902382Y-78435771D01*
X156902382Y-78435771D02*
X156997620Y-78483390D01*
X156997620Y-78483390D02*
X157045239Y-78531009D01*
X157045239Y-78531009D02*
X157092858Y-78626247D01*
X157092858Y-78626247D02*
X157092858Y-78864342D01*
X157092858Y-78864342D02*
X157045239Y-78959580D01*
X157045239Y-78959580D02*
X156997620Y-79007200D01*
X156997620Y-79007200D02*
X156902382Y-79054819D01*
X156902382Y-79054819D02*
X156664287Y-79054819D01*
X156664287Y-79054819D02*
X156569049Y-79007200D01*
X156569049Y-79007200D02*
X156521430Y-78959580D01*
X156140477Y-42754819D02*
X156140477Y-43469104D01*
X156140477Y-43469104D02*
X156092858Y-43611961D01*
X156092858Y-43611961D02*
X155997620Y-43707200D01*
X155997620Y-43707200D02*
X155854763Y-43754819D01*
X155854763Y-43754819D02*
X155759525Y-43754819D01*
X157140477Y-43754819D02*
X156569049Y-43754819D01*
X156854763Y-43754819D02*
X156854763Y-42754819D01*
X156854763Y-42754819D02*
X156759525Y-42897676D01*
X156759525Y-42897676D02*
X156664287Y-42992914D01*
X156664287Y-42992914D02*
X156569049Y-43040533D01*
X157521430Y-42850057D02*
X157569049Y-42802438D01*
X157569049Y-42802438D02*
X157664287Y-42754819D01*
X157664287Y-42754819D02*
X157902382Y-42754819D01*
X157902382Y-42754819D02*
X157997620Y-42802438D01*
X157997620Y-42802438D02*
X158045239Y-42850057D01*
X158045239Y-42850057D02*
X158092858Y-42945295D01*
X158092858Y-42945295D02*
X158092858Y-43040533D01*
X158092858Y-43040533D02*
X158045239Y-43183390D01*
X158045239Y-43183390D02*
X157473811Y-43754819D01*
X157473811Y-43754819D02*
X158092858Y-43754819D01*
X183216666Y-68954819D02*
X183216666Y-69669104D01*
X183216666Y-69669104D02*
X183169047Y-69811961D01*
X183169047Y-69811961D02*
X183073809Y-69907200D01*
X183073809Y-69907200D02*
X182930952Y-69954819D01*
X182930952Y-69954819D02*
X182835714Y-69954819D01*
X184169047Y-68954819D02*
X183692857Y-68954819D01*
X183692857Y-68954819D02*
X183645238Y-69431009D01*
X183645238Y-69431009D02*
X183692857Y-69383390D01*
X183692857Y-69383390D02*
X183788095Y-69335771D01*
X183788095Y-69335771D02*
X184026190Y-69335771D01*
X184026190Y-69335771D02*
X184121428Y-69383390D01*
X184121428Y-69383390D02*
X184169047Y-69431009D01*
X184169047Y-69431009D02*
X184216666Y-69526247D01*
X184216666Y-69526247D02*
X184216666Y-69764342D01*
X184216666Y-69764342D02*
X184169047Y-69859580D01*
X184169047Y-69859580D02*
X184121428Y-69907200D01*
X184121428Y-69907200D02*
X184026190Y-69954819D01*
X184026190Y-69954819D02*
X183788095Y-69954819D01*
X183788095Y-69954819D02*
X183692857Y-69907200D01*
X183692857Y-69907200D02*
X183645238Y-69859580D01*
X155140477Y-59854819D02*
X155140477Y-60569104D01*
X155140477Y-60569104D02*
X155092858Y-60711961D01*
X155092858Y-60711961D02*
X154997620Y-60807200D01*
X154997620Y-60807200D02*
X154854763Y-60854819D01*
X154854763Y-60854819D02*
X154759525Y-60854819D01*
X156140477Y-60854819D02*
X155569049Y-60854819D01*
X155854763Y-60854819D02*
X155854763Y-59854819D01*
X155854763Y-59854819D02*
X155759525Y-59997676D01*
X155759525Y-59997676D02*
X155664287Y-60092914D01*
X155664287Y-60092914D02*
X155569049Y-60140533D01*
X156473811Y-59854819D02*
X157140477Y-59854819D01*
X157140477Y-59854819D02*
X156711906Y-60854819D01*
X168940476Y-78054819D02*
X168940476Y-78769104D01*
X168940476Y-78769104D02*
X168892857Y-78911961D01*
X168892857Y-78911961D02*
X168797619Y-79007200D01*
X168797619Y-79007200D02*
X168654762Y-79054819D01*
X168654762Y-79054819D02*
X168559524Y-79054819D01*
X169940476Y-79054819D02*
X169369048Y-79054819D01*
X169654762Y-79054819D02*
X169654762Y-78054819D01*
X169654762Y-78054819D02*
X169559524Y-78197676D01*
X169559524Y-78197676D02*
X169464286Y-78292914D01*
X169464286Y-78292914D02*
X169369048Y-78340533D01*
X170892857Y-79054819D02*
X170321429Y-79054819D01*
X170607143Y-79054819D02*
X170607143Y-78054819D01*
X170607143Y-78054819D02*
X170511905Y-78197676D01*
X170511905Y-78197676D02*
X170416667Y-78292914D01*
X170416667Y-78292914D02*
X170321429Y-78340533D01*
X155140477Y-87154819D02*
X155140477Y-87869104D01*
X155140477Y-87869104D02*
X155092858Y-88011961D01*
X155092858Y-88011961D02*
X154997620Y-88107200D01*
X154997620Y-88107200D02*
X154854763Y-88154819D01*
X154854763Y-88154819D02*
X154759525Y-88154819D01*
X156140477Y-88154819D02*
X155569049Y-88154819D01*
X155854763Y-88154819D02*
X155854763Y-87154819D01*
X155854763Y-87154819D02*
X155759525Y-87297676D01*
X155759525Y-87297676D02*
X155664287Y-87392914D01*
X155664287Y-87392914D02*
X155569049Y-87440533D01*
X156997620Y-87488152D02*
X156997620Y-88154819D01*
X156759525Y-87107200D02*
X156521430Y-87821485D01*
X156521430Y-87821485D02*
X157140477Y-87821485D01*
X155140477Y-50754819D02*
X155140477Y-51469104D01*
X155140477Y-51469104D02*
X155092858Y-51611961D01*
X155092858Y-51611961D02*
X154997620Y-51707200D01*
X154997620Y-51707200D02*
X154854763Y-51754819D01*
X154854763Y-51754819D02*
X154759525Y-51754819D01*
X156140477Y-51754819D02*
X155569049Y-51754819D01*
X155854763Y-51754819D02*
X155854763Y-50754819D01*
X155854763Y-50754819D02*
X155759525Y-50897676D01*
X155759525Y-50897676D02*
X155664287Y-50992914D01*
X155664287Y-50992914D02*
X155569049Y-51040533D01*
X156473811Y-50754819D02*
X157092858Y-50754819D01*
X157092858Y-50754819D02*
X156759525Y-51135771D01*
X156759525Y-51135771D02*
X156902382Y-51135771D01*
X156902382Y-51135771D02*
X156997620Y-51183390D01*
X156997620Y-51183390D02*
X157045239Y-51231009D01*
X157045239Y-51231009D02*
X157092858Y-51326247D01*
X157092858Y-51326247D02*
X157092858Y-51564342D01*
X157092858Y-51564342D02*
X157045239Y-51659580D01*
X157045239Y-51659580D02*
X156997620Y-51707200D01*
X156997620Y-51707200D02*
X156902382Y-51754819D01*
X156902382Y-51754819D02*
X156616668Y-51754819D01*
X156616668Y-51754819D02*
X156521430Y-51707200D01*
X156521430Y-51707200D02*
X156473811Y-51659580D01*
X169416666Y-50754819D02*
X169416666Y-51469104D01*
X169416666Y-51469104D02*
X169369047Y-51611961D01*
X169369047Y-51611961D02*
X169273809Y-51707200D01*
X169273809Y-51707200D02*
X169130952Y-51754819D01*
X169130952Y-51754819D02*
X169035714Y-51754819D01*
X170035714Y-51183390D02*
X169940476Y-51135771D01*
X169940476Y-51135771D02*
X169892857Y-51088152D01*
X169892857Y-51088152D02*
X169845238Y-50992914D01*
X169845238Y-50992914D02*
X169845238Y-50945295D01*
X169845238Y-50945295D02*
X169892857Y-50850057D01*
X169892857Y-50850057D02*
X169940476Y-50802438D01*
X169940476Y-50802438D02*
X170035714Y-50754819D01*
X170035714Y-50754819D02*
X170226190Y-50754819D01*
X170226190Y-50754819D02*
X170321428Y-50802438D01*
X170321428Y-50802438D02*
X170369047Y-50850057D01*
X170369047Y-50850057D02*
X170416666Y-50945295D01*
X170416666Y-50945295D02*
X170416666Y-50992914D01*
X170416666Y-50992914D02*
X170369047Y-51088152D01*
X170369047Y-51088152D02*
X170321428Y-51135771D01*
X170321428Y-51135771D02*
X170226190Y-51183390D01*
X170226190Y-51183390D02*
X170035714Y-51183390D01*
X170035714Y-51183390D02*
X169940476Y-51231009D01*
X169940476Y-51231009D02*
X169892857Y-51278628D01*
X169892857Y-51278628D02*
X169845238Y-51373866D01*
X169845238Y-51373866D02*
X169845238Y-51564342D01*
X169845238Y-51564342D02*
X169892857Y-51659580D01*
X169892857Y-51659580D02*
X169940476Y-51707200D01*
X169940476Y-51707200D02*
X170035714Y-51754819D01*
X170035714Y-51754819D02*
X170226190Y-51754819D01*
X170226190Y-51754819D02*
X170321428Y-51707200D01*
X170321428Y-51707200D02*
X170369047Y-51659580D01*
X170369047Y-51659580D02*
X170416666Y-51564342D01*
X170416666Y-51564342D02*
X170416666Y-51373866D01*
X170416666Y-51373866D02*
X170369047Y-51278628D01*
X170369047Y-51278628D02*
X170321428Y-51231009D01*
X170321428Y-51231009D02*
X170226190Y-51183390D01*
X168940476Y-68954819D02*
X168940476Y-69669104D01*
X168940476Y-69669104D02*
X168892857Y-69811961D01*
X168892857Y-69811961D02*
X168797619Y-69907200D01*
X168797619Y-69907200D02*
X168654762Y-69954819D01*
X168654762Y-69954819D02*
X168559524Y-69954819D01*
X169940476Y-69954819D02*
X169369048Y-69954819D01*
X169654762Y-69954819D02*
X169654762Y-68954819D01*
X169654762Y-68954819D02*
X169559524Y-69097676D01*
X169559524Y-69097676D02*
X169464286Y-69192914D01*
X169464286Y-69192914D02*
X169369048Y-69240533D01*
X170559524Y-68954819D02*
X170654762Y-68954819D01*
X170654762Y-68954819D02*
X170750000Y-69002438D01*
X170750000Y-69002438D02*
X170797619Y-69050057D01*
X170797619Y-69050057D02*
X170845238Y-69145295D01*
X170845238Y-69145295D02*
X170892857Y-69335771D01*
X170892857Y-69335771D02*
X170892857Y-69573866D01*
X170892857Y-69573866D02*
X170845238Y-69764342D01*
X170845238Y-69764342D02*
X170797619Y-69859580D01*
X170797619Y-69859580D02*
X170750000Y-69907200D01*
X170750000Y-69907200D02*
X170654762Y-69954819D01*
X170654762Y-69954819D02*
X170559524Y-69954819D01*
X170559524Y-69954819D02*
X170464286Y-69907200D01*
X170464286Y-69907200D02*
X170416667Y-69859580D01*
X170416667Y-69859580D02*
X170369048Y-69764342D01*
X170369048Y-69764342D02*
X170321429Y-69573866D01*
X170321429Y-69573866D02*
X170321429Y-69335771D01*
X170321429Y-69335771D02*
X170369048Y-69145295D01*
X170369048Y-69145295D02*
X170416667Y-69050057D01*
X170416667Y-69050057D02*
X170464286Y-69002438D01*
X170464286Y-69002438D02*
X170559524Y-68954819D01*
X169416666Y-59854819D02*
X169416666Y-60569104D01*
X169416666Y-60569104D02*
X169369047Y-60711961D01*
X169369047Y-60711961D02*
X169273809Y-60807200D01*
X169273809Y-60807200D02*
X169130952Y-60854819D01*
X169130952Y-60854819D02*
X169035714Y-60854819D01*
X169940476Y-60854819D02*
X170130952Y-60854819D01*
X170130952Y-60854819D02*
X170226190Y-60807200D01*
X170226190Y-60807200D02*
X170273809Y-60759580D01*
X170273809Y-60759580D02*
X170369047Y-60616723D01*
X170369047Y-60616723D02*
X170416666Y-60426247D01*
X170416666Y-60426247D02*
X170416666Y-60045295D01*
X170416666Y-60045295D02*
X170369047Y-59950057D01*
X170369047Y-59950057D02*
X170321428Y-59902438D01*
X170321428Y-59902438D02*
X170226190Y-59854819D01*
X170226190Y-59854819D02*
X170035714Y-59854819D01*
X170035714Y-59854819D02*
X169940476Y-59902438D01*
X169940476Y-59902438D02*
X169892857Y-59950057D01*
X169892857Y-59950057D02*
X169845238Y-60045295D01*
X169845238Y-60045295D02*
X169845238Y-60283390D01*
X169845238Y-60283390D02*
X169892857Y-60378628D01*
X169892857Y-60378628D02*
X169940476Y-60426247D01*
X169940476Y-60426247D02*
X170035714Y-60473866D01*
X170035714Y-60473866D02*
X170226190Y-60473866D01*
X170226190Y-60473866D02*
X170321428Y-60426247D01*
X170321428Y-60426247D02*
X170369047Y-60378628D01*
X170369047Y-60378628D02*
X170416666Y-60283390D01*
X155140477Y-68954819D02*
X155140477Y-69669104D01*
X155140477Y-69669104D02*
X155092858Y-69811961D01*
X155092858Y-69811961D02*
X154997620Y-69907200D01*
X154997620Y-69907200D02*
X154854763Y-69954819D01*
X154854763Y-69954819D02*
X154759525Y-69954819D01*
X156140477Y-69954819D02*
X155569049Y-69954819D01*
X155854763Y-69954819D02*
X155854763Y-68954819D01*
X155854763Y-68954819D02*
X155759525Y-69097676D01*
X155759525Y-69097676D02*
X155664287Y-69192914D01*
X155664287Y-69192914D02*
X155569049Y-69240533D01*
X156997620Y-68954819D02*
X156807144Y-68954819D01*
X156807144Y-68954819D02*
X156711906Y-69002438D01*
X156711906Y-69002438D02*
X156664287Y-69050057D01*
X156664287Y-69050057D02*
X156569049Y-69192914D01*
X156569049Y-69192914D02*
X156521430Y-69383390D01*
X156521430Y-69383390D02*
X156521430Y-69764342D01*
X156521430Y-69764342D02*
X156569049Y-69859580D01*
X156569049Y-69859580D02*
X156616668Y-69907200D01*
X156616668Y-69907200D02*
X156711906Y-69954819D01*
X156711906Y-69954819D02*
X156902382Y-69954819D01*
X156902382Y-69954819D02*
X156997620Y-69907200D01*
X156997620Y-69907200D02*
X157045239Y-69859580D01*
X157045239Y-69859580D02*
X157092858Y-69764342D01*
X157092858Y-69764342D02*
X157092858Y-69526247D01*
X157092858Y-69526247D02*
X157045239Y-69431009D01*
X157045239Y-69431009D02*
X156997620Y-69383390D01*
X156997620Y-69383390D02*
X156902382Y-69335771D01*
X156902382Y-69335771D02*
X156711906Y-69335771D01*
X156711906Y-69335771D02*
X156616668Y-69383390D01*
X156616668Y-69383390D02*
X156569049Y-69431009D01*
X156569049Y-69431009D02*
X156521430Y-69526247D01*
X165616666Y-96554819D02*
X165616666Y-97269104D01*
X165616666Y-97269104D02*
X165569047Y-97411961D01*
X165569047Y-97411961D02*
X165473809Y-97507200D01*
X165473809Y-97507200D02*
X165330952Y-97554819D01*
X165330952Y-97554819D02*
X165235714Y-97554819D01*
X166616666Y-97554819D02*
X166045238Y-97554819D01*
X166330952Y-97554819D02*
X166330952Y-96554819D01*
X166330952Y-96554819D02*
X166235714Y-96697676D01*
X166235714Y-96697676D02*
X166140476Y-96792914D01*
X166140476Y-96792914D02*
X166045238Y-96840533D01*
X183216666Y-59854819D02*
X183216666Y-60569104D01*
X183216666Y-60569104D02*
X183169047Y-60711961D01*
X183169047Y-60711961D02*
X183073809Y-60807200D01*
X183073809Y-60807200D02*
X182930952Y-60854819D01*
X182930952Y-60854819D02*
X182835714Y-60854819D01*
X184121428Y-60188152D02*
X184121428Y-60854819D01*
X183883333Y-59807200D02*
X183645238Y-60521485D01*
X183645238Y-60521485D02*
X184264285Y-60521485D01*
X183216666Y-87154819D02*
X183216666Y-87869104D01*
X183216666Y-87869104D02*
X183169047Y-88011961D01*
X183169047Y-88011961D02*
X183073809Y-88107200D01*
X183073809Y-88107200D02*
X182930952Y-88154819D01*
X182930952Y-88154819D02*
X182835714Y-88154819D01*
X183597619Y-87154819D02*
X184264285Y-87154819D01*
X184264285Y-87154819D02*
X183835714Y-88154819D01*
X183216666Y-78054819D02*
X183216666Y-78769104D01*
X183216666Y-78769104D02*
X183169047Y-78911961D01*
X183169047Y-78911961D02*
X183073809Y-79007200D01*
X183073809Y-79007200D02*
X182930952Y-79054819D01*
X182930952Y-79054819D02*
X182835714Y-79054819D01*
X184121428Y-78054819D02*
X183930952Y-78054819D01*
X183930952Y-78054819D02*
X183835714Y-78102438D01*
X183835714Y-78102438D02*
X183788095Y-78150057D01*
X183788095Y-78150057D02*
X183692857Y-78292914D01*
X183692857Y-78292914D02*
X183645238Y-78483390D01*
X183645238Y-78483390D02*
X183645238Y-78864342D01*
X183645238Y-78864342D02*
X183692857Y-78959580D01*
X183692857Y-78959580D02*
X183740476Y-79007200D01*
X183740476Y-79007200D02*
X183835714Y-79054819D01*
X183835714Y-79054819D02*
X184026190Y-79054819D01*
X184026190Y-79054819D02*
X184121428Y-79007200D01*
X184121428Y-79007200D02*
X184169047Y-78959580D01*
X184169047Y-78959580D02*
X184216666Y-78864342D01*
X184216666Y-78864342D02*
X184216666Y-78626247D01*
X184216666Y-78626247D02*
X184169047Y-78531009D01*
X184169047Y-78531009D02*
X184121428Y-78483390D01*
X184121428Y-78483390D02*
X184026190Y-78435771D01*
X184026190Y-78435771D02*
X183835714Y-78435771D01*
X183835714Y-78435771D02*
X183740476Y-78483390D01*
X183740476Y-78483390D02*
X183692857Y-78531009D01*
X183692857Y-78531009D02*
X183645238Y-78626247D01*
D12*
%TO.C,J3*%
X177600000Y-53450000D02*
X177600000Y-54520000D01*
X177600000Y-56680000D02*
X177600000Y-58660000D01*
X177600000Y-58660000D02*
X185500000Y-58660000D01*
X179890000Y-53450000D02*
X177600000Y-53450000D01*
X185500000Y-53450000D02*
X183210000Y-53450000D01*
X185500000Y-54520000D02*
X185500000Y-53450000D01*
X185500000Y-58660000D02*
X185500000Y-56680000D01*
D13*
X177880000Y-52660000D02*
G75*
G02*
X177820000Y-52660000I-30000J0D01*
G01*
X177820000Y-52660000D02*
G75*
G02*
X177880000Y-52660000I30000J0D01*
G01*
D14*
D12*
%TO.C,J2*%
X177600000Y-44350000D02*
X177600000Y-45420000D01*
X177600000Y-47580000D02*
X177600000Y-49560000D01*
X177600000Y-49560000D02*
X185500000Y-49560000D01*
X179890000Y-44350000D02*
X177600000Y-44350000D01*
X185500000Y-44350000D02*
X183210000Y-44350000D01*
X185500000Y-45420000D02*
X185500000Y-44350000D01*
X185500000Y-49560000D02*
X185500000Y-47580000D01*
D13*
X177880000Y-43560000D02*
G75*
G02*
X177820000Y-43560000I-30000J0D01*
G01*
X177820000Y-43560000D02*
G75*
G02*
X177880000Y-43560000I30000J0D01*
G01*
D14*
D12*
%TO.C,J15*%
X150000001Y-80750000D02*
X150000001Y-81820000D01*
X150000001Y-83980000D02*
X150000001Y-85960000D01*
X150000001Y-85960000D02*
X157900001Y-85960000D01*
X152290001Y-80750000D02*
X150000001Y-80750000D01*
X157900001Y-80750000D02*
X155610001Y-80750000D01*
X157900001Y-81820000D02*
X157900001Y-80750000D01*
X157900001Y-85960000D02*
X157900001Y-83980000D01*
D13*
X150280001Y-79960000D02*
G75*
G02*
X150220001Y-79960000I-30000J0D01*
G01*
X150220001Y-79960000D02*
G75*
G02*
X150280001Y-79960000I30000J0D01*
G01*
D14*
D12*
%TO.C,J12*%
X150000001Y-44350000D02*
X150000001Y-45420000D01*
X150000001Y-47580000D02*
X150000001Y-49560000D01*
X150000001Y-49560000D02*
X157900001Y-49560000D01*
X152290001Y-44350000D02*
X150000001Y-44350000D01*
X157900001Y-44350000D02*
X155610001Y-44350000D01*
X157900001Y-45420000D02*
X157900001Y-44350000D01*
X157900001Y-49560000D02*
X157900001Y-47580000D01*
D13*
X150280001Y-43560000D02*
G75*
G02*
X150220001Y-43560000I-30000J0D01*
G01*
X150220001Y-43560000D02*
G75*
G02*
X150280001Y-43560000I30000J0D01*
G01*
D14*
D12*
%TO.C,J5*%
X177600000Y-71650000D02*
X177600000Y-72720000D01*
X177600000Y-74880000D02*
X177600000Y-76860000D01*
X177600000Y-76860000D02*
X185500000Y-76860000D01*
X179890000Y-71650000D02*
X177600000Y-71650000D01*
X185500000Y-71650000D02*
X183210000Y-71650000D01*
X185500000Y-72720000D02*
X185500000Y-71650000D01*
X185500000Y-76860000D02*
X185500000Y-74880000D01*
D13*
X177880000Y-70860000D02*
G75*
G02*
X177820000Y-70860000I-30000J0D01*
G01*
X177820000Y-70860000D02*
G75*
G02*
X177880000Y-70860000I30000J0D01*
G01*
D14*
D12*
%TO.C,J17*%
X150000001Y-62550000D02*
X150000001Y-63620000D01*
X150000001Y-65780000D02*
X150000001Y-67760000D01*
X150000001Y-67760000D02*
X157900001Y-67760000D01*
X152290001Y-62550000D02*
X150000001Y-62550000D01*
X157900001Y-62550000D02*
X155610001Y-62550000D01*
X157900001Y-63620000D02*
X157900001Y-62550000D01*
X157900001Y-67760000D02*
X157900001Y-65780000D01*
D13*
X150280001Y-61760000D02*
G75*
G02*
X150220001Y-61760000I-30000J0D01*
G01*
X150220001Y-61760000D02*
G75*
G02*
X150280001Y-61760000I30000J0D01*
G01*
D14*
D12*
%TO.C,J11*%
X163800000Y-80750000D02*
X163800000Y-81820000D01*
X163800000Y-83980000D02*
X163800000Y-85960000D01*
X163800000Y-85960000D02*
X171700000Y-85960000D01*
X166090000Y-80750000D02*
X163800000Y-80750000D01*
X171700000Y-80750000D02*
X169410000Y-80750000D01*
X171700000Y-81820000D02*
X171700000Y-80750000D01*
X171700000Y-85960000D02*
X171700000Y-83980000D01*
D13*
X164080000Y-79960000D02*
G75*
G02*
X164020000Y-79960000I-30000J0D01*
G01*
X164020000Y-79960000D02*
G75*
G02*
X164080000Y-79960000I30000J0D01*
G01*
D14*
D12*
%TO.C,J14*%
X150000001Y-89850000D02*
X150000001Y-90920000D01*
X150000001Y-93080000D02*
X150000001Y-95060000D01*
X150000001Y-95060000D02*
X157900001Y-95060000D01*
X152290001Y-89850000D02*
X150000001Y-89850000D01*
X157900001Y-89850000D02*
X155610001Y-89850000D01*
X157900001Y-90920000D02*
X157900001Y-89850000D01*
X157900001Y-95060000D02*
X157900001Y-93080000D01*
D13*
X150280001Y-89060000D02*
G75*
G02*
X150220001Y-89060000I-30000J0D01*
G01*
X150220001Y-89060000D02*
G75*
G02*
X150280001Y-89060000I30000J0D01*
G01*
D14*
D12*
%TO.C,J13*%
X150000001Y-53450000D02*
X150000001Y-54520000D01*
X150000001Y-56680000D02*
X150000001Y-58660000D01*
X150000001Y-58660000D02*
X157900001Y-58660000D01*
X152290001Y-53450000D02*
X150000001Y-53450000D01*
X157900001Y-53450000D02*
X155610001Y-53450000D01*
X157900001Y-54520000D02*
X157900001Y-53450000D01*
X157900001Y-58660000D02*
X157900001Y-56680000D01*
D13*
X150280001Y-52660000D02*
G75*
G02*
X150220001Y-52660000I-30000J0D01*
G01*
X150220001Y-52660000D02*
G75*
G02*
X150280001Y-52660000I30000J0D01*
G01*
D14*
D12*
%TO.C,J8*%
X163800000Y-53450000D02*
X163800000Y-54520000D01*
X163800000Y-56680000D02*
X163800000Y-58660000D01*
X163800000Y-58660000D02*
X171700000Y-58660000D01*
X166090000Y-53450000D02*
X163800000Y-53450000D01*
X171700000Y-53450000D02*
X169410000Y-53450000D01*
X171700000Y-54520000D02*
X171700000Y-53450000D01*
X171700000Y-58660000D02*
X171700000Y-56680000D01*
D13*
X164080000Y-52660000D02*
G75*
G02*
X164020000Y-52660000I-30000J0D01*
G01*
X164020000Y-52660000D02*
G75*
G02*
X164080000Y-52660000I30000J0D01*
G01*
D14*
D12*
%TO.C,J10*%
X163800000Y-71650000D02*
X163800000Y-72720000D01*
X163800000Y-74880000D02*
X163800000Y-76860000D01*
X163800000Y-76860000D02*
X171700000Y-76860000D01*
X166090000Y-71650000D02*
X163800000Y-71650000D01*
X171700000Y-71650000D02*
X169410000Y-71650000D01*
X171700000Y-72720000D02*
X171700000Y-71650000D01*
X171700000Y-76860000D02*
X171700000Y-74880000D01*
D13*
X164080000Y-70860000D02*
G75*
G02*
X164020000Y-70860000I-30000J0D01*
G01*
X164020000Y-70860000D02*
G75*
G02*
X164080000Y-70860000I30000J0D01*
G01*
D14*
D12*
%TO.C,J9*%
X163800000Y-62550000D02*
X163800000Y-63620000D01*
X163800000Y-65780000D02*
X163800000Y-67760000D01*
X163800000Y-67760000D02*
X171700000Y-67760000D01*
X166090000Y-62550000D02*
X163800000Y-62550000D01*
X171700000Y-62550000D02*
X169410000Y-62550000D01*
X171700000Y-63620000D02*
X171700000Y-62550000D01*
X171700000Y-67760000D02*
X171700000Y-65780000D01*
D13*
X164080000Y-61760000D02*
G75*
G02*
X164020000Y-61760000I-30000J0D01*
G01*
X164020000Y-61760000D02*
G75*
G02*
X164080000Y-61760000I30000J0D01*
G01*
D14*
D12*
%TO.C,J16*%
X150000001Y-71650000D02*
X150000001Y-72720000D01*
X150000001Y-74880000D02*
X150000001Y-76860000D01*
X150000001Y-76860000D02*
X157900001Y-76860000D01*
X152290001Y-71650000D02*
X150000001Y-71650000D01*
X157900001Y-71650000D02*
X155610001Y-71650000D01*
X157900001Y-72720000D02*
X157900001Y-71650000D01*
X157900001Y-76860000D02*
X157900001Y-74880000D01*
D13*
X150280001Y-70860000D02*
G75*
G02*
X150220001Y-70860000I-30000J0D01*
G01*
X150220001Y-70860000D02*
G75*
G02*
X150280001Y-70860000I30000J0D01*
G01*
D14*
D12*
%TO.C,J1*%
X155500000Y-98950000D02*
X155500000Y-100020000D01*
X155500000Y-102180000D02*
X155500000Y-104160000D01*
X155500000Y-104160000D02*
X167400000Y-104160000D01*
X157790000Y-98950000D02*
X155500000Y-98950000D01*
X167400000Y-98950000D02*
X165110000Y-98950000D01*
X167400000Y-100020000D02*
X167400000Y-98950000D01*
X167400000Y-104160000D02*
X167400000Y-102180000D01*
D13*
X155780000Y-98200000D02*
G75*
G02*
X155720000Y-98200000I-30000J0D01*
G01*
X155720000Y-98200000D02*
G75*
G02*
X155780000Y-98200000I30000J0D01*
G01*
D14*
D12*
%TO.C,J4*%
X177600000Y-62550000D02*
X177600000Y-63620000D01*
X177600000Y-65780000D02*
X177600000Y-67760000D01*
X177600000Y-67760000D02*
X185500000Y-67760000D01*
X179890000Y-62550000D02*
X177600000Y-62550000D01*
X185500000Y-62550000D02*
X183210000Y-62550000D01*
X185500000Y-63620000D02*
X185500000Y-62550000D01*
X185500000Y-67760000D02*
X185500000Y-65780000D01*
D13*
X177880000Y-61760000D02*
G75*
G02*
X177820000Y-61760000I-30000J0D01*
G01*
X177820000Y-61760000D02*
G75*
G02*
X177880000Y-61760000I30000J0D01*
G01*
D14*
D12*
%TO.C,J7*%
X177600000Y-89850000D02*
X177600000Y-90920000D01*
X177600000Y-93080000D02*
X177600000Y-95060000D01*
X177600000Y-95060000D02*
X185500000Y-95060000D01*
X179890000Y-89850000D02*
X177600000Y-89850000D01*
X185500000Y-89850000D02*
X183210000Y-89850000D01*
X185500000Y-90920000D02*
X185500000Y-89850000D01*
X185500000Y-95060000D02*
X185500000Y-93080000D01*
D13*
X177880000Y-89060000D02*
G75*
G02*
X177820000Y-89060000I-30000J0D01*
G01*
X177820000Y-89060000D02*
G75*
G02*
X177880000Y-89060000I30000J0D01*
G01*
D14*
D12*
%TO.C,J6*%
X177600000Y-80750000D02*
X177600000Y-81820000D01*
X177600000Y-83980000D02*
X177600000Y-85960000D01*
X177600000Y-85960000D02*
X185500000Y-85960000D01*
X179890000Y-80750000D02*
X177600000Y-80750000D01*
X185500000Y-80750000D02*
X183210000Y-80750000D01*
X185500000Y-81820000D02*
X185500000Y-80750000D01*
X185500000Y-85960000D02*
X185500000Y-83980000D01*
D13*
X177880000Y-79960000D02*
G75*
G02*
X177820000Y-79960000I-30000J0D01*
G01*
X177820000Y-79960000D02*
G75*
G02*
X177880000Y-79960000I30000J0D01*
G01*
D14*
%TD*%
%LPC*%
D15*
%TO.C,J3*%
X180300000Y-53000000D03*
X180800000Y-53000000D03*
X181300000Y-53000000D03*
X181800000Y-53000000D03*
X182300000Y-53000000D03*
X182800000Y-53000000D03*
D16*
X184500000Y-55600000D03*
X178600000Y-55600000D03*
%TD*%
D15*
%TO.C,J2*%
X180300000Y-43900000D03*
X180800000Y-43900000D03*
X181300000Y-43900000D03*
X181800000Y-43900000D03*
X182300000Y-43900000D03*
X182800000Y-43900000D03*
D16*
X184500000Y-46500000D03*
X178600000Y-46500000D03*
%TD*%
D15*
%TO.C,J15*%
X152700001Y-80300000D03*
X153200001Y-80300000D03*
X153700001Y-80300000D03*
X154200001Y-80300000D03*
X154700001Y-80300000D03*
X155200001Y-80300000D03*
D16*
X156900001Y-82900000D03*
X151000001Y-82900000D03*
%TD*%
D15*
%TO.C,J12*%
X152700001Y-43900000D03*
X153200001Y-43900000D03*
X153700001Y-43900000D03*
X154200001Y-43900000D03*
X154700001Y-43900000D03*
X155200001Y-43900000D03*
D16*
X156900001Y-46500000D03*
X151000001Y-46500000D03*
%TD*%
D17*
%TO.C,H3*%
X148800000Y-87900000D03*
%TD*%
D15*
%TO.C,J5*%
X180300000Y-71200000D03*
X180800000Y-71200000D03*
X181300000Y-71200000D03*
X181800000Y-71200000D03*
X182300000Y-71200000D03*
X182800000Y-71200000D03*
D16*
X184500000Y-73800000D03*
X178600000Y-73800000D03*
%TD*%
D15*
%TO.C,J17*%
X152700001Y-62100000D03*
X153200001Y-62100000D03*
X153700001Y-62100000D03*
X154200001Y-62100000D03*
X154700001Y-62100000D03*
X155200001Y-62100000D03*
D16*
X156900001Y-64700000D03*
X151000001Y-64700000D03*
%TD*%
D15*
%TO.C,J11*%
X166500000Y-80300000D03*
X167000000Y-80300000D03*
X167500000Y-80300000D03*
X168000000Y-80300000D03*
X168500000Y-80300000D03*
X169000000Y-80300000D03*
D16*
X170700000Y-82900000D03*
X164800000Y-82900000D03*
%TD*%
D15*
%TO.C,J14*%
X152700001Y-89400000D03*
X153200001Y-89400000D03*
X153700001Y-89400000D03*
X154200001Y-89400000D03*
X154700001Y-89400000D03*
X155200001Y-89400000D03*
D16*
X156900001Y-92000000D03*
X151000001Y-92000000D03*
%TD*%
D15*
%TO.C,J13*%
X152700001Y-53000000D03*
X153200001Y-53000000D03*
X153700001Y-53000000D03*
X154200001Y-53000000D03*
X154700001Y-53000000D03*
X155200001Y-53000000D03*
D16*
X156900001Y-55600000D03*
X151000001Y-55600000D03*
%TD*%
D15*
%TO.C,J8*%
X166500000Y-53000000D03*
X167000000Y-53000000D03*
X167500000Y-53000000D03*
X168000000Y-53000000D03*
X168500000Y-53000000D03*
X169000000Y-53000000D03*
D16*
X170700000Y-55600000D03*
X164800000Y-55600000D03*
%TD*%
D15*
%TO.C,J10*%
X166500000Y-71200000D03*
X167000000Y-71200000D03*
X167500000Y-71200000D03*
X168000000Y-71200000D03*
X168500000Y-71200000D03*
X169000000Y-71200000D03*
D16*
X170700000Y-73800000D03*
X164800000Y-73800000D03*
%TD*%
D17*
%TO.C,H2*%
X186700000Y-51500000D03*
%TD*%
D15*
%TO.C,J9*%
X166500000Y-62100000D03*
X167000000Y-62100000D03*
X167500000Y-62100000D03*
X168000000Y-62100000D03*
X168500000Y-62100000D03*
X169000000Y-62100000D03*
D16*
X170700000Y-64700000D03*
X164800000Y-64700000D03*
%TD*%
D17*
%TO.C,H1*%
X148800000Y-51500000D03*
%TD*%
D15*
%TO.C,J16*%
X152700001Y-71200000D03*
X153200001Y-71200000D03*
X153700001Y-71200000D03*
X154200001Y-71200000D03*
X154700001Y-71200000D03*
X155200001Y-71200000D03*
D16*
X156900001Y-73800000D03*
X151000001Y-73800000D03*
%TD*%
D18*
%TO.C,J1*%
X158200000Y-98500000D03*
X158700000Y-98500000D03*
X159200000Y-98500000D03*
X159700000Y-98500000D03*
X160200000Y-98500000D03*
X160700000Y-98500000D03*
X161200000Y-98500000D03*
X161700000Y-98500000D03*
X162200000Y-98500000D03*
X162700000Y-98500000D03*
X163200000Y-98500000D03*
X163700000Y-98500000D03*
X164200000Y-98500000D03*
X164700000Y-98500000D03*
D16*
X166400000Y-101100000D03*
X156500000Y-101100000D03*
%TD*%
D15*
%TO.C,J4*%
X180300000Y-62100000D03*
X180800000Y-62100000D03*
X181300000Y-62100000D03*
X181800000Y-62100000D03*
X182300000Y-62100000D03*
X182800000Y-62100000D03*
D16*
X184500000Y-64700000D03*
X178600000Y-64700000D03*
%TD*%
D15*
%TO.C,J7*%
X180300000Y-89400000D03*
X180800000Y-89400000D03*
X181300000Y-89400000D03*
X181800000Y-89400000D03*
X182300000Y-89400000D03*
X182800000Y-89400000D03*
D16*
X184500000Y-92000000D03*
X178600000Y-92000000D03*
%TD*%
D17*
%TO.C,H4*%
X186700000Y-87900000D03*
%TD*%
D15*
%TO.C,J6*%
X180300000Y-80300000D03*
X180800000Y-80300000D03*
X181300000Y-80300000D03*
X181800000Y-80300000D03*
X182300000Y-80300000D03*
X182800000Y-80300000D03*
D16*
X184500000Y-82900000D03*
X178600000Y-82900000D03*
%TD*%
%LPD*%
M02*
