%TF.GenerationSoftware,KiCad,Pcbnew,9.0.8+dfsg-1*%
%TF.CreationDate,2026-10-06T21:35:35-06:00*%
%TF.ProjectId,leftPointerThumbBreakout,6c656674-506f-4696-9e74-65725468756d,rev?*%
%TF.SameCoordinates,Original*%
%TF.FileFunction,Copper,L2,Bot*%
%TF.FilePolarity,Positive*%
%FSLAX46Y46*%
G04 Gerber Fmt 4.6, Leading zero omitted, Abs format (unit mm)*
G04 Created by KiCad (PCBNEW 9.0.8+dfsg-1) date 2026-10-06 21:35:35*
%MOMM*%
%LPD*%
G01*
G04 APERTURE LIST*
%TA.AperFunction,ViaPad*%
%ADD10C,0.450000*%
%TD*%
%TA.AperFunction,Conductor*%
%ADD11C,0.500000*%
%TD*%
%TA.AperFunction,Conductor*%
%ADD12C,0.150000*%
%TD*%
G04 APERTURE END LIST*
D10*
%TO.N,/GND*%
X167500000Y-83100000D03*
X153700002Y-83100000D03*
X181300000Y-55700000D03*
X162100000Y-46600000D03*
X167500000Y-73900000D03*
X181300000Y-83100000D03*
X181350000Y-46600000D03*
X162100000Y-55700000D03*
X162100000Y-64800000D03*
X153700002Y-73900000D03*
X181300000Y-91900000D03*
X153700002Y-64800000D03*
X162100000Y-73900000D03*
X153700002Y-55700000D03*
X153700002Y-91900000D03*
X181300000Y-64800000D03*
X167500000Y-64800000D03*
X181300000Y-73900000D03*
X162100000Y-91900000D03*
X153700002Y-46600000D03*
X162100000Y-83100000D03*
X167500000Y-55700000D03*
%TO.N,/R0*%
X158200000Y-45000000D03*
X180300000Y-45000000D03*
X152700002Y-45000000D03*
%TO.N,/R1*%
X166500000Y-54100000D03*
X180300000Y-54100000D03*
X152700002Y-54100000D03*
X158700000Y-54100000D03*
%TO.N,/R2*%
X180300000Y-63200000D03*
X166500000Y-63200000D03*
X152700002Y-63200000D03*
X159200000Y-63200000D03*
%TO.N,/R3*%
X180300000Y-72300000D03*
X159700000Y-72300000D03*
X166500000Y-72300000D03*
X152700002Y-72300000D03*
%TO.N,/R4*%
X160200000Y-81400000D03*
X180300000Y-81400000D03*
X152700002Y-81400000D03*
X166500000Y-81400000D03*
%TO.N,/R5*%
X160700000Y-90500000D03*
X180300000Y-90500000D03*
X152700002Y-90500000D03*
%TO.N,/VDD*%
X180800000Y-82200000D03*
X153200002Y-82200000D03*
X153200001Y-91200000D03*
X180800000Y-73050000D03*
X180800000Y-45700000D03*
X153200002Y-54900000D03*
X153200002Y-45700000D03*
X161400000Y-54900000D03*
X161400000Y-91200000D03*
X161400000Y-45700000D03*
X153200002Y-64000000D03*
X153200000Y-73049999D03*
X167000000Y-54900000D03*
X180800000Y-91200000D03*
X180800000Y-54900000D03*
X161400000Y-82200000D03*
X167000000Y-64000000D03*
X161400000Y-73050000D03*
X167000000Y-73050000D03*
X180800000Y-64000000D03*
X167000000Y-82200000D03*
X161400000Y-64000000D03*
%TO.N,/C0*%
X182800000Y-92600000D03*
X164200000Y-92600000D03*
%TO.N,/C1*%
X169000000Y-84500000D03*
X163200000Y-84500000D03*
%TO.N,/C2*%
X155200001Y-92600000D03*
X163150000Y-97400000D03*
%TO.N,/IN0*%
X162725000Y-47400000D03*
X182300000Y-47400000D03*
%TO.N,/IN6*%
X168500000Y-56900000D03*
X179850000Y-56900000D03*
%TO.N,/IN10*%
X154700002Y-48100000D03*
X168000000Y-83800000D03*
X163200000Y-48100000D03*
X163200000Y-83800000D03*
%TO.N,/IN16*%
X154200001Y-93100000D03*
X162200000Y-99600000D03*
%TD*%
D11*
%TO.N,/GND*%
X181300000Y-91900000D02*
X162100000Y-91900000D01*
X162100000Y-91900000D02*
X153700002Y-91900000D01*
X181300000Y-73900000D02*
X162100000Y-73900000D01*
X162100000Y-64800000D02*
X153700002Y-64800000D01*
X181300000Y-83100000D02*
X162100000Y-83100000D01*
X162100000Y-46600000D02*
X153700002Y-46600000D01*
X181300000Y-64800000D02*
X162100000Y-64800000D01*
X153700002Y-73900000D02*
X162100000Y-73900000D01*
X162100000Y-55700000D02*
X153700002Y-55700000D01*
X181350000Y-46600000D02*
X162100000Y-46600000D01*
X181300000Y-55700000D02*
X162100000Y-55700000D01*
X162100000Y-83100000D02*
X153700002Y-83100000D01*
D12*
%TO.N,/R0*%
X152700002Y-45000000D02*
X180300000Y-45000000D01*
%TO.N,/R1*%
X158700000Y-54100000D02*
X152700002Y-54100000D01*
X180300000Y-54100000D02*
X166500000Y-54100000D01*
X158700000Y-54100000D02*
X166500000Y-54100000D01*
%TO.N,/R2*%
X159200000Y-63200000D02*
X166500000Y-63200000D01*
X152700002Y-63200000D02*
X159200000Y-63200000D01*
X180300000Y-63200000D02*
X166500000Y-63200000D01*
%TO.N,/R3*%
X166500000Y-72300000D02*
X159700000Y-72300000D01*
X159700000Y-72300000D02*
X152700002Y-72300000D01*
X166500000Y-72300000D02*
X180300000Y-72300000D01*
%TO.N,/R4*%
X160200000Y-81400000D02*
X166500000Y-81400000D01*
X152700002Y-81400000D02*
X160200000Y-81400000D01*
X166500000Y-81400000D02*
X180300000Y-81400000D01*
%TO.N,/R5*%
X160700000Y-90500000D02*
X152700002Y-90500000D01*
X180300000Y-90500000D02*
X160700000Y-90500000D01*
D11*
%TO.N,/VDD*%
X161400000Y-73050000D02*
X161449998Y-73050000D01*
X153200002Y-45700000D02*
X180800000Y-45700000D01*
X161400000Y-54900000D02*
X153200002Y-54900000D01*
X161400000Y-64000000D02*
X153200002Y-64000000D01*
X161400000Y-82200000D02*
X153200002Y-82200000D01*
X180800000Y-64000000D02*
X161400000Y-64000000D01*
X161400000Y-91200000D02*
X153200001Y-91200000D01*
X161449998Y-73050000D02*
X161449999Y-73049999D01*
X167000000Y-73050000D02*
X161400000Y-73050000D01*
X180800000Y-91200000D02*
X161400000Y-91200000D01*
X180800000Y-73050000D02*
X167000000Y-73050000D01*
X180800000Y-82200000D02*
X167000000Y-82200000D01*
X167000000Y-82200000D02*
X161400000Y-82200000D01*
X180800000Y-54900000D02*
X161400000Y-54900000D01*
X161449999Y-73049999D02*
X153200000Y-73049999D01*
D12*
%TO.N,/C0*%
X164200000Y-92600000D02*
X182800000Y-92600000D01*
%TO.N,/C1*%
X169000000Y-84500000D02*
X163200000Y-84500000D01*
%TO.N,/C2*%
X155200001Y-92600000D02*
X158350000Y-92600000D01*
X158350000Y-92600000D02*
X163150000Y-97400000D01*
%TO.N,/IN0*%
X182300000Y-47400000D02*
X162725000Y-47400000D01*
%TO.N,/IN6*%
X179850000Y-56900000D02*
X168500000Y-56900000D01*
%TO.N,/IN10*%
X168000000Y-83800000D02*
X163200000Y-83800000D01*
X154700002Y-48100000D02*
X163200000Y-48100000D01*
%TO.N,/IN16*%
X154200001Y-93100000D02*
X155700000Y-93100000D01*
X155700000Y-93100000D02*
X162200000Y-99600000D01*
%TD*%
M02*
