M48
; DRILL file {KiCad 9.0.8+dfsg-1} date 2026-10-06T21:35:35-0600
; FORMAT={-:-/ absolute / inch / decimal}
; #@! TF.CreationDate,2026-10-06T21:35:35-06:00
; #@! TF.GenerationSoftware,Kicad,Pcbnew,9.0.8+dfsg-1
; #@! TF.FileFunction,Plated,1,2,PTH
FMAT,2
INCH
; #@! TA.AperFunction,Plated,PTH,ViaDrill
T1C0.0079
%
G90
G05
T1
X6.0118Y-1.7717
X6.0118Y-2.1299
X6.0118Y-2.4882
X6.0118Y-2.8465
X6.0118Y-3.2047
X6.0118Y-3.563
X6.0315Y-2.876
X6.0315Y-3.5906
X6.0315Y-1.7992
X6.0315Y-2.1614
X6.0315Y-2.5197
X6.0315Y-3.2362
X6.0512Y-1.8346
X6.0512Y-2.1929
X6.0512Y-2.5512
X6.0512Y-2.9094
X6.0512Y-3.2717
X6.0512Y-3.6181
X6.0709Y-3.6654
X6.0906Y-1.8937
X6.1102Y-3.6457
X6.2283Y-1.7717
X6.248Y-2.1299
X6.2677Y-2.4882
X6.2874Y-2.8465
X6.3071Y-3.2047
X6.3268Y-3.563
X6.3543Y-1.7992
X6.3543Y-2.1614
X6.3543Y-2.5197
X6.3543Y-2.876
X6.3543Y-3.2362
X6.3543Y-3.5906
X6.3819Y-1.8346
X6.3819Y-2.1929
X6.3819Y-2.5512
X6.3819Y-2.9094
X6.3819Y-3.2717
X6.3819Y-3.6181
X6.3858Y-3.9213
X6.4065Y-1.8661
X6.4232Y-3.8346
X6.4252Y-1.8937
X6.4252Y-3.2992
X6.4252Y-3.3268
X6.4646Y-3.6457
X6.5551Y-2.1299
X6.5551Y-2.4882
X6.5551Y-2.8465
X6.5551Y-3.2047
X6.5748Y-2.1614
X6.5748Y-2.5197
X6.5748Y-2.876
X6.5748Y-3.2362
X6.5945Y-2.1929
X6.5945Y-2.5512
X6.5945Y-2.9094
X6.5945Y-3.2717
X6.6142Y-3.2992
X6.6339Y-2.2402
X6.6535Y-3.3268
X7.0807Y-2.2402
X7.0984Y-1.7717
X7.0984Y-2.1299
X7.0984Y-2.4882
X7.0984Y-2.8465
X7.0984Y-3.2047
X7.0984Y-3.563
X7.1181Y-1.7992
X7.1181Y-2.1614
X7.1181Y-2.5197
X7.1181Y-2.876
X7.1181Y-3.2362
X7.1181Y-3.5906
X7.1378Y-2.1929
X7.1378Y-2.5512
X7.1378Y-2.9094
X7.1378Y-3.2717
X7.1378Y-3.6181
X7.1398Y-1.8346
X7.1772Y-1.8661
X7.1969Y-3.6457
M30
