%TF.GenerationSoftware,KiCad,Pcbnew,9.0.8+dfsg-1*%
%TF.CreationDate,2026-10-06T22:44:46-06:00*%
%TF.ProjectId,leftPinkieBreakout,6c656674-5069-46e6-9b69-65427265616b,rev?*%
%TF.SameCoordinates,Original*%
%TF.FileFunction,Legend,Top*%
%TF.FilePolarity,Positive*%
%FSLAX46Y46*%
G04 Gerber Fmt 4.6, Leading zero omitted, Abs format (unit mm)*
G04 Created by KiCad (PCBNEW 9.0.8+dfsg-1) date 2026-10-06 22:44:46*
%MOMM*%
%LPD*%
G01*
G04 APERTURE LIST*
%ADD10C,0.321075*%
%ADD11C,0.150000*%
%ADD12C,0.250000*%
%ADD13C,0.060000*%
%ADD14C,0.000000*%
%ADD15R,0.250000X1.500000*%
%ADD16R,2.000000X1.700000*%
%ADD17C,2.200000*%
%ADD18R,0.300000X1.500000*%
G04 APERTURE END LIST*
D10*
X152860537Y-42650000D02*
G75*
G02*
X152539463Y-42650000I-160537J0D01*
G01*
X152539463Y-42650000D02*
G75*
G02*
X152860537Y-42650000I160537J0D01*
G01*
X152860537Y-51750000D02*
G75*
G02*
X152539463Y-51750000I-160537J0D01*
G01*
X152539463Y-51750000D02*
G75*
G02*
X152860537Y-51750000I160537J0D01*
G01*
X152860537Y-61100000D02*
G75*
G02*
X152539463Y-61100000I-160537J0D01*
G01*
X152539463Y-61100000D02*
G75*
G02*
X152860537Y-61100000I160537J0D01*
G01*
X152860537Y-79000000D02*
G75*
G02*
X152539463Y-79000000I-160537J0D01*
G01*
X152539463Y-79000000D02*
G75*
G02*
X152860537Y-79000000I160537J0D01*
G01*
X152860537Y-88100000D02*
G75*
G02*
X152539463Y-88100000I-160537J0D01*
G01*
X152539463Y-88100000D02*
G75*
G02*
X152860537Y-88100000I160537J0D01*
G01*
X158160537Y-97100000D02*
G75*
G02*
X157839463Y-97100000I-160537J0D01*
G01*
X157839463Y-97100000D02*
G75*
G02*
X158160537Y-97100000I160537J0D01*
G01*
X166660537Y-42600000D02*
G75*
G02*
X166339463Y-42600000I-160537J0D01*
G01*
X166339463Y-42600000D02*
G75*
G02*
X166660537Y-42600000I160537J0D01*
G01*
X166660537Y-51700000D02*
G75*
G02*
X166339463Y-51700000I-160537J0D01*
G01*
X166339463Y-51700000D02*
G75*
G02*
X166660537Y-51700000I160537J0D01*
G01*
X166660537Y-60800000D02*
G75*
G02*
X166339463Y-60800000I-160537J0D01*
G01*
X166339463Y-60800000D02*
G75*
G02*
X166660537Y-60800000I160537J0D01*
G01*
X166660537Y-69950000D02*
G75*
G02*
X166339463Y-69950000I-160537J0D01*
G01*
X166339463Y-69950000D02*
G75*
G02*
X166660537Y-69950000I160537J0D01*
G01*
X166660537Y-79050000D02*
G75*
G02*
X166339463Y-79050000I-160537J0D01*
G01*
X166339463Y-79050000D02*
G75*
G02*
X166660537Y-79050000I160537J0D01*
G01*
X166660537Y-88100000D02*
G75*
G02*
X166339463Y-88100000I-160537J0D01*
G01*
X166339463Y-88100000D02*
G75*
G02*
X166660537Y-88100000I160537J0D01*
G01*
D11*
X159176190Y-47354819D02*
X158842857Y-46878628D01*
X158604762Y-47354819D02*
X158604762Y-46354819D01*
X158604762Y-46354819D02*
X158985714Y-46354819D01*
X158985714Y-46354819D02*
X159080952Y-46402438D01*
X159080952Y-46402438D02*
X159128571Y-46450057D01*
X159128571Y-46450057D02*
X159176190Y-46545295D01*
X159176190Y-46545295D02*
X159176190Y-46688152D01*
X159176190Y-46688152D02*
X159128571Y-46783390D01*
X159128571Y-46783390D02*
X159080952Y-46831009D01*
X159080952Y-46831009D02*
X158985714Y-46878628D01*
X158985714Y-46878628D02*
X158604762Y-46878628D01*
X159747619Y-47354819D02*
X159652381Y-47307200D01*
X159652381Y-47307200D02*
X159604762Y-47259580D01*
X159604762Y-47259580D02*
X159557143Y-47164342D01*
X159557143Y-47164342D02*
X159557143Y-46878628D01*
X159557143Y-46878628D02*
X159604762Y-46783390D01*
X159604762Y-46783390D02*
X159652381Y-46735771D01*
X159652381Y-46735771D02*
X159747619Y-46688152D01*
X159747619Y-46688152D02*
X159890476Y-46688152D01*
X159890476Y-46688152D02*
X159985714Y-46735771D01*
X159985714Y-46735771D02*
X160033333Y-46783390D01*
X160033333Y-46783390D02*
X160080952Y-46878628D01*
X160080952Y-46878628D02*
X160080952Y-47164342D01*
X160080952Y-47164342D02*
X160033333Y-47259580D01*
X160033333Y-47259580D02*
X159985714Y-47307200D01*
X159985714Y-47307200D02*
X159890476Y-47354819D01*
X159890476Y-47354819D02*
X159747619Y-47354819D01*
X160414286Y-46688152D02*
X160604762Y-47354819D01*
X160604762Y-47354819D02*
X160795238Y-46878628D01*
X160795238Y-46878628D02*
X160985714Y-47354819D01*
X160985714Y-47354819D02*
X161176190Y-46688152D01*
X162509524Y-46354819D02*
X162604762Y-46354819D01*
X162604762Y-46354819D02*
X162700000Y-46402438D01*
X162700000Y-46402438D02*
X162747619Y-46450057D01*
X162747619Y-46450057D02*
X162795238Y-46545295D01*
X162795238Y-46545295D02*
X162842857Y-46735771D01*
X162842857Y-46735771D02*
X162842857Y-46973866D01*
X162842857Y-46973866D02*
X162795238Y-47164342D01*
X162795238Y-47164342D02*
X162747619Y-47259580D01*
X162747619Y-47259580D02*
X162700000Y-47307200D01*
X162700000Y-47307200D02*
X162604762Y-47354819D01*
X162604762Y-47354819D02*
X162509524Y-47354819D01*
X162509524Y-47354819D02*
X162414286Y-47307200D01*
X162414286Y-47307200D02*
X162366667Y-47259580D01*
X162366667Y-47259580D02*
X162319048Y-47164342D01*
X162319048Y-47164342D02*
X162271429Y-46973866D01*
X162271429Y-46973866D02*
X162271429Y-46735771D01*
X162271429Y-46735771D02*
X162319048Y-46545295D01*
X162319048Y-46545295D02*
X162366667Y-46450057D01*
X162366667Y-46450057D02*
X162414286Y-46402438D01*
X162414286Y-46402438D02*
X162509524Y-46354819D01*
X159176190Y-56554819D02*
X158842857Y-56078628D01*
X158604762Y-56554819D02*
X158604762Y-55554819D01*
X158604762Y-55554819D02*
X158985714Y-55554819D01*
X158985714Y-55554819D02*
X159080952Y-55602438D01*
X159080952Y-55602438D02*
X159128571Y-55650057D01*
X159128571Y-55650057D02*
X159176190Y-55745295D01*
X159176190Y-55745295D02*
X159176190Y-55888152D01*
X159176190Y-55888152D02*
X159128571Y-55983390D01*
X159128571Y-55983390D02*
X159080952Y-56031009D01*
X159080952Y-56031009D02*
X158985714Y-56078628D01*
X158985714Y-56078628D02*
X158604762Y-56078628D01*
X159747619Y-56554819D02*
X159652381Y-56507200D01*
X159652381Y-56507200D02*
X159604762Y-56459580D01*
X159604762Y-56459580D02*
X159557143Y-56364342D01*
X159557143Y-56364342D02*
X159557143Y-56078628D01*
X159557143Y-56078628D02*
X159604762Y-55983390D01*
X159604762Y-55983390D02*
X159652381Y-55935771D01*
X159652381Y-55935771D02*
X159747619Y-55888152D01*
X159747619Y-55888152D02*
X159890476Y-55888152D01*
X159890476Y-55888152D02*
X159985714Y-55935771D01*
X159985714Y-55935771D02*
X160033333Y-55983390D01*
X160033333Y-55983390D02*
X160080952Y-56078628D01*
X160080952Y-56078628D02*
X160080952Y-56364342D01*
X160080952Y-56364342D02*
X160033333Y-56459580D01*
X160033333Y-56459580D02*
X159985714Y-56507200D01*
X159985714Y-56507200D02*
X159890476Y-56554819D01*
X159890476Y-56554819D02*
X159747619Y-56554819D01*
X160414286Y-55888152D02*
X160604762Y-56554819D01*
X160604762Y-56554819D02*
X160795238Y-56078628D01*
X160795238Y-56078628D02*
X160985714Y-56554819D01*
X160985714Y-56554819D02*
X161176190Y-55888152D01*
X162842857Y-56554819D02*
X162271429Y-56554819D01*
X162557143Y-56554819D02*
X162557143Y-55554819D01*
X162557143Y-55554819D02*
X162461905Y-55697676D01*
X162461905Y-55697676D02*
X162366667Y-55792914D01*
X162366667Y-55792914D02*
X162271429Y-55840533D01*
X159176190Y-92754819D02*
X158842857Y-92278628D01*
X158604762Y-92754819D02*
X158604762Y-91754819D01*
X158604762Y-91754819D02*
X158985714Y-91754819D01*
X158985714Y-91754819D02*
X159080952Y-91802438D01*
X159080952Y-91802438D02*
X159128571Y-91850057D01*
X159128571Y-91850057D02*
X159176190Y-91945295D01*
X159176190Y-91945295D02*
X159176190Y-92088152D01*
X159176190Y-92088152D02*
X159128571Y-92183390D01*
X159128571Y-92183390D02*
X159080952Y-92231009D01*
X159080952Y-92231009D02*
X158985714Y-92278628D01*
X158985714Y-92278628D02*
X158604762Y-92278628D01*
X159747619Y-92754819D02*
X159652381Y-92707200D01*
X159652381Y-92707200D02*
X159604762Y-92659580D01*
X159604762Y-92659580D02*
X159557143Y-92564342D01*
X159557143Y-92564342D02*
X159557143Y-92278628D01*
X159557143Y-92278628D02*
X159604762Y-92183390D01*
X159604762Y-92183390D02*
X159652381Y-92135771D01*
X159652381Y-92135771D02*
X159747619Y-92088152D01*
X159747619Y-92088152D02*
X159890476Y-92088152D01*
X159890476Y-92088152D02*
X159985714Y-92135771D01*
X159985714Y-92135771D02*
X160033333Y-92183390D01*
X160033333Y-92183390D02*
X160080952Y-92278628D01*
X160080952Y-92278628D02*
X160080952Y-92564342D01*
X160080952Y-92564342D02*
X160033333Y-92659580D01*
X160033333Y-92659580D02*
X159985714Y-92707200D01*
X159985714Y-92707200D02*
X159890476Y-92754819D01*
X159890476Y-92754819D02*
X159747619Y-92754819D01*
X160414286Y-92088152D02*
X160604762Y-92754819D01*
X160604762Y-92754819D02*
X160795238Y-92278628D01*
X160795238Y-92278628D02*
X160985714Y-92754819D01*
X160985714Y-92754819D02*
X161176190Y-92088152D01*
X162795238Y-91754819D02*
X162319048Y-91754819D01*
X162319048Y-91754819D02*
X162271429Y-92231009D01*
X162271429Y-92231009D02*
X162319048Y-92183390D01*
X162319048Y-92183390D02*
X162414286Y-92135771D01*
X162414286Y-92135771D02*
X162652381Y-92135771D01*
X162652381Y-92135771D02*
X162747619Y-92183390D01*
X162747619Y-92183390D02*
X162795238Y-92231009D01*
X162795238Y-92231009D02*
X162842857Y-92326247D01*
X162842857Y-92326247D02*
X162842857Y-92564342D01*
X162842857Y-92564342D02*
X162795238Y-92659580D01*
X162795238Y-92659580D02*
X162747619Y-92707200D01*
X162747619Y-92707200D02*
X162652381Y-92754819D01*
X162652381Y-92754819D02*
X162414286Y-92754819D01*
X162414286Y-92754819D02*
X162319048Y-92707200D01*
X162319048Y-92707200D02*
X162271429Y-92659580D01*
X159276190Y-83754819D02*
X158942857Y-83278628D01*
X158704762Y-83754819D02*
X158704762Y-82754819D01*
X158704762Y-82754819D02*
X159085714Y-82754819D01*
X159085714Y-82754819D02*
X159180952Y-82802438D01*
X159180952Y-82802438D02*
X159228571Y-82850057D01*
X159228571Y-82850057D02*
X159276190Y-82945295D01*
X159276190Y-82945295D02*
X159276190Y-83088152D01*
X159276190Y-83088152D02*
X159228571Y-83183390D01*
X159228571Y-83183390D02*
X159180952Y-83231009D01*
X159180952Y-83231009D02*
X159085714Y-83278628D01*
X159085714Y-83278628D02*
X158704762Y-83278628D01*
X159847619Y-83754819D02*
X159752381Y-83707200D01*
X159752381Y-83707200D02*
X159704762Y-83659580D01*
X159704762Y-83659580D02*
X159657143Y-83564342D01*
X159657143Y-83564342D02*
X159657143Y-83278628D01*
X159657143Y-83278628D02*
X159704762Y-83183390D01*
X159704762Y-83183390D02*
X159752381Y-83135771D01*
X159752381Y-83135771D02*
X159847619Y-83088152D01*
X159847619Y-83088152D02*
X159990476Y-83088152D01*
X159990476Y-83088152D02*
X160085714Y-83135771D01*
X160085714Y-83135771D02*
X160133333Y-83183390D01*
X160133333Y-83183390D02*
X160180952Y-83278628D01*
X160180952Y-83278628D02*
X160180952Y-83564342D01*
X160180952Y-83564342D02*
X160133333Y-83659580D01*
X160133333Y-83659580D02*
X160085714Y-83707200D01*
X160085714Y-83707200D02*
X159990476Y-83754819D01*
X159990476Y-83754819D02*
X159847619Y-83754819D01*
X160514286Y-83088152D02*
X160704762Y-83754819D01*
X160704762Y-83754819D02*
X160895238Y-83278628D01*
X160895238Y-83278628D02*
X161085714Y-83754819D01*
X161085714Y-83754819D02*
X161276190Y-83088152D01*
X162847619Y-83088152D02*
X162847619Y-83754819D01*
X162609524Y-82707200D02*
X162371429Y-83421485D01*
X162371429Y-83421485D02*
X162990476Y-83421485D01*
X159376190Y-65554819D02*
X159042857Y-65078628D01*
X158804762Y-65554819D02*
X158804762Y-64554819D01*
X158804762Y-64554819D02*
X159185714Y-64554819D01*
X159185714Y-64554819D02*
X159280952Y-64602438D01*
X159280952Y-64602438D02*
X159328571Y-64650057D01*
X159328571Y-64650057D02*
X159376190Y-64745295D01*
X159376190Y-64745295D02*
X159376190Y-64888152D01*
X159376190Y-64888152D02*
X159328571Y-64983390D01*
X159328571Y-64983390D02*
X159280952Y-65031009D01*
X159280952Y-65031009D02*
X159185714Y-65078628D01*
X159185714Y-65078628D02*
X158804762Y-65078628D01*
X159947619Y-65554819D02*
X159852381Y-65507200D01*
X159852381Y-65507200D02*
X159804762Y-65459580D01*
X159804762Y-65459580D02*
X159757143Y-65364342D01*
X159757143Y-65364342D02*
X159757143Y-65078628D01*
X159757143Y-65078628D02*
X159804762Y-64983390D01*
X159804762Y-64983390D02*
X159852381Y-64935771D01*
X159852381Y-64935771D02*
X159947619Y-64888152D01*
X159947619Y-64888152D02*
X160090476Y-64888152D01*
X160090476Y-64888152D02*
X160185714Y-64935771D01*
X160185714Y-64935771D02*
X160233333Y-64983390D01*
X160233333Y-64983390D02*
X160280952Y-65078628D01*
X160280952Y-65078628D02*
X160280952Y-65364342D01*
X160280952Y-65364342D02*
X160233333Y-65459580D01*
X160233333Y-65459580D02*
X160185714Y-65507200D01*
X160185714Y-65507200D02*
X160090476Y-65554819D01*
X160090476Y-65554819D02*
X159947619Y-65554819D01*
X160614286Y-64888152D02*
X160804762Y-65554819D01*
X160804762Y-65554819D02*
X160995238Y-65078628D01*
X160995238Y-65078628D02*
X161185714Y-65554819D01*
X161185714Y-65554819D02*
X161376190Y-64888152D01*
X162471429Y-64650057D02*
X162519048Y-64602438D01*
X162519048Y-64602438D02*
X162614286Y-64554819D01*
X162614286Y-64554819D02*
X162852381Y-64554819D01*
X162852381Y-64554819D02*
X162947619Y-64602438D01*
X162947619Y-64602438D02*
X162995238Y-64650057D01*
X162995238Y-64650057D02*
X163042857Y-64745295D01*
X163042857Y-64745295D02*
X163042857Y-64840533D01*
X163042857Y-64840533D02*
X162995238Y-64983390D01*
X162995238Y-64983390D02*
X162423810Y-65554819D01*
X162423810Y-65554819D02*
X163042857Y-65554819D01*
X159376190Y-74754819D02*
X159042857Y-74278628D01*
X158804762Y-74754819D02*
X158804762Y-73754819D01*
X158804762Y-73754819D02*
X159185714Y-73754819D01*
X159185714Y-73754819D02*
X159280952Y-73802438D01*
X159280952Y-73802438D02*
X159328571Y-73850057D01*
X159328571Y-73850057D02*
X159376190Y-73945295D01*
X159376190Y-73945295D02*
X159376190Y-74088152D01*
X159376190Y-74088152D02*
X159328571Y-74183390D01*
X159328571Y-74183390D02*
X159280952Y-74231009D01*
X159280952Y-74231009D02*
X159185714Y-74278628D01*
X159185714Y-74278628D02*
X158804762Y-74278628D01*
X159947619Y-74754819D02*
X159852381Y-74707200D01*
X159852381Y-74707200D02*
X159804762Y-74659580D01*
X159804762Y-74659580D02*
X159757143Y-74564342D01*
X159757143Y-74564342D02*
X159757143Y-74278628D01*
X159757143Y-74278628D02*
X159804762Y-74183390D01*
X159804762Y-74183390D02*
X159852381Y-74135771D01*
X159852381Y-74135771D02*
X159947619Y-74088152D01*
X159947619Y-74088152D02*
X160090476Y-74088152D01*
X160090476Y-74088152D02*
X160185714Y-74135771D01*
X160185714Y-74135771D02*
X160233333Y-74183390D01*
X160233333Y-74183390D02*
X160280952Y-74278628D01*
X160280952Y-74278628D02*
X160280952Y-74564342D01*
X160280952Y-74564342D02*
X160233333Y-74659580D01*
X160233333Y-74659580D02*
X160185714Y-74707200D01*
X160185714Y-74707200D02*
X160090476Y-74754819D01*
X160090476Y-74754819D02*
X159947619Y-74754819D01*
X160614286Y-74088152D02*
X160804762Y-74754819D01*
X160804762Y-74754819D02*
X160995238Y-74278628D01*
X160995238Y-74278628D02*
X161185714Y-74754819D01*
X161185714Y-74754819D02*
X161376190Y-74088152D01*
X162423810Y-73754819D02*
X163042857Y-73754819D01*
X163042857Y-73754819D02*
X162709524Y-74135771D01*
X162709524Y-74135771D02*
X162852381Y-74135771D01*
X162852381Y-74135771D02*
X162947619Y-74183390D01*
X162947619Y-74183390D02*
X162995238Y-74231009D01*
X162995238Y-74231009D02*
X163042857Y-74326247D01*
X163042857Y-74326247D02*
X163042857Y-74564342D01*
X163042857Y-74564342D02*
X162995238Y-74659580D01*
X162995238Y-74659580D02*
X162947619Y-74707200D01*
X162947619Y-74707200D02*
X162852381Y-74754819D01*
X162852381Y-74754819D02*
X162566667Y-74754819D01*
X162566667Y-74754819D02*
X162471429Y-74707200D01*
X162471429Y-74707200D02*
X162423810Y-74659580D01*
X147940419Y-43438094D02*
X147892800Y-43390475D01*
X147892800Y-43390475D02*
X147845180Y-43247618D01*
X147845180Y-43247618D02*
X147845180Y-43152380D01*
X147845180Y-43152380D02*
X147892800Y-43009523D01*
X147892800Y-43009523D02*
X147988038Y-42914285D01*
X147988038Y-42914285D02*
X148083276Y-42866666D01*
X148083276Y-42866666D02*
X148273752Y-42819047D01*
X148273752Y-42819047D02*
X148416609Y-42819047D01*
X148416609Y-42819047D02*
X148607085Y-42866666D01*
X148607085Y-42866666D02*
X148702323Y-42914285D01*
X148702323Y-42914285D02*
X148797561Y-43009523D01*
X148797561Y-43009523D02*
X148845180Y-43152380D01*
X148845180Y-43152380D02*
X148845180Y-43247618D01*
X148845180Y-43247618D02*
X148797561Y-43390475D01*
X148797561Y-43390475D02*
X148749942Y-43438094D01*
X147845180Y-44009523D02*
X147892800Y-43914285D01*
X147892800Y-43914285D02*
X147940419Y-43866666D01*
X147940419Y-43866666D02*
X148035657Y-43819047D01*
X148035657Y-43819047D02*
X148321371Y-43819047D01*
X148321371Y-43819047D02*
X148416609Y-43866666D01*
X148416609Y-43866666D02*
X148464228Y-43914285D01*
X148464228Y-43914285D02*
X148511847Y-44009523D01*
X148511847Y-44009523D02*
X148511847Y-44152380D01*
X148511847Y-44152380D02*
X148464228Y-44247618D01*
X148464228Y-44247618D02*
X148416609Y-44295237D01*
X148416609Y-44295237D02*
X148321371Y-44342856D01*
X148321371Y-44342856D02*
X148035657Y-44342856D01*
X148035657Y-44342856D02*
X147940419Y-44295237D01*
X147940419Y-44295237D02*
X147892800Y-44247618D01*
X147892800Y-44247618D02*
X147845180Y-44152380D01*
X147845180Y-44152380D02*
X147845180Y-44009523D01*
X147845180Y-44914285D02*
X147892800Y-44819047D01*
X147892800Y-44819047D02*
X147988038Y-44771428D01*
X147988038Y-44771428D02*
X148845180Y-44771428D01*
X148845180Y-46485714D02*
X148845180Y-46295238D01*
X148845180Y-46295238D02*
X148797561Y-46200000D01*
X148797561Y-46200000D02*
X148749942Y-46152381D01*
X148749942Y-46152381D02*
X148607085Y-46057143D01*
X148607085Y-46057143D02*
X148416609Y-46009524D01*
X148416609Y-46009524D02*
X148035657Y-46009524D01*
X148035657Y-46009524D02*
X147940419Y-46057143D01*
X147940419Y-46057143D02*
X147892800Y-46104762D01*
X147892800Y-46104762D02*
X147845180Y-46200000D01*
X147845180Y-46200000D02*
X147845180Y-46390476D01*
X147845180Y-46390476D02*
X147892800Y-46485714D01*
X147892800Y-46485714D02*
X147940419Y-46533333D01*
X147940419Y-46533333D02*
X148035657Y-46580952D01*
X148035657Y-46580952D02*
X148273752Y-46580952D01*
X148273752Y-46580952D02*
X148368990Y-46533333D01*
X148368990Y-46533333D02*
X148416609Y-46485714D01*
X148416609Y-46485714D02*
X148464228Y-46390476D01*
X148464228Y-46390476D02*
X148464228Y-46200000D01*
X148464228Y-46200000D02*
X148416609Y-46104762D01*
X148416609Y-46104762D02*
X148368990Y-46057143D01*
X148368990Y-46057143D02*
X148273752Y-46009524D01*
X148226133Y-47771429D02*
X148226133Y-48533334D01*
X148035657Y-48342857D02*
X148226133Y-48533334D01*
X148226133Y-48533334D02*
X148416609Y-48342857D01*
X172945180Y-60123808D02*
X172992800Y-60028570D01*
X172992800Y-60028570D02*
X173088038Y-59980951D01*
X173088038Y-59980951D02*
X173945180Y-59980951D01*
X172992800Y-60885713D02*
X172945180Y-60790475D01*
X172945180Y-60790475D02*
X172945180Y-60599999D01*
X172945180Y-60599999D02*
X172992800Y-60504761D01*
X172992800Y-60504761D02*
X173088038Y-60457142D01*
X173088038Y-60457142D02*
X173468990Y-60457142D01*
X173468990Y-60457142D02*
X173564228Y-60504761D01*
X173564228Y-60504761D02*
X173611847Y-60599999D01*
X173611847Y-60599999D02*
X173611847Y-60790475D01*
X173611847Y-60790475D02*
X173564228Y-60885713D01*
X173564228Y-60885713D02*
X173468990Y-60933332D01*
X173468990Y-60933332D02*
X173373752Y-60933332D01*
X173373752Y-60933332D02*
X173278514Y-60457142D01*
X173611847Y-61219047D02*
X173611847Y-61599999D01*
X172945180Y-61361904D02*
X173802323Y-61361904D01*
X173802323Y-61361904D02*
X173897561Y-61409523D01*
X173897561Y-61409523D02*
X173945180Y-61504761D01*
X173945180Y-61504761D02*
X173945180Y-61599999D01*
X173611847Y-61790476D02*
X173611847Y-62171428D01*
X173945180Y-61933333D02*
X173088038Y-61933333D01*
X173088038Y-61933333D02*
X172992800Y-61980952D01*
X172992800Y-61980952D02*
X172945180Y-62076190D01*
X172945180Y-62076190D02*
X172945180Y-62171428D01*
X172945180Y-62504762D02*
X173945180Y-62504762D01*
X173945180Y-62504762D02*
X173945180Y-62885714D01*
X173945180Y-62885714D02*
X173897561Y-62980952D01*
X173897561Y-62980952D02*
X173849942Y-63028571D01*
X173849942Y-63028571D02*
X173754704Y-63076190D01*
X173754704Y-63076190D02*
X173611847Y-63076190D01*
X173611847Y-63076190D02*
X173516609Y-63028571D01*
X173516609Y-63028571D02*
X173468990Y-62980952D01*
X173468990Y-62980952D02*
X173421371Y-62885714D01*
X173421371Y-62885714D02*
X173421371Y-62504762D01*
X172945180Y-63504762D02*
X173611847Y-63504762D01*
X173945180Y-63504762D02*
X173897561Y-63457143D01*
X173897561Y-63457143D02*
X173849942Y-63504762D01*
X173849942Y-63504762D02*
X173897561Y-63552381D01*
X173897561Y-63552381D02*
X173945180Y-63504762D01*
X173945180Y-63504762D02*
X173849942Y-63504762D01*
X173611847Y-63980952D02*
X172945180Y-63980952D01*
X173516609Y-63980952D02*
X173564228Y-64028571D01*
X173564228Y-64028571D02*
X173611847Y-64123809D01*
X173611847Y-64123809D02*
X173611847Y-64266666D01*
X173611847Y-64266666D02*
X173564228Y-64361904D01*
X173564228Y-64361904D02*
X173468990Y-64409523D01*
X173468990Y-64409523D02*
X172945180Y-64409523D01*
X172945180Y-64885714D02*
X173945180Y-64885714D01*
X173326133Y-64980952D02*
X172945180Y-65266666D01*
X173611847Y-65266666D02*
X173230895Y-64885714D01*
X172945180Y-65695238D02*
X173611847Y-65695238D01*
X173945180Y-65695238D02*
X173897561Y-65647619D01*
X173897561Y-65647619D02*
X173849942Y-65695238D01*
X173849942Y-65695238D02*
X173897561Y-65742857D01*
X173897561Y-65742857D02*
X173945180Y-65695238D01*
X173945180Y-65695238D02*
X173849942Y-65695238D01*
X172992800Y-66552380D02*
X172945180Y-66457142D01*
X172945180Y-66457142D02*
X172945180Y-66266666D01*
X172945180Y-66266666D02*
X172992800Y-66171428D01*
X172992800Y-66171428D02*
X173088038Y-66123809D01*
X173088038Y-66123809D02*
X173468990Y-66123809D01*
X173468990Y-66123809D02*
X173564228Y-66171428D01*
X173564228Y-66171428D02*
X173611847Y-66266666D01*
X173611847Y-66266666D02*
X173611847Y-66457142D01*
X173611847Y-66457142D02*
X173564228Y-66552380D01*
X173564228Y-66552380D02*
X173468990Y-66599999D01*
X173468990Y-66599999D02*
X173373752Y-66599999D01*
X173373752Y-66599999D02*
X173278514Y-66123809D01*
X173468990Y-67361904D02*
X173421371Y-67504761D01*
X173421371Y-67504761D02*
X173373752Y-67552380D01*
X173373752Y-67552380D02*
X173278514Y-67599999D01*
X173278514Y-67599999D02*
X173135657Y-67599999D01*
X173135657Y-67599999D02*
X173040419Y-67552380D01*
X173040419Y-67552380D02*
X172992800Y-67504761D01*
X172992800Y-67504761D02*
X172945180Y-67409523D01*
X172945180Y-67409523D02*
X172945180Y-67028571D01*
X172945180Y-67028571D02*
X173945180Y-67028571D01*
X173945180Y-67028571D02*
X173945180Y-67361904D01*
X173945180Y-67361904D02*
X173897561Y-67457142D01*
X173897561Y-67457142D02*
X173849942Y-67504761D01*
X173849942Y-67504761D02*
X173754704Y-67552380D01*
X173754704Y-67552380D02*
X173659466Y-67552380D01*
X173659466Y-67552380D02*
X173564228Y-67504761D01*
X173564228Y-67504761D02*
X173516609Y-67457142D01*
X173516609Y-67457142D02*
X173468990Y-67361904D01*
X173468990Y-67361904D02*
X173468990Y-67028571D01*
X172945180Y-68028571D02*
X173611847Y-68028571D01*
X173421371Y-68028571D02*
X173516609Y-68076190D01*
X173516609Y-68076190D02*
X173564228Y-68123809D01*
X173564228Y-68123809D02*
X173611847Y-68219047D01*
X173611847Y-68219047D02*
X173611847Y-68314285D01*
X172992800Y-69028571D02*
X172945180Y-68933333D01*
X172945180Y-68933333D02*
X172945180Y-68742857D01*
X172945180Y-68742857D02*
X172992800Y-68647619D01*
X172992800Y-68647619D02*
X173088038Y-68600000D01*
X173088038Y-68600000D02*
X173468990Y-68600000D01*
X173468990Y-68600000D02*
X173564228Y-68647619D01*
X173564228Y-68647619D02*
X173611847Y-68742857D01*
X173611847Y-68742857D02*
X173611847Y-68933333D01*
X173611847Y-68933333D02*
X173564228Y-69028571D01*
X173564228Y-69028571D02*
X173468990Y-69076190D01*
X173468990Y-69076190D02*
X173373752Y-69076190D01*
X173373752Y-69076190D02*
X173278514Y-68600000D01*
X172945180Y-69933333D02*
X173468990Y-69933333D01*
X173468990Y-69933333D02*
X173564228Y-69885714D01*
X173564228Y-69885714D02*
X173611847Y-69790476D01*
X173611847Y-69790476D02*
X173611847Y-69600000D01*
X173611847Y-69600000D02*
X173564228Y-69504762D01*
X172992800Y-69933333D02*
X172945180Y-69838095D01*
X172945180Y-69838095D02*
X172945180Y-69600000D01*
X172945180Y-69600000D02*
X172992800Y-69504762D01*
X172992800Y-69504762D02*
X173088038Y-69457143D01*
X173088038Y-69457143D02*
X173183276Y-69457143D01*
X173183276Y-69457143D02*
X173278514Y-69504762D01*
X173278514Y-69504762D02*
X173326133Y-69600000D01*
X173326133Y-69600000D02*
X173326133Y-69838095D01*
X173326133Y-69838095D02*
X173373752Y-69933333D01*
X172945180Y-70409524D02*
X173945180Y-70409524D01*
X173326133Y-70504762D02*
X172945180Y-70790476D01*
X173611847Y-70790476D02*
X173230895Y-70409524D01*
X172945180Y-71361905D02*
X172992800Y-71266667D01*
X172992800Y-71266667D02*
X173040419Y-71219048D01*
X173040419Y-71219048D02*
X173135657Y-71171429D01*
X173135657Y-71171429D02*
X173421371Y-71171429D01*
X173421371Y-71171429D02*
X173516609Y-71219048D01*
X173516609Y-71219048D02*
X173564228Y-71266667D01*
X173564228Y-71266667D02*
X173611847Y-71361905D01*
X173611847Y-71361905D02*
X173611847Y-71504762D01*
X173611847Y-71504762D02*
X173564228Y-71600000D01*
X173564228Y-71600000D02*
X173516609Y-71647619D01*
X173516609Y-71647619D02*
X173421371Y-71695238D01*
X173421371Y-71695238D02*
X173135657Y-71695238D01*
X173135657Y-71695238D02*
X173040419Y-71647619D01*
X173040419Y-71647619D02*
X172992800Y-71600000D01*
X172992800Y-71600000D02*
X172945180Y-71504762D01*
X172945180Y-71504762D02*
X172945180Y-71361905D01*
X173611847Y-72552381D02*
X172945180Y-72552381D01*
X173611847Y-72123810D02*
X173088038Y-72123810D01*
X173088038Y-72123810D02*
X172992800Y-72171429D01*
X172992800Y-72171429D02*
X172945180Y-72266667D01*
X172945180Y-72266667D02*
X172945180Y-72409524D01*
X172945180Y-72409524D02*
X172992800Y-72504762D01*
X172992800Y-72504762D02*
X173040419Y-72552381D01*
X173611847Y-72885715D02*
X173611847Y-73266667D01*
X173945180Y-73028572D02*
X173088038Y-73028572D01*
X173088038Y-73028572D02*
X172992800Y-73076191D01*
X172992800Y-73076191D02*
X172945180Y-73171429D01*
X172945180Y-73171429D02*
X172945180Y-73266667D01*
X172945180Y-74933334D02*
X173421371Y-74600001D01*
X172945180Y-74361906D02*
X173945180Y-74361906D01*
X173945180Y-74361906D02*
X173945180Y-74742858D01*
X173945180Y-74742858D02*
X173897561Y-74838096D01*
X173897561Y-74838096D02*
X173849942Y-74885715D01*
X173849942Y-74885715D02*
X173754704Y-74933334D01*
X173754704Y-74933334D02*
X173611847Y-74933334D01*
X173611847Y-74933334D02*
X173516609Y-74885715D01*
X173516609Y-74885715D02*
X173468990Y-74838096D01*
X173468990Y-74838096D02*
X173421371Y-74742858D01*
X173421371Y-74742858D02*
X173421371Y-74361906D01*
X172992800Y-75742858D02*
X172945180Y-75647620D01*
X172945180Y-75647620D02*
X172945180Y-75457144D01*
X172945180Y-75457144D02*
X172992800Y-75361906D01*
X172992800Y-75361906D02*
X173088038Y-75314287D01*
X173088038Y-75314287D02*
X173468990Y-75314287D01*
X173468990Y-75314287D02*
X173564228Y-75361906D01*
X173564228Y-75361906D02*
X173611847Y-75457144D01*
X173611847Y-75457144D02*
X173611847Y-75647620D01*
X173611847Y-75647620D02*
X173564228Y-75742858D01*
X173564228Y-75742858D02*
X173468990Y-75790477D01*
X173468990Y-75790477D02*
X173373752Y-75790477D01*
X173373752Y-75790477D02*
X173278514Y-75314287D01*
X173611847Y-76123811D02*
X172945180Y-76361906D01*
X172945180Y-76361906D02*
X173611847Y-76600001D01*
X172945180Y-78266668D02*
X172945180Y-77695240D01*
X172945180Y-77980954D02*
X173945180Y-77980954D01*
X173945180Y-77980954D02*
X173802323Y-77885716D01*
X173802323Y-77885716D02*
X173707085Y-77790478D01*
X173707085Y-77790478D02*
X173659466Y-77695240D01*
X173140419Y-43438094D02*
X173092800Y-43390475D01*
X173092800Y-43390475D02*
X173045180Y-43247618D01*
X173045180Y-43247618D02*
X173045180Y-43152380D01*
X173045180Y-43152380D02*
X173092800Y-43009523D01*
X173092800Y-43009523D02*
X173188038Y-42914285D01*
X173188038Y-42914285D02*
X173283276Y-42866666D01*
X173283276Y-42866666D02*
X173473752Y-42819047D01*
X173473752Y-42819047D02*
X173616609Y-42819047D01*
X173616609Y-42819047D02*
X173807085Y-42866666D01*
X173807085Y-42866666D02*
X173902323Y-42914285D01*
X173902323Y-42914285D02*
X173997561Y-43009523D01*
X173997561Y-43009523D02*
X174045180Y-43152380D01*
X174045180Y-43152380D02*
X174045180Y-43247618D01*
X174045180Y-43247618D02*
X173997561Y-43390475D01*
X173997561Y-43390475D02*
X173949942Y-43438094D01*
X173045180Y-44009523D02*
X173092800Y-43914285D01*
X173092800Y-43914285D02*
X173140419Y-43866666D01*
X173140419Y-43866666D02*
X173235657Y-43819047D01*
X173235657Y-43819047D02*
X173521371Y-43819047D01*
X173521371Y-43819047D02*
X173616609Y-43866666D01*
X173616609Y-43866666D02*
X173664228Y-43914285D01*
X173664228Y-43914285D02*
X173711847Y-44009523D01*
X173711847Y-44009523D02*
X173711847Y-44152380D01*
X173711847Y-44152380D02*
X173664228Y-44247618D01*
X173664228Y-44247618D02*
X173616609Y-44295237D01*
X173616609Y-44295237D02*
X173521371Y-44342856D01*
X173521371Y-44342856D02*
X173235657Y-44342856D01*
X173235657Y-44342856D02*
X173140419Y-44295237D01*
X173140419Y-44295237D02*
X173092800Y-44247618D01*
X173092800Y-44247618D02*
X173045180Y-44152380D01*
X173045180Y-44152380D02*
X173045180Y-44009523D01*
X173045180Y-44914285D02*
X173092800Y-44819047D01*
X173092800Y-44819047D02*
X173188038Y-44771428D01*
X173188038Y-44771428D02*
X174045180Y-44771428D01*
X174045180Y-46533333D02*
X174045180Y-46057143D01*
X174045180Y-46057143D02*
X173568990Y-46009524D01*
X173568990Y-46009524D02*
X173616609Y-46057143D01*
X173616609Y-46057143D02*
X173664228Y-46152381D01*
X173664228Y-46152381D02*
X173664228Y-46390476D01*
X173664228Y-46390476D02*
X173616609Y-46485714D01*
X173616609Y-46485714D02*
X173568990Y-46533333D01*
X173568990Y-46533333D02*
X173473752Y-46580952D01*
X173473752Y-46580952D02*
X173235657Y-46580952D01*
X173235657Y-46580952D02*
X173140419Y-46533333D01*
X173140419Y-46533333D02*
X173092800Y-46485714D01*
X173092800Y-46485714D02*
X173045180Y-46390476D01*
X173045180Y-46390476D02*
X173045180Y-46152381D01*
X173045180Y-46152381D02*
X173092800Y-46057143D01*
X173092800Y-46057143D02*
X173140419Y-46009524D01*
X173426133Y-47771429D02*
X173426133Y-48533334D01*
X173235657Y-48342857D02*
X173426133Y-48533334D01*
X173426133Y-48533334D02*
X173616609Y-48342857D01*
X170466666Y-51954819D02*
X170466666Y-52669104D01*
X170466666Y-52669104D02*
X170419047Y-52811961D01*
X170419047Y-52811961D02*
X170323809Y-52907200D01*
X170323809Y-52907200D02*
X170180952Y-52954819D01*
X170180952Y-52954819D02*
X170085714Y-52954819D01*
X170847619Y-51954819D02*
X171466666Y-51954819D01*
X171466666Y-51954819D02*
X171133333Y-52335771D01*
X171133333Y-52335771D02*
X171276190Y-52335771D01*
X171276190Y-52335771D02*
X171371428Y-52383390D01*
X171371428Y-52383390D02*
X171419047Y-52431009D01*
X171419047Y-52431009D02*
X171466666Y-52526247D01*
X171466666Y-52526247D02*
X171466666Y-52764342D01*
X171466666Y-52764342D02*
X171419047Y-52859580D01*
X171419047Y-52859580D02*
X171371428Y-52907200D01*
X171371428Y-52907200D02*
X171276190Y-52954819D01*
X171276190Y-52954819D02*
X170990476Y-52954819D01*
X170990476Y-52954819D02*
X170895238Y-52907200D01*
X170895238Y-52907200D02*
X170847619Y-52859580D01*
X170466666Y-42954819D02*
X170466666Y-43669104D01*
X170466666Y-43669104D02*
X170419047Y-43811961D01*
X170419047Y-43811961D02*
X170323809Y-43907200D01*
X170323809Y-43907200D02*
X170180952Y-43954819D01*
X170180952Y-43954819D02*
X170085714Y-43954819D01*
X170895238Y-43050057D02*
X170942857Y-43002438D01*
X170942857Y-43002438D02*
X171038095Y-42954819D01*
X171038095Y-42954819D02*
X171276190Y-42954819D01*
X171276190Y-42954819D02*
X171371428Y-43002438D01*
X171371428Y-43002438D02*
X171419047Y-43050057D01*
X171419047Y-43050057D02*
X171466666Y-43145295D01*
X171466666Y-43145295D02*
X171466666Y-43240533D01*
X171466666Y-43240533D02*
X171419047Y-43383390D01*
X171419047Y-43383390D02*
X170847619Y-43954819D01*
X170847619Y-43954819D02*
X171466666Y-43954819D01*
X156090476Y-79354819D02*
X156090476Y-80069104D01*
X156090476Y-80069104D02*
X156042857Y-80211961D01*
X156042857Y-80211961D02*
X155947619Y-80307200D01*
X155947619Y-80307200D02*
X155804762Y-80354819D01*
X155804762Y-80354819D02*
X155709524Y-80354819D01*
X157090476Y-80354819D02*
X156519048Y-80354819D01*
X156804762Y-80354819D02*
X156804762Y-79354819D01*
X156804762Y-79354819D02*
X156709524Y-79497676D01*
X156709524Y-79497676D02*
X156614286Y-79592914D01*
X156614286Y-79592914D02*
X156519048Y-79640533D01*
X157471429Y-79450057D02*
X157519048Y-79402438D01*
X157519048Y-79402438D02*
X157614286Y-79354819D01*
X157614286Y-79354819D02*
X157852381Y-79354819D01*
X157852381Y-79354819D02*
X157947619Y-79402438D01*
X157947619Y-79402438D02*
X157995238Y-79450057D01*
X157995238Y-79450057D02*
X158042857Y-79545295D01*
X158042857Y-79545295D02*
X158042857Y-79640533D01*
X158042857Y-79640533D02*
X157995238Y-79783390D01*
X157995238Y-79783390D02*
X157423810Y-80354819D01*
X157423810Y-80354819D02*
X158042857Y-80354819D01*
X165066666Y-97354819D02*
X165066666Y-98069104D01*
X165066666Y-98069104D02*
X165019047Y-98211961D01*
X165019047Y-98211961D02*
X164923809Y-98307200D01*
X164923809Y-98307200D02*
X164780952Y-98354819D01*
X164780952Y-98354819D02*
X164685714Y-98354819D01*
X166066666Y-98354819D02*
X165495238Y-98354819D01*
X165780952Y-98354819D02*
X165780952Y-97354819D01*
X165780952Y-97354819D02*
X165685714Y-97497676D01*
X165685714Y-97497676D02*
X165590476Y-97592914D01*
X165590476Y-97592914D02*
X165495238Y-97640533D01*
X170466666Y-69954819D02*
X170466666Y-70669104D01*
X170466666Y-70669104D02*
X170419047Y-70811961D01*
X170419047Y-70811961D02*
X170323809Y-70907200D01*
X170323809Y-70907200D02*
X170180952Y-70954819D01*
X170180952Y-70954819D02*
X170085714Y-70954819D01*
X171419047Y-69954819D02*
X170942857Y-69954819D01*
X170942857Y-69954819D02*
X170895238Y-70431009D01*
X170895238Y-70431009D02*
X170942857Y-70383390D01*
X170942857Y-70383390D02*
X171038095Y-70335771D01*
X171038095Y-70335771D02*
X171276190Y-70335771D01*
X171276190Y-70335771D02*
X171371428Y-70383390D01*
X171371428Y-70383390D02*
X171419047Y-70431009D01*
X171419047Y-70431009D02*
X171466666Y-70526247D01*
X171466666Y-70526247D02*
X171466666Y-70764342D01*
X171466666Y-70764342D02*
X171419047Y-70859580D01*
X171419047Y-70859580D02*
X171371428Y-70907200D01*
X171371428Y-70907200D02*
X171276190Y-70954819D01*
X171276190Y-70954819D02*
X171038095Y-70954819D01*
X171038095Y-70954819D02*
X170942857Y-70907200D01*
X170942857Y-70907200D02*
X170895238Y-70859580D01*
X156090476Y-70454819D02*
X156090476Y-71169104D01*
X156090476Y-71169104D02*
X156042857Y-71311961D01*
X156042857Y-71311961D02*
X155947619Y-71407200D01*
X155947619Y-71407200D02*
X155804762Y-71454819D01*
X155804762Y-71454819D02*
X155709524Y-71454819D01*
X157090476Y-71454819D02*
X156519048Y-71454819D01*
X156804762Y-71454819D02*
X156804762Y-70454819D01*
X156804762Y-70454819D02*
X156709524Y-70597676D01*
X156709524Y-70597676D02*
X156614286Y-70692914D01*
X156614286Y-70692914D02*
X156519048Y-70740533D01*
X158042857Y-71454819D02*
X157471429Y-71454819D01*
X157757143Y-71454819D02*
X157757143Y-70454819D01*
X157757143Y-70454819D02*
X157661905Y-70597676D01*
X157661905Y-70597676D02*
X157566667Y-70692914D01*
X157566667Y-70692914D02*
X157471429Y-70740533D01*
X155140476Y-87154819D02*
X155140476Y-87869104D01*
X155140476Y-87869104D02*
X155092857Y-88011961D01*
X155092857Y-88011961D02*
X154997619Y-88107200D01*
X154997619Y-88107200D02*
X154854762Y-88154819D01*
X154854762Y-88154819D02*
X154759524Y-88154819D01*
X156140476Y-88154819D02*
X155569048Y-88154819D01*
X155854762Y-88154819D02*
X155854762Y-87154819D01*
X155854762Y-87154819D02*
X155759524Y-87297676D01*
X155759524Y-87297676D02*
X155664286Y-87392914D01*
X155664286Y-87392914D02*
X155569048Y-87440533D01*
X156473810Y-87154819D02*
X157092857Y-87154819D01*
X157092857Y-87154819D02*
X156759524Y-87535771D01*
X156759524Y-87535771D02*
X156902381Y-87535771D01*
X156902381Y-87535771D02*
X156997619Y-87583390D01*
X156997619Y-87583390D02*
X157045238Y-87631009D01*
X157045238Y-87631009D02*
X157092857Y-87726247D01*
X157092857Y-87726247D02*
X157092857Y-87964342D01*
X157092857Y-87964342D02*
X157045238Y-88059580D01*
X157045238Y-88059580D02*
X156997619Y-88107200D01*
X156997619Y-88107200D02*
X156902381Y-88154819D01*
X156902381Y-88154819D02*
X156616667Y-88154819D01*
X156616667Y-88154819D02*
X156521429Y-88107200D01*
X156521429Y-88107200D02*
X156473810Y-88059580D01*
X156766666Y-42754819D02*
X156766666Y-43469104D01*
X156766666Y-43469104D02*
X156719047Y-43611961D01*
X156719047Y-43611961D02*
X156623809Y-43707200D01*
X156623809Y-43707200D02*
X156480952Y-43754819D01*
X156480952Y-43754819D02*
X156385714Y-43754819D01*
X157385714Y-43183390D02*
X157290476Y-43135771D01*
X157290476Y-43135771D02*
X157242857Y-43088152D01*
X157242857Y-43088152D02*
X157195238Y-42992914D01*
X157195238Y-42992914D02*
X157195238Y-42945295D01*
X157195238Y-42945295D02*
X157242857Y-42850057D01*
X157242857Y-42850057D02*
X157290476Y-42802438D01*
X157290476Y-42802438D02*
X157385714Y-42754819D01*
X157385714Y-42754819D02*
X157576190Y-42754819D01*
X157576190Y-42754819D02*
X157671428Y-42802438D01*
X157671428Y-42802438D02*
X157719047Y-42850057D01*
X157719047Y-42850057D02*
X157766666Y-42945295D01*
X157766666Y-42945295D02*
X157766666Y-42992914D01*
X157766666Y-42992914D02*
X157719047Y-43088152D01*
X157719047Y-43088152D02*
X157671428Y-43135771D01*
X157671428Y-43135771D02*
X157576190Y-43183390D01*
X157576190Y-43183390D02*
X157385714Y-43183390D01*
X157385714Y-43183390D02*
X157290476Y-43231009D01*
X157290476Y-43231009D02*
X157242857Y-43278628D01*
X157242857Y-43278628D02*
X157195238Y-43373866D01*
X157195238Y-43373866D02*
X157195238Y-43564342D01*
X157195238Y-43564342D02*
X157242857Y-43659580D01*
X157242857Y-43659580D02*
X157290476Y-43707200D01*
X157290476Y-43707200D02*
X157385714Y-43754819D01*
X157385714Y-43754819D02*
X157576190Y-43754819D01*
X157576190Y-43754819D02*
X157671428Y-43707200D01*
X157671428Y-43707200D02*
X157719047Y-43659580D01*
X157719047Y-43659580D02*
X157766666Y-43564342D01*
X157766666Y-43564342D02*
X157766666Y-43373866D01*
X157766666Y-43373866D02*
X157719047Y-43278628D01*
X157719047Y-43278628D02*
X157671428Y-43231009D01*
X157671428Y-43231009D02*
X157576190Y-43183390D01*
X156090476Y-61454819D02*
X156090476Y-62169104D01*
X156090476Y-62169104D02*
X156042857Y-62311961D01*
X156042857Y-62311961D02*
X155947619Y-62407200D01*
X155947619Y-62407200D02*
X155804762Y-62454819D01*
X155804762Y-62454819D02*
X155709524Y-62454819D01*
X157090476Y-62454819D02*
X156519048Y-62454819D01*
X156804762Y-62454819D02*
X156804762Y-61454819D01*
X156804762Y-61454819D02*
X156709524Y-61597676D01*
X156709524Y-61597676D02*
X156614286Y-61692914D01*
X156614286Y-61692914D02*
X156519048Y-61740533D01*
X157709524Y-61454819D02*
X157804762Y-61454819D01*
X157804762Y-61454819D02*
X157900000Y-61502438D01*
X157900000Y-61502438D02*
X157947619Y-61550057D01*
X157947619Y-61550057D02*
X157995238Y-61645295D01*
X157995238Y-61645295D02*
X158042857Y-61835771D01*
X158042857Y-61835771D02*
X158042857Y-62073866D01*
X158042857Y-62073866D02*
X157995238Y-62264342D01*
X157995238Y-62264342D02*
X157947619Y-62359580D01*
X157947619Y-62359580D02*
X157900000Y-62407200D01*
X157900000Y-62407200D02*
X157804762Y-62454819D01*
X157804762Y-62454819D02*
X157709524Y-62454819D01*
X157709524Y-62454819D02*
X157614286Y-62407200D01*
X157614286Y-62407200D02*
X157566667Y-62359580D01*
X157566667Y-62359580D02*
X157519048Y-62264342D01*
X157519048Y-62264342D02*
X157471429Y-62073866D01*
X157471429Y-62073866D02*
X157471429Y-61835771D01*
X157471429Y-61835771D02*
X157519048Y-61645295D01*
X157519048Y-61645295D02*
X157566667Y-61550057D01*
X157566667Y-61550057D02*
X157614286Y-61502438D01*
X157614286Y-61502438D02*
X157709524Y-61454819D01*
X155616666Y-50754819D02*
X155616666Y-51469104D01*
X155616666Y-51469104D02*
X155569047Y-51611961D01*
X155569047Y-51611961D02*
X155473809Y-51707200D01*
X155473809Y-51707200D02*
X155330952Y-51754819D01*
X155330952Y-51754819D02*
X155235714Y-51754819D01*
X156140476Y-51754819D02*
X156330952Y-51754819D01*
X156330952Y-51754819D02*
X156426190Y-51707200D01*
X156426190Y-51707200D02*
X156473809Y-51659580D01*
X156473809Y-51659580D02*
X156569047Y-51516723D01*
X156569047Y-51516723D02*
X156616666Y-51326247D01*
X156616666Y-51326247D02*
X156616666Y-50945295D01*
X156616666Y-50945295D02*
X156569047Y-50850057D01*
X156569047Y-50850057D02*
X156521428Y-50802438D01*
X156521428Y-50802438D02*
X156426190Y-50754819D01*
X156426190Y-50754819D02*
X156235714Y-50754819D01*
X156235714Y-50754819D02*
X156140476Y-50802438D01*
X156140476Y-50802438D02*
X156092857Y-50850057D01*
X156092857Y-50850057D02*
X156045238Y-50945295D01*
X156045238Y-50945295D02*
X156045238Y-51183390D01*
X156045238Y-51183390D02*
X156092857Y-51278628D01*
X156092857Y-51278628D02*
X156140476Y-51326247D01*
X156140476Y-51326247D02*
X156235714Y-51373866D01*
X156235714Y-51373866D02*
X156426190Y-51373866D01*
X156426190Y-51373866D02*
X156521428Y-51326247D01*
X156521428Y-51326247D02*
X156569047Y-51278628D01*
X156569047Y-51278628D02*
X156616666Y-51183390D01*
X170466666Y-60954819D02*
X170466666Y-61669104D01*
X170466666Y-61669104D02*
X170419047Y-61811961D01*
X170419047Y-61811961D02*
X170323809Y-61907200D01*
X170323809Y-61907200D02*
X170180952Y-61954819D01*
X170180952Y-61954819D02*
X170085714Y-61954819D01*
X171371428Y-61288152D02*
X171371428Y-61954819D01*
X171133333Y-60907200D02*
X170895238Y-61621485D01*
X170895238Y-61621485D02*
X171514285Y-61621485D01*
X170416666Y-88454819D02*
X170416666Y-89169104D01*
X170416666Y-89169104D02*
X170369047Y-89311961D01*
X170369047Y-89311961D02*
X170273809Y-89407200D01*
X170273809Y-89407200D02*
X170130952Y-89454819D01*
X170130952Y-89454819D02*
X170035714Y-89454819D01*
X170797619Y-88454819D02*
X171464285Y-88454819D01*
X171464285Y-88454819D02*
X171035714Y-89454819D01*
X170466666Y-78954819D02*
X170466666Y-79669104D01*
X170466666Y-79669104D02*
X170419047Y-79811961D01*
X170419047Y-79811961D02*
X170323809Y-79907200D01*
X170323809Y-79907200D02*
X170180952Y-79954819D01*
X170180952Y-79954819D02*
X170085714Y-79954819D01*
X171371428Y-78954819D02*
X171180952Y-78954819D01*
X171180952Y-78954819D02*
X171085714Y-79002438D01*
X171085714Y-79002438D02*
X171038095Y-79050057D01*
X171038095Y-79050057D02*
X170942857Y-79192914D01*
X170942857Y-79192914D02*
X170895238Y-79383390D01*
X170895238Y-79383390D02*
X170895238Y-79764342D01*
X170895238Y-79764342D02*
X170942857Y-79859580D01*
X170942857Y-79859580D02*
X170990476Y-79907200D01*
X170990476Y-79907200D02*
X171085714Y-79954819D01*
X171085714Y-79954819D02*
X171276190Y-79954819D01*
X171276190Y-79954819D02*
X171371428Y-79907200D01*
X171371428Y-79907200D02*
X171419047Y-79859580D01*
X171419047Y-79859580D02*
X171466666Y-79764342D01*
X171466666Y-79764342D02*
X171466666Y-79526247D01*
X171466666Y-79526247D02*
X171419047Y-79431009D01*
X171419047Y-79431009D02*
X171371428Y-79383390D01*
X171371428Y-79383390D02*
X171276190Y-79335771D01*
X171276190Y-79335771D02*
X171085714Y-79335771D01*
X171085714Y-79335771D02*
X170990476Y-79383390D01*
X170990476Y-79383390D02*
X170942857Y-79431009D01*
X170942857Y-79431009D02*
X170895238Y-79526247D01*
D12*
%TO.C,J3*%
X163800000Y-53450000D02*
X163800000Y-54520000D01*
X163800000Y-56680000D02*
X163800000Y-58660000D01*
X163800000Y-58660000D02*
X171700000Y-58660000D01*
X166090000Y-53450000D02*
X163800000Y-53450000D01*
X171700000Y-53450000D02*
X169410000Y-53450000D01*
X171700000Y-54520000D02*
X171700000Y-53450000D01*
X171700000Y-58660000D02*
X171700000Y-56680000D01*
D13*
X164080000Y-52660000D02*
G75*
G02*
X164020000Y-52660000I-30000J0D01*
G01*
X164020000Y-52660000D02*
G75*
G02*
X164080000Y-52660000I30000J0D01*
G01*
D14*
D12*
%TO.C,J2*%
X163800000Y-44350000D02*
X163800000Y-45420000D01*
X163800000Y-47580000D02*
X163800000Y-49560000D01*
X163800000Y-49560000D02*
X171700000Y-49560000D01*
X166090000Y-44350000D02*
X163800000Y-44350000D01*
X171700000Y-44350000D02*
X169410000Y-44350000D01*
X171700000Y-45420000D02*
X171700000Y-44350000D01*
X171700000Y-49560000D02*
X171700000Y-47580000D01*
D13*
X164080000Y-43560000D02*
G75*
G02*
X164020000Y-43560000I-30000J0D01*
G01*
X164020000Y-43560000D02*
G75*
G02*
X164080000Y-43560000I30000J0D01*
G01*
D14*
D12*
%TO.C,J12*%
X150000000Y-80750000D02*
X150000000Y-81820000D01*
X150000000Y-83980000D02*
X150000000Y-85960000D01*
X150000000Y-85960000D02*
X157900000Y-85960000D01*
X152290000Y-80750000D02*
X150000000Y-80750000D01*
X157900000Y-80750000D02*
X155610000Y-80750000D01*
X157900000Y-81820000D02*
X157900000Y-80750000D01*
X157900000Y-85960000D02*
X157900000Y-83980000D01*
D13*
X150280000Y-79960000D02*
G75*
G02*
X150220000Y-79960000I-30000J0D01*
G01*
X150220000Y-79960000D02*
G75*
G02*
X150280000Y-79960000I30000J0D01*
G01*
D14*
D12*
%TO.C,J1*%
X155500000Y-98950000D02*
X155500000Y-100020000D01*
X155500000Y-102180000D02*
X155500000Y-104160000D01*
X155500000Y-104160000D02*
X166400000Y-104160000D01*
X157790000Y-98950000D02*
X155500000Y-98950000D01*
X166400000Y-98950000D02*
X164110000Y-98950000D01*
X166400000Y-100020000D02*
X166400000Y-98950000D01*
X166400000Y-104160000D02*
X166400000Y-102180000D01*
D13*
X155780000Y-98200000D02*
G75*
G02*
X155720000Y-98200000I-30000J0D01*
G01*
X155720000Y-98200000D02*
G75*
G02*
X155780000Y-98200000I30000J0D01*
G01*
D14*
D12*
%TO.C,J5*%
X163800000Y-71650000D02*
X163800000Y-72720000D01*
X163800000Y-74880000D02*
X163800000Y-76860000D01*
X163800000Y-76860000D02*
X171700000Y-76860000D01*
X166090000Y-71650000D02*
X163800000Y-71650000D01*
X171700000Y-71650000D02*
X169410000Y-71650000D01*
X171700000Y-72720000D02*
X171700000Y-71650000D01*
X171700000Y-76860000D02*
X171700000Y-74880000D01*
D13*
X164080000Y-70860000D02*
G75*
G02*
X164020000Y-70860000I-30000J0D01*
G01*
X164020000Y-70860000D02*
G75*
G02*
X164080000Y-70860000I30000J0D01*
G01*
D14*
D12*
%TO.C,J11*%
X150000000Y-71850000D02*
X150000000Y-72920000D01*
X150000000Y-75080000D02*
X150000000Y-77060000D01*
X150000000Y-77060000D02*
X157900000Y-77060000D01*
X152290000Y-71850000D02*
X150000000Y-71850000D01*
X157900000Y-71850000D02*
X155610000Y-71850000D01*
X157900000Y-72920000D02*
X157900000Y-71850000D01*
X157900000Y-77060000D02*
X157900000Y-75080000D01*
D13*
X150280000Y-71060000D02*
G75*
G02*
X150220000Y-71060000I-30000J0D01*
G01*
X150220000Y-71060000D02*
G75*
G02*
X150280000Y-71060000I30000J0D01*
G01*
D14*
D12*
%TO.C,J13*%
X150000000Y-89850000D02*
X150000000Y-90920000D01*
X150000000Y-93080000D02*
X150000000Y-95060000D01*
X150000000Y-95060000D02*
X157900000Y-95060000D01*
X152290000Y-89850000D02*
X150000000Y-89850000D01*
X157900000Y-89850000D02*
X155610000Y-89850000D01*
X157900000Y-90920000D02*
X157900000Y-89850000D01*
X157900000Y-95060000D02*
X157900000Y-93080000D01*
D13*
X150280000Y-89060000D02*
G75*
G02*
X150220000Y-89060000I-30000J0D01*
G01*
X150220000Y-89060000D02*
G75*
G02*
X150280000Y-89060000I30000J0D01*
G01*
D14*
D12*
%TO.C,J8*%
X150000000Y-44350000D02*
X150000000Y-45420000D01*
X150000000Y-47580000D02*
X150000000Y-49560000D01*
X150000000Y-49560000D02*
X157900000Y-49560000D01*
X152290000Y-44350000D02*
X150000000Y-44350000D01*
X157900000Y-44350000D02*
X155610000Y-44350000D01*
X157900000Y-45420000D02*
X157900000Y-44350000D01*
X157900000Y-49560000D02*
X157900000Y-47580000D01*
D13*
X150280000Y-43560000D02*
G75*
G02*
X150220000Y-43560000I-30000J0D01*
G01*
X150220000Y-43560000D02*
G75*
G02*
X150280000Y-43560000I30000J0D01*
G01*
D14*
D12*
%TO.C,J10*%
X150000000Y-62850000D02*
X150000000Y-63920000D01*
X150000000Y-66080000D02*
X150000000Y-68060000D01*
X150000000Y-68060000D02*
X157900000Y-68060000D01*
X152290000Y-62850000D02*
X150000000Y-62850000D01*
X157900000Y-62850000D02*
X155610000Y-62850000D01*
X157900000Y-63920000D02*
X157900000Y-62850000D01*
X157900000Y-68060000D02*
X157900000Y-66080000D01*
D13*
X150280000Y-62060000D02*
G75*
G02*
X150220000Y-62060000I-30000J0D01*
G01*
X150220000Y-62060000D02*
G75*
G02*
X150280000Y-62060000I30000J0D01*
G01*
D14*
D12*
%TO.C,J9*%
X150000000Y-53450000D02*
X150000000Y-54520000D01*
X150000000Y-56680000D02*
X150000000Y-58660000D01*
X150000000Y-58660000D02*
X157900000Y-58660000D01*
X152290000Y-53450000D02*
X150000000Y-53450000D01*
X157900000Y-53450000D02*
X155610000Y-53450000D01*
X157900000Y-54520000D02*
X157900000Y-53450000D01*
X157900000Y-58660000D02*
X157900000Y-56680000D01*
D13*
X150280000Y-52660000D02*
G75*
G02*
X150220000Y-52660000I-30000J0D01*
G01*
X150220000Y-52660000D02*
G75*
G02*
X150280000Y-52660000I30000J0D01*
G01*
D14*
D12*
%TO.C,J4*%
X163800000Y-62550000D02*
X163800000Y-63620000D01*
X163800000Y-65780000D02*
X163800000Y-67760000D01*
X163800000Y-67760000D02*
X171700000Y-67760000D01*
X166090000Y-62550000D02*
X163800000Y-62550000D01*
X171700000Y-62550000D02*
X169410000Y-62550000D01*
X171700000Y-63620000D02*
X171700000Y-62550000D01*
X171700000Y-67760000D02*
X171700000Y-65780000D01*
D13*
X164080000Y-61760000D02*
G75*
G02*
X164020000Y-61760000I-30000J0D01*
G01*
X164020000Y-61760000D02*
G75*
G02*
X164080000Y-61760000I30000J0D01*
G01*
D14*
D12*
%TO.C,J7*%
X163800000Y-89850000D02*
X163800000Y-90920000D01*
X163800000Y-93080000D02*
X163800000Y-95060000D01*
X163800000Y-95060000D02*
X171700000Y-95060000D01*
X166090000Y-89850000D02*
X163800000Y-89850000D01*
X171700000Y-89850000D02*
X169410000Y-89850000D01*
X171700000Y-90920000D02*
X171700000Y-89850000D01*
X171700000Y-95060000D02*
X171700000Y-93080000D01*
D13*
X164080000Y-89060000D02*
G75*
G02*
X164020000Y-89060000I-30000J0D01*
G01*
X164020000Y-89060000D02*
G75*
G02*
X164080000Y-89060000I30000J0D01*
G01*
D14*
D12*
%TO.C,J6*%
X163800000Y-80750000D02*
X163800000Y-81820000D01*
X163800000Y-83980000D02*
X163800000Y-85960000D01*
X163800000Y-85960000D02*
X171700000Y-85960000D01*
X166090000Y-80750000D02*
X163800000Y-80750000D01*
X171700000Y-80750000D02*
X169410000Y-80750000D01*
X171700000Y-81820000D02*
X171700000Y-80750000D01*
X171700000Y-85960000D02*
X171700000Y-83980000D01*
D13*
X164080000Y-79960000D02*
G75*
G02*
X164020000Y-79960000I-30000J0D01*
G01*
X164020000Y-79960000D02*
G75*
G02*
X164080000Y-79960000I30000J0D01*
G01*
D14*
%TD*%
%LPC*%
D15*
%TO.C,J3*%
X166500000Y-53000000D03*
X167000000Y-53000000D03*
X167500000Y-53000000D03*
X168000000Y-53000000D03*
X168500000Y-53000000D03*
X169000000Y-53000000D03*
D16*
X170700000Y-55600000D03*
X164800000Y-55600000D03*
%TD*%
D15*
%TO.C,J2*%
X166500000Y-43900000D03*
X167000000Y-43900000D03*
X167500000Y-43900000D03*
X168000000Y-43900000D03*
X168500000Y-43900000D03*
X169000000Y-43900000D03*
D16*
X170700000Y-46500000D03*
X164800000Y-46500000D03*
%TD*%
D15*
%TO.C,J12*%
X152700000Y-80300000D03*
X153200000Y-80300000D03*
X153700000Y-80300000D03*
X154200000Y-80300000D03*
X154700000Y-80300000D03*
X155200000Y-80300000D03*
D16*
X156900000Y-82900000D03*
X151000000Y-82900000D03*
%TD*%
D17*
%TO.C,H3*%
X148800000Y-87900000D03*
%TD*%
D18*
%TO.C,J1*%
X158200000Y-98500000D03*
X158700000Y-98500000D03*
X159200000Y-98500000D03*
X159700000Y-98500000D03*
X160200000Y-98500000D03*
X160700000Y-98500000D03*
X161200000Y-98500000D03*
X161700000Y-98500000D03*
X162200000Y-98500000D03*
X162700000Y-98500000D03*
X163200000Y-98500000D03*
X163700000Y-98500000D03*
D16*
X165400000Y-101100000D03*
X156500000Y-101100000D03*
%TD*%
D15*
%TO.C,J5*%
X166500000Y-71200000D03*
X167000000Y-71200000D03*
X167500000Y-71200000D03*
X168000000Y-71200000D03*
X168500000Y-71200000D03*
X169000000Y-71200000D03*
D16*
X170700000Y-73800000D03*
X164800000Y-73800000D03*
%TD*%
D15*
%TO.C,J11*%
X152700000Y-71400000D03*
X153200000Y-71400000D03*
X153700000Y-71400000D03*
X154200000Y-71400000D03*
X154700000Y-71400000D03*
X155200000Y-71400000D03*
D16*
X156900000Y-74000000D03*
X151000000Y-74000000D03*
%TD*%
D15*
%TO.C,J13*%
X152700000Y-89400000D03*
X153200000Y-89400000D03*
X153700000Y-89400000D03*
X154200000Y-89400000D03*
X154700000Y-89400000D03*
X155200000Y-89400000D03*
D16*
X156900000Y-92000000D03*
X151000000Y-92000000D03*
%TD*%
D15*
%TO.C,J8*%
X152700000Y-43900000D03*
X153200000Y-43900000D03*
X153700000Y-43900000D03*
X154200000Y-43900000D03*
X154700000Y-43900000D03*
X155200000Y-43900000D03*
D16*
X156900000Y-46500000D03*
X151000000Y-46500000D03*
%TD*%
D15*
%TO.C,J10*%
X152700000Y-62400000D03*
X153200000Y-62400000D03*
X153700000Y-62400000D03*
X154200000Y-62400000D03*
X154700000Y-62400000D03*
X155200000Y-62400000D03*
D16*
X156900000Y-65000000D03*
X151000000Y-65000000D03*
%TD*%
D17*
%TO.C,H2*%
X172900000Y-51500000D03*
%TD*%
D15*
%TO.C,J9*%
X152700000Y-53000000D03*
X153200000Y-53000000D03*
X153700000Y-53000000D03*
X154200000Y-53000000D03*
X154700000Y-53000000D03*
X155200000Y-53000000D03*
D16*
X156900000Y-55600000D03*
X151000000Y-55600000D03*
%TD*%
D17*
%TO.C,H1*%
X148800000Y-51500000D03*
%TD*%
D15*
%TO.C,J4*%
X166500000Y-62100000D03*
X167000000Y-62100000D03*
X167500000Y-62100000D03*
X168000000Y-62100000D03*
X168500000Y-62100000D03*
X169000000Y-62100000D03*
D16*
X170700000Y-64700000D03*
X164800000Y-64700000D03*
%TD*%
D15*
%TO.C,J7*%
X166500000Y-89400000D03*
X167000000Y-89400000D03*
X167500000Y-89400000D03*
X168000000Y-89400000D03*
X168500000Y-89400000D03*
X169000000Y-89400000D03*
D16*
X170700000Y-92000000D03*
X164800000Y-92000000D03*
%TD*%
D17*
%TO.C,H4*%
X172900000Y-87900000D03*
%TD*%
D15*
%TO.C,J6*%
X166500000Y-80300000D03*
X167000000Y-80300000D03*
X167500000Y-80300000D03*
X168000000Y-80300000D03*
X168500000Y-80300000D03*
X169000000Y-80300000D03*
D16*
X170700000Y-82900000D03*
X164800000Y-82900000D03*
%TD*%
%LPD*%
M02*
