%TF.GenerationSoftware,KiCad,Pcbnew,9.0.8+dfsg-1*%
%TF.CreationDate,2026-10-04T13:19:08-06:00*%
%TF.ProjectId,columnBreakout,636f6c75-6d6e-4427-9265-616b6f75742e,rev?*%
%TF.SameCoordinates,Original*%
%TF.FileFunction,Legend,Top*%
%TF.FilePolarity,Positive*%
%FSLAX46Y46*%
G04 Gerber Fmt 4.6, Leading zero omitted, Abs format (unit mm)*
G04 Created by KiCad (PCBNEW 9.0.8+dfsg-1) date 2026-10-04 13:19:08*
%MOMM*%
%LPD*%
G01*
G04 APERTURE LIST*
%ADD10C,0.321075*%
%ADD11C,0.150000*%
%ADD12C,0.250000*%
%ADD13C,0.060000*%
%ADD14C,0.000000*%
%ADD15R,0.250000X1.500000*%
%ADD16R,2.000000X1.700000*%
%ADD17C,2.200000*%
%ADD18R,0.300000X1.500000*%
G04 APERTURE END LIST*
D10*
X151410537Y-97200000D02*
G75*
G02*
X151089463Y-97200000I-160537J0D01*
G01*
X151089463Y-97200000D02*
G75*
G02*
X151410537Y-97200000I160537J0D01*
G01*
X152860537Y-42600000D02*
G75*
G02*
X152539463Y-42600000I-160537J0D01*
G01*
X152539463Y-42600000D02*
G75*
G02*
X152860537Y-42600000I160537J0D01*
G01*
X152860537Y-51700000D02*
G75*
G02*
X152539463Y-51700000I-160537J0D01*
G01*
X152539463Y-51700000D02*
G75*
G02*
X152860537Y-51700000I160537J0D01*
G01*
X152860537Y-60800000D02*
G75*
G02*
X152539463Y-60800000I-160537J0D01*
G01*
X152539463Y-60800000D02*
G75*
G02*
X152860537Y-60800000I160537J0D01*
G01*
X152860537Y-69950000D02*
G75*
G02*
X152539463Y-69950000I-160537J0D01*
G01*
X152539463Y-69950000D02*
G75*
G02*
X152860537Y-69950000I160537J0D01*
G01*
X152860537Y-79050000D02*
G75*
G02*
X152539463Y-79050000I-160537J0D01*
G01*
X152539463Y-79050000D02*
G75*
G02*
X152860537Y-79050000I160537J0D01*
G01*
X152860537Y-88100000D02*
G75*
G02*
X152539463Y-88100000I-160537J0D01*
G01*
X152539463Y-88100000D02*
G75*
G02*
X152860537Y-88100000I160537J0D01*
G01*
D11*
X148545180Y-45476190D02*
X149021371Y-45142857D01*
X148545180Y-44904762D02*
X149545180Y-44904762D01*
X149545180Y-44904762D02*
X149545180Y-45285714D01*
X149545180Y-45285714D02*
X149497561Y-45380952D01*
X149497561Y-45380952D02*
X149449942Y-45428571D01*
X149449942Y-45428571D02*
X149354704Y-45476190D01*
X149354704Y-45476190D02*
X149211847Y-45476190D01*
X149211847Y-45476190D02*
X149116609Y-45428571D01*
X149116609Y-45428571D02*
X149068990Y-45380952D01*
X149068990Y-45380952D02*
X149021371Y-45285714D01*
X149021371Y-45285714D02*
X149021371Y-44904762D01*
X148545180Y-46047619D02*
X148592800Y-45952381D01*
X148592800Y-45952381D02*
X148640419Y-45904762D01*
X148640419Y-45904762D02*
X148735657Y-45857143D01*
X148735657Y-45857143D02*
X149021371Y-45857143D01*
X149021371Y-45857143D02*
X149116609Y-45904762D01*
X149116609Y-45904762D02*
X149164228Y-45952381D01*
X149164228Y-45952381D02*
X149211847Y-46047619D01*
X149211847Y-46047619D02*
X149211847Y-46190476D01*
X149211847Y-46190476D02*
X149164228Y-46285714D01*
X149164228Y-46285714D02*
X149116609Y-46333333D01*
X149116609Y-46333333D02*
X149021371Y-46380952D01*
X149021371Y-46380952D02*
X148735657Y-46380952D01*
X148735657Y-46380952D02*
X148640419Y-46333333D01*
X148640419Y-46333333D02*
X148592800Y-46285714D01*
X148592800Y-46285714D02*
X148545180Y-46190476D01*
X148545180Y-46190476D02*
X148545180Y-46047619D01*
X149211847Y-46714286D02*
X148545180Y-46904762D01*
X148545180Y-46904762D02*
X149021371Y-47095238D01*
X149021371Y-47095238D02*
X148545180Y-47285714D01*
X148545180Y-47285714D02*
X149211847Y-47476190D01*
X149545180Y-48809524D02*
X149545180Y-48904762D01*
X149545180Y-48904762D02*
X149497561Y-49000000D01*
X149497561Y-49000000D02*
X149449942Y-49047619D01*
X149449942Y-49047619D02*
X149354704Y-49095238D01*
X149354704Y-49095238D02*
X149164228Y-49142857D01*
X149164228Y-49142857D02*
X148926133Y-49142857D01*
X148926133Y-49142857D02*
X148735657Y-49095238D01*
X148735657Y-49095238D02*
X148640419Y-49047619D01*
X148640419Y-49047619D02*
X148592800Y-49000000D01*
X148592800Y-49000000D02*
X148545180Y-48904762D01*
X148545180Y-48904762D02*
X148545180Y-48809524D01*
X148545180Y-48809524D02*
X148592800Y-48714286D01*
X148592800Y-48714286D02*
X148640419Y-48666667D01*
X148640419Y-48666667D02*
X148735657Y-48619048D01*
X148735657Y-48619048D02*
X148926133Y-48571429D01*
X148926133Y-48571429D02*
X149164228Y-48571429D01*
X149164228Y-48571429D02*
X149354704Y-48619048D01*
X149354704Y-48619048D02*
X149449942Y-48666667D01*
X149449942Y-48666667D02*
X149497561Y-48714286D01*
X149497561Y-48714286D02*
X149545180Y-48809524D01*
X148545180Y-54476190D02*
X149021371Y-54142857D01*
X148545180Y-53904762D02*
X149545180Y-53904762D01*
X149545180Y-53904762D02*
X149545180Y-54285714D01*
X149545180Y-54285714D02*
X149497561Y-54380952D01*
X149497561Y-54380952D02*
X149449942Y-54428571D01*
X149449942Y-54428571D02*
X149354704Y-54476190D01*
X149354704Y-54476190D02*
X149211847Y-54476190D01*
X149211847Y-54476190D02*
X149116609Y-54428571D01*
X149116609Y-54428571D02*
X149068990Y-54380952D01*
X149068990Y-54380952D02*
X149021371Y-54285714D01*
X149021371Y-54285714D02*
X149021371Y-53904762D01*
X148545180Y-55047619D02*
X148592800Y-54952381D01*
X148592800Y-54952381D02*
X148640419Y-54904762D01*
X148640419Y-54904762D02*
X148735657Y-54857143D01*
X148735657Y-54857143D02*
X149021371Y-54857143D01*
X149021371Y-54857143D02*
X149116609Y-54904762D01*
X149116609Y-54904762D02*
X149164228Y-54952381D01*
X149164228Y-54952381D02*
X149211847Y-55047619D01*
X149211847Y-55047619D02*
X149211847Y-55190476D01*
X149211847Y-55190476D02*
X149164228Y-55285714D01*
X149164228Y-55285714D02*
X149116609Y-55333333D01*
X149116609Y-55333333D02*
X149021371Y-55380952D01*
X149021371Y-55380952D02*
X148735657Y-55380952D01*
X148735657Y-55380952D02*
X148640419Y-55333333D01*
X148640419Y-55333333D02*
X148592800Y-55285714D01*
X148592800Y-55285714D02*
X148545180Y-55190476D01*
X148545180Y-55190476D02*
X148545180Y-55047619D01*
X149211847Y-55714286D02*
X148545180Y-55904762D01*
X148545180Y-55904762D02*
X149021371Y-56095238D01*
X149021371Y-56095238D02*
X148545180Y-56285714D01*
X148545180Y-56285714D02*
X149211847Y-56476190D01*
X148545180Y-58142857D02*
X148545180Y-57571429D01*
X148545180Y-57857143D02*
X149545180Y-57857143D01*
X149545180Y-57857143D02*
X149402323Y-57761905D01*
X149402323Y-57761905D02*
X149307085Y-57666667D01*
X149307085Y-57666667D02*
X149259466Y-57571429D01*
X148545180Y-63976190D02*
X149021371Y-63642857D01*
X148545180Y-63404762D02*
X149545180Y-63404762D01*
X149545180Y-63404762D02*
X149545180Y-63785714D01*
X149545180Y-63785714D02*
X149497561Y-63880952D01*
X149497561Y-63880952D02*
X149449942Y-63928571D01*
X149449942Y-63928571D02*
X149354704Y-63976190D01*
X149354704Y-63976190D02*
X149211847Y-63976190D01*
X149211847Y-63976190D02*
X149116609Y-63928571D01*
X149116609Y-63928571D02*
X149068990Y-63880952D01*
X149068990Y-63880952D02*
X149021371Y-63785714D01*
X149021371Y-63785714D02*
X149021371Y-63404762D01*
X148545180Y-64547619D02*
X148592800Y-64452381D01*
X148592800Y-64452381D02*
X148640419Y-64404762D01*
X148640419Y-64404762D02*
X148735657Y-64357143D01*
X148735657Y-64357143D02*
X149021371Y-64357143D01*
X149021371Y-64357143D02*
X149116609Y-64404762D01*
X149116609Y-64404762D02*
X149164228Y-64452381D01*
X149164228Y-64452381D02*
X149211847Y-64547619D01*
X149211847Y-64547619D02*
X149211847Y-64690476D01*
X149211847Y-64690476D02*
X149164228Y-64785714D01*
X149164228Y-64785714D02*
X149116609Y-64833333D01*
X149116609Y-64833333D02*
X149021371Y-64880952D01*
X149021371Y-64880952D02*
X148735657Y-64880952D01*
X148735657Y-64880952D02*
X148640419Y-64833333D01*
X148640419Y-64833333D02*
X148592800Y-64785714D01*
X148592800Y-64785714D02*
X148545180Y-64690476D01*
X148545180Y-64690476D02*
X148545180Y-64547619D01*
X149211847Y-65214286D02*
X148545180Y-65404762D01*
X148545180Y-65404762D02*
X149021371Y-65595238D01*
X149021371Y-65595238D02*
X148545180Y-65785714D01*
X148545180Y-65785714D02*
X149211847Y-65976190D01*
X149449942Y-67071429D02*
X149497561Y-67119048D01*
X149497561Y-67119048D02*
X149545180Y-67214286D01*
X149545180Y-67214286D02*
X149545180Y-67452381D01*
X149545180Y-67452381D02*
X149497561Y-67547619D01*
X149497561Y-67547619D02*
X149449942Y-67595238D01*
X149449942Y-67595238D02*
X149354704Y-67642857D01*
X149354704Y-67642857D02*
X149259466Y-67642857D01*
X149259466Y-67642857D02*
X149116609Y-67595238D01*
X149116609Y-67595238D02*
X148545180Y-67023810D01*
X148545180Y-67023810D02*
X148545180Y-67642857D01*
X148545180Y-72976190D02*
X149021371Y-72642857D01*
X148545180Y-72404762D02*
X149545180Y-72404762D01*
X149545180Y-72404762D02*
X149545180Y-72785714D01*
X149545180Y-72785714D02*
X149497561Y-72880952D01*
X149497561Y-72880952D02*
X149449942Y-72928571D01*
X149449942Y-72928571D02*
X149354704Y-72976190D01*
X149354704Y-72976190D02*
X149211847Y-72976190D01*
X149211847Y-72976190D02*
X149116609Y-72928571D01*
X149116609Y-72928571D02*
X149068990Y-72880952D01*
X149068990Y-72880952D02*
X149021371Y-72785714D01*
X149021371Y-72785714D02*
X149021371Y-72404762D01*
X148545180Y-73547619D02*
X148592800Y-73452381D01*
X148592800Y-73452381D02*
X148640419Y-73404762D01*
X148640419Y-73404762D02*
X148735657Y-73357143D01*
X148735657Y-73357143D02*
X149021371Y-73357143D01*
X149021371Y-73357143D02*
X149116609Y-73404762D01*
X149116609Y-73404762D02*
X149164228Y-73452381D01*
X149164228Y-73452381D02*
X149211847Y-73547619D01*
X149211847Y-73547619D02*
X149211847Y-73690476D01*
X149211847Y-73690476D02*
X149164228Y-73785714D01*
X149164228Y-73785714D02*
X149116609Y-73833333D01*
X149116609Y-73833333D02*
X149021371Y-73880952D01*
X149021371Y-73880952D02*
X148735657Y-73880952D01*
X148735657Y-73880952D02*
X148640419Y-73833333D01*
X148640419Y-73833333D02*
X148592800Y-73785714D01*
X148592800Y-73785714D02*
X148545180Y-73690476D01*
X148545180Y-73690476D02*
X148545180Y-73547619D01*
X149211847Y-74214286D02*
X148545180Y-74404762D01*
X148545180Y-74404762D02*
X149021371Y-74595238D01*
X149021371Y-74595238D02*
X148545180Y-74785714D01*
X148545180Y-74785714D02*
X149211847Y-74976190D01*
X149545180Y-76023810D02*
X149545180Y-76642857D01*
X149545180Y-76642857D02*
X149164228Y-76309524D01*
X149164228Y-76309524D02*
X149164228Y-76452381D01*
X149164228Y-76452381D02*
X149116609Y-76547619D01*
X149116609Y-76547619D02*
X149068990Y-76595238D01*
X149068990Y-76595238D02*
X148973752Y-76642857D01*
X148973752Y-76642857D02*
X148735657Y-76642857D01*
X148735657Y-76642857D02*
X148640419Y-76595238D01*
X148640419Y-76595238D02*
X148592800Y-76547619D01*
X148592800Y-76547619D02*
X148545180Y-76452381D01*
X148545180Y-76452381D02*
X148545180Y-76166667D01*
X148545180Y-76166667D02*
X148592800Y-76071429D01*
X148592800Y-76071429D02*
X148640419Y-76023810D01*
X148545180Y-81976190D02*
X149021371Y-81642857D01*
X148545180Y-81404762D02*
X149545180Y-81404762D01*
X149545180Y-81404762D02*
X149545180Y-81785714D01*
X149545180Y-81785714D02*
X149497561Y-81880952D01*
X149497561Y-81880952D02*
X149449942Y-81928571D01*
X149449942Y-81928571D02*
X149354704Y-81976190D01*
X149354704Y-81976190D02*
X149211847Y-81976190D01*
X149211847Y-81976190D02*
X149116609Y-81928571D01*
X149116609Y-81928571D02*
X149068990Y-81880952D01*
X149068990Y-81880952D02*
X149021371Y-81785714D01*
X149021371Y-81785714D02*
X149021371Y-81404762D01*
X148545180Y-82547619D02*
X148592800Y-82452381D01*
X148592800Y-82452381D02*
X148640419Y-82404762D01*
X148640419Y-82404762D02*
X148735657Y-82357143D01*
X148735657Y-82357143D02*
X149021371Y-82357143D01*
X149021371Y-82357143D02*
X149116609Y-82404762D01*
X149116609Y-82404762D02*
X149164228Y-82452381D01*
X149164228Y-82452381D02*
X149211847Y-82547619D01*
X149211847Y-82547619D02*
X149211847Y-82690476D01*
X149211847Y-82690476D02*
X149164228Y-82785714D01*
X149164228Y-82785714D02*
X149116609Y-82833333D01*
X149116609Y-82833333D02*
X149021371Y-82880952D01*
X149021371Y-82880952D02*
X148735657Y-82880952D01*
X148735657Y-82880952D02*
X148640419Y-82833333D01*
X148640419Y-82833333D02*
X148592800Y-82785714D01*
X148592800Y-82785714D02*
X148545180Y-82690476D01*
X148545180Y-82690476D02*
X148545180Y-82547619D01*
X149211847Y-83214286D02*
X148545180Y-83404762D01*
X148545180Y-83404762D02*
X149021371Y-83595238D01*
X149021371Y-83595238D02*
X148545180Y-83785714D01*
X148545180Y-83785714D02*
X149211847Y-83976190D01*
X149211847Y-85547619D02*
X148545180Y-85547619D01*
X149592800Y-85309524D02*
X148878514Y-85071429D01*
X148878514Y-85071429D02*
X148878514Y-85690476D01*
X148545180Y-90976190D02*
X149021371Y-90642857D01*
X148545180Y-90404762D02*
X149545180Y-90404762D01*
X149545180Y-90404762D02*
X149545180Y-90785714D01*
X149545180Y-90785714D02*
X149497561Y-90880952D01*
X149497561Y-90880952D02*
X149449942Y-90928571D01*
X149449942Y-90928571D02*
X149354704Y-90976190D01*
X149354704Y-90976190D02*
X149211847Y-90976190D01*
X149211847Y-90976190D02*
X149116609Y-90928571D01*
X149116609Y-90928571D02*
X149068990Y-90880952D01*
X149068990Y-90880952D02*
X149021371Y-90785714D01*
X149021371Y-90785714D02*
X149021371Y-90404762D01*
X148545180Y-91547619D02*
X148592800Y-91452381D01*
X148592800Y-91452381D02*
X148640419Y-91404762D01*
X148640419Y-91404762D02*
X148735657Y-91357143D01*
X148735657Y-91357143D02*
X149021371Y-91357143D01*
X149021371Y-91357143D02*
X149116609Y-91404762D01*
X149116609Y-91404762D02*
X149164228Y-91452381D01*
X149164228Y-91452381D02*
X149211847Y-91547619D01*
X149211847Y-91547619D02*
X149211847Y-91690476D01*
X149211847Y-91690476D02*
X149164228Y-91785714D01*
X149164228Y-91785714D02*
X149116609Y-91833333D01*
X149116609Y-91833333D02*
X149021371Y-91880952D01*
X149021371Y-91880952D02*
X148735657Y-91880952D01*
X148735657Y-91880952D02*
X148640419Y-91833333D01*
X148640419Y-91833333D02*
X148592800Y-91785714D01*
X148592800Y-91785714D02*
X148545180Y-91690476D01*
X148545180Y-91690476D02*
X148545180Y-91547619D01*
X149211847Y-92214286D02*
X148545180Y-92404762D01*
X148545180Y-92404762D02*
X149021371Y-92595238D01*
X149021371Y-92595238D02*
X148545180Y-92785714D01*
X148545180Y-92785714D02*
X149211847Y-92976190D01*
X149545180Y-94595238D02*
X149545180Y-94119048D01*
X149545180Y-94119048D02*
X149068990Y-94071429D01*
X149068990Y-94071429D02*
X149116609Y-94119048D01*
X149116609Y-94119048D02*
X149164228Y-94214286D01*
X149164228Y-94214286D02*
X149164228Y-94452381D01*
X149164228Y-94452381D02*
X149116609Y-94547619D01*
X149116609Y-94547619D02*
X149068990Y-94595238D01*
X149068990Y-94595238D02*
X148973752Y-94642857D01*
X148973752Y-94642857D02*
X148735657Y-94642857D01*
X148735657Y-94642857D02*
X148640419Y-94595238D01*
X148640419Y-94595238D02*
X148592800Y-94547619D01*
X148592800Y-94547619D02*
X148545180Y-94452381D01*
X148545180Y-94452381D02*
X148545180Y-94214286D01*
X148545180Y-94214286D02*
X148592800Y-94119048D01*
X148592800Y-94119048D02*
X148640419Y-94071429D01*
X159292800Y-61519046D02*
X159245180Y-61423808D01*
X159245180Y-61423808D02*
X159245180Y-61233332D01*
X159245180Y-61233332D02*
X159292800Y-61138094D01*
X159292800Y-61138094D02*
X159340419Y-61090475D01*
X159340419Y-61090475D02*
X159435657Y-61042856D01*
X159435657Y-61042856D02*
X159721371Y-61042856D01*
X159721371Y-61042856D02*
X159816609Y-61090475D01*
X159816609Y-61090475D02*
X159864228Y-61138094D01*
X159864228Y-61138094D02*
X159911847Y-61233332D01*
X159911847Y-61233332D02*
X159911847Y-61423808D01*
X159911847Y-61423808D02*
X159864228Y-61519046D01*
X159245180Y-62090475D02*
X159292800Y-61995237D01*
X159292800Y-61995237D02*
X159340419Y-61947618D01*
X159340419Y-61947618D02*
X159435657Y-61899999D01*
X159435657Y-61899999D02*
X159721371Y-61899999D01*
X159721371Y-61899999D02*
X159816609Y-61947618D01*
X159816609Y-61947618D02*
X159864228Y-61995237D01*
X159864228Y-61995237D02*
X159911847Y-62090475D01*
X159911847Y-62090475D02*
X159911847Y-62233332D01*
X159911847Y-62233332D02*
X159864228Y-62328570D01*
X159864228Y-62328570D02*
X159816609Y-62376189D01*
X159816609Y-62376189D02*
X159721371Y-62423808D01*
X159721371Y-62423808D02*
X159435657Y-62423808D01*
X159435657Y-62423808D02*
X159340419Y-62376189D01*
X159340419Y-62376189D02*
X159292800Y-62328570D01*
X159292800Y-62328570D02*
X159245180Y-62233332D01*
X159245180Y-62233332D02*
X159245180Y-62090475D01*
X159245180Y-62995237D02*
X159292800Y-62899999D01*
X159292800Y-62899999D02*
X159388038Y-62852380D01*
X159388038Y-62852380D02*
X160245180Y-62852380D01*
X159911847Y-63804761D02*
X159245180Y-63804761D01*
X159911847Y-63376190D02*
X159388038Y-63376190D01*
X159388038Y-63376190D02*
X159292800Y-63423809D01*
X159292800Y-63423809D02*
X159245180Y-63519047D01*
X159245180Y-63519047D02*
X159245180Y-63661904D01*
X159245180Y-63661904D02*
X159292800Y-63757142D01*
X159292800Y-63757142D02*
X159340419Y-63804761D01*
X159245180Y-64280952D02*
X159911847Y-64280952D01*
X159816609Y-64280952D02*
X159864228Y-64328571D01*
X159864228Y-64328571D02*
X159911847Y-64423809D01*
X159911847Y-64423809D02*
X159911847Y-64566666D01*
X159911847Y-64566666D02*
X159864228Y-64661904D01*
X159864228Y-64661904D02*
X159768990Y-64709523D01*
X159768990Y-64709523D02*
X159245180Y-64709523D01*
X159768990Y-64709523D02*
X159864228Y-64757142D01*
X159864228Y-64757142D02*
X159911847Y-64852380D01*
X159911847Y-64852380D02*
X159911847Y-64995237D01*
X159911847Y-64995237D02*
X159864228Y-65090476D01*
X159864228Y-65090476D02*
X159768990Y-65138095D01*
X159768990Y-65138095D02*
X159245180Y-65138095D01*
X159911847Y-65614285D02*
X159245180Y-65614285D01*
X159816609Y-65614285D02*
X159864228Y-65661904D01*
X159864228Y-65661904D02*
X159911847Y-65757142D01*
X159911847Y-65757142D02*
X159911847Y-65899999D01*
X159911847Y-65899999D02*
X159864228Y-65995237D01*
X159864228Y-65995237D02*
X159768990Y-66042856D01*
X159768990Y-66042856D02*
X159245180Y-66042856D01*
X159768990Y-66852380D02*
X159721371Y-66995237D01*
X159721371Y-66995237D02*
X159673752Y-67042856D01*
X159673752Y-67042856D02*
X159578514Y-67090475D01*
X159578514Y-67090475D02*
X159435657Y-67090475D01*
X159435657Y-67090475D02*
X159340419Y-67042856D01*
X159340419Y-67042856D02*
X159292800Y-66995237D01*
X159292800Y-66995237D02*
X159245180Y-66899999D01*
X159245180Y-66899999D02*
X159245180Y-66519047D01*
X159245180Y-66519047D02*
X160245180Y-66519047D01*
X160245180Y-66519047D02*
X160245180Y-66852380D01*
X160245180Y-66852380D02*
X160197561Y-66947618D01*
X160197561Y-66947618D02*
X160149942Y-66995237D01*
X160149942Y-66995237D02*
X160054704Y-67042856D01*
X160054704Y-67042856D02*
X159959466Y-67042856D01*
X159959466Y-67042856D02*
X159864228Y-66995237D01*
X159864228Y-66995237D02*
X159816609Y-66947618D01*
X159816609Y-66947618D02*
X159768990Y-66852380D01*
X159768990Y-66852380D02*
X159768990Y-66519047D01*
X159245180Y-67519047D02*
X159911847Y-67519047D01*
X159721371Y-67519047D02*
X159816609Y-67566666D01*
X159816609Y-67566666D02*
X159864228Y-67614285D01*
X159864228Y-67614285D02*
X159911847Y-67709523D01*
X159911847Y-67709523D02*
X159911847Y-67804761D01*
X159292800Y-68519047D02*
X159245180Y-68423809D01*
X159245180Y-68423809D02*
X159245180Y-68233333D01*
X159245180Y-68233333D02*
X159292800Y-68138095D01*
X159292800Y-68138095D02*
X159388038Y-68090476D01*
X159388038Y-68090476D02*
X159768990Y-68090476D01*
X159768990Y-68090476D02*
X159864228Y-68138095D01*
X159864228Y-68138095D02*
X159911847Y-68233333D01*
X159911847Y-68233333D02*
X159911847Y-68423809D01*
X159911847Y-68423809D02*
X159864228Y-68519047D01*
X159864228Y-68519047D02*
X159768990Y-68566666D01*
X159768990Y-68566666D02*
X159673752Y-68566666D01*
X159673752Y-68566666D02*
X159578514Y-68090476D01*
X159245180Y-69423809D02*
X159768990Y-69423809D01*
X159768990Y-69423809D02*
X159864228Y-69376190D01*
X159864228Y-69376190D02*
X159911847Y-69280952D01*
X159911847Y-69280952D02*
X159911847Y-69090476D01*
X159911847Y-69090476D02*
X159864228Y-68995238D01*
X159292800Y-69423809D02*
X159245180Y-69328571D01*
X159245180Y-69328571D02*
X159245180Y-69090476D01*
X159245180Y-69090476D02*
X159292800Y-68995238D01*
X159292800Y-68995238D02*
X159388038Y-68947619D01*
X159388038Y-68947619D02*
X159483276Y-68947619D01*
X159483276Y-68947619D02*
X159578514Y-68995238D01*
X159578514Y-68995238D02*
X159626133Y-69090476D01*
X159626133Y-69090476D02*
X159626133Y-69328571D01*
X159626133Y-69328571D02*
X159673752Y-69423809D01*
X159245180Y-69900000D02*
X160245180Y-69900000D01*
X159626133Y-69995238D02*
X159245180Y-70280952D01*
X159911847Y-70280952D02*
X159530895Y-69900000D01*
X159245180Y-70852381D02*
X159292800Y-70757143D01*
X159292800Y-70757143D02*
X159340419Y-70709524D01*
X159340419Y-70709524D02*
X159435657Y-70661905D01*
X159435657Y-70661905D02*
X159721371Y-70661905D01*
X159721371Y-70661905D02*
X159816609Y-70709524D01*
X159816609Y-70709524D02*
X159864228Y-70757143D01*
X159864228Y-70757143D02*
X159911847Y-70852381D01*
X159911847Y-70852381D02*
X159911847Y-70995238D01*
X159911847Y-70995238D02*
X159864228Y-71090476D01*
X159864228Y-71090476D02*
X159816609Y-71138095D01*
X159816609Y-71138095D02*
X159721371Y-71185714D01*
X159721371Y-71185714D02*
X159435657Y-71185714D01*
X159435657Y-71185714D02*
X159340419Y-71138095D01*
X159340419Y-71138095D02*
X159292800Y-71090476D01*
X159292800Y-71090476D02*
X159245180Y-70995238D01*
X159245180Y-70995238D02*
X159245180Y-70852381D01*
X159911847Y-72042857D02*
X159245180Y-72042857D01*
X159911847Y-71614286D02*
X159388038Y-71614286D01*
X159388038Y-71614286D02*
X159292800Y-71661905D01*
X159292800Y-71661905D02*
X159245180Y-71757143D01*
X159245180Y-71757143D02*
X159245180Y-71900000D01*
X159245180Y-71900000D02*
X159292800Y-71995238D01*
X159292800Y-71995238D02*
X159340419Y-72042857D01*
X159911847Y-72376191D02*
X159911847Y-72757143D01*
X160245180Y-72519048D02*
X159388038Y-72519048D01*
X159388038Y-72519048D02*
X159292800Y-72566667D01*
X159292800Y-72566667D02*
X159245180Y-72661905D01*
X159245180Y-72661905D02*
X159245180Y-72757143D01*
X159245180Y-74423810D02*
X159721371Y-74090477D01*
X159245180Y-73852382D02*
X160245180Y-73852382D01*
X160245180Y-73852382D02*
X160245180Y-74233334D01*
X160245180Y-74233334D02*
X160197561Y-74328572D01*
X160197561Y-74328572D02*
X160149942Y-74376191D01*
X160149942Y-74376191D02*
X160054704Y-74423810D01*
X160054704Y-74423810D02*
X159911847Y-74423810D01*
X159911847Y-74423810D02*
X159816609Y-74376191D01*
X159816609Y-74376191D02*
X159768990Y-74328572D01*
X159768990Y-74328572D02*
X159721371Y-74233334D01*
X159721371Y-74233334D02*
X159721371Y-73852382D01*
X159292800Y-75233334D02*
X159245180Y-75138096D01*
X159245180Y-75138096D02*
X159245180Y-74947620D01*
X159245180Y-74947620D02*
X159292800Y-74852382D01*
X159292800Y-74852382D02*
X159388038Y-74804763D01*
X159388038Y-74804763D02*
X159768990Y-74804763D01*
X159768990Y-74804763D02*
X159864228Y-74852382D01*
X159864228Y-74852382D02*
X159911847Y-74947620D01*
X159911847Y-74947620D02*
X159911847Y-75138096D01*
X159911847Y-75138096D02*
X159864228Y-75233334D01*
X159864228Y-75233334D02*
X159768990Y-75280953D01*
X159768990Y-75280953D02*
X159673752Y-75280953D01*
X159673752Y-75280953D02*
X159578514Y-74804763D01*
X159911847Y-75614287D02*
X159245180Y-75852382D01*
X159245180Y-75852382D02*
X159911847Y-76090477D01*
X159245180Y-77757144D02*
X159245180Y-77185716D01*
X159245180Y-77471430D02*
X160245180Y-77471430D01*
X160245180Y-77471430D02*
X160102323Y-77376192D01*
X160102323Y-77376192D02*
X160007085Y-77280954D01*
X160007085Y-77280954D02*
X159959466Y-77185716D01*
X156666666Y-51954819D02*
X156666666Y-52669104D01*
X156666666Y-52669104D02*
X156619047Y-52811961D01*
X156619047Y-52811961D02*
X156523809Y-52907200D01*
X156523809Y-52907200D02*
X156380952Y-52954819D01*
X156380952Y-52954819D02*
X156285714Y-52954819D01*
X157047619Y-51954819D02*
X157666666Y-51954819D01*
X157666666Y-51954819D02*
X157333333Y-52335771D01*
X157333333Y-52335771D02*
X157476190Y-52335771D01*
X157476190Y-52335771D02*
X157571428Y-52383390D01*
X157571428Y-52383390D02*
X157619047Y-52431009D01*
X157619047Y-52431009D02*
X157666666Y-52526247D01*
X157666666Y-52526247D02*
X157666666Y-52764342D01*
X157666666Y-52764342D02*
X157619047Y-52859580D01*
X157619047Y-52859580D02*
X157571428Y-52907200D01*
X157571428Y-52907200D02*
X157476190Y-52954819D01*
X157476190Y-52954819D02*
X157190476Y-52954819D01*
X157190476Y-52954819D02*
X157095238Y-52907200D01*
X157095238Y-52907200D02*
X157047619Y-52859580D01*
X156666666Y-42954819D02*
X156666666Y-43669104D01*
X156666666Y-43669104D02*
X156619047Y-43811961D01*
X156619047Y-43811961D02*
X156523809Y-43907200D01*
X156523809Y-43907200D02*
X156380952Y-43954819D01*
X156380952Y-43954819D02*
X156285714Y-43954819D01*
X157095238Y-43050057D02*
X157142857Y-43002438D01*
X157142857Y-43002438D02*
X157238095Y-42954819D01*
X157238095Y-42954819D02*
X157476190Y-42954819D01*
X157476190Y-42954819D02*
X157571428Y-43002438D01*
X157571428Y-43002438D02*
X157619047Y-43050057D01*
X157619047Y-43050057D02*
X157666666Y-43145295D01*
X157666666Y-43145295D02*
X157666666Y-43240533D01*
X157666666Y-43240533D02*
X157619047Y-43383390D01*
X157619047Y-43383390D02*
X157047619Y-43954819D01*
X157047619Y-43954819D02*
X157666666Y-43954819D01*
X158116666Y-97354819D02*
X158116666Y-98069104D01*
X158116666Y-98069104D02*
X158069047Y-98211961D01*
X158069047Y-98211961D02*
X157973809Y-98307200D01*
X157973809Y-98307200D02*
X157830952Y-98354819D01*
X157830952Y-98354819D02*
X157735714Y-98354819D01*
X159116666Y-98354819D02*
X158545238Y-98354819D01*
X158830952Y-98354819D02*
X158830952Y-97354819D01*
X158830952Y-97354819D02*
X158735714Y-97497676D01*
X158735714Y-97497676D02*
X158640476Y-97592914D01*
X158640476Y-97592914D02*
X158545238Y-97640533D01*
X156666666Y-69954819D02*
X156666666Y-70669104D01*
X156666666Y-70669104D02*
X156619047Y-70811961D01*
X156619047Y-70811961D02*
X156523809Y-70907200D01*
X156523809Y-70907200D02*
X156380952Y-70954819D01*
X156380952Y-70954819D02*
X156285714Y-70954819D01*
X157619047Y-69954819D02*
X157142857Y-69954819D01*
X157142857Y-69954819D02*
X157095238Y-70431009D01*
X157095238Y-70431009D02*
X157142857Y-70383390D01*
X157142857Y-70383390D02*
X157238095Y-70335771D01*
X157238095Y-70335771D02*
X157476190Y-70335771D01*
X157476190Y-70335771D02*
X157571428Y-70383390D01*
X157571428Y-70383390D02*
X157619047Y-70431009D01*
X157619047Y-70431009D02*
X157666666Y-70526247D01*
X157666666Y-70526247D02*
X157666666Y-70764342D01*
X157666666Y-70764342D02*
X157619047Y-70859580D01*
X157619047Y-70859580D02*
X157571428Y-70907200D01*
X157571428Y-70907200D02*
X157476190Y-70954819D01*
X157476190Y-70954819D02*
X157238095Y-70954819D01*
X157238095Y-70954819D02*
X157142857Y-70907200D01*
X157142857Y-70907200D02*
X157095238Y-70859580D01*
X156666666Y-60954819D02*
X156666666Y-61669104D01*
X156666666Y-61669104D02*
X156619047Y-61811961D01*
X156619047Y-61811961D02*
X156523809Y-61907200D01*
X156523809Y-61907200D02*
X156380952Y-61954819D01*
X156380952Y-61954819D02*
X156285714Y-61954819D01*
X157571428Y-61288152D02*
X157571428Y-61954819D01*
X157333333Y-60907200D02*
X157095238Y-61621485D01*
X157095238Y-61621485D02*
X157714285Y-61621485D01*
X156616666Y-88454819D02*
X156616666Y-89169104D01*
X156616666Y-89169104D02*
X156569047Y-89311961D01*
X156569047Y-89311961D02*
X156473809Y-89407200D01*
X156473809Y-89407200D02*
X156330952Y-89454819D01*
X156330952Y-89454819D02*
X156235714Y-89454819D01*
X156997619Y-88454819D02*
X157664285Y-88454819D01*
X157664285Y-88454819D02*
X157235714Y-89454819D01*
X156666666Y-78954819D02*
X156666666Y-79669104D01*
X156666666Y-79669104D02*
X156619047Y-79811961D01*
X156619047Y-79811961D02*
X156523809Y-79907200D01*
X156523809Y-79907200D02*
X156380952Y-79954819D01*
X156380952Y-79954819D02*
X156285714Y-79954819D01*
X157571428Y-78954819D02*
X157380952Y-78954819D01*
X157380952Y-78954819D02*
X157285714Y-79002438D01*
X157285714Y-79002438D02*
X157238095Y-79050057D01*
X157238095Y-79050057D02*
X157142857Y-79192914D01*
X157142857Y-79192914D02*
X157095238Y-79383390D01*
X157095238Y-79383390D02*
X157095238Y-79764342D01*
X157095238Y-79764342D02*
X157142857Y-79859580D01*
X157142857Y-79859580D02*
X157190476Y-79907200D01*
X157190476Y-79907200D02*
X157285714Y-79954819D01*
X157285714Y-79954819D02*
X157476190Y-79954819D01*
X157476190Y-79954819D02*
X157571428Y-79907200D01*
X157571428Y-79907200D02*
X157619047Y-79859580D01*
X157619047Y-79859580D02*
X157666666Y-79764342D01*
X157666666Y-79764342D02*
X157666666Y-79526247D01*
X157666666Y-79526247D02*
X157619047Y-79431009D01*
X157619047Y-79431009D02*
X157571428Y-79383390D01*
X157571428Y-79383390D02*
X157476190Y-79335771D01*
X157476190Y-79335771D02*
X157285714Y-79335771D01*
X157285714Y-79335771D02*
X157190476Y-79383390D01*
X157190476Y-79383390D02*
X157142857Y-79431009D01*
X157142857Y-79431009D02*
X157095238Y-79526247D01*
D12*
%TO.C,J3*%
X150000000Y-53450000D02*
X150000000Y-54520000D01*
X150000000Y-56680000D02*
X150000000Y-58660000D01*
X150000000Y-58660000D02*
X157900000Y-58660000D01*
X152290000Y-53450000D02*
X150000000Y-53450000D01*
X157900000Y-53450000D02*
X155610000Y-53450000D01*
X157900000Y-54520000D02*
X157900000Y-53450000D01*
X157900000Y-58660000D02*
X157900000Y-56680000D01*
D13*
X150280000Y-52660000D02*
G75*
G02*
X150220000Y-52660000I-30000J0D01*
G01*
X150220000Y-52660000D02*
G75*
G02*
X150280000Y-52660000I30000J0D01*
G01*
D14*
D12*
%TO.C,J2*%
X150000000Y-44350000D02*
X150000000Y-45420000D01*
X150000000Y-47580000D02*
X150000000Y-49560000D01*
X150000000Y-49560000D02*
X157900000Y-49560000D01*
X152290000Y-44350000D02*
X150000000Y-44350000D01*
X157900000Y-44350000D02*
X155610000Y-44350000D01*
X157900000Y-45420000D02*
X157900000Y-44350000D01*
X157900000Y-49560000D02*
X157900000Y-47580000D01*
D13*
X150280000Y-43560000D02*
G75*
G02*
X150220000Y-43560000I-30000J0D01*
G01*
X150220000Y-43560000D02*
G75*
G02*
X150280000Y-43560000I30000J0D01*
G01*
D14*
D12*
%TO.C,J1*%
X148550000Y-98950000D02*
X148550000Y-100020000D01*
X148550000Y-102180000D02*
X148550000Y-104160000D01*
X148550000Y-104160000D02*
X159450000Y-104160000D01*
X150840000Y-98950000D02*
X148550000Y-98950000D01*
X159450000Y-98950000D02*
X157160000Y-98950000D01*
X159450000Y-100020000D02*
X159450000Y-98950000D01*
X159450000Y-104160000D02*
X159450000Y-102180000D01*
D13*
X148830000Y-98200000D02*
G75*
G02*
X148770000Y-98200000I-30000J0D01*
G01*
X148770000Y-98200000D02*
G75*
G02*
X148830000Y-98200000I30000J0D01*
G01*
D14*
D12*
%TO.C,J5*%
X150000000Y-71650000D02*
X150000000Y-72720000D01*
X150000000Y-74880000D02*
X150000000Y-76860000D01*
X150000000Y-76860000D02*
X157900000Y-76860000D01*
X152290000Y-71650000D02*
X150000000Y-71650000D01*
X157900000Y-71650000D02*
X155610000Y-71650000D01*
X157900000Y-72720000D02*
X157900000Y-71650000D01*
X157900000Y-76860000D02*
X157900000Y-74880000D01*
D13*
X150280000Y-70860000D02*
G75*
G02*
X150220000Y-70860000I-30000J0D01*
G01*
X150220000Y-70860000D02*
G75*
G02*
X150280000Y-70860000I30000J0D01*
G01*
D14*
D12*
%TO.C,J4*%
X150000000Y-62550000D02*
X150000000Y-63620000D01*
X150000000Y-65780000D02*
X150000000Y-67760000D01*
X150000000Y-67760000D02*
X157900000Y-67760000D01*
X152290000Y-62550000D02*
X150000000Y-62550000D01*
X157900000Y-62550000D02*
X155610000Y-62550000D01*
X157900000Y-63620000D02*
X157900000Y-62550000D01*
X157900000Y-67760000D02*
X157900000Y-65780000D01*
D13*
X150280000Y-61760000D02*
G75*
G02*
X150220000Y-61760000I-30000J0D01*
G01*
X150220000Y-61760000D02*
G75*
G02*
X150280000Y-61760000I30000J0D01*
G01*
D14*
D12*
%TO.C,J7*%
X150000000Y-89850000D02*
X150000000Y-90920000D01*
X150000000Y-93080000D02*
X150000000Y-95060000D01*
X150000000Y-95060000D02*
X157900000Y-95060000D01*
X152290000Y-89850000D02*
X150000000Y-89850000D01*
X157900000Y-89850000D02*
X155610000Y-89850000D01*
X157900000Y-90920000D02*
X157900000Y-89850000D01*
X157900000Y-95060000D02*
X157900000Y-93080000D01*
D13*
X150280000Y-89060000D02*
G75*
G02*
X150220000Y-89060000I-30000J0D01*
G01*
X150220000Y-89060000D02*
G75*
G02*
X150280000Y-89060000I30000J0D01*
G01*
D14*
D12*
%TO.C,J6*%
X150000000Y-80750000D02*
X150000000Y-81820000D01*
X150000000Y-83980000D02*
X150000000Y-85960000D01*
X150000000Y-85960000D02*
X157900000Y-85960000D01*
X152290000Y-80750000D02*
X150000000Y-80750000D01*
X157900000Y-80750000D02*
X155610000Y-80750000D01*
X157900000Y-81820000D02*
X157900000Y-80750000D01*
X157900000Y-85960000D02*
X157900000Y-83980000D01*
D13*
X150280000Y-79960000D02*
G75*
G02*
X150220000Y-79960000I-30000J0D01*
G01*
X150220000Y-79960000D02*
G75*
G02*
X150280000Y-79960000I30000J0D01*
G01*
D14*
%TD*%
%LPC*%
D15*
%TO.C,J3*%
X152700000Y-53000000D03*
X153200000Y-53000000D03*
X153700000Y-53000000D03*
X154200000Y-53000000D03*
X154700000Y-53000000D03*
X155200000Y-53000000D03*
D16*
X156900000Y-55600000D03*
X151000000Y-55600000D03*
%TD*%
D15*
%TO.C,J2*%
X152700000Y-43900000D03*
X153200000Y-43900000D03*
X153700000Y-43900000D03*
X154200000Y-43900000D03*
X154700000Y-43900000D03*
X155200000Y-43900000D03*
D16*
X156900000Y-46500000D03*
X151000000Y-46500000D03*
%TD*%
D17*
%TO.C,H3*%
X148800000Y-87900000D03*
%TD*%
D18*
%TO.C,J1*%
X151250000Y-98500000D03*
X151750000Y-98500000D03*
X152250000Y-98500000D03*
X152750000Y-98500000D03*
X153250000Y-98500000D03*
X153750000Y-98500000D03*
X154250000Y-98500000D03*
X154750000Y-98500000D03*
X155250000Y-98500000D03*
X155750000Y-98500000D03*
X156250000Y-98500000D03*
X156750000Y-98500000D03*
D16*
X158450000Y-101100000D03*
X149550000Y-101100000D03*
%TD*%
D15*
%TO.C,J5*%
X152700000Y-71200000D03*
X153200000Y-71200000D03*
X153700000Y-71200000D03*
X154200000Y-71200000D03*
X154700000Y-71200000D03*
X155200000Y-71200000D03*
D16*
X156900000Y-73800000D03*
X151000000Y-73800000D03*
%TD*%
D17*
%TO.C,H2*%
X159100000Y-51500000D03*
%TD*%
%TO.C,H1*%
X148800000Y-51500000D03*
%TD*%
D15*
%TO.C,J4*%
X152700000Y-62100000D03*
X153200000Y-62100000D03*
X153700000Y-62100000D03*
X154200000Y-62100000D03*
X154700000Y-62100000D03*
X155200000Y-62100000D03*
D16*
X156900000Y-64700000D03*
X151000000Y-64700000D03*
%TD*%
D15*
%TO.C,J7*%
X152700000Y-89400000D03*
X153200000Y-89400000D03*
X153700000Y-89400000D03*
X154200000Y-89400000D03*
X154700000Y-89400000D03*
X155200000Y-89400000D03*
D16*
X156900000Y-92000000D03*
X151000000Y-92000000D03*
%TD*%
D17*
%TO.C,H4*%
X159100000Y-87900000D03*
%TD*%
D15*
%TO.C,J6*%
X152700000Y-80300000D03*
X153200000Y-80300000D03*
X153700000Y-80300000D03*
X154200000Y-80300000D03*
X154700000Y-80300000D03*
X155200000Y-80300000D03*
D16*
X156900000Y-82900000D03*
X151000000Y-82900000D03*
%TD*%
%LPD*%
M02*
