%TF.GenerationSoftware,KiCad,Pcbnew,9.0.8+dfsg-1*%
%TF.CreationDate,2026-10-04T13:19:08-06:00*%
%TF.ProjectId,columnBreakout,636f6c75-6d6e-4427-9265-616b6f75742e,rev?*%
%TF.SameCoordinates,Original*%
%TF.FileFunction,Copper,L1,Top*%
%TF.FilePolarity,Positive*%
%FSLAX46Y46*%
G04 Gerber Fmt 4.6, Leading zero omitted, Abs format (unit mm)*
G04 Created by KiCad (PCBNEW 9.0.8+dfsg-1) date 2026-10-04 13:19:08*
%MOMM*%
%LPD*%
G01*
G04 APERTURE LIST*
%TA.AperFunction,SMDPad,CuDef*%
%ADD10R,0.250000X1.500000*%
%TD*%
%TA.AperFunction,SMDPad,CuDef*%
%ADD11R,2.000000X1.700000*%
%TD*%
%TA.AperFunction,SMDPad,CuDef*%
%ADD12R,0.300000X1.500000*%
%TD*%
%TA.AperFunction,ViaPad*%
%ADD13C,0.450000*%
%TD*%
%TA.AperFunction,Conductor*%
%ADD14C,0.250000*%
%TD*%
%TA.AperFunction,Conductor*%
%ADD15C,0.200000*%
%TD*%
%TA.AperFunction,Conductor*%
%ADD16C,0.150000*%
%TD*%
G04 APERTURE END LIST*
D10*
%TO.P,J3,1,R1*%
%TO.N,/R1*%
X152700000Y-53000000D03*
%TO.P,J3,2,C*%
%TO.N,/VDD*%
X153200000Y-53000000D03*
%TO.P,J3,3,IN1*%
%TO.N,/GND*%
X153700000Y-53000000D03*
%TO.P,J3,4,IN2*%
%TO.N,/IN2*%
X154200000Y-53000000D03*
%TO.P,J3,5,GND*%
%TO.N,/IN1*%
X154700000Y-53000000D03*
%TO.P,J3,6,VDD*%
%TO.N,/C*%
X155200000Y-53000000D03*
D11*
%TO.P,J3,7,7*%
%TO.N,unconnected-(J3-Pad7)*%
X156900000Y-55600000D03*
%TO.P,J3,8,8*%
%TO.N,unconnected-(J3-Pad8)*%
X151000000Y-55600000D03*
%TD*%
D10*
%TO.P,J2,1,R0*%
%TO.N,/R0*%
X152700000Y-43900000D03*
%TO.P,J2,2,C*%
%TO.N,/VDD*%
X153200000Y-43900000D03*
%TO.P,J2,3,IN0*%
%TO.N,/GND*%
X153700000Y-43900000D03*
%TO.P,J2,4,IN1*%
%TO.N,/IN1*%
X154200000Y-43900000D03*
%TO.P,J2,5,GND*%
%TO.N,/IN0*%
X154700000Y-43900000D03*
%TO.P,J2,6,VDD*%
%TO.N,/C*%
X155200000Y-43900000D03*
D11*
%TO.P,J2,7,7*%
%TO.N,unconnected-(J2-Pad7)*%
X156900000Y-46500000D03*
%TO.P,J2,8,8*%
%TO.N,unconnected-(J2-Pad8)*%
X151000000Y-46500000D03*
%TD*%
D12*
%TO.P,J1,1*%
%TO.N,/R0*%
X151250000Y-98500000D03*
%TO.P,J1,2,C*%
%TO.N,/R1*%
X151750000Y-98500000D03*
%TO.P,J1,3,IN0*%
%TO.N,/R2*%
X152250000Y-98500000D03*
%TO.P,J1,4,IN6*%
%TO.N,/R3*%
X152750000Y-98500000D03*
%TO.P,J1,5,GND*%
%TO.N,/R4*%
X153250000Y-98500000D03*
%TO.P,J1,6,VDD*%
%TO.N,/R5*%
X153750000Y-98500000D03*
%TO.P,J1,7,R5*%
%TO.N,/VDD*%
X154250000Y-98500000D03*
%TO.P,J1,8,R4*%
%TO.N,/GND*%
X154750000Y-98500000D03*
%TO.P,J1,9,R3*%
%TO.N,/IN6*%
X155250000Y-98500000D03*
%TO.P,J1,10,R2*%
%TO.N,/IN0*%
X155750000Y-98500000D03*
%TO.P,J1,11,R1*%
%TO.N,/C*%
X156250000Y-98500000D03*
%TO.P,J1,12,R0*%
%TO.N,unconnected-(J1-Pad12)*%
X156750000Y-98500000D03*
D11*
%TO.P,J1,13,13*%
%TO.N,unconnected-(J1-Pad13)*%
X158450000Y-101100000D03*
%TO.P,J1,14,14*%
%TO.N,unconnected-(J1-Pad14)*%
X149550000Y-101100000D03*
%TD*%
D10*
%TO.P,J5,1,R3*%
%TO.N,/R3*%
X152700000Y-71200000D03*
%TO.P,J5,2,C*%
%TO.N,/VDD*%
X153200000Y-71200000D03*
%TO.P,J5,3,IN3*%
%TO.N,/GND*%
X153700000Y-71200000D03*
%TO.P,J5,4,IN4*%
%TO.N,/IN4*%
X154200000Y-71200000D03*
%TO.P,J5,5,GND*%
%TO.N,/IN3*%
X154700000Y-71200000D03*
%TO.P,J5,6,VDD*%
%TO.N,/C*%
X155200000Y-71200000D03*
D11*
%TO.P,J5,7,7*%
%TO.N,unconnected-(J5-Pad7)*%
X156900000Y-73800000D03*
%TO.P,J5,8,8*%
%TO.N,unconnected-(J5-Pad8)*%
X151000000Y-73800000D03*
%TD*%
D10*
%TO.P,J4,1,R2*%
%TO.N,/R2*%
X152700000Y-62100000D03*
%TO.P,J4,2,C*%
%TO.N,/VDD*%
X153200000Y-62100000D03*
%TO.P,J4,3,IN2*%
%TO.N,/GND*%
X153700000Y-62100000D03*
%TO.P,J4,4,IN3*%
%TO.N,/IN3*%
X154200000Y-62100000D03*
%TO.P,J4,5,GND*%
%TO.N,/IN2*%
X154700000Y-62100000D03*
%TO.P,J4,6,VDD*%
%TO.N,/C*%
X155200000Y-62100000D03*
D11*
%TO.P,J4,7,7*%
%TO.N,unconnected-(J4-Pad7)*%
X156900000Y-64700000D03*
%TO.P,J4,8,8*%
%TO.N,unconnected-(J4-Pad8)*%
X151000000Y-64700000D03*
%TD*%
D10*
%TO.P,J7,1,R5*%
%TO.N,/R5*%
X152700000Y-89400000D03*
%TO.P,J7,2,C*%
%TO.N,/VDD*%
X153200000Y-89400000D03*
%TO.P,J7,3,IN5*%
%TO.N,/GND*%
X153700000Y-89400000D03*
%TO.P,J7,4,IN6*%
%TO.N,/IN6*%
X154200000Y-89400000D03*
%TO.P,J7,5,GND*%
%TO.N,/IN5*%
X154700000Y-89400000D03*
%TO.P,J7,6,VDD*%
%TO.N,/C*%
X155200000Y-89400000D03*
D11*
%TO.P,J7,7,7*%
%TO.N,unconnected-(J7-Pad7)*%
X156900000Y-92000000D03*
%TO.P,J7,8,8*%
%TO.N,unconnected-(J7-Pad8)*%
X151000000Y-92000000D03*
%TD*%
D10*
%TO.P,J6,1,R4*%
%TO.N,/R4*%
X152700000Y-80300000D03*
%TO.P,J6,2,C*%
%TO.N,/VDD*%
X153200000Y-80300000D03*
%TO.P,J6,3,IN4*%
%TO.N,/GND*%
X153700000Y-80300000D03*
%TO.P,J6,4,IN5*%
%TO.N,/IN5*%
X154200000Y-80300000D03*
%TO.P,J6,5,GND*%
%TO.N,/IN4*%
X154700000Y-80300000D03*
%TO.P,J6,6,VDD*%
%TO.N,/C*%
X155200000Y-80300000D03*
D11*
%TO.P,J6,7,7*%
%TO.N,unconnected-(J6-Pad7)*%
X156900000Y-82900000D03*
%TO.P,J6,8,8*%
%TO.N,unconnected-(J6-Pad8)*%
X151000000Y-82900000D03*
%TD*%
D13*
%TO.N,/GND*%
X154777796Y-97400450D03*
X153770878Y-72203666D03*
X153800000Y-79100000D03*
X153800000Y-88250000D03*
X153775147Y-54012427D03*
X153800000Y-60900000D03*
X153800000Y-45650000D03*
%TO.N,/IN0*%
X155750000Y-97400000D03*
X154700000Y-44950000D03*
%TO.N,/R0*%
X152700000Y-44968001D03*
X151650000Y-99625002D03*
%TO.N,/R1*%
X152264124Y-53985876D03*
X151766965Y-96544079D03*
%TO.N,/R2*%
X152475000Y-63209186D03*
X152250000Y-97400000D03*
%TO.N,/VDD*%
X153100000Y-45650000D03*
X153100000Y-79100000D03*
X153100000Y-88250000D03*
X154152799Y-97398250D03*
X153102479Y-72202253D03*
X153102479Y-54002253D03*
X153100000Y-60900000D03*
%TD*%
D14*
%TO.N,/C*%
X156250000Y-93650000D02*
X156250000Y-98500000D01*
X155200000Y-43900000D02*
X155200000Y-89400000D01*
X155200000Y-92600000D02*
X156250000Y-93650000D01*
X155200000Y-89400000D02*
X155200000Y-92600000D01*
%TO.N,/GND*%
X153700000Y-45550000D02*
X153700000Y-43900000D01*
X154777796Y-97400450D02*
X154777796Y-97522204D01*
X153700000Y-53000000D02*
X153700000Y-53937280D01*
X154777796Y-97522204D02*
X154750000Y-97550000D01*
X153800000Y-45650000D02*
X153700000Y-45550000D01*
X153800000Y-79100000D02*
X153700000Y-79200000D01*
X153700000Y-79200000D02*
X153700000Y-80266508D01*
X153700000Y-53937280D02*
X153775147Y-54012427D01*
X153800000Y-88250000D02*
X153700000Y-88350000D01*
X153700000Y-61000000D02*
X153700000Y-62166508D01*
X153700000Y-72132788D02*
X153770878Y-72203666D01*
X153700000Y-71166508D02*
X153700000Y-72132788D01*
X154750000Y-97550000D02*
X154750000Y-98500000D01*
X153800000Y-60900000D02*
X153700000Y-61000000D01*
X153700000Y-88350000D02*
X153700000Y-89400000D01*
D15*
%TO.N,/IN0*%
X154700000Y-44950000D02*
X154700000Y-43900000D01*
X155750000Y-97400000D02*
X155750000Y-98500000D01*
%TO.N,/IN1*%
X154200000Y-43900000D02*
X154200000Y-45200000D01*
X154200000Y-45200000D02*
X154700000Y-45700000D01*
X154700000Y-45700000D02*
X154700000Y-53000000D01*
%TO.N,/IN2*%
X154200000Y-53000000D02*
X154200000Y-53800000D01*
X154200000Y-53800000D02*
X154700000Y-54300000D01*
X154700000Y-54300000D02*
X154700000Y-62100000D01*
%TO.N,/IN3*%
X154200000Y-62100000D02*
X154200000Y-62900000D01*
X154200000Y-62900000D02*
X154700000Y-63400000D01*
X154700000Y-63400000D02*
X154700000Y-71200000D01*
%TO.N,/IN4*%
X154700000Y-72500000D02*
X154700000Y-80300000D01*
X154200000Y-72000000D02*
X154700000Y-72500000D01*
X154200000Y-71200000D02*
X154200000Y-72000000D01*
%TO.N,/IN5*%
X154200000Y-80300000D02*
X154200000Y-81100000D01*
X154700000Y-81600000D02*
X154700000Y-89400000D01*
X154200000Y-81100000D02*
X154700000Y-81600000D01*
%TO.N,/IN6*%
X155250000Y-97200902D02*
X155252796Y-97203698D01*
X154200000Y-90165954D02*
X154350000Y-90315954D01*
X155250000Y-93750000D02*
X155250000Y-97200902D01*
X155252796Y-97203698D02*
X155252796Y-97597202D01*
X154350000Y-90315954D02*
X154350000Y-92850000D01*
X155252796Y-97597202D02*
X155250000Y-97599998D01*
X154350000Y-92850000D02*
X155250000Y-93750000D01*
X155250000Y-97599998D02*
X155250000Y-98500000D01*
X154200000Y-89400000D02*
X154200000Y-90165954D01*
%TO.N,/R0*%
X151300000Y-98550000D02*
X151250000Y-98500000D01*
X151650000Y-99625002D02*
X151575002Y-99625002D01*
X151575002Y-99625002D02*
X151300000Y-99350000D01*
X152700000Y-44968001D02*
X152700000Y-43900000D01*
X151300000Y-99350000D02*
X151300000Y-98550000D01*
%TO.N,/R1*%
X151750000Y-96561044D02*
X151750000Y-98500000D01*
X151766965Y-96544079D02*
X151750000Y-96561044D01*
X152700000Y-53550000D02*
X152700000Y-53000000D01*
X152264124Y-53985876D02*
X152700000Y-53550000D01*
%TO.N,/R2*%
X152250000Y-97400000D02*
X152250000Y-98500000D01*
X152700000Y-62984186D02*
X152700000Y-62100000D01*
X152475000Y-63209186D02*
X152700000Y-62984186D01*
%TO.N,/R3*%
X152700000Y-71900000D02*
X152250000Y-72350000D01*
X152700000Y-71200000D02*
X152700000Y-71900000D01*
X151950000Y-90600000D02*
X152750000Y-91400000D01*
X152350000Y-81850000D02*
X152350000Y-85105026D01*
X152750000Y-91400000D02*
X152750000Y-98500000D01*
X152250000Y-81750000D02*
X152350000Y-81850000D01*
X151950000Y-85505026D02*
X151950000Y-90600000D01*
X152350000Y-85105026D02*
X151950000Y-85505026D01*
X152250000Y-72350000D02*
X152250000Y-81750000D01*
%TO.N,/R4*%
X153250000Y-91250000D02*
X152300000Y-90300000D01*
X153250000Y-98500000D02*
X153250000Y-91250000D01*
X152300000Y-90300000D02*
X152300000Y-85650000D01*
X152700000Y-85250000D02*
X152700000Y-80300000D01*
X152300000Y-85650000D02*
X152700000Y-85250000D01*
%TO.N,/R5*%
X152700000Y-90150000D02*
X153677799Y-91127799D01*
X153750000Y-97667203D02*
X153750000Y-98500000D01*
X152700000Y-89400000D02*
X152700000Y-90150000D01*
X153677799Y-91127799D02*
X153677799Y-97595002D01*
X153677799Y-97595002D02*
X153750000Y-97667203D01*
D14*
%TO.N,/VDD*%
X153200000Y-53000000D02*
X153200000Y-53904732D01*
X154152799Y-97398250D02*
X154152799Y-97402799D01*
X153200000Y-79200000D02*
X153200000Y-80300000D01*
X154250000Y-97500000D02*
X154250000Y-98500000D01*
X153100000Y-88250000D02*
X153200000Y-88350000D01*
X153200000Y-72104732D02*
X153102479Y-72202253D01*
D16*
X153100000Y-45650000D02*
X153147747Y-45602253D01*
D14*
X153200000Y-71200000D02*
X153200000Y-72104732D01*
X153200000Y-88350000D02*
X153200000Y-89400000D01*
X154152799Y-97402799D02*
X154250000Y-97500000D01*
X153200000Y-43900000D02*
X153200000Y-45550000D01*
X153100000Y-79100000D02*
X153200000Y-79200000D01*
X154225000Y-98475000D02*
X154250000Y-98500000D01*
X153200000Y-53904732D02*
X153102479Y-54002253D01*
X153200000Y-45550000D02*
X153100000Y-45650000D01*
D16*
X153175000Y-88325000D02*
X153100000Y-88250000D01*
D14*
X153100000Y-60900000D02*
X153200000Y-61000000D01*
X153200000Y-61000000D02*
X153200000Y-62100000D01*
%TD*%
M02*
