M48
; DRILL file {KiCad 9.0.8-4-g1ee99dff} date 2026-10-06T23:02:16-0600
; FORMAT={-:-/ absolute / metric / decimal}
; #@! TF.CreationDate,2026-10-06T23:02:16-06:00
; #@! TF.GenerationSoftware,Kicad,Pcbnew,9.0.8-4-g1ee99dff
; #@! TF.FileFunction,Plated,1,2,PTH
FMAT,2
METRIC
; #@! TA.AperFunction,Plated,PTH,ViaDrill
T1C0.200
%
G90
G05
T1
X11.2Y65.3
X11.2Y56.2
X11.2Y47.1
X11.2Y38.0
X11.2Y28.9
X11.2Y19.8
X11.7Y64.6
X11.7Y55.4
X11.7Y46.3
X11.7Y37.25
X11.7Y28.1
X11.7Y19.1
X12.2Y63.7
X12.2Y54.6
X12.2Y45.5
X12.2Y36.4
X12.2Y27.2
X12.2Y18.4
X12.7Y15.8
X13.2Y62.35
X13.7Y16.4
X16.7Y65.3
X17.2Y56.2
X17.7Y47.1
X18.2Y38.0
X18.7Y28.9
X19.2Y19.8
X19.9Y64.6
X19.9Y55.4
X19.9Y46.3
X19.9Y37.25
X19.9Y28.1
X19.9Y19.1
X20.6Y63.7
X20.6Y54.6
X20.6Y45.5
X20.6Y36.4
X20.6Y27.2
X20.6Y18.4
X20.7Y10.7
X21.25Y62.35
X21.25Y17.6
X21.7Y16.4
X21.85Y62.9
X25.0Y65.3
X25.0Y56.2
X25.0Y47.1
X25.0Y38.0
X25.0Y28.9
X25.0Y19.8
X25.5Y64.6
X25.5Y55.4
X25.5Y46.3
X25.5Y37.25
X25.5Y28.1
X25.5Y19.1
X26.0Y63.7
X26.0Y54.6
X26.0Y45.5
X26.0Y36.4
X26.0Y27.2
X26.0Y18.4
X26.5Y17.6
X27.0Y62.9
X39.9Y65.3
X39.9Y56.2
X39.9Y47.1
X39.9Y38.0
X39.9Y28.9
X39.9Y19.8
X40.4Y37.25
X40.4Y19.1
X40.4Y64.6
X40.4Y55.4
X40.4Y46.3
X40.4Y28.1
X40.9Y63.7
X40.9Y54.6
X40.9Y45.5
X40.9Y36.4
X40.9Y27.2
X40.9Y18.4
X41.4Y17.2
X41.9Y62.2
X42.4Y17.7
X45.4Y65.3
X45.9Y56.2
X46.4Y47.1
X46.9Y38.0
X47.4Y28.9
X47.9Y19.8
X48.6Y64.6
X48.6Y55.4
X48.6Y46.3
X48.6Y37.25
X48.6Y28.1
X48.6Y19.1
X49.3Y63.7
X49.3Y54.6
X49.3Y45.5
X49.3Y36.4
X49.3Y27.2
X49.3Y18.4
X49.4Y10.7
X49.925Y62.9
X50.35Y12.9
X50.4Y62.2
X50.4Y26.5
X50.4Y25.8
X51.4Y17.7
X53.7Y56.2
X53.7Y47.1
X53.7Y38.0
X53.7Y28.9
X54.2Y55.4
X54.2Y46.3
X54.2Y37.25
X54.2Y28.1
X54.7Y54.6
X54.7Y45.5
X54.7Y36.4
X54.7Y27.2
X55.2Y26.5
X55.7Y53.4
X56.2Y25.8
X67.05Y53.4
X67.5Y65.3
X67.5Y56.2
X67.5Y47.1
X67.5Y38.0
X67.5Y28.9
X67.5Y19.8
X68.0Y64.6
X68.0Y55.4
X68.0Y46.3
X68.0Y37.25
X68.0Y28.1
X68.0Y19.1
X68.5Y54.6
X68.5Y45.5
X68.5Y36.4
X68.5Y27.2
X68.5Y18.4
X68.55Y63.7
X69.5Y62.9
X70.0Y17.7
X81.95Y53.4
X82.4Y65.3
X82.4Y56.2
X82.4Y47.1
X82.4Y38.0
X82.4Y28.9
X82.4Y19.8
X82.9Y64.6
X82.9Y55.4
X82.9Y46.3
X82.9Y37.25
X82.9Y28.1
X82.9Y19.1
X83.4Y54.6
X83.4Y45.5
X83.4Y36.4
X83.4Y27.2
X83.4Y18.4
X83.45Y63.7
X84.4Y62.9
X84.9Y17.7
X96.2Y56.2
X96.2Y47.1
X96.2Y38.0
X96.2Y28.9
X96.7Y55.4
X96.7Y46.3
X96.7Y37.25
X96.7Y28.1
X97.2Y54.6
X97.2Y45.5
X97.2Y36.4
X97.2Y27.2
X97.7Y26.5
X98.2Y53.4
X98.7Y25.8
X101.9Y65.3
X102.4Y56.2
X102.9Y47.1
X103.4Y38.0
X103.9Y28.9
X104.4Y19.8
X105.1Y64.6
X105.1Y55.4
X105.1Y46.3
X105.1Y37.25
X105.1Y28.1
X105.1Y19.1
X105.8Y63.7
X105.8Y54.6
X105.8Y45.5
X105.8Y36.4
X105.8Y27.2
X105.8Y18.4
X105.9Y10.6
X106.425Y62.9
X106.9Y62.2
X106.9Y26.5
X106.9Y25.8
X106.9Y16.7
X107.9Y10.1
X110.0Y65.3
X110.0Y56.2
X110.0Y47.1
X110.0Y38.0
X110.0Y28.9
X110.0Y19.8
X110.5Y37.25
X110.5Y19.1
X110.5Y64.6
X110.5Y55.4
X110.5Y46.3
X110.5Y28.1
X111.0Y63.7
X111.0Y54.6
X111.0Y45.5
X111.0Y36.4
X111.0Y27.2
X111.0Y18.4
X111.5Y17.7
X112.0Y62.2
X112.5Y16.7
X124.9Y65.3
X124.9Y56.2
X124.9Y47.1
X124.9Y38.0
X124.9Y28.9
X124.9Y19.8
X125.4Y64.6
X125.4Y55.4
X125.4Y46.3
X125.4Y37.25
X125.4Y28.1
X125.4Y19.1
X125.9Y63.7
X125.9Y54.6
X125.9Y45.5
X125.9Y36.4
X125.9Y27.2
X125.9Y18.4
X126.4Y17.4
X126.9Y62.9
X127.4Y16.0
X130.4Y65.3
X130.9Y56.2
X131.4Y47.1
X131.9Y38.0
X132.4Y28.9
X132.9Y19.8
X133.6Y64.6
X133.6Y55.4
X133.6Y46.3
X133.6Y37.25
X133.6Y28.1
X133.6Y19.1
X134.3Y63.7
X134.3Y54.6
X134.3Y45.5
X134.3Y36.4
X134.3Y27.2
X134.3Y18.4
X134.4Y10.7
X134.95Y62.35
X134.95Y17.4
X135.55Y62.9
X135.9Y16.0
X138.7Y65.3
X138.7Y56.2
X138.7Y47.1
X138.7Y38.0
X138.7Y28.9
X138.7Y19.8
X139.2Y64.6
X139.2Y55.4
X139.2Y46.3
X139.2Y37.25
X139.2Y28.1
X139.2Y19.1
X139.7Y63.7
X139.7Y54.6
X139.7Y45.5
X139.7Y36.4
X139.7Y27.2
X139.7Y18.4
X140.2Y19.1
X140.7Y62.35
M30
