%TF.GenerationSoftware,KiCad,Pcbnew,9.0.8-4-g1ee99dff*%
%TF.CreationDate,2026-10-06T23:02:15-06:00*%
%TF.ProjectId,keyboardBreakoutPanel,6b657962-6f61-4726-9442-7265616b6f75,1*%
%TF.SameCoordinates,Original*%
%TF.FileFunction,Copper,L1,Top*%
%TF.FilePolarity,Positive*%
%FSLAX46Y46*%
G04 Gerber Fmt 4.6, Leading zero omitted, Abs format (unit mm)*
G04 Created by KiCad (PCBNEW 9.0.8-4-g1ee99dff) date 2026-10-06 23:02:15*
%MOMM*%
%LPD*%
G01*
G04 APERTURE LIST*
%TA.AperFunction,SMDPad,CuDef*%
%ADD10R,0.250000X1.500000*%
%TD*%
%TA.AperFunction,SMDPad,CuDef*%
%ADD11R,2.000000X1.700000*%
%TD*%
%TA.AperFunction,SMDPad,CuDef*%
%ADD12C,1.000000*%
%TD*%
%TA.AperFunction,SMDPad,CuDef*%
%ADD13R,0.300000X1.500000*%
%TD*%
%TA.AperFunction,ViaPad*%
%ADD14C,0.450000*%
%TD*%
%TA.AperFunction,Conductor*%
%ADD15C,0.150000*%
%TD*%
%TA.AperFunction,Conductor*%
%ADD16C,0.250000*%
%TD*%
%TA.AperFunction,Conductor*%
%ADD17C,0.500000*%
%TD*%
%TA.AperFunction,Conductor*%
%ADD18C,0.300000*%
%TD*%
G04 APERTURE END LIST*
D10*
%TO.P,J5,1,1*%
%TO.N,/leftPinkieBreakout/R3*%
X25000000Y39100000D03*
%TO.P,J5,2,2*%
%TO.N,/leftPinkieBreakout/VDD*%
X25500000Y39100000D03*
%TO.P,J5,3,3*%
%TO.N,/leftPinkieBreakout/GND*%
X26000000Y39100000D03*
%TO.P,J5,4,4*%
%TO.N,/leftPinkieBreakout/IN32*%
X26500000Y39100000D03*
%TO.P,J5,5,5*%
%TO.N,/leftPinkieBreakout/IN31*%
X27000000Y39100000D03*
%TO.P,J5,6,6*%
%TO.N,/leftPinkieBreakout/C5*%
X27500000Y39100000D03*
D11*
%TO.P,J5,7,7*%
%TO.N,unconnected-(J5-Pad7)*%
X29200000Y36500000D03*
%TO.P,J5,8,8*%
%TO.N,unconnected-(J5-Pad8)*%
X23300000Y36500000D03*
%TD*%
D10*
%TO.P,J7,1,1*%
%TO.N,/leftPinkieBreakout/R5*%
X25000000Y20900000D03*
%TO.P,J7,2,2*%
%TO.N,/leftPinkieBreakout/VDD*%
X25500000Y20900000D03*
%TO.P,J7,3,3*%
%TO.N,/leftPinkieBreakout/GND*%
X26000000Y20900000D03*
%TO.P,J7,4,4*%
%TO.N,/leftPinkieBreakout/IN34*%
X26500000Y20900000D03*
%TO.P,J7,5,5*%
%TO.N,/leftPinkieBreakout/IN33*%
X27000000Y20900000D03*
%TO.P,J7,6,6*%
%TO.N,/leftPinkieBreakout/C5*%
X27500000Y20900000D03*
D11*
%TO.P,J7,7,7*%
%TO.N,unconnected-(J7-Pad7)*%
X29200000Y18300000D03*
%TO.P,J7,8,8*%
%TO.N,unconnected-(J7-Pad8)*%
X23300000Y18300000D03*
%TD*%
D12*
%TO.P,FID1,*%
%TO.N,*%
X3850000Y69450000D03*
%TD*%
D10*
%TO.P,J19,1,1*%
%TO.N,/leftPointerThumbBreakout/R4*%
X67500000Y30000000D03*
%TO.P,J19,2,2*%
%TO.N,/leftPointerThumbBreakout/VDD*%
X68000000Y30000000D03*
%TO.P,J19,3,3*%
%TO.N,/leftPointerThumbBreakout/GND*%
X68500000Y30000000D03*
%TO.P,J19,4,4*%
%TO.N,/leftPointerThumbBreakout/IN5*%
X69000000Y30000000D03*
%TO.P,J19,5,5*%
%TO.N,/leftPointerThumbBreakout/IN4*%
X69500000Y30000000D03*
%TO.P,J19,6,6*%
%TO.N,/leftPointerThumbBreakout/C0*%
X70000000Y30000000D03*
D11*
%TO.P,J19,7,7*%
%TO.N,unconnected-(J19-Pad7)*%
X71700000Y27400000D03*
%TO.P,J19,8,8*%
%TO.N,unconnected-(J19-Pad8)*%
X65800000Y27400000D03*
%TD*%
D10*
%TO.P,J22,1,1*%
%TO.N,/leftPointerThumbBreakout/R2*%
X53700000Y48200000D03*
%TO.P,J22,2,2*%
%TO.N,/leftPointerThumbBreakout/VDD*%
X54200000Y48200000D03*
%TO.P,J22,3,3*%
%TO.N,/leftPointerThumbBreakout/GND*%
X54700000Y48200000D03*
%TO.P,J22,4,4*%
%TO.N,/leftPointerThumbBreakout/IN8*%
X55200000Y48200000D03*
%TO.P,J22,5,5*%
%TO.N,/leftPointerThumbBreakout/IN7*%
X55700000Y48200000D03*
%TO.P,J22,6,6*%
%TO.N,/leftPointerThumbBreakout/C1*%
X56200000Y48200000D03*
D11*
%TO.P,J22,7,7*%
%TO.N,unconnected-(J22-Pad7)*%
X57900000Y45600000D03*
%TO.P,J22,8,8*%
%TO.N,unconnected-(J22-Pad8)*%
X52000000Y45600000D03*
%TD*%
D10*
%TO.P,J13,1,1*%
%TO.N,/leftPinkieBreakout/R5*%
X11200000Y20900000D03*
%TO.P,J13,2,2*%
%TO.N,/leftPinkieBreakout/VDD*%
X11700000Y20900000D03*
%TO.P,J13,3,3*%
%TO.N,/leftPinkieBreakout/GND*%
X12200000Y20900000D03*
%TO.P,J13,4,4*%
%TO.N,/leftPinkieBreakout/IN40*%
X12700000Y20900000D03*
%TO.P,J13,5,5*%
%TO.N,/leftPinkieBreakout/IN39*%
X13200000Y20900000D03*
%TO.P,J13,6,6*%
%TO.N,/leftPinkieBreakout/C6*%
X13700000Y20900000D03*
D11*
%TO.P,J13,7,7*%
%TO.N,unconnected-(J13-Pad7)*%
X15400000Y18300000D03*
%TO.P,J13,8,8*%
%TO.N,unconnected-(J13-Pad8)*%
X9500000Y18300000D03*
%TD*%
D10*
%TO.P,J39,1,1*%
%TO.N,/rightPointerThumbBreakout/R2*%
X96200000Y48200000D03*
%TO.P,J39,2,2*%
%TO.N,/rightPointerThumbBreakout/VDD*%
X96700000Y48200000D03*
%TO.P,J39,3,3*%
%TO.N,/rightPointerThumbBreakout/GND*%
X97200000Y48200000D03*
%TO.P,J39,4,4*%
%TO.N,/rightPointerThumbBreakout/IN8*%
X97700000Y48200000D03*
%TO.P,J39,5,5*%
%TO.N,/rightPointerThumbBreakout/IN7*%
X98200000Y48200000D03*
%TO.P,J39,6,6*%
%TO.N,/rightPointerThumbBreakout/C1*%
X98700000Y48200000D03*
D11*
%TO.P,J39,7,7*%
%TO.N,unconnected-(J39-Pad7)*%
X100400000Y45600000D03*
%TO.P,J39,8,8*%
%TO.N,unconnected-(J39-Pad8)*%
X94500000Y45600000D03*
%TD*%
D10*
%TO.P,J43,1,1*%
%TO.N,/rightPointerThumbBreakout/R1*%
X109999999Y57300000D03*
%TO.P,J43,2,2*%
%TO.N,/rightPointerThumbBreakout/VDD*%
X110499999Y57300000D03*
%TO.P,J43,3,3*%
%TO.N,/rightPointerThumbBreakout/GND*%
X110999999Y57300000D03*
%TO.P,J43,4,4*%
%TO.N,/rightPointerThumbBreakout/IN12*%
X111499999Y57300000D03*
%TO.P,J43,5,5*%
%TO.N,/rightPointerThumbBreakout/IN11*%
X111999999Y57300000D03*
%TO.P,J43,6,6*%
%TO.N,/rightPointerThumbBreakout/C2*%
X112499999Y57300000D03*
D11*
%TO.P,J43,7,7*%
%TO.N,unconnected-(J43-Pad7)*%
X114199999Y54700000D03*
%TO.P,J43,8,8*%
%TO.N,unconnected-(J43-Pad8)*%
X108299999Y54700000D03*
%TD*%
D10*
%TO.P,J51,1,1*%
%TO.N,/rightPinkieBreakout/R2*%
X124900000Y48200000D03*
%TO.P,J51,2,2*%
%TO.N,/rightPinkieBreakout/VDD*%
X125400000Y48200000D03*
%TO.P,J51,3,3*%
%TO.N,/rightPinkieBreakout/GND*%
X125900000Y48200000D03*
%TO.P,J51,4,4*%
%TO.N,/rightPinkieBreakout/IN31*%
X126400000Y48200000D03*
%TO.P,J51,5,5*%
%TO.N,/rightPinkieBreakout/IN30*%
X126900000Y48200000D03*
%TO.P,J51,6,6*%
%TO.N,/rightPinkieBreakout/C5*%
X127400000Y48200000D03*
D11*
%TO.P,J51,7,7*%
%TO.N,unconnected-(J51-Pad7)*%
X129100000Y45600000D03*
%TO.P,J51,8,8*%
%TO.N,unconnected-(J51-Pad8)*%
X123200000Y45600000D03*
%TD*%
D10*
%TO.P,J27,1*%
%TO.N,/leftPointerThumbBreakout/R5*%
X39900001Y20900000D03*
%TO.P,J27,2*%
%TO.N,/leftPointerThumbBreakout/VDD*%
X40400001Y20900000D03*
%TO.P,J27,3*%
%TO.N,/leftPointerThumbBreakout/GND*%
X40900001Y20900000D03*
%TO.P,J27,4*%
%TO.N,/leftPointerThumbBreakout/IN16*%
X41400001Y20900000D03*
%TO.P,J27,5*%
%TO.N,/leftPointerThumbBreakout/IN15*%
X41900001Y20900000D03*
%TO.P,J27,6*%
%TO.N,/leftPointerThumbBreakout/C2*%
X42400001Y20900000D03*
D11*
%TO.P,J27,7*%
%TO.N,unconnected-(J27-Pad7)*%
X44100001Y18300000D03*
%TO.P,J27,8*%
%TO.N,unconnected-(J27-Pad8)*%
X38200001Y18300000D03*
%TD*%
D10*
%TO.P,J58,1,1*%
%TO.N,/rightPinkieBreakout/R3*%
X138700000Y38900000D03*
%TO.P,J58,2,2*%
%TO.N,/rightPinkieBreakout/VDD*%
X139200000Y38900000D03*
%TO.P,J58,3,3*%
%TO.N,/rightPinkieBreakout/GND*%
X139700000Y38900000D03*
%TO.P,J58,4,4*%
%TO.N,/rightPinkieBreakout/IN38*%
X140200000Y38900000D03*
%TO.P,J58,5,5*%
%TO.N,/rightPinkieBreakout/IN37*%
X140700000Y38900000D03*
%TO.P,J58,6,6*%
%TO.N,/rightPinkieBreakout/C6*%
X141200000Y38900000D03*
D11*
%TO.P,J58,7,7*%
%TO.N,unconnected-(J58-Pad7)*%
X142900000Y36300000D03*
%TO.P,J58,8,8*%
%TO.N,unconnected-(J58-Pad8)*%
X137000000Y36300000D03*
%TD*%
D10*
%TO.P,J49,1,1*%
%TO.N,/rightPinkieBreakout/R0*%
X124900000Y66400000D03*
%TO.P,J49,2,2*%
%TO.N,/rightPinkieBreakout/VDD*%
X125400000Y66400000D03*
%TO.P,J49,3,3*%
%TO.N,/rightPinkieBreakout/GND*%
X125900000Y66400000D03*
%TO.P,J49,4,4*%
%TO.N,/rightPinkieBreakout/IN29*%
X126400000Y66400000D03*
%TO.P,J49,5,5*%
%TO.N,/rightPinkieBreakout/IN28*%
X126900000Y66400000D03*
%TO.P,J49,6,6*%
%TO.N,/rightPinkieBreakout/C5*%
X127400000Y66400000D03*
D11*
%TO.P,J49,7,7*%
%TO.N,unconnected-(J49-Pad7)*%
X129100000Y63800000D03*
%TO.P,J49,8,8*%
%TO.N,unconnected-(J49-Pad8)*%
X123200000Y63800000D03*
%TD*%
D10*
%TO.P,J8,1,1*%
%TO.N,/leftPinkieBreakout/R0*%
X11200000Y66400000D03*
%TO.P,J8,2,2*%
%TO.N,/leftPinkieBreakout/VDD*%
X11700000Y66400000D03*
%TO.P,J8,3,3*%
%TO.N,/leftPinkieBreakout/GND*%
X12200000Y66400000D03*
%TO.P,J8,4,4*%
%TO.N,/leftPinkieBreakout/IN35*%
X12700000Y66400000D03*
%TO.P,J8,5,5*%
%TO.N,/leftPinkieBreakout/IN34*%
X13200000Y66400000D03*
%TO.P,J8,6,6*%
%TO.N,/leftPinkieBreakout/C6*%
X13700000Y66400000D03*
D11*
%TO.P,J8,7,7*%
%TO.N,unconnected-(J8-Pad7)*%
X15400000Y63800000D03*
%TO.P,J8,8,8*%
%TO.N,unconnected-(J8-Pad8)*%
X9500000Y63800000D03*
%TD*%
D10*
%TO.P,J36,1,1*%
%TO.N,/rightPointerThumbBreakout/R4*%
X82400000Y30000000D03*
%TO.P,J36,2,2*%
%TO.N,/rightPointerThumbBreakout/VDD*%
X82900000Y30000000D03*
%TO.P,J36,3,3*%
%TO.N,/rightPointerThumbBreakout/GND*%
X83400000Y30000000D03*
%TO.P,J36,4,4*%
%TO.N,/rightPointerThumbBreakout/IN5*%
X83900000Y30000000D03*
%TO.P,J36,5,5*%
%TO.N,/rightPointerThumbBreakout/IN4*%
X84400000Y30000000D03*
%TO.P,J36,6,6*%
%TO.N,/rightPointerThumbBreakout/C0*%
X84900000Y30000000D03*
D11*
%TO.P,J36,7,7*%
%TO.N,unconnected-(J36-Pad7)*%
X86600000Y27400000D03*
%TO.P,J36,8,8*%
%TO.N,unconnected-(J36-Pad8)*%
X80700000Y27400000D03*
%TD*%
D10*
%TO.P,J16,1,1*%
%TO.N,/leftPointerThumbBreakout/R1*%
X67500000Y57300000D03*
%TO.P,J16,2,2*%
%TO.N,/leftPointerThumbBreakout/VDD*%
X68000000Y57300000D03*
%TO.P,J16,3,3*%
%TO.N,/leftPointerThumbBreakout/GND*%
X68500000Y57300000D03*
%TO.P,J16,4,4*%
%TO.N,/leftPointerThumbBreakout/IN2*%
X69000000Y57300000D03*
%TO.P,J16,5,5*%
%TO.N,/leftPointerThumbBreakout/IN1*%
X69500000Y57300000D03*
%TO.P,J16,6,6*%
%TO.N,/leftPointerThumbBreakout/C0*%
X70000000Y57300000D03*
D11*
%TO.P,J16,7,7*%
%TO.N,unconnected-(J16-Pad7)*%
X71700000Y54700000D03*
%TO.P,J16,8,8*%
%TO.N,unconnected-(J16-Pad8)*%
X65800000Y54700000D03*
%TD*%
D10*
%TO.P,J47,1*%
%TO.N,/rightPointerThumbBreakout/R2*%
X109999999Y48200000D03*
%TO.P,J47,2*%
%TO.N,/rightPointerThumbBreakout/VDD*%
X110499999Y48200000D03*
%TO.P,J47,3*%
%TO.N,/rightPointerThumbBreakout/GND*%
X110999999Y48200000D03*
%TO.P,J47,4*%
%TO.N,/rightPointerThumbBreakout/IN13*%
X111499999Y48200000D03*
%TO.P,J47,5*%
%TO.N,/rightPointerThumbBreakout/IN12*%
X111999999Y48200000D03*
%TO.P,J47,6*%
%TO.N,/rightPointerThumbBreakout/C2*%
X112499999Y48200000D03*
D11*
%TO.P,J47,7*%
%TO.N,unconnected-(J47-Pad7)*%
X114199999Y45600000D03*
%TO.P,J47,8*%
%TO.N,unconnected-(J47-Pad8)*%
X108299999Y45600000D03*
%TD*%
D10*
%TO.P,J60,1,1*%
%TO.N,/rightPinkieBreakout/R5*%
X138700000Y20900000D03*
%TO.P,J60,2,2*%
%TO.N,/rightPinkieBreakout/VDD*%
X139200000Y20900000D03*
%TO.P,J60,3,3*%
%TO.N,/rightPinkieBreakout/GND*%
X139700000Y20900000D03*
%TO.P,J60,4,4*%
%TO.N,/rightPinkieBreakout/IN40*%
X140200000Y20900000D03*
%TO.P,J60,5,5*%
%TO.N,/rightPinkieBreakout/IN39*%
X140700000Y20900000D03*
%TO.P,J60,6,6*%
%TO.N,/rightPinkieBreakout/C6*%
X141200000Y20900000D03*
D11*
%TO.P,J60,7,7*%
%TO.N,unconnected-(J60-Pad7)*%
X142900000Y18300000D03*
%TO.P,J60,8,8*%
%TO.N,unconnected-(J60-Pad8)*%
X137000000Y18300000D03*
%TD*%
D10*
%TO.P,J18,1,1*%
%TO.N,/leftPointerThumbBreakout/R3*%
X67500000Y39100000D03*
%TO.P,J18,2,2*%
%TO.N,/leftPointerThumbBreakout/VDD*%
X68000000Y39100000D03*
%TO.P,J18,3,3*%
%TO.N,/leftPointerThumbBreakout/GND*%
X68500000Y39100000D03*
%TO.P,J18,4,4*%
%TO.N,/leftPointerThumbBreakout/IN4*%
X69000000Y39100000D03*
%TO.P,J18,5,5*%
%TO.N,/leftPointerThumbBreakout/IN3*%
X69500000Y39100000D03*
%TO.P,J18,6,6*%
%TO.N,/leftPointerThumbBreakout/C0*%
X70000000Y39100000D03*
D11*
%TO.P,J18,7,7*%
%TO.N,unconnected-(J18-Pad7)*%
X71700000Y36500000D03*
%TO.P,J18,8,8*%
%TO.N,unconnected-(J18-Pad8)*%
X65800000Y36500000D03*
%TD*%
D10*
%TO.P,J21,1,1*%
%TO.N,/leftPointerThumbBreakout/R1*%
X53700000Y57300000D03*
%TO.P,J21,2,2*%
%TO.N,/leftPointerThumbBreakout/VDD*%
X54200000Y57300000D03*
%TO.P,J21,3,3*%
%TO.N,/leftPointerThumbBreakout/GND*%
X54700000Y57300000D03*
%TO.P,J21,4,4*%
%TO.N,/leftPointerThumbBreakout/IN7*%
X55200000Y57300000D03*
%TO.P,J21,5,5*%
%TO.N,/leftPointerThumbBreakout/IN6*%
X55700000Y57300000D03*
%TO.P,J21,6,6*%
%TO.N,/leftPointerThumbBreakout/C1*%
X56200000Y57300000D03*
D11*
%TO.P,J21,7,7*%
%TO.N,unconnected-(J21-Pad7)*%
X57900000Y54700000D03*
%TO.P,J21,8,8*%
%TO.N,unconnected-(J21-Pad8)*%
X52000000Y54700000D03*
%TD*%
D10*
%TO.P,J44,1*%
%TO.N,/rightPointerThumbBreakout/R5*%
X109999999Y20900000D03*
%TO.P,J44,2*%
%TO.N,/rightPointerThumbBreakout/VDD*%
X110499999Y20900000D03*
%TO.P,J44,3*%
%TO.N,/rightPointerThumbBreakout/GND*%
X110999999Y20900000D03*
%TO.P,J44,4*%
%TO.N,/rightPointerThumbBreakout/IN16*%
X111499999Y20900000D03*
%TO.P,J44,5*%
%TO.N,/rightPointerThumbBreakout/IN15*%
X111999999Y20900000D03*
%TO.P,J44,6*%
%TO.N,/rightPointerThumbBreakout/C2*%
X112499999Y20900000D03*
D11*
%TO.P,J44,7*%
%TO.N,unconnected-(J44-Pad7)*%
X114199999Y18300000D03*
%TO.P,J44,8*%
%TO.N,unconnected-(J44-Pad8)*%
X108299999Y18300000D03*
%TD*%
D10*
%TO.P,J32,1,1*%
%TO.N,/rightPointerThumbBreakout/R0*%
X82400000Y66400000D03*
%TO.P,J32,2,2*%
%TO.N,/rightPointerThumbBreakout/VDD*%
X82900000Y66400000D03*
%TO.P,J32,3,3*%
%TO.N,/rightPointerThumbBreakout/GND*%
X83400000Y66400000D03*
%TO.P,J32,4,4*%
%TO.N,/rightPointerThumbBreakout/IN1*%
X83900000Y66400000D03*
%TO.P,J32,5,5*%
%TO.N,/rightPointerThumbBreakout/IN0*%
X84400000Y66400000D03*
%TO.P,J32,6,6*%
%TO.N,/rightPointerThumbBreakout/C0*%
X84900000Y66400000D03*
D11*
%TO.P,J32,7,7*%
%TO.N,unconnected-(J32-Pad7)*%
X86600000Y63800000D03*
%TO.P,J32,8,8*%
%TO.N,unconnected-(J32-Pad8)*%
X80700000Y63800000D03*
%TD*%
D10*
%TO.P,J28,1*%
%TO.N,/leftPointerThumbBreakout/R4*%
X39900001Y30000000D03*
%TO.P,J28,2*%
%TO.N,/leftPointerThumbBreakout/VDD*%
X40400001Y30000000D03*
%TO.P,J28,3*%
%TO.N,/leftPointerThumbBreakout/GND*%
X40900001Y30000000D03*
%TO.P,J28,4*%
%TO.N,/leftPointerThumbBreakout/IN15*%
X41400001Y30000000D03*
%TO.P,J28,5*%
%TO.N,/leftPointerThumbBreakout/IN14*%
X41900001Y30000000D03*
%TO.P,J28,6*%
%TO.N,/leftPointerThumbBreakout/C2*%
X42400001Y30000000D03*
D11*
%TO.P,J28,7*%
%TO.N,unconnected-(J28-Pad7)*%
X44100001Y27400000D03*
%TO.P,J28,8*%
%TO.N,unconnected-(J28-Pad8)*%
X38200001Y27400000D03*
%TD*%
D10*
%TO.P,J54,1,1*%
%TO.N,/rightPinkieBreakout/R5*%
X124900000Y20900000D03*
%TO.P,J54,2,2*%
%TO.N,/rightPinkieBreakout/VDD*%
X125400000Y20900000D03*
%TO.P,J54,3,3*%
%TO.N,/rightPinkieBreakout/GND*%
X125900000Y20900000D03*
%TO.P,J54,4,4*%
%TO.N,/rightPinkieBreakout/IN34*%
X126400000Y20900000D03*
%TO.P,J54,5,5*%
%TO.N,/rightPinkieBreakout/IN33*%
X126900000Y20900000D03*
%TO.P,J54,6,6*%
%TO.N,/rightPinkieBreakout/C5*%
X127400000Y20900000D03*
D11*
%TO.P,J54,7,7*%
%TO.N,unconnected-(J54-Pad7)*%
X129100000Y18300000D03*
%TO.P,J54,8,8*%
%TO.N,unconnected-(J54-Pad8)*%
X123200000Y18300000D03*
%TD*%
D10*
%TO.P,J23,1,1*%
%TO.N,/leftPointerThumbBreakout/R3*%
X53700000Y39100000D03*
%TO.P,J23,2,2*%
%TO.N,/leftPointerThumbBreakout/VDD*%
X54200000Y39100000D03*
%TO.P,J23,3,3*%
%TO.N,/leftPointerThumbBreakout/GND*%
X54700000Y39100000D03*
%TO.P,J23,4,4*%
%TO.N,/leftPointerThumbBreakout/IN9*%
X55200000Y39100000D03*
%TO.P,J23,5,5*%
%TO.N,/leftPointerThumbBreakout/IN8*%
X55700000Y39100000D03*
%TO.P,J23,6,6*%
%TO.N,/leftPointerThumbBreakout/C1*%
X56200000Y39100000D03*
D11*
%TO.P,J23,7,7*%
%TO.N,unconnected-(J23-Pad7)*%
X57900000Y36500000D03*
%TO.P,J23,8,8*%
%TO.N,unconnected-(J23-Pad8)*%
X52000000Y36500000D03*
%TD*%
D10*
%TO.P,J53,1,1*%
%TO.N,/rightPinkieBreakout/R4*%
X124900000Y30000000D03*
%TO.P,J53,2,2*%
%TO.N,/rightPinkieBreakout/VDD*%
X125400000Y30000000D03*
%TO.P,J53,3,3*%
%TO.N,/rightPinkieBreakout/GND*%
X125900000Y30000000D03*
%TO.P,J53,4,4*%
%TO.N,/rightPinkieBreakout/IN33*%
X126400000Y30000000D03*
%TO.P,J53,5,5*%
%TO.N,/rightPinkieBreakout/IN32*%
X126900000Y30000000D03*
%TO.P,J53,6,6*%
%TO.N,/rightPinkieBreakout/C5*%
X127400000Y30000000D03*
D11*
%TO.P,J53,7,7*%
%TO.N,unconnected-(J53-Pad7)*%
X129100000Y27400000D03*
%TO.P,J53,8,8*%
%TO.N,unconnected-(J53-Pad8)*%
X123200000Y27400000D03*
%TD*%
D10*
%TO.P,J2,1,1*%
%TO.N,/leftPinkieBreakout/R0*%
X25000000Y66400000D03*
%TO.P,J2,2,2*%
%TO.N,/leftPinkieBreakout/VDD*%
X25500000Y66400000D03*
%TO.P,J2,3,3*%
%TO.N,/leftPinkieBreakout/GND*%
X26000000Y66400000D03*
%TO.P,J2,4,4*%
%TO.N,/leftPinkieBreakout/IN29*%
X26500000Y66400000D03*
%TO.P,J2,5,5*%
%TO.N,/leftPinkieBreakout/IN28*%
X27000000Y66400000D03*
%TO.P,J2,6,6*%
%TO.N,/leftPinkieBreakout/C5*%
X27500000Y66400000D03*
D11*
%TO.P,J2,7,7*%
%TO.N,unconnected-(J2-Pad7)*%
X29200000Y63800000D03*
%TO.P,J2,8,8*%
%TO.N,unconnected-(J2-Pad8)*%
X23300000Y63800000D03*
%TD*%
D10*
%TO.P,J3,1,1*%
%TO.N,/leftPinkieBreakout/R1*%
X25000000Y57300000D03*
%TO.P,J3,2,2*%
%TO.N,/leftPinkieBreakout/VDD*%
X25500000Y57300000D03*
%TO.P,J3,3,3*%
%TO.N,/leftPinkieBreakout/GND*%
X26000000Y57300000D03*
%TO.P,J3,4,4*%
%TO.N,/leftPinkieBreakout/IN30*%
X26500000Y57300000D03*
%TO.P,J3,5,5*%
%TO.N,/leftPinkieBreakout/IN29*%
X27000000Y57300000D03*
%TO.P,J3,6,6*%
%TO.N,/leftPinkieBreakout/C5*%
X27500000Y57300000D03*
D11*
%TO.P,J3,7,7*%
%TO.N,unconnected-(J3-Pad7)*%
X29200000Y54700000D03*
%TO.P,J3,8,8*%
%TO.N,unconnected-(J3-Pad8)*%
X23300000Y54700000D03*
%TD*%
D10*
%TO.P,J34,1,1*%
%TO.N,/rightPointerThumbBreakout/R2*%
X82400000Y48200000D03*
%TO.P,J34,2,2*%
%TO.N,/rightPointerThumbBreakout/VDD*%
X82900000Y48200000D03*
%TO.P,J34,3,3*%
%TO.N,/rightPointerThumbBreakout/GND*%
X83400000Y48200000D03*
%TO.P,J34,4,4*%
%TO.N,/rightPointerThumbBreakout/IN3*%
X83900000Y48200000D03*
%TO.P,J34,5,5*%
%TO.N,/rightPointerThumbBreakout/IN2*%
X84400000Y48200000D03*
%TO.P,J34,6,6*%
%TO.N,/rightPointerThumbBreakout/C0*%
X84900000Y48200000D03*
D11*
%TO.P,J34,7,7*%
%TO.N,unconnected-(J34-Pad7)*%
X86600000Y45600000D03*
%TO.P,J34,8,8*%
%TO.N,unconnected-(J34-Pad8)*%
X80700000Y45600000D03*
%TD*%
D10*
%TO.P,J41,1,1*%
%TO.N,/rightPointerThumbBreakout/R4*%
X96200000Y30000000D03*
%TO.P,J41,2,2*%
%TO.N,/rightPointerThumbBreakout/VDD*%
X96700000Y30000000D03*
%TO.P,J41,3,3*%
%TO.N,/rightPointerThumbBreakout/GND*%
X97200000Y30000000D03*
%TO.P,J41,4,4*%
%TO.N,/rightPointerThumbBreakout/IN10*%
X97700000Y30000000D03*
%TO.P,J41,5,5*%
%TO.N,/rightPointerThumbBreakout/IN9*%
X98200000Y30000000D03*
%TO.P,J41,6,6*%
%TO.N,/rightPointerThumbBreakout/C1*%
X98700000Y30000000D03*
D11*
%TO.P,J41,7,7*%
%TO.N,unconnected-(J41-Pad7)*%
X100400000Y27400000D03*
%TO.P,J41,8,8*%
%TO.N,unconnected-(J41-Pad8)*%
X94500000Y27400000D03*
%TD*%
D10*
%TO.P,J11,1,1*%
%TO.N,/leftPinkieBreakout/R3*%
X11200000Y38900000D03*
%TO.P,J11,2,2*%
%TO.N,/leftPinkieBreakout/VDD*%
X11700000Y38900000D03*
%TO.P,J11,3,3*%
%TO.N,/leftPinkieBreakout/GND*%
X12200000Y38900000D03*
%TO.P,J11,4,4*%
%TO.N,/leftPinkieBreakout/IN38*%
X12700000Y38900000D03*
%TO.P,J11,5,5*%
%TO.N,/leftPinkieBreakout/IN37*%
X13200000Y38900000D03*
%TO.P,J11,6,6*%
%TO.N,/leftPinkieBreakout/C6*%
X13700000Y38900000D03*
D11*
%TO.P,J11,7,7*%
%TO.N,unconnected-(J11-Pad7)*%
X15400000Y36300000D03*
%TO.P,J11,8,8*%
%TO.N,unconnected-(J11-Pad8)*%
X9500000Y36300000D03*
%TD*%
D13*
%TO.P,J48,1,1*%
%TO.N,/rightPinkieBreakout/R0*%
X130400000Y11800000D03*
%TO.P,J48,2,2*%
%TO.N,/rightPinkieBreakout/R1*%
X130900000Y11800000D03*
%TO.P,J48,3,3*%
%TO.N,/rightPinkieBreakout/R2*%
X131400000Y11800000D03*
%TO.P,J48,4,4*%
%TO.N,/rightPinkieBreakout/R3*%
X131900000Y11800000D03*
%TO.P,J48,5,5*%
%TO.N,/rightPinkieBreakout/R4*%
X132400000Y11800000D03*
%TO.P,J48,6,6*%
%TO.N,/rightPinkieBreakout/R5*%
X132900000Y11800000D03*
%TO.P,J48,7,7*%
%TO.N,/rightPinkieBreakout/VDD*%
X133400000Y11800000D03*
%TO.P,J48,8,8*%
%TO.N,/rightPinkieBreakout/GND*%
X133900000Y11800000D03*
%TO.P,J48,9,9*%
%TO.N,/rightPinkieBreakout/IN40*%
X134400000Y11800000D03*
%TO.P,J48,10,10*%
%TO.N,/rightPinkieBreakout/IN28*%
X134900000Y11800000D03*
%TO.P,J48,11,11*%
%TO.N,/rightPinkieBreakout/C6*%
X135400000Y11800000D03*
%TO.P,J48,12,12*%
%TO.N,/rightPinkieBreakout/C5*%
X135900000Y11800000D03*
D11*
%TO.P,J48,13,13*%
%TO.N,unconnected-(J48-Pad13)*%
X137600000Y9200000D03*
%TO.P,J48,14,14*%
%TO.N,unconnected-(J48-Pad14)*%
X128700000Y9200000D03*
%TD*%
D10*
%TO.P,J9,1,1*%
%TO.N,/leftPinkieBreakout/R1*%
X11200000Y57300000D03*
%TO.P,J9,2,2*%
%TO.N,/leftPinkieBreakout/VDD*%
X11700000Y57300000D03*
%TO.P,J9,3,3*%
%TO.N,/leftPinkieBreakout/GND*%
X12200000Y57300000D03*
%TO.P,J9,4,4*%
%TO.N,/leftPinkieBreakout/IN36*%
X12700000Y57300000D03*
%TO.P,J9,5,5*%
%TO.N,/leftPinkieBreakout/IN35*%
X13200000Y57300000D03*
%TO.P,J9,6,6*%
%TO.N,/leftPinkieBreakout/C6*%
X13700000Y57300000D03*
D11*
%TO.P,J9,7,7*%
%TO.N,unconnected-(J9-Pad7)*%
X15400000Y54700000D03*
%TO.P,J9,8,8*%
%TO.N,unconnected-(J9-Pad8)*%
X9500000Y54700000D03*
%TD*%
D10*
%TO.P,J55,1,1*%
%TO.N,/rightPinkieBreakout/R0*%
X138700000Y66400000D03*
%TO.P,J55,2,2*%
%TO.N,/rightPinkieBreakout/VDD*%
X139200000Y66400000D03*
%TO.P,J55,3,3*%
%TO.N,/rightPinkieBreakout/GND*%
X139700000Y66400000D03*
%TO.P,J55,4,4*%
%TO.N,/rightPinkieBreakout/IN35*%
X140200000Y66400000D03*
%TO.P,J55,5,5*%
%TO.N,/rightPinkieBreakout/IN34*%
X140700000Y66400000D03*
%TO.P,J55,6,6*%
%TO.N,/rightPinkieBreakout/C6*%
X141200000Y66400000D03*
D11*
%TO.P,J55,7,7*%
%TO.N,unconnected-(J55-Pad7)*%
X142900000Y63800000D03*
%TO.P,J55,8,8*%
%TO.N,unconnected-(J55-Pad8)*%
X137000000Y63800000D03*
%TD*%
D10*
%TO.P,J59,1,1*%
%TO.N,/rightPinkieBreakout/R4*%
X138700000Y30000000D03*
%TO.P,J59,2,2*%
%TO.N,/rightPinkieBreakout/VDD*%
X139200000Y30000000D03*
%TO.P,J59,3,3*%
%TO.N,/rightPinkieBreakout/GND*%
X139700000Y30000000D03*
%TO.P,J59,4,4*%
%TO.N,/rightPinkieBreakout/IN39*%
X140200000Y30000000D03*
%TO.P,J59,5,5*%
%TO.N,/rightPinkieBreakout/IN38*%
X140700000Y30000000D03*
%TO.P,J59,6,6*%
%TO.N,/rightPinkieBreakout/C6*%
X141200000Y30000000D03*
D11*
%TO.P,J59,7,7*%
%TO.N,unconnected-(J59-Pad7)*%
X142900000Y27400000D03*
%TO.P,J59,8,8*%
%TO.N,unconnected-(J59-Pad8)*%
X137000000Y27400000D03*
%TD*%
D10*
%TO.P,J33,1,1*%
%TO.N,/rightPointerThumbBreakout/R1*%
X82400000Y57300000D03*
%TO.P,J33,2,2*%
%TO.N,/rightPointerThumbBreakout/VDD*%
X82900000Y57300000D03*
%TO.P,J33,3,3*%
%TO.N,/rightPointerThumbBreakout/GND*%
X83400000Y57300000D03*
%TO.P,J33,4,4*%
%TO.N,/rightPointerThumbBreakout/IN2*%
X83900000Y57300000D03*
%TO.P,J33,5,5*%
%TO.N,/rightPointerThumbBreakout/IN1*%
X84400000Y57300000D03*
%TO.P,J33,6,6*%
%TO.N,/rightPointerThumbBreakout/C0*%
X84900000Y57300000D03*
D11*
%TO.P,J33,7,7*%
%TO.N,unconnected-(J33-Pad7)*%
X86600000Y54700000D03*
%TO.P,J33,8,8*%
%TO.N,unconnected-(J33-Pad8)*%
X80700000Y54700000D03*
%TD*%
D10*
%TO.P,J46,1*%
%TO.N,/rightPointerThumbBreakout/R3*%
X109999999Y39100000D03*
%TO.P,J46,2*%
%TO.N,/rightPointerThumbBreakout/VDD*%
X110499999Y39100000D03*
%TO.P,J46,3*%
%TO.N,/rightPointerThumbBreakout/GND*%
X110999999Y39100000D03*
%TO.P,J46,4*%
%TO.N,/rightPointerThumbBreakout/IN14*%
X111499999Y39100000D03*
%TO.P,J46,5*%
%TO.N,/rightPointerThumbBreakout/IN13*%
X111999999Y39100000D03*
%TO.P,J46,6*%
%TO.N,/rightPointerThumbBreakout/C2*%
X112499999Y39100000D03*
D11*
%TO.P,J46,7*%
%TO.N,unconnected-(J46-Pad7)*%
X114199999Y36500000D03*
%TO.P,J46,8*%
%TO.N,unconnected-(J46-Pad8)*%
X108299999Y36500000D03*
%TD*%
D13*
%TO.P,J31,1*%
%TO.N,/rightPointerThumbBreakout/R0*%
X101900000Y11800000D03*
%TO.P,J31,2*%
%TO.N,/rightPointerThumbBreakout/R1*%
X102400000Y11800000D03*
%TO.P,J31,3*%
%TO.N,/rightPointerThumbBreakout/R2*%
X102900000Y11800000D03*
%TO.P,J31,4*%
%TO.N,/rightPointerThumbBreakout/R3*%
X103400000Y11800000D03*
%TO.P,J31,5*%
%TO.N,/rightPointerThumbBreakout/R4*%
X103900000Y11800000D03*
%TO.P,J31,6*%
%TO.N,/rightPointerThumbBreakout/R5*%
X104400000Y11800000D03*
%TO.P,J31,7*%
%TO.N,/rightPointerThumbBreakout/VDD*%
X104900000Y11800000D03*
%TO.P,J31,8*%
%TO.N,/rightPointerThumbBreakout/GND*%
X105400000Y11800000D03*
%TO.P,J31,9*%
%TO.N,/rightPointerThumbBreakout/IN16*%
X105900000Y11800000D03*
%TO.P,J31,10*%
%TO.N,/rightPointerThumbBreakout/IN0*%
X106400000Y11800000D03*
%TO.P,J31,11*%
%TO.N,/rightPointerThumbBreakout/C2*%
X106900000Y11800000D03*
%TO.P,J31,12*%
%TO.N,/rightPointerThumbBreakout/C1*%
X107400000Y11800000D03*
%TO.P,J31,13*%
%TO.N,/rightPointerThumbBreakout/C0*%
X107900000Y11800000D03*
%TO.P,J31,14*%
%TO.N,unconnected-(J31-Pad14)*%
X108400000Y11800000D03*
D11*
%TO.P,J31,15*%
%TO.N,unconnected-(J31-Pad15)*%
X110100000Y9200000D03*
%TO.P,J31,16*%
%TO.N,unconnected-(J31-Pad16)*%
X100200000Y9200000D03*
%TD*%
D10*
%TO.P,J15,1,1*%
%TO.N,/leftPointerThumbBreakout/R0*%
X67500000Y66400000D03*
%TO.P,J15,2,2*%
%TO.N,/leftPointerThumbBreakout/VDD*%
X68000000Y66400000D03*
%TO.P,J15,3,3*%
%TO.N,/leftPointerThumbBreakout/GND*%
X68500000Y66400000D03*
%TO.P,J15,4,4*%
%TO.N,/leftPointerThumbBreakout/IN1*%
X69000000Y66400000D03*
%TO.P,J15,5,5*%
%TO.N,/leftPointerThumbBreakout/IN0*%
X69500000Y66400000D03*
%TO.P,J15,6,6*%
%TO.N,/leftPointerThumbBreakout/C0*%
X70000000Y66400000D03*
D11*
%TO.P,J15,7,7*%
%TO.N,unconnected-(J15-Pad7)*%
X71700000Y63800000D03*
%TO.P,J15,8,8*%
%TO.N,unconnected-(J15-Pad8)*%
X65800000Y63800000D03*
%TD*%
D10*
%TO.P,J56,1,1*%
%TO.N,/rightPinkieBreakout/R1*%
X138700000Y57300000D03*
%TO.P,J56,2,2*%
%TO.N,/rightPinkieBreakout/VDD*%
X139200000Y57300000D03*
%TO.P,J56,3,3*%
%TO.N,/rightPinkieBreakout/GND*%
X139700000Y57300000D03*
%TO.P,J56,4,4*%
%TO.N,/rightPinkieBreakout/IN36*%
X140200000Y57300000D03*
%TO.P,J56,5,5*%
%TO.N,/rightPinkieBreakout/IN35*%
X140700000Y57300000D03*
%TO.P,J56,6,6*%
%TO.N,/rightPinkieBreakout/C6*%
X141200000Y57300000D03*
D11*
%TO.P,J56,7,7*%
%TO.N,unconnected-(J56-Pad7)*%
X142900000Y54700000D03*
%TO.P,J56,8,8*%
%TO.N,unconnected-(J56-Pad8)*%
X137000000Y54700000D03*
%TD*%
D10*
%TO.P,J25,1,1*%
%TO.N,/leftPointerThumbBreakout/R0*%
X39900001Y66400000D03*
%TO.P,J25,2,2*%
%TO.N,/leftPointerThumbBreakout/VDD*%
X40400001Y66400000D03*
%TO.P,J25,3,3*%
%TO.N,/leftPointerThumbBreakout/GND*%
X40900001Y66400000D03*
%TO.P,J25,4,4*%
%TO.N,/leftPointerThumbBreakout/IN11*%
X41400001Y66400000D03*
%TO.P,J25,5,5*%
%TO.N,/leftPointerThumbBreakout/IN10*%
X41900001Y66400000D03*
%TO.P,J25,6,6*%
%TO.N,/leftPointerThumbBreakout/C2*%
X42400001Y66400000D03*
D11*
%TO.P,J25,7,7*%
%TO.N,unconnected-(J25-Pad7)*%
X44100001Y63800000D03*
%TO.P,J25,8,8*%
%TO.N,unconnected-(J25-Pad8)*%
X38200001Y63800000D03*
%TD*%
D13*
%TO.P,J14,1*%
%TO.N,/leftPointerThumbBreakout/R0*%
X45400000Y11800000D03*
%TO.P,J14,2*%
%TO.N,/leftPointerThumbBreakout/R1*%
X45900000Y11800000D03*
%TO.P,J14,3*%
%TO.N,/leftPointerThumbBreakout/R2*%
X46400000Y11800000D03*
%TO.P,J14,4*%
%TO.N,/leftPointerThumbBreakout/R3*%
X46900000Y11800000D03*
%TO.P,J14,5*%
%TO.N,/leftPointerThumbBreakout/R4*%
X47400000Y11800000D03*
%TO.P,J14,6*%
%TO.N,/leftPointerThumbBreakout/R5*%
X47900000Y11800000D03*
%TO.P,J14,7*%
%TO.N,/leftPointerThumbBreakout/VDD*%
X48400000Y11800000D03*
%TO.P,J14,8*%
%TO.N,/leftPointerThumbBreakout/GND*%
X48900000Y11800000D03*
%TO.P,J14,9*%
%TO.N,/leftPointerThumbBreakout/IN16*%
X49400000Y11800000D03*
%TO.P,J14,10*%
%TO.N,/leftPointerThumbBreakout/IN0*%
X49900000Y11800000D03*
%TO.P,J14,11*%
%TO.N,/leftPointerThumbBreakout/C2*%
X50400000Y11800000D03*
%TO.P,J14,12*%
%TO.N,/leftPointerThumbBreakout/C1*%
X50900000Y11800000D03*
%TO.P,J14,13*%
%TO.N,/leftPointerThumbBreakout/C0*%
X51400000Y11800000D03*
%TO.P,J14,14*%
%TO.N,unconnected-(J14-Pad14)*%
X51900000Y11800000D03*
D11*
%TO.P,J14,15*%
%TO.N,unconnected-(J14-Pad15)*%
X53600000Y9200000D03*
%TO.P,J14,16*%
%TO.N,unconnected-(J14-Pad16)*%
X43700000Y9200000D03*
%TD*%
D10*
%TO.P,J29,1*%
%TO.N,/leftPointerThumbBreakout/R3*%
X39900001Y39100000D03*
%TO.P,J29,2*%
%TO.N,/leftPointerThumbBreakout/VDD*%
X40400001Y39100000D03*
%TO.P,J29,3*%
%TO.N,/leftPointerThumbBreakout/GND*%
X40900001Y39100000D03*
%TO.P,J29,4*%
%TO.N,/leftPointerThumbBreakout/IN14*%
X41400001Y39100000D03*
%TO.P,J29,5*%
%TO.N,/leftPointerThumbBreakout/IN13*%
X41900001Y39100000D03*
%TO.P,J29,6*%
%TO.N,/leftPointerThumbBreakout/C2*%
X42400001Y39100000D03*
D11*
%TO.P,J29,7*%
%TO.N,unconnected-(J29-Pad7)*%
X44100001Y36500000D03*
%TO.P,J29,8*%
%TO.N,unconnected-(J29-Pad8)*%
X38200001Y36500000D03*
%TD*%
D10*
%TO.P,J57,1,1*%
%TO.N,/rightPinkieBreakout/R2*%
X138700000Y47900000D03*
%TO.P,J57,2,2*%
%TO.N,/rightPinkieBreakout/VDD*%
X139200000Y47900000D03*
%TO.P,J57,3,3*%
%TO.N,/rightPinkieBreakout/GND*%
X139700000Y47900000D03*
%TO.P,J57,4,4*%
%TO.N,/rightPinkieBreakout/IN37*%
X140200000Y47900000D03*
%TO.P,J57,5,5*%
%TO.N,/rightPinkieBreakout/IN36*%
X140700000Y47900000D03*
%TO.P,J57,6,6*%
%TO.N,/rightPinkieBreakout/C6*%
X141200000Y47900000D03*
D11*
%TO.P,J57,7,7*%
%TO.N,unconnected-(J57-Pad7)*%
X142900000Y45300000D03*
%TO.P,J57,8,8*%
%TO.N,unconnected-(J57-Pad8)*%
X137000000Y45300000D03*
%TD*%
D10*
%TO.P,J42,1,1*%
%TO.N,/rightPointerThumbBreakout/R0*%
X109999999Y66400000D03*
%TO.P,J42,2,2*%
%TO.N,/rightPointerThumbBreakout/VDD*%
X110499999Y66400000D03*
%TO.P,J42,3,3*%
%TO.N,/rightPointerThumbBreakout/GND*%
X110999999Y66400000D03*
%TO.P,J42,4,4*%
%TO.N,/rightPointerThumbBreakout/IN11*%
X111499999Y66400000D03*
%TO.P,J42,5,5*%
%TO.N,/rightPointerThumbBreakout/IN10*%
X111999999Y66400000D03*
%TO.P,J42,6,6*%
%TO.N,/rightPointerThumbBreakout/C2*%
X112499999Y66400000D03*
D11*
%TO.P,J42,7,7*%
%TO.N,unconnected-(J42-Pad7)*%
X114199999Y63800000D03*
%TO.P,J42,8,8*%
%TO.N,unconnected-(J42-Pad8)*%
X108299999Y63800000D03*
%TD*%
D10*
%TO.P,J38,1,1*%
%TO.N,/rightPointerThumbBreakout/R1*%
X96200000Y57300000D03*
%TO.P,J38,2,2*%
%TO.N,/rightPointerThumbBreakout/VDD*%
X96700000Y57300000D03*
%TO.P,J38,3,3*%
%TO.N,/rightPointerThumbBreakout/GND*%
X97200000Y57300000D03*
%TO.P,J38,4,4*%
%TO.N,/rightPointerThumbBreakout/IN7*%
X97700000Y57300000D03*
%TO.P,J38,5,5*%
%TO.N,/rightPointerThumbBreakout/IN6*%
X98200000Y57300000D03*
%TO.P,J38,6,6*%
%TO.N,/rightPointerThumbBreakout/C1*%
X98700000Y57300000D03*
D11*
%TO.P,J38,7,7*%
%TO.N,unconnected-(J38-Pad7)*%
X100400000Y54700000D03*
%TO.P,J38,8,8*%
%TO.N,unconnected-(J38-Pad8)*%
X94500000Y54700000D03*
%TD*%
D10*
%TO.P,J35,1,1*%
%TO.N,/rightPointerThumbBreakout/R3*%
X82400000Y39100000D03*
%TO.P,J35,2,2*%
%TO.N,/rightPointerThumbBreakout/VDD*%
X82900000Y39100000D03*
%TO.P,J35,3,3*%
%TO.N,/rightPointerThumbBreakout/GND*%
X83400000Y39100000D03*
%TO.P,J35,4,4*%
%TO.N,/rightPointerThumbBreakout/IN4*%
X83900000Y39100000D03*
%TO.P,J35,5,5*%
%TO.N,/rightPointerThumbBreakout/IN3*%
X84400000Y39100000D03*
%TO.P,J35,6,6*%
%TO.N,/rightPointerThumbBreakout/C0*%
X84900000Y39100000D03*
D11*
%TO.P,J35,7,7*%
%TO.N,unconnected-(J35-Pad7)*%
X86600000Y36500000D03*
%TO.P,J35,8,8*%
%TO.N,unconnected-(J35-Pad8)*%
X80700000Y36500000D03*
%TD*%
D10*
%TO.P,J20,1,1*%
%TO.N,/leftPointerThumbBreakout/R5*%
X67500000Y20900000D03*
%TO.P,J20,2,2*%
%TO.N,/leftPointerThumbBreakout/VDD*%
X68000000Y20900000D03*
%TO.P,J20,3,3*%
%TO.N,/leftPointerThumbBreakout/GND*%
X68500000Y20900000D03*
%TO.P,J20,4,4*%
%TO.N,/leftPointerThumbBreakout/IN6*%
X69000000Y20900000D03*
%TO.P,J20,5,5*%
%TO.N,/leftPointerThumbBreakout/IN5*%
X69500000Y20900000D03*
%TO.P,J20,6,6*%
%TO.N,/leftPointerThumbBreakout/C0*%
X70000000Y20900000D03*
D11*
%TO.P,J20,7,7*%
%TO.N,unconnected-(J20-Pad7)*%
X71700000Y18300000D03*
%TO.P,J20,8,8*%
%TO.N,unconnected-(J20-Pad8)*%
X65800000Y18300000D03*
%TD*%
D12*
%TO.P,FID3,*%
%TO.N,*%
X3850000Y3850000D03*
%TD*%
D10*
%TO.P,J6,1,1*%
%TO.N,/leftPinkieBreakout/R4*%
X25000000Y30000000D03*
%TO.P,J6,2,2*%
%TO.N,/leftPinkieBreakout/VDD*%
X25500000Y30000000D03*
%TO.P,J6,3,3*%
%TO.N,/leftPinkieBreakout/GND*%
X26000000Y30000000D03*
%TO.P,J6,4,4*%
%TO.N,/leftPinkieBreakout/IN33*%
X26500000Y30000000D03*
%TO.P,J6,5,5*%
%TO.N,/leftPinkieBreakout/IN32*%
X27000000Y30000000D03*
%TO.P,J6,6,6*%
%TO.N,/leftPinkieBreakout/C5*%
X27500000Y30000000D03*
D11*
%TO.P,J6,7,7*%
%TO.N,unconnected-(J6-Pad7)*%
X29200000Y27400000D03*
%TO.P,J6,8,8*%
%TO.N,unconnected-(J6-Pad8)*%
X23300000Y27400000D03*
%TD*%
D10*
%TO.P,J17,1,1*%
%TO.N,/leftPointerThumbBreakout/R2*%
X67500000Y48200000D03*
%TO.P,J17,2,2*%
%TO.N,/leftPointerThumbBreakout/VDD*%
X68000000Y48200000D03*
%TO.P,J17,3,3*%
%TO.N,/leftPointerThumbBreakout/GND*%
X68500000Y48200000D03*
%TO.P,J17,4,4*%
%TO.N,/leftPointerThumbBreakout/IN3*%
X69000000Y48200000D03*
%TO.P,J17,5,5*%
%TO.N,/leftPointerThumbBreakout/IN2*%
X69500000Y48200000D03*
%TO.P,J17,6,6*%
%TO.N,/leftPointerThumbBreakout/C0*%
X70000000Y48200000D03*
D11*
%TO.P,J17,7,7*%
%TO.N,unconnected-(J17-Pad7)*%
X71700000Y45600000D03*
%TO.P,J17,8,8*%
%TO.N,unconnected-(J17-Pad8)*%
X65800000Y45600000D03*
%TD*%
D10*
%TO.P,J50,1,1*%
%TO.N,/rightPinkieBreakout/R1*%
X124900000Y57300000D03*
%TO.P,J50,2,2*%
%TO.N,/rightPinkieBreakout/VDD*%
X125400000Y57300000D03*
%TO.P,J50,3,3*%
%TO.N,/rightPinkieBreakout/GND*%
X125900000Y57300000D03*
%TO.P,J50,4,4*%
%TO.N,/rightPinkieBreakout/IN30*%
X126400000Y57300000D03*
%TO.P,J50,5,5*%
%TO.N,/rightPinkieBreakout/IN29*%
X126900000Y57300000D03*
%TO.P,J50,6,6*%
%TO.N,/rightPinkieBreakout/C5*%
X127400000Y57300000D03*
D11*
%TO.P,J50,7,7*%
%TO.N,unconnected-(J50-Pad7)*%
X129100000Y54700000D03*
%TO.P,J50,8,8*%
%TO.N,unconnected-(J50-Pad8)*%
X123200000Y54700000D03*
%TD*%
D10*
%TO.P,J26,1,1*%
%TO.N,/leftPointerThumbBreakout/R1*%
X39900001Y57300000D03*
%TO.P,J26,2,2*%
%TO.N,/leftPointerThumbBreakout/VDD*%
X40400001Y57300000D03*
%TO.P,J26,3,3*%
%TO.N,/leftPointerThumbBreakout/GND*%
X40900001Y57300000D03*
%TO.P,J26,4,4*%
%TO.N,/leftPointerThumbBreakout/IN12*%
X41400001Y57300000D03*
%TO.P,J26,5,5*%
%TO.N,/leftPointerThumbBreakout/IN11*%
X41900001Y57300000D03*
%TO.P,J26,6,6*%
%TO.N,/leftPointerThumbBreakout/C2*%
X42400001Y57300000D03*
D11*
%TO.P,J26,7,7*%
%TO.N,unconnected-(J26-Pad7)*%
X44100001Y54700000D03*
%TO.P,J26,8,8*%
%TO.N,unconnected-(J26-Pad8)*%
X38200001Y54700000D03*
%TD*%
D10*
%TO.P,J40,1,1*%
%TO.N,/rightPointerThumbBreakout/R3*%
X96200000Y39100000D03*
%TO.P,J40,2,2*%
%TO.N,/rightPointerThumbBreakout/VDD*%
X96700000Y39100000D03*
%TO.P,J40,3,3*%
%TO.N,/rightPointerThumbBreakout/GND*%
X97200000Y39100000D03*
%TO.P,J40,4,4*%
%TO.N,/rightPointerThumbBreakout/IN9*%
X97700000Y39100000D03*
%TO.P,J40,5,5*%
%TO.N,/rightPointerThumbBreakout/IN8*%
X98200000Y39100000D03*
%TO.P,J40,6,6*%
%TO.N,/rightPointerThumbBreakout/C1*%
X98700000Y39100000D03*
D11*
%TO.P,J40,7,7*%
%TO.N,unconnected-(J40-Pad7)*%
X100400000Y36500000D03*
%TO.P,J40,8,8*%
%TO.N,unconnected-(J40-Pad8)*%
X94500000Y36500000D03*
%TD*%
D10*
%TO.P,J24,1,1*%
%TO.N,/leftPointerThumbBreakout/R4*%
X53700000Y30000000D03*
%TO.P,J24,2,2*%
%TO.N,/leftPointerThumbBreakout/VDD*%
X54200000Y30000000D03*
%TO.P,J24,3,3*%
%TO.N,/leftPointerThumbBreakout/GND*%
X54700000Y30000000D03*
%TO.P,J24,4,4*%
%TO.N,/leftPointerThumbBreakout/IN10*%
X55200000Y30000000D03*
%TO.P,J24,5,5*%
%TO.N,/leftPointerThumbBreakout/IN9*%
X55700000Y30000000D03*
%TO.P,J24,6,6*%
%TO.N,/leftPointerThumbBreakout/C1*%
X56200000Y30000000D03*
D11*
%TO.P,J24,7,7*%
%TO.N,unconnected-(J24-Pad7)*%
X57900000Y27400000D03*
%TO.P,J24,8,8*%
%TO.N,unconnected-(J24-Pad8)*%
X52000000Y27400000D03*
%TD*%
D12*
%TO.P,FID2,*%
%TO.N,*%
X148550000Y69450000D03*
%TD*%
D10*
%TO.P,J37,1,1*%
%TO.N,/rightPointerThumbBreakout/R5*%
X82400000Y20900000D03*
%TO.P,J37,2,2*%
%TO.N,/rightPointerThumbBreakout/VDD*%
X82900000Y20900000D03*
%TO.P,J37,3,3*%
%TO.N,/rightPointerThumbBreakout/GND*%
X83400000Y20900000D03*
%TO.P,J37,4,4*%
%TO.N,/rightPointerThumbBreakout/IN6*%
X83900000Y20900000D03*
%TO.P,J37,5,5*%
%TO.N,/rightPointerThumbBreakout/IN5*%
X84400000Y20900000D03*
%TO.P,J37,6,6*%
%TO.N,/rightPointerThumbBreakout/C0*%
X84900000Y20900000D03*
D11*
%TO.P,J37,7,7*%
%TO.N,unconnected-(J37-Pad7)*%
X86600000Y18300000D03*
%TO.P,J37,8,8*%
%TO.N,unconnected-(J37-Pad8)*%
X80700000Y18300000D03*
%TD*%
D13*
%TO.P,J1,1,1*%
%TO.N,/leftPinkieBreakout/R0*%
X16700000Y11800000D03*
%TO.P,J1,2,2*%
%TO.N,/leftPinkieBreakout/R1*%
X17200000Y11800000D03*
%TO.P,J1,3,3*%
%TO.N,/leftPinkieBreakout/R2*%
X17700000Y11800000D03*
%TO.P,J1,4,4*%
%TO.N,/leftPinkieBreakout/R3*%
X18200000Y11800000D03*
%TO.P,J1,5,5*%
%TO.N,/leftPinkieBreakout/R4*%
X18700000Y11800000D03*
%TO.P,J1,6,6*%
%TO.N,/leftPinkieBreakout/R5*%
X19200000Y11800000D03*
%TO.P,J1,7,7*%
%TO.N,/leftPinkieBreakout/VDD*%
X19700000Y11800000D03*
%TO.P,J1,8,8*%
%TO.N,/leftPinkieBreakout/GND*%
X20200000Y11800000D03*
%TO.P,J1,9,9*%
%TO.N,/leftPinkieBreakout/IN40*%
X20700000Y11800000D03*
%TO.P,J1,10,10*%
%TO.N,/leftPinkieBreakout/IN28*%
X21200000Y11800000D03*
%TO.P,J1,11,11*%
%TO.N,/leftPinkieBreakout/C6*%
X21700000Y11800000D03*
%TO.P,J1,12,12*%
%TO.N,/leftPinkieBreakout/C5*%
X22200000Y11800000D03*
D11*
%TO.P,J1,13,13*%
%TO.N,unconnected-(J1-Pad13)*%
X23900000Y9200000D03*
%TO.P,J1,14,14*%
%TO.N,unconnected-(J1-Pad14)*%
X15000000Y9200000D03*
%TD*%
D10*
%TO.P,J52,1,1*%
%TO.N,/rightPinkieBreakout/R3*%
X124900000Y39100000D03*
%TO.P,J52,2,2*%
%TO.N,/rightPinkieBreakout/VDD*%
X125400000Y39100000D03*
%TO.P,J52,3,3*%
%TO.N,/rightPinkieBreakout/GND*%
X125900000Y39100000D03*
%TO.P,J52,4,4*%
%TO.N,/rightPinkieBreakout/IN32*%
X126400000Y39100000D03*
%TO.P,J52,5,5*%
%TO.N,/rightPinkieBreakout/IN31*%
X126900000Y39100000D03*
%TO.P,J52,6,6*%
%TO.N,/rightPinkieBreakout/C5*%
X127400000Y39100000D03*
D11*
%TO.P,J52,7,7*%
%TO.N,unconnected-(J52-Pad7)*%
X129100000Y36500000D03*
%TO.P,J52,8,8*%
%TO.N,unconnected-(J52-Pad8)*%
X123200000Y36500000D03*
%TD*%
D10*
%TO.P,J12,1,1*%
%TO.N,/leftPinkieBreakout/R4*%
X11200000Y30000000D03*
%TO.P,J12,2,2*%
%TO.N,/leftPinkieBreakout/VDD*%
X11700000Y30000000D03*
%TO.P,J12,3,3*%
%TO.N,/leftPinkieBreakout/GND*%
X12200000Y30000000D03*
%TO.P,J12,4,4*%
%TO.N,/leftPinkieBreakout/IN39*%
X12700000Y30000000D03*
%TO.P,J12,5,5*%
%TO.N,/leftPinkieBreakout/IN38*%
X13200000Y30000000D03*
%TO.P,J12,6,6*%
%TO.N,/leftPinkieBreakout/C6*%
X13700000Y30000000D03*
D11*
%TO.P,J12,7,7*%
%TO.N,unconnected-(J12-Pad7)*%
X15400000Y27400000D03*
%TO.P,J12,8,8*%
%TO.N,unconnected-(J12-Pad8)*%
X9500000Y27400000D03*
%TD*%
D10*
%TO.P,J10,1,1*%
%TO.N,/leftPinkieBreakout/R2*%
X11200000Y47900000D03*
%TO.P,J10,2,2*%
%TO.N,/leftPinkieBreakout/VDD*%
X11700000Y47900000D03*
%TO.P,J10,3,3*%
%TO.N,/leftPinkieBreakout/GND*%
X12200000Y47900000D03*
%TO.P,J10,4,4*%
%TO.N,/leftPinkieBreakout/IN37*%
X12700000Y47900000D03*
%TO.P,J10,5,5*%
%TO.N,/leftPinkieBreakout/IN36*%
X13200000Y47900000D03*
%TO.P,J10,6,6*%
%TO.N,/leftPinkieBreakout/C6*%
X13700000Y47900000D03*
D11*
%TO.P,J10,7,7*%
%TO.N,unconnected-(J10-Pad7)*%
X15400000Y45300000D03*
%TO.P,J10,8,8*%
%TO.N,unconnected-(J10-Pad8)*%
X9500000Y45300000D03*
%TD*%
D10*
%TO.P,J45,1*%
%TO.N,/rightPointerThumbBreakout/R4*%
X109999999Y30000000D03*
%TO.P,J45,2*%
%TO.N,/rightPointerThumbBreakout/VDD*%
X110499999Y30000000D03*
%TO.P,J45,3*%
%TO.N,/rightPointerThumbBreakout/GND*%
X110999999Y30000000D03*
%TO.P,J45,4*%
%TO.N,/rightPointerThumbBreakout/IN15*%
X111499999Y30000000D03*
%TO.P,J45,5*%
%TO.N,/rightPointerThumbBreakout/IN14*%
X111999999Y30000000D03*
%TO.P,J45,6*%
%TO.N,/rightPointerThumbBreakout/C2*%
X112499999Y30000000D03*
D11*
%TO.P,J45,7*%
%TO.N,unconnected-(J45-Pad7)*%
X114199999Y27400000D03*
%TO.P,J45,8*%
%TO.N,unconnected-(J45-Pad8)*%
X108299999Y27400000D03*
%TD*%
D10*
%TO.P,J4,1,1*%
%TO.N,/leftPinkieBreakout/R2*%
X25000000Y48200000D03*
%TO.P,J4,2,2*%
%TO.N,/leftPinkieBreakout/VDD*%
X25500000Y48200000D03*
%TO.P,J4,3,3*%
%TO.N,/leftPinkieBreakout/GND*%
X26000000Y48200000D03*
%TO.P,J4,4,4*%
%TO.N,/leftPinkieBreakout/IN31*%
X26500000Y48200000D03*
%TO.P,J4,5,5*%
%TO.N,/leftPinkieBreakout/IN30*%
X27000000Y48200000D03*
%TO.P,J4,6,6*%
%TO.N,/leftPinkieBreakout/C5*%
X27500000Y48200000D03*
D11*
%TO.P,J4,7,7*%
%TO.N,unconnected-(J4-Pad7)*%
X29200000Y45600000D03*
%TO.P,J4,8,8*%
%TO.N,unconnected-(J4-Pad8)*%
X23300000Y45600000D03*
%TD*%
D10*
%TO.P,J30,1*%
%TO.N,/leftPointerThumbBreakout/R2*%
X39900001Y48200000D03*
%TO.P,J30,2*%
%TO.N,/leftPointerThumbBreakout/VDD*%
X40400001Y48200000D03*
%TO.P,J30,3*%
%TO.N,/leftPointerThumbBreakout/GND*%
X40900001Y48200000D03*
%TO.P,J30,4*%
%TO.N,/leftPointerThumbBreakout/IN13*%
X41400001Y48200000D03*
%TO.P,J30,5*%
%TO.N,/leftPointerThumbBreakout/IN12*%
X41900001Y48200000D03*
%TO.P,J30,6*%
%TO.N,/leftPointerThumbBreakout/C2*%
X42400001Y48200000D03*
D11*
%TO.P,J30,7*%
%TO.N,unconnected-(J30-Pad7)*%
X44100001Y45600000D03*
%TO.P,J30,8*%
%TO.N,unconnected-(J30-Pad8)*%
X38200001Y45600000D03*
%TD*%
D14*
%TO.N,/leftPinkieBreakout/GND*%
X26000000Y54600000D03*
X12200000Y54600000D03*
X20600000Y27200000D03*
X12200000Y63700000D03*
X12200000Y18400000D03*
X12200000Y27200000D03*
X26000000Y36400000D03*
X26000000Y45500000D03*
X20600000Y63700000D03*
X26000000Y27200000D03*
X12200000Y36400000D03*
X20600000Y36400000D03*
X20600000Y54600000D03*
X12200000Y45500000D03*
X26000000Y18400000D03*
X20600000Y45500000D03*
X20600000Y18400000D03*
X26000000Y63700000D03*
%TO.N,/leftPinkieBreakout/R0*%
X25000000Y65300000D03*
X11200000Y65300000D03*
X16700000Y65300000D03*
%TO.N,/leftPinkieBreakout/R1*%
X25000000Y56200000D03*
X17200000Y56200000D03*
X11200000Y56200000D03*
%TO.N,/leftPinkieBreakout/R2*%
X17700000Y47100000D03*
X25000000Y47100000D03*
X11200000Y47100000D03*
%TO.N,/leftPinkieBreakout/R3*%
X25000000Y38000000D03*
X11200000Y38000000D03*
X18200000Y38000000D03*
%TO.N,/leftPinkieBreakout/R4*%
X25000000Y28900000D03*
X18700000Y28900000D03*
X11200000Y28900000D03*
%TO.N,/leftPinkieBreakout/R5*%
X25000000Y19800000D03*
X19200000Y19800000D03*
X11200000Y19800000D03*
%TO.N,/leftPinkieBreakout/VDD*%
X11700000Y55400000D03*
X25500000Y55400000D03*
X19900000Y46300000D03*
X19900000Y19100000D03*
X11700000Y64600000D03*
X25500000Y64600000D03*
X19900000Y37250000D03*
X11700000Y46300000D03*
X25500000Y37250000D03*
X19900000Y55400000D03*
X25500000Y46300000D03*
X25500000Y28100000D03*
X11700000Y28100000D03*
X25500000Y19100000D03*
X19900000Y28100000D03*
X19900000Y64600000D03*
X11700000Y19100000D03*
X11700000Y37250000D03*
%TO.N,/leftPinkieBreakout/C6*%
X21700000Y16400000D03*
X13700000Y16400000D03*
%TO.N,/leftPinkieBreakout/IN28*%
X27000000Y62900000D03*
X21850000Y62900000D03*
%TO.N,/leftPinkieBreakout/IN40*%
X12700000Y15800000D03*
X20700000Y10700000D03*
%TO.N,/leftPinkieBreakout/IN34*%
X21250000Y62350000D03*
X21250000Y17600000D03*
X26500000Y17600000D03*
X13200000Y62350000D03*
%TO.N,/leftPointerThumbBreakout/GND*%
X68500000Y54600000D03*
X68500000Y18400000D03*
X40900002Y63700000D03*
X40900002Y18400000D03*
X49300000Y18400000D03*
X49300000Y36400000D03*
X54700000Y36400000D03*
X49300000Y45500000D03*
X40900002Y36400000D03*
X40900002Y27200000D03*
X68550000Y63700000D03*
X54700000Y27200000D03*
X54700000Y45500000D03*
X49300000Y63700000D03*
X68500000Y36400000D03*
X49300000Y27200000D03*
X40900002Y54600000D03*
X54700000Y54600000D03*
X68500000Y45500000D03*
X68500000Y27200000D03*
X49300000Y54600000D03*
X40900002Y45500000D03*
%TO.N,/leftPointerThumbBreakout/R0*%
X45400000Y65300000D03*
X67500000Y65300000D03*
X39900002Y65300000D03*
%TO.N,/leftPointerThumbBreakout/R1*%
X45900000Y56200000D03*
X53700000Y56200000D03*
X39900002Y56200000D03*
X67500000Y56200000D03*
%TO.N,/leftPointerThumbBreakout/R2*%
X53700000Y47100000D03*
X39900002Y47100000D03*
X46400000Y47100000D03*
X67500000Y47100000D03*
%TO.N,/leftPointerThumbBreakout/R3*%
X46900000Y38000000D03*
X67500000Y38000000D03*
X39900002Y38000000D03*
X53700000Y38000000D03*
%TO.N,/leftPointerThumbBreakout/R4*%
X67500000Y28900000D03*
X39900002Y28900000D03*
X47400000Y28900000D03*
X53700000Y28900000D03*
%TO.N,/leftPointerThumbBreakout/R5*%
X67500000Y19800000D03*
X47900000Y19800000D03*
X39900002Y19800000D03*
%TO.N,/leftPointerThumbBreakout/VDD*%
X68000000Y37250000D03*
X68000000Y28100000D03*
X54200000Y37250000D03*
X48600000Y19100000D03*
X48600000Y55400000D03*
X40400002Y46300000D03*
X68000000Y19100000D03*
X40400000Y37250001D03*
X48600000Y46300000D03*
X68000000Y64600000D03*
X40400002Y55400000D03*
X54200000Y28100000D03*
X48600000Y64600000D03*
X40400002Y28100000D03*
X54200000Y46300000D03*
X48600000Y28100000D03*
X68000000Y46300000D03*
X40400002Y64600000D03*
X40400001Y19100000D03*
X48600000Y37250000D03*
X54200000Y55400000D03*
X68000000Y55400000D03*
%TO.N,/leftPointerThumbBreakout/C0*%
X70000000Y17700000D03*
X51400000Y17700000D03*
%TO.N,/leftPointerThumbBreakout/C1*%
X50400000Y25800000D03*
X56200000Y25800000D03*
%TO.N,/leftPointerThumbBreakout/C2*%
X42400001Y17700000D03*
X50350000Y12900000D03*
%TO.N,/leftPointerThumbBreakout/IN0*%
X69500000Y62900000D03*
X49925000Y62900000D03*
%TO.N,/leftPointerThumbBreakout/IN6*%
X67050000Y53400000D03*
X55700000Y53400000D03*
%TO.N,/leftPointerThumbBreakout/IN10*%
X41900002Y62200000D03*
X50400000Y62200000D03*
X50400000Y26500000D03*
X55200000Y26500000D03*
%TO.N,/leftPointerThumbBreakout/IN16*%
X49400000Y10700000D03*
X41400001Y17200000D03*
%TO.N,/rightPointerThumbBreakout/GND*%
X97200000Y36400000D03*
X83400000Y27200000D03*
X97200000Y54600000D03*
X111000000Y45500000D03*
X83400000Y54600000D03*
X83450000Y63700000D03*
X111000000Y54600000D03*
X97200000Y27200000D03*
X105800000Y54600000D03*
X105800000Y63700000D03*
X111000000Y36400000D03*
X83400000Y36400000D03*
X83400000Y45500000D03*
X105800000Y36400000D03*
X105800000Y27200000D03*
X97200000Y45500000D03*
X105800000Y45500000D03*
X111000000Y63700000D03*
X111000000Y27200000D03*
X83400000Y18400000D03*
X111000000Y18400000D03*
X105800000Y18400000D03*
%TO.N,/rightPointerThumbBreakout/R0*%
X110000000Y65300000D03*
X101900000Y65300000D03*
X82400000Y65300000D03*
%TO.N,/rightPointerThumbBreakout/R1*%
X110000000Y56200000D03*
X82400000Y56200000D03*
X102400000Y56200000D03*
X96200000Y56200000D03*
%TO.N,/rightPointerThumbBreakout/R2*%
X96200000Y47100000D03*
X102900000Y47100000D03*
X110000000Y47100000D03*
X82400000Y47100000D03*
%TO.N,/rightPointerThumbBreakout/R3*%
X82400000Y38000000D03*
X103400000Y38000000D03*
X110000000Y38000000D03*
X96200000Y38000000D03*
%TO.N,/rightPointerThumbBreakout/R4*%
X96200000Y28900000D03*
X110000000Y28900000D03*
X103900000Y28900000D03*
X82400000Y28900000D03*
%TO.N,/rightPointerThumbBreakout/R5*%
X110000000Y19800000D03*
X82400000Y19800000D03*
X104400000Y19800000D03*
%TO.N,/rightPointerThumbBreakout/VDD*%
X105100000Y64600000D03*
X110500000Y28100000D03*
X105100000Y19100000D03*
X96700000Y55400000D03*
X105100000Y28100000D03*
X105100000Y37250000D03*
X82900000Y28100000D03*
X82900000Y46300000D03*
X105100000Y46300000D03*
X110500000Y64600000D03*
X96700000Y28100000D03*
X82900000Y19100000D03*
X82900000Y64600000D03*
X82900000Y37250000D03*
X96700000Y46300000D03*
X110500000Y55400000D03*
X82900000Y55400000D03*
X105100000Y55400000D03*
X110499998Y37250001D03*
X96700000Y37250000D03*
X110500000Y46300000D03*
X110499999Y19100000D03*
%TO.N,/rightPointerThumbBreakout/C0*%
X107900000Y10100000D03*
X84900000Y17700000D03*
%TO.N,/rightPointerThumbBreakout/C1*%
X98700000Y25800000D03*
X106900000Y25800000D03*
%TO.N,/rightPointerThumbBreakout/C2*%
X112499999Y16700000D03*
X106900000Y16700000D03*
%TO.N,/rightPointerThumbBreakout/IN0*%
X106425000Y62900000D03*
X84400000Y62900000D03*
%TO.N,/rightPointerThumbBreakout/IN6*%
X98200000Y53400000D03*
X81950000Y53400000D03*
%TO.N,/rightPointerThumbBreakout/IN10*%
X112000000Y62200000D03*
X106900000Y26500000D03*
X97700000Y26500000D03*
X106900000Y62200000D03*
%TO.N,/rightPointerThumbBreakout/IN16*%
X105900000Y10600000D03*
X111500000Y17700000D03*
%TO.N,/rightPinkieBreakout/C5*%
X135900000Y16000000D03*
X127400000Y16000000D03*
%TO.N,/rightPinkieBreakout/GND*%
X125900000Y36400000D03*
X134300000Y54600000D03*
X139700000Y36400000D03*
X139700000Y63700000D03*
X134300000Y27200000D03*
X134300000Y63700000D03*
X125900000Y18400000D03*
X125900000Y27200000D03*
X134300000Y45500000D03*
X125900000Y54600000D03*
X139700000Y27200000D03*
X125900000Y63700000D03*
X139700000Y54600000D03*
X134300000Y36400000D03*
X139700000Y45500000D03*
X139700000Y18400000D03*
X125900000Y45500000D03*
X134300000Y18400000D03*
%TO.N,/rightPinkieBreakout/R0*%
X138700000Y65300000D03*
X130400000Y65300000D03*
X124900000Y65300000D03*
%TO.N,/rightPinkieBreakout/R1*%
X130900000Y56200000D03*
X124900000Y56200000D03*
X138700000Y56200000D03*
%TO.N,/rightPinkieBreakout/R2*%
X124900000Y47100000D03*
X131400000Y47100000D03*
X138700000Y47100000D03*
%TO.N,/rightPinkieBreakout/R3*%
X138700000Y38000000D03*
X124900000Y38000000D03*
X131900000Y38000000D03*
%TO.N,/rightPinkieBreakout/R4*%
X138700000Y28900000D03*
X124900000Y28900000D03*
X132400000Y28900000D03*
%TO.N,/rightPinkieBreakout/R5*%
X132900000Y19800000D03*
X138700000Y19800000D03*
X124900000Y19800000D03*
%TO.N,/rightPinkieBreakout/VDD*%
X125400000Y55400000D03*
X133600000Y19100000D03*
X133600000Y55400000D03*
X139200000Y55400000D03*
X133600000Y64600000D03*
X139200000Y19100000D03*
X125400000Y28100000D03*
X125400000Y46300000D03*
X139200000Y64600000D03*
X139200000Y28100000D03*
X125400000Y64600000D03*
X139200000Y37250000D03*
X125400000Y19100000D03*
X133600000Y46300000D03*
X133600000Y37250000D03*
X125400000Y37250000D03*
X133600000Y28100000D03*
X139200000Y46300000D03*
%TO.N,/rightPinkieBreakout/IN28*%
X135550000Y62900000D03*
X126900000Y62900000D03*
%TO.N,/rightPinkieBreakout/IN40*%
X134400000Y10700000D03*
X140200000Y19100000D03*
%TO.N,/rightPinkieBreakout/IN34*%
X134950000Y62350000D03*
X140700000Y62350000D03*
X134950000Y17400000D03*
X126400000Y17400000D03*
%TD*%
D15*
%TO.N,/leftPinkieBreakout/C5*%
X27500000Y20900000D02*
X27500000Y17500000D01*
X22200000Y16000000D02*
X22200000Y11800000D01*
X27500000Y17500000D02*
X26600000Y16600000D01*
X26600000Y16600000D02*
X22800000Y16600000D01*
X22800000Y16600000D02*
X22200000Y16000000D01*
X27500000Y66400000D02*
X27500000Y20900000D01*
%TO.N,/leftPinkieBreakout/GND*%
X26000000Y30000000D02*
X26000000Y27200000D01*
D16*
X20200000Y11800000D02*
X20200000Y12600000D01*
D15*
X12200000Y57300000D02*
X12200000Y54600000D01*
X12200000Y38900000D02*
X12200000Y36400000D01*
D17*
X20600000Y13000000D02*
X20600000Y63700000D01*
D15*
X12200000Y30000000D02*
X12200000Y27200000D01*
X26000000Y66400000D02*
X26000000Y63700000D01*
X12200000Y20900000D02*
X12200000Y18400000D01*
X12200000Y66400000D02*
X12200000Y63700000D01*
X26000000Y39100000D02*
X26000000Y36400000D01*
X26000000Y48200000D02*
X26000000Y45500000D01*
X12200000Y47900000D02*
X12200000Y45500000D01*
X26000000Y20900000D02*
X26000000Y18400000D01*
X26000000Y57300000D02*
X26000000Y54600000D01*
D16*
X20200000Y12600000D02*
X20600000Y13000000D01*
D15*
%TO.N,/leftPinkieBreakout/R0*%
X11200000Y66400000D02*
X11200000Y65300000D01*
X16700000Y11800000D02*
X16700000Y65300000D01*
X25000000Y66400000D02*
X25000000Y65300000D01*
%TO.N,/leftPinkieBreakout/R1*%
X11200000Y57300000D02*
X11200000Y56200000D01*
X17200000Y11800000D02*
X17200000Y56200000D01*
X25000000Y57300000D02*
X25000000Y56200000D01*
%TO.N,/leftPinkieBreakout/R2*%
X11200000Y47900000D02*
X11200000Y47100000D01*
X25000000Y48200000D02*
X25000000Y47100000D01*
X17700000Y11800000D02*
X17700000Y47100000D01*
%TO.N,/leftPinkieBreakout/R3*%
X18200000Y11800000D02*
X18200000Y38000000D01*
X11200000Y38900000D02*
X11200000Y38000000D01*
X25000000Y39100000D02*
X25000000Y38000000D01*
%TO.N,/leftPinkieBreakout/R4*%
X11200000Y30000000D02*
X11200000Y28900000D01*
X25000000Y30000000D02*
X25000000Y28900000D01*
X18700000Y11800000D02*
X18700000Y28900000D01*
%TO.N,/leftPinkieBreakout/R5*%
X19200000Y11800000D02*
X19200000Y19800000D01*
X25000000Y20900000D02*
X25000000Y19800000D01*
X11200000Y20900000D02*
X11200000Y19800000D01*
%TO.N,/leftPinkieBreakout/VDD*%
X25500000Y66400000D02*
X25500000Y64600000D01*
X25500000Y20900000D02*
X25500000Y19100000D01*
X11700000Y57300000D02*
X11700000Y55400000D01*
X11700000Y38900000D02*
X11700000Y37250000D01*
X25500000Y39100000D02*
X25500000Y37250000D01*
X25500000Y30000000D02*
X25500000Y28100000D01*
D18*
X19700000Y11800000D02*
X19700000Y12900000D01*
D17*
X19900000Y13100000D02*
X19900000Y64600000D01*
D15*
X25500000Y57300000D02*
X25500000Y55400000D01*
D17*
X19700000Y12900000D02*
X19900000Y13100000D01*
D15*
X11700000Y20900000D02*
X11700000Y19100000D01*
X11700000Y30000000D02*
X11700000Y28100000D01*
X11700000Y47900000D02*
X11700000Y46300000D01*
X25500000Y48200000D02*
X25500000Y46300000D01*
X11700000Y66400000D02*
X11700000Y64600000D01*
%TO.N,/leftPinkieBreakout/C6*%
X21700000Y16400000D02*
X21700000Y11800000D01*
X13700000Y66400000D02*
X13700000Y16400000D01*
%TO.N,/leftPinkieBreakout/IN28*%
X27000000Y66400000D02*
X27000000Y62900000D01*
X21850000Y17400000D02*
X21850000Y62900000D01*
X21200000Y16750000D02*
X21850000Y17400000D01*
X21200000Y11800000D02*
X21200000Y16750000D01*
%TO.N,/leftPinkieBreakout/IN40*%
X12700000Y20900000D02*
X12700000Y15800000D01*
X20700000Y10700000D02*
X20700000Y11800000D01*
%TO.N,/leftPinkieBreakout/IN29*%
X26500000Y66400000D02*
X26500000Y62100000D01*
X27000000Y61600000D02*
X27000000Y57300000D01*
X26500000Y62100000D02*
X27000000Y61600000D01*
%TO.N,/leftPinkieBreakout/IN30*%
X26500000Y57300000D02*
X26500000Y53000000D01*
X26500000Y53000000D02*
X27000000Y52500000D01*
X27000000Y52500000D02*
X27000000Y48200000D01*
%TO.N,/leftPinkieBreakout/IN31*%
X27000000Y43400000D02*
X27000000Y39100000D01*
X26500000Y48200000D02*
X26500000Y43900000D01*
X26500000Y43900000D02*
X27000000Y43400000D01*
%TO.N,/leftPinkieBreakout/IN32*%
X27000000Y34300000D02*
X27000000Y30000000D01*
X26500000Y39100000D02*
X26500000Y34800000D01*
X26500000Y34800000D02*
X27000000Y34300000D01*
%TO.N,/leftPinkieBreakout/IN33*%
X27000000Y25200000D02*
X27000000Y20900000D01*
X26500000Y25700000D02*
X27000000Y25200000D01*
X26500000Y30000000D02*
X26500000Y25700000D01*
%TO.N,/leftPinkieBreakout/IN34*%
X13200000Y66400000D02*
X13200000Y62350000D01*
X21250000Y17600000D02*
X21250000Y62350000D01*
X26500000Y20900000D02*
X26500000Y17600000D01*
%TO.N,/leftPinkieBreakout/IN39*%
X12700000Y30000000D02*
X12700000Y25700000D01*
X13200000Y25200000D02*
X13200000Y20900000D01*
X12700000Y25700000D02*
X13200000Y25200000D01*
%TO.N,/leftPinkieBreakout/IN38*%
X12700000Y34700000D02*
X13200000Y34200000D01*
X13200000Y34200000D02*
X13200000Y30000000D01*
X12700000Y38900000D02*
X12700000Y34700000D01*
%TO.N,/leftPinkieBreakout/IN37*%
X12700000Y47900000D02*
X12700000Y43650000D01*
X12700000Y43650000D02*
X13200000Y43150000D01*
X13200000Y43150000D02*
X13200000Y38900000D01*
%TO.N,/leftPinkieBreakout/IN36*%
X13200000Y52350000D02*
X13200000Y47900000D01*
X12700000Y57300000D02*
X12700000Y52850000D01*
X12700000Y52850000D02*
X13200000Y52350000D01*
%TO.N,/leftPinkieBreakout/IN35*%
X12700000Y62100000D02*
X13200000Y61600000D01*
X12700000Y66400000D02*
X12700000Y62100000D01*
X13200000Y61600000D02*
X13200000Y57300000D01*
%TO.N,/leftPointerThumbBreakout/GND*%
X40900001Y36800001D02*
X40900001Y39100000D01*
X68500000Y54600000D02*
X68500000Y57300000D01*
X40900002Y64000000D02*
X40900001Y64000001D01*
X68550000Y63800000D02*
X68500000Y63850000D01*
X40900001Y30000000D02*
X40900001Y27200001D01*
D16*
X48900000Y12600000D02*
X48900000Y11800000D01*
D15*
X54700000Y57300000D02*
X54700000Y54600000D01*
X68550000Y63700000D02*
X68550000Y63800000D01*
X40900001Y54900001D02*
X40900001Y57300000D01*
X40900002Y54600000D02*
X40900002Y54900000D01*
X68500000Y63850000D02*
X68500000Y66400000D01*
X40900001Y20900000D02*
X40900002Y18400000D01*
X40900001Y27200001D02*
X40900002Y27200000D01*
X40900002Y54900000D02*
X40900001Y54900001D01*
X40900001Y45800001D02*
X40900001Y48200000D01*
X68500000Y27200000D02*
X68500000Y30000000D01*
X40900002Y45500000D02*
X40900002Y45800000D01*
X54700000Y39100000D02*
X54700000Y36400000D01*
X68500000Y45500000D02*
X68500000Y48200000D01*
X68500000Y20900000D02*
X68500000Y18400000D01*
X68500000Y36400000D02*
X68500000Y39100000D01*
X40900001Y64000001D02*
X40900001Y66400000D01*
X54700000Y30000000D02*
X54700000Y27200000D01*
D16*
X49300000Y13000000D02*
X48900000Y12600000D01*
D15*
X40900002Y36400000D02*
X40900002Y36800000D01*
X40900002Y45800000D02*
X40900001Y45800001D01*
X54700000Y48200000D02*
X54700000Y45500000D01*
X40900002Y63700000D02*
X40900002Y64000000D01*
D17*
X49300000Y63700000D02*
X49300000Y13000000D01*
D15*
X40900002Y36800000D02*
X40900001Y36800001D01*
%TO.N,/leftPointerThumbBreakout/R0*%
X45400000Y11800000D02*
X45400000Y65300000D01*
X39900001Y66400000D02*
X39900001Y65300001D01*
X67500000Y66400000D02*
X67500000Y65300000D01*
X39900001Y65300001D02*
X39900002Y65300000D01*
%TO.N,/leftPointerThumbBreakout/R1*%
X45900000Y11800000D02*
X45900000Y56200000D01*
X39900001Y57300000D02*
X39900002Y56200000D01*
X67500000Y57300000D02*
X67500000Y56200000D01*
X53700000Y57300000D02*
X53700000Y56200000D01*
%TO.N,/leftPointerThumbBreakout/R2*%
X67500000Y48200000D02*
X67500000Y47100000D01*
X53700000Y48200000D02*
X53700000Y47100000D01*
X39900001Y48200000D02*
X39900002Y47100000D01*
X46400000Y11800000D02*
X46400000Y47100000D01*
%TO.N,/leftPointerThumbBreakout/R3*%
X67500000Y39100000D02*
X67500000Y38000000D01*
X53700000Y39100000D02*
X53700000Y38000000D01*
X39900001Y39100000D02*
X39900002Y38000000D01*
X46900000Y11800000D02*
X46900000Y38000000D01*
%TO.N,/leftPointerThumbBreakout/R4*%
X67500000Y30000000D02*
X67500000Y28900000D01*
X39900001Y30000000D02*
X39900001Y28900001D01*
X39900001Y28900001D02*
X39900002Y28900000D01*
X53700000Y30000000D02*
X53700000Y28900000D01*
X47400000Y11800000D02*
X47400000Y28900000D01*
%TO.N,/leftPointerThumbBreakout/R5*%
X67500000Y20900000D02*
X67500000Y19800000D01*
X39900001Y19800001D02*
X39900002Y19800000D01*
X47900000Y19800000D02*
X47900000Y11800000D01*
X39900001Y20900000D02*
X39900001Y19800001D01*
%TO.N,/leftPointerThumbBreakout/VDD*%
X40400002Y64600000D02*
X40400002Y64916114D01*
X40400001Y37400001D02*
X40400001Y39100000D01*
X40450001Y46450001D02*
X40400001Y46500001D01*
X40400000Y37400000D02*
X40400001Y37400001D01*
X54200000Y57300000D02*
X54200000Y55400000D01*
X40400001Y55600001D02*
X40400001Y57300000D01*
X40400002Y28599998D02*
X40400001Y28599999D01*
X54200000Y28100000D02*
X54200000Y30000000D01*
X68000000Y64600000D02*
X68000000Y66400000D01*
X40400002Y64916114D02*
X40400001Y64916115D01*
X68000000Y57300000D02*
X68000000Y55400000D01*
X68000000Y46300000D02*
X68000000Y48200000D01*
X54200000Y48200000D02*
X54200000Y46300000D01*
X54200000Y39100000D02*
X54200000Y37250000D01*
D16*
X48600000Y12900000D02*
X48400000Y12700000D01*
D15*
X40400002Y55400000D02*
X40450001Y55449999D01*
X40400001Y28599999D02*
X40400001Y30000000D01*
X40400001Y19100000D02*
X40400001Y20900000D01*
X40400000Y37250001D02*
X40400000Y37400000D01*
X68000000Y20900000D02*
X68000000Y19100000D01*
X40400001Y64916115D02*
X40400001Y66400000D01*
X40450001Y46349999D02*
X40450001Y46450001D01*
X40450001Y55550001D02*
X40400001Y55600001D01*
X40450001Y55449999D02*
X40450001Y55550001D01*
X40400002Y28100000D02*
X40400002Y28599998D01*
D17*
X48600000Y64600000D02*
X48600000Y13100000D01*
D16*
X48600000Y13100000D02*
X48600000Y12900000D01*
D15*
X68000000Y37250000D02*
X68000000Y39100000D01*
X68000000Y28100000D02*
X68000000Y30000000D01*
D16*
X48400000Y12700000D02*
X48400000Y11800000D01*
D15*
X40400001Y46500001D02*
X40400001Y48200000D01*
X40400002Y46300000D02*
X40450001Y46349999D01*
%TO.N,/leftPointerThumbBreakout/C0*%
X51400000Y11800000D02*
X51400000Y17700000D01*
X70000000Y20900000D02*
X70000000Y17700000D01*
X70000000Y66400000D02*
X70000000Y20900000D01*
%TO.N,/leftPointerThumbBreakout/C1*%
X50900000Y16900000D02*
X50900000Y11800000D01*
X50400000Y17400000D02*
X50900000Y16900000D01*
X56200000Y30000000D02*
X56200000Y25800000D01*
X56200000Y57300000D02*
X56200000Y30000000D01*
X50400000Y25800000D02*
X50400000Y17400000D01*
%TO.N,/leftPointerThumbBreakout/C2*%
X42400001Y17700000D02*
X42400001Y20900000D01*
X50350000Y12900000D02*
X50400000Y12850000D01*
X42400001Y66400000D02*
X42400001Y20900000D01*
X50400000Y12850000D02*
X50400000Y11800000D01*
%TO.N,/leftPointerThumbBreakout/IN0*%
X69500000Y66400000D02*
X69500000Y62900000D01*
X49900000Y62875000D02*
X49900000Y11800000D01*
X49925000Y62900000D02*
X49900000Y62875000D01*
%TO.N,/leftPointerThumbBreakout/IN1*%
X69000000Y61550000D02*
X69500000Y61050000D01*
X69000000Y66400000D02*
X69000000Y61550000D01*
X69500000Y61050000D02*
X69500000Y57300000D01*
%TO.N,/leftPointerThumbBreakout/IN2*%
X69500000Y52100000D02*
X69500000Y48200000D01*
X69000000Y57300000D02*
X69000000Y52600000D01*
X69000000Y52600000D02*
X69500000Y52100000D01*
%TO.N,/leftPointerThumbBreakout/IN3*%
X69000000Y48200000D02*
X69000000Y43350000D01*
X69500000Y42850000D02*
X69500000Y39100000D01*
X69000000Y43350000D02*
X69500000Y42850000D01*
%TO.N,/leftPointerThumbBreakout/IN4*%
X69000000Y34350000D02*
X69500000Y33850000D01*
X69000000Y39100000D02*
X69000000Y34350000D01*
X69500000Y33850000D02*
X69500000Y30000000D01*
%TO.N,/leftPointerThumbBreakout/IN5*%
X69000000Y25600000D02*
X69500000Y25100000D01*
X69500000Y25100000D02*
X69500000Y20900000D01*
X69000000Y30000000D02*
X69000000Y25600000D01*
%TO.N,/leftPointerThumbBreakout/IN6*%
X55700000Y57300000D02*
X55700000Y53400000D01*
X67050000Y53400000D02*
X67050000Y26850000D01*
X69000000Y24900000D02*
X69000000Y20900000D01*
X67050000Y26850000D02*
X69000000Y24900000D01*
%TO.N,/leftPointerThumbBreakout/IN7*%
X55200000Y52550000D02*
X55700000Y52050000D01*
X55700000Y52050000D02*
X55700000Y48200000D01*
X55200000Y57300000D02*
X55200000Y52550000D01*
%TO.N,/leftPointerThumbBreakout/IN8*%
X55700000Y43050000D02*
X55700000Y39100000D01*
X55200000Y43550000D02*
X55700000Y43050000D01*
X55200000Y48200000D02*
X55200000Y43550000D01*
%TO.N,/leftPointerThumbBreakout/IN9*%
X55200000Y34300000D02*
X55700000Y33800000D01*
X55700000Y33800000D02*
X55700000Y30000000D01*
X55200000Y39100000D02*
X55200000Y34300000D01*
%TO.N,/leftPointerThumbBreakout/IN10*%
X41900001Y62200001D02*
X41900002Y62200000D01*
X55200000Y30000000D02*
X55200000Y26500000D01*
X41900001Y66400000D02*
X41900001Y62200001D01*
X50400000Y26500000D02*
X50400000Y62200000D01*
%TO.N,/leftPointerThumbBreakout/IN11*%
X41400001Y61540001D02*
X41900001Y61040001D01*
X41400001Y66400000D02*
X41400001Y61540001D01*
X41900001Y61040001D02*
X41900001Y57300000D01*
%TO.N,/leftPointerThumbBreakout/IN12*%
X41900001Y52750001D02*
X41900001Y48200000D01*
X41400001Y53250001D02*
X41900001Y52750001D01*
X41400001Y57300000D02*
X41400001Y53250001D01*
%TO.N,/leftPointerThumbBreakout/IN13*%
X41400001Y43500001D02*
X41900001Y43000001D01*
X41900001Y43000001D02*
X41900001Y39100000D01*
X41400001Y48200000D02*
X41400001Y43500001D01*
%TO.N,/leftPointerThumbBreakout/IN14*%
X41400001Y39100000D02*
X41400001Y34500001D01*
X41900001Y34000001D02*
X41900001Y30000000D01*
X41400001Y34500001D02*
X41900001Y34000001D01*
%TO.N,/leftPointerThumbBreakout/IN15*%
X41400001Y25250001D02*
X41900001Y24750001D01*
X41900001Y24750001D02*
X41900001Y20900000D01*
X41400001Y30000000D02*
X41400001Y25250001D01*
%TO.N,/leftPointerThumbBreakout/IN16*%
X41400001Y20900000D02*
X41400001Y17200000D01*
X49400000Y11800000D02*
X49400000Y10700000D01*
%TO.N,/rightPointerThumbBreakout/GND*%
X97200000Y30000000D02*
X97200000Y27200000D01*
X110999999Y30000000D02*
X110999999Y27200001D01*
X97200000Y57300000D02*
X97200000Y54600000D01*
X110999999Y45800001D02*
X110999999Y48200000D01*
X110999999Y64000001D02*
X110999999Y66400000D01*
X110999999Y36800001D02*
X110999999Y39100000D01*
X111000000Y36800000D02*
X110999999Y36800001D01*
X83400000Y20900000D02*
X83400000Y18400000D01*
X83400000Y27200000D02*
X83400000Y30000000D01*
D18*
X105400000Y11800000D02*
X105400000Y12622183D01*
X105450000Y12900000D02*
X105550000Y13000000D01*
D15*
X83400000Y45500000D02*
X83400000Y48200000D01*
X83450000Y63800000D02*
X83400000Y63850000D01*
X97200000Y48200000D02*
X97200000Y45500000D01*
X83400000Y63850000D02*
X83400000Y66400000D01*
X111000000Y54600000D02*
X111000000Y54900000D01*
D17*
X105800000Y63700000D02*
X105800000Y13150000D01*
D15*
X83400000Y54600000D02*
X83400000Y57300000D01*
D17*
X105800000Y13150000D02*
X105550000Y12900000D01*
D15*
X83450000Y63700000D02*
X83450000Y63800000D01*
D18*
X105400000Y12622183D02*
X105450000Y12672183D01*
D15*
X110999999Y20900000D02*
X111000000Y18400000D01*
X83400000Y36400000D02*
X83400000Y39100000D01*
X111000000Y45800000D02*
X110999999Y45800001D01*
X111000000Y63700000D02*
X111000000Y64000000D01*
X110999999Y54900001D02*
X110999999Y57300000D01*
D18*
X105450000Y12672183D02*
X105450000Y12900000D01*
D15*
X111000000Y54900000D02*
X110999999Y54900001D01*
X111000000Y36400000D02*
X111000000Y36800000D01*
X97200000Y39100000D02*
X97200000Y36400000D01*
X110999999Y27200001D02*
X111000000Y27200000D01*
X111000000Y64000000D02*
X110999999Y64000001D01*
X111000000Y45500000D02*
X111000000Y45800000D01*
%TO.N,/rightPointerThumbBreakout/R0*%
X109999999Y65300001D02*
X110000000Y65300000D01*
X101900000Y11800000D02*
X101900000Y65300000D01*
X109999999Y66400000D02*
X109999999Y65300001D01*
X82400000Y66400000D02*
X82400000Y65300000D01*
%TO.N,/rightPointerThumbBreakout/R1*%
X82400000Y57300000D02*
X82400000Y56200000D01*
X109999999Y57300000D02*
X110000000Y56200000D01*
X102400000Y11800000D02*
X102400000Y56200000D01*
X96200000Y57300000D02*
X96200000Y56200000D01*
%TO.N,/rightPointerThumbBreakout/R2*%
X82400000Y48200000D02*
X82400000Y47100000D01*
X109999999Y48200000D02*
X110000000Y47100000D01*
X96200000Y48200000D02*
X96200000Y47100000D01*
X102900000Y11800000D02*
X102900000Y47100000D01*
%TO.N,/rightPointerThumbBreakout/R3*%
X82400000Y39100000D02*
X82400000Y38000000D01*
X103400000Y11800000D02*
X103400000Y38000000D01*
X109999999Y39100000D02*
X110000000Y38000000D01*
X96200000Y39100000D02*
X96200000Y38000000D01*
%TO.N,/rightPointerThumbBreakout/R4*%
X109999999Y28900001D02*
X110000000Y28900000D01*
X96200000Y30000000D02*
X96200000Y28900000D01*
X82400000Y30000000D02*
X82400000Y28900000D01*
X109999999Y30000000D02*
X109999999Y28900001D01*
X103900000Y11800000D02*
X103900000Y28900000D01*
%TO.N,/rightPointerThumbBreakout/R5*%
X109999999Y20900000D02*
X109999999Y19800001D01*
X104400000Y19800000D02*
X104400000Y11800000D01*
X109999999Y19800001D02*
X110000000Y19800000D01*
X82400000Y20900000D02*
X82400000Y19800000D01*
%TO.N,/rightPointerThumbBreakout/VDD*%
X110499999Y64916115D02*
X110499999Y66400000D01*
X110549999Y46450001D02*
X110499999Y46500001D01*
D18*
X104900000Y11800000D02*
X104900000Y12900000D01*
D15*
X96700000Y39100000D02*
X96700000Y37250000D01*
X110549999Y55449999D02*
X110549999Y55550001D01*
X110499999Y55600001D02*
X110499999Y57300000D01*
X110499999Y46500001D02*
X110499999Y48200000D01*
X110549999Y55550001D02*
X110499999Y55600001D01*
D17*
X105100000Y13400000D02*
X104900000Y13200000D01*
D15*
X110499999Y37400001D02*
X110499999Y39100000D01*
X110500000Y55400000D02*
X110549999Y55449999D01*
X96700000Y48200000D02*
X96700000Y46300000D01*
X110500000Y28100000D02*
X110500000Y28599998D01*
X82900000Y46300000D02*
X82900000Y48200000D01*
X110500000Y64600000D02*
X110500000Y64916114D01*
X82900000Y57300000D02*
X82900000Y55400000D01*
D17*
X105100000Y64600000D02*
X105100000Y13400000D01*
D15*
X110499999Y19100000D02*
X110499999Y20900000D01*
D17*
X104900000Y13200000D02*
X104900000Y12900000D01*
D15*
X110500000Y46300000D02*
X110549999Y46349999D01*
X110549999Y46349999D02*
X110549999Y46450001D01*
X82900000Y37250000D02*
X82900000Y39100000D01*
X110500000Y28599998D02*
X110499999Y28599999D01*
X96700000Y28100000D02*
X96700000Y30000000D01*
X82900000Y64600000D02*
X82900000Y66400000D01*
X82900000Y28100000D02*
X82900000Y30000000D01*
X82900000Y20900000D02*
X82900000Y19100000D01*
X110499998Y37400000D02*
X110499999Y37400001D01*
X96700000Y57300000D02*
X96700000Y55400000D01*
X110499999Y28599999D02*
X110499999Y30000000D01*
X110500000Y64916114D02*
X110499999Y64916115D01*
X110499998Y37250001D02*
X110499998Y37400000D01*
%TO.N,/rightPointerThumbBreakout/C0*%
X84900000Y20900000D02*
X84900000Y17700000D01*
X84900000Y66400000D02*
X84900000Y20900000D01*
X107900000Y10100000D02*
X107900000Y11800000D01*
%TO.N,/rightPointerThumbBreakout/C1*%
X98700000Y57300000D02*
X98700000Y30000000D01*
X107400000Y16900000D02*
X107400000Y11800000D01*
X106900000Y17400000D02*
X107400000Y16900000D01*
X98700000Y30000000D02*
X98700000Y25800000D01*
X106900000Y25800000D02*
X106900000Y17400000D01*
%TO.N,/rightPointerThumbBreakout/C2*%
X112499999Y66400000D02*
X112499999Y20900000D01*
X112499999Y16700000D02*
X112499999Y20900000D01*
X106900000Y16700000D02*
X106900000Y11800000D01*
%TO.N,/rightPointerThumbBreakout/IN0*%
X106400000Y62875000D02*
X106400000Y11800000D01*
X106425000Y62900000D02*
X106400000Y62875000D01*
X84400000Y66400000D02*
X84400000Y62900000D01*
%TO.N,/rightPointerThumbBreakout/IN1*%
X83900000Y66400000D02*
X83900000Y61550000D01*
X84400000Y61050000D02*
X84400000Y57300000D01*
X83900000Y61550000D02*
X84400000Y61050000D01*
%TO.N,/rightPointerThumbBreakout/IN2*%
X84400000Y52100000D02*
X84400000Y48200000D01*
X83900000Y52600000D02*
X84400000Y52100000D01*
X83900000Y57300000D02*
X83900000Y52600000D01*
%TO.N,/rightPointerThumbBreakout/IN3*%
X84400000Y42850000D02*
X84400000Y39100000D01*
X83900000Y48200000D02*
X83900000Y43350000D01*
X83900000Y43350000D02*
X84400000Y42850000D01*
%TO.N,/rightPointerThumbBreakout/IN4*%
X84400000Y33850000D02*
X84400000Y30000000D01*
X83900000Y39100000D02*
X83900000Y34350000D01*
X83900000Y34350000D02*
X84400000Y33850000D01*
%TO.N,/rightPointerThumbBreakout/IN5*%
X83900000Y30000000D02*
X83900000Y25600000D01*
X84400000Y25100000D02*
X84400000Y20900000D01*
X83900000Y25600000D02*
X84400000Y25100000D01*
%TO.N,/rightPointerThumbBreakout/IN6*%
X81950000Y53400000D02*
X81950000Y26850000D01*
X83900000Y24900000D02*
X83900000Y20900000D01*
X98200000Y57300000D02*
X98200000Y53400000D01*
X81950000Y26850000D02*
X83900000Y24900000D01*
%TO.N,/rightPointerThumbBreakout/IN7*%
X97700000Y57300000D02*
X97700000Y52550000D01*
X98200000Y52050000D02*
X98200000Y48200000D01*
X97700000Y52550000D02*
X98200000Y52050000D01*
%TO.N,/rightPointerThumbBreakout/IN8*%
X97700000Y43550000D02*
X98200000Y43050000D01*
X97700000Y48200000D02*
X97700000Y43550000D01*
X98200000Y43050000D02*
X98200000Y39100000D01*
%TO.N,/rightPointerThumbBreakout/IN9*%
X97700000Y34300000D02*
X98200000Y33800000D01*
X98200000Y33800000D02*
X98200000Y30000000D01*
X97700000Y39100000D02*
X97700000Y34300000D01*
%TO.N,/rightPointerThumbBreakout/IN10*%
X97700000Y30000000D02*
X97700000Y26500000D01*
X111999999Y66400000D02*
X111999999Y62200001D01*
X111999999Y62200001D02*
X112000000Y62200000D01*
X106900000Y26500000D02*
X106900000Y62200000D01*
%TO.N,/rightPointerThumbBreakout/IN11*%
X111499999Y61540001D02*
X111999999Y61040001D01*
X111999999Y61040001D02*
X111999999Y57300000D01*
X111499999Y66400000D02*
X111499999Y61540001D01*
%TO.N,/rightPointerThumbBreakout/IN12*%
X111499999Y57300000D02*
X111499999Y53250001D01*
X111499999Y53250001D02*
X111999999Y52750001D01*
X111999999Y52750001D02*
X111999999Y48200000D01*
%TO.N,/rightPointerThumbBreakout/IN13*%
X111499999Y48200000D02*
X111499999Y43500001D01*
X111999999Y43000001D02*
X111999999Y39100000D01*
X111499999Y43500001D02*
X111999999Y43000001D01*
%TO.N,/rightPointerThumbBreakout/IN14*%
X111999999Y34000001D02*
X111999999Y30000000D01*
X111499999Y39100000D02*
X111499999Y34500001D01*
X111499999Y34500001D02*
X111999999Y34000001D01*
%TO.N,/rightPointerThumbBreakout/IN15*%
X111499999Y25250001D02*
X111999999Y24750001D01*
X111499999Y30000000D02*
X111499999Y25250001D01*
X111999999Y24750001D02*
X111999999Y20900000D01*
%TO.N,/rightPointerThumbBreakout/IN16*%
X105900000Y11800000D02*
X105900000Y10600000D01*
X111500000Y17700000D02*
X111500000Y19218450D01*
X111499999Y19218451D02*
X111499999Y20900000D01*
X111500000Y19218450D02*
X111499999Y19218451D01*
%TO.N,/rightPinkieBreakout/C5*%
X135900000Y11800000D02*
X135900000Y11000000D01*
X127400000Y20900000D02*
X127400000Y16000000D01*
X135900000Y11800000D02*
X135900000Y16000000D01*
X127400000Y66400000D02*
X127400000Y20900000D01*
D16*
%TO.N,/rightPinkieBreakout/GND*%
X133900000Y12600000D02*
X134300000Y13000000D01*
D15*
X125900000Y57300000D02*
X125900000Y54600000D01*
X139700000Y66400000D02*
X139700000Y63700000D01*
X139700000Y57300000D02*
X139700000Y54600000D01*
X125900000Y66400000D02*
X125900000Y63700000D01*
D17*
X134300000Y13000000D02*
X134300000Y63700000D01*
D15*
X139700000Y20900000D02*
X139700000Y18400000D01*
X139700000Y38900000D02*
X139700000Y36400000D01*
X139700000Y47900000D02*
X139700000Y45500000D01*
X139700000Y30000000D02*
X139700000Y27200000D01*
D18*
X133900000Y11800000D02*
X133900000Y12600000D01*
D15*
X125900000Y48200000D02*
X125900000Y45500000D01*
X125900000Y20900000D02*
X125900000Y18400000D01*
X125900000Y39100000D02*
X125900000Y36400000D01*
X125900000Y30000000D02*
X125900000Y27200000D01*
%TO.N,/rightPinkieBreakout/R0*%
X138700000Y66400000D02*
X138700000Y65300000D01*
X124900000Y66400000D02*
X124900000Y65300000D01*
X130400000Y11800000D02*
X130400000Y65300000D01*
%TO.N,/rightPinkieBreakout/R1*%
X138700000Y57300000D02*
X138700000Y56200000D01*
X124900000Y57300000D02*
X124900000Y56200000D01*
X130900000Y11800000D02*
X130900000Y56200000D01*
%TO.N,/rightPinkieBreakout/R2*%
X138700000Y47900000D02*
X138700000Y47100000D01*
X131400000Y11800000D02*
X131400000Y47100000D01*
X124900000Y48200000D02*
X124900000Y47100000D01*
%TO.N,/rightPinkieBreakout/R3*%
X138700000Y38900000D02*
X138700000Y38000000D01*
X124900000Y39100000D02*
X124900000Y38000000D01*
X131900000Y11800000D02*
X131900000Y38000000D01*
%TO.N,/rightPinkieBreakout/R4*%
X132400000Y11800000D02*
X132400000Y28900000D01*
X124900000Y30000000D02*
X124900000Y28900000D01*
X138700000Y30000000D02*
X138700000Y28900000D01*
%TO.N,/rightPinkieBreakout/R5*%
X124900000Y20900000D02*
X124900000Y19800000D01*
X138700000Y20900000D02*
X138700000Y19800000D01*
X132900000Y11800000D02*
X132900000Y19800000D01*
%TO.N,/rightPinkieBreakout/VDD*%
X139200000Y66400000D02*
X139200000Y64600000D01*
X139200000Y20900000D02*
X139200000Y19100000D01*
X125400000Y57300000D02*
X125400000Y55400000D01*
X125400000Y39100000D02*
X125400000Y37250000D01*
D18*
X133400000Y12800000D02*
X133400000Y11800000D01*
D15*
X125400000Y20900000D02*
X125400000Y19100000D01*
D18*
X133600000Y13000000D02*
X133400000Y12800000D01*
X133600000Y13100000D02*
X133600000Y13000000D01*
D17*
X133600000Y13100000D02*
X133600000Y64600000D01*
D15*
X125400000Y30000000D02*
X125400000Y28100000D01*
X139200000Y30000000D02*
X139200000Y28100000D01*
X139200000Y38900000D02*
X139200000Y37250000D01*
X125400000Y48200000D02*
X125400000Y46300000D01*
X125400000Y66400000D02*
X125400000Y64600000D01*
X139200000Y57300000D02*
X139200000Y55400000D01*
X139200000Y47900000D02*
X139200000Y46300000D01*
%TO.N,/rightPinkieBreakout/C6*%
X135400000Y16400000D02*
X135400000Y11800000D01*
X140700000Y17100000D02*
X136100000Y17100000D01*
X141200000Y20900000D02*
X141200000Y17600000D01*
X136100000Y17100000D02*
X135400000Y16400000D01*
X141200000Y66400000D02*
X141200000Y20900000D01*
X141200000Y17600000D02*
X140700000Y17100000D01*
%TO.N,/rightPinkieBreakout/IN28*%
X135550000Y17150000D02*
X135550000Y62900000D01*
X126900000Y66400000D02*
X126900000Y62900000D01*
X134900000Y16500000D02*
X135550000Y17150000D01*
X134900000Y11800000D02*
X134900000Y16500000D01*
%TO.N,/rightPinkieBreakout/IN40*%
X140200000Y20900000D02*
X140200000Y19100000D01*
X134400000Y11800000D02*
X134400000Y10700000D01*
%TO.N,/rightPinkieBreakout/IN29*%
X126400000Y66400000D02*
X126400000Y62100000D01*
X126400000Y62100000D02*
X126900000Y61600000D01*
X126900000Y61600000D02*
X126900000Y57300000D01*
%TO.N,/rightPinkieBreakout/IN30*%
X126400000Y53000000D02*
X126900000Y52500000D01*
X126900000Y52500000D02*
X126900000Y48200000D01*
X126400000Y57300000D02*
X126400000Y53000000D01*
%TO.N,/rightPinkieBreakout/IN31*%
X126400000Y43900000D02*
X126900000Y43400000D01*
X126900000Y43400000D02*
X126900000Y39100000D01*
X126400000Y48200000D02*
X126400000Y43900000D01*
%TO.N,/rightPinkieBreakout/IN32*%
X126400000Y39100000D02*
X126400000Y34800000D01*
X126900000Y34300000D02*
X126900000Y30000000D01*
X126400000Y34800000D02*
X126900000Y34300000D01*
%TO.N,/rightPinkieBreakout/IN33*%
X126400000Y30000000D02*
X126400000Y25700000D01*
X126900000Y25200000D02*
X126900000Y20900000D01*
X126400000Y25700000D02*
X126900000Y25200000D01*
%TO.N,/rightPinkieBreakout/IN34*%
X134950000Y17400000D02*
X134950000Y62350000D01*
X140700000Y66400000D02*
X140700000Y62350000D01*
X126400000Y20900000D02*
X126400000Y17400000D01*
%TO.N,/rightPinkieBreakout/IN39*%
X140200000Y25700000D02*
X140700000Y25200000D01*
X140200000Y30000000D02*
X140200000Y25700000D01*
X140700000Y25200000D02*
X140700000Y20900000D01*
%TO.N,/rightPinkieBreakout/IN38*%
X140200000Y38900000D02*
X140200000Y34700000D01*
X140200000Y34700000D02*
X140700000Y34200000D01*
X140700000Y34200000D02*
X140700000Y30000000D01*
%TO.N,/rightPinkieBreakout/IN37*%
X140200000Y47900000D02*
X140200000Y43650000D01*
X140200000Y43650000D02*
X140700000Y43150000D01*
X140700000Y43150000D02*
X140700000Y38900000D01*
%TO.N,/rightPinkieBreakout/IN36*%
X140200000Y57300000D02*
X140200000Y52850000D01*
X140200000Y52850000D02*
X140700000Y52350000D01*
X140700000Y52350000D02*
X140700000Y47900000D01*
%TO.N,/rightPinkieBreakout/IN35*%
X140200000Y62100000D02*
X140700000Y61600000D01*
X140200000Y66400000D02*
X140200000Y62100000D01*
X140700000Y61600000D02*
X140700000Y57300000D01*
%TD*%
M02*
