%TF.GenerationSoftware,KiCad,Pcbnew,9.0.8-4-g1ee99dff*%
%TF.CreationDate,2026-10-06T23:02:15-06:00*%
%TF.ProjectId,keyboardBreakoutPanel,6b657962-6f61-4726-9442-7265616b6f75,1*%
%TF.SameCoordinates,Original*%
%TF.FileFunction,Paste,Top*%
%TF.FilePolarity,Positive*%
%FSLAX46Y46*%
G04 Gerber Fmt 4.6, Leading zero omitted, Abs format (unit mm)*
G04 Created by KiCad (PCBNEW 9.0.8-4-g1ee99dff) date 2026-10-06 23:02:15*
%MOMM*%
%LPD*%
G01*
G04 APERTURE LIST*
%ADD10R,0.250000X1.500000*%
%ADD11R,2.000000X1.700000*%
%ADD12R,0.300000X1.500000*%
G04 APERTURE END LIST*
D10*
%TO.C,J5*%
X25000000Y39100000D03*
X25500000Y39100000D03*
X26000000Y39100000D03*
X26500000Y39100000D03*
X27000000Y39100000D03*
X27500000Y39100000D03*
D11*
X29200000Y36500000D03*
X23300000Y36500000D03*
%TD*%
D10*
%TO.C,J7*%
X25000000Y20900000D03*
X25500000Y20900000D03*
X26000000Y20900000D03*
X26500000Y20900000D03*
X27000000Y20900000D03*
X27500000Y20900000D03*
D11*
X29200000Y18300000D03*
X23300000Y18300000D03*
%TD*%
D10*
%TO.C,J19*%
X67500000Y30000000D03*
X68000000Y30000000D03*
X68500000Y30000000D03*
X69000000Y30000000D03*
X69500000Y30000000D03*
X70000000Y30000000D03*
D11*
X71700000Y27400000D03*
X65800000Y27400000D03*
%TD*%
D10*
%TO.C,J22*%
X53700000Y48200000D03*
X54200000Y48200000D03*
X54700000Y48200000D03*
X55200000Y48200000D03*
X55700000Y48200000D03*
X56200000Y48200000D03*
D11*
X57900000Y45600000D03*
X52000000Y45600000D03*
%TD*%
D10*
%TO.C,J13*%
X11200000Y20900000D03*
X11700000Y20900000D03*
X12200000Y20900000D03*
X12700000Y20900000D03*
X13200000Y20900000D03*
X13700000Y20900000D03*
D11*
X15400000Y18300000D03*
X9500000Y18300000D03*
%TD*%
D10*
%TO.C,J39*%
X96200000Y48200000D03*
X96700000Y48200000D03*
X97200000Y48200000D03*
X97700000Y48200000D03*
X98200000Y48200000D03*
X98700000Y48200000D03*
D11*
X100400000Y45600000D03*
X94500000Y45600000D03*
%TD*%
D10*
%TO.C,J43*%
X109999999Y57300000D03*
X110499999Y57300000D03*
X110999999Y57300000D03*
X111499999Y57300000D03*
X111999999Y57300000D03*
X112499999Y57300000D03*
D11*
X114199999Y54700000D03*
X108299999Y54700000D03*
%TD*%
D10*
%TO.C,J51*%
X124900000Y48200000D03*
X125400000Y48200000D03*
X125900000Y48200000D03*
X126400000Y48200000D03*
X126900000Y48200000D03*
X127400000Y48200000D03*
D11*
X129100000Y45600000D03*
X123200000Y45600000D03*
%TD*%
D10*
%TO.C,J27*%
X39900001Y20900000D03*
X40400001Y20900000D03*
X40900001Y20900000D03*
X41400001Y20900000D03*
X41900001Y20900000D03*
X42400001Y20900000D03*
D11*
X44100001Y18300000D03*
X38200001Y18300000D03*
%TD*%
D10*
%TO.C,J58*%
X138700000Y38900000D03*
X139200000Y38900000D03*
X139700000Y38900000D03*
X140200000Y38900000D03*
X140700000Y38900000D03*
X141200000Y38900000D03*
D11*
X142900000Y36300000D03*
X137000000Y36300000D03*
%TD*%
D10*
%TO.C,J49*%
X124900000Y66400000D03*
X125400000Y66400000D03*
X125900000Y66400000D03*
X126400000Y66400000D03*
X126900000Y66400000D03*
X127400000Y66400000D03*
D11*
X129100000Y63800000D03*
X123200000Y63800000D03*
%TD*%
D10*
%TO.C,J8*%
X11200000Y66400000D03*
X11700000Y66400000D03*
X12200000Y66400000D03*
X12700000Y66400000D03*
X13200000Y66400000D03*
X13700000Y66400000D03*
D11*
X15400000Y63800000D03*
X9500000Y63800000D03*
%TD*%
D10*
%TO.C,J36*%
X82400000Y30000000D03*
X82900000Y30000000D03*
X83400000Y30000000D03*
X83900000Y30000000D03*
X84400000Y30000000D03*
X84900000Y30000000D03*
D11*
X86600000Y27400000D03*
X80700000Y27400000D03*
%TD*%
D10*
%TO.C,J16*%
X67500000Y57300000D03*
X68000000Y57300000D03*
X68500000Y57300000D03*
X69000000Y57300000D03*
X69500000Y57300000D03*
X70000000Y57300000D03*
D11*
X71700000Y54700000D03*
X65800000Y54700000D03*
%TD*%
D10*
%TO.C,J47*%
X109999999Y48200000D03*
X110499999Y48200000D03*
X110999999Y48200000D03*
X111499999Y48200000D03*
X111999999Y48200000D03*
X112499999Y48200000D03*
D11*
X114199999Y45600000D03*
X108299999Y45600000D03*
%TD*%
D10*
%TO.C,J60*%
X138700000Y20900000D03*
X139200000Y20900000D03*
X139700000Y20900000D03*
X140200000Y20900000D03*
X140700000Y20900000D03*
X141200000Y20900000D03*
D11*
X142900000Y18300000D03*
X137000000Y18300000D03*
%TD*%
D10*
%TO.C,J18*%
X67500000Y39100000D03*
X68000000Y39100000D03*
X68500000Y39100000D03*
X69000000Y39100000D03*
X69500000Y39100000D03*
X70000000Y39100000D03*
D11*
X71700000Y36500000D03*
X65800000Y36500000D03*
%TD*%
D10*
%TO.C,J21*%
X53700000Y57300000D03*
X54200000Y57300000D03*
X54700000Y57300000D03*
X55200000Y57300000D03*
X55700000Y57300000D03*
X56200000Y57300000D03*
D11*
X57900000Y54700000D03*
X52000000Y54700000D03*
%TD*%
D10*
%TO.C,J44*%
X109999999Y20900000D03*
X110499999Y20900000D03*
X110999999Y20900000D03*
X111499999Y20900000D03*
X111999999Y20900000D03*
X112499999Y20900000D03*
D11*
X114199999Y18300000D03*
X108299999Y18300000D03*
%TD*%
D10*
%TO.C,J32*%
X82400000Y66400000D03*
X82900000Y66400000D03*
X83400000Y66400000D03*
X83900000Y66400000D03*
X84400000Y66400000D03*
X84900000Y66400000D03*
D11*
X86600000Y63800000D03*
X80700000Y63800000D03*
%TD*%
D10*
%TO.C,J28*%
X39900001Y30000000D03*
X40400001Y30000000D03*
X40900001Y30000000D03*
X41400001Y30000000D03*
X41900001Y30000000D03*
X42400001Y30000000D03*
D11*
X44100001Y27400000D03*
X38200001Y27400000D03*
%TD*%
D10*
%TO.C,J54*%
X124900000Y20900000D03*
X125400000Y20900000D03*
X125900000Y20900000D03*
X126400000Y20900000D03*
X126900000Y20900000D03*
X127400000Y20900000D03*
D11*
X129100000Y18300000D03*
X123200000Y18300000D03*
%TD*%
D10*
%TO.C,J23*%
X53700000Y39100000D03*
X54200000Y39100000D03*
X54700000Y39100000D03*
X55200000Y39100000D03*
X55700000Y39100000D03*
X56200000Y39100000D03*
D11*
X57900000Y36500000D03*
X52000000Y36500000D03*
%TD*%
D10*
%TO.C,J53*%
X124900000Y30000000D03*
X125400000Y30000000D03*
X125900000Y30000000D03*
X126400000Y30000000D03*
X126900000Y30000000D03*
X127400000Y30000000D03*
D11*
X129100000Y27400000D03*
X123200000Y27400000D03*
%TD*%
D10*
%TO.C,J2*%
X25000000Y66400000D03*
X25500000Y66400000D03*
X26000000Y66400000D03*
X26500000Y66400000D03*
X27000000Y66400000D03*
X27500000Y66400000D03*
D11*
X29200000Y63800000D03*
X23300000Y63800000D03*
%TD*%
D10*
%TO.C,J3*%
X25000000Y57300000D03*
X25500000Y57300000D03*
X26000000Y57300000D03*
X26500000Y57300000D03*
X27000000Y57300000D03*
X27500000Y57300000D03*
D11*
X29200000Y54700000D03*
X23300000Y54700000D03*
%TD*%
D10*
%TO.C,J34*%
X82400000Y48200000D03*
X82900000Y48200000D03*
X83400000Y48200000D03*
X83900000Y48200000D03*
X84400000Y48200000D03*
X84900000Y48200000D03*
D11*
X86600000Y45600000D03*
X80700000Y45600000D03*
%TD*%
D10*
%TO.C,J41*%
X96200000Y30000000D03*
X96700000Y30000000D03*
X97200000Y30000000D03*
X97700000Y30000000D03*
X98200000Y30000000D03*
X98700000Y30000000D03*
D11*
X100400000Y27400000D03*
X94500000Y27400000D03*
%TD*%
D10*
%TO.C,J11*%
X11200000Y38900000D03*
X11700000Y38900000D03*
X12200000Y38900000D03*
X12700000Y38900000D03*
X13200000Y38900000D03*
X13700000Y38900000D03*
D11*
X15400000Y36300000D03*
X9500000Y36300000D03*
%TD*%
D12*
%TO.C,J48*%
X130400000Y11800000D03*
X130900000Y11800000D03*
X131400000Y11800000D03*
X131900000Y11800000D03*
X132400000Y11800000D03*
X132900000Y11800000D03*
X133400000Y11800000D03*
X133900000Y11800000D03*
X134400000Y11800000D03*
X134900000Y11800000D03*
X135400000Y11800000D03*
X135900000Y11800000D03*
D11*
X137600000Y9200000D03*
X128700000Y9200000D03*
%TD*%
D10*
%TO.C,J9*%
X11200000Y57300000D03*
X11700000Y57300000D03*
X12200000Y57300000D03*
X12700000Y57300000D03*
X13200000Y57300000D03*
X13700000Y57300000D03*
D11*
X15400000Y54700000D03*
X9500000Y54700000D03*
%TD*%
D10*
%TO.C,J55*%
X138700000Y66400000D03*
X139200000Y66400000D03*
X139700000Y66400000D03*
X140200000Y66400000D03*
X140700000Y66400000D03*
X141200000Y66400000D03*
D11*
X142900000Y63800000D03*
X137000000Y63800000D03*
%TD*%
D10*
%TO.C,J59*%
X138700000Y30000000D03*
X139200000Y30000000D03*
X139700000Y30000000D03*
X140200000Y30000000D03*
X140700000Y30000000D03*
X141200000Y30000000D03*
D11*
X142900000Y27400000D03*
X137000000Y27400000D03*
%TD*%
D10*
%TO.C,J33*%
X82400000Y57300000D03*
X82900000Y57300000D03*
X83400000Y57300000D03*
X83900000Y57300000D03*
X84400000Y57300000D03*
X84900000Y57300000D03*
D11*
X86600000Y54700000D03*
X80700000Y54700000D03*
%TD*%
D10*
%TO.C,J46*%
X109999999Y39100000D03*
X110499999Y39100000D03*
X110999999Y39100000D03*
X111499999Y39100000D03*
X111999999Y39100000D03*
X112499999Y39100000D03*
D11*
X114199999Y36500000D03*
X108299999Y36500000D03*
%TD*%
D12*
%TO.C,J31*%
X101900000Y11800000D03*
X102400000Y11800000D03*
X102900000Y11800000D03*
X103400000Y11800000D03*
X103900000Y11800000D03*
X104400000Y11800000D03*
X104900000Y11800000D03*
X105400000Y11800000D03*
X105900000Y11800000D03*
X106400000Y11800000D03*
X106900000Y11800000D03*
X107400000Y11800000D03*
X107900000Y11800000D03*
X108400000Y11800000D03*
D11*
X110100000Y9200000D03*
X100200000Y9200000D03*
%TD*%
D10*
%TO.C,J15*%
X67500000Y66400000D03*
X68000000Y66400000D03*
X68500000Y66400000D03*
X69000000Y66400000D03*
X69500000Y66400000D03*
X70000000Y66400000D03*
D11*
X71700000Y63800000D03*
X65800000Y63800000D03*
%TD*%
D10*
%TO.C,J56*%
X138700000Y57300000D03*
X139200000Y57300000D03*
X139700000Y57300000D03*
X140200000Y57300000D03*
X140700000Y57300000D03*
X141200000Y57300000D03*
D11*
X142900000Y54700000D03*
X137000000Y54700000D03*
%TD*%
D10*
%TO.C,J25*%
X39900001Y66400000D03*
X40400001Y66400000D03*
X40900001Y66400000D03*
X41400001Y66400000D03*
X41900001Y66400000D03*
X42400001Y66400000D03*
D11*
X44100001Y63800000D03*
X38200001Y63800000D03*
%TD*%
D12*
%TO.C,J14*%
X45400000Y11800000D03*
X45900000Y11800000D03*
X46400000Y11800000D03*
X46900000Y11800000D03*
X47400000Y11800000D03*
X47900000Y11800000D03*
X48400000Y11800000D03*
X48900000Y11800000D03*
X49400000Y11800000D03*
X49900000Y11800000D03*
X50400000Y11800000D03*
X50900000Y11800000D03*
X51400000Y11800000D03*
X51900000Y11800000D03*
D11*
X53600000Y9200000D03*
X43700000Y9200000D03*
%TD*%
D10*
%TO.C,J29*%
X39900001Y39100000D03*
X40400001Y39100000D03*
X40900001Y39100000D03*
X41400001Y39100000D03*
X41900001Y39100000D03*
X42400001Y39100000D03*
D11*
X44100001Y36500000D03*
X38200001Y36500000D03*
%TD*%
D10*
%TO.C,J57*%
X138700000Y47900000D03*
X139200000Y47900000D03*
X139700000Y47900000D03*
X140200000Y47900000D03*
X140700000Y47900000D03*
X141200000Y47900000D03*
D11*
X142900000Y45300000D03*
X137000000Y45300000D03*
%TD*%
D10*
%TO.C,J42*%
X109999999Y66400000D03*
X110499999Y66400000D03*
X110999999Y66400000D03*
X111499999Y66400000D03*
X111999999Y66400000D03*
X112499999Y66400000D03*
D11*
X114199999Y63800000D03*
X108299999Y63800000D03*
%TD*%
D10*
%TO.C,J38*%
X96200000Y57300000D03*
X96700000Y57300000D03*
X97200000Y57300000D03*
X97700000Y57300000D03*
X98200000Y57300000D03*
X98700000Y57300000D03*
D11*
X100400000Y54700000D03*
X94500000Y54700000D03*
%TD*%
D10*
%TO.C,J35*%
X82400000Y39100000D03*
X82900000Y39100000D03*
X83400000Y39100000D03*
X83900000Y39100000D03*
X84400000Y39100000D03*
X84900000Y39100000D03*
D11*
X86600000Y36500000D03*
X80700000Y36500000D03*
%TD*%
D10*
%TO.C,J20*%
X67500000Y20900000D03*
X68000000Y20900000D03*
X68500000Y20900000D03*
X69000000Y20900000D03*
X69500000Y20900000D03*
X70000000Y20900000D03*
D11*
X71700000Y18300000D03*
X65800000Y18300000D03*
%TD*%
D10*
%TO.C,J6*%
X25000000Y30000000D03*
X25500000Y30000000D03*
X26000000Y30000000D03*
X26500000Y30000000D03*
X27000000Y30000000D03*
X27500000Y30000000D03*
D11*
X29200000Y27400000D03*
X23300000Y27400000D03*
%TD*%
D10*
%TO.C,J17*%
X67500000Y48200000D03*
X68000000Y48200000D03*
X68500000Y48200000D03*
X69000000Y48200000D03*
X69500000Y48200000D03*
X70000000Y48200000D03*
D11*
X71700000Y45600000D03*
X65800000Y45600000D03*
%TD*%
D10*
%TO.C,J50*%
X124900000Y57300000D03*
X125400000Y57300000D03*
X125900000Y57300000D03*
X126400000Y57300000D03*
X126900000Y57300000D03*
X127400000Y57300000D03*
D11*
X129100000Y54700000D03*
X123200000Y54700000D03*
%TD*%
D10*
%TO.C,J26*%
X39900001Y57300000D03*
X40400001Y57300000D03*
X40900001Y57300000D03*
X41400001Y57300000D03*
X41900001Y57300000D03*
X42400001Y57300000D03*
D11*
X44100001Y54700000D03*
X38200001Y54700000D03*
%TD*%
D10*
%TO.C,J40*%
X96200000Y39100000D03*
X96700000Y39100000D03*
X97200000Y39100000D03*
X97700000Y39100000D03*
X98200000Y39100000D03*
X98700000Y39100000D03*
D11*
X100400000Y36500000D03*
X94500000Y36500000D03*
%TD*%
D10*
%TO.C,J24*%
X53700000Y30000000D03*
X54200000Y30000000D03*
X54700000Y30000000D03*
X55200000Y30000000D03*
X55700000Y30000000D03*
X56200000Y30000000D03*
D11*
X57900000Y27400000D03*
X52000000Y27400000D03*
%TD*%
D10*
%TO.C,J37*%
X82400000Y20900000D03*
X82900000Y20900000D03*
X83400000Y20900000D03*
X83900000Y20900000D03*
X84400000Y20900000D03*
X84900000Y20900000D03*
D11*
X86600000Y18300000D03*
X80700000Y18300000D03*
%TD*%
D12*
%TO.C,J1*%
X16700000Y11800000D03*
X17200000Y11800000D03*
X17700000Y11800000D03*
X18200000Y11800000D03*
X18700000Y11800000D03*
X19200000Y11800000D03*
X19700000Y11800000D03*
X20200000Y11800000D03*
X20700000Y11800000D03*
X21200000Y11800000D03*
X21700000Y11800000D03*
X22200000Y11800000D03*
D11*
X23900000Y9200000D03*
X15000000Y9200000D03*
%TD*%
D10*
%TO.C,J52*%
X124900000Y39100000D03*
X125400000Y39100000D03*
X125900000Y39100000D03*
X126400000Y39100000D03*
X126900000Y39100000D03*
X127400000Y39100000D03*
D11*
X129100000Y36500000D03*
X123200000Y36500000D03*
%TD*%
D10*
%TO.C,J12*%
X11200000Y30000000D03*
X11700000Y30000000D03*
X12200000Y30000000D03*
X12700000Y30000000D03*
X13200000Y30000000D03*
X13700000Y30000000D03*
D11*
X15400000Y27400000D03*
X9500000Y27400000D03*
%TD*%
D10*
%TO.C,J10*%
X11200000Y47900000D03*
X11700000Y47900000D03*
X12200000Y47900000D03*
X12700000Y47900000D03*
X13200000Y47900000D03*
X13700000Y47900000D03*
D11*
X15400000Y45300000D03*
X9500000Y45300000D03*
%TD*%
D10*
%TO.C,J45*%
X109999999Y30000000D03*
X110499999Y30000000D03*
X110999999Y30000000D03*
X111499999Y30000000D03*
X111999999Y30000000D03*
X112499999Y30000000D03*
D11*
X114199999Y27400000D03*
X108299999Y27400000D03*
%TD*%
D10*
%TO.C,J4*%
X25000000Y48200000D03*
X25500000Y48200000D03*
X26000000Y48200000D03*
X26500000Y48200000D03*
X27000000Y48200000D03*
X27500000Y48200000D03*
D11*
X29200000Y45600000D03*
X23300000Y45600000D03*
%TD*%
D10*
%TO.C,J30*%
X39900001Y48200000D03*
X40400001Y48200000D03*
X40900001Y48200000D03*
X41400001Y48200000D03*
X41900001Y48200000D03*
X42400001Y48200000D03*
D11*
X44100001Y45600000D03*
X38200001Y45600000D03*
%TD*%
M02*
