#VRML V2.0 utf8
# Approximate closed connector preview from HC-FPC-FH20 family dimensions.
Transform { translation 0.0 -0.718503937007874 0.31496062992125984 children [ Shape { appearance Appearance { material Material { diffuseColor 0.85 0.85 0.8 } } geometry Box { size 4.488188976377953 2.02755905511811 0.5511811023622046 } } ] }
Transform { translation 0.0 -1.2992125984251968 0.6299212598425197 children [ Shape { appearance Appearance { material Material { diffuseColor 0.16 0.16 0.16 } } geometry Box { size 3.543307086614173 0.6692913385826771 0.31496062992125984 } } ] }
Transform { translation -1.279527559055118 0.5118110236220472 0.03937007874015748 children [ Shape { appearance Appearance { material Material { diffuseColor 0.7 0.7 0.7 } } geometry Box { size 0.07874015748031496 0.5905511811023622 0.07874015748031496 } } ] }
Transform { translation -1.0826771653543308 0.5118110236220472 0.03937007874015748 children [ Shape { appearance Appearance { material Material { diffuseColor 0.7 0.7 0.7 } } geometry Box { size 0.07874015748031496 0.5905511811023622 0.07874015748031496 } } ] }
Transform { translation -0.8858267716535433 0.5118110236220472 0.03937007874015748 children [ Shape { appearance Appearance { material Material { diffuseColor 0.7 0.7 0.7 } } geometry Box { size 0.07874015748031496 0.5905511811023622 0.07874015748031496 } } ] }
Transform { translation -0.6889763779527559 0.5118110236220472 0.03937007874015748 children [ Shape { appearance Appearance { material Material { diffuseColor 0.7 0.7 0.7 } } geometry Box { size 0.07874015748031496 0.5905511811023622 0.07874015748031496 } } ] }
Transform { translation -0.4921259842519685 0.5118110236220472 0.03937007874015748 children [ Shape { appearance Appearance { material Material { diffuseColor 0.7 0.7 0.7 } } geometry Box { size 0.07874015748031496 0.5905511811023622 0.07874015748031496 } } ] }
Transform { translation -0.2952755905511811 0.5118110236220472 0.03937007874015748 children [ Shape { appearance Appearance { material Material { diffuseColor 0.7 0.7 0.7 } } geometry Box { size 0.07874015748031496 0.5905511811023622 0.07874015748031496 } } ] }
Transform { translation -0.09842519685039369 0.5118110236220472 0.03937007874015748 children [ Shape { appearance Appearance { material Material { diffuseColor 0.7 0.7 0.7 } } geometry Box { size 0.07874015748031496 0.5905511811023622 0.07874015748031496 } } ] }
Transform { translation 0.09842519685039369 0.5118110236220472 0.03937007874015748 children [ Shape { appearance Appearance { material Material { diffuseColor 0.7 0.7 0.7 } } geometry Box { size 0.07874015748031496 0.5905511811023622 0.07874015748031496 } } ] }
Transform { translation 0.2952755905511811 0.5118110236220472 0.03937007874015748 children [ Shape { appearance Appearance { material Material { diffuseColor 0.7 0.7 0.7 } } geometry Box { size 0.07874015748031496 0.5905511811023622 0.07874015748031496 } } ] }
Transform { translation 0.4921259842519685 0.5118110236220472 0.03937007874015748 children [ Shape { appearance Appearance { material Material { diffuseColor 0.7 0.7 0.7 } } geometry Box { size 0.07874015748031496 0.5905511811023622 0.07874015748031496 } } ] }
Transform { translation 0.6889763779527559 0.5118110236220472 0.03937007874015748 children [ Shape { appearance Appearance { material Material { diffuseColor 0.7 0.7 0.7 } } geometry Box { size 0.07874015748031496 0.5905511811023622 0.07874015748031496 } } ] }
Transform { translation 0.8858267716535433 0.5118110236220472 0.03937007874015748 children [ Shape { appearance Appearance { material Material { diffuseColor 0.7 0.7 0.7 } } geometry Box { size 0.07874015748031496 0.5905511811023622 0.07874015748031496 } } ] }
Transform { translation 1.0826771653543308 0.5118110236220472 0.03937007874015748 children [ Shape { appearance Appearance { material Material { diffuseColor 0.7 0.7 0.7 } } geometry Box { size 0.07874015748031496 0.5905511811023622 0.07874015748031496 } } ] }
Transform { translation 1.279527559055118 0.5118110236220472 0.03937007874015748 children [ Shape { appearance Appearance { material Material { diffuseColor 0.7 0.7 0.7 } } geometry Box { size 0.07874015748031496 0.5905511811023622 0.07874015748031496 } } ] }
Transform { translation -1.9488188976377954 -0.5118110236220472 0.03937007874015748 children [ Shape { appearance Appearance { material Material { diffuseColor 0.7 0.7 0.7 } } geometry Box { size 0.7874015748031495 0.6692913385826771 0.07874015748031496 } } ] }
Transform { translation 1.9488188976377954 -0.5118110236220472 0.03937007874015748 children [ Shape { appearance Appearance { material Material { diffuseColor 0.7 0.7 0.7 } } geometry Box { size 0.7874015748031495 0.6692913385826771 0.07874015748031496 } } ] }
